<svg xmlns="http://www.w3.org/2000/svg" viewBox="0 0 16 16" fill="rgb(132,17,14)"><path d="M8 3.019v-1.019h2v-1c0-.552-.448-1-1-1h-3c-.552 0-1 .448-1 1v1h2v1.019c-3.356.255-6 3.059-6 6.481 0 3.59 2.91 6.5 6.5 6.5s6.5-2.91 6.5-6.5c0-3.422-2.644-6.226-6-6.481zm3.036 10.017c-.944.944-2.2 1.464-3.536 1.464s-2.591-.52-3.536-1.464c-.944-.944-1.464-2.2-1.464-3.536s.52-2.591 1.464-3.536c.907-.907 2.101-1.422 3.377-1.462l-.339 4.907c-.029.411.195.591.497.591s.527-.18.497-.591l-.339-4.907c1.276.04 2.47.555 3.377 1.462.944.944 1.464 2.2 1.464 3.536s-.52 2.591-1.464 3.536z"/></svg>