<svg xmlns="http://www.w3.org/2000/svg" viewBox="-20, 0, 170, 170"><path style="fill:transparent" d="M0 0h130v170h-130z"/><path d="M49.7 6.4l4.8-1.9-.2 1c-.7 3-.8 6-.8 9l-.9.3c-1.1.3-2.3.7-2.9 1.7l2 .9c-.6.1-1.8.3-2.5.4l-.8.7c-.5.8-1.1 1-1.8.5l.8-1.9c-.6-.7-1.4-1.4-2.2-2.1-2.3.8-4.6-.83-6.8-1.13.7 1.4 1.9 2.13 3.2 2.53.2.6.6 1.7.8 2.2l-.8.8-2.72 1.378.72-2.378c-2.9 1-5.7 2.5-8.8 2.9l-.6 3.6c1.2-.3 2-.41 3.2-.81-3 2.035-3.89 5.11-4.3 8.41 1.8-1.9 3.3-4 5.5-5.6 2.2-2 5.4-2.1 8.3-2.3l1-.1c.7-.1 1.9-.2 2.6-.2l-2.3 2.1c-.7 0-2.2.1-2.9.2l1.3 2c2.5-1.4 5.5-1.2 7.4 1-1.8-.3-3.8-.8-5.6-1l3.4 2.8 1.5-.3c.4.8.9 1.6 1.3 2.5l-1.3 1.2c-1.9-1.7-4-3.6-6.5-4.2-2.5-.9-5.3-.2-7.7-1.7-1.5 1.6-3.356 3.07-4.1 5.1-.38 1.906-1.284 3.872-2.4 5.262-.4-1.562-.7-3.162-.9-4.862-.6-5.4 1.8-10.2 3.5-15.2 2.6.9 5.1-.6 6.9-2.3-1.1-.1-2.775-.3-3.875-.5.7-.3 1.475-1 2.175-1.2-.7-.4-1.4-.9-2.2-1.3 2.7-2.3 5.4-4.9 9.1-5.3v1.5c-1.3.1-2.6.2-3.9.2.3.6 1 1.8 1.4 2.3l.3.1c2.1.6 4.2-.1 6.2-1 1.9-.5 3.7-1.5 5.2-2.7-.9-.9-1.7-1.8-2.8-2.6z" fill="#797979"/><path d="M54.6 4.5c1.4 0 2.8 0 4.2.1 1.4 1.5 3 2.7 4.8 3.9.7-1 1.5-2 2.1-2.9-.1 1.6-.1 3.3-.1 4.9-.8 1.1-1.6 2.2-2.5 3.3-1.8-.3-3.6-.5-5.4-.7-.9-1.7-.3-5.6-3.1-5.2.2 3.6.5 7.4 2.2 10.7 2 .1 4-.5 5.9-1-1 .9-2 1.722-3 2.522l-1.5.578c.7-2.3-2.7-1.1-.9.4l.9 2.4-2.4 1.2c-1-1.5-2.2-3-2.4-4.8l.1-5.5c0-3 .1-6 .8-9 .5.3 1.4.9 1.8 1.2-.3-.5-1.1-1.6-1.5-2.1z" fill="#CBCBCB"/><path d="M58.7 4.6c3.7.6 8.1-.7 11.2 1.9 3 2.2 6.8 4 7.6 8-.7-.2-2.3-.4-3.1-.5l-.5-3.2c-2 1.9-4.3 3.5-6.7 4.8-.6-1.4-1.1-2.9-.4-4.4.3-1.8 1.9-5.5-1.1-5.6-.7 1-1.4 2-2.1 2.9-1.7-1.1-3.4-2.4-4.9-3.9z" fill="#797979"/><path d="M43.6 9.1c1.4-2.1 4.1-2 6.2-2.7 1 .8 1.978 1.76 2.878 2.66-1.6 1.2-3.478 2.04-5.378 2.64-.1-.6-.1-1.8-.2-2.5-.9 0-2.7-.1-3.5-.1z" fill="#A9A9A9"/><path d="M69.7 9.8c1.2.6 1.2 1.3-.2 2.1-1.2-.6-1.2-1.3.2-2.1z" fill="#9A9A9A"/><path d="M31.2 19.2c.7-1.9 1.8-4.07 3.2-5.47.7.4 1.2 1.07 2 1.47-.7.3-1.475 1-2.175 1.2 1.1.1 2.775.3 3.875.5-1.9 1.8-4.3 3.3-6.9 2.3z" fill="#B4B4B7"/><path d="M38.4 13.822c2.3.4 4.4 1.83 6.7.93.8.7 1.7 1.57 2.4 2.27l-.8 1.9c-1.6-1.1-3.3-1.922-5.1-2.522-1.4-.4-2.6-1.13-3.2-2.53z" fill="#424242"/><path d="M49.7 16.5c.6-1 1.8-1.5 2.9-1.7-.1.6-.2 1.9-.2 2.5l-.7.1-2-.9z" fill="#AAA1A9"/><path d="M52.51 14.8l.99-.3v5.5c-1-.3-2-.6-3.1-.9l-2-.6.8-.7c.6-.1 1.8-.3 2.5-.4l.7-.1z" fill="#60494E"/><path d="M73.1 15.2c2-.1 3.9-.1 5.9-.1-.4.9-.9 1.8-1.4 2.7-2.3.1-1.8 1.3-1.4 2.5.4-.4 1.1-1.2 1.5-1.5 2.1 1.2 1.087 4.525 1.416 6.572l-.116.828c-2.5.2-3.6 2.4-3.7 4.7-.7-.6-1.4-.9-2.1-1.4-.5-.4-1.6-1.1-2.2-1.5l1.7-.4c1.3-.4 2.5-.9 3.8-1.5-.7-1.3-1.5-2.6-2.3-3.9l-1.5-1.9.4-5.1z" fill="#424242"/><path d="M79 15.1c.3 1.2.1 2.6.3 3.7 1.2 1.1 2.5 2.1 3.3 3.6l-1.9-.1 1.1.7c-.5.9-1 1.8-1.5 2.8l2.4-1.9c.7 2 3 5.8.1 7-.2-1.4-.5-2.8-.7-4.1-.4 2.4-1.1 4.8-1.8 7.1-1.2.4-2.4.4-3.5.7l-.5-1c.4-.1 1.1-.3 1.6-.5 1.8-1.3-1.5-1.8-2.3-1.2l-.3-1c.1-2.3 1.2-4.525 3.7-4.7 0 .8 0 2.5-.1 3.2l-2.8.1c1.1.6 2.3 1 3.5 1.3-.1-1.8-.3-3.5-.5-5.3-.4-2.1.7-5.5-1.4-6.6l-1.5 1.5c-.4-1.2-.8-2.5-1.3-3.7.9.4 1.8.8 2.7 1.1z" fill="#837A7F"/><path d="M41.6 16.4c1.8.6 3.5 1.456 5.1 2.456.7.5 1.2.444 1.7-.356l2 .5c1.2 1.8 2.2 3.6 3.3 5.5-.8.7-1.4 1.4-2 2.2l-1.3.1c-.2-1.3-2.5-1.9-2.8-.3.5.2 1.4.5 1.9.6.6.8 1.2 1.6 1.9 2.4l1.7 2.1-1.8 2.1-.7-.1c-.4-.8-.9-1.6-1.3-2.5l-1.5.3-3.4-2.8c1.9.2 3.8.6 5.6 1-2-2.07-4.9-2.215-7.4-1l-1.3-2c.65-.13 2.174-.288 2.9-.2l2.3-2.1c1-.2 2.1-.3 3.1-.6l2.3.6c-.3-.5-.8-1.5-1.1-1.9-2.8-1.6-5.9-3.1-9.2-3l.6-.85c-.2-.6-.4-1.65-.6-2.15z" fill="#A8A4A8"/><path d="M62.7 17.6l3-1.2c1.4-.2 2.6-.4 3.3-.5.2.5.603 1.4.8 1.8 1 1.8 1.8 3 2.6 4.1l.3-1.5 1.5 1.9c-.2.8-.6 2.6-.7 3.4-1-.9-2-1.9-3.1-2.8.6 1.7 1.4 3.2 2.3 4.8l-1.7.4c-1.1-.4-2.2-.9-3.4-1.3l3 3.8-1.4.5-2.6-.4-.9-1.3.4-1.1c-1.1-.5-2.2-.7-3.4-.7 0 .3 0 1 .1 1.3l-.4.6c-2.8.2-5.4 1-6.8 3.6-1.9-1.1-.3-2.8.6-4-1.6.2-3.2.4-4.8.5-.8-.7-1.2-1.47-1.9-2.4l.9-.3 1.3-.1c1.5.2 3.2.4 4.6-.4-.8-.6-1.7-1.2-2.6-1.8-1.1-1.8-2.1-3.7-3.3-5.5 1 .3 2 .6 3.1.9.2 1.8 1.3 3.4 2.3 4.8l2.4-1.2.5.7c.7 1.4 3.3 0 2.9-1.5-.1-1.3-.6-2.14-1.9-2.578z" fill="#797979"/><path d="M30.9 21.3c3.1-.4 5.8-1.9 8.7-2.9l-.7 2.5c-1.7.9-5.5 3.19-5.5 3.19s-1.887.61-3.2.81l.6-3.6z" fill="#555059"/><path d="M38.88 20.778c.9-.5 1.72-.878 2.72-1.378 3.3-.1 6.5 1.3 9.3 3l-1.2 1.3-3 .7c-.7.1-1.9.2-2.6.2l-2.2-4.2-.3 1.6c-1.7-.4-3.3-.1-4.4 1.3 2 .5 3.9 1 5.9 1.4-2.9.2-6.1.3-8.5 2.2-2 1.7-3.7 3.7-5.5 5.6.2-3.5 1.7-6.87 4.8-8.77z" fill="#CBCBCB"/><path d="M41.9 20.4l2.2 4.2-1 .1c-2-.4-3.9-.9-5.9-1.4 1.1-1.4 2.7-1.7 4.4-1.3l.3-1.6z" fill="#F0F0F4"/><path d="M58.2 20.7l1.5-.578c1.3.4 1.9 1.378 2 2.678-.4-.1-1.3-.3-1.7-.5-.3.5-1 1.5-1.3 1.9l-.5-.7-.9-2.4z" fill="#AAA4A4"/><path d="M61.7 22.8c.4 1.5-2.3 2.8-3 1.4.3-.5 1-1.5 1.3-1.9z" fill="#655959"/><path d="M66.8 22.7h.6-.6z" fill="#424242"/><path d="M49.6 23.7l1.2-1.3c.3.5.8 1.5 1.1 1.9l-2.3-.6z" fill="#EEEEE0"/><path d="M53.5 24.3l2.8 2c-1.4.8-3.1.6-4.6.4.6-.8 1.1-1.7 1.8-2.4z" fill="#C2C2C2"/><path d="M66.2 24.7l.5.3-.5-.3z" fill="#424242"/><path d="M47.6 26.5c.3-1.6 2.5-1 2.8.3l-.9.3c-.475.025-1.35-.4-1.9-.6z" fill="#D2D2D2"/><path d="M62.7 27.4c1.2-.1 2.3.3 3.4.8l-.3 1-3.1-.4-.1-1.3z" fill="#4E434E"/><path d="M67.6 26.7c1.1.4 2.2.8 3.4 1.3l2.2 1.5c-.6.2-2 .7-2.6 1z" fill="#CBCCD6"/><path d="M35.1 28.9c2.3 1.5 5.3.822 7.8 1.722 2.5.6 4.5 2.578 6.4 4.178l1.4 3c.5 2.3.9 4.5 1.4 6.9l-.3 1.6-.8.8c0-5.4-2-10.7-5.4-14.8-4-.3-8.8-1.8-12.1 1.4-2.2 2.6-2.2 6.3-2.7 9.6 1.3-2.7 1.3-6.5 4.3-8 2.1-1.4 4.6-.5 6.9-.2-2 .3-4 .5-5.9.9-4.2 2.4-1.6 8.5-5.9 10.9 1.1.1 2.893-.575 3.2.5.372 1.3.7 2.6 1.1 3.9.4.3 1.1 1 1.4 1.4l4.3.1c-.7.9-1.5 1.8-2.2 2.6l2.7.9c-2.4 1.2-2.925 3.903-3.5 6.2l3.2-.9c-.2 1.6-.4 3.2-.5 4.9-.1 2.6-.2 5.7-.1 8.3l-1.013-.194c-1.3-2.9-.687-6.806-.187-9.806-.4.1-1.2.2-1.7.3-.1-2.8-.1-5.7-.1-8.5l-3.3-1.6c.7-.1 2.1-.3 2.9-.5-1.247-1.05-2.302-2.297-3.348-3.54l-.452-.36-.1-.095c.68 3.45.415 1.72.8 5.195-3-1.5-3.6-5-3.6-8 .1-2.7.4-5.4.2-8.1-2.6 3-1.3 7.2-2 10.9-2.2-5.1-1.897-10-.097-15.2.2 1.7.497 2.262.797 3.962l2.2-4.546c.5-2.3 2.8-4.316 4.3-5.816z" fill="#CBCBCB"/><path d="M51.4 29.5l4.8-.5c-.8 1.3-2.4 2.9-.6 4 1.4-2.7 4-3.4 6.8-3.6l.3-.6 3.1.4.9 1.3c-5.2-1.8-10.863 1.875-11.6 7.3.7-.6 2-1.7 2.6-2.3-.8 2.5-1.4 5.1-1.2 7.7l-.6-.8c-.2-1.5-.59-2.42-.69-3.92-.9.6-2.472 1.87-2.21.82.1-.4.284-.96.5-1.428.562-1.218 1-2.472 1.4-3.772-.5-.1-1.4-.572-1.9-.7l-1.7.3 1.8-2.1-1.7-2z" fill="#D6D6D6"/><path d="M55.1 37.8c.6-5.5 6.5-9.1 11.6-7.3l2.6.4c.9.9 1.8 1.9 2.8 2.8.6 4.8 2.1 9.5 2.1 14.4l-1.6-.8c-1.4-.6-1.9 1-2.4 2.6l-.3-.2c-.6-1.3-1.2-2.6-1.7-3.9.6-1 1.1-2 1.7-3.1l1.2-3.1c.1 2 .294 4.006.594 6.006 1.6-4 .606-9.406-3.594-11.206l-2.3-.8c-.6-.2-1.8-.6-2.3-.7l-2.7.4c-1.5 0-2.5 1.1-3.1 2.3z" fill="#424242"/><path d="M73.2 29.5c.7.5 1.6.78 2.1 1.4l.3 1 .7 1.7.5 1-1.3.4.7 2-1.1 1.9c-.6-2-1.3-4.1-2-6.1-.3.2-.8.7-1 .9-1-.9-1.9-1.9-2.8-2.8z" fill="#A9A9A9"/><path d="M83.1 30.7l1.4-.8c-.2 6.2.3 12.8-2.8 18.4l2.7.9c-.9 1.2-1.9 1.647-3.3 1.547l-2.3-.747-1.1-1.2c-.2-3-.7-6.2.1-9.2 1.3 1.2 2.4 5.2 4.6 3.2 1.1-3.9.2-8.1.5-12.1z" fill="#797979"/><path d="M33.5 33.688c3.3-3.1 8.1-1.7 12.1-1.4 3.4 4.1 5.4 9.4 5.4 14.8l-1.7 1.5c-.5-.2-1.4-.7-1.8-.9 1.2-4.3.6-9.9-3.7-12.3 2.4 3 4 6.812 2.6 10.612l-.6-3.013c-.5-2.1-1.4-4.1-2.5-6l-1.2-1.9c-2.2-.3-4.8-1.2-6.9.2-3 1.5-3.1 5.3-4.4 8 .5-3.2.5-6.887 2.7-9.587z" fill="#424242"/><path d="M75.6 31.9c.8-.6 4.1-.2 2.3 1.2-.4.1-1.2.4-1.7.6l-.7-1.7z" fill="#CECECE"/><path d="M63.5 32.8c3.1.9 3.8 1.2 4.6 1.5 1.1 1.7 2.3 3.3 3 5.2-.3 1.188-.6 2.014-1 3.014l-.9-3.7c-.3-.3-.9-.9-1.2-1.3l-1.2-2.1c-2 0-4.2.086-6.2.386-.4 2.7 3.8 1.3 5.6 1.5.2.6.6 1.6 1 2.2-1.1-.3-2.2-.6-3.4-.9l-2.1.9-.8.8c1.9.3 3.8.6 5.7 1.1-.5.1-1.5.4-2 .6-1.8-.2-3.6-.5-5.4-.8.9 2.1 2.8 3.4 4.6 4.8-.1.5-.2 1.4-.2 1.8-.2.2-.6.7-.8 1 2.2.7 4.6 1.3 6.9.4l.5.3.3.2c-.4 1.1-.8 2.2-1.3 3.3 2.3-1.1 2.7-3.6 3.4-5.7l1.8.8c.6 2.9-1.7 5.1-2.4 7.8l.9 1.1c1.9-.5 3.8-1.2 5.6-1.9l-.3 3.1c-1.6.7-3.2 1.3-4.8 1.9l-1.2 2.7c-.3-.7-.8-2.1-1.1-2.9l-1.2-1.2.8 2c.9 2.1 1.8 4.1 3.1 6l-4.2 4.7 2.5-.1 1.706-4.58c1.9 1.9 4.094 3.68 6.494 4.68 1 3.4 6 5.9 3.5 9.6l-1.4-2.6-.1-.2-.3.3c-.678 1.03-3 .8-4.4.1h2.7l.1-2.3c-2.9-.2-4.9-2.6-7.2-4.1l-3.7 1.2c1.2 1.1 2.3 2.3 3.5 3.5.7 1.2 2 1.3 3.3 1.4l-.2.9c-1.3 1.4-2.5 2.8-3.6 4.3-.6-.6-1.4-1.3-1.9-1.9.628-1.053 1.4-2.022 2.2-3-.383.3-1.263 1.088-2 1.4.1-1.1.2-2.2.4-3.3l-2.5-3.2c-.1 1.6-.1 3.4-.3 5-1.6 1.5-2.9 2.662-4.3 4.262-.2-4 2.6-6.662 4.1-10.262l-3 2.6c-.9-1.8-1.5-3.7-2.1-5.6-.3 2.2.2 4.5-.3 6.7-.1.1-.2.3-.2.4-.3 1.1-1.2 2.2-1.7 3.4-1.1.4-2.1.9-3 1.7-.3-3.1 4.4-5 2.2-8.1-.5.3-1.3.9-1.8 1.1-.4-1.1-1-1.8-2.2-1.2.1 1.2.6 2.4.3 3.6-1.3 1.8-3.1 3.1-4.8 4.6l4.8.6c-1.4 2.3-4.6 1.4-6.8.8l1.1-.3c-1.2-1.1-2.456-1.956-3.7-3.2-.1-1.3-.3-2.6-.3-3.9.65-1.075 2.1-1.3 3.1-2-.6 0-1.6 0-2.2-.1.6-1.4 1-3.006 2-4.1 1.5-.5 3.1-.8 4.7-1.1l2.2 1.4c1.7 1.1 3.2 2.2 4.9 3.2.2-1.5.4-3 .7-4.5h.6l1.4.3c.5.1 1.1.1 1.6.3.6.9 1 1.9 2 2.6 1.6-.7 1.437-.73.1-1.8 1.5-5.4.2-11.5 3-16.7-2 .9-4.1 1.9-6.2 2.7-3.2-.6-5.2-3.3-7.9-4.9l-2.4-1.5.2-2.9c-.7.8-1.3 1.6-2 2.5-.1-1.5-.2-3-.4-4.6-.6-2.28-.9-4.4-1.4-6.7 1.2-.9 1.1-2.9.6-4.1l1.7-.3c-.7 1.3-.3 3.272.5 4.472-.1.4-.4.928-.5 1.428l2.1-1.5c.1 1.5.8 2.8 1 4.3l.6.8.5.7c.5-2.9.972-5.5 2.072-8.3 1.4 0 5.067-1.537 1.867-2.037z" fill="#797979"/><path d="M63.5 32.8c1.7.5.5.1 0 0z" fill="#CBCCD6"/><path d="M72.1 33.7l1-.9 2 6.1c0 3 0 5.9.3 8.8 0 .7.1 2.2.1 3-1.1 1.8-2.2 3.5-3.5 5.2.7-2.7 2.8-5 2.2-7.9 0-4.9-1.5-9.6-2.1-14.4z" fill="#D6D6D6"/><path d="M49.3 34.8l1.3-1.2.7.1c.5 1.3.6 3.2-.6 4.1-.5-1-1-2-1.4-3z" fill="#4D4342"/><path d="M54.9 34.1c-.4 1.3-.8 2.572-1.4 3.772-.8-1.2-1.197-3.172-.5-4.472z" fill="#424242"/><path d="M57.7 35.6c.596-1.3 1.94-2.447 3.44-2.447 3.2.5-.337 2.197-1.868 2.147z" fill="#D6D6D6"/><path d="M42 35c.4.6.8 1.2 1.2 1.9-.4.8-1.2 2.4-1.6 3.1-2.2.4-4.5 1-6.3 2.4.4.1 1.1.4 1.4.5 1.1 1 2.2 2 3.2 3.1-.3.2-.8.5-1 .7l-3.7-1.5c1.6 2.2 4.2 2.4 6.7 1.9l-1.1-1.79c1-.8 2-1.51 3.1-2.21.4 0 1.4-.013 1.9-.113.3 1 .4 1.916.6 2.916l-1.7 4.197c-1.8-.1-3.5 1.1-4.2 2.7 1.4.1 2.9-.4 4-1.3l-1.8 3.528c-.566.488-1.4.872-2 1.272l-2.7-.9c.7-.9 1.5-1.8 2.2-2.6l-4.3-.1c-.4-.3-1.1-1-1.4-1.4l-1.1-3.9c-1.1-.1-2.1-.3-3.2-.5l5.9-11c1.9-.5 4.1-.613 6-.812z" fill="#797979"/><path d="M43.818 35.35c4.2 2.4 4.8 8 3.7 12.3l-2.818 2.45 1.7-4.197c1.4-3.8-.182-7.553-2.582-10.553z" fill="#D6D6D6"/><path d="M59.272 35.3c-1 2.8-1.572 5.3-2.072 8.3l-.8-1.01c-.2-2.6.4-4.49 1.3-6.99z" fill="#424242"/><path d="M60.8 35.714c2-.3 4-.3 6-.3l1.2 2.1c-.5 1.6-.1 2.1 1.2 1.3.4 1.2.6 2.5.9 3.7-.5 1-1.1 2.1-1.7 3.1l1.7 3.9-.5-.3c-1.7-1.3-4-1.4-6.1-1.4.1-.5.2-1.4.2-1.8 1.8-1.2 4.5-1.6 5.2-4-.6-.1-1.7-.4-2.3-.6-1.9-.5-3.8-.8-5.7-1.1l.8-.8 2.1-.9c1.2.286 2.4.65 3.4.9-.4-.483-.863-1.642-1-2.2-1.8-.1-6 1.3-5.6-1.5z" fill="#A9A9A9"/><path d="M37.8 36.8c1.5.1.6 2.5-.5 2.7-1.6-.1-.6-2.5.5-2.7z" fill="#9E939E"/><path d="M43.2 36.9c1.1 1.9 2.1 3.987 2.6 6.087-.4 0-1.385.213-1.9.113l-1-.5c.2-1.1.4-2.1.6-3.1-1.9 1.8-4.4 2.6-6.8 3.4-.4-.1-1.1-.4-1.4-.5 1.9-1.4 4.1-2 6.3-2.4.4-.8 1.2-2.4 1.6-3.1zm24.8.614c.3.3.9.9 1.2 1.3-1.3.8-1.7.4-1.2-1.3z" fill="#D6D6D6"/><path d="M75.1 38.947l1.1-1.9 1.8 2.5c-.8 3-.4 6.1-.1 9.2l1.1 1.2c0 1.4-.7 3.2.5 4.3 1.2-.9 1.7-2.1 1.6-3.5 1.4.2 2.4-.347 3.3-1.547-.6 5.5.1 11.047-.1 16.547-.6-4.7-1.3-9.5-1.2-14.3-.5.1-1.4.4-1.8.5-1.1 2-2.1 4.153-3.1 6.253l.075-2.97c-1.9.7-3.575 1.345-5.475 1.845l-.8-1.175c1.3-1.7 2.4-3.353 3.5-5.153 1.6-.5 1.7-2.7-.1-2.9-.2-3-.3-5.9-.3-8.8z" fill="#424242"/><path d="M61.5 39.6l2.1-.9-2.1.9z" fill="#D6D5C0"/><path d="M36.7 42.9c2.4-.9 4.9-1.7 6.8-3.4l-.6 3.1 1 .5c-1.1.8-2.1 1.51-3.1 2.21l-.9.69c-1-1.1-2.1-2.1-3.2-3.1z" fill="#424242"/><path d="M27.7 50.4c.7-3.6-.5-7.7 2.2-10.8.2 2.7-.1 5.4-.2 8.1 0 3 .6 6.5 3.6 8-.15-1.747-.4-3.5-.8-5.2l.5.4c1.1 1.3 2.2 2.6 3.5 3.6-.7.1-2.022.453-2.9.5 1.1.6 2.2 1.1 3.3 1.6 0 2.8-.1 5.7 0 8.5.4-.1 1.2-.2 1.7-.3-.5 3-1 6.025 0 9.1l.4 1.1-4.5.1-.7 2c-2.9-3.7 2-6.6 1.5-10.4.1-2.6-.6-5.1-1.4-7.5-.3 1.3-.6 2.5-.8 3.8l-.9-3.6-1.2-1.2-.5-.4-2 .9-.2-1.3c-.2-1.3-.6-2.5-1-3.7l.4-3.3z" fill="#797979"/><path d="M52.8 41z" fill="#A9A9A9"/><path d="M64.6 42c.5-.175 1.512-.702 2-.586.61.145 1.7.4 2.3.6-.6 2.4-3.3 2.892-5.2 4.092-1.8-1.3-3.6-2.756-4.5-4.906z" fill="#4F4345"/><path d="M39.8 42.9zm19 .9z" fill="#A9A9A9"/><path d="M35.2 45.2l3.7 1.4 1.9-1.29 1.1 1.79c-2.5.6-5.1.4-6.7-1.9z" fill="#CBCBCB"/><path d="M70.2 49.8c.5-1.6.894-2.594 1.494-4.194l.906 1.694c-.8 2.2-1.1 4.7-3.4 5.7l1-3.3z" fill="#D6D6D6"/><path d="M42.3 47.2c.5-.1 1.5-.2 2-.2.7 1.6-4.4 4.2-3.3 1.3l1.2-1.1z" fill="#CBCBCB"/><path d="M51 47l.8-.8-.1 5.4c-.8-.2-1.6-.4-2.4-.5h-1.3l-3.4.3.1-1.3 2.8-2.5c.5.2 1.4.7 1.8.9l1.7-1.5z" fill="#797979"/><path d="M54.5 46.6c-.1.7-.1 2.1-.2 2.9l2.5 1.56-1.8 1.64c.7 1.1 1.4 2 2.2 3.1-3.6.5-7.966.466-10.566 3.466-.3.4-.2-.1 0 0l2.966-.466c1.4.2 2.9.1 4.2-.2l1-.1.4.1c.5.2 1.6.7 2.2.9 3.7 1.7 4.6 6.1 6.7 9.3l-1.4-.3c0-2.1-1.2-3.9-3.1-4.8v-2.3c-2.9-.7-5.8-1.8-8.9-1.7-3.3.3-5.8 2.5-8 4.8.9-1.3 1.6-2.6 2.4-3.9.4-3.2 3.1-5.2 4.8-7.6l-1.2-1.9.462-.04c.8.1 1.738.34 2.538.54l-.3 4.4c.8-1 1.6-1.9 2.5-2.9l-1.6-1.5.2-2.5z" fill="#CBCBCB"/><path d="M75.4 47.8c1.8.2 1.7 2.447.1 2.947 0-.7-.1-2.147-.1-2.947z" fill="#160000"/><path d="M58.8 48.7c2.6 1.5 5.1 3.4 8.2 3.7l.8.9c-.6-.2-1.9-.5-2.5-.6l-4.1-1.1c-.9-.9-1.7-1.9-2.4-2.9z" fill="#D6D6D6"/><path d="M40.522 52.638c.7-1.6 2.378-2.638 4.178-2.538 0 .3.117 1.093-.1 1.3-1 .956-2.65 1.5-4.1 1.4z" fill="#C7C7C7"/><path d="M44.6 51.4l3.4-.3c-1.5 1.1-2.9 2.4-4.5 3.5l-.8.428c.55-1.145 1.2-2.328 1.8-3.528z" fill="#CBCBCB"/><path d="M48.7 51.1l1.3 1.9c-1.7 2.4-4.5 4.5-4.8 7.6l-2.5 3.9c2.2-2.297 4.8-4.578 8.1-4.8 3-.1 5.9 1.1 8.9 1.7v2.3c-.5 0-1.6-.1-2.2-.2-2.8-2.9-7-1.1-10.3-.4-1.1 1.2-2.1 2.4-3.6 3-1.2.1-2.6.2-3.7.4.1-1.6.3-3.2.5-4.9l-3.2.9c.4-2.4 1.2-5 3.5-6.2l2-1.272.9-.5 4.4-3.428z" fill="#7A4779"/><path d="M55 52.7l1.8-1.64c2.63 1.596 4.6 4.128 7.8 4.84.5.9 1.1 1.8 1.6 2.8l-4.7 1.8 2.7.5c0 2.8.2 5.5 1.5 8.1-.5-.1-1.1-.1-1.6-.3-2.122-3.053-3-7.7-6.7-9.3l1.2-1.9c-.5-.6-1-1.2-1.4-1.8-.8-1.1-1.5-2-2.2-3.1z" fill="#424242"/><path d="M61.3 51.6l4.1 1.1c-.3 2.1-5.2 1.2-4.1-1.1z" fill="#604456"/><path d="M28.6 53.1c3.3.1-1.5 3 0 0z" fill="#EBD7EB"/><path d="M75.8 52.9z" fill="#004100"/><path d="M64.6 55.9c2.032-.872 4.2-1.7 6.2-2.7-2.7 5.1-1.5 11.3-3 16.7 0 .4-.1 1.3-.1 1.8-1-.5-1.4-1.7-2-2.6-1.32-2.444-1.5-5.3-1.5-8.1l-2.7-.5 4.7-1.8c-.5-1-1.1-1.9-1.6-2.8z" fill="#A9A9A9"/><path d="M30.8 56z" fill="#CBCBCB"/><path d="M46.634 59.266c1.622-3.276 6.966-2.966 10.566-3.466l1.4 1.8-1.2 1.9-2.2-.9-.4-.1-1 .1c-1.1-1.5-3.3-1.4-4.2.2-.6.2-2.166 1.06-2.966.466z" fill="#797979"/><path d="M26.4 62.9c.3-1.9 1.1-3.7 1.9-5.5l.2 1.3 2-.9.5.4c-1.5 1.6-2.9 3.2-4.5 4.7z" fill="#D0D0D0"/><path d="M49.6 58.8c.9-1.6 3.1-1.8 4.2-.2-1.4.4-2.8.5-4.2.2zm5.1-.3l.4.1-.4-.1zm15.2.2l1.2 1.2-.524.66-.676-1.86z" fill="#424242"/><path d="M47.2 63.1c3.4-.7 7.5-2.5 10.3.4.5 0 1.5.1 2.1.2.2 1.8.8 3.9 2.5 4.8-.2 1.5-.4 3-.7 4.5-.7-2.8-2.2-5.4-2.3-8.3l-2.1-.1.1 1.6c-2.6-.453-5.2-.9-7.8-1.2-1.6 1-3.1 2.3-3.3 4.2l-1.4-.9c-.6 1.8-1.1 3.5-1.9 5.2-.1-2-.2-4.1-.3-6.2 1.6 1.9 2.9-.3 4.1-1.1l-3-.1c1.5-.7 2.6-1.8 3.7-3z" fill="#CBCBCB"/><path d="M59.6 63.7c1.9.9 3.1 2.7 3.1 4.8h-.6c-1.8-.9-2.4-2.9-2.5-4.8z" fill="#54534B"/><path d="M47.5 65z" fill="#424242"/><path d="M57 64.5l2.1.1c.1 3 1.6 5.6 2.3 8.4-1.7-1-3.3-2-4.9-3.2.268-1.144.4-2.4.6-3.7l-.1-1.6z" fill="#64545D"/><path d="M39.9 66.5c1.2-.375 2.4-.3 3.5-.4l3.1.1c-1.2.8-2.5 3-4.1 1.1.1 2 .2 4.1.3 6.2.8-1.7 1.4-3.5 1.9-5.2l1.4.9c.2-2 1.6-3.2 3.2-4.2 2.6.3 5.3.7 7.9 1.2-.2 1.3-.3 2.3-.6 3.6l-2.4-1.2c-1.6.3-3.063.6-4.663 1.1-.9 1.2-1.237 2.5-1.837 3.9.6 0 1.7.1 2.2.1-1.1.7-2.4 1-3.1 2 0 1.3.2 2.6.3 3.9l3.7 3.2-.663.2c-1.3-.7-2.737-1.625-4.037-2.425l-.8 1.425c2.1 1.4 3.8 3.4 6.2 4.2.7 1.9 1.2 3.8 1.3 5.8l-2.4.5c2.4.2 5 0 7.4.1-.2.5-.5 1.6-.6 2.1-3.5.5-7.5.9-11 .7.2-2.6 1.5-5.5.1-8-.9-1.9-2.5-3.2-4.1-4.5-.3 4.8 2.3 9 3.8 13.3 3.9.1 7.9.5 11.8.8-.4.4-1.2 1.3-1.6 1.8-1.9.2-3.9.4-5.8.7 2.5.2 5 .5 7.6.8-1.7 1.2-3.6 1.9-5.6 2.3h4l.1 1.1c-2.2.7-4.5 1-6.8 1.2l-.8-1.5h2.6c-2.5-.1-2.9-1.9-2.6-4-1.3-.5-2.6-.9-3.8-1.4.1 1 .2 1.9.2 2.9l1.7 1.6c-.7 2.3-1.3 4.7-1.8 7.1 3.7.2 7.5-.5 11.2-.6 1.6 0 2.5.8 2.5 2.3l1.7-.4 1.5 1.2c.5-.9 1.1-1.6 1.7-2.5l1.9-.2c1.5.1 3.2-.3 3.8-1.9.3 1.5 2.2 4.5 2.8 1.5.4-.6 1.2-1.6 1.7-2.2.2 1.9.3 3.8.4 5.7l3.1.5.8.5.3 1.7c-2.6-.2-5.3-.4-7.9.3l-1.7-.2c-1.6.1-3.5.2-5.2.1.9 2.2 3.5 1.6 5.4 2l-.5 1.5-.8-.1c-3.7-.1-7-2.1-10.6-2.5-1.5-1.1-3.2-1.9-4.9-2.8-2.8 3.8 0 8.1 2.1 11.4 1.1 1.1 2.6 1.4 3.9 2 1.4-2 3-3.8 4.7-5.5 1.9-.7 4.6-.1 5.8-1.9 2-.225 4-.7 5.9-1.5l-3.834.2-1.766-2.225c4.4.5 8.7.125 13-1.375l7 1.275.6-3c-2.4 1.6-5.5 1.625-8.3.925-.1-1.7-.1-3.5-.1-5.2 1.2.9 1.7 2.3 2.7 3.3 1.1.3 2.3.5 3.4.7.1-1.9.3-3.8.7-5.7 1.1 1.8 2.236 2.853 4.136 3.753-.9-1.3-1.336-1.853-2.336-3.053l2.2-.3c.8 1.2 2.1 2.1 3.3 3.1l-2.7.8c2 .5 4 1.1 6 1.7 1.9-1.5 3.5-3.1 5-5 .3.1.9.4 1.2.6-1.2 4.1-3.8 8.1-8.1 9.4-4.1 1.1-8.7.9-12.3 3.4-3.3 2.8-6.595 6.395-6.8 11.2-.017.39-.5 1-.6 1.4l-.9-3.2-1.1 4.7c-.5-1.8-1-3.5-1.6-5.2-.8-.8-1.7-1.6-2.6-2.3-.3.2-1 .6-1.4.7-1.6.9-2.8 1.93-4.5 2.8-.252.13-.5.5-.7.6-.3 2.2-.9 4.5-2.6 6.1-.2-2.4.4-4.8.9-7.1l2.1-1.9c-.6 0-1.9.1-2.6.1l2.9-4.2c1.6-.9 4.1-1.2 4.5-3.4-2.2.8-5 1.2-6.2 3.6-1.8 3-3.7 5.8-5.4 8.8-.5 3.1-.7 6.5 1.4 9.1 1.5.1 3.1.2 4.5-.1 1.7.1 3.2-.1 4.9-.4 2.2-.4 4.5-.6 6.6-1 2.4-.4 4.8-1.1 7.1-1.8.9.8 1.9 1.7 3 2.4 1.8.9 3.8 1.2 5.7 1.6-.8-1.2-2.1-1.7-3.4-1.7-1.7-1.9-4.197-3.652-3.6-6.6.5-2.47 2.8-4.2 4.2-6.2l-3.7-2.1-.2 4.422-2 .778c.3 1.5 2.525 4.36.997 4.284-3.797-.184-5.052-6.047-2.697-8.984 2.278-2.84 4.7-7.7 9.4-7.3-.8 2-2.6 3.1-4.8 3l2.4 3.3 1.6-.5c2.5-.3 4.2-2.2 5.7-4l-4.85-1.613.25-.887c1.6 0 3.1.1 4.8.2l5.8 2.1c-3.4 4.8-4 10.7-4.4 16.4l-.2.8c-.3-.2-1-.8-1.4-1-.1.4-.4 1.2-.6 1.6-.9-.1-2.6-.2-3.4-.3.1 2 .5 3.7.8 5.6.1.5.1 1.9.1 2.4l3.1 1.1c-.9 2.6-1.7 5.7-1.7 8.5.5 3.1 2 6 3.7 8.6 3.7-1.7 8.1-2.1 11.7 0-2.8 1.3-5.7.1-8.7 0 .6 1.4 1.1 2.9 1.6 4.3l-.98.375c-2.2-2.2-5.52-3.775-7.02-6.675-3-4.8-.1-10.9-3.4-15.6-.1 3.9 1 7.5.2 11.3-.7-1.7-1.2-3.5-1.5-5.3-1.1-1.8-2.2-3.3-3.2-5.1.3 1.8.4 3.6.6 5.4 1.5 2 2.3 4 2.3 6.5-4-2.6-5.8-7.1-6.7-11.6-1.2-.8-2.3-2-3.7-2.5.3-.3.8-.8 1.1-1l-3.6.9c-1.7.3-3.4.2-3.9-1.8-2.5-.4-4.8-.1-7.2.4-2.3.2-4.6.1-6.9 0-1.2-3.8-2.2-7.8-4.9-10.7 1.1-.1 2.1.3 3.2.3l2.1-5.1-.4-.2c-3.8-2.2-7.2-5.1-10.1-8.3l-.9 3c3 1.7 5.9 3.6 8.6 5.7h-3l-7.9-5c-.3-.5-.6-1.1-.8-1.6 1.13-.9 3.3-.9 3.534-2.813-2.9-5.9-2.334-13.187-4.234-19.387.1-.3.2-1 .2-1.3h-1.2c.3-2.7-.4-4.9-.9-7.5h-1.1c.4 2 .7 4.2.3 6.2 1.8 4.2-.4 9 2.1 13.1l-1.5-.4c-.2.2-.8.5-1 .6l-.2-7.1c-1.01-.1-2.035-.6-3.135-.9-.186-5.096.735-10.7-.565-15.8.9-1.4 2.4-2.3.5-3.8 1.1-1 2.2-1.9 3.4-2.9.1-1.5.2-3 .4-4.5-.3 0-.6-.5-.8-.4-1-1.672-.513-1.594-.613-1.894l1.013.194c-.1-2.6-.2-5.2-.1-7.8zm22.6 9.6c.5-2.2.3-4.4.6-6.6.6 1.9 1.2 3.9 2.1 5.6l3-2.6c-1.4 3.5-4.2 6.162-4.1 10.262-.1.7-.4 2.338-.5 2.938l-1.6-1.9c.1 2.1-.3 4.2-1.1 6.2-.5 1.4-.7 2.8-.6 4.3l.1 1.5c0 1.4.3 2.7.8 4l-.2 3.2c.62 1.062.9 1.7 1.5 2.7l-2.4-.7c-1-4.4-2-8.9-1-13.4.3-1.6.5-3.3.4-5l-.5-2.9c.9-1 1.3-2.3 1.8-3.5l1.5-3.6.1-.3zm5.3-6.2c1.4.8 1.4 1.4-.1 1.8l.1-1.8z" fill="#424242"/><path d="M56.1 73.5c1.1-.6 2 .056 2.2 1.2.5-.3 1.3-.9 1.8-1.1 2.2 3.1-2.6 5.2-2.2 8.2 0 .5-.1 1.4-.2 1.9l-1.5 2.1c-.1.1-.2.3-.3.5-.9.7-1 1.5-.2 2.2 1.4-.6 2.7-1.3 4-2.1 0 1.7-.1 3.4-.4 5-1 4.5-.1 9.2.8 13.6l2.7.8c.5.8.9 1.6 1.3 2.5l-3.1-.2-4.6-4.4-.1-1.1h-3.856c2.056-.694 3.355-1.206 5.055-2.306-2.5-.3-4.6-.494-7.2-.794l6.1-1.1 1.3-1.4c-3.9-.3-7.8-.7-11.8-.8-1.5-4.3-4.2-8.6-3.8-13.3 1.5 1.3 3.5 2.2 4.4 4.1 1.4 2.5.1 5.3-.1 8 3.6.2 7.2.3 10.7-.3.1-.5.4-1.544.6-2.1-2.4-.1-5 .1-7.4-.1l2.7-.9 1.5-.1-.3-2.5c-.7-1.6-1.2-2.9-1.8-4.2-.2.3-.8 1.2-1 1.4-2.4-.8-4.1-2.8-6.2-4.2l.7-1.5c1.2.8 3.03 1.8 4.135 2.5 2.187.7 4.863 1.6 6.363-.7l-4.8-.6c1.6-1.5 3.5-2.98 4.8-4.78.2-1.2-.2-2.22-.3-3.42zm20.8-.5z" fill="#A9A9A9"/><path d="M51.7 74c1.4-.9 2.7 1.5 1.5 2.5-1.4.9-2.6-1.5-1.5-2.5z" fill="#A19797"/><path d="M71.2 76.7c-.1 1.1-.2 2.2-.4 3.3.5-.3 1.5-1 2-1.4-.8 1-1.5 2-2.2 3l1.817 1.8.483.3c.7.5 1.8.6 2 1.6 1.9 4.1 3.8 8.5 5.3 12.7.9-.7 1.8-1.8 2.6-2.5l-2.9-1c1.4-.6 2.4-1.4 3.8-2.1-1.4-1.1-2.7-.5-4.2-.4l2.1-3-3.817.325c1.2-1.1 2.317-1.925 2.817-3.625-1.6 0-2.8 2.678-4 .578.7-.3 2-1.278 2.8-1.678l-1.1-1.6-1.1 1.3c-.5.1-1 .122-1.5.322l1.43-2.322c-.6.1-1.63.2-2.23.2.5-1.125.8-1.9 1-3.2l.4-1c.4.1.9.1 1.2.2 1.5.7 2.962.8 4.4.094l.4-.394 1.5 2.8 1.7-.9c-.3-1.7-1.2-3.3-2.1-4.8l3.3-1.2c.9 1.6 2 3 3.3 4.3.6 2.3 1.1 4.6 1.3 7-.2 2.4-.4 4.8-.5 7.3.7.3 2.1.8 2.7 1.1l-2.4 1.4c.7 2.8.9 5.7 1.2 8.6.7 1.5 2 2.5 3.5 3.1l1.2.2c1.15-1.2 3.4-3.4 3.4-3.4s-.7-1.8-1-2.4c2.1-1.9 5.4-2.4 7.2-4.8l-3.6-2.5c-.3.4-1.2 1.2-1.6 1.5l-2.1-.5c-.1.2-.4.6-.6.9l-.7.8-2.6-2.9c1.8-.3 3.3-.5 5.1-.7-.4-1.4-.9-2.8-1.6-4.1-.4-1.9-.8-3.8-1.4-5.7.4-2.2.4-4.4 0-6.5.9.8 1.7 1.5 2.6 2.2-.2 3.3-.4 6.7-.2 10 .5-3.5 1.1-7.1.4-10.6.8.6 1.7 1.1 2.5 1.6 2.8-.6 2.7 2.5 3.4 4.3.8-.1 1.6-.2 2.4-.4l.7 2c0 .7.1 2 .2 2.7.2 4.4.3 8.9.7 13.3.3 3.8.4 8 1.4 11.6.6 1.4.7 3.5 2.6 3.5 1.2.4 2.8 0 3.6 1.1-.1.7-.4 2-.6 2.6l-1.8-2.4c-.1.4-.2 1.3-.2 1.7l-1.7-.4c-1.1.9-1.7 1.5-2.7 2.4l-.7-6.2-.3-2.4c-.6 1-1.1 2.1-1.7 3.2l1.3.9-.6 3.5c-.6-.5-1.7-1.7-2.2-2.2l-1-.9-2.8 1.8-2.1-2.5 5.2-5.8c.7-3.9 2.1-8.1.6-12-1.2 2-2.9 3.7-4.9 5.1-.6 1.1-1.3 2.2-2 3.3-2.5.8-5 .1-7.5-.5-.7-2-1.4-3.7-1.9-5.8-.1-.9-.2-2.1-.3-3.1-.2-2 .1-4.1-1.2-5.8-.6 1.7-.8 3.6-.1 5.4l-1.3-.6c.6-2.6 1-5.5 1.2-8.2l-.01-1.872-.12-.516-.87-2.412-.5-.2c-.4-.1-1.3-.3-1.8-.5.8-.8 2.3-1.5 2.2-2.8-1.5-.8-3.4 1.1-2.8 2.6.3 1.9.8 4.1 1.3 6 .5.1 1.31.3 1.81.5-.4.4-1.01 1.2-1.41 1.7.1 2.5.287 4.906.487 7.406l-.287 1.894c-.5-.9-1.1-1.9-1.6-2.9-.2-.3-.5-.9-.6-1.1l-3.6 1.4c.5 2.1 1.1 4.1 1.8 6.1 1.1-.3 2.1-.6 3.1-.9v1.8c-1.9.4-3.8.8-5.7 1.1l.3-2.5c-.1-.5-.4-1.4-.6-1.9-.5-1.2-1-2.3-1.6-3.5l-.4-.8c-.9-1.7-1.7-3.5-2.5-5.3-.1-.1-.2-.4-.3-.6l-2.1-1.6c0-.3.1-1 .1-1.4-.9-1.2-1.7-2.2-2.6-3.3-.9-.1-1.7-.3-2.6-.5.362-2.1.6-4.4.8-6.6.2-1.6.2-3.4.3-5z" fill="#424242"/><path d="M88 73.8c3.9-.3 7.8-.5 11.6.5l.6 3.2-.1 1.5c-.9-.7-1.8-1.36-2.6-2.2l-.3-.3c-.5-1.2-1.3-1.8-2.5-2.2.2.9.4 1.9.5 2.8-.6.7-1.1 1.4-1.6 2.1-.4.8-1.3 2.4-1.8 3.2-.7-1.1-.8-2.4-.5-3.7 2.5-.6 1-5-1-2.7-2.1.6-2.9-.1-2.3-2.1z" fill="#7F7581"/><path d="M99.6 74.3c1.9-.3 3.9-.6 5.7.3l-2.4 4.2 2.5-.8c.5 1.6 1 3 1.6 4.6l1.7.4 1.1.3-.1.2-.5 2.5-.7-2c-.8.1-1.6.2-2.4.4-.7-1.9-.6-5-3.4-4.3l-2.5-1.6v-1c-.2-1.1-.4-2.2-.6-3.2z" fill="#7A4779"/><path d="M90.3 76c2-2.3 3.5 2 1 2.7-.3-.9-.6-1.8-1-2.7z" fill="#4E434E"/><path d="M94.6 74.2c1.2.3 2.1 1.1 2.6 2.3-.9 2.2-1.2 4.9 0 7.1l-1.5 2.4c0-3 0-6-.6-9l-.5-2.8z" fill="#433E47"/><path d="M105.3 74.6l1.3.9c.7 2.5 1.3 5 2.1 7.5l-1.7-.4c-.6-1.6-1.1-3-1.6-4.6l-2.5.8z" fill="#424242"/><path d="M34.4 75.1c1.5-.1 3-.1 4.5-.1l.5 1.5-2.8 2.4c-1-.5-1.9-1.1-2.8-1.8l.6-1.9z" fill="#CFCFD3"/><path d="M106.6 75.5c1.1.7 2.3 1.4 3.5 2 1.4.4 2.5.9 3.7 1.4-.1.6-.4 1.7-.6 2.2l-1.9 1.4-1.2.7-.3.1-1.1-.3z" fill="#938C96"/><path d="M41.8 77c3.3.3-1.7 2.9 0 0z" fill="#AA94A9"/><path d="M97.5 76.8c.4 2.1.4 4.4 0 6.5l-.3.3c-1.3-2.2-.93-4.8-.03-7.1z" fill="#AA90A3"/><path d="M50.7 78c3.5-.3 0 4.1-.9 1 .2-.3.7-.8.9-1z" fill="#AA9EA9"/><path d="M93.6 79.2c.5-.7 1-1.5 1.534-2.012.666 2.812.566 5.812.566 8.812v4.2c1.1-.4 2.2-.9 3.4-1.3.6 1.3 1.1 2.7 1.6 4.1-1.8.3-3.5.6-5.3.8l-1.1.1h-.3l-.5-.1c-.7-.3-2.1-.8-2.7-1.1.1-2.4.2-4.8.5-7.3.3 1.2.8 2.5 1.2 3.7.5.1 1.5.4 2 .6 0-3.5-.46-6.2-.8-9.7z" fill="#CBCBCB"/><path d="M100.2 77.4l.1.8c.7 3.5.23 7.15-.4 10.6-.2-3.3 0-6.7.2-10z" fill="#FFD8FF"/><path d="M63.8 83.1c1.4-1.6 3-3.1 4.6-4.6-.2 2.2-.5 4.4-.8 6.6l-.3 1.7c.9.6 1.9 1.2 2.8 1.7 0 .4.1 1.2.2 1.7l-2.9.1c.2 3.7-3.4 7.4-7 5.5l-.1-1.5c2.8.5 2.8-3.5.6-4.3.8-2 1.2-4.1 1.1-6.2l1.6 1.9c.1-.7.4-2.337.5-2.938z" fill="#D6D6D6"/><path d="M57.8 81.8c.9-.8 1.9-1.4 3.1-1.8-.5 1.2-.9 2.6-1.8 3.6-.4 0-1.1.1-1.4.1 0-.5.1-1.5.2-2z" fill="#BBB3B3"/><path d="M72.5 83.5c1.1-1.5 2.2-2.8 3.4-4.2-.2 1.2-.5 2.1-1 3.2.6-.1 1.63-.2 2.23-.2l-1.43 2.322c.5-.1 1.025-.235 1.5-.322l1.1-1.3 1.1 1.6c-.8.3-2 1.278-2.8 1.678 1.2 2 2.4-.578 4-.578-.5 1.7-1.617 2.525-2.817 3.625l3.817-.325c-.8 1.1-1.2 2-2.1 3 1.5-.1 2.8-.7 4.2.4l-3.8 2.1 2.9 1c-.9.7-1.8 1.8-2.6 2.5-1.5-4.4-3.4-8.5-5.3-12.5-.2-1-1.3-1.2-2-1.6z" fill="#D6D6D6"/><path d="M91.8 82.3c.4-.8 1.3-2.3 1.8-3.1.4 3.5.9 6.9.9 10.5-.5-.1-1.5-.4-2-.6 0-2.3-.3-4.6-.7-6.8z" fill="#424242"/><path d="M84.6 83.5c-.73-1.5 1.472-3.5 2.8-2.6.1 1.5-1.4 2.2-2 2.888l-.8-.088z" fill="#CBCBCB"/><path d="M103.1 82.6c1.4 2 .5 4.6 1.8 6.7-.5.9-1.1 1.8-1.9 2.5-.3-3-.2-6.1 0-9.2z" fill="#A9A9A9"/><path d="M56.2 85.8l1.5-2.1c.4 0 1.1-.1 1.4-.1l.5 2.88c-1.3.7-2.6 1.52-4 2.12-.8-.7-.7-1.5.2-2.2l.128-.216z" fill="#857A79"/><path d="M84.6 83.7l.8.088c.4.1 1.1.212 1.6.412l.5.2c.2.6.747 1.886.9 2.5.1.4.09.428.1.538.052.497 0 1.362 0 1.862l-.79.7c-.5-.1-1.31-.3-1.81-.5-.5-1.9-.9-3.8-1.3-5.8z" fill="#797979"/><path d="M97.2 83.6l.3-.3c.7 1.8 1.3 3.7 1.6 5.6-1.1.4-2.2.9-3.4 1.3v-4.2l1.4-2.3z" fill="#7A6C76"/><path d="M36.8 83.8c1.9 1.5 0 2.9-.9 4.3 1 3.882.733 7.894.66 11.855-.025 1.298-.063 2.595-.094 3.893l.034.052c1 .3 2 .7 3.1.9.1 2.4.2 4.8.2 7.2-.9.6-1.8 1.3-2.8 2 .6.7 1.1 1.3 1.7 1.9-.5.2-1.4.5-1.8.7.8 1.1 2.2 1 3.4.8l.5-.1.2 1.3c-1.1 1.7-2.1 3-4.1 3.7l-1.3-1.3c1-1.2.5-1.5-1.2-1.2.5-1.3.5-2.5 0-3.8-.7.7-1.1 1.6-1.2 2.6-2 3.8-1.025 7.8-.325 11.8.4-.2 1.256-.9 1.7-1 .2 2 .325 4.4.525 6.5.4-1.8.8-3.5 1.2-5.2.7 3.8-.7 7.4-1.3 11.1-1.1-2.2-2.3-4.5-3.1-6.8l-3.3 2.1c-.6-2.8-.8-6.2 2.2-7.7l.2-.1-.1-.4-.3-1.9-3.3 3c.8-3.1 1.7-6.1 2.5-9.1.7-1.4.6-2.8-.1-4.2-.2-1-.4-2.1-.5-3.1l.8-4.4 1.5 1.8c.4-3 .6-6.1.4-9.1 1.2-1.6 1.8-5-.2-6-1.175.256-2.19.256-3.4.415.1-.3.2-.715.3-1.115l-1.9.8c-1.7-.1-3.5-.3-5.2-.2-1.3 1-.9 3-1.5 4.4.9-.1 1.8-.1 2.7-.1 1.2-.7 2.044-1.175 3.244-1.775.4 1.4 1.356 2.375 1.256 3.875-2.5.5-4.7 1.2-7 2.3 1.1.2 2.3.4 3.5.6-.9.8-1.8 1.5-2.6 2.3-2 1.9-4.6 4.4-3 7.4-2 3.7-2.5 7.8-2.7 12-1.8-4.9-1.4-10.2-.2-15.2l-1.2.4c2.2-1.4 3.6-3.6 4.4-6.1l-.3-3.3-2.4-1.1c-1.6-1.2-3.3 0-4.2 1.3-1.3 1.8-5.3 4-2.5 6.3l.9 1.1c.7 4.9 1.6 9.9 1 14.9-1.6-4.3-1.7-9-3.4-13.2-.3 1.6-.6 3.2-.9 4.9-.8 1.2-1.8 2.4-2.7 3.6 1.2-5.4.9-11.4 4.5-16 2.8-4.2 7.1-7.2 11.7-9.2 2.6-1.5 3.194-1.275 3.394-1.075l6.806-3.525c2-2.4 4.1-4.8 6.5-6.8z" fill="#797979"/><path d="M51.4 86.2c.2-.3.8-1.2 1-1.4l1.81 4.072.29 2.628-1.86.17z" fill="#7F7979"/><path d="M57.8 84.9z" fill="#424242"/><path d="M67.5 85.1c.9.1 1.8.3 2.7.5.9 1.2 1.7 2.2 2.6 3.3 0 .3-.1 1-.1 1.4l2.1 1.6-3.8.3c-3.2 2.6-6.8 4.8-9.8 7.6-.5-1.3-.8-2.6-.8-4 3.6 1.9 7.3-1.8 7-5.5l2.9-.1c0-.4-.1-1.2-.2-1.7l-2.8-1.7.3-1.7z" fill="#968C98"/><path d="M109.5 88.6l2.9-.3c-.1 3.1.1 6.2.4 9.3.9-1.9 1-4 1.3-6.1.5 2.7 0 5.5-.7 8.1-.7 1.5 1.1 2.3 2 3h.5l3.9.2-.8.8c-1.7.7-3.5 1.2-5.3 1.7.6 3.3 1 6.6 1.7 9.9.9.9 2.2 0 3.2-.1l2-.9c2-1.2 4-2.3 6.2-3.2l3-1.8c.1.9.3 2.8.3 3.8-.1 1.8-.3 3.5-.7 5.3.2.3.5 1 .7 1.4l-.6 2.6c-1.1 3-2 5.9-3 8.9-.3-1.1-.6-2.3-.9-3.5.8-1 1.6-2 2.4-2.9-.7-.1-2.2-.2-3-.2 1.2-1.2 2.4-2.4 3.4-3.8-.1-1.9-2.3-1.2-3.6-1.5-1.2 1.4-2.5 2.6-3.6 4.1l-1.7 4.7 4.8-1.2c-1.1.9-2.3 1.8-3.7 2.4l-1.7-.8-2-4.3c.1-.4.4-1.2.5-1.5-2.2-.1-5.4-1.6-6.6 1.2-.1.7-.5 2.4-.7 3.1 2.3.5 4.81.7 6.81 2l.1.9-4.71.4c-.5.5-1.5 1.5-2 1.9-.1-1.4-.9-2.5-1.8-3.6-.2 3.5.1 7.1.1 10.6-1.2-1.9-2.53-4.03-3.53-6.03.5-.1 1.93-.47 2.33-.57.7-3.1 2.6-9.2 2.6-9.2l.8-1.4s1.7-1.5 2.7-2.4l1.7.4c.1-.4.2-1.3.2-1.7l1.8 2.4c.1-.7.4-2 .6-2.6-.8-1.1-2.4-.7-3.6-1.1-1.9 0-2-2-2.6-3.5h1.5c-2-6.6-1.5-14-1.9-20.8-.5 3.1-.9 6.2-1 9.3-.4-4.4-.9-8.6-1-13z" fill="#797979"/><path d="M60.9 90c2.2.8 2.2 4.8-.6 4.3-.1-1.5 0-2.9.6-4.3z" fill="#7A4779"/><path d="M88.5 89.3c-.1 2.7-.6 5.5-1.2 8.1-.1.5-.4 1.4-.5 1.8l-.5-7.5c.4-.4 1.01-1.2 1.41-1.7z" fill="#B2A0AD"/><path d="M41 92.4c.5 2.6 1.2 4.8.9 7.5h1.2c-.1.3-.2 1-.2 1.3 1.9 6.2 1.3 13 4.1 18.9.8 2-2.2 2.5-3.4 3.3l.8 1.6-1.6-.8c-.3-.5-.6-1.1-.9-1.7l2.1-3.7c-.6-.6-1.1-1.3-1.6-1.9-.1-.5-.3-1.4-.4-1.8l-1-1c-1.07-.5-1.6 0-1.4 1.8h-.9c-.715-.588-1.3-1.15-1.7-1.9.9-.7 1.8-1.5 2.8-2.1.2-.2.8-.5 1-.6l1.5.4c-2.5-4-.3-8.8-2.1-13.1.4-2.1.1-4.2-.3-6.2z" fill="#AA7A79"/><path d="M71 92.2l3.8-.3c.1.1.3.6.4.8l-3.8 2c-1.2.8-2.4 1.6-3.5 2.5-2.1 1.6-3.3 4.2-4.1 6.7l-2.8-.9c0-1 .1-2.2.2-3.2 3.1-2.8 6.6-5 9.8-7.6z" fill="#FFD8FF"/><path d="M92.9 91.9z" fill="#797979"/><path d="M75.2 92.7c.8 1.8 1.6 3.6 2.5 5.3-2.4-.1-.3 3.2.4.8.6 1.1 1.1 2.3 1.6 3.5l-1.7 2.1c-.7-.1-2.1-.2-2.8-.2h-.1l-.2.3-1.5 1.5-.8-3.1-3.1 1.4-.7.5v.8l.1 2.1-2.4-.7c-.5.7-.8 1.6-.9 2.5l-1.9.1-1.6 2.8-1.6-1.5-1.7.4c-.017-1.622-.9-2.112-2.5-2.2-3.7 0-7.494.812-11.2.5.5-2.4 1.1-4.8 1.8-7.1.9 1.6 1 3.7 1.2 5.5 1.2.1 2.3.2 3.3.3l-1.7-3.4c2.323-.4 4.5-.5 6.7-1.2l4.6 4.4 3.1.2c-.4-.8-1-1.3-1.4-2.2-.6-1-1.2-2.1-1.7-3.1l2.8.9c.8-2.5 2-5.1 4.1-6.7l1.5 1.2c-2.5 1.2-5 3.1-4.8 6.3 2.3-.4 4.3-1.6 6.2-2.8l2-.5c1 1.1 2.4 1.4 3.7 1.6-.1-3.5-1.5-7.2-5.1-8.3z" fill="#7A4779"/><path d="M88.8 92.6c1.4 1.7 1 4 1.1 6-.3-.1-.9-.5-1.3-.6-.6-1.7-.5-3.7.1-5.4z" fill="#AFA2A8"/><path d="M93.4 93.8l.5.1h.4l1.1-.1c1 .9 1.8 1.8 2.7 2.8l-1.6 2.1c1.1.4 2.2.8 3.2 1.2.2-.5.5-1.4.7-1.8l-1.7-2.2c.1-.2.4-.7.6-.9l2.1.5c.3-.4 1.2-1.2 1.6-1.5l3.6 2.5c-1.8 2.3-7.216 4.82-7.2 4.8.016-.02-1.3 2.3-1.3 2.3s-1.4-2.3-2.1-3.4l1 6.9-1.2-.2c-.6-1-1.2-2-1.8-3.1 1.7-1.1-.1-5.1-1.2-2.4-.1.6-.3 1.8-.5 2.4-.3-2.9-.5-5.8-1.2-8.6.6-.4 1.8-1.1 2.4-1.4z" fill="#797BAA"/></svg>