<?xml version="1.0" standalone="no"?>
<!DOCTYPE svg PUBLIC "-//W3C//DTD SVG 20010904//EN"
 "http://www.w3.org/TR/2001/REC-SVG-20010904/DTD/svg10.dtd">
<svg version="1.0" xmlns="http://www.w3.org/2000/svg"
 width="709pt" height="709pt" viewBox="0 0 709 709"
 preserveAspectRatio="xMidYMid meet">
<g transform="translate(0.000000,709.000000) scale(0.100000,-0.100000)"
fill="#000000" stroke="none">
<path d="M2995 6860 c-55 -22 -131 -48 -170 -56 -79 -19 -131 -42 -159 -73
l-19 -21 61 -1 c34 -1 68 -2 74 -3 8 -1 14 -21 16 -53 4 -60 6 -58 -110 -90
-89 -25 -144 -11 -181 45 -16 24 -27 45 -25 48 4 4 64 9 136 13 19 1 22 6 20
32 -2 29 -4 30 -38 24 -59 -10 -154 -61 -241 -130 -96 -76 -147 -135 -187
-220 -39 -81 -138 -357 -162 -452 -22 -83 -31 -208 -20 -278 4 -25 3 -45 -1
-45 -4 0 -17 -42 -30 -92 -38 -161 -33 -330 14 -464 15 -40 15 -54 3 -145 -4
-33 0 -66 14 -109 21 -66 26 -115 11 -124 -13 -9 -76 -196 -66 -196 2 0 47 44
99 97 l95 97 25 -26 c22 -25 54 -127 47 -153 -2 -7 1 -7 8 0 5 6 12 24 15 40
11 60 23 91 29 75 24 -61 48 -195 49 -274 2 -89 1 -93 -47 -196 -38 -81 -49
-116 -49 -151 1 -54 25 -99 67 -125 89 -57 77 -55 127 -16 25 20 52 44 60 53
13 14 19 15 33 5 9 -7 15 -22 13 -33 -3 -11 -7 -54 -10 -94 -5 -54 -11 -78
-24 -87 -9 -7 -28 -23 -42 -35 -14 -12 -41 -34 -60 -49 -51 -39 -126 -112
-209 -205 -40 -45 -91 -91 -114 -103 -175 -91 -226 -114 -255 -117 -42 -4
-233 -99 -337 -168 -204 -135 -364 -360 -400 -565 -18 -104 -53 -345 -50 -348
1 -2 25 25 51 60 44 57 51 72 70 167 23 118 25 118 63 -34 17 -68 28 -117 55
-260 2 -11 12 -47 22 -80 18 -60 18 -60 24 -25 13 79 3 252 -26 460 -15 109
-18 118 -55 162 -63 75 -55 98 75 235 73 76 110 103 144 103 29 0 153 -60 159
-77 3 -8 6 -44 7 -81 1 -84 -32 -156 -108 -238 -29 -30 -45 -54 -36 -51 16 4
17 0 5 -52 -41 -176 -40 -369 2 -511 l17 -55 12 123 c13 120 48 261 84 332 11
23 15 42 9 55 -13 35 -9 99 10 140 19 43 103 135 183 204 l47 39 -50 11 c-27
6 -60 11 -72 11 -18 0 -19 2 -7 10 24 16 143 60 212 78 55 15 63 20 62 41 -1
18 -36 107 -51 130 -1 2 -32 -13 -68 -33 -53 -29 -76 -36 -121 -36 -48 0 -55
2 -51 18 3 9 8 35 12 57 9 60 27 95 52 101 11 3 64 3 116 0 74 -5 103 -2 132
10 37 15 38 15 32 -6 -6 -22 -4 -22 73 -16 78 7 79 7 97 -21 23 -35 22 -123
-2 -178 -13 -30 -19 -73 -22 -170 -2 -71 -5 -141 -7 -155 -2 -14 -4 -41 -5
-60 l-1 -35 -35 39 c-19 21 -35 32 -36 25 0 -8 -2 -23 -4 -34 -29 -154 -29
-158 5 -292 l19 -71 -40 -139 c-87 -305 -89 -314 -71 -304 9 5 24 18 33 28 9
10 32 32 51 50 l36 32 7 -46 c6 -44 5 -47 -30 -76 -57 -47 -75 -95 -72 -199 2
-48 6 -90 9 -93 4 -4 35 12 69 34 35 23 66 41 69 41 3 0 12 -17 19 -37 28 -79
110 -238 115 -223 4 14 40 180 51 240 5 24 8 122 6 169 -1 25 -10 24 -15 -1
-29 -150 -45 -184 -47 -101 -1 26 -3 57 -4 68 -1 11 -4 40 -6 65 -4 61 -6 64
-40 39 -17 -12 -32 -19 -34 -17 -10 9 -36 208 -36 269 0 73 14 147 36 190 8
15 15 36 15 46 0 10 10 33 21 52 19 31 22 33 31 17 6 -10 8 -45 6 -77 -4 -58
-4 -59 22 -59 35 0 42 -8 29 -32 -9 -16 -6 -25 12 -44 12 -13 29 -24 37 -24
50 0 165 122 160 169 -3 25 -6 26 -59 26 -64 0 -116 26 -89 45 8 5 32 13 53
16 30 5 37 11 37 29 0 38 11 55 34 55 30 0 72 -47 80 -88 3 -19 19 -51 36 -72
16 -21 30 -41 30 -45 0 -5 -18 -39 -40 -78 l-41 -70 19 -35 c10 -20 27 -40 38
-46 41 -22 203 -122 283 -174 75 -49 90 -55 147 -59 39 -2 64 1 64 7 0 5 -3
10 -8 10 -4 0 -34 20 -65 43 -32 24 -108 74 -168 112 -85 52 -108 71 -104 85
3 9 11 37 18 61 l13 43 60 -59 c93 -94 182 -167 272 -228 46 -31 89 -58 95
-60 6 -2 -6 -45 -33 -111 l-43 -107 -64 7 -65 7 35 -52 c49 -71 88 -157 128
-281 19 -58 37 -108 42 -111 16 -12 236 -9 317 5 84 14 231 19 257 9 7 -3 13
-11 13 -17 0 -7 11 -23 24 -35 32 -30 97 -34 187 -10 41 10 76 19 78 19 2 0
-3 -7 -10 -16 -11 -14 -11 -18 3 -28 106 -74 138 -101 138 -117 0 -34 62 -205
97 -269 34 -61 150 -190 170 -190 11 0 10 13 -1 79 -10 53 -29 101 -61 150
-23 36 -30 64 -40 175 -3 32 -8 63 -11 67 -3 5 -3 9 -1 9 4 0 25 -30 92 -134
24 -37 46 -90 60 -145 22 -82 42 -142 45 -131 8 28 10 58 10 135 0 50 -2 100
-4 112 -3 11 -7 63 -10 115 -6 85 -5 91 9 73 32 -40 55 -145 60 -269 6 -126
11 -191 21 -241 9 -49 62 -148 102 -191 59 -64 227 -194 251 -194 28 0 27 19
-8 108 -29 72 -29 81 -1 77 154 -22 206 -27 251 -21 79 10 91 21 45 40 -126
52 -262 53 -406 1 -43 -15 -45 -15 -61 6 -27 36 -89 166 -114 239 -33 97 -27
196 24 375 22 79 24 76 -55 101 -50 16 -52 18 -52 54 -1 42 -8 99 -22 175 -18
98 -17 120 5 118 111 -10 119 -9 135 24 15 31 15 32 42 15 15 -9 29 -14 32
-12 2 3 7 43 10 90 18 241 58 402 135 546 l39 73 -31 11 c-189 69 -223 78
-313 79 -78 2 -92 -1 -98 -15 -4 -9 -5 -18 -4 -19 2 -1 47 -17 100 -34 l98
-33 -33 -39 c-48 -59 -124 -107 -202 -128 -38 -11 -70 -19 -71 -18 0 1 -22 32
-47 68 l-47 66 50 7 c41 6 59 15 95 50 57 54 59 75 8 69 -97 -10 -191 -87
-312 -256 -69 -97 -81 -126 -82 -208 -2 -104 55 -191 136 -209 32 -7 38 -5 46
13 9 22 9 21 5 -1 -2 -13 0 -38 6 -55 20 -57 131 -187 160 -187 36 0 129 -52
116 -65 -7 -7 -152 28 -199 48 -19 8 -60 35 -92 62 -42 34 -64 46 -80 42 -12
-2 -65 -16 -117 -30 -52 -14 -108 -28 -125 -30 -16 -3 -61 -10 -100 -17 -38
-6 -88 -13 -110 -16 -22 -3 -65 -10 -95 -15 -126 -22 -359 -31 -392 -15 -14 7
-32 34 -47 71 -21 51 -25 76 -24 170 0 127 -5 113 120 313 47 75 93 150 102
166 44 78 98 117 210 150 30 9 56 16 57 16 1 0 0 -9 -3 -20 -7 -27 -54 -62
-124 -93 -48 -21 -63 -35 -112 -105 -32 -44 -57 -84 -57 -89 0 -5 21 -8 48 -6
l47 3 -41 -39 c-36 -34 -44 -50 -58 -113 -24 -109 -30 -208 -12 -208 13 0 73
105 80 141 2 8 7 33 11 57 5 26 16 49 29 58 45 32 154 100 205 128 l53 28 41
-38 c62 -58 64 -62 92 -154 15 -47 29 -92 32 -100 3 -8 16 26 28 75 21 85 23
89 34 62 6 -16 11 -36 11 -45 0 -9 4 -23 9 -31 12 -18 31 16 35 62 9 94 65
223 122 283 6 7 21 25 35 40 53 62 143 135 196 160 54 24 139 47 218 59 238
36 312 64 402 154 82 81 169 255 143 286 -7 8 -17 15 -22 15 -6 0 -55 -45
-111 -101 -114 -114 -91 -108 -251 -63 -103 29 -103 29 -31 54 l29 11 -62 55
c-34 31 -62 59 -62 64 0 4 26 1 58 -7 60 -16 180 -22 222 -11 17 5 39 30 67
75 23 38 66 88 96 113 30 25 74 71 98 102 24 31 47 57 50 57 14 2 27 -101 24
-184 -4 -79 -7 -105 -19 -150 -1 -5 -8 -43 -16 -83 -8 -45 -21 -81 -34 -95
-12 -13 -55 -61 -96 -108 -41 -46 -81 -90 -88 -98 -14 -15 -17 -9 45 -82 l30
-37 59 38 59 38 65 -64 65 -64 14 71 14 71 -27 21 -26 22 32 62 c17 35 33 61
35 60 3 -4 8 -43 18 -132 7 -71 11 -104 20 -168 5 -35 3 -53 -8 -71 -9 -13
-32 -76 -51 -141 -30 -97 -34 -120 -23 -129 20 -16 57 -81 57 -99 0 -27 19
-29 43 -5 44 44 55 49 114 54 32 3 73 6 92 8 41 4 50 29 18 51 -26 18 -134 51
-198 60 -25 4 -50 10 -56 13 -17 11 18 139 45 167 23 23 71 38 107 31 11 -2
46 -7 78 -11 58 -7 59 -7 52 -33 -11 -39 -11 -40 33 -132 33 -70 46 -88 75
-102 33 -16 37 -16 73 4 48 25 107 69 101 74 -2 3 -15 0 -29 -5 -14 -5 -40
-12 -59 -15 -19 -3 -48 -10 -65 -15 l-32 -9 28 77 c16 42 33 88 38 102 6 15
43 62 82 107 l71 80 53 -3 c125 -7 125 -44 3 -170 -20 -21 -36 -40 -34 -42 2
-2 25 -5 51 -7 50 -5 67 -13 50 -24 -5 -4 -27 -29 -49 -55 l-39 -49 13 -46 c7
-26 14 -55 17 -66 2 -10 5 -20 7 -22 2 -2 34 90 72 204 48 142 69 220 67 247
-6 109 -5 136 3 205 4 41 8 89 7 105 -2 136 -10 152 -59 117 -31 -21 -419
-222 -431 -222 -4 0 -24 -5 -44 -11 -47 -12 -74 0 -82 38 -3 16 -17 100 -31
188 -14 88 -28 168 -31 178 -3 9 1 19 8 21 122 38 188 61 213 76 37 23 26 28
-75 33 -59 2 -83 9 -112 28 -56 37 -61 55 -38 152 22 91 31 207 20 247 -5 19
-8 12 -13 -35 -9 -82 -15 -112 -32 -148 l-13 -32 -2 40 c-1 22 -3 58 -5 80 -2
22 -6 91 -7 153 l-3 113 -61 -7 -61 -6 -2 59 c-1 32 1 81 5 109 6 48 9 53 43
69 20 9 55 33 78 53 33 29 44 46 49 78 l6 41 -78 28 c-44 16 -114 49 -157 74
-43 25 -95 56 -116 69 -42 24 -121 33 -194 22 -23 -3 -58 -2 -77 2 -116 27
-430 29 -448 4 -4 -6 -9 -23 -10 -38 -4 -35 29 -58 73 -51 31 5 33 3 51 -43
10 -27 22 -52 27 -55 5 -4 4 -9 -2 -13 -17 -11 -13 -80 8 -133 17 -45 25 -91
36 -233 l5 -55 -21 55 c-11 30 -23 62 -26 70 -3 8 -8 35 -10 60 -2 25 -13 90
-24 144 -19 95 -22 102 -79 171 -33 39 -60 76 -60 82 0 29 -27 33 -91 11 -35
-11 -66 -22 -68 -24 -2 -2 9 -24 23 -49 15 -25 36 -70 46 -99 l18 -53 -34 -17
c-35 -16 -35 -16 -23 5 14 26 14 85 1 119 -6 14 -39 64 -74 111 -35 47 -70
100 -77 117 -7 17 -21 34 -31 37 -27 9 -135 80 -177 117 -74 66 -95 95 -153
210 -46 94 -55 119 -45 128 10 9 17 0 30 -39 9 -28 20 -53 24 -55 4 -3 17 18
29 47 l22 52 99 38 100 38 48 97 c26 53 50 101 52 106 2 5 -7 -1 -20 -13 -22
-20 -24 -21 -36 -5 -11 15 -18 59 -14 86 0 4 2 21 3 37 1 17 4 31 6 31 3 0 22
-5 44 -12 38 -11 40 -13 36 -50 -3 -32 -1 -36 8 -23 7 9 27 18 46 21 l34 6 0
-59 c1 -69 13 -260 18 -288 2 -11 7 -47 11 -80 17 -152 21 -117 21 192 l-1
333 -38 15 c-20 8 -44 15 -52 15 -19 0 -19 -2 9 61 62 142 83 280 87 559 1
148 1 153 -8 147 -5 -3 -7 18 -5 47 3 36 -3 68 -18 106 -12 30 -26 65 -31 78
-10 26 -23 22 -73 -22 -16 -15 -31 -26 -33 -26 -3 0 10 25 27 56 18 30 31 57
29 58 -2 2 -13 8 -24 14 -18 10 -15 11 18 12 34 0 37 2 27 20 -6 11 -36 45
-68 76 -60 58 -58 52 -61 167 l-1 37 -125 0 c-93 0 -125 -3 -126 -12 -1 -7 -2
-24 -3 -38 -2 -14 -6 -65 -10 -115 -4 -49 -11 -94 -15 -98 -9 -9 -107 142
-130 200 -9 22 -18 30 -31 28 -10 -2 -40 -7 -67 -11 -26 -3 -79 -19 -118 -34
-66 -26 -173 -53 -257 -65 -31 -4 -40 -1 -53 18 -22 35 -55 135 -61 192 -4 27
-8 53 -10 56 -1 3 -6 44 -10 92 l-7 87 25 0 c38 0 58 -31 81 -127 l22 -88 45
-6 c25 -4 69 -9 99 -13 29 -4 58 -9 63 -12 11 -7 56 41 96 102 28 41 30 52 31
135 0 50 3 95 6 99 9 14 52 -9 62 -34 13 -28 9 -67 -16 -168 -20 -82 -20 -111
0 -175 l10 -33 37 19 c46 24 168 110 205 145 16 14 32 24 37 21 4 -2 11 -29
14 -59 8 -60 8 -60 89 -71 48 -6 49 -6 42 17 -29 92 -85 152 -248 265 -161
111 -153 109 -487 118 l-225 6 -100 -41z m145 0 c25 -35 22 -37 -18 -12 -16 9
-27 23 -25 30 7 19 20 14 43 -18z m120 -605 c0 -29 -31 -50 -48 -33 -16 16
-15 45 1 51 31 13 47 7 47 -18z m717 -178 l43 -72 -58 -27 c-95 -44 -100 -43
-138 32 -36 71 -56 120 -48 120 3 0 30 -23 60 -52 30 -28 56 -49 59 -47 2 3 6
16 8 29 16 86 20 100 25 95 3 -3 25 -38 49 -78z m158 -97 c3 -5 1 -10 -4 -10
-6 0 -11 5 -11 10 0 6 2 10 4 10 3 0 8 -4 11 -10z m6 -52 c0 -18 2 -52 5 -75
7 -51 4 -52 -81 -18 l-60 24 50 1 c28 2 53 2 58 1 6 -1 9 20 10 77 0 35 17 26
18 -10z m143 -313 c2 -121 -1 -239 -6 -263 -12 -53 -45 -79 -79 -61 -35 19
-45 32 -182 249 -10 16 -22 43 -27 60 -8 28 -6 32 18 41 15 6 47 13 71 16 94
12 94 11 123 103 15 47 32 112 39 145 l12 60 14 -65 c8 -40 15 -151 17 -285z
m-543 -5 c87 -75 127 -219 99 -354 -6 -32 -14 -56 -16 -53 -7 7 -19 97 -29
222 -2 35 -27 88 -78 168 -21 31 -34 57 -30 57 5 0 29 -18 54 -40z m-1434 -72
c-13 -24 -37 -67 -51 -96 -15 -30 -29 -52 -31 -50 -7 6 24 100 41 126 45 69
80 86 41 20z m709 -469 l1 -130 31 -32 31 -32 -50 -54 c-43 -48 -57 -52 -49
-16 1 6 4 84 6 175 3 91 7 180 10 199 10 64 18 20 20 -110z m634 10 c56 -15
85 -35 69 -45 -24 -14 -136 -13 -191 3 -29 8 -58 15 -65 15 -12 1 -9 11 10 36
11 14 113 9 177 -9z m224 -861 c-19 -50 -35 -93 -37 -94 -7 -6 -97 -10 -95 -3
2 4 32 40 68 80 36 40 71 80 78 91 7 10 15 18 17 18 1 0 -12 -41 -31 -92z m82
-191 c88 -68 129 -92 182 -108 l43 -12 -3 -46 -3 -46 -45 1 c-39 1 -136 11
-180 20 -8 1 -18 3 -22 3 -16 2 -195 193 -185 197 62 22 124 43 133 43 7 1 43
-23 80 -52z m1518 -1037 c9 -291 22 -436 52 -551 19 -76 18 -79 -15 -79 -27 0
-30 4 -40 51 -6 27 -14 73 -17 102 -3 29 -7 63 -10 77 -4 26 -17 227 -18 270
0 32 13 188 18 215 2 11 7 44 11 73 4 29 8 52 10 50 2 -2 6 -95 9 -208z
m-1615 131 c48 -25 97 -81 122 -138 21 -50 46 -170 36 -179 -10 -10 -95 17
-123 38 -19 16 -33 18 -67 13 -23 -4 -53 -15 -67 -25 -36 -25 -138 -75 -184
-90 -30 -10 -40 -10 -46 0 -9 15 2 65 23 106 19 37 96 108 138 126 36 16 36
21 3 42 -14 10 -24 21 -22 26 5 14 121 99 136 99 7 1 30 -8 51 -18z m1144
-150 c-8 -20 -16 -37 -18 -39 -2 -3 -116 38 -124 44 -4 4 35 60 63 92 l21 23
36 -42 c36 -42 36 -43 22 -78z m-562 -60 c4 13 10 40 13 59 11 62 17 65 75 36
28 -15 51 -30 51 -34 4 -73 20 -147 51 -237 20 -60 36 -112 34 -114 -3 -2 -21
-6 -42 -8 -20 -2 -38 -5 -40 -6 -1 -2 18 -27 42 -57 24 -30 44 -58 45 -63 0
-16 -97 58 -130 100 l-35 43 -12 -62 c-6 -35 -13 -87 -14 -116 l-2 -53 -36 6
c-90 14 -110 25 -149 78 -71 96 -73 95 -71 -22 2 -70 7 -105 16 -113 7 -6 55
-12 106 -14 88 -3 127 4 209 40 14 6 16 3 12 -21 -8 -50 -21 -88 -30 -87 -5 1
-27 5 -49 8 -22 3 -51 8 -65 11 -57 12 -144 27 -159 27 -9 0 -61 -12 -116 -27
-85 -23 -123 -28 -260 -30 -88 -2 -159 -6 -159 -10 1 -4 15 -23 32 -44 l30
-37 73 3 74 2 -60 -19 c-33 -11 -73 -22 -90 -25 -16 -3 -45 -8 -62 -11 -18 -4
-33 -9 -33 -13 0 -14 -58 -40 -101 -46 -24 -3 -53 -8 -64 -10 -11 -2 -29 -4
-39 -4 -21 -1 -89 -68 -172 -171 l-55 -68 -55 24 c-85 37 -96 48 -147 132 -92
152 -114 270 -68 360 23 45 32 46 83 10 14 -10 29 -18 33 -18 4 0 33 -16 65
-35 32 -19 64 -35 73 -35 8 0 61 -14 118 -31 177 -53 203 -59 254 -65 28 -3
55 -7 62 -9 10 -3 38 53 29 62 -2 2 -27 6 -57 8 -92 9 -132 24 -149 55 -10 19
-8 20 72 20 46 1 128 3 183 6 55 3 155 6 223 6 131 2 130 1 116 55 -7 24 -40
38 -114 48 -25 4 -46 8 -47 9 -3 2 -16 169 -17 209 0 9 -3 17 -7 17 -10 0 -69
-82 -69 -95 0 -7 -9 -20 -19 -29 -18 -16 -20 -16 -44 8 -14 14 -31 41 -38 60
l-12 34 -19 -24 c-25 -31 -48 -43 -98 -50 -46 -7 -51 5 -24 62 19 39 18 39 73
19 22 -8 41 -11 42 -7 0 4 0 32 -1 63 l-1 57 77 36 c84 40 87 40 98 -23 11
-64 21 -69 57 -28 31 35 33 36 93 32 l61 -4 36 44 37 44 8 -37 c7 -35 6 -74
-1 -114 -4 -16 6 -23 28 -19 4 1 23 4 42 7 19 3 63 11 97 18 63 13 63 13 66
49 2 20 0 37 -3 37 -4 0 -32 -7 -62 -16 -30 -9 -58 -12 -63 -8 -12 14 -59 175
-62 213 -3 34 -2 35 67 62 l70 27 44 -81 c40 -73 45 -78 52 -56z m-354 55 c-2
-5 -11 -14 -21 -20 -13 -9 -20 -7 -31 7 -16 22 -10 44 13 50 18 4 44 -21 39
-37z m-1294 9 l72 -26 1 -49 c1 -54 23 -96 57 -110 19 -7 16 -9 -15 -9 -44 -1
-45 -3 -20 -39 29 -41 84 -154 78 -159 -3 -3 -34 -2 -69 1 -58 7 -64 9 -63 29
2 25 -9 92 -25 149 -5 22 -28 59 -51 84 -34 37 -40 51 -44 99 -3 30 -2 55 2
55 3 0 38 -11 77 -25z m2083 -130 c22 -35 41 -65 44 -65 3 0 17 20 30 45 l25
46 17 -38 c9 -21 17 -45 17 -53 1 -9 -30 -46 -67 -83 l-68 -67 -19 140 c-11
77 -20 140 -19 140 1 0 19 -29 40 -65z m-112 33 c20 -28 20 -68 2 -94 -13 -17
-11 -25 20 -81 19 -35 32 -63 29 -63 -16 0 -87 54 -110 84 -26 34 -26 37 -15
93 18 85 43 106 74 61z m-271 -1165 c16 -8 9 -20 -58 -104 -42 -51 -81 -111
-87 -131 -6 -21 -14 -38 -18 -38 -7 0 -60 113 -60 127 0 6 18 16 40 23 39 13
40 15 41 59 1 25 3 60 4 76 2 17 3 38 4 47 1 15 10 12 59 -16 31 -18 65 -37
75 -43z"/>
<path d="M5325 1636 c-18 -73 -19 -75 -55 -81 -63 -11 -63 -13 7 -130 35 -61
68 -114 73 -118 4 -5 7 84 6 197 0 113 -4 206 -7 206 -3 0 -14 -33 -24 -74z"/>
</g>
</svg>
