<?xml version="1.0" standalone="no"?>
<!DOCTYPE svg PUBLIC "-//W3C//DTD SVG 20010904//EN"
 "http://www.w3.org/TR/2001/REC-SVG-20010904/DTD/svg10.dtd">
<svg version="1.0" xmlns="http://www.w3.org/2000/svg"
 width="500.000000pt" height="500.000000pt" viewBox="0 0 500.000000 500.000000"
 preserveAspectRatio="xMidYMid meet">
<metadata>
Created by potrace 1.11, written by Peter Selinger 2001-2013
</metadata>
<g transform="translate(0.000000,500.000000) scale(0.100000,-0.100000)"
fill="#000000" stroke="none">
<path d="M2143 4847 c-60 -23 -94 -34 -161 -53 -54 -14 -102 -40 -102 -55 0
-4 21 -9 47 -11 43 -3 47 -5 50 -31 5 -40 -9 -53 -75 -66 -87 -17 -108 -12
-132 32 l-21 37 54 0 c54 0 69 10 60 37 -6 18 -85 -9 -147 -50 -81 -54 -140
-112 -170 -168 -26 -47 -82 -189 -91 -232 -2 -9 -6 -21 -10 -26 -19 -32 -42
-168 -40 -238 1 -43 -1 -82 -5 -88 -26 -36 -43 -208 -28 -285 5 -25 11 -56 14
-69 3 -13 9 -31 14 -40 4 -9 5 -34 1 -56 -9 -52 -8 -60 8 -123 14 -55 13 -58
-19 -123 -5 -9 -12 -34 -16 -54 l-7 -38 68 71 67 72 18 -23 c10 -12 23 -42 30
-66 6 -24 13 -41 15 -39 4 4 12 39 14 61 1 4 5 7 10 7 12 0 32 -95 36 -172 3
-52 -2 -73 -30 -137 -50 -114 -48 -153 9 -203 45 -39 61 -40 102 -4 20 17 42
31 48 31 16 0 11 -132 -6 -148 -7 -6 -40 -34 -73 -62 -54 -45 -103 -94 -176
-176 -26 -29 -216 -132 -228 -124 -12 7 -181 -77 -251 -125 -99 -67 -187 -168
-231 -265 -24 -54 -53 -167 -63 -250 -2 -16 -7 -52 -11 -80 l-7 -50 41 54 c22
30 41 60 41 67 0 7 5 37 12 66 l11 53 14 -45 c8 -25 22 -88 33 -140 11 -52 24
-109 29 -127 5 -17 7 -34 3 -37 -3 -3 1 -6 10 -6 12 0 14 15 12 88 -1 48 -5
110 -9 137 -3 28 -8 70 -11 95 -3 25 -6 52 -7 61 -2 10 -15 35 -30 56 -15 22
-27 49 -27 61 0 27 110 150 153 172 27 13 32 12 85 -15 55 -30 56 -31 59 -78
4 -59 -26 -126 -81 -181 -21 -21 -33 -36 -26 -31 10 6 11 -3 7 -43 -3 -28 -8
-56 -12 -62 -8 -12 -9 -197 -1 -230 3 -14 9 -40 12 -58 8 -43 19 -48 20 -9 4
95 18 162 54 258 12 31 16 62 13 91 -7 60 13 97 101 180 39 38 67 69 63 69 -4
1 -11 3 -17 4 -5 1 -21 3 -35 4 -14 0 -25 6 -25 12 0 5 4 8 9 4 5 -3 12 -1 16
5 6 9 84 36 135 46 34 7 35 9 20 53 -22 67 -23 68 -77 42 -26 -13 -65 -25 -85
-27 -37 -3 -37 -3 -32 29 14 79 24 96 57 99 18 2 51 0 74 -3 23 -3 58 0 77 6
29 10 33 10 29 -3 -5 -12 3 -14 49 -9 40 5 59 3 67 -7 21 -25 23 -74 7 -123
-13 -39 -24 -149 -27 -275 0 -26 -17 -31 -24 -8 -16 50 -36 3 -41 -94 -1 -33
2 -71 7 -85 15 -38 21 -111 11 -124 -5 -7 -16 -41 -25 -77 -9 -36 -25 -96 -36
-133 -22 -75 -22 -75 43 -14 33 30 35 30 41 -6 4 -18 -1 -31 -19 -44 -36 -29
-54 -72 -53 -133 0 -68 5 -84 22 -70 6 5 15 7 18 3 4 -3 7 -2 7 3 0 5 13 17
29 27 l28 16 29 -67 c27 -64 63 -132 65 -122 0 3 2 12 4 20 2 8 6 30 10 49 3
19 8 37 10 41 2 4 7 42 10 86 4 43 8 85 11 93 4 11 1 11 -10 2 -8 -7 -17 -35
-21 -62 -4 -28 -9 -48 -12 -46 -6 6 -11 58 -12 121 -1 34 -5 47 -13 43 -7 -3
-20 -8 -29 -12 -13 -5 -18 4 -24 47 -16 107 -14 200 7 258 41 115 63 134 56
47 -4 -52 -4 -53 20 -49 21 4 23 2 17 -17 -8 -27 10 -51 38 -51 29 0 107 82
107 113 0 23 -3 25 -43 25 -57 -1 -77 10 -52 29 11 7 27 13 37 13 10 0 19 5
19 10 1 6 2 14 3 20 0 5 6 14 12 20 18 18 53 -9 64 -49 5 -19 19 -44 31 -57
23 -25 24 -19 -24 -108 -14 -26 -14 -33 -2 -57 8 -15 27 -32 42 -38 15 -6 78
-43 138 -82 88 -57 119 -72 152 -74 50 -2 46 10 -16 47 -20 12 -41 27 -48 34
-7 6 -41 28 -76 49 -64 37 -65 38 -55 69 5 17 12 37 14 44 2 8 29 -12 68 -50
80 -79 90 -87 175 -144 l69 -46 -33 -71 -32 -72 -42 3 c-42 3 -52 -7 -27 -27
20 -17 70 -123 97 -206 12 -38 26 -73 31 -76 11 -7 212 -3 248 6 14 3 53 6 87
6 56 1 65 -2 86 -27 29 -33 72 -39 141 -19 60 18 61 18 48 2 -9 -10 0 -21 41
-48 49 -33 53 -39 72 -110 32 -112 73 -182 149 -249 l28 -25 -3 40 c-1 22 -16
67 -33 100 -16 33 -31 74 -32 90 -2 17 -5 45 -9 63 -3 17 -2 32 2 32 11 0 93
-134 93 -152 0 -8 7 -39 17 -69 16 -52 16 -53 23 -24 7 33 6 75 -4 202 -4 55
-3 83 4 83 5 0 10 -8 10 -18 0 -10 3 -22 7 -26 4 -3 8 -12 9 -19 1 -7 5 -27 8
-45 4 -18 9 -77 11 -132 3 -54 10 -111 16 -127 6 -15 9 -28 8 -28 -7 0 34 -74
53 -95 41 -46 162 -140 180 -140 23 0 22 8 -1 70 -20 52 -19 58 14 54 132 -17
205 -15 205 5 0 5 -21 16 -47 24 -58 19 -168 16 -232 -7 -54 -20 -59 -16 -105
77 -60 123 -64 191 -22 347 8 30 12 58 8 61 -4 4 -24 12 -44 19 -23 7 -38 18
-39 28 -1 32 -11 124 -23 207 0 6 21 9 52 7 40 -2 52 0 52 12 0 22 19 30 36
15 8 -6 16 -10 18 -8 2 2 7 38 10 79 8 89 34 233 49 269 6 14 11 28 11 31 1 3
14 31 30 63 15 32 26 60 25 62 -2 2 -42 16 -89 32 -88 30 -209 39 -217 17 -2
-6 28 -21 67 -34 60 -20 68 -25 57 -39 -41 -51 -87 -83 -149 -103 l-48 -15
-35 46 -36 45 45 13 c41 12 86 51 86 75 0 13 -55 3 -98 -19 -39 -21 -159 -161
-187 -219 -44 -92 2 -221 81 -227 22 -2 31 -9 40 -33 6 -18 29 -54 52 -81 31
-36 53 -52 86 -61 56 -15 73 -44 18 -31 -20 4 -39 9 -42 10 -3 1 -12 4 -20 6
-40 12 -81 34 -111 61 l-34 29 -95 -24 c-52 -13 -106 -26 -120 -28 -75 -11
-178 -27 -200 -31 -14 -3 -80 -7 -148 -10 l-122 -6 -22 48 c-17 38 -22 68 -22
130 0 83 3 91 77 208 7 11 32 52 56 90 60 98 83 117 170 145 38 12 44 11 36
-11 -5 -13 -58 -50 -70 -48 -16 2 -64 -33 -70 -50 -3 -11 -10 -20 -14 -20 -5
0 -14 -13 -21 -30 -7 -16 -16 -30 -21 -30 -5 0 -9 -5 -9 -11 0 -5 8 -9 18 -8
43 4 46 -1 18 -30 -17 -18 -32 -48 -38 -78 -12 -58 -19 -143 -12 -143 19 0 58
78 68 136 7 36 15 44 115 103 l84 51 37 -33 c30 -25 42 -48 62 -112 l25 -80
13 60 c8 33 13 64 12 68 -2 5 2 6 7 3 5 -3 12 -22 16 -42 7 -42 21 -35 30 16
18 103 51 165 140 256 70 72 128 99 286 130 156 30 200 47 251 97 72 70 131
189 106 214 -11 10 -25 1 -78 -53 -81 -82 -88 -86 -136 -72 -21 7 -42 13 -46
14 -5 1 -9 2 -10 3 -2 2 -14 5 -27 7 -37 7 -37 12 -1 26 l33 14 -41 33 c-46
36 -54 54 -19 46 80 -18 90 -19 144 -12 33 4 60 29 85 77 7 14 22 33 34 42 43
35 81 74 99 101 12 19 21 25 28 18 12 -12 14 -159 3 -216 -4 -22 -10 -53 -13
-70 -7 -39 -20 -63 -57 -104 -17 -18 -40 -43 -51 -55 -62 -68 -61 -61 -24
-101 l34 -35 38 26 39 26 26 -24 c14 -12 34 -32 43 -43 22 -25 29 -18 36 36 5
33 2 45 -11 54 -16 12 -16 15 1 54 19 43 32 53 34 24 0 -10 2 -27 4 -38 2 -11
6 -47 9 -80 3 -33 7 -69 10 -80 2 -11 -2 -30 -10 -42 -8 -12 -21 -46 -28 -75
-8 -29 -19 -68 -25 -86 -5 -18 -6 -30 -2 -27 5 2 19 -16 31 -40 13 -25 24 -45
26 -45 2 0 15 11 30 25 15 14 39 25 53 26 56 2 103 8 108 13 16 16 -50 53
-112 63 -16 3 -37 7 -45 8 -8 2 -21 4 -29 4 -13 1 -13 14 3 81 9 41 48 67 94
64 82 -5 100 -12 94 -40 -7 -36 53 -152 82 -160 21 -5 44 4 94 36 35 23 26 30
-20 14 -22 -8 -43 -12 -46 -9 -3 3 -12 -1 -20 -8 -13 -10 -15 -8 -9 21 11 54
54 134 101 186 41 45 46 48 83 44 78 -9 81 -26 18 -96 -44 -49 -53 -63 -37
-61 4 1 22 1 40 0 l34 -1 -36 -42 c-25 -29 -34 -48 -30 -61 7 -24 12 -47 13
-66 2 -26 11 -5 57 125 49 141 61 198 46 217 -5 7 -7 21 -5 32 2 11 7 71 10
132 4 94 3 113 -9 113 -8 0 -18 -4 -24 -9 -5 -5 -77 -44 -161 -86 -103 -53
-164 -78 -189 -79 -45 -1 -44 -3 -70 162 -3 20 -10 57 -14 82 -10 52 -11 52
82 80 90 28 103 46 38 49 -73 3 -91 8 -117 33 -25 23 -26 40 -7 118 9 36 14
164 7 156 -4 -4 -8 -21 -10 -39 -2 -17 -5 -41 -7 -52 -3 -11 -5 -26 -5 -32 -1
-7 -6 -13 -12 -13 -6 0 -9 14 -8 33 2 18 1 37 -2 42 -3 6 -6 47 -5 93 l1 83
-35 -1 c-19 -1 -40 -2 -45 -1 -23 2 -8 161 16 161 19 0 78 45 89 68 16 36 12
50 -20 67 -16 9 -30 13 -30 10 0 -8 -149 72 -171 91 -25 23 -65 27 -194 22 -5
0 -30 4 -55 9 -39 7 -119 9 -242 4 -34 -1 -36 -3 -34 -32 l2 -32 -20 26 c-21
25 -22 25 -68 10 l-47 -16 25 -50 c38 -74 39 -92 6 -106 -22 -10 -25 -10 -14
0 31 32 -7 136 -76 208 -8 8 -17 24 -22 36 -5 13 -33 37 -62 53 -29 17 -74 50
-99 74 -49 45 -104 130 -92 141 3 4 2 7 -3 7 -12 0 -38 69 -30 77 3 3 13 -11
23 -33 l16 -39 15 36 c10 28 24 41 55 54 107 45 104 43 140 115 19 39 28 65
20 59 -21 -18 -35 3 -35 51 1 51 4 54 38 46 23 -6 26 -11 20 -37 -5 -27 -4
-29 10 -15 16 16 53 22 55 9 0 -5 2 -42 4 -83 2 -41 6 -106 10 -145 4 -38 8
-76 8 -82 0 -7 3 -13 7 -13 4 0 6 91 6 203 l-1 202 -35 12 c-19 6 -34 15 -32
20 1 4 13 40 26 78 33 93 43 170 46 325 2 123 1 132 -12 124 -10 -6 -10 -5 -1
7 13 16 11 32 -14 117 -16 53 -31 64 -53 37 -22 -26 -31 -16 -14 16 13 26 14
33 2 40 -10 7 -9 9 4 9 33 0 28 20 -15 64 -38 38 -45 52 -51 98 -3 29 -6 53
-6 54 0 0 -36 0 -81 -1 -51 -1 -83 -6 -88 -14 -4 -6 -9 -35 -10 -64 -1 -29 -4
-61 -6 -72 -2 -11 -4 -27 -4 -35 -2 -17 -65 77 -88 128 -14 33 -15 34 -64 28
-28 -4 -63 -13 -77 -20 -45 -23 -145 -48 -201 -50 -33 -1 -35 1 -53 53 -29 82
-48 238 -32 252 21 17 48 -20 63 -85 7 -31 18 -59 24 -61 11 -3 43 -8 125 -19
18 -3 33 8 61 44 34 43 37 52 39 120 1 41 4 75 5 77 2 1 13 -4 25 -13 26 -18
29 -58 8 -138 -15 -55 -15 -64 -1 -117 6 -26 7 -26 37 -11 17 8 59 37 95 63
35 27 68 49 72 49 4 0 8 -16 9 -36 2 -43 3 -44 34 -48 13 -1 29 -6 36 -10 7
-4 14 -1 17 7 16 41 -56 123 -182 205 -94 62 -116 68 -244 72 -231 7 -238 7
-286 -13z m83 -24 c-8 -8 -36 10 -36 25 0 13 3 12 20 -3 11 -10 18 -20 16 -22z
m71 -409 c8 -21 -13 -42 -28 -27 -13 13 -5 43 11 43 6 0 13 -7 17 -16z m494
-201 c-25 -12 -51 -22 -58 -22 -11 -1 -63 100 -63 121 0 6 17 -6 37 -26 40
-39 48 -36 57 20 2 16 5 31 5 34 1 3 16 -20 35 -50 l33 -55 -46 -22z m133 -55
c5 -65 -1 -70 -59 -43 -26 11 -27 13 -8 14 43 2 53 12 53 54 0 57 7 43 14 -25z
m91 -13 c4 -27 8 -122 8 -211 1 -135 -1 -165 -16 -187 -26 -41 -52 -25 -116
72 -83 127 -90 147 -58 158 26 8 21 7 74 17 46 8 47 10 84 159 6 26 13 46 14
45 2 -2 6 -25 10 -53z m-358 -204 c41 -55 58 -106 57 -177 -1 -67 -7 -95 -19
-83 -2 3 -6 34 -9 69 -7 100 -12 113 -72 205 l-18 28 24 -13 c14 -7 30 -20 37
-29z m-1013 -19 c-6 -4 -24 -31 -39 -60 -31 -60 -44 -64 -20 -6 18 43 43 74
59 74 8 0 8 -2 0 -8z m481 -289 c-1 -16 1 -32 4 -37 2 -5 3 -35 2 -65 -2 -47
1 -58 18 -71 27 -19 27 -21 -14 -66 l-34 -39 3 40 c2 22 4 91 5 153 1 61 5
112 9 112 4 0 7 -12 7 -27z m455 -55 c8 -2 24 -9 35 -15 18 -10 16 -12 -15
-17 -36 -7 -86 -3 -132 9 -18 5 -25 12 -21 22 4 11 18 14 62 10 31 -2 63 -6
71 -9z m164 -580 c-24 -80 -52 -109 -90 -94 -11 4 -3 17 31 52 25 26 45 51 45
55 0 5 5 9 11 9 6 0 8 -9 3 -22z m110 -202 c33 -20 68 -36 78 -36 14 0 18 -8
18 -36 l0 -36 -72 5 c-40 3 -84 9 -98 15 -25 10 -148 129 -139 135 2 2 27 10
54 19 49 15 51 14 75 -8 14 -12 52 -39 84 -58z m403 -68 c6 -18 11 -46 12 -63
0 -16 3 -39 5 -50 18 -71 25 -107 29 -165 l6 -65 -20 60 c-11 33 -22 80 -24
105 -5 52 -30 151 -42 159 -4 3 -17 16 -27 29 l-19 22 34 0 c30 0 36 -4 46
-32z m608 -675 c3 -101 8 -191 9 -200 2 -10 7 -36 11 -58 4 -22 9 -47 10 -55
1 -8 5 -30 9 -47 7 -29 5 -33 -12 -33 -33 0 -51 101 -56 315 -3 113 10 273 20
262 1 -1 5 -84 9 -184z m-1129 136 c41 -25 72 -74 89 -140 22 -83 6 -93 -73
-48 -17 10 -40 16 -50 13 -30 -10 -66 -28 -82 -40 -8 -7 -39 -22 -68 -33 -45
-18 -53 -19 -58 -6 -15 39 28 103 106 157 24 17 25 18 6 33 -22 17 -23 15 30
55 47 35 57 36 100 9z m790 -55 c17 -14 3 -64 -18 -64 -17 0 -78 23 -78 30 0
3 14 23 32 44 28 34 32 36 41 19 5 -10 16 -23 23 -29z m-396 -89 c6 -4 9 -3 8
2 -4 13 12 83 19 83 23 0 73 -27 74 -40 3 -43 9 -75 19 -104 6 -18 12 -42 15
-52 2 -10 10 -33 16 -51 15 -37 10 -45 -26 -45 -29 0 -29 -2 -12 -20 6 -8 23
-27 37 -43 l25 -28 -40 22 c-22 12 -50 36 -62 53 l-22 31 -6 -24 c-7 -28 -12
-71 -14 -112 -1 -27 -3 -28 -33 -21 -18 4 -41 8 -50 9 -10 1 -34 23 -55 51
l-38 49 -3 -74 c-2 -40 -1 -75 2 -78 13 -13 146 -12 185 2 59 21 60 20 48 -25
-8 -29 -15 -39 -27 -35 -8 2 -28 7 -45 9 -16 3 -54 10 -84 16 -38 7 -66 7 -95
-1 -23 -7 -50 -13 -61 -15 -11 -2 -36 -6 -55 -10 -19 -4 -77 -7 -127 -7 -51
-1 -93 -3 -93 -6 0 -3 9 -17 19 -31 16 -19 28 -24 66 -24 57 1 41 -10 -42 -30
-33 -7 -71 -20 -84 -29 -13 -8 -46 -19 -74 -22 -61 -9 -99 -33 -145 -92 -75
-96 -59 -88 -119 -62 -42 18 -59 33 -87 76 -19 29 -34 57 -34 62 0 4 -7 22
-16 40 -18 36 -27 131 -12 131 5 0 6 5 3 11 -4 5 1 19 10 29 17 19 19 19 74
-12 95 -54 105 -58 132 -58 14 0 29 -3 33 -7 3 -4 12 -8 19 -9 7 -2 44 -12 82
-23 81 -23 155 -33 155 -21 0 5 2 15 6 23 4 11 -8 16 -53 21 -50 6 -93 27 -93
45 0 4 46 8 103 9 307 5 322 6 319 27 -5 27 -20 44 -40 44 -9 0 -32 3 -49 7
-36 7 -33 -3 -37 132 0 17 -4 32 -8 32 -8 0 -42 -48 -51 -72 -11 -30 -34 -20
-65 30 -20 30 -30 59 -30 80 1 31 6 36 55 59 29 14 56 24 58 22 2 -3 7 -20 10
-39 8 -46 11 -47 40 -20 19 18 35 23 67 22 37 -2 46 2 63 28 17 26 21 27 29
12 5 -9 8 -36 7 -60 l-2 -43 39 6 c21 3 53 10 71 15 34 9 37 10 50 10 4 0 8
10 7 23 -1 23 -9 25 -62 13 -30 -7 -31 -6 -48 47 -9 29 -19 66 -22 82 -3 16
-7 32 -9 36 -3 3 19 15 48 26 l52 19 27 -47 c15 -26 32 -50 38 -54z m-252 47
c2 -14 -2 -22 -11 -22 -17 0 -26 19 -19 38 7 19 27 9 30 -16z m-893 -2 c27
-12 44 -24 40 -31 -13 -20 5 -76 28 -87 l22 -11 -22 0 c-21 -1 -35 -31 -14
-31 5 0 17 -19 27 -42 10 -24 21 -51 25 -60 6 -13 3 -16 -14 -12 -12 2 -34 5
-49 6 -24 2 -28 7 -29 33 -1 66 -23 126 -54 153 -14 12 -25 25 -26 29 -10 85
-9 85 66 53z m1373 -62 c14 -14 16 -60 2 -74 -6 -6 -1 -22 15 -46 33 -48 18
-55 -28 -14 -36 32 -56 89 -36 102 5 3 9 14 9 25 0 21 20 25 38 7z m88 -33
c22 -42 27 -43 44 -10 17 33 26 32 39 -5 9 -28 7 -33 -29 -70 -21 -22 -44 -41
-51 -42 -12 -3 -13 0 -23 79 -3 28 -9 58 -12 67 -12 31 13 16 32 -19z m-862
-152 c4 -5 13 -8 19 -8 20 0 17 -21 -5 -33 -58 -31 -91 -19 -67 24 12 23 38
31 53 17z m553 -618 c23 -14 43 -28 43 -31 0 -5 -2 -8 -51 -64 -32 -36 -61
-85 -65 -108 -3 -19 -14 -28 -15 -14 -2 17 -4 23 -21 62 -16 35 -16 35 13 47
30 12 30 14 32 101 1 39 8 39 64 7z"/>
<path d="M3061 3124 c0 -11 3 -14 6 -6 3 7 2 16 -1 19 -3 4 -6 -2 -5 -13z"/>
<path d="M3767 1183 c-2 -5 -7 -25 -11 -45 -5 -30 -12 -38 -36 -43 -16 -4 -32
-10 -34 -14 -5 -7 81 -161 89 -161 3 0 4 61 3 135 -1 74 -3 135 -4 135 -2 0
-5 -3 -7 -7z"/>
</g>
</svg>
