<?xml version="1.0" standalone="no"?>
<!DOCTYPE svg PUBLIC "-//W3C//DTD SVG 20010904//EN"
 "http://www.w3.org/TR/2001/REC-SVG-20010904/DTD/svg10.dtd">
<svg version="1.0" xmlns="http://www.w3.org/2000/svg"
 width="700.000000pt" height="700.000000pt" viewBox="0 0 700.000000 700.000000"
 preserveAspectRatio="xMidYMid meet">
<metadata>
Created by potrace 1.11, written by Peter Selinger 2001-2013
</metadata>
<g transform="translate(0.000000,700.000000) scale(0.100000,-0.100000)"
fill="#000000" stroke="none">
<path d="M3084 6808 c-3 -5 1 -17 8 -26 32 -37 31 -45 -1 -26 -22 13 -31 25
-27 36 6 24 3 24 -105 -20 -52 -21 -128 -47 -169 -57 -82 -19 -140 -47 -157
-74 -10 -16 -7 -18 30 -18 111 -1 103 3 102 -55 l0 -53 -65 -23 c-59 -20 -150
-28 -187 -14 -11 4 -63 83 -63 97 0 3 6 5 13 4 6 -1 40 -1 74 0 51 1 63 4 68
20 3 10 3 25 -1 34 -5 14 -11 14 -57 0 -71 -21 -100 -37 -187 -101 -174 -130
-209 -189 -334 -552 -45 -133 -64 -233 -61 -333 1 -71 -4 -114 -23 -187 -43
-164 -39 -343 11 -492 10 -27 10 -55 3 -106 -8 -59 -6 -80 12 -147 l21 -78
-23 -56 c-74 -178 -68 -190 39 -78 l93 98 25 -21 c17 -15 31 -44 42 -92 15
-58 27 -79 31 -50 5 45 18 103 24 107 16 10 54 -189 54 -280 0 -85 -3 -95 -44
-185 -49 -107 -60 -171 -36 -217 16 -33 74 -81 118 -100 22 -10 29 -9 45 9 10
11 35 34 56 50 50 40 68 27 61 -45 -13 -142 -7 -131 -98 -200 -55 -41 -158
-142 -229 -222 -65 -74 -81 -86 -206 -152 -75 -40 -148 -73 -163 -73 -41 0
-297 -133 -386 -200 -175 -132 -301 -314 -341 -495 -14 -66 -61 -348 -61 -370
0 -32 108 128 115 170 3 22 10 61 14 88 5 26 10 50 13 52 7 7 43 -113 63 -210
32 -156 68 -295 77 -295 8 0 4 299 -6 350 -2 14 -7 48 -11 75 -9 69 -16 116
-20 143 -2 13 -21 44 -41 69 -39 48 -46 87 -22 121 25 36 161 177 187 194 36
25 56 23 138 -14 81 -36 75 -26 77 -148 1 -61 -45 -150 -112 -216 -35 -35 -46
-50 -32 -47 18 5 20 2 15 -18 -47 -203 -45 -446 4 -569 9 -24 10 -24 11 10 1
19 3 42 4 50 2 8 6 44 10 80 8 81 35 185 69 269 20 46 24 68 17 81 -6 10 -10
34 -10 52 1 62 37 119 142 220 64 63 95 100 87 103 -19 7 -59 13 -86 14 -13 1
-23 4 -23 9 0 9 122 55 208 78 72 19 75 27 40 114 -12 30 -23 56 -24 58 -1 2
-31 -13 -68 -33 -47 -25 -81 -36 -121 -39 -56 -4 -56 -3 -50 23 3 14 8 40 11
56 17 99 22 103 153 98 83 -3 118 0 146 11 l37 16 -6 -24 c-5 -20 -3 -24 11
-22 10 2 43 7 74 10 48 6 57 4 75 -15 25 -28 27 -138 2 -189 -13 -26 -19 -71
-22 -180 -6 -153 -10 -208 -19 -216 -2 -3 -16 9 -31 26 -28 34 -30 32 -41 -30
-14 -80 -14 -179 1 -231 26 -92 27 -124 6 -191 -17 -51 -73 -251 -99 -353 -5
-19 4 -13 100 79 23 22 33 13 40 -34 5 -32 2 -38 -30 -58 -48 -32 -75 -96 -74
-177 0 -59 8 -115 17 -115 2 0 32 18 66 40 l63 40 12 -28 c52 -116 114 -244
117 -241 11 11 57 269 60 333 4 111 -8 121 -27 20 -18 -92 -31 -123 -33 -76
-1 55 -16 217 -19 221 -2 2 -17 -6 -34 -18 -27 -20 -30 -20 -35 -4 -30 107
-40 286 -21 364 32 125 75 223 89 200 9 -14 10 -93 2 -119 -6 -19 -4 -22 23
-22 35 0 48 -15 30 -36 -10 -12 -8 -19 11 -39 30 -32 48 -31 98 5 56 40 104
107 100 140 -3 24 -6 25 -65 25 -45 0 -67 5 -79 17 -16 15 -14 18 21 32 21 9
45 16 55 16 14 0 18 7 15 26 -2 24 17 54 34 54 23 0 62 -46 72 -84 6 -23 24
-58 40 -77 16 -19 29 -38 29 -42 0 -4 -18 -40 -40 -79 -40 -70 -41 -72 -25
-105 9 -18 30 -40 48 -49 31 -17 156 -94 290 -181 60 -39 76 -45 125 -46 31 0
56 3 55 7 -4 12 -119 94 -216 153 -128 78 -121 70 -102 138 l17 57 72 -70 c86
-85 215 -188 296 -237 33 -20 60 -40 60 -44 0 -4 -17 -50 -38 -102 l-39 -94
-66 1 c-37 1 -67 1 -67 -1 0 -1 11 -15 25 -31 36 -42 98 -173 136 -289 18 -55
36 -105 41 -111 10 -13 282 -10 353 4 27 6 88 10 136 10 l86 -1 18 -33 c28
-53 69 -60 190 -32 97 21 105 22 80 2 -19 -15 -19 -16 -1 -27 10 -7 45 -31 76
-54 56 -40 62 -50 76 -118 23 -117 91 -244 177 -329 l71 -71 4 31 c4 39 -30
141 -64 196 -28 44 -29 49 -39 157 -3 41 -9 79 -12 85 -3 5 -2 6 4 3 22 -14
131 -205 138 -242 4 -22 13 -60 21 -85 26 -78 25 -77 34 -55 8 22 6 125 -4
310 -6 110 -6 118 8 95 38 -61 51 -135 61 -340 9 -187 54 -294 163 -388 136
-117 171 -142 202 -142 17 0 29 4 26 9 -3 4 -19 44 -35 88 l-29 79 51 -4 c29
-2 69 -7 89 -12 49 -10 169 -6 193 7 17 10 16 12 -11 26 -103 53 -272 54 -402
2 -52 -21 -50 -23 -116 110 -88 176 -95 253 -45 453 17 68 30 125 28 126 -2 2
-31 12 -63 23 l-59 19 -2 50 c-1 27 -8 85 -14 129 -25 170 -34 152 66 142 52
-5 52 -5 64 28 l13 34 28 -21 c16 -11 31 -19 33 -17 1 2 6 38 9 79 17 193 39
316 72 410 23 66 63 151 86 183 11 15 18 30 16 33 -3 2 -54 23 -114 45 -95 35
-123 41 -216 45 -102 5 -108 4 -108 -14 0 -15 17 -25 83 -46 119 -39 117 -35
55 -99 -63 -63 -109 -89 -192 -108 -50 -11 -59 -11 -66 2 -5 8 -24 36 -44 63
-19 28 -34 51 -33 52 1 1 20 5 42 8 51 8 110 47 130 86 l16 30 -39 0 c-85 0
-176 -70 -292 -225 -82 -110 -94 -137 -97 -222 -1 -59 3 -80 23 -122 36 -71
116 -118 153 -88 9 7 12 8 8 1 -14 -24 26 -104 83 -166 48 -53 67 -66 108 -77
27 -7 60 -24 73 -37 l24 -26 -30 7 c-142 32 -190 50 -248 93 -34 25 -65 50
-68 55 -8 11 -12 10 -154 -27 -97 -26 -274 -59 -385 -72 -30 -3 -58 -8 -61
-10 -9 -5 -164 -16 -262 -18 -84 -2 -91 -1 -112 22 -46 50 -67 180 -53 329 1
16 132 238 214 365 24 37 59 78 77 91 32 24 176 81 184 74 2 -3 -2 -16 -8 -31
-8 -18 -37 -38 -88 -64 -42 -20 -83 -46 -91 -57 -8 -10 -37 -50 -63 -88 l-48
-69 43 2 c24 1 47 1 51 1 5 -1 -10 -18 -32 -39 -36 -32 -43 -46 -56 -112 -9
-41 -18 -106 -20 -144 l-4 -68 21 18 c29 26 66 108 79 176 11 57 12 58 88 106
151 97 189 116 209 101 80 -64 92 -81 124 -186 33 -105 39 -110 51 -37 20 112
30 124 47 54 7 -28 16 -50 20 -50 10 0 20 34 27 84 13 110 88 239 207 356 101
100 189 139 361 164 23 4 50 8 60 10 11 2 49 9 85 16 163 31 285 130 360 292
44 96 47 116 18 123 -21 5 -39 -9 -125 -94 l-101 -100 -94 26 c-51 14 -106 31
-123 37 l-30 13 54 13 55 13 -25 19 c-38 31 -110 100 -107 104 2 1 32 -4 68
-11 66 -15 179 -19 216 -9 12 3 36 32 57 67 22 37 67 89 112 131 42 38 88 86
102 108 15 21 30 35 34 31 12 -12 26 -121 23 -179 -3 -55 -43 -283 -53 -300
-3 -6 -35 -44 -71 -84 -36 -39 -82 -91 -102 -113 l-36 -41 19 -26 c10 -14 29
-37 41 -52 l23 -27 55 35 c30 19 57 34 60 34 4 0 35 -27 69 -60 34 -33 64 -54
66 -47 2 7 8 37 14 67 10 53 9 56 -16 78 l-26 23 29 56 c16 30 32 57 35 59 4
2 10 -27 14 -64 4 -37 9 -78 10 -92 2 -14 6 -56 10 -95 4 -38 9 -73 11 -77 2
-3 -5 -22 -16 -41 -27 -46 -85 -248 -73 -256 18 -13 52 -68 60 -100 l8 -33 45
39 c30 25 57 40 80 42 59 6 94 9 123 10 20 1 27 6 27 21 0 26 -69 56 -184 81
-49 10 -91 21 -94 23 -6 7 18 107 35 139 20 39 71 59 131 51 42 -6 92 -12 116
-13 4 -1 5 -16 2 -35 -5 -27 1 -52 33 -120 33 -72 45 -88 75 -103 35 -16 37
-16 78 7 51 28 99 62 95 67 -2 1 -41 -6 -86 -18 -45 -11 -85 -18 -88 -16 -3 3
10 45 27 94 32 88 58 126 142 215 44 46 45 47 99 41 53 -5 89 -24 89 -48 0
-12 -41 -63 -98 -123 -19 -18 -31 -36 -29 -39 5 -4 49 -10 91 -12 15 -1 12 -9
-20 -49 -21 -26 -43 -50 -50 -54 -8 -5 -6 -25 5 -72 9 -35 18 -67 22 -70 6 -7
124 339 139 411 9 42 9 56 -3 75 -12 20 -13 35 -2 103 12 74 13 280 2 292 -3
2 -23 -7 -44 -20 -22 -14 -85 -48 -139 -75 -55 -28 -122 -63 -150 -79 -107
-63 -230 -97 -251 -70 -6 7 -16 46 -23 87 -7 41 -14 82 -15 90 -1 8 -6 35 -10
60 -4 25 -9 54 -11 65 -2 11 -7 40 -10 65 l-6 45 109 33 c71 22 114 41 121 53
11 18 9 19 -45 20 -106 2 -121 6 -162 38 -46 37 -48 46 -25 141 15 63 30 269
19 258 -6 -6 -10 -23 -19 -88 -8 -61 -34 -141 -37 -115 -1 11 -3 31 -5 45 -3
25 -12 215 -13 279 l-1 33 -60 -5 -60 -5 -1 47 c-1 25 -2 55 -2 66 -1 11 2 38
7 60 7 35 16 45 80 87 67 43 73 51 83 93 12 53 25 42 -112 97 -33 13 -105 51
-160 83 l-100 60 -125 1 c-69 1 -147 6 -175 12 -57 12 -329 13 -360 2 -14 -5
-21 -18 -23 -38 -3 -42 20 -63 63 -56 32 5 35 3 51 -33 9 -21 19 -69 21 -107
2 -38 10 -83 17 -100 14 -32 24 -93 32 -201 3 -33 7 -67 10 -75 3 -10 2 -11
-4 -5 -14 15 -51 143 -57 200 -4 28 -15 90 -26 140 -15 69 -26 96 -48 120 -16
16 -46 55 -68 86 l-39 56 -64 -20 c-36 -12 -66 -22 -68 -23 -2 -1 13 -34 32
-73 19 -39 37 -84 41 -100 5 -26 2 -32 -23 -45 l-29 -15 10 37 c16 60 1 103
-67 198 -35 49 -70 103 -79 120 -10 19 -41 45 -83 70 -96 56 -191 141 -230
204 -54 89 -103 205 -94 221 7 10 13 3 25 -26 34 -87 30 -85 57 -25 l25 55 97
39 97 38 56 112 c45 90 50 106 28 82 -27 -29 -28 -29 -42 -11 -9 13 -13 42
-12 82 2 69 9 74 65 53 24 -10 26 -14 21 -53 -5 -35 -4 -39 6 -22 7 11 17 21
22 22 6 1 22 4 35 8 25 6 25 5 26 -62 2 -93 12 -218 29 -363 5 -36 8 -73 7
-82 0 -10 2 -20 6 -22 4 -2 6 138 6 312 l-1 317 -49 18 c-27 10 -50 20 -52 21
-1 2 9 27 22 57 33 70 54 153 72 269 2 14 7 117 10 230 7 197 6 204 -11 190
-17 -14 -17 -13 -7 7 17 32 15 71 -9 144 -36 109 -41 114 -80 76 -57 -54 -62
-53 -29 6 31 56 32 59 14 72 -18 13 -17 14 14 15 28 0 31 2 23 18 -5 10 -35
43 -65 74 -55 55 -56 58 -61 123 -3 37 -7 71 -10 75 -5 9 -231 8 -238 0 -3 -3
-8 -48 -11 -100 -4 -52 -9 -110 -13 -128 -5 -32 -6 -32 -24 -16 -11 9 -19 23
-19 29 0 7 -7 18 -15 25 -9 7 -33 48 -54 91 -21 43 -40 76 -42 75 -2 -2 -27
-6 -56 -10 -29 -3 -83 -17 -120 -32 -89 -33 -214 -64 -272 -67 -45 -2 -46 -1
-68 43 -30 64 -54 180 -67 336 -4 45 -2 53 14 57 41 11 70 -41 95 -172 8 -42
7 -41 140 -56 28 -3 59 -8 71 -11 17 -4 32 8 75 62 58 73 53 53 58 236 1 40
17 45 52 14 18 -15 20 -26 16 -74 -3 -31 -13 -92 -22 -134 -15 -66 -16 -84 -5
-123 7 -25 16 -47 20 -50 11 -7 125 65 203 128 l72 59 10 -63 10 -63 63 -11
c73 -14 75 -10 38 63 -31 61 -79 109 -177 180 -192 137 -200 140 -464 147 -99
3 -197 7 -218 9 -20 2 -40 0 -43 -6z m134 -621 c9 -10 7 -19 -4 -35 -19 -27
-30 -28 -44 -1 -19 35 23 67 48 36z m712 -188 c23 -39 40 -72 38 -74 -1 -1
-35 -16 -75 -33 l-72 -31 -14 22 c-20 31 -79 158 -75 162 2 2 28 -18 58 -45
36 -32 57 -45 61 -37 8 14 24 99 21 110 -6 23 20 -10 58 -74z m157 -101 c0 -7
3 -48 7 -90 l7 -77 -33 10 c-37 12 -98 39 -98 43 0 1 21 3 47 5 26 1 50 6 53
12 4 5 5 32 4 59 -1 28 2 50 6 50 3 0 7 -6 7 -12z m147 -351 c3 -198 -4 -287
-26 -314 -18 -22 -63 -15 -90 15 -32 35 -91 122 -82 122 3 0 -10 20 -29 44
-20 24 -45 66 -55 94 l-20 51 32 10 c17 5 45 12 61 14 106 16 102 13 124 85
11 37 28 101 37 142 l18 75 14 -65 c8 -39 15 -147 16 -273z m-541 -8 c88 -73
125 -195 103 -344 -7 -44 -25 -63 -27 -27 0 9 -2 26 -3 37 -2 11 -6 56 -10 99
-7 79 -26 130 -78 206 -37 54 -40 60 -31 60 5 0 25 -14 46 -31z m-1445 -132
c-28 -54 -52 -96 -54 -94 -5 5 24 89 43 122 17 32 54 77 60 72 1 -2 -20 -47
-49 -100z m729 -329 c3 -29 5 -87 5 -128 -2 -70 0 -76 29 -106 l30 -31 -41
-49 c-23 -27 -46 -53 -51 -59 -6 -5 -7 21 -3 65 3 41 7 129 9 195 2 66 4 133
4 149 1 45 12 24 18 -36z m595 -59 c70 -15 117 -38 97 -49 -36 -20 -120 -17
-218 10 -42 11 -42 12 -25 31 20 22 66 25 146 8z m253 -866 l-33 -87 -52 -4
-52 -3 78 90 c44 49 82 90 85 90 4 1 -8 -38 -26 -86z m89 -184 c77 -58 169
-109 197 -109 16 0 19 -8 19 -49 l0 -48 -52 2 c-44 1 -151 14 -180 21 -5 1
-12 2 -16 3 -6 1 -165 156 -190 185 -5 6 110 44 134 45 12 1 51 -22 88 -50z
m1496 -981 c3 -195 14 -392 25 -447 2 -10 6 -36 9 -57 4 -22 11 -55 15 -74 22
-88 22 -86 -5 -85 -21 1 -61 25 -41 25 3 0 3 10 -2 23 -5 13 -12 48 -16 77 -4
29 -9 62 -11 74 -16 78 -21 292 -11 421 16 207 34 228 37 43z m-1572 71 c73
-51 115 -132 129 -248 l6 -53 -34 7 c-19 4 -55 19 -81 33 -44 23 -51 24 -90
13 -24 -7 -65 -27 -93 -43 -40 -25 -163 -78 -179 -78 -13 0 -13 36 -1 77 17
56 68 113 138 153 l48 27 -32 26 -32 25 78 54 c50 35 83 52 89 47 6 -5 30 -23
54 -40z m1086 -55 c35 -45 35 -47 19 -78 -8 -17 -17 -32 -18 -34 -2 -3 -116
38 -124 44 -3 2 81 114 86 114 1 0 18 -21 37 -46z m-583 -81 c31 -56 44 -72
46 -58 5 28 25 109 30 117 2 4 26 -3 52 -17 27 -13 51 -21 55 -18 3 4 6 -16 7
-43 0 -27 2 -56 4 -64 7 -37 29 -111 52 -178 14 -40 23 -75 20 -78 -3 -3 -19
-7 -37 -9 -18 -3 -34 -6 -36 -8 -5 -4 65 -98 80 -109 19 -13 0 -9 -32 7 -17 9
-53 40 -80 70 -60 65 -54 73 -77 -125 -2 -19 -4 -38 -4 -41 -1 -3 -33 1 -72
10 -69 14 -71 16 -111 72 -62 89 -68 86 -65 -33 l3 -102 29 -8 c77 -23 270 -1
290 33 16 25 21 3 11 -48 -14 -68 -3 -66 -179 -34 l-118 21 -78 -20 c-43 -11
-95 -22 -117 -25 -21 -4 -50 -8 -64 -11 -41 -7 -237 -6 -261 1 -21 7 -19 3 13
-41 l37 -49 73 2 73 2 -55 -20 c-30 -11 -68 -22 -85 -25 -84 -14 -97 -18 -102
-30 -5 -15 -79 -39 -147 -49 -21 -3 -49 -8 -62 -11 -22 -6 -103 -90 -171 -180
-19 -24 -39 -44 -46 -44 -30 0 -137 61 -160 91 -80 106 -133 249 -124 333 6
53 32 116 48 116 10 0 101 -48 157 -83 20 -13 54 -27 74 -31 20 -4 96 -25 169
-46 72 -22 153 -42 178 -45 25 -3 56 -8 68 -10 18 -4 24 1 31 27 5 18 9 34 8
34 -1 1 -35 5 -76 8 -57 6 -82 13 -107 32 -18 14 -33 29 -33 34 0 6 70 9 164
9 90 -1 169 2 175 5 6 4 69 7 140 7 l128 -1 -6 32 c-8 38 -32 53 -113 69 l-58
10 -1 42 c-1 23 -3 56 -4 72 -2 17 -3 50 -4 75 l-1 45 -28 -34 c-15 -19 -36
-50 -48 -69 -11 -20 -25 -37 -31 -39 -12 -4 -63 46 -63 62 0 5 -4 17 -10 25
-7 12 -12 11 -29 -9 -23 -26 -102 -53 -121 -41 -11 7 -11 15 1 47 16 40 23 42
87 28 l34 -8 -2 49 c-1 27 -1 55 -1 62 1 14 139 84 152 76 4 -2 13 -29 19 -59
6 -30 13 -55 16 -55 2 0 20 16 39 36 34 35 37 36 89 30 52 -6 56 -5 85 26 17
18 31 36 31 41 0 4 4 7 10 7 5 0 12 -17 17 -37 7 -36 6 -49 -2 -100 -5 -29 4
-29 130 -3 53 11 99 20 101 20 2 0 4 16 4 35 0 40 1 40 -69 19 -30 -8 -57 -12
-61 -7 -13 15 -74 232 -67 239 7 7 122 53 134 54 6 0 31 -35 54 -77z m-311 28
c14 -27 2 -53 -24 -49 -27 4 -33 38 -10 55 23 16 21 17 34 -6z m-1252 -23 c50
-19 52 -21 53 -56 1 -70 19 -103 64 -123 l20 -9 -20 1 c-11 1 -30 1 -43 0
l-22 -1 24 -38 c13 -21 38 -65 55 -99 l31 -62 -63 6 c-34 3 -65 8 -69 11 -3 4
-9 32 -12 62 -10 95 -32 152 -74 192 -35 33 -39 42 -41 93 -2 64 -10 62 97 23z
m1930 -93 c15 -33 15 -70 0 -94 -9 -15 -5 -28 20 -73 18 -31 32 -58 32 -61 0
-15 -73 39 -104 75 -31 38 -33 44 -24 82 20 95 52 124 76 71z m142 -87 c0 -20
18 -4 39 33 25 44 31 43 54 -12 l15 -37 -68 -67 c-37 -37 -70 -63 -73 -59 -3
5 -8 33 -11 62 -3 29 -8 63 -11 75 -2 12 -7 45 -10 72 l-5 50 35 -55 c19 -30
35 -58 35 -62z m-418 -1058 l27 -16 -32 -40 c-18 -21 -39 -46 -48 -55 -45 -45
-105 -157 -93 -173 2 -3 0 -3 -5 1 -15 13 -62 133 -56 143 3 5 19 11 36 15 36
8 37 9 43 110 3 44 5 82 5 83 1 4 50 -24 123 -68z"/>
<path d="M5266 1614 l-18 -72 -49 -14 -49 -13 51 -91 c27 -49 60 -102 72 -118
l22 -27 -3 183 c-3 233 -4 237 -26 152z"/>
</g>
</svg>
