<svg xmlns="http://www.w3.org/2000/svg" viewBox="0, 0, 640, 412"><path d="M616.533 25.403c0 .747-5.013 1.388-11.2 1.494-6.186.107-18.88.748-28.266 1.495-9.387.747-19.84 1.387-23.254 1.387-3.413 0-17.813.961-32 2.135-14.186 1.174-36.373 2.775-49.173 3.522-14.08.747-24.32 2.348-25.6 3.843-3.52 4.056-13.973 8.005-13.973 5.337 0-1.495-4.267-2.028-11.2-1.601-6.187.32-12.587-.214-14.187-1.175-2.027-1.387-2.56-1.174-1.493.534 1.066 1.708-1.6 2.455-9.28 2.455-8.32 0-10.774.747-10.774 3.309 0 2.775 2.134 3.095 12.267 2.348 6.72-.534 26.667-1.494 44.267-2.135 17.6-.64 63.68-3.629 102.4-6.617 91.306-7.045 82.133-7.472 82.133 4.056 0 8.112-.64 9.499-4.8 10.353l-4.8.961 4.8 1.601c2.56.854 4.267 2.455 3.52 3.522-.64 1.067-1.92 1.388-2.88.854-2.133-1.388-4.267 31.273-4.693 71.833-.427 34.369 0 33.302-14.08 32.875-3.84-.107-6.934.213-6.934.853 0 .534-14.506.748-32.32.427-20.586-.427-33.173.214-34.56 1.601-2.24 2.242 13.014 2.776 65.494 2.242l23.253-.214-1.173 4.91c-.747 2.669-1.92 32.555-2.774 66.283-1.173 49.419-2.026 61.373-4.373 61.373-1.6 0-2.88 1.388-2.88 3.202 0 1.708 1.28 3.202 2.773 3.202 2.134 0 2.56 7.579 1.814 35.223-.747 31.381-.427 35.223 2.666 35.223 5.654 0 4.48 10.353-1.386 11.848-2.667.64-50.88-2.775-107.2-7.579l-188.8-16.117c-47.467-4.056-88.64-7.364-91.307-7.364-3.627 0-4.8-1.068-4.267-3.736.747-3.843 20.16-8.753 35.627-8.966l7.147-.107-1.387-10.673-1.387-10.781 8.534 1.388c7.786 1.281 8.64.961 8.64-3.095 0-2.562-.96-4.59-2.027-4.59-1.173 0-1.6 1.494-.853 3.202.746 2.028-.107 3.202-2.454 3.202-2.346 0-3.2-1.174-2.453-3.202.96-2.348-.32-3.202-4.907-3.202-5.973 0-6.293-.427-7.573-12.275-.747-6.724-2.24-17.504-3.307-23.908-2.346-13.769-2.133-13.983 15.787-16.118 13.013-1.494 13.12-1.494 7.893-5.016-2.88-1.921-10.666-7.472-17.28-12.381l-12.053-8.753-1.28-18.252c-1.707-24.229-3.947-27.858-16.213-26.257-5.12.748-14.507 1.281-20.907 1.281-7.147 0-11.093.854-10.24 2.135 1.387 2.241 29.547 1.388 35.733-1.067 2.347-.961 3.734-.534 3.734 1.174 0 1.494 2.453 16.544 5.44 33.621 6.08 34.796 6.506 32.555-6.08 34.049l-9.387.961-3.52-22.948c-1.92-12.702-3.84-23.162-4.053-23.376-.32-.213-7.68-5.657-16.534-12.167-8.746-6.405-18.773-13.556-22.08-15.691l-6.08-3.842 1.494-33.302c.746-18.251 1.813-34.902 2.453-36.93.853-2.989-.32-3.736-6.08-3.843-5.973-.213-6.4-.533-2.773-2.134 3.093-1.388 2.133-1.601-3.52-.748-4.16.641-35.2-1.814-68.8-5.657-33.707-3.735-61.44-6.51-61.76-6.083-.427.533.533 53.688 1.92 118.263 1.493 64.575 2.453 118.37 2.346 119.544-.213 1.174 2.134 2.135 5.014 2.135 6.506 0 66.133-3.63 66.026-4.056-2.133-8.86-7.68-47.605-7.04-48.779.534-.854 4.054-1.601 7.787-1.601 12.587-.106 12.907-1.174 8.427-26.043l-4.054-22.308 21.76-30.313 21.867-30.313 6.08 5.55c5.653 5.23 5.76 5.551 1.28 4.483-5.547-1.174-5.76-.213-2.667 19.96 3.627 23.695 3.2 22.735 11.734 21.774 23.466-2.775 41.066 18.038 33.066 38.958-2.026 5.337-1.92 5.444 8.214 5.444h10.346l3.734 25.51 3.733 25.51-20.907 27.964c-23.573 31.274-22.186 31.167-26.56 1.495-3.306-22.308-2.24-21.454-21.12-18.252-8.32 1.281-15.68 1.814-16.426 1.067-1.174-1.067-9.174-43.761-9.28-48.991 0-1.388-14.507.106-16.534 1.601-.213.213.96 8.965 2.667 19.425 1.813 10.567 3.733 22.095 4.267 25.724.853 5.016 3.946 8.539 12.8 14.623 6.506 4.483 11.733 8.965 11.733 9.926 0 1.067 1.067 1.921 2.453 1.921 3.627 0 31.04 20.92 32.534 24.87 1.066 2.668 3.413.533 9.813-8.432 8.96-12.488 15.68-15.797 27.2-13.449 10.24 2.135 47.04 5.23 203.2 17.291 83.947 6.404 160 12.381 169.067 13.129l16.533 1.387v-12.595c0-6.938 1.92-81.759 4.267-166.294 2.346-84.535 4.266-163.519 4.266-175.474v-21.667l-6.4.107c-3.52.107-6.4.747-6.4 1.494zm-529.066 90.085c0 2.242-4.267 2.348-15.467.534-4.373-.747-7.573-1.921-7.147-2.669 1.28-2.028 22.614 0 22.614 2.135zm16 1.921c1.706 2.775-7.467 2.775-11.734 0-2.453-1.601-1.6-2.028 3.627-2.134 3.733 0 7.36.96 8.107 2.134zm-26.027 8.432c2.133 0 3.307 1.068 2.453 2.349-.96 1.707-12.906 1.707-19.626 0-4.267-1.068 1.386-4.056 6.4-3.416 3.84.427 8.64.961 10.773 1.067zm-7.04 15.05c0 1.174-2.88 2.135-6.4 2.135-3.52 0-6.4-.961-6.4-2.135s2.88-2.135 6.4-2.135c3.52 0 6.4.961 6.4 2.135zm54.933 2.028c.32 0 .534 1.494.534 3.309 0 3.309 9.066 6.618 12.48 4.483 3.093-1.921 8.853.854 8.853 4.269 0 1.601-1.387 2.989-3.2 2.989-1.707 0-3.2-.747-3.2-1.601s-5.973-1.708-13.333-1.815c-24.96-.427-27.627-.747-26.56-3.522.533-1.494 2.026-2.455 3.413-2.135 2.88.641 3.093-2.988.213-4.803-1.173-.747-2.133-.427-2.133.534 0 2.241-20.48 0-22.933-2.562-1.174-1.174 40.64-.427 45.866.854zm-26.24 7.151c-.853 2.028-4.16 2.455-12.693 1.495-16.747-1.815-16.96-4.27-.427-4.27 10.774 0 13.867.641 13.12 2.775zm54.294 14.837c-.214 5.016-.747 7.471-1.28 5.443-.534-2.134-2.24-3.095-3.947-2.455-2.24.854-2.773.214-1.813-2.241.746-1.815 2.133-3.416 3.2-3.416 1.066 0 1.92-1.494 1.92-3.202 0-1.814.533-3.202 1.066-3.202.64 0 .96 4.056.854 9.073zm-54.614-3.416c2.347.641 3.414 2.348 2.774 4.163-.854 2.348 1.173 2.988 9.28 2.988 5.76 0 11.2 1.068 11.946 2.242 1.814 2.989-.96 5.764-2.88 2.989-.853-1.068-6.293-2.028-12.16-2.028-8 0-10.666-.854-10.88-3.203-.426-6.51-.853-7.471-2.453-5.23-1.92 2.669-24 1.388-24-1.387 0-2.028 21.76-2.348 28.373-.534zm-8.64 7.045c5.547.213 4.48 4.162-1.066 4.056-9.707-.107-18.667-2.028-18.667-4.056 0-1.174 3.52-1.708 8-1.174 4.373.533 9.707 1.067 11.733 1.174zm-23.253 4.376c4.693.107 12.693 4.056 8.853 4.483-12.16 1.387-18.56-.747-16.746-5.657.96-2.348 1.92-2.882 2.346-1.388.534 1.388 2.987 2.562 5.547 2.562zm52.267 3.522c14.293 1.068 19.52 2.135 19.52 4.27 0 1.601-1.387 2.881-3.2 2.881-1.707 0-3.2-.747-3.2-1.601 0-.853-4.267-1.28-9.6-.853-5.974.427-9.6-.107-9.6-1.601 0-1.281-1.067-2.349-2.24-2.349-1.28 0-1.6 1.068-.747 2.455.853 1.388.533 1.922-.533 1.174-1.174-.64-7.04-1.494-13.12-1.707-6.08-.321-11.094-1.388-11.094-2.349 0-2.028 8-2.134 33.814-.32zm-47.68 13.556c-.747 1.174-3.627 2.134-6.4 2.134-2.774 0-5.654-.96-6.4-2.134-.747-1.281 1.813-2.135 6.4-2.135 4.586 0 7.146.854 6.4 2.135zm32.426.747c2.667 2.775-.853 3.415-11.733 2.135-14.4-1.708-14.72-5.871-.427-4.483 5.974.533 11.414 1.601 12.16 2.348zm17.707 1.601c0 1.067-3.307 1.921-7.467 1.921-6.72 0-9.28-1.814-6.4-4.59 1.707-1.707 13.867.641 13.867 2.669zm-50.347 3.736c.64.96-2.666 1.921-7.253 2.134-4.587.107-8.853-.64-9.6-1.814-.747-1.281 2.133-2.135 7.253-2.135 4.694 0 8.96.854 9.6 1.815zm26.347 1.174c2.773 2.775-1.6 3.522-12.053 2.134-5.974-.747-10.88-2.134-10.88-3.095 0-1.814 21.013-.961 22.933.961zm31.253 6.938c6.72.96 7.68 1.707 4.8 3.202-1.92 1.174-4.373 1.601-5.333.96-.96-.533-9.067-1.281-18.027-1.601-9.066-.32-16.426-1.281-16.426-2.135 0-1.814 23.04-2.134 34.986-.426zm-16.96 7.044c.747 1.174-9.173 2.028-25.493 2.135-14.613 0-26.667-.854-26.667-1.921 0-2.562 50.56-2.882 52.16-.214zm-18.026 6.511c0 1.174-4.8 2.135-10.667 2.135s-10.667-.961-10.667-2.135 4.8-2.135 10.667-2.135 10.667.961 10.667 2.135zm38.4.854c0 .534-3.414 2.988-7.467 5.55-10.453 6.511-14.613 15.37-13.227 27.858 1.494 12.061-.106 19.106-4.053 19.106-2.24 0-2.987 3.309-2.987 12.808 0 12.168-.213 12.808-5.866 13.983-12.16 2.668-12.48 3.202-4.8 7.898 7.68 4.803 10.56 7.685 10.666 10.887 0 2.775-4.48.534-16.426-8.325l-10.774-8.006 12.587-17.184c6.827-9.393 12.48-18.145 12.48-19.533 0-2.561-3.627-24.335-5.44-32.554-.64-3.202-2.56-4.803-5.653-4.803-8 0-2.454-2.455 8-3.522 5.546-.641 12.053-1.922 14.613-2.882 4.587-1.922 18.347-2.775 18.347-1.281zm-54.187 6.191c.853.853-2.88 1.494-8.427 1.494-5.44 0-9.92-.961-9.92-2.135 0-2.348 16-1.814 18.347.641zm7.253 8.111c0 1.068-4.266 1.922-9.6 1.922-9.386 0-13.333-3.202-5.866-4.697 5.653-1.174 15.466.641 15.466 2.775zm-18.026 5.017c4.053 3.095 4.053 3.202-.747 3.202-2.667.107-5.547 1.815-6.4 3.843-1.92 4.696-6.827 5.87-6.827 1.601 0-1.815 1.494-3.202 3.2-3.202 1.814 0 3.2-1.922 3.2-4.27 0-5.123 2.027-5.337 7.574-1.174zm15.893 28.925c0 1.174-5.227 2.135-11.733 2.135-6.4 0-11.734-.961-11.734-2.135s5.334-2.134 11.734-2.134c6.506 0 11.733.96 11.733 2.134zm-12.053 6.618c3.946.107 3.733.427-1.387 2.348-7.36 2.669-20.16.107-13.227-2.668 2.347-.961 5.547-1.281 7.147-.854 1.493.534 4.907 1.067 7.467 1.174zm5.653 8.325c-4.267 2.776-17.067 2.776-17.067 0 0-1.174 4.587-2.134 10.134-2.134 7.36.106 9.28.64 6.933 2.134zm3.627 29.78c.64 2.241 3.093 4.589 5.653 5.016 3.093.641 2.24.961-2.347 1.174-4.48.214-6.72-.64-6.4-2.348.32-1.708-2.24-2.668-7.466-2.668-5.014 0-8-.961-8-2.669 0-4.803 17.28-3.415 18.56 1.495zm-8.96 6.511c-5.974 2.561-16 2.561-16 0 0-1.175 4.586-2.028 10.133-2.028 7.573.106 9.067.64 5.867 2.028zm9.6 6.404c0 1.174-4.267 2.134-9.6 2.134-5.227 0-9.6-.96-9.6-2.134s4.373-2.135 9.6-2.135c5.333 0 9.6.961 9.6 2.135zm217.6-277.407c-11.094.961-34.88 2.882-52.694 4.27-17.92 1.494-32 3.415-31.36 4.483.64 1.067 1.814 1.494 2.56 1.067.854-.534 12.587-1.601 26.027-2.348 13.547-.854 28.373-1.815 33.067-2.348 4.693-.427 15.253-1.281 23.466-2.028 8.214-.641 19.84-1.708 25.814-2.348 8.32-.854 11.2-.427 12.053 1.814.64 1.708.107 3.095-1.28 3.095-75.733 2.989-117.973 6.298-122.987 9.5-3.093 2.028 13.44 1.601 61.12-1.708 18.56-1.281 19.52-1.174 20.907 3.202 1.92 6.191 5.12 5.871 3.947-.32-.96-4.91 25.28-8.966 69.546-10.78 4.054-.214 7.68-1.495 8.214-2.989.64-2.028-2.56-2.455-13.12-1.708-7.894.427-14.08 0-14.08-1.174 0-1.067-1.067-1.921-2.24-1.921-1.28 0-1.707.961-.96 2.135.746 1.174-.214 2.134-2.134 2.134s-2.88-.96-2.133-2.134c1.493-2.455-13.12-2.455-43.733.106zm265.6 2.349c-9.387.747-35.734 2.561-58.667 3.949-22.827 1.494-45.44 3.415-50.133 4.483-13.44 2.775 104.64-3.843 152.533-8.646l18.133-1.921-22.4.427c-12.266.213-30.08.961-39.466 1.708zm-154.667 5.336c-47.04 3.736-65.28 4.804-80.533 4.91-8 .107-13.334 1.068-13.334 2.455 0 2.028 41.92 1.174 65.067-1.281 3.52-.427 19.627-1.387 35.84-2.241 26.56-1.388 35.947-3.309 28.693-5.657-1.493-.427-17.493.32-35.733 1.814zm-223.573 3.309c-1.387 1.388-2.56 5.124-2.56 8.219 0 19.639-2.134 24.656-10.347 24.122l-7.787-.533 8.534 1.814c10.453 2.135 11.626.64 11.733-14.089 0-9.286.64-11.101 4.48-12.061 3.2-.854 4.053-.32 3.2 1.814-.853 2.348.747 3.096 6.293 3.096 4.054 0 7.36-.854 7.36-1.922 0-1.067-2.346-1.707-5.333-1.387-2.88.32-5.333-.214-5.333-1.281 0-.961 2.986-1.815 6.613-1.815 4.907 0 6.293-.853 5.44-3.095-.64-1.601 0-3.522 1.387-4.056 1.386-.534-2.774-1.174-9.28-1.174-6.614-.107-13.014.961-14.4 2.348zm377.706 1.174c4.374.427 11.627.427 16 0 4.374-.533.854-.854-8-.854-8.746 0-12.373.321-8 .854zm-33.066 2.028c3.733.534 10.453.534 14.933.107 4.373-.534 1.28-.854-6.933-.854-8.214-.107-11.84.32-8 .747zm-36.16 2.242c5.013.427 12.693.427 17.066 0 4.267-.534.214-.854-9.173-.854s-13.013.32-7.893.854zm-32.107 2.028c3.84.533 9.6.533 12.8 0 3.2-.427.107-.854-6.933-.854s-9.707.427-5.867.854zm-177.28 28.925c-.853 15.584-2.88 55.609-4.587 89.124-3.733 72.901-3.733 73.968-1.28 71.407 1.067-1.068 2.56-13.556 3.2-27.645 4.48-89.871 7.467-143.773 8.534-153.166.64-5.55.106-8.005-1.814-8.005-1.92 0-3.093 7.685-4.053 28.285zm-276.587-19.319c0 6.297.107 6.404 10.667 5.657 5.867-.427 10.667 0 10.667.854s3.093 1.494 6.933 1.387c3.84 0 5.76-.64 4.267-1.174-6.187-2.561-2.774-7.685 4.266-6.404 16 2.882 94.294 12.168 97.387 11.528 3.2-.534-88.64-13.236-112.107-15.37-10.453-1.068-10.986-.854-10.026 3.735.853 4.59.853 4.59-1.174.214-3.413-7.792-10.88-8.112-10.88-.427zm217.28-3.629c-.533.534-7.893 1.067-16.32 1.281-11.52.213-15.36 1.067-15.36 3.309 0 1.921 1.6 2.561 4.8 1.921 4.054-.961 20.907-2.669 30.934-3.202 3.626-.107 3.413-4.376-.214-4.376-1.493 0-3.306.427-3.84 1.067zm172.587 2.241c-.32.214-10.133.961-21.867 1.708-11.733.641-21.653 1.281-21.973 1.281-.427.107-.107.961.533 2.135 1.174 1.814 8.427 1.601 38.507-.961 5.867-.427 13.333-.961 16.533-.961 3.2-.106 5.867-1.067 5.867-2.241 0-1.708-15.68-2.562-17.6-.961zm-91.2 3.096c0 1.174-1.387 2.134-3.2 2.134-1.707 0-3.2.961-3.2 2.242 0 1.174 2.667 1.708 5.867 1.174s6.613-.961 7.466-1.067c3.734-.427 1.28-6.618-2.666-6.618-2.347 0-4.267.961-4.267 2.135zm20.8 1.494c-2.027.534-3.733 1.921-3.733 3.202 0 1.174 1.493 1.601 3.413.854 1.813-.747 8.107-1.281 13.867-1.281 5.76 0 10.453-.96 10.453-2.135 0-2.134-16.747-2.561-24-.64zm-126.827 7.258c-.426 5.23.214 6.297 2.774 5.337 1.813-.747 8.533-1.281 14.933-1.281 6.507 0 11.52-.961 11.52-2.241 0-1.388-4.8-1.601-13.76-.748-13.227 1.388-13.653 1.281-12.48-3.095.64-2.562.32-4.59-.747-4.59-.96 0-2.026 2.989-2.24 6.618zm8.96-4.483c-2.986 1.281-.106 1.815 9.067 1.708 7.36 0 13.867-.854 14.507-1.921 1.493-2.455-17.814-2.242-23.574.213zm-163.733 2.348c1.813 1.495 40.32 6.298 47.893 5.978 8-.427-10.453-3.843-30.826-5.657-10.24-.961-17.92-1.068-17.067-.321zm292.8 1.601c0 .961 3.84 1.815 8.533 1.815 4.694 0 8.534-.854 8.534-1.815 0-.96-3.84-1.814-8.534-1.814-4.693 0-8.533.854-8.533 1.814zm-330.987 1.281c-1.28 1.388-.96 35.757 2.134 200.663l1.386 76.743 19.2-.106c10.56-.107 27.414-1.281 37.334-2.669 10.026-1.387 24.426-2.668 32-2.988l13.866-.427 1.92 10.14c2.24 11.314 3.307 11.741 18.347 7.151 22.293-6.938 24.213-10.033 5.227-8.539-18.347 1.494-22.294-.961-22.294-14.196 0-2.241-.96-4.162-2.133-4.162s-2.133 1.707-2.133 3.735c-.107 3.202-.32 3.309-2.134.534-1.386-2.135-2.026-2.348-2.133-.534 0 2.882-7.68 3.736-9.28.961-1.387-2.135-22.72-.961-25.707 1.494-4.48 3.629-16.213 5.017-16.213 2.028-.107-2.134-.64-2.028-2.133.32-1.387 2.135-2.027 2.349-2.134.534 0-1.494-1.92-2.668-4.266-2.668-2.347 0-4.267 1.174-4.267 2.668-.107 1.815-.747 1.601-2.133-.534-1.174-1.814-2.134-2.241-2.134-.96 0 2.775-11.2 2.775-13.333-.107-.853-1.174-1.6-.534-1.6 1.601 0 2.562-1.707 3.736-5.333 3.736-6.614 0-7.04-3.629-.534-4.91l4.8-.961-4.8-.213c-4.586-.32-4.8-1.174-4.906-17.932-.107-9.713-.534-21.454-.854-26.15-.426-4.696-1.386-53.368-2.133-108.123l-1.493-99.691 5.013-.961c4.693-.854 4.693-.961.213-1.174-3.733-.214-4.8-1.815-5.333-8.005-.32-4.163-1.28-7.045-2.027-6.298zm375.787.641c-23.147 1.067-24.32 4.803-1.493 4.803 15.04 0 18.56-.641 18.56-3.202 0-1.815-.214-2.989-.534-2.775-.32.213-7.68.747-16.533 1.174zm21.333.32c0 2.562 7.574 4.376 12.8 2.988 7.254-1.921 4.694-4.909-4.266-4.909-4.694 0-8.534.853-8.534 1.921zm-366.933 2.135c0 2.561 4.8 3.842 15.787 4.269 4.586.213 9.066.854 10.026 1.388.854.533 2.24.106 2.88-1.068.747-1.067-2.346-2.561-6.72-3.309-4.48-.64-11.2-1.707-15.04-2.348-3.84-.533-6.933-.107-6.933 1.068zm110.187-.534c-2.134 2.241-1.707 7.578.533 6.191 1.067-.641 2.453 0 3.093 1.494.534 1.494 1.174.534 1.174-2.028.106-2.455 1.92-5.017 3.946-5.55 2.454-.641 1.814-1.068-1.813-1.281-2.987-.107-6.08.427-6.933 1.174zm190.613 2.882c0 1.174 3.84 2.134 8.533 2.134 4.694 0 8.534-.96 8.534-2.134s-3.84-2.135-8.534-2.135c-4.693 0-8.533.961-8.533 2.135zm-264.427 2.028c-2.24 1.387-1.173 2.241 4.267 2.988 42.773 6.404 42.56 6.404 42.56 3.843 0-1.068-8.64-2.989-19.093-4.376-10.56-1.281-20.374-2.882-21.867-3.416-1.493-.534-4.16-.107-5.867.961zm80.96-.32c0 3.095 5.547 4.696 15.894 4.696 6.613 0 9.6.961 10.56 3.522 1.92 4.91 3.2 4.91-29.12.961-16.107-2.028-29.334-2.882-29.334-1.921 0 .96 1.174 1.707 2.667 1.814 1.493 0 13.227 1.388 26.027 2.989 12.906 1.601 30.4 2.348 38.933 1.707 11.2-.853 15.573-.427 15.573 1.388 0 1.708 4.907 2.348 16 2.135 8.854-.214 16-1.281 16-2.348 0-1.068-5.333-1.602-11.84-1.175-9.706.641-11.626.214-11.093-2.561.32-1.815 2.987-3.523 5.867-3.736l5.333-.427-5.333 1.815c-6.507 2.241 33.706 2.881 50.666.853 9.174-1.067 11.2-2.028 11.2-5.443 0-3.416-1.066-3.949-5.866-2.989-3.2.534-19.734 1.495-36.8 2.135-17.814.534-26.88.214-21.334-.747l9.6-1.601-11.413-.32c-8.533-.214-11.2.32-10.347 2.455.747 2.028-2.24 2.881-11.52 3.202-7.146.32-12.586-.321-12.586-1.601 0-1.068-3.627-2.669-8-3.309-4.374-.747-10.667-1.815-13.867-2.455-3.2-.641-5.867-.107-5.867.961zm231.467 6.297c-3.52.534-7.147 2.028-8 3.415-1.067 1.815-1.493 1.708-1.6-.213 0-3.202-11.947-3.629-13.867-.534-.853 1.388 1.067 2.242 4.694 2.135h10.24c14.826.427 24.64-.534 25.813-2.455.96-1.494 2.027-1.281 3.2.641 1.493 2.241 1.813 2.028 1.92-.854 0-3.843-6.613-4.483-22.4-2.135zm-80 4.803c0 1.174 1.173 2.135 2.667 2.135 1.813.106 1.6.747-.534 2.348-2.453 1.708-2.56 2.562-.533 3.309 8.107 3.309.427 18.465-8.32 16.224-2.133-.534-3.947.106-3.947 1.387s2.667 2.242 5.974 1.921c3.2-.213 6.826.214 8.106.961 1.387.854 2.347-4.269 2.667-14.516.427-13.129-.107-15.904-2.773-15.904-1.814 0-3.307.961-3.307 2.135zm29.867 0c0 1.174 2.88 2.135 6.4 2.135 3.52 0 6.4-.961 6.4-2.135s-2.88-2.135-6.4-2.135c-3.52 0-6.4.961-6.4 2.135zm13.333 3.736c-5.013.427-9.067 1.601-9.067 2.668 0 1.068 2.667 1.601 5.867 1.174 3.2-.427 8-.747 10.667-.96 2.666-.107 4.8-1.174 4.8-2.349 0-1.174-.747-1.921-1.6-1.814-.854.213-5.654.747-10.667 1.281zm16.747.854c-.32 4.589-4.587 6.084-17.494 6.084-6.293 0-10.453.96-10.453 2.348 0 1.387 1.92 1.921 4.267 1.281 2.346-.641 4.266-.214 4.266.854 0 1.067-2.346 1.921-5.333 1.921-2.88 0-5.333.854-5.333 2.028 0 1.067 3.093 1.814 6.826 1.601 10.347-.641 10.987 6.297.747 8.218-10.027 1.922-9.707 4.483.747 4.377 8.106 0 8.213-.107 8.106-8.112-.106-4.483-.96-8.112-2.026-8.112-1.067 0-1.28-.961-.534-2.135.747-1.281 13.227-2.135 30.08-2.135 21.44 0 28.48-.64 27.307-2.455-1.067-1.707-.427-2.134 2.133-1.174 2.134.854 3.094.641 2.347-.64-.747-1.174-3.947-1.708-7.04-1.174-19.093 3.095-36.16 1.921-37.333-2.562-.854-3.202-1.067-3.202-1.28-.213zm86.293 1.707c-.853 1.281 0 2.776 1.707 3.416 4.8 1.921 19.52.107 19.52-2.241 0-2.882-19.52-3.95-21.227-1.175zm-153.387 3.309c.64 1.708.107 3.202-1.173 3.202s-2.347 1.922-2.347 4.27c0 2.882 1.387 4.269 4.48 4.269 3.84 0 4.16-.533 1.92-3.202-2.24-2.668-2.026-3.202 1.067-3.202 2.88 0 3.2-.64 1.387-2.882-1.387-1.601-1.814-3.522-.96-4.269.746-.747-.214-1.388-2.134-1.388-2.24 0-3.093 1.174-2.24 3.202zm118.08-1.387c0 2.134 24.747 1.921 26.987-.321.747-.853-4.907-1.494-12.8-1.494-7.787 0-14.187.854-14.187 1.815zm-196.906 2.028c-9.067.32-16.107 1.387-15.467 2.348.96 1.601 31.147.64 32.96-1.067 1.813-1.708-1.173-1.922-17.493-1.281zm-15.254 8.859c-.746 1.067 3.84 1.921 10.454 1.921 6.506 0 12.373-.854 13.013-1.921.64-1.174-3.84-2.028-10.56-2.028-6.4 0-12.267.854-12.907 2.028zm47.574 3.202c-.427.533-8.214 1.067-17.174 1.387-30.293.748-34.346 3.523-5.44 3.629 14.934.107 27.2-.64 27.2-1.707 0-2.242-3.306-4.59-4.586-3.309zm140.693 4.376c-.64.64-8 1.281-16.32 1.281-10.027.107-15.253 1.067-15.253 2.668 0 1.708 5.12 2.242 17.066 1.708 13.014-.427 17.067-1.388 17.067-3.736 0-3.202-.747-3.736-2.56-1.921zm11.093.854c0 2.988 7.894 4.163 15.894 2.348 4.16-.961 7.786-.747 8.426.32.534 1.068.747.747.427-.854-.64-2.988-24.747-4.803-24.747-1.814zm28.8.213c-.746 1.174 1.28 2.242 4.694 2.349 3.306 0 7.68.426 9.706.853 2.134.427 3.734-.64 3.734-2.348 0-3.522-16-4.269-18.134-.854zm-224.533 3.629c-2.667.534-4.8 1.922-4.8 3.202 0 1.281 2.027 1.601 4.8.961 2.667-.747 11.307-1.388 19.2-1.388 7.893 0 14.4-.853 14.4-1.814 0-1.921-24.96-2.668-33.6-.961zm-13.333 16.331c.106 5.123 3.626 8.432 5.013 4.803.64-1.921 3.733-3.416 6.613-3.416 2.987 0 5.44-.853 5.44-2.027 0-1.068-3.84-1.922-8.533-1.815-4.907 0-8.533 1.067-8.533 2.455zm365.866.534c-2.346.32-30.613 1.174-62.933 1.814-32.213.641-74.987 1.708-94.933 2.348-19.947.747-45.334 1.388-56.534 1.601-11.84.321-20.266 1.281-20.266 2.562 0 1.174 1.706 2.028 3.733 1.921 4.267-.106 5.013 2.562 1.067 4.163-1.707.64-1.28 1.067.853 1.174 2.027.107 4.053-.961 4.693-2.455.534-1.494 1.174-.64 1.174 1.921.106 2.562-.96 5.124-2.454 5.764-1.493.534 8.64 1.174 22.4 1.174 13.76.107 25.067-.64 25.067-1.708 0-1.067-9.707-1.494-21.653-1.067-19.094.854-21.334.534-18.88-2.348 1.813-2.135 1.92-3.202.213-3.202-1.28 0-2.347-.854-2.347-1.921 0-.961 20.374-2.135 45.334-2.349 55.68-.64 52.8-.533 52.8-2.882 0-1.067 1.386-.747 2.986.534 2.134 1.815 13.547 2.135 40 1.281 20.374-.64 55.467-1.601 78.08-2.028 22.72-.534 42.347-1.708 43.734-2.668 1.493-.854 4.48-1.281 6.613-.961 2.453.427 3.413-.213 2.56-1.601-1.28-2.135-39.68-2.882-51.307-1.067zm-359.466 7.151c0 2.135 14.186 1.601 16.426-.641.747-.747-2.666-1.387-7.573-1.387-4.8 0-8.853.961-8.853 2.028zm102.4-.107c0 1.068 1.173 2.455 2.666 3.096 2.134.853 2.134 1.067 0 1.174-3.733.32-3.306 3.735.534 5.23 2.453.96 3.2-.321 3.2-5.124 0-4.162-1.067-6.297-3.2-6.297-1.707 0-3.2.854-3.2 1.921zm-102.4 6.618c0 1.174 4.8 2.134 10.666 2.134 5.867 0 10.667-.96 10.667-2.134s-4.8-2.135-10.667-2.135c-5.866 0-10.666.961-10.666 2.135zm146.453.533c-1.28.854 6.933 1.601 18.347 1.601 11.413 0 20.8-.853 20.8-1.921 0-2.348-35.414-2.028-39.147.32zm111.147 3.096c-9.707 1.494-6.614 4.056 5.333 4.376 10.24.213 10.88 0 7.04-2.775-2.24-1.708-4.693-2.989-5.333-2.775-.64.213-3.84.747-7.04 1.174zm25.6.107c-10.987 1.067-7.894 4.803 4.053 4.803 6.507 0 9.387-.854 8.747-2.562-.96-3.095-2.56-3.309-12.8-2.241zm18.133-.214c-6.72 2.775-1.493 5.017 10.133 4.483 12.694-.534 15.894-2.135 9.387-4.59-3.947-1.494-15.68-1.387-19.52.107zm-307.733 3.736c0 1.708-.534 4.589-1.28 6.404-.854 2.135-.107 3.415 1.813 3.415s3.2-2.348 3.307-6.404c.106-3.522-.747-6.404-1.814-6.404-1.173 0-2.026 1.388-2.026 2.989zm189.866-.854c0 1.174 4.374 2.135 9.6 2.135 5.334 0 9.6-.961 9.6-2.135s-4.266-2.135-9.6-2.135c-5.226 0-9.6.961-9.6 2.135zm32 0c0 1.174 2.347 2.135 5.227 2.135 2.88 0 5.76-.961 6.507-2.135.746-1.281-1.387-2.135-5.227-2.135-3.52 0-6.507.961-6.507 2.135zm-123.733 1.921c0 1.068 1.173 2.455 2.667 3.095 2.133.854 2.133 1.068 0 1.175-3.84.32-3.307 8.752.533 8.752 1.813 0 3.307-1.174 3.413-2.668l.64-7.472c.427-3.416-.533-4.803-3.306-4.803-2.24 0-3.947.854-3.947 1.921zm51.2 4.483c-2.347 1.494-.427 2.028 6.933 2.135 5.547 0 10.134-.961 10.134-2.135 0-2.775-12.8-2.775-17.067 0zm20.053.32c-.96 1.601 26.987 3.309 34.88 2.242 2.667-.427 4.8-1.601 4.8-2.669 0-2.241-38.293-1.814-39.68.427zm109.014 3.629c-.427.427-15.254.747-32.854.641-18.346-.107-32.64.747-33.386 1.921-1.174 1.921 6.72 2.135 72.64 2.135 40 0 39.466.106 39.466-2.882 0-2.135-2.346-2.562-9.066-1.601-5.014.64-15.147.64-22.507 0-7.36-.534-13.867-.747-14.293-.214zm58.666 1.174c0 3.523 8 5.978 9.92 2.989 1.387-2.348-2.88-5.87-7.253-5.977-1.493 0-2.667 1.281-2.667 2.988zm-225.706 3.096c-.32 4.269-1.28 4.696-6.507 3.629-5.333-1.174-6.293-.641-7.253 3.949-.747 4.163 0 5.55 3.52 6.191 4.266.854 4.266.96-.32 1.174-2.667.213-4.8 1.174-4.8 2.348 0 1.067 2.133 2.348 4.8 2.882l4.8.96-4.8.214c-2.667.213-4.8 1.174-4.8 2.348 0 1.067 2.133 2.348 4.8 2.882l4.8.961-4.8.213c-6.614.427-6.08 4.59.533 4.59 4.48 0 5.333-.961 5.333-6.404 0-3.523.96-6.405 2.134-6.405 1.173 0 2.133 3.309 2.133 7.472 0 4.056-.853 7.471-1.813 7.471-1.067 0-1.92 2.349-1.92 5.337 0 2.882.746 5.337 1.706 5.337 2.774 0 4.48-16.544 3.627-34.155-.427-8.86-.96-13.769-1.173-10.994zm-.427 12.061c0 2.882-.96 5.337-2.133 5.337-1.174 0-2.134-.854-2.134-1.922 0-1.067-.533-3.522-1.28-5.336-.853-2.242-.106-3.416 2.134-3.416 2.24 0 3.413 1.815 3.413 5.337zm34.133-13.342c0 .854 8.214 1.601 18.134 1.601 10.026 0 18.133-.854 18.133-1.815 0-.96-8.107-1.707-18.133-1.601-9.92.107-18.134.961-18.134 1.815zm-132.266 1.601c0 1.174 2.773 2.135 6.293 2.135 3.413 0 6.827-.961 7.573-2.135.747-1.281-1.706-2.135-6.293-2.135-4.16 0-7.573.961-7.573 2.135zm125.866 7.365c0 5.336.32 5.443 14.72 5.443 8.107 0 16.32.534 18.134 1.281 2.24.854 3.413.107 3.413-2.241 0-2.882-2.133-3.416-12.267-3.096-17.706.534-22.293 0-20.906-2.241.64-1.068.32-2.562-.96-3.309-1.174-.747-2.134.961-2.134 4.163zm-131.626-.534c-2.134.747 3.626 1.494 12.8 1.601 10.24 0 16.213-.64 15.36-1.921-1.387-2.348-22.08-2.028-28.16.32zm130.453 16.864c-.64 1.068 6.187 2.028 15.467 2.135 9.173.107 25.493.534 36.373.747 11.947.32 19.733-.213 19.733-1.494 0-1.174 1.494-.961 3.2.534 3.52 2.988 6.614 1.601 4.48-1.815-1.706-2.668-77.653-2.775-79.253-.107zm82.88.534c1.067 3.309 11.627 3.842 12.8.747.64-1.601-1.707-2.668-6.293-2.775-4.48-.214-7.04.64-6.507 2.028zm26.56-1.388c-9.707 1.495-6.613 4.056 5.333 4.377 10.24.213 10.88 0 7.04-2.776-2.24-1.707-4.693-2.988-5.333-2.775-.64.214-3.84.747-7.04 1.174zm25.6.214c-4.48.427-7.573 1.601-6.827 2.668 1.707 2.775 54.294 2.669 54.294-.106 0-1.175-1.174-2.242-2.667-2.349-6.72-.64-37.653-.747-44.8-.213zm-140.267 7.792c0 1.814-1.386 3.308-3.2 3.308-1.706 0-3.2 1.388-3.2 3.202 0 1.708-.96 3.203-2.133 3.203s-2.133 1.387-2.133 3.202c0 1.707 1.493 3.202 3.2 3.202 1.813 0 3.2-1.495 3.2-3.202 0-1.815 1.28-3.202 2.986-3.202 3.307 0 5.974-10.14 3.094-11.955-.96-.64-1.814.427-1.814 2.242zm-172.8 24.442c-8 1.067-9.493 2.028-9.066 5.55 1.493 12.382 13.226 82.827 13.866 83.468 1.6 1.494 38.72-5.871 44.48-8.859 17.6-9.073 16.107-41.521-1.92-41.521-6.4 0-6.72-2.028-1.28-7.471 3.627-3.736 5.12-7.578 5.12-13.556 0-17.397-14.826-22.414-51.2-17.611zm33.707 9.926c12.16 8.539 3.84 22.735-14.933 25.51l-9.707 1.495-1.387-8.219c-.746-4.483-1.92-10.78-2.56-13.982-1.493-7.685 19.307-11.208 28.587-4.804zm11.627 39.599c10.666 12.809-2.88 27.432-25.387 27.538-4.16 0-9.28-16.01-9.28-29.352 0-6.191 29.333-4.59 34.667 1.814zm114.666-49.311c0 1.174 5.547 2.241 12.267 2.348 6.72.106 14.933.533 18.133 1.067 3.627.64 5.867 0 5.867-1.494 0-1.815.747-1.815 2.773-.107 2.134 1.708 3.52 1.708 5.334-.107 2.026-2.028 2.56-1.921 2.56 0 0 1.388 1.493 2.562 3.413 2.562 1.813 0 2.987-1.174 2.453-2.668-1.066-3.309-52.8-4.91-52.8-1.601zm-13.226 6.831c3.413 3.415 3.306 13.875-.107 15.156-1.493.534-1.92 1.708-.96 2.775 2.667 2.882 5.653-3.736 5.76-12.488 0-6.084-.853-8.005-3.627-8.005-2.773 0-3.093.534-1.066 2.562zm-12.374 5.87c0 1.067 2.134 2.348 4.8 2.882l4.8.961-4.8.213c-5.12.32-6.826 4.59-1.813 4.59 3.84 0 8.427-5.657 6.72-8.432-1.707-2.776-9.707-2.989-9.707-.214zm29.867 12.915c0 1.174 5.227 2.135 11.627 2.135s12.16.96 12.906 2.135c.854 1.28-2.133 1.601-8.106.747-5.654-.747-10.027-.321-10.774.96-.853 1.388 2.987 2.455 10.347 2.882 12.8.854 18.133-6.617 6.933-9.606-7.68-2.135-22.933-1.601-22.933.747zm37.013 1.494c.96.961 4.8 1.815 8.534 2.028 3.626.214 12.266.854 19.093 1.495 9.173.854 12.267.533 11.627-1.388-.64-1.708-7.574-2.775-20.907-3.202-10.987-.32-19.2.107-18.347 1.067zm41.92.321c0 1.921 6.934 4.483 12.267 4.589 6.507 0 2.027-5.55-4.8-6.084-4.053-.213-7.467.427-7.467 1.495zm-125.013 9.499c-7.68 10.247-12.267 18.572-10.347 18.572 4.374 0 9.494-5.337 11.734-12.274 2.346-6.832 2.88-7.365 4.373-3.736 1.067 2.775 1.707 3.202 1.813 1.067.107-1.814.747-5.337 1.494-8.005 1.92-7.365-1.707-5.657-9.067 4.376zm82.347-3.095c0 1.174 6.293 2.455 13.866 2.775 8.64.427 13.654-.107 13.12-1.388-.853-2.775-26.986-4.056-26.986-1.387zm-65.707 6.19c.107 2.028-.533 5.444-1.387 7.472-1.28 2.882-.64 3.736 2.987 3.736 2.56 0 4.053-.854 3.413-1.922-.64-1.067-.213-4.482.854-7.471 1.813-4.803 1.6-5.55-1.92-5.55-2.56 0-4.054 1.387-3.947 3.735zm12.373 1.388c0 2.882-1.173 5.764-2.666 6.404-2.134 1.067-2.134 1.494 0 2.562 3.946 1.814 3.52 15.797-.534 15.797-1.706 0-3.2 1.387-3.2 2.988 0 1.922 1.494 2.669 4.16 1.922 3.84-.961 6.827-34.796 3.094-34.796-.427 0-.854 2.348-.854 5.123zm19.2 3.095c0 1.388 3.84 2.562 9.067 2.562 5.013.107 11.733.534 14.933.961 3.2.427 5.867-.107 5.867-1.174 0-1.175-2.24-2.028-5.013-2.028-2.774 0-9.494-.641-14.934-1.388-6.826-.854-9.92-.534-9.92 1.067zm61.654 2.028c-.214.854-.214 2.242 0 3.096.106.854-5.76 1.707-13.12 1.921-17.707.427-15.04.534-37.334-1.174-11.306-.747-19.733-.641-19.733.427 0 1.921 14.613 3.095 72 5.977 19.093.961 26.133.747 26.133-1.067 0-1.495-2.986-2.242-7.466-2.028-4.694.32-8.427-.641-10.134-2.776-2.986-3.842-10.026-6.724-10.346-4.376zm26.88 2.562c.746 1.174 4.693 2.135 8.746 2.135 4.48 0 6.934-.854 6.187-2.135-.747-1.174-4.693-2.135-8.747-2.135-4.48 0-6.933.854-6.186 2.135zm18.133 0c0 .854 1.92 2.135 4.267 2.775 2.346.641 4.266 2.669 4.266 4.483 0 3.416 5.654 3.842 51.734 4.376 5.013.107 9.706 1.068 10.56 2.135.853 1.174 2.133 1.387 2.986.534 3.947-3.95-2.346-5.124-36.8-7.045-21.546-1.174-26.986-2.135-28.16-4.91-1.386-3.415-8.853-5.443-8.853-2.348zm11.627 1.921c1.493 2.455 18.24 2.562 18.24.107 0-1.174-4.374-2.028-9.707-2.028-5.333 0-9.173.854-8.533 1.921zm31.04.214c0 1.174.213 2.134.533 2.134.32.107 5.547.641 11.733 1.388 8.64.961 11.2.534 11.2-1.708 0-2.028-3.52-3.095-11.733-3.415-6.933-.427-11.733.32-11.733 1.601zm-183.467 4.483c0 1.067 1.92 1.921 4.267 1.921 2.346 0 4.266.854 4.266 1.921 0 1.067-1.92 1.494-4.266.854-4.587-1.174-5.974 2.562-1.6 4.376 2.133.854 2.133 1.067 0 1.174-3.84.32-3.307 4.483.533 4.483 1.813 0 3.2-1.494 3.2-3.202 0-1.814.96-3.202 2.133-3.202 2.454 0 2.987-8.432.534-8.752-.854 0-3.307-.427-5.334-.854-2.026-.32-3.733.213-3.733 1.281zm128 .427c0 1.707 2.987 2.881 8 2.988 7.36.214 7.573 0 3.84-2.775-5.12-3.736-11.84-3.842-11.84-.213zm-82.133 3.629c5.973 2.561 16 2.561 16 0 0-1.175-4.587-2.028-10.134-2.028-7.573.106-9.066.64-5.866 2.028zm171.733-.214c0 2.135 7.36 4.376 14.293 4.483 3.414 0 4.374-.961 3.52-3.202-1.28-3.522-17.813-4.696-17.813-1.281zm23.467 1.281c0 2.135 2.24 3.202 6.933 3.309 3.84.106 14.613.64 24 1.281 13.973.853 16.533.533 14.4-1.708-1.707-1.601-9.173-2.882-19.2-3.202-9.067-.321-18.667-1.068-21.333-1.815-3.414-.747-4.8-.213-4.8 2.135zm51.2 3.095c0 1.281 1.706 2.242 3.733 2.348 2.027 0 7.467.641 11.947 1.281 6.4.854 8.106.534 7.36-1.708-1.174-3.522-23.04-5.336-23.04-1.921zm-262.4 6.511c0 1.174 3.84 2.135 8.533 2.135 11.093 0 11.093-2.989 0-3.736-4.8-.427-8.533.32-8.533 1.601zm20.266 2.135c.747 1.174 4.587 2.135 8.64 2.135 4.054 0 7.36-.961 7.36-2.135s-3.946-2.135-8.64-2.135c-5.226 0-8.106.854-7.36 2.135zm25.494.213c-4.267.854-1.387 1.495 9.173 2.135 8.533.427 15.467.213 15.467-.534 0-1.921-17.28-3.095-24.64-1.601zm-75.627 1.601c0 1.174 1.173 2.562 2.667 3.202 2.133.854 2.133 1.068 0 1.175-4.587.32-2.88 4.482 1.706 4.482 3.414 0 4.267-1.174 3.734-4.803-.64-4.589-8.107-8.325-8.107-4.056zm104.533.534c0 1.921 2.987 2.135 32 3.309 16.427.64 41.387 2.668 49.6 3.949 4.16.64 5.867.107 5.867-2.241 0-2.455-3.307-3.096-15.467-3.202-8.533-.107-18.773-.534-22.933-.961-18.667-2.028-49.067-2.562-49.067-.854zm-57.6 4.056c0 1.174 3.84 2.135 8.534 2.135 4.693 0 8.533-.961 8.533-2.135s-3.84-2.135-8.533-2.135c-4.694 0-8.534.961-8.534 2.135zm24.64-.213c-1.386 2.348 10.88 3.842 44.694 5.656 12.906.641 25.173 1.708 27.2 2.349 3.626.96 5.333-2.242 2.133-4.27-.853-.533-16.96-1.708-35.733-2.561-18.774-.748-34.774-1.815-35.627-2.349-.747-.427-1.92.107-2.667 1.175zm-59.093 5.016c-.107 2.668 0 8.859.213 13.876.32 5.443-.426 9.072-1.813 9.072-1.28 0-2.347-1.921-2.347-4.269 0-3.095-1.386-4.27-5.333-4.27-6.613 0-7.04 3.629-.533 4.91l4.8.961-4.8.213c-5.867.427-6.507 4.59-.64 4.59 2.24 0 4.48 1.708 5.013 3.736.96 3.522.96 3.522 1.28 0 .107-2.028 1.707-3.736 3.413-3.736 2.56 0 3.2-3.095 3.2-14.943 0-13.769-1.813-21.134-2.453-10.14zm31.147-.747c-.427.427-.32 1.601.32 2.668 1.493 2.455 22.186 2.349 22.186-.106 0-1.922-20.8-4.27-22.506-2.562zm25.813 2.241c-.853 1.281-.64 2.349.32 2.349.96.106 4.16.533 7.04.853 19.413 2.455 54.187 3.416 52.267 1.495-1.174-1.174-13.12-2.775-26.667-3.416-13.44-.747-26.133-1.814-28.053-2.455-2.027-.533-4.16 0-4.907 1.174zm-39.573 5.337c0 1.921 1.813 3.309 4.48 3.309 5.12 0 4.48-5.017-.96-5.977-2.027-.427-3.52.64-3.52 2.668zm0 11.528c0 1.387 1.706 2.561 3.733 2.561 2.027.107 6.613.534 10.133.961 17.387 2.241 57.494 5.123 58.454 4.163 3.093-3.202-5.974-5.017-31.04-6.084-15.36-.747-31.04-1.922-34.667-2.669-4.267-.854-6.613-.427-6.613 1.068zm2.346 20.279c.427.427 10.454 1.388 22.187 1.922 14.827.854 18.027.64 10.667-.534-10.987-1.815-34.454-2.775-32.854-1.388zm64.854.534c1.173.427 10.773 1.708 21.333 2.882l19.2 1.921-24.533-.96c-13.44-.534-27.414-1.495-30.934-2.028-5.333-.854-5.653-.641-2.133 1.174 4.693 2.241 242.133 22.094 243.84 20.28.64-.534-1.387-1.068-4.373-1.068-3.094 0-6.08-.854-6.72-1.814-.64-1.068 1.173-1.388 4.16-.854 2.88.533 5.226 0 5.226-1.174 0-1.281-2.88-2.242-6.4-2.135-3.52.107-6.4 1.067-6.4 2.028 0 2.455-20.8 2.348-22.293-.214-.747-1.174 1.92-1.707 6.4-1.28 4.267.427 6.933 0 5.973-.961-1.493-1.388-195.413-17.611-202.346-16.971-1.387.107-1.387.534 0 1.174zm130.986 12.915c.534.427-4.053.747-10.133.747-5.973 0-10.987-.854-10.987-1.921 0-1.708 19.094-.64 21.12 1.174zm55.467 4.27c1.707 1.494-22.293.32-27.52-1.388-3.093-1.067 1.28-1.281 10.667-.64 8.853.64 16.426 1.601 16.853 2.028z" fill="#4733AB"/></svg>