<svg xmlns="http://www.w3.org/2000/svg" viewBox="0, 0, 640, 565"><path d="M321.912 2.278c0 1.593 62.789 15.291 139.602 30.582 76.494 15.292 145.976 29.309 154.582 31.22l14.98 3.186v17.202c0 9.557-.638 17.203-1.275 17.203-.638 0-26.773-4.46-58.008-9.876-31.554-5.415-64.064-10.831-72.988-12.105-8.606-1.274-52.909-8.601-97.849-16.566l-82.231-13.698v-23.574c0-12.743-1.275-22.619-2.868-21.663-1.594.956-50.678 11.15-109.004 22.619-58.646 11.787-129.084 25.485-156.813 30.901l-50.04 9.875.319 17.203c.637 13.38 1.912 16.884 6.056 16.884 3.824 0 254.342-40.458 303.107-49.059 4.462-.956 9.881 0 11.793 1.911 1.593 1.593 14.342 5.097 28.048 7.327 14.024 2.549 29.641 5.097 34.741 6.053 5.418.637 18.167 2.867 28.685 4.778 10.518 1.912 33.466 5.416 50.996 8.283 17.53 2.549 42.39 6.69 55.139 8.92 12.431 2.549 22.949 3.823 22.949 2.867 0-.637 1.912 0 4.143 1.593 1.912 1.593 9.562 3.504 16.574 3.823 7.012.318 17.848 1.911 23.904 3.186 27.41 7.008 40.797 7.327 46.853 1.274 7.012-7.009 7.012-26.441.318-36.636-4.143-6.052-27.091-12.424-84.78-22.936-3.825-.956-23.267-4.46-43.028-8.283-19.443-3.505-42.391-7.964-50.359-9.876-8.287-1.911-16.892-3.823-19.123-4.141-2.55-.637-6.694-1.912-9.243-2.867-2.55-.956-7.012-1.593-9.562-1.593s-22.311-3.823-43.665-8.283c-41.116-8.601-51.953-9.876-51.953-5.734zm-12.749 27.715c0 9.557-.956 17.521-1.912 17.521s-27.092 4.142-58.008 9.558c-31.235 5.097-71.394 11.787-89.88 14.654-18.487 2.867-36.973 5.734-41.435 6.69-4.462.637-13.067 1.911-19.123 2.548-6.056.956-14.662 2.23-19.124 3.504-11.793 2.868-61.195 10.832-67.888 10.832-4.781 0-5.737-2.23-4.781-11.787.956-11.469 1.275-11.787 20.08-15.929 10.199-2.23 20.717-3.504 22.948-2.867 2.231.956 4.781.319 5.737-.956.637-1.592 7.012-3.822 13.386-4.778 13.706-2.549 219.283-42.37 228.845-44.281 3.506-.956 7.331-1.593 8.924-1.911 1.275 0 2.231 7.645 2.231 17.202zm33.785 77.412c-4.462 5.416-5.099 22.619-5.099 176.487 0 93.978.956 172.983 1.912 175.85.956 2.867 3.187 4.141 4.781 3.186 1.593-.956 2.868 0 2.868 1.911s2.55 2.867 5.737 1.911c2.869-.955 13.387-2.548 22.949-3.504 33.784-2.867 46.215-5.097 51.633-9.238 5.1-3.823 5.737-12.106 6.056-84.421.319-44.281 1.593-79.323 2.868-77.731 1.275 1.275 9.881 16.884 19.124 34.406 9.243 17.521 19.761 36.954 23.267 43.325 7.968 14.654 16.255 20.07 23.904 14.973 2.869-1.912 13.705-20.389 24.223-41.096 28.686-58.298 27.092-59.572 27.411 21.345 0 69.766 0 70.403 7.33 73.27 10.199 4.46 64.383-2.23 72.032-8.601 5.418-5.097 5.737-12.106 6.056-133.799 0-70.722-.956-133.799-2.231-139.851-2.869-14.017-10.518-17.84-41.753-20.389-13.068-1.274-26.136-2.867-28.685-3.504-2.55-.637-7.65 1.274-11.156 4.141-6.056 5.098-50.04 75.82-54.502 87.925-.956 2.867-2.868 5.097-4.143 5.097-.956 0-13.387-22.299-27.411-49.696-34.741-67.537-32.191-64.67-68.525-70.085-16.574-2.23-35.379-5.097-41.753-5.735-8.606-1.274-12.749-.318-16.893 3.823zm55.458 8.602c18.168 2.867 33.466 5.415 33.785 5.734.319.956 36.016 68.492 51.952 98.437l12.749 24.53 17.212-29.308c9.561-16.247 23.585-40.458 31.235-53.838 9.561-16.884 15.617-24.211 18.804-23.256 2.55.638 18.805 2.868 36.016 5.098l30.917 3.504v138.258c0 76.138.318 139.215.956 140.489.318 1.593-7.968 3.504-18.486 4.46s-26.136 2.867-35.06 4.141l-15.936 2.23.956-88.243c.319-48.741 0-87.925-.956-86.969-2.231 2.548-41.753 77.73-53.546 102.26-5.737 11.787-10.837 21.344-11.793 21.344-1.594.319-27.092-45.236-58.327-102.897-6.374-12.106-12.111-22.619-12.749-22.937-.318-.319-.318 42.688.319 95.57l.956 96.527-23.267 2.229c-12.749 1.275-31.553 2.868-41.434 4.142l-18.486 1.911v-351.699l10.518 1.593c5.418.955 25.179 4.141 43.665 6.69zm-141.832-2.867c-15.618 2.23-34.423 4.778-41.435 6.052l-12.749 1.912-31.872 63.395c-29.004 57.342-36.653 70.085-36.653 60.528 0-2.867-55.459-103.853-58.965-107.676-.637-.637-16.892 1.274-36.334 4.141l-35.379 5.416.638 138.896.956 138.895 25.179 3.823c13.705 2.23 28.685 4.779 32.51 5.734l7.65 1.912v-86.014c0-55.112-1.275-86.013-3.188-86.013-1.912 0-3.187 29.627-3.187 82.509v82.191l-26.135-4.779c-14.662-2.548-26.773-5.097-27.411-5.415-.319-.319-.637-59.891-.637-132.206 0-98.119.956-132.206 3.506-134.118 2.231-1.274 10.199-3.185 17.848-4.141 7.331-.956 19.761-2.867 27.411-3.823l13.386-1.911 13.387 23.574c7.33 12.743 17.848 31.857 23.585 42.369 17.211 31.857 25.18 43.326 29.323 42.37 2.231-.637 18.486-29.308 36.335-63.395l32.51-61.802 15.298-2.23c8.287-1.275 24.542-3.505 36.016-5.097 14.662-1.912 21.355-1.912 22.949.637 1.912 2.548 1.274 248.483-.638 329.718 0 4.46 0 4.46-48.446-1.593-9.881-1.274-15.618-3.823-16.574-7.327-.956-2.867-1.593-26.76-1.593-52.882.318-88.881-.957-127.746-3.506-119.463-3.825 12.105-3.825 181.584 0 181.584 5.418 0 68.207 9.557 73.625 11.468 4.781 1.274 5.1-13.698 4.781-175.531 0-97.163-.956-176.487-1.912-176.487-.957.319-14.343 2.23-30.279 4.779zm-60.558 157.372c-4.462 7.009-7.968 14.017-7.968 15.929 0 1.593-1.275 3.185-3.187 3.185-1.594 0-3.188 1.593-3.188 3.505 0 5.734-42.39 79.005-44.94 77.73-1.275-.955-7.012-10.512-12.43-21.344-36.972-71.041-47.809-89.836-50.04-87.288-1.594 1.593 57.37 115.004 62.47 120.419 1.594 1.912 61.833-103.534 67.888-118.826 3.825-9.875 0-7.008-8.605 6.69zm400 190.186c-11.474 1.911-26.454 4.46-33.466 5.734-25.498 3.504-72.351 11.15-78.088 12.742-11.474 2.868-23.904 5.098-38.247 6.372-9.562.956-29.641 3.823-44.621 6.371-14.981 2.549-33.467 5.416-41.435 6.372-22.31 2.548-38.884 7.008-41.434 11.15-1.912 2.867-43.347-2.868-158.088-21.982-85.737-14.335-156.812-25.804-158.087-25.804-1.594 0-2.55 7.646-2.55 17.203 0 18.477 0 18.477 20.717 22.3 100.399 18.158 291.952 57.661 297.052 61.165 7.331 4.778 14.661 3.823 66.295-8.283 7.012-1.593 18.167-3.823 25.179-4.778 6.693-.956 13.386-2.549 14.98-3.186 1.275-.956 22.948-5.416 48.128-9.876 60.876-11.15 67.251-12.424 94.98-18.477 13.067-3.185 28.047-5.734 32.828-5.734 4.781-.319 9.562-1.593 10.518-3.186.956-1.274 5.419-2.548 10.199-2.548 11.156 0 17.849-10.194 17.212-26.76-.638-13.698-7.65-23.893-15.937-23.255-3.187.318-14.661 2.23-26.135 4.46zm34.422 19.114l-.956 18.158-148.207 29.627c-81.594 16.247-151.395 30.264-155.219 31.22-7.012 1.592-7.331.955-7.331-21.982v-23.574l20.08-3.504c10.836-1.911 47.808-7.964 81.912-13.38 34.104-5.415 94.343-15.291 133.865-21.981 39.522-6.69 72.988-12.106 74.263-12.424 1.274-.319 2.231 7.964 1.593 17.84zm-561.912-1.912c17.53 3.186 37.609 6.69 44.621 7.327 7.012.956 20.08 3.186 29.323 4.779 9.243 1.911 23.586 4.141 31.873 5.097 8.286.956 18.804 2.548 23.267 3.504 14.98 3.186 81.274 14.336 96.573 16.247l14.98 1.912v16.884c0 18.795-.637 19.114-19.123 14.017-6.056-1.593-19.761-4.46-30.279-6.053s-30.598-5.416-44.622-8.283c-26.772-5.416-131.314-26.122-152.988-30.264-7.012-1.593-18.486-3.504-25.498-4.778-24.223-3.823-26.454-4.779-28.047-11.15-.957-3.505-.957-9.239 0-12.743 1.912-7.327 3.824-7.009 59.92 3.504z" fill="#8D7127"/></svg>