<svg xmlns="http://www.w3.org/2000/svg" viewBox="0, 0, 640, 452"><path d="M14.293 6.929c5.654 3.838 13.12 8.315 16.32 10.021 6.934 3.625 6.934 14.072.107 21.747-2.027 2.132-3.307 4.264-2.773 4.478.426.319 4.693 3.517 9.386 7.142 16.64 12.899 69.014 14.285 58.454 1.599-1.387-1.599-3.414-2.878-4.694-2.878-12.266 0-48.426-24.519-48.426-32.834 0-7.676-15.04-16.204-28.694-16.204h-10.133l10.453 6.929zm120.107-5.33c0 2.132 14.187 9.808 17.6 9.594 1.493-.213 6.08-1.172 10.347-2.238 5.12-1.28 11.84-1.066 20.266.639 22.507 4.584 51.414 4.051 54.08-.852 4.587-8.635 3.947-8.742-50.026-8.742-28.694 0-52.267.746-52.267 1.599zm109.653-.107c.747.853 7.147 1.28 14.187 1.066 11.733-.533 12.907-.106 15.147 4.798 2.24 5.01 4.373 6.396 8.746 5.65.854-.107 10.667 4.584 21.76 10.553 26.987 14.285 39.467 17.057 61.334 13.646 9.706-1.493 46.506 13.538 51.093 20.787.64 1.173 3.2 1.6 5.547.853 5.653-1.812 7.68 1.066 15.146 21.214 5.76 15.884 22.4 57.14 29.227 72.917 3.2 7.356.853 19.083-3.307 16.524-1.28-.746-2.026-.107-1.6 1.492.32 1.6-.96 2.559-3.2 2.133-2.133-.32-4.373.852-5.013 2.665-.747 1.812-2.24 3.304-3.307 3.304-1.173 0-1.493-.959-.746-2.132 2.88-4.69-10.134-1.812-15.254 3.305-3.946 3.944-6.613 5.01-10.026 3.944-3.84-1.279-4.16-.959-1.92 1.706 2.346 2.772 1.066 3.305-9.707 3.411-6.827.107-13.333.32-14.4.533-4.48.853-7.36-.213-7.36-2.878 0-1.492-1.92-6.503-4.267-11.087-2.346-4.584-4.266-9.168-4.266-10.127 0-1.066-2.347-6.823-5.227-12.899-2.773-6.077-9.173-21.641-13.973-34.54-4.907-12.899-9.92-24.625-10.987-26.011-3.413-4.051-.533-6.503 13.333-11.513 8.214-2.985 11.84-5.331 10.134-6.397-1.494-.852-3.52-1.066-4.694-.426-1.066.64-1.493-.107-.96-1.706.747-2.025 4.48-2.985 11.52-2.985 16.854 0 23.147-10.553 9.387-15.777l-12.693-4.69c-3.414-1.28-7.467-1.493-9.067-.64-1.493.959-9.92 4.264-18.773 7.142-10.347 3.518-16 6.61-16 8.635 0 4.478 6.826 5.224 12.8 1.28 10.986-7.25 16.213-4.051 10.773 6.396-2.453 4.69-2.56 6.396-.533 7.675 1.6 1.066.64 1.706-2.774 1.812-2.88.107-8 .533-11.2.96-3.306.426-5.546.107-5.013-.64.427-.853-1.707-1.705-4.8-1.919-7.04-.533-30.187-10.873-30.187-13.538 0-3.625-9.92-2.132-15.466 2.238-2.987 2.346-7.574 4.265-10.027 4.265-6.507 0-12.907 3.837-12.907 7.675 0 1.812.96 2.665 2.027 2.026 3.2-2.026 7.36 7.782 6.72 15.883-.32 4.051-1.707 8.209-3.093 9.062-1.814 1.172-1.814 1.492.106 1.599 1.6 0 2.134 1.492 1.28 3.411-1.173 3.092-.64 3.092 3.84.746 2.774-1.492 4.054-3.091 2.774-3.518-2.667-.852-1.387-10.66 1.493-12.472 3.093-1.919 2.24-4.691-3.2-10.234-6.613-6.61-3.733-9.914 8.533-9.914 8.214 0 17.494 3.091 36.267 11.939 4.907 2.346 8 2.559 12.373.96 9.387-3.625 11.947-2.665 15.36 5.437 3.84 9.061 2.667 13.645-3.2 13.645-5.866 0-7.466 3.518-2.346 4.904 2.986.746 5.12-.32 6.72-3.305 3.093-5.757 7.04.213 5.013 7.462-1.067 3.731-.853 4.158.853 1.599 2.24-3.198 3.2-.639 2.88 7.996 0 1.385.747 2.132 1.707 1.599 2.453-1.599 6.613 12.472 5.12 17.269-.96 2.772-.747 3.198.64 1.28 1.387-2.026 2.667-1.173 4.587 3.198 3.413 7.355 19.413 49.357 19.413 50.743 0 2.026-8.32 1.066-9.6-1.066-.747-1.173-2.347-2.132-3.627-2.132-1.386 0-1.173 1.173.427 3.198 2.347 2.772 2.133 3.092-.96 1.812-3.307-1.172-3.52-.852-1.28 3.305 2.453 4.691 2.453 4.691-2.773 1.279-4.054-2.665-5.44-2.771-6.187-.639-.747 2.132-2.027 1.919-5.227-.96-5.546-4.903-8.96-4.69-8.64.533.32 4.158 3.734 6.183 3.734 2.239 0-1.173 1.493-1.599 3.2-.853 3.626 1.386 4.373 9.275.96 9.275-1.28 0-1.6-1.173-.747-2.452 1.067-1.706.427-2.132-1.707-1.279-1.813.746-4.266.319-5.333-.747-2.347-2.345-9.173-.319-9.173 2.665 0 1.173-1.067 1.386-2.454.533-1.6-.959-1.92-.533-.96.96.854 1.386 2.454 1.919 3.52 1.279 1.174-.639 2.027.32 2.027 2.132 0 4.051-2.24 4.158-7.467.427-2.133-1.599-5.44-2.559-7.253-2.026-1.92.427-5.333-.639-7.68-2.345-2.56-2.026-3.2-3.305-1.493-3.305 3.2-.106 1.28-4.371-1.92-4.371-1.174 0-1.494 1.173-.64 2.452 1.066 1.813.32 2.132-2.56 1.066-3.52-1.172-3.627-1.066-.64 1.28 3.84 3.091 4.48 10.447 1.066 12.792-1.6 1.066-1.6 1.492.214 1.599 1.386 0 3.093-.959 3.84-2.132.746-1.279 2.773-1.066 5.44.533 5.44 3.411 5.333 5.757-.107 4.371-4.587-1.173-5.973 2.558-1.6 4.371 1.707.639 1.387 1.066-.853 1.172-1.814.107-4.694-1.279-6.187-3.091-1.493-1.813-3.84-2.879-5.333-2.239-1.6.64-3.627-2.558-5.227-8.422-1.493-5.223-3.52-9.487-4.587-9.487-3.52 0-1.706-4.265 1.92-4.478 2.24-.106 2.667-.533 1.067-1.172-1.493-.64-2.667-2.772-2.667-4.904 0-3.731-6.4-10.98-6.4-7.249-.106 2.132-4.16-3.838-4.266-6.183 0-.853 3.626.426 8 2.771l8 4.265-6.4-5.331c-3.52-2.985-5.12-5.436-3.52-5.436 2.453 0 2.453-.64.32-3.199-2.24-2.665-1.92-3.198 1.386-3.198 3.307-.106 3.414-.426.747-2.132-4.373-2.878-6.933-2.665-5.12.32 1.067 1.706.427 2.132-2.027 1.173-4.586-1.813-4.48.426.214 4.264 2.773 2.239 2.88 2.878.533 2.239-3.84-1.066-9.28-10.874-6.507-11.833 1.174-.427 1.494-2.026.854-3.732-.64-1.705-2.027-2.558-2.987-1.918-.96.533-3.307-3.945-5.12-10.021-3.84-12.899-3.84-13.112-1.6-11.727.853.64 1.6-.746 1.6-2.878 0-2.878-.64-3.411-2.56-1.919-1.813 1.599-3.2.96-4.907-2.025-1.6-3.092-1.6-4.691 0-5.757 1.28-.746 1.814-2.772 1.174-4.477-.854-2.026-.32-2.559 1.28-1.599 1.6 1.066 2.026.426 1.066-2.026-1.386-3.518 1.28-4.584 9.92-3.838 2.774.214 3.627-.639 2.774-2.878-1.28-3.198 1.706-4.264 9.706-3.624 2.454.213 3.307-.747 2.454-2.772-1.494-4.051-2.027-3.944-12.48 1.066-4.694 2.239-9.6 4.158-10.88 4.158-3.84.106-9.92 8.208-8.32 11.193.746 1.492-.534.32-2.987-2.559-5.013-6.076-5.547-8.528-2.133-8.528 1.6 0 1.706-.853.426-2.665-1.173-1.492-1.813-6.609-1.386-11.407.32-4.797-.64-10.447-2.134-12.472-2.346-3.198-2.773-2.452-3.2 6.076-.32 5.757.427 9.808 1.707 9.808s2.24 1.066 2.24 2.238c0 1.28-.96 1.706-2.24.96-1.387-.853-1.813.64-1.173 4.051.533 3.091.213 5.543-.64 5.543-4.054 0-28.054-9.274-42.24-16.31-15.147-7.462-26.24-8.635-26.24-2.665 0 1.172.96 1.599 2.133.853 1.173-.747 2.133-.107 2.133 1.492 0 1.812-3.306 2.878-9.6 3.198-9.386.427-14.08-2.345-5.12-3.091 4.587-.32 7.68-2.026 5.974-3.305-1.92-1.599-21.12 1.173-21.12 2.985 0 1.066 1.493 1.919 3.2 1.919 1.813 0 3.2 1.492 3.2 3.304 0 1.813-1.174 2.985-2.667 2.666-3.093-.64-15.253 10.873-13.44 12.685 2.133 2.239-5.76 9.168-8.213 7.143-4.907-3.838-22.614-5.011-22.614-1.386 0 4.158 1.174 4.264-26.666-2.026-27.307-6.183-28.8-6.289-28.8-2.238 0 3.731 1.6 4.157 30.613 9.807 22.613 4.265 30.72 4.265 28.053-.106-1.813-2.879 8.747-2.772 14.4.213 4.267 2.345 4.16 2.558-2.56 5.33-4.693 2.026-6.613 3.945-5.76 6.183.747 1.812-1.173 5.33-4.48 8.528-4.053 3.625-4.8 5.331-2.56 5.331 5.014 0 13.12-6.503 11.947-9.595-.64-1.599 2.667-5.223 7.787-8.635 4.906-3.198 9.706-7.142 10.666-8.741.96-1.599 3.094-2.878 4.8-2.878 1.814 0 4.16-2.559 5.334-5.544 2.133-5.756 5.44-6.076 15.68-1.812 3.093 1.279 3.733.959 2.453-1.066-1.813-2.772 2.027-6.396 6.827-6.503 4.053 0 3.2 5.757-1.067 7.462-4.8 1.919 21.44 9.595 27.52 7.996 2.347-.64 6.293 0 8.96 1.385 3.84 2.133 6.72 1.6 17.173-2.984 16.427-7.249 27.84-1.493 23.574 11.939-.854 2.772-.214 4.051 2.133 4.051 1.813 0 3.307.96 3.307 2.132 0 1.173-.747 2.026-1.6 1.919-7.254-1.173-12.694 3.305-9.174 7.569 2.24 2.665 2.347 4.051.427 5.97-2.987 2.985-3.307 12.259-.32 12.259 1.173 0 2.133-2.345 2.133-5.223 0-2.772 1.28-6.397 2.88-7.996 1.6-1.599 2.56-4.477 2.347-6.503-.96-6.183 5.227-4.157 6.827 2.133.853 3.198 3.306 10.02 5.546 15.137 2.24 5.011 3.52 9.808 2.88 10.447-.746.64 0 2.772 1.707 4.584 2.773 3.199 18.56 44.134 21.547 55.648 1.066 4.584.853 4.903-1.494 2.132-3.413-3.945-8.106-5.117-8.106-2.026 0 1.279-1.707.64-3.734-1.386-3.52-3.518-3.733-3.518-4.48 0-.32 2.026-1.813 3.305-3.2 2.772-1.386-.426-4.48 1.386-7.04 4.051-2.453 2.665-5.226 4.264-5.973 3.411-.747-.746-.747.32 0 2.346.747 2.025.427 3.624-.747 3.624-2.24 0-4.693-4.904-4.693-9.701 0-1.705 1.28-2.452 3.093-1.812 2.134.853 2.667 0 1.92-2.985-.64-2.345.534-7.462 2.56-11.407 3.947-7.995 2.454-6.716-6.08 5.011-3.2 4.264-5.76 8.848-5.76 10.127 0 1.173-1.066 2.239-2.346 2.239-1.814 0-1.814.746 0 2.878 2.24 2.772-4.694 9.914-9.6 9.914-.854 0-2.56 1.599-4.054 3.518-2.346 3.198-2.666 3.198-3.946-.106-.747-2.132-.427-3.092.746-2.346 1.174.747 1.494-.106.854-2.025-.747-1.812-.107-4.797 1.386-6.61 2.134-2.665 2.134-3.731-.106-5.863-2.134-2.025-2.454-2.025-1.28.107.96 1.705.213 2.665-1.92 2.665-2.56 0-3.094 1.173-2.027 4.584 1.173 3.731.747 4.371-2.24 3.198-6.187-2.345-10.453 2.665-6.293 7.249 2.24 2.452 2.56 4.158 1.066 5.117-1.173.746-2.24.213-2.346-1.386 0-1.812-1.067-1.386-2.987 1.173-1.707 2.132-2.453 5.33-1.813 6.929.533 1.599.106 2.985-1.067 2.985-1.067 0-2.56-1.706-3.2-3.731-1.813-5.65-16.32-43.601-18.56-48.505-1.067-2.345-5.44-13.432-9.707-24.519-8.746-23.133-9.386-24.625-16.746-40.509-2.987-6.503-5.44-10.447-5.44-8.848-.107 1.705-1.494 2.345-3.414 1.599-2.133-.746-2.773-.32-1.813 1.172.853 1.386.32 1.919-1.493 1.28-1.6-.533-2.88-2.559-2.667-4.478.32-4.69-.213-4.477-6.613 1.919-3.627 3.625-6.827 5.011-9.494 4.264-2.986-.959-4.266 0-5.226 3.838-1.707 6.396-9.494 8.848-14.4 4.371-2.027-1.812-13.12-5.65-24.64-8.635-23.574-6.077-22.614-5.863-40.214-8.102-30.293-3.731-45.973-8.848-39.466-12.899 3.626-2.239 2.346-5.33-2.134-5.33-2.346 0-6.186 1.172-8.426 2.558-2.347 1.493-4.694 2.026-5.44 1.386-2.347-2.345 1.6-8.208 5.44-8.208 2.133 0 4.48-.96 5.226-2.132 1.92-3.199 5.334-2.559 5.334.959 0 1.706.853 3.624 1.92 4.264 2.986 1.812 23.68-9.274 23.68-12.686 0-1.599 2.88-4.69 6.293-6.716 16.213-9.488 8.853-11.726-9.813-2.878-7.467 3.518-14.507 6.396-15.68 6.396-1.174 0-3.84.853-5.867 1.919-2.027.959-8.32 3.944-13.867 6.503-9.493 4.371-10.133 5.223-9.92 12.472 0 4.371.64 6.717 1.174 5.224 2.24-5.543 15.68-2.239 15.68 3.838 0 4.69-2.027 6.183-9.28 6.716-3.734.32-5.654 2.025-6.294 5.543-.96 4.904-.746 5.011 8.854 3.518 5.44-.853 25.813-1.492 45.12-1.172 39.573.426 40.533.746 40.533 15.564 0 11.406 3.2 11.833 23.893 3.198 24.854-10.554 45.867-18.549 48.107-18.549 4.16 0 8.64 8.315 18.347 34.113 5.546 14.605 10.986 28.57 12.053 30.915 14.72 32.834 25.173 65.455 18.987 59.272-2.987-2.985-10.987-.853-9.707 2.558.747 1.812-1.067 2.346-5.76 1.706-11.2-1.386-33.813 3.624-32.427 7.249.64 1.706.214 2.452-1.066 1.599-1.174-.746-3.52-.32-5.014.959-1.493 1.28-6.933 2.559-12.053 2.666-7.467.319-23.467 5.543-19.093 6.183.64.106 3.84.533 7.146.959 8.214 1.066 9.387 2.665 4.48 6.29-3.2 2.238-4.8 2.345-7.253.426-2.453-2.025-2.773-1.706-1.6 1.492 1.067 2.559.64 3.625-1.173 3.092-3.627-1.173-10.667-16.417-32.534-70.998-21.44-53.622-21.973-54.368-29.76-49.358-5.546 3.731-7.04 8.635-3.306 10.981 4.48 2.771 1.813 6.929-6.4 10.127-10.454 4.157-10.774 6.929-1.067 10.127 4.907 1.599 7.787 4.051 8.32 7.143.533 2.452 2.56 14.498 4.48 26.651 5.76 35.499 10.24 45.839 27.52 63.749 10.667 10.98 9.813 10.98 31.573.639 9.707-4.584 43.627-19.828 75.307-33.9 58.027-25.691 133.973-59.804 204.8-91.892 21.12-9.594 50.453-22.813 65.067-29.316 14.72-6.503 33.6-15.031 42.026-18.976 8.427-3.944 17.814-7.675 20.694-8.421 11.946-3.092 8.106-22.814-13.76-70.892-2.24-5.01-4.16-9.914-4.16-11.087 0-5.863-15.467-33.793-18.134-32.727-1.6.64-2.346 2.558-1.706 4.264.96 2.559-.747 2.878-10.24 1.812-8.214-.959-10.56-.746-8.107.853 1.813 1.173 7.04 2.559 11.627 2.985 6.826.746 8.533 1.812 9.813 6.716.853 3.198 3.2 7.676 5.227 9.914 3.84 4.158 1.813 5.331-7.147 4.158-5.547-.64-2.24 3.305 5.973 7.249 8.32 3.944 8.427 4.157 4.054 6.503-4.48 2.452-4.374 2.558 2.346 5.33 5.654 2.345 6.294 3.305 3.627 5.224-3.413 2.558-1.493 5.543 5.333 8.101 4.054 1.599 5.12 5.864 1.387 5.864-1.28 0-1.92 1.172-1.387 2.665.534 1.492 1.92 2.665 3.2 2.665 3.414 0 4.054 1.279 5.76 10.554 1.387 7.462 1.174 8.101-1.813 5.543-1.92-1.492-3.413-3.944-3.413-5.437 0-5.756-8-13.219-9.707-8.955-.96 2.346-.107 5.331 2.24 7.889 2.24 2.559 3.84 7.889 3.947 14.285l.32 10.234h-8c-6.72 0-7.787.64-6.72 3.944 1.066 3.198.426 3.625-2.987 2.559-2.453-.746-4.907-.427-5.547.639-.746 1.173-4.693 2.026-8.746 2.026-4.16 0-8.96 1.173-10.774 2.558-1.706 1.493-3.093 1.813-3.2.747 0-.96-1.066 0-2.346 2.132-2.987 5.223-6.934-.107-9.174-12.473-.853-4.69-2.773-10.447-4.266-12.792-1.494-2.346-8.214-18.23-14.934-35.18-6.613-16.95-13.973-33.9-16.213-37.524-5.227-8.422-5.227-8.848.64-10.127 2.88-.64 1.813-.96-2.667-.853-7.146.213-17.386-3.198-30.613-10.128-3.307-1.812-9.067-3.198-12.8-3.198-4.48 0-7.68-1.492-9.387-4.264-1.493-2.345-4.586-4.264-6.826-4.264-2.347 0-15.147-4.264-28.48-9.381-13.334-5.117-27.52-9.808-31.68-10.341-4.054-.533-9.494-2.132-11.947-3.411-4.907-2.665-57.813-3.518-55.147-.96zm138.88 57.14c0 2.665-1.6 4.477-4.266 4.797-6.08.746-10.454-2.665-8.854-6.822 2.027-5.331 13.12-3.625 13.12 2.025zm-50.133 166.302c9.173 6.823 7.253 6.823-4.587 0-5.12-2.878-7.786-5.33-5.973-5.33 1.813 0 6.613 2.345 10.56 5.33zm-234.667 44.241c2.774 6.183 5.547 11.619 6.187 12.259 2.88 2.452 6.613 10.874 6.613 14.924 0 2.346.747 4.265 1.6 4.265 2.774 0 6.614 14.924 4.16 16.417-3.52 2.132-27.093-47.546-27.093-57.247 0-5.01 4.053-.533 8.533 9.382zm253.867-267.15c0 5.117 23.147 15.245 30.4 13.326.96-.213 5.547-.64 10.133-.746 15.68-.64 20.8-14.605 5.44-14.605-6.08 0-7.573.853-7.573 4.158 0 6.929-19.52 5.756-24.107-1.493-1.92-3.091-14.293-3.731-14.293-.64zm64 .107c0 1.173 4.8 2.132 10.773 2.132 5.867 0 14.187 1.386 18.347 3.198 10.56 4.371 15.68 4.158 15.68-.853 0-2.238-1.493-4.584-3.413-5.33-5.654-2.132-41.387-1.492-41.387.853zm134.4.32c0 8.208-11.733 11.94-19.2 6.076-6.933-5.436-7.893-5.33-21.76 1.599-7.893 3.945-11.307 6.93-10.667 9.062.534 1.919-.32 1.492-2.24-.96-3.093-3.944-3.52-3.944-8.64-.533-4.906 3.198-15.04 4.478-28.16 3.518-10.986-.853-38.506 7.356-40.32 11.94-2.133 5.65 7.147 7.249 15.147 2.558 7.467-4.37 13.013-.32 7.36 5.33-7.253 7.25 2.453 7.889 12.907.853 4.053-2.771 11.093-5.756 15.68-6.609 4.48-.853 12.373-3.838 17.493-6.716 10.56-5.863 19.733-6.716 19.733-1.919 0 4.584 8.427 4.051 20.587-1.386 15.147-6.609 35.947-14.285 54.08-20.041l16-5.011-24-.106c-16.533-.107-24 .639-24 2.345zm77.547 5.117c-3.734 1.599-7.467 3.944-8.214 5.117-.746 1.279-3.093 2.239-5.333 2.239s-13.44 4.583-24.96 10.233c-11.52 5.65-27.093 13.113-34.773 16.524-19.094 8.528-23.467 11.513-23.467 15.884 0 5.117 4.587 6.609 9.6 2.985 2.24-1.706 5.547-2.985 7.573-2.985 1.92 0 5.974-2.878 9.174-6.396 4.16-4.691 7.573-6.396 12.8-6.396 4.373 0 8.64-1.599 10.88-4.158 2.026-2.239 7.466-4.691 12.053-5.437 4.587-.853 8.853-2.345 9.493-3.304.96-1.6 13.227-7.996 31.68-16.631 1.067-.426 1.28 0 .64 1.173-.746 1.173-.426 4.904.534 8.315l1.92 6.183.106-6.716c.107-3.624.854-9.594 1.6-13.325 1.494-7.569-.426-8.102-11.306-3.305zm-519.68.426c-4.694 1.066-4.694 3.518-.214 10.341 3.094 4.584 3.094 5.756.64 7.356-2.346 1.385-2.133 2.132 1.28 3.304 2.24.96 4.694 2.346 5.334 3.305 3.626 5.33 11.626 2.772 12.693-4.051l1.067-6.929 6.933 4.264c7.467 4.584 14.4 5.543 16.427 2.345.96-1.705 2.88-1.705 9.386-.426.534.106-.32 1.599-1.813 3.411-2.24 2.665-.64 3.092 12.053 2.985 8-.107 18.987.426 24.214.959 5.333.64 13.013.214 17.066-.852 4.16-1.066 8-1.706 8.64-1.386.747.213 2.987-1.279 5.014-3.305 3.626-3.624 18.346-5.33 18.346-2.132 0 .853-3.306 2.665-7.466 3.944-4.267 1.386-7.467 1.493-7.467.427 0-1.173-1.493-.533-3.307 1.386-1.92 1.812-5.226 3.304-7.466 3.304-4.694 0-5.654 5.224-1.494 7.782 5.227 3.305 34.667 15.671 37.334 15.671 3.733 0 3.306-5.65-.534-7.142-6.506-2.559-3.306-6.183 4.267-4.798 4.16.747 10.88 1.813 14.933 2.559 4.48.746 7.467.426 7.467-.853 0-3.411 6.613-5.01 9.813-2.345 1.6 1.279 4.48 1.812 6.4 1.066 6.4-2.452-6.613-10.554-13.653-8.528-14.4 4.157-30.293-3.092-30.293-13.752 0-7.143-9.6-7.676-24.854-1.173-12.48 5.33-14.506 5.543-24.746 3.411-6.187-1.279-18.347-2.985-27.2-3.731-22.827-1.919-50.667-8.635-60.694-14.711-2.453-1.493-6.08-2.239-8.106-1.706zm134.4 29.636c2.666.64 4.8 2.665 4.8 4.371 0 4.584-11.52 2.665-12.374-2.026-.746-4.051.214-4.37 7.574-2.345zm-157.227-22.92c-7.147 1.919-7.467 4.797-1.173 12.047 2.88 3.517 5.333 6.929 5.333 7.782 0 2.558 8.64 6.396 11.733 5.223 8.107-3.091-7.253-27.397-15.893-25.052zm-25.6 3.198c-3.84 4.691 5.867 11.087 10.347 6.716 2.453-2.558 2.56-3.731.32-6.396-3.414-4.157-7.36-4.264-10.667-.32zm203.947 1.493c-9.28 4.904-9.28 4.904 1.28 9.274 6.933 2.879 7.68 2.879 6.613.107-.64-1.706-.427-3.198.64-3.198.96 0 1.813-2.452 1.813-5.33 0-6.29.107-6.29-10.346-.853zm340.48 18.229c-1.494.64-2.134 2.026-1.387 3.198.747 1.279-.853 1.919-4.16 1.493-4.907-.64-5.653-.214-5.653 3.411 0 .426 2.773.107 6.186-.853 3.414-1.066 7.04-.959 8 0 2.774 2.772 7.894-1.386 6.507-5.223-1.387-3.412-4.373-4.051-9.493-2.026zm-435.734 7.143c-5.866 5.863-5.44 6.822 4.374 11.513 4.693 2.345 12.906 9.274 18.24 15.457 5.333 6.29 10.666 11.407 11.946 11.407 1.174 0 5.547 1.599 9.6 3.518 5.974 2.878 8.854 3.091 14.187 1.279 3.733-1.279 10.347-2.878 14.72-3.624 12.48-2.132 7.893-13.859-5.44-13.966-1.387 0-16-6.716-32.32-14.924-34.667-17.376-29.973-15.991-35.307-10.66zm-166.4-.214c0 1.066-.533 3.412-1.28 5.224-1.066 2.878-.32 2.985 5.334.853 6.186-2.345 9.28-7.995 4.373-7.995-1.28 0-1.6 1.066-.853 2.345 1.066 1.599.106 1.599-3.094-.107-2.56-1.386-4.48-1.492-4.48-.32zm563.094 9.915c-1.6 1.918-1.92 3.944-.747 5.01 2.56 2.345 16.32-3.518 14.72-6.183-2.027-3.305-10.88-2.559-13.973 1.173zm66.56-.427c-2.667 3.092-1.174 5.65 3.2 5.65 1.6 0 2.88-1.919 2.88-4.264 0-4.904-2.667-5.543-6.08-1.386zm-508.054 5.437c0 .959-3.733 5.65-8.32 10.234-8.746 8.635-16.106 30.489-10.346 30.489h4.8c3.52 0 4.373-7.569 1.066-9.595-7.36-4.584 4.694-11.087 22.4-12.259 6.4-.427 8.64-1.493 9.28-4.584.64-3.518-.213-3.838-6.613-2.878-7.573 1.279-15.893-1.919-10.667-4.051 3.2-1.28 3.627-9.275.534-9.275-1.174 0-2.134.853-2.134 1.919zm-20.906 2.025c-1.494.96-1.6 2.665-.427 4.691 1.707 2.665 2.453 2.665 5.44-.32 3.733-3.838-.213-7.249-5.013-4.371zm-74.774 4.691c-2.773 2.239-6.186 4.157-7.573 4.157-4.48 0-3.2 7.569 1.6 9.701 5.867 2.559 8 13.006 2.133 10.661-11.733-4.691-26.026-3.092-17.813 2.025 3.2 2.026 2.56 7.463-.96 7.463-4.267 0-6.4 4.157-3.52 7.035 1.707 1.706 2.347 1.706 2.347-.213 0-1.386.96-2.558 2.24-2.558 4.16 0 21.226-8.635 21.226-10.661 0-1.172 1.494-2.132 3.2-2.132 1.814 0 3.2.96 3.2 2.026 0 4.051 8.214 6.822 12.8 4.37 7.68-4.157 5.227-9.807-5.546-12.899-13.12-3.624-14.08-7.355-3.84-16.097l8.32-7.036-6.4-.106c-3.52 0-8.64 1.919-11.414 4.264zm118.08.107c2.027 6.609 5.227 10.447 8.534 10.447 1.493 0 3.84 1.386 5.333 3.198 3.52 4.264 8.533 4.051 8.533-.213 0-4.478-11.946-15.458-18.666-17.164-4.8-1.172-5.12-.852-3.734 3.732zm304.534-.64c-7.787.746-9.6 4.797-2.134 4.584 6.187-.213 13.654-3.092 11.094-4.371-1.174-.533-5.12-.639-8.96-.213zm-36.694 3.091c-4.053 1.066-9.173 3.199-11.413 4.798-2.24 1.599-5.44 2.345-7.04 1.705-1.813-.639-2.987.32-2.987 2.346 0 4.477 4.374 4.37 12.694-.32 5.76-3.305 6.826-3.305 8.64-.533 1.706 2.558 2.026 2.558 2.133.213 0-1.599 1.707-4.158 3.733-5.65 5.227-3.838 2.88-4.904-5.76-2.559zm66.667-.319c-16.533 6.076-9.067 33.9 9.067 33.9 14.506 0 21.866 8.954 14.933 18.229-2.987 4.157-3.093 4.157-10.667.106-10.88-5.863-15.786-1.279-6.933 6.29 13.013 11.3 27.093 4.904 27.093-12.366 0-11.407-8.64-20.788-19.2-20.788-8.32 0-12.48-1.919-15.146-6.822-4.48-8.315 5.76-13.539 13.226-6.823 2.134 1.919 4.8 2.772 6.08 2.026 8.107-5.011-8.533-17.484-18.453-13.752zm-424.853 3.518c-5.014 9.274-3.84 16.31 2.88 18.335 10.346 3.092 12.8 4.798 12.8 9.062 0 4.051 18.986 12.579 22.826 10.127 3.2-1.919 1.6-4.264-16.213-22.707-19.52-20.254-19.413-20.254-22.293-14.817zm547.733.319c2.24 1.493 1.813 2.239-1.92 3.412-3.627 1.172-4.16 1.919-2.027 3.304 1.6.96 4.267.96 6.08 0 1.814-1.066 4.8-.746 6.934.64 2.88 1.706 4.48 1.706 6.506-.32 2.134-2.132 1.814-2.985-2.026-3.944-2.667-.64-4.8-2.132-4.8-3.092 0-1.066-2.667-1.919-5.867-1.919-4.16.107-5.013.64-2.88 1.919zm-17.92 7.782c-3.52 1.599-5.227 2.985-3.733 2.985 5.226.214 2.773 6.503-2.56 6.503-2.88 0-5.76.853-6.4 1.919-.64 1.173 1.813 1.706 5.76 1.279 3.84-.426 9.28-.746 12.16-.853 4.053-.213 4.693-.746 2.666-2.771-3.306-3.305-3.306-9.595.107-10.98 1.493-.533 1.707-1.066.533-1.066-1.173 0-5.013 1.385-8.533 2.984zm-441.387 8.316c-3.52 5.543-1.813 8.421 3.84 6.289 3.627-1.386 4.694-8.315 1.494-10.34-1.067-.64-3.414 1.172-5.334 4.051zm418.347-3.838c-.64.533-2.773 1.279-4.907 1.599-2.133.32-4.266 1.812-4.693 3.198-.533 1.599.64 2.452 3.093 2.132 2.134-.426 5.867.426 8.32 1.706 3.734 2.132 4.374 1.812 4.694-2.559.426-4.477-3.947-8.635-6.507-6.076zm-186.56 4.264c-2.667 1.919-4.8 2.452-4.8 1.173 0-2.346-9.813-2.026-12.16.426-.853.746-.107 2.665 1.6 4.264 3.84 3.625 16.96 2.026 16.96-2.025 0-1.599 1.707-3.838 3.733-5.011 2.027-1.279 2.774-2.238 1.6-2.132-1.173 0-4.266 1.493-6.933 3.305zm-258.667.853c0 1.172 1.494 2.771 3.307 3.411 2.453.96 2.667 1.919.747 4.158-1.814 2.238-1.814 2.985 0 2.985 2.666 0 6.72-8.635 5.12-11.194-1.387-2.452-9.174-1.919-9.174.64zm182.72 7.355c.854 2.346-.32 3.199-5.12 3.199-3.626 0-8 1.812-10.24 4.37-4.053 4.478-3.946 4.478 1.707 2.985 14.08-3.518 29.653-11.087 25.173-12.259-2.453-.533-3.84-.213-3.2.853.64 1.066-.32 1.918-2.133 1.918s-3.307-.959-3.307-2.132c0-1.172-.96-2.132-2.026-2.132-1.174 0-1.6 1.386-.854 3.198zm30.187.107c-.64.533-3.093 1.492-5.547 1.919-2.346.533-8.533 2.772-13.546 5.117l-9.28 4.157 6.933 1.599c3.84.747 6.933 2.346 6.933 3.305 0 4.371 3.84 1.493 4.8-3.411.854-4.691.427-5.224-3.52-4.158-3.52.96-3.84.747-1.28-.959 4.16-2.985 11.307-2.985 14.294 0 1.706 1.706 2.24.853 2.026-3.198-.213-3.092-.426-5.544-.533-5.544-.107 0-.64.533-1.28 1.173zm64.96 7.036c-11.307 4.157-11.307 2.985 1.92 36.458 11.947 29.956 12.16 30.276 25.28 23.56 17.173-8.742 17.92-35.286 1.6-55.647-6.933-8.635-14.507-9.808-28.8-4.371zm23.68 11.087c12.587 14.818 13.227 35.392 1.28 41.575-8.107 4.158-7.573 4.478-11.84-7.036-2.027-5.543-5.973-15.777-8.853-22.813-7.574-18.336 6.72-26.971 19.413-11.726zm-284.48-10.341c-33.173 5.437-36.373 10.447-7.147 10.98 17.6.427 19.52 0 21.227-3.837 1.067-2.452 4.053-4.691 6.72-5.011 2.667-.426 4.8-1.386 4.8-2.132 0-2.239-12.373-2.239-25.6 0zm486.72 7.143c-8.64 4.051-16.427 7.355-17.493 7.355-3.52 0-42.24 19.082-43.84 21.641-2.134 3.411 15.68.533 21.973-3.625 2.667-1.705 6.613-3.091 8.853-3.091 2.24 0 4.694-1.493 5.44-3.305.64-1.812 2.134-2.878 3.2-2.132.96.64 3.094-.32 4.48-2.026 1.494-1.812 4.694-3.198 7.147-3.304 2.56 0 7.04-1.386 9.92-3.092 7.04-3.944 10.667-3.944 10.667.107 0 6.289 7.573-.533 8.106-7.249.64-9.275-1.173-9.381-18.453-1.279zm-367.36 19.615c-3.627 4.264-3.84 4.69-5.547 13.112-.853 4.584-2.133 5.97-4.693 5.224-2.773-.853-2.88-.747-.64.959 2.027 1.386 2.24 2.452.533 3.518-1.28.746-2.346.639-2.346-.32-.107-2.239-4.16 4.158-4.267 6.503 0 1.066 1.28.853 2.88-.427 1.6-1.385 3.413-1.812 4.16-1.172 1.92 1.919 12.267-20.681 10.667-23.24-.747-1.386 0-1.705 2.026-.959 1.92.746 3.84.213 4.374-1.173.533-1.386 2.026-.213 3.413 2.772 1.493 3.518 2.133 3.944 1.813 1.279-.853-6.716-8.64-10.554-12.373-6.076zm58.24 1.599c-12.8 5.863-12.8 5.756-6.613 19.508 2.453 5.757 7.68 18.443 11.52 28.463 4.16 10.981 8.32 18.443 10.346 18.763 4.8 1.066 4.374-6.29-.853-16.63-9.813-19.296.32-22.601 16-5.331 8.213 8.955 11.413 11.194 13.867 9.701 2.666-1.705 1.386-3.944-6.827-12.259l-10.027-10.234 1.28-12.153c2.134-21.214-8.853-28.89-28.693-19.828zm18.987 6.716c7.36 6.609 4.906 15.031-5.974 20.574l-6.613 3.518-4.373-10.554-4.374-10.553 5.654-2.985c7.786-4.158 11.093-4.158 15.68 0zm-166.72-2.985c.106 5.65 2.133 8.955 5.866 9.274 6.187.533 6.934 1.066 6.934 4.904 0 3.944.853 3.838 15.893-1.599 14.507-5.117 15.467-5.863 11.2-8.102-3.627-1.812-34.773-9.274-39.04-9.274-.427 0-.853 2.132-.853 4.797zm281.813 4.371c-1.28 1.279-2.347 3.837-2.347 5.65.107 2.878.32 2.878 2.027.106 4.053-6.396 7.253.853 4.16 9.381-3.413 9.488-.64 13.752 6.4 9.914 5.333-2.878 5.867-6.502 1.067-6.502-2.56 0-3.2-1.28-2.24-4.691 2.56-10.021-3.52-19.402-9.067-13.858zm-229.973 1.918c1.706 1.067 1.28 1.6-1.174 1.706-2.026 0-3.733 1.493-3.733 3.305s-1.067 2.665-2.24 1.919c-3.307-2.026-25.493 7.569-25.493 10.98 0 1.706.853 2.985 1.813 2.985 1.067 0 1.493 2.665 1.067 5.863-.854 5.33-.64 5.543 1.813 1.812 1.493-2.238 4.48-5.543 6.507-7.355 2.026-1.919 3.733-4.478 3.733-5.864 0-1.385 2.453-2.984 5.333-3.518 4.16-.746 5.334-.106 5.334 2.985 0 2.132 1.066 3.945 2.24 3.945 1.386 0 1.706-1.813.853-4.584-1.173-3.625-.747-4.371 2.027-3.305 1.813.746 3.413.426 3.413-.746 0-1.066 1.067-2.026 2.347-2.026s1.813 1.386 1.173 3.198c-2.133 5.437 2.027 3.518 4.587-2.132 1.386-2.878 3.626-4.903 5.12-4.584 1.493.427 2.026.32 1.173-.213-.853-.533-1.6-2.132-1.6-3.624 0-1.813-2.88-2.665-8.427-2.559-4.586.107-7.253.96-5.866 1.812zm418.24 8.635c-.96 1.493-1.494 4.265-1.174 6.077.64 3.731-10.24 9.381-14.933 7.782-1.493-.533.853-2.239 5.227-3.838 4.373-1.599 8-3.731 8-4.797 0-3.198-11.84.533-29.227 9.274-9.173 4.584-17.813 8.422-19.307 8.422-1.493 0-2.666 1.386-2.666 3.198 0 4.158.213 4.158 11.84-2.025 5.44-2.985 10.56-5.224 11.306-5.117 4.16.533 6.827-.533 5.654-2.452-.747-1.173.213-2.132 2.026-2.132 1.814 0 3.307.746 3.307 1.706 0 1.599-78.507 41.042-81.6 40.935-3.947-.106-1.067-3.944 4.8-6.396 3.52-1.492 6.4-3.305 6.4-4.157 0-2.026 10.56-6.823 12.48-5.65 1.92 1.172 9.92-4.691 8.427-6.29-1.174-1.173-6.827 1.066-30.507 11.833-7.04 3.198-18.027 8.102-24.533 10.767-6.4 2.665-13.12 5.97-14.934 7.356-1.706 1.386-5.12 3.198-7.466 4.051-10.134 3.518-20.16 8.954-21.12 11.3-1.28 3.091 2.773 1.705 15.146-5.117 5.227-2.879 10.347-4.265 12.587-3.412 2.24.853 3.2.533 2.347-.853-.747-1.279 1.28-2.238 5.12-2.345 3.52-.106 7.893-1.279 9.6-2.772 1.706-1.385 3.626-1.918 4.373-1.279 2.24 2.346-88.96 45.627-92.907 44.134-.426-.213-1.386.533-2.133 1.706-.64 1.066-10.347 6.396-21.547 11.62-11.093 5.33-35.52 16.95-54.186 25.904-34.667 16.631-39.36 18.549-32.107 13.113 3.947-2.985 3.947-3.092-1.173-2.026-5.227.96-5.227.96-.534-1.172 2.667-1.173 6.294-1.599 8-.853 2.347.853 2.88.213 1.92-2.239-.746-1.919-.213-3.411 1.174-3.411 1.386 0 1.92.959 1.173 2.132-2.027 3.198 1.6 2.452 6.4-1.386 4.16-3.198 4.16-3.305-.853-1.812-3.627 1.066-4.587.853-3.414-1.066.854-1.386 3.307-2.026 5.547-1.493 2.24.64 4.587.213 5.227-.853.746-1.066 2.24-1.385 3.306-.746 2.88 1.812 13.014-5.117 11.414-7.782-.854-1.279.746-1.599 4.16-.746 4.053 1.066 5.866.426 6.826-2.026.747-1.918 2.454-3.411 3.734-3.198 3.946.427 12.053-2.665 12.053-4.69 0-.96 1.6-1.173 3.52-.427 2.773 1.066 3.307.533 2.24-2.345-.853-2.025-.64-3.198.32-2.558 2.667 1.599 17.6-4.158 15.787-6.184-.854-.959-.427-1.066.96-.213 1.493.746 4.586-.533 6.933-2.878 2.453-2.452 6.08-4.371 8.107-4.371 2.026 0 6.506-1.492 9.813-3.198 3.413-1.812 7.36-3.198 8.96-3.198 1.493 0 3.413-1.919 4.16-4.264.747-2.345 3.2-4.264 5.44-4.264 2.347 0 4.16-.853 4.16-1.919 0-4.691-15.04-1.493-16.32 3.411-.64 2.665-2.027 4.371-2.987 3.838-1.92-1.173-22.826 8.422-100.16 46.266-28.693 14.072-54.186 26.331-56.533 27.29-4.693 2.026-33.6 15.351-58.667 27.078-8.746 4.051-17.386 8.315-19.2 9.381-4.693 2.878-46.826 24.732-55.36 28.783-4.053 1.812-10.773 3.944-14.933 4.477-4.16.64-12.587 4.371-18.56 8.422-6.08 3.944-12.693 7.143-14.613 7.143-2.027 0-6.187 2.025-9.28 4.477-3.094 2.452-13.12 8.528-22.187 13.645-18.667 10.341-19.2 10.128-21.44-7.142-1.28-10.767-14.293-27.824-23.68-31.129-10.027-3.624-12.907.32-13.653 18.443l-.64 15.884 19.2 8.955c10.453 4.903 19.733 8.848 20.48 8.848.853 0 3.733 1.812 6.506 3.944 6.4 5.01 20.48 3.091 26.774-3.731 2.346-2.452 5.013-4.477 6.08-4.477 1.6 0 24.746-17.697 27.84-21.321 6.613-7.676 13.226-10.128 21.866-8.315 18.987 4.051 19.627 4.264 16.747 6.076-2.027 1.173-.747 3.518 4.693 8.848 4.054 4.051 7.787 9.061 8.214 11.3.426 2.239 2.133 4.584 3.733 5.117 2.027.64 2.56-.106 1.707-2.345-.64-1.919.106-3.838 2.026-4.478 4.8-1.812 4.907-1.812 7.147 4.158 2.347 6.076 14.933 1.812 14.933-5.01 0-1.919 1.28-2.559 3.307-1.706 1.92.64 5.44.213 7.893-1.173 6.294-3.304-13.226-10.98-23.253-9.061-5.12.959-7.573.213-10.987-3.411-2.453-2.665-8-5.117-13.12-5.757-14.4-2.025-10.986-8.208 4.16-7.675 21.547.639 24.534 1.172 28.8 4.797 2.347 2.025 11.52 6.396 20.267 9.701 9.387 3.624 18.133 8.635 21.227 12.153 2.986 3.304 6.506 5.969 7.893 5.969 1.387 0 9.28 3.412 17.6 7.676 14.933 7.569 34.347 12.366 31.467 7.782-.747-1.173.106-3.411 1.813-4.797 8.427-7.036 4.053-16.097-11.52-24.093-8.213-4.264-28.587-14.818-45.333-23.452-16.854-8.635-32-16.311-33.814-16.951-7.893-2.771 69.974-42.215 84.16-42.641 3.52-.107 19.52-6.29 35.307-13.859 15.893-7.568 30.933-14.604 33.6-15.67 2.667-.96 4.8-2.772 4.8-4.051 0-1.173 1.493-2.132 3.307-2.132 1.813 0 7.253-1.919 12.16-4.264 9.066-4.371 18.666-5.224 26.133-2.239 4.267 1.706 9.6-.746 9.6-4.371 0-2.558-7.147-2.452-9.813.213-1.387 1.386-2.24.64-2.347-2.025-.427-4.691 5.653-7.462 11.84-5.544 3.733 1.173 7.573-1.492 9.173-6.289.427-1.173 4.8-2.026 9.814-1.812 8.533.319 9.92-.64 9.386-6.716-.213-1.919 21.974-13.859 25.707-13.859.853 0 6.613-2.239 12.8-5.117 13.333-5.97 21.333-8.741 23.68-8.102.853.32 4.693-2.345 8.427-5.756 3.626-3.518 12.373-9.275 19.413-12.899l12.8-6.61 4.587 4.371c2.453 2.345 5.76 4.264 7.146 4.264 1.494 0 2.134.959 1.387 2.132-.747 1.173 1.173 2.132 4.587 2.132h5.866l-7.36 7.143c-4.053 3.944-8 6.822-8.746 6.396-.747-.32-4.8 1.705-9.067 4.584-6.4 4.371-19.733 11.406-29.973 15.777-1.174.427 1.28-2.025 5.333-5.65 4.053-3.518 8.107-6.503 9.067-6.609 2.773-.32 8.96-7.356 8.96-10.234 0-1.599.96-2.985 2.133-3.092 3.84-.32 7.467-4.477 7.467-8.528 0-6.503-2.347-5.01-22.827 14.072-21.76 20.254-19.84 19.295-29.547 14.711-6.826-3.198-7.466-3.198-12.906 1.066-3.094 2.452-6.72 4.477-8.107 4.477-1.28.107-4.693 1.919-7.68 4.265-2.88 2.345-7.893 4.157-10.987 4.264-5.653 0-11.413 4.584-8.96 7.142.747.746 2.774.213 4.374-1.066 2.133-1.812 4.266-1.812 8.426.107 7.04 3.198 5.76 4.477-5.226 5.117-4.8.319-9.387 1.279-10.24 2.025-.747.853-4.054-.106-7.36-2.025-5.654-3.305-12.694-2.665-12.694 1.172 0 1.066 1.707 2.452 3.734 2.985 2.026.64 5.653 1.812 8 2.665 2.666.853 3.306.747 1.706-.426s2.347-1.812 10.134-1.812c6.933.106 12.693.852 12.693 1.812 0 .959 1.493.32 3.2-1.386 1.813-1.812 3.2-5.01 3.2-7.142 0-4.158 7.787-10.341 8.96-7.036 1.173 3.624 10.24-.32 10.24-4.478 0-2.878 1.493-4.051 5.44-4.051 3.093 0 4.907.96 4.16 2.133-.747 1.172-2.88 2.132-4.8 2.132-1.813 0-2.773.639-2.027 1.385 2.24 2.239 16.96 1.6 23.254-.959 10.133-4.158 60.48 12.686 53.333 17.909-3.093 2.346-2.453 2.559 4.907 1.919 10.026-.959 16.533.533 14.826 3.305-.64 1.173.854 1.812 3.414 1.492 6.826-.746 9.706 5.011 7.146 14.712-1.173 4.584-3.2 7.995-4.693 7.675-1.387-.32-2.56.853-2.56 2.559 0 1.705-.853 3.624-1.92 4.264-2.773 1.706-8.747-.96-8.747-3.731 0-1.599.854-1.493 2.56.213 3.947 3.944 5.227 3.091 4.694-3.625-.32-4.583.746-6.502 3.626-7.249 2.24-.639 4.054-2.238 4.054-3.518 0-3.091-7.254-1.066-15.467 4.478-3.2 2.132-8.747 5.863-12.16 8.208-3.52 2.346-7.253 4.264-8.427 4.264-1.066 0-2.346.747-2.666 1.706-.427.853-5.547 4.478-11.414 7.995-10.133 5.97-10.346 6.29-4.8 6.93 3.2.426 5.867 1.705 5.867 2.878 0 1.386-3.307 1.599-8.853.746-6.187-1.066-8.32-.853-7.254.853.747 1.279 3.734 2.345 6.614 2.345s5.226.96 5.226 2.132c0 3.305-9.28 4.691-22.72 3.305-8.64-.853-11.52-.533-9.28.96 1.814 1.066 5.654 2.132 8.534 2.132 4.906.106 5.013.319 1.6 2.985-3.627 2.771-3.52 2.984.746 4.05 4.8 1.28 19.84-5.436 17.494-7.782-.747-.746.106-1.385 1.92-1.385 4.266 0 15.36-5.544 28.373-14.179 5.867-3.944 12.053-7.142 13.867-7.249 1.706 0 5.866-2.238 9.173-4.904 5.973-4.903 5.973-4.903 17.067-1.066 19.52 6.716 45.546-3.624 45.76-18.335.106-6.503.106-6.503-3.094-1.706-1.813 2.665-4.693 4.797-6.506 4.797-2.027 0-2.667 1.279-1.814 3.411.96 2.665.427 3.092-2.346 2.026-2.027-.746-2.987-.746-2.24.106 2.026 2.026-2.347 7.249-5.974 7.249-1.813 0-3.093-3.304-3.52-9.061l-.64-9.061-23.466-9.914c-12.907-5.437-24.64-11.087-26.134-12.366-1.493-1.386-3.733-1.813-4.906-1.066-1.174.746-3.414.426-4.8-.747-1.387-1.172-6.827-3.624-12.16-5.436-5.227-1.919-13.44-4.904-18.134-6.716-8.853-3.412-8.746-3.412 8.534-.64 3.52.533 4.373-.746 4.906-7.356.427-4.37 1.6-7.995 2.667-7.995 1.173 0 1.813-1.066 1.493-2.452-.32-1.279 4.054-5.117 9.6-8.422 11.094-6.609 29.334-6.929 29.334-.533 0 3.412 9.706 3.945 11.84.64.853-1.492 2.24-1.492 4.373.213 1.6 1.386 2.56 3.198 2.027 3.945-.534.852 0 2.878.96 4.477 1.6 2.558 2.133 2.452 3.306-.64 1.707-4.477 5.227-4.797 5.227-.426 0 1.812 1.92 3.198 4.267 3.198 2.346 0 4.266-1.066 4.266-2.239 0-1.279-.96-1.705-2.133-.959-1.173.746-2.133.32-2.133-.96 0-3.411 6.4-2.665 7.786.96.854 2.132 4.16 3.198 10.56 3.198 9.814 0 11.627-1.919 6.187-6.396-1.707-1.386-2.667-3.412-2.133-4.371.64-.853-2.027-2.345-5.867-3.091-3.84-.747-18.453-4.158-32.533-7.463-14.08-3.304-29.867-6.609-35.2-7.462-19.734-2.878-28.8-7.676-19.734-10.447 8.427-2.665 18.347-1.173 54.934 8.102 48 12.259 44.586 12.366 42.986-1.173-1.28-11.193-3.413-15.671-5.013-10.874-.747 1.919-2.027 2.026-5.227.32-5.653-2.985-10.666-.959-8.853 3.731.96 2.452.533 3.092-1.173 2.026-1.6-.96-2.027-3.518-1.174-6.29 1.174-3.731.96-4.051-1.493-2.132-1.6 1.386-3.947 2.772-5.12 3.198-1.173.32-1.813 1.813-1.493 3.305.32 1.599-.64 2.239-2.56 1.492-1.707-.639-2.667-2.558-2.027-4.264 1.493-3.731-2.133-3.837-7.787-.319-3.093 1.918-5.226 2.025-7.893.319-2.453-1.492-6.72-1.599-12.373-.426-24.107 5.117-20.374-1.493 8.533-15.138 15.253-7.249 30.187-14.605 33.067-16.31 2.986-1.706 8.96-4.691 13.333-6.61 7.68-3.411 8-3.944 8-13.858 0-10.021-2.24-13.112-5.653-7.676zm-354.667 177.815c-26.56 12.793-41.707 18.123-20.587 7.143 5.334-2.665 9.174-5.543 8.64-6.396-.533-.853 1.707-1.066 4.907-.64 4.693.746 5.12.533 2.56-1.492-2.667-2.026-2.453-2.239 1.173-1.173 2.454.64 6.294-.213 8.534-2.025 4.053-3.199 4.053-3.199-.107-1.919-2.56.746-1.813-.214 1.92-2.665 3.307-2.133 9.6-4.051 13.867-4.265 6.4-.213 2.986 2.026-20.907 13.432zm-89.813 62.47c0 5.97 0 6.077-14.4 6.183l-14.4.214 12.693-7.25c14.08-8.101 16.107-7.995 16.107.853zm-32.214-5.436c-4.266 3.837-19.626 9.914-16.96 6.716 1.707-2.133 5.12-4.584 7.467-5.544 4.48-1.812 11.093-2.665 9.493-1.172zm59.947-225.254c0 1.279-1.92 2.985-4.267 3.731-2.346.746-3.84 2.132-3.306 3.091.64.96-.747 2.239-3.094 2.879-2.346.639-4.266 2.345-4.266 3.944.106 2.345.426 2.345 1.92 0 1.173-1.919 2.24-2.132 3.2-.64 1.813 2.879-6.614 11.62-9.494 9.915-1.066-.747-2.026-.32-2.026.852 0 5.011 4.906 4.371 9.706-1.172 6.507-7.463 14.4-22.174 12.8-23.773-.64-.64-1.173-.107-1.173 1.173zm-57.173 8.741c-5.12 2.132-9.174 4.691-9.067 5.757.107 1.172-3.413 2.452-7.787 3.091-4.586.64-8.106 2.239-8.106 3.838 0 1.493-1.387 3.625-3.094 4.691-1.813 1.066-2.453 2.665-1.493 3.624.96.96 2.987 0 4.48-2.025 1.493-2.026 3.84-3.731 5.12-3.731 1.387 0 2.453-1.066 2.453-2.346 0-1.279 1.387-1.812 3.094-1.172 1.813.639 3.84.213 4.586-1.066.747-1.28 4.587-1.706 9.067-.96l7.787 1.279-6.4-2.878-6.4-2.878 9.173-2.559c5.013-1.386 8.533-3.411 7.787-4.584-.64-1.066-1.387-1.919-1.6-1.919-.214.107-4.587 1.813-9.6 3.838zm71.04-.639c-26.774 13.752-5.547 73.45 23.573 66.201 22.293-5.65 15.04-53.409-10.133-66.521-6.934-3.625-5.654-3.625-13.44.32zm13.12 8.421c14.72 10.234 21.44 42.002 10.453 49.145-15.68 10.34-38.507-34.22-24.64-48.079 5.12-5.117 8.213-5.33 14.187-1.066zm30.72-6.929c-.107 2.026-.96 3.731-2.027 3.731-1.067 0-1.707 2.345-1.6 5.117.213 2.878.96 4.691 1.707 4.264.853-.533 1.92.32 2.346 1.813.534 1.492 1.6-.427 2.454-4.158.96-3.944.64-8.528-.64-10.66-2.134-3.625-2.24-3.625-2.24-.107zm84.16 1.493c-.64 1.172.746 4.05 3.2 6.502 2.453 2.452 5.013 7.249 5.653 10.767 1.28 6.183 5.013 8.848 5.013 3.625.107-11.407-10.133-26.758-13.866-20.894zm-295.04 5.543c-2.134 2.452-9.067 3.091-32.534 3.091-27.84 0-36.373 1.813-26.346 5.757 2.986 1.066 2.773 1.706-1.28 3.838-5.654 2.985-2.88 5.65 4.053 3.837 2.88-.746 4.267-2.345 3.627-4.157-.854-2.239 1.6-2.878 11.093-3.092 20.373-.213 43.307-1.385 44.053-2.238.32-.427 1.28-2.879 2.134-5.544 1.706-5.436-.64-6.183-4.8-1.492zm569.066 9.274c2.88 5.437 7.147 5.97 6.08.747-.32-2.026-2.453-4.051-4.586-4.478-3.307-.639-3.52-.106-1.494 3.731zm-496.853 5.437c-5.12 6.183 5.547 10.874 17.067 7.569 3.626-1.066 6.72-.853 8.213.64 1.707 1.705 2.347 1.386 2.347-1.28 0-3.411-8.534-5.117-18.667-3.731-1.493.107-2.667-1.172-2.667-2.985 0-4.157-2.986-4.264-6.293-.213zm-82.24 3.625c.747 1.919.32 4.157-.96 4.904-1.173.746-2.24.213-2.24-1.173 0-1.493-.533-2.026-1.28-1.386-.64.64 0 3.518 1.493 6.183l2.667 5.01 1.707-6.396c1.066-3.838.853-7.142-.534-8.528-1.493-1.493-1.706-1.066-.853 1.386zm43.2.32c-6.827 2.665-6.613 6.502.32 7.568 7.893 1.066 11.84-1.279 8.64-5.117-2.24-2.665-2.027-2.984 1.173-1.705 2.667.959 3.414.639 2.347-1.066-1.813-2.879-4.48-2.879-12.48.32zm27.52.426c-.747 1.706-2.773 3.198-4.48 3.198-1.813 0-3.307.96-3.307 2.026 0 1.172 3.52 1.599 7.894 1.066 7.466-.96 12.586-3.092 7.36-3.092-1.28 0-2.454-1.492-2.454-3.198 0-1.812-.853-3.198-1.92-3.198-1.066 0-2.453 1.386-3.093 3.198zm45.547-1.066c0 .64 1.92 2.345 4.266 3.731 3.627 2.239 4.267 2.132 4.267-.64 0-1.812.96-2.771 2.133-2.025 1.174.746 2.134.426 2.134-.64s-2.88-1.812-6.4-1.705c-3.52.106-6.4.746-6.4 1.279zm159.68 9.274c2.24 2.666 2.346 3.518.32 3.518-2.134 0-2.134.64 0 3.199 3.626 4.37 6.613 4.05 4.906-.533-1.28-3.305-.96-3.412 2.24-.747 2.027 1.599 4.267 2.346 5.014 1.599.746-.746 0-1.386-1.494-1.386-1.92 0-1.493-1.172 1.174-3.304 4.053-3.305 3.946-3.412-.96-2.346-2.88.64-7.147.107-9.6-1.172-4.054-2.132-4.16-2.026-1.6 1.172zm-282.774 2.133c1.92 4.903-.213 5.436-25.173 6.076l-21.333.64-.64 12.259c-.854 15.564-3.734 16.097 53.546-8.422 10.347-4.477 12.054-7.142 3.734-6.183-4.374.427-6.507-.213-6.507-2.025 0-1.599-1.173-3.518-2.453-4.371-1.707-1.066-2.134-.426-1.174 2.026zm116.694-.32c0 1.492 1.92 12.686 4.266 24.732 6.4 32.727 5.76 32.727-12.053 2.025-5.333-9.061-10.56-17.056-11.733-17.803-3.2-1.918-8.534 3.732-7.04 7.463 5.653 14.071 10.346 51.596 5.333 42.748-7.467-13.006-24.853-40.403-25.707-40.296-7.68 0-5.76 5.117 12.907 33.686 28.053 42.962 29.547 41.363 17.813-18.868-2.026-10.341.96-7.143 15.787 17.269 6.72 10.981 13.12 19.509 14.293 18.976 5.44-2.772-4.16-70.892-10.133-72.064-2.027-.427-3.733.533-3.733 2.132zm114.026 6.183c-.853 1.279-.32 3.091 1.174 4.051 1.493.959 1.92 2.771.96 4.37-.96 1.706-.747 2.133.746 1.28 1.28-.853 3.414 1.599 5.014 6.076 1.493 4.051 3.413 7.462 4.373 7.462 2.667 0 2.133-2.771-2.88-14.604-4.587-10.981-6.72-13.006-9.387-8.635zm173.12 9.381c-4.373 2.878-8.533 5.33-9.386 5.33-.854 0-4.374 2.559-7.894 5.543-7.786 6.823-.32 5.65 9.92-1.599 3.094-2.132 6.614-3.944 7.787-3.944 1.067 0 3.2-1.386 4.587-3.091 1.386-1.706 3.946-2.559 5.546-1.919 1.92.746 3.094-.107 3.094-2.239 0-4.904-4.587-4.264-13.654 1.919zm-264.32 15.99c-.64 2.346-.213 4.265.96 4.265 1.174 0 1.494.959.747 2.132-.747 1.279.213 1.492 2.453.639 2.24-.853 2.774-1.705 1.174-2.238-1.814-.64-1.92-2.026-.32-5.011 1.706-3.091 1.493-4.051-.854-4.051-1.706 0-3.52 1.919-4.16 4.264zm226.774 1.067c-1.494 1.812-2.347 3.624-1.92 4.05 1.6 1.493 10.453-2.878 10.453-5.01 0-3.305-5.547-2.665-8.533.96zm-361.6 9.061c-9.387 4.904-11.414 5.863-29.974 13.219-16.64 6.503-22.293 10.767-22.293 16.63 0 2.132 1.92 2.452 7.573 1.386 5.867-1.066 8.214-.533 10.347 2.452 2.987 4.051 11.2 2.771 8.64-1.28-.747-1.279-2.667-1.812-4.267-1.279-1.493.64-3.733-.106-5.013-1.492-1.6-2.026.213-3.518 7.36-6.183 9.387-3.518 11.84-2.665 6.933 2.238-1.92 1.919-.746 1.919 4.8.214 4.054-1.28 9.494-2.879 12.16-3.412 7.254-1.705 8-4.904 1.28-4.904h-5.973l5.333-3.624c6.614-4.584 8.64-7.462 7.36-10.767-.533-1.493.427-2.665 2.027-2.665 1.707 0 3.627-.96 4.373-2.132 1.92-3.092-3.2-2.239-10.666 1.599zm507.306 3.411c-13.76 8.315-13.44 9.594 3.734 15.351 7.573 2.452 19.093 6.61 25.493 9.168 15.147 5.863 14.827 5.97 29.013-3.091 9.28-5.97 11.414-8.209 9.174-9.808-2.027-1.386-.427-1.599 5.013-.746 9.813 1.705 10.56-1.813 1.173-5.011-6.08-2.132-7.253-1.919-11.2 2.665-9.6 11.194-17.493 14.712-26.24 11.94-12.16-3.944-12.266-4.264-2.346-10.234 8.32-5.01 8.746-5.756 4.266-6.396-2.666-.32-8.426 1.706-12.8 4.477-6.72 4.478-8.64 4.904-14.613 2.879-10.133-3.518-10.24-4.691-.853-9.062 8.746-4.051 11.733-9.488 5.013-9.061-2.027.106-8.747 3.305-14.827 6.929zm-367.573 11.513c0 4.371-.64 10.234-1.387 13.006-1.28 4.691-.96 5.01 5.334 3.625 4.266-.96 6.72-.64 6.72.746 0 1.279.96 2.345 2.133 2.345 3.307 0 2.56-9.807-.96-12.686-1.707-1.386-3.627-5.33-4.373-8.741-2.027-9.381-7.467-8.102-7.467 1.705zm167.893 3.518c-9.706 4.371-11.306 7.676-3.733 7.676 8.107 0 20.053-8.848 15.467-11.407-.854-.426-6.08 1.279-11.734 3.731zm-21.76 9.808c-5.013 5.437-.96 5.543 5.654.106 3.84-3.198 4.16-4.264 1.6-4.264-1.814-.106-5.12 1.813-7.254 4.158zm164.587 3.198c-1.813 1.706-5.12 3.198-7.467 3.198-7.04 0-6.933 3.092.107 6.29 3.627 1.492 6.933 4.584 7.573 6.609.534 2.239 2.24 3.411 3.947 2.665 2.027-.746 2.667-.106 1.813 2.132-.746 1.706-.213 3.838 1.067 4.584 3.2 2.026 11.093-.853 9.493-3.411-.853-1.493-2.133-1.386-3.626.107-3.414 3.411-6.4 2.878-4.907-.96.64-1.812-.107-3.731-1.92-4.477-1.813-.64-3.2-2.559-3.2-4.158 0-1.599-1.173-2.772-2.667-2.452-1.493.32-2.666-.959-2.666-2.665 0-1.812 1.28-2.985 2.773-2.665 1.6.427 2.24-.32 1.493-1.599-.746-1.173.854-3.091 3.627-4.157 3.413-1.386 3.84-2.026 1.28-2.133-1.92 0-5.013 1.28-6.72 3.092zm-32.32 1.066c-4.587.853-9.707 1.173-11.2.533-1.493-.533-2.667.32-2.667 1.919 0 3.305 11.947 4.797 13.974 1.706.64-1.067 4.053-2.026 7.573-2.026 3.733 0 5.867-.853 5.12-2.132-.747-1.173-2.027-2.025-2.773-1.919-.854.213-5.334.96-10.027 1.919zm-149.76 1.492c-9.387 1.813-10.88 7.463-1.707 6.61 5.76-.427 8.32-1.706 8.64-4.371.32-2.025 0-3.624-.853-3.411-.747.106-3.52.639-6.08 1.172zm-281.387 2.666c-3.626.852-7.893 2.451-9.6 3.411-1.6 1.066-5.013 1.599-7.573 1.279-2.56-.32-5.333.533-6.187 2.026-1.173 1.812-.106 2.132 3.947 1.172 2.987-.746 5.973-.639 6.613.32 2.027 3.305 15.787.213 16.854-3.838.533-2.132 3.306-4.37 6.08-4.903 3.733-.64 3.946-.96.746-.96-2.346-.107-7.253.64-10.88 1.493zm442.027 5.543c-.747 2.132-.427 2.772 1.28 1.812 1.6-1.066 1.92-.32.96 2.239-1.067 2.772-.64 3.411 1.6 2.558 1.707-.639 3.52 0 3.947 1.28.533 1.705 1.28 1.812 2.24.213 1.28-2.132-4.907-11.407-7.574-11.407-.64 0-1.706 1.493-2.453 3.305zm135.253 3.091c-2.88 2.346-4.053 4.158-2.56 4.265 3.094 0 15.36-5.97 15.36-7.569 0-2.452-8-.427-12.8 3.304zm-569.066-.746c-4.8 1.919-2.88 5.33 2.133 3.838 6.827-2.026 9.813-5.224 4.693-5.01-2.24 0-5.333.639-6.826 1.172zm248.426 2.985c-2.026 2.345-6.506 4.797-10.026 5.544-8.534 1.705-8.107 3.944.533 3.837 9.173-.213 14.4-2.771 13.013-6.503-.64-1.599-.106-2.985 1.174-2.985s2.346-.959 2.346-2.132c0-3.411-2.986-2.451-7.04 2.239zm110.08-2.025c-1.28 1.279-1.706 6.396-1.173 11.513 1.28 10.98-4.053 13.965-16.96 9.914-23.04-7.462-38.72-5.543-23.36 2.878 5.44 2.879 5.44 2.985.853 3.092-2.666.106-4.8 1.172-4.8 2.558 0 1.493 2.667 1.919 7.467 1.173 5.333-.853 7.467-.426 7.467 1.599 0 2.665 10.666 6.076 12.693 4.051 1.387-1.386-4.693-4.904-6.507-3.838-.853.533-2.026-.533-2.666-2.238-1.494-3.732.96-4.265 4.373-.853 1.6 1.599 3.093 1.386 5.12-.853 2.453-2.559 3.307-2.559 5.12-.213 4.8 6.396 21.12 5.01 33.387-2.772 13.973-8.955 25.173-8.102 49.813 3.624 2.347 1.173 11.627 4.798 20.587 8.209l16.32 6.183 5.013-4.584c2.773-2.452 7.893-5.757 11.413-7.356 11.734-5.117 26.667-15.67 25.28-17.802-.746-1.386.427-1.6 3.094-.747 3.2.96 5.12.107 6.72-2.985 2.346-4.264-.427-6.502-2.88-2.558-1.6 2.558-20.374 7.675-26.347 7.142-2.667-.213-4.8.427-4.8 1.493 0 2.452 8.213 4.584 9.6 2.452 1.387-2.452 9.6-4.264 9.6-2.239 0 4.371-27.413 14.498-43.733 16.204-9.92.959-10.347.853-6.4-2.132 2.346-1.813 5.76-3.305 7.466-3.412 2.88-.106 2.88-.319 0-2.132-2.773-1.812-2.666-2.025.32-2.132 2.027 0 3.947.746 4.267 1.706.427.959 4.587.533 9.28-.853 4.693-1.492 6.72-2.772 4.587-2.772-2.56-.106-3.52-1.279-2.774-3.304.747-2.026.107-2.665-1.92-1.919-1.706.639-3.093 2.665-3.093 4.477 0 2.665-.533 2.665-3.307.533-2.56-2.238-4.373-2.238-9.066 0-8.107 3.945-21.654 4.264-29.014.746-3.413-1.599-8.96-2.878-12.266-2.878-6.187 0-8.214-2.985-3.414-5.117 1.494-.639-.64-.639-4.8.213-13.013 2.346-48.96-7.142-45.866-12.153 1.706-2.771-2.24-4.37-4.694-1.918zm112.107 4.051c7.04 6.502 11.84 7.995 14.08 4.477.64-1.066 2.987-1.493 5.227-.853 2.24.533 4.693-.106 5.546-1.492 2.347-3.731-.533-5.224-4.266-2.132-2.24 1.812-3.2 1.918-3.2.213 0-1.599-1.707-1.279-5.014.853-4.586 2.985-5.226 2.878-9.92-2.132-2.773-2.879-5.973-5.331-7.253-5.331-1.173 0 .96 2.879 4.8 6.397zm-501.333-.107c-4.907 4.158-4.907 4.264-.427 4.264 5.12.107 10.667-5.223 7.467-7.142-1.067-.747-4.267.639-7.04 2.878zm289.28-1.066c-4.054 3.091-4.054 3.198.426 3.198 2.454.107 5.654-1.386 7.147-3.091 3.627-4.371-1.813-4.371-7.573-.107zm-305.28 2.345c-.747 1.812-.747 3.838 0 4.584 1.493 1.493 7.786-3.305 7.786-5.97 0-3.304-6.506-2.132-7.786 1.386zm496.533 2.559c-.213 5.65-1.067 6.929-5.013 7.036-2.667 0-6.72 1.599-9.067 3.411-4.053 3.198-4.053 3.305 2.133 2.025 3.52-.852 7.574-1.599 9.067-1.705 1.493-.214 2.667-1.066 2.667-2.026 0-.959 1.706-1.492 3.733-1.279 2.027.32 3.947-.426 4.267-1.599.32-1.173-.64-2.132-2.134-2.132-1.493 0-3.306-2.452-4.053-5.33-1.173-4.798-1.28-4.691-1.6 1.599zm-42.88-.32c0 2.558 1.28 3.091 4.8 2.239 2.667-.747 5.76-1.386 6.933-1.493 2.667-.213-5.44-3.838-9.066-4.051-1.494 0-2.667 1.493-2.667 3.305zm-426.667.746c-1.706.96-7.36 3.518-12.373 5.65-9.173 3.731-16.96 13.645-14.293 18.016 2.453 3.838 5.546 2.026 7.786-4.371 1.28-3.518 3.094-6.396 4.054-6.396 1.066 0 3.733-2.025 6.08-4.584 2.453-2.558 5.653-3.944 7.573-3.198 1.813.64 3.307.32 3.307-.853 0-1.066 1.813-2.025 4.16-2.025 2.24 0 4.693-.96 5.44-2.132 1.6-2.559-7.147-2.665-11.734-.107zm240.107 9.914c-4.693 1.706-9.067 4.051-9.813 5.33-.747 1.173-4.907 2.452-9.174 2.879-7.573.533-16.32 6.076-16.32 10.234 0 1.066 1.6.32 3.52-1.599 2.454-2.452 5.547-3.198 9.6-2.346 4.694.853 7.68-.213 13.334-5.223 3.946-3.412 8.64-6.29 10.453-6.29 4.8 0 10.027-2.345 10.027-4.477 0-2.452-1.387-2.239-11.627 1.492zm-243.947 2.346c-9.813 4.797-4.373 7.462 6.187 3.091 4.587-1.919 8.32-4.264 8.32-5.117 0-2.665-7.04-1.706-14.507 2.026zm13.334 7.142c-2.027 3.305-.64 3.944 5.973 2.665 3.2-.64 5.333-2.025 4.693-2.985-1.706-2.665-8.96-2.345-10.666.32zm173.973 10.554c0 1.172-1.493 2.132-3.413 2.132-1.92 0-6.08 2.878-9.387 6.396-4.053 4.371-9.173 7.036-15.893 8.315-5.44.96-11.094 3.305-12.48 5.011-3.947 4.797-20.587 10.447-26.88 9.061-3.414-.746-7.254.106-9.814 2.025-4.16 3.092-4.16 3.198.534 3.198 2.666.107 4.8.96 4.8 2.133 0 1.066-2.134 2.665-4.8 3.411-2.667.853-5.547 2.558-6.4 3.944-1.174 1.706-2.134 1.493-3.52-.533-1.067-1.812-3.52-2.345-6.4-1.492-5.654 1.812-5.867 5.437-.32 5.437 2.24 0 4.693.852 5.333 1.918 1.387 2.346 18.24-5.436 18.24-8.315 0-1.172 2.453-2.132 5.44-2.132 3.093 0 4.907-.959 4.16-2.132-.747-1.172.32-2.132 2.24-2.132 1.92 0 7.04-1.812 11.307-4.051 4.266-2.132 10.24-5.01 13.12-6.289 2.986-1.28 3.946-2.133 2.133-1.919-1.707.319-3.413-.427-3.733-1.599-.32-1.173 1.386-2.239 3.733-2.346 2.347-.213 4.267.427 4.267 1.386 0 3.092 12.8-3.198 13.973-6.823.64-2.025 2.88-4.264 4.907-4.903 8.106-2.559 18.666-11.833 13.546-11.833-2.56 0-4.693.959-4.693 2.132zm-161.173 5.223c-3.627 2.772-3.627 3.198-.64 3.198 5.546.107 10.453-2.238 9.173-4.37-1.707-2.665-3.733-2.346-8.533 1.172zm353.066-.746c-1.706.853-5.013 2.239-7.253 2.985-3.627 1.066-3.733 1.599-1.067 3.411 2.667 1.813 2.667 2.026-.106 1.706-6.08-.64-8.747.213-7.467 2.345 2.027 3.305 16.107 2.772 14.827-.639-.64-1.599 1.173-3.625 4.16-4.797 4.053-1.6 4.693-2.559 2.666-4.371-1.386-1.279-4.053-1.599-5.76-.64zm-394.56 1.493c-7.253 1.172-12.16 8.954-5.653 8.954 2.987 0 13.44-8.102 11.84-9.168-.427-.319-3.2-.213-6.187.214zm432.32.533c-30.4 5.01-34.026 31.874-4.373 31.874 3.2 0 7.467 1.493 9.493 3.305 3.414 3.091 23.36-5.224 23.36-9.701 0-2.239-20.266-8.315-22.08-6.503-.96.96.107 2.452 2.667 3.198 7.573 2.452 5.013 5.437-4.587 5.437-30.293-.107-23.466-20.361 7.574-22.92 14.08-1.066 17.28.427 18.88 9.061 1.173 6.503 9.28 5.651 9.28-.959 0-10.021-19.414-16.204-40.214-12.792zm-421.333 5.223c-7.04 7.356-.213 7.356 7.787 0 5.12-4.797 5.333-5.33 1.493-5.33-2.347.107-6.507 2.452-9.28 5.33zm335.68-3.518c3.733 3.412 19.307 5.437 15.787 2.026-1.6-1.599-6.294-3.198-10.454-3.412-4.48-.319-6.613.214-5.333 1.386zm204.267 2.346c-6.187 5.117-6.08 5.863 1.493 6.929 4.16.639 6.72-.107 7.467-2.026 1.706-4.37 1.493-4.903-1.494-4.264-1.493.32-2.453-.639-2.133-2.132.64-3.411.427-3.305-5.333 1.493zm-213.974 2.345c-2.986 1.919-2.56 2.132 4.374 2.772 1.706.213 3.2 1.705 3.2 3.517 0 1.706 1.92 3.518 4.16 3.945 3.413.639 3.733.213 1.813-2.132-1.28-1.599-2.453-3.838-2.56-5.011-.107-1.172-.96-2.132-1.813-2.132-.854 0-2.56-.746-3.84-1.492-1.174-.746-3.627-.533-5.334.533zm234.56 1.705c-5.44 1.919-11.52 4.904-13.546 6.503-4.16 3.625-22.934 4.904-24.854 1.813-3.306-5.011-44.586 26.97-44.586 34.539 0 6.716-2.774 10.447-12.374 17.057-3.946 2.665-6.613 5.33-5.973 5.863.533.64 3.2-.426 5.867-2.345 5.12-3.518 12.48-4.584 12.48-1.812 0 .852 4.586 3.411 10.133 5.649 5.547 2.133 13.547 6.503 17.6 9.701 27.733 21.108 57.92 32.728 60.48 23.24 4.587-17.163 5.547-16.31-57.28-53.515-22.72-13.432-24.32-15.458-14.4-17.803 3.2-.853 6.827-2.025 8-2.772 1.173-.639 6.293-1.385 11.307-1.492 6.186-.213 10.133-1.599 12.16-4.264 1.706-2.239 3.093-2.985 3.093-1.706.107 3.198 12.907 2.665 12.907-.533 0-1.279 2.453-2.985 5.44-3.731 2.986-.746 5.866-2.665 6.506-4.264.64-1.812 2.88-2.452 5.547-1.812 3.413.959 4.053.533 2.773-1.599-1.28-2.133-.746-2.452 1.707-1.493 2.24.853 3.413.32 3.093-1.279-.32-1.386 2.134-2.878 5.334-3.198 3.306-.427 5.333-1.599 4.693-2.665-1.6-2.559-4.053-2.239-16.107 1.918zm-489.386 2.559c-4.694 2.239-14.08 6.076-20.8 8.528-6.72 2.452-13.654 5.864-15.36 7.463-1.6 1.705-4.267 3.198-5.867 3.198-4.373.213-23.68 11.3-24.64 14.285-.533 1.492.32 2.238 1.92 1.705 1.6-.639 8.107-1.492 14.507-2.025 7.893-.64 12.48-2.132 14.4-4.691 1.493-2.132 2.773-2.985 2.773-2.025 0 .853 3.413-.853 7.467-4.051 5.013-3.838 8.96-5.224 11.733-4.371 4.053 1.279 7.04-.746 30.827-20.681 3.946-3.305-8.64-1.386-16.96 2.665zm526.933-.107c3.52 2.346 8.32 4.265 10.667 4.265 2.986 0 1.813-1.28-3.734-4.265-10.346-5.543-15.253-5.543-6.933 0zm-18.133 2.026c-1.707.959-5.547 2.772-8.534 3.944-4.586 1.812-4.8 2.345-1.6 3.625 3.2 1.279 22.934-6.183 22.934-8.742 0-1.492-9.494-.639-12.8 1.173zm-293.014 1.812c-1.92 3.092 2.134 7.036 5.76 5.65 4.48-1.812 4.48-4.371.107-6.076-4.267-1.599-4.693-1.599-5.867.426zm70.614.746c-1.814 1.173-.854 1.813 2.666 1.919 2.987.107 7.04.533 9.067.96 2.027.319 3.733-.107 3.733-.96 0-2.452-12.16-3.944-15.466-1.919zm-107.2 5.97c-1.067 1.919 11.626 8.635 16.213 8.635 1.067 0 1.92 1.386 1.92 3.092 0 5.223-7.893 5.863-25.813 2.238-15.147-3.091-17.814-3.198-20.48-.533-2.667 2.772-1.707 3.305 8.213 4.584 17.387 2.346 21.013 3.518 21.013 7.356.107 11.513 16.107 15.457 32.427 7.995 6.293-2.878 13.973-5.756 17.173-6.503 3.2-.639 5.867-2.132 5.867-3.198 0-4.477 10.56-12.579 14.827-11.406 6.186 1.599 5.44-2.452-1.067-5.437-7.36-3.305-11.733-3.092-10.347.533 1.494 3.838-2.666 11.939-6.186 11.939-1.387 0-12.054-4.797-23.68-10.66-21.12-10.66-27.627-12.473-30.08-8.635zm34.026 18.656c4.16 1.919 7.574 4.264 7.574 5.223 0 3.305-21.547 8.209-25.814 5.97-6.613-3.518-5.013-10.127 2.88-12.472 3.84-1.066 7.147-2.026 7.36-2.133.32-.106 3.84 1.386 8 3.412zm56.64-8.955c0 5.224-.96 7.462-3.2 7.462-1.706 0-3.2 1.173-3.2 2.665 0 6.29-19.093 20.042-22.826 16.311-1.174-1.173-3.734.533-6.72 4.477-6.294 8.529-2.24 8.529 14.72-.106 8.426-4.158 13.546-8.315 14.933-11.833 4.587-12.047 12.16-13.966 20.053-5.224 3.2 3.518 4.16 3.625 9.28.959 6.72-3.411 16-3.837 21.227-.852 2.027 1.066 10.987 5.33 19.733 9.274 8.854 3.944 20.694 9.381 26.454 12.153 9.173 4.371 11.093 4.584 17.066 2.132 3.627-1.492 8.534-2.878 10.88-2.985 6.294-.533 9.6-3.198 9.6-7.889 0-4.903-4.8-5.436-8.533-.959-1.493 1.706-4.053 3.198-5.653 3.198-1.707 0-3.52 1.493-4.267 3.198-1.28 3.518-8.32 4.371-10.24 1.173-2.453-3.944-40.64-20.042-68.373-28.677-9.494-2.984-19.094-6.822-21.334-8.634-6.933-5.117-9.6-4.051-9.6 4.157zm128.854-1.173c5.653 2.879 9.28 3.625 11.733 2.346 4.053-2.346 2.027-3.305-11.52-5.33l-8.533-1.173 8.32 4.157zm91.733-.319c-33.813 13.965-7.253 37.204 32.32 28.356 26.773-6.076 30.4-23.239 6.293-29.849-12.16-3.305-28.48-2.665-38.613 1.493zm43.307 7.355c7.573 7.569-9.28 16.524-31.04 16.524-11.307 0-21.334-5.97-18.24-10.98 5.76-9.381 41.386-13.432 49.28-5.544zm-406.827-.533c0 2.452 15.467 10.661 20.16 10.661 1.813 0 3.307-1.493 3.307-3.198 0-1.919-2.027-3.199-4.8-3.305-2.667 0-6.614-1.386-8.96-3.198-4.694-3.518-9.707-4.051-9.707-.96zm245.333 1.813c0 1.172 1.707 2.558 3.734 3.091 2.026.533-.747 1.066-6.294 1.279-11.733.214-15.04 3.518-6.826 6.716 4.266 1.599 6.293 1.493 7.36-.319.853-1.386 4.8-2.026 9.386-1.493 7.254.853 7.787.533 7.147-4.584-.64-5.437-14.507-9.914-14.507-4.69zm-380.693 19.295c-.64 1.066 2.24 1.812 6.293 1.706 4.16-.107 7.467-.96 7.467-1.919 0-2.346-12.267-2.132-13.76.213zm-21.973 9.061c-.214 3.198.853 4.051 4.373 3.518 5.547-.746 5.547-4.051 0-6.183-3.093-1.066-4.16-.426-4.373 2.665zm239.573 2.239c-1.813 2.665-3.307 5.97-3.307 7.462 0 4.371 4.587 3.198 5.76-1.492.64-2.346 2.027-4.264 2.987-4.264 1.067 0 1.92-1.493 1.92-3.199 0-4.69-3.52-3.944-7.36 1.493zm91.733-2.772c-1.6 2.665 1.814 5.011 22.827 15.138 18.88 9.168 22.08 12.899 14.507 16.95-8.107 4.371-18.134 2.239-39.467-8.422-19.84-10.021-30.507-12.153-28.373-5.863.96 2.772 1.813 3.305 25.28 14.392 28.586 13.538 56.32 10.873 56.32-5.544 0-8.635-47.04-33.154-51.094-26.651zm236.694 10.767c-4.694 2.239-14.507 6.61-21.867 9.808-10.347 4.477-13.333 6.822-13.227 10.34 0 4.371.107 4.371 3.094.427 4.16-5.544 6.4-.107 3.306 8.102-2.453 6.396-1.6 6.396 13.76.426 3.52-1.492 9.28-1.919 12.8-1.066 9.814 2.132 13.867 2.132 13.867-.213 0-1.173-1.707-2.132-3.733-2.239-3.52 0-3.52-.213 0-2.878 2.773-2.132 3.733-5.863 3.733-14.818 0-13.432.107-13.326-11.733-7.889zm-161.067 2.239c0 .853 2.133 3.091 4.8 5.01 3.52 2.345 3.947 3.305 1.493 3.412-1.813.106-4.266-.747-5.333-1.813-3.733-3.731-18.027-5.33-18.027-2.025.107 5.65 21.44 13.112 25.92 8.954 3.734-3.304 3.947-3.304 3.947.107 0 3.944 11.413 3.198 15.893-1.066 2.667-2.558-4.906-8.208-11.2-8.208-2.666-.107-5.333-1.28-5.866-2.772-1.067-2.878-11.627-4.371-11.627-1.599zm-162.987 9.061c-3.306 12.473-5.546 23.666-4.8 24.306.427.426 16.534.639 35.734.32l34.986-.64-11.733-3.944c-6.4-2.132-19.733-8.102-29.547-13.326-18.666-9.807-23.466-11.087-24.64-6.716zm186.56 12.579c-5.226 3.412-10.666 6.077-12.053 6.077-1.387 0-3.627 1.386-5.12 3.198-2.347 2.772-.747 3.198 12.587 3.198 8.64 0 15.146-.959 15.146-2.132s4.374-2.132 9.6-2.132c5.334 0 9.6.959 9.6 2.132s6.08 2.132 13.867 2.132c7.68 0 13.867-.853 13.867-1.812 0-2.985-15.36-4.691-18.56-2.132-2.027 1.705-2.774 1.599-2.774-.64-.106-3.731-15.893-11.3-19.306-9.168-1.494.96-3.627.32-5.014-1.492-2.026-2.772-3.733-2.346-11.84 2.771zm-374.613-.106c-3.52 5.65 22.293 12.686 45.013 12.366l14.827-.213-13.547-2.985c-7.466-1.599-19.733-4.904-27.413-7.249-16.107-4.904-16.96-5.011-18.88-1.919zm69.867 6.609c-4.054 4.051-2.987 5.97 3.52 5.97 7.04 0 8.96-1.386 7.36-5.543-1.387-3.625-7.36-3.945-10.88-.427z" fill="#DBDBDB"/></svg>