<svg xmlns="http://www.w3.org/2000/svg" viewBox="0, 0, 252.5, 298.846"><g fill="#0048BA"><path d="M150.4.696c.35.5-.1 1.2-.9 1.5-4.3 1.65-1.3 8.95 4.1 10.1 4.35.9 6.55-7.45 2.8-10.55-1.9-1.55-6.85-2.45-6-1.05zM154.55 16.796c-.35.5-1.3.7-2.1.4-2.1-.8-4.75 1.6-3.45 3.15.7.85.3 1.95-1.45 3.85-2.9 3.1-3.55 3.25-3.6.9-.1-1.5-.2-1.45-.9.25-.45 1.1-.65 2.8-.5 3.75.2.95-.1 1.75-.6 1.75-.55 0-1-.8-1-1.75-.05-1.5-.2-1.45-.9.25-1.65 4.1-.15 8.5 2.55 7.45 1.85-.7 2.4-.55 2.4.6 0 2.9-6.8 1.5-7.9-1.65-.5-1.5-.65-3-.35-3.3.3-.35-.15-.6-1.1-.6-2.1 0-2.1.25.35 4.25 2.35 3.85 2.55 5.75.55 5.75-.8 0-1.7.45-2.05 1.05-.45.65.25.8 2 .35 2.15-.5 2.75-.25 3.2 1.5.5 2.05 3.8 2.95 4.45 1.2.2-.5.85-.35 1.5.35.95 1-2.1 1.5-15 2.5-16.75 1.3-18.9 1.5-26.85 2.6-2.95.4-4.8.25-4.8-.35 0-.55-1.1-1.25-2.5-1.6-2.5-.65-3.5-2.6-1.35-2.6.65 0 .9-.3.5-.65-.35-.4 0-1.7.85-2.95 1.65-2.6.4-4.2-1.5-1.9-.65.8-1.5 1.3-1.85 1.1-2.3-1.45-4.3 2.35-3.05 5.8.7 1.95 1.05 3.75.8 4.05-1 1-12.4 2.3-12.75 1.45-.5-1.45-4.15-1.05-4.15.45 0 .85-1.5 1.6-3.75 1.95-12 1.85-24.55 4.2-38.25 7.15-8.55 1.85-19.2 4.15-23.75 5.1l-8.25 1.75v228.7l73.25-.25 73.25-.25 3.35-6.3c10.35-19.6 1.9-40.2-17.65-42.75-4.8-.65-5.1-.85-5.4-3.8-.5-5.4-15-4.8-15.6.6-.4 3.4-2.7 4.1-10.5 3.25-10.1-1.1-13.3-2.25-16.75-6.2-5.6-6.4-3.75-12.6 10.95-36.3 4.3-6.9 11.25-18.15 15.5-25 22.7-36.7 50.65-72.85 71.45-92.45l6.35-5.95 4.4 4.65c3.4 3.6 4.4 5.4 4.4 8 0 3.25 3.85 8.55 5.2 7.25.3-.3.85 2.15 1.2 5.45.8 7.15 2.05 7.95 2.25 1.55.1-2.5-.2-4.3-.65-4-.45.25-.6-.4-.3-1.5.8-3 1.05-2.8 11.35 7.75 12.05 12.35 14.35 15.6 13 18.2-1.3 2.45-1.35 3.35-.05 2.55.55-.35 1 .15 1 1.05 0 1.05-.55 1.45-1.5 1.1-1-.4-1.5.05-1.5 1.4 0 3.35-4.1 4.5-10.6 2.95-4.35-1.05-6-1.1-7.5-.2-1 .65-3.95 1.2-6.45 1.2-7.7 0-4.8 2.35 4.65 3.8 11.85 1.8 17.9 1.2 22.35-2.2 2.9-2.2 3.95-2.5 5.05-1.6.75.65 2.35.85 3.45.5 1.8-.55 2.05-.2 2.05 2.85 0 1.95.45 3.8.95 4.15.65.35.6 1.5 0 3.15-.7 1.8-.65 3 .15 3.95.75.9 1.2 10.5 1.4 29.45.15 15.4.55 28.35.9 28.65.6.65.7-1.35.9-23.2.05-6.6.5-12.25.95-12.6.45-.3.2-3.7-.55-7.5-.95-4.55-1.3-11.8-1.1-21.15.15-7.85-.05-14.1-.45-13.85s-.75-.3-.85-1.2c-.05-.95-.4-2.65-.8-3.8-.5-1.7-.15-2.3 1.65-2.75 1.3-.35 3.95-2.1 5.85-3.85l3.5-3.25-.1-11.5c-.25-19.8-3.95-23.1-4.9-4.35-.75 14.55-1.2 15.6-6.8 16.65-7.75 1.4-9.25.5-22.9-13.5l-12.75-13.05-.65-7.3-.65-7.35 2.85-.3c2.75-.35 3.65-3.25 1.55-4.85-2.55-1.9-1.15-7.4 2.95-11.6l4.25-4.35-3.65-1.5c-8.3-3.5-9.85-1.95-6 5.95l1.5 3-2.75-2.85c-2.3-2.4-2.75-3.75-2.75-8.4-.05-7.4-4.25-9-24.1-9.2-2.7-.05-4.7-.3-4.4-.6.3-.3-.3-2.8-1.3-5.5-2.35-6.15-2.4-7.35-.2-6.5 1.5.55 1.45.4-.15-1.4-1.05-1.15-2.1-1.85-2.35-1.6-2.25 2.3-12.1-6.35-12.15-10.65-.05-2.85-1.5-4.5-2.5-2.85zm7.35 18.8c-.1 3.7-.15 3.7-1.15 1.1-.6-1.5-2-3.15-3.15-3.7-1.9-.9-1.75-1 1.15-1.1 3.1-.05 3.25.1 3.15 3.7zm4.7-1.7c.5-.1 1.05.65 1.2 1.65.25 1.5.15 1.55-.75.3-.85-1.25-1-1.2-1.05.5-.05 1.65-.2 1.75-1 .5-.55-.85-.95-2.4-.95-3.5 0-1.5.2-1.65.85-.65.45.7 1.2 1.25 1.7 1.2zm-11.9 8.2c-.2 1.8-.4.3-.4-3.25 0-3.6.2-5.05.4-3.25.25 1.8.25 4.7 0 6.5zm41.9 21c.4.7.35.9-.1.5-.45-.4-1.4-.25-2.1.35-1.4 1.15-3.4.45-3.4-1.15 0-1.4 4.75-1.15 5.6.3zm.4 20.6v2.5l-2.45-2.3c-2.05-1.9-2.25-2.6-1.25-4.2 1.5-2.4 3.7 0 3.7 4zM94.55 23.396c-2.25 2.3-1.95 3.8 1.75 8.25l3.35 3.95 1.2-2.75c3.25-7.4-1.35-14.35-6.3-9.45zM116.8 24.496c-2.5 1-3.5 2-3.1 2.95.3.8-.3 2.45-1.35 3.6-1 1.2-1.35 1.85-.7 1.45.65-.35 2.55.5 4.2 1.85 3.4 2.9 4.6 2.1 4.75-3 0-1.65.4-4.25.85-5.75.9-3.15.45-3.25-4.65-1.1zM124 35.196c0 .8-.8 1.8-1.75 2.2-1.65.7-2.35.95-4.75 1.45-1.95.45-3.35 0-4.95-1.55-1.8-1.85-2.05-1.4-2.95 5.05-.4 2.85-.25 3.55.45 2.5.85-1.3 1.1-1.3 1.95.15 1 1.65 4.25 1.55 6.55-.25 1.2-.95 2.95 0 3.7 2.1.35.95.85.25 1.3-1.85l.75-3.35 2.2 2.8c1.45 1.85 2.4 2.35 2.9 1.55.4-.65.25-1.15-.35-1.15-.55 0-1.05-.85-1.05-1.95 0-1.05-.45-2.2-1-2.55-.55-.35-1-1.7-1-3s-.45-2.65-1-3c-.55-.35-1 .05-1 .85zm-2.95 5.6c-.8.5-1.8.7-2.25.4-.45-.25-.8.25-.8 1.1 0 1.75-.15 1.8-2.5.9-1.35-.5-1.25-.8.7-1.9 2.75-1.5 7.2-2 4.85-.5zM176.5 42.546c1.1.3 2.6 1 3.35 1.6.9.75 1.5.75 2 0 .35-.6 1.55-1.3 2.65-1.55 1.1-.3-.7-.5-4-.5s-5.1.2-4 .45z"/></g></svg>