<svg xmlns="http://www.w3.org/2000/svg" viewBox="0, 0, 640, 480"><path d="M201.6 35.947c-39.893 16.106-80.853 32.426-91.093 36.266-11.2 4.16-18.987 8.427-19.734 10.56-3.52 11.414-7.04 133.654-3.84 135.467.854.533 18.347-1.387 38.934-4.16 20.8-2.773 37.653-4.16 37.973-3.093.32 1.066 2.24 1.493 4.267.96 3.946-.96 21.12 27.306 20.16 33.386-1.707 10.987-2.24 22.08-1.28 24.64 2.026 5.227 5.546 3.414 4.16-2.133-.747-2.88-.427-5.653.533-6.293 1.067-.64 2.347 2.986 2.987 8.106.533 5.44 2.986 11.414 5.546 14.294 2.56 2.666 4.587 6.08 4.587 7.68 0 1.493 1.067 2.56 2.453 2.24 1.28-.32 2.774.64 3.307 2.133.533 1.493-.747 2.667-2.88 2.667-3.307.106-3.413.426-.747 2.133 2.667 1.707 2.774 2.773.427 6.4-1.493 2.453-2.133 5.44-1.387 6.613.747 1.28-.64 4.16-3.093 6.4-4.48 4.267-4.48 4.267-6.507-.96-1.066-2.88-2.986-5.866-4.266-6.72-1.28-.746-.32 2.774 2.24 8l4.48 9.28-5.547 8.427c-2.987 4.587-6.187 9.387-7.147 10.667-.853 1.173-3.413 5.44-5.653 9.6-10.347 18.666-21.227 26.346-22.187 15.573-.213-2.667-2.24-9.813-4.586-16-2.88-7.36-3.52-11.733-2.027-12.587 2.56-1.6 3.84-27.306 1.813-39.36-1.173-6.826-1.493-4.906-2.026 9.6l-.64 18.134-1.814-24.534c-.96-13.546-1.386-25.493-.853-26.666.427-1.174.96.96.96 4.693.107 3.733 1.28 7.467 2.667 8.32 1.493.96 1.92.533.96-.96-.96-1.493-.214-2.453 1.813-2.453 1.813 0 3.307-1.067 3.307-2.24 0-1.28-.96-1.707-2.134-.96-1.28.746-2.24-2.347-2.346-7.894-.427-17.92.64-24.213 4.906-28.8 2.347-2.453 3.627-5.653 2.774-6.933-.747-1.387-.32-7.147 1.066-12.907 6.294-26.026-6.933-5.76-24.426 37.334-8.534 21.226-8.96 24.96-4.374 36.053l3.307 7.787-9.173-1.494c-5.014-.746-9.707-2.24-10.347-3.413-.747-1.067-3.093-1.813-5.333-1.493-7.36.746-9.707 0-8-2.774.853-1.6-.107-1.28-2.454.534-2.24 1.706-3.413 2.133-2.666.96.853-1.494-1.174-2.347-5.44-2.454-10.454-.106-30.72-3.946-33.92-6.293-1.494-1.173-6.08-2.347-10.24-2.56-7.68-.427-38.614-5.867-45.334-8-2.88-.853-3.733.107-3.733 4.373 0 3.947 1.067 5.44 4.16 5.44 2.24 0 4.587.854 5.227 1.814.64 1.066-1.174 1.386-4.16.853-3.094-.64-5.227 0-5.227 1.493 0 1.387.853 1.92 1.92 1.28 3.093-1.92 8.853 1.174 7.36 3.84-.853 1.387-.64 1.707.32.854.96-.854 3.093-.427 4.693.853 1.6 1.28 3.52 1.813 4.267.96 2.453-2.347 2.56-7.68.213-7.68-1.173 0-1.6 1.493-.96 3.2.747 1.813.427 3.2-.533 3.2-1.067 0-2.347-2.027-2.987-4.48-1.066-4.16-.533-4.373 6.614-2.987 9.6 1.814 11.52 2.88 9.813 5.654-.747 1.173.427 1.813 2.667 1.386 2.24-.32 3.733.534 3.413 2.027-.32 1.493.64 2.667 2.133 2.773 1.6 0 1.067 1.28-1.28 2.987-4.48 3.413-2.666 8.533 2.24 6.613 2.454-.96 2.88-.32 1.707 2.56-.853 2.027-2.027 5.44-2.667 7.467-.533 2.027-1.813 3.733-2.666 3.733-2.347 0-1.494-7.146 1.066-9.28 1.28-1.066 1.067-1.386-.746-.96-1.494.427-2.774 1.707-2.774 2.774-.106 1.173-.96 3.84-2.133 5.866-1.28 2.454-1.173 3.734.32 3.734 1.387 0 1.813.96 1.067 2.133-.747 1.173.106 2.667 1.813 3.413 6.72 2.56 6.08 7.574-.853 6.934-3.627-.427-7.254.426-8.214 2.026-.853 1.494-2.56 2.56-3.626 2.347-1.067-.32-4.587.64-7.894 2.027-3.306 1.386-6.933 2.453-8 2.453-1.173 0-2.026 1.067-2.026 2.24 0 1.28-.747 1.813-1.6 1.28-.854-.533-1.92 3.733-2.24 9.6l-.64 10.453 7.573-3.093c4.373-1.813 7.573-2.24 7.573-1.067 0 1.174 2.347.427 5.227-1.706 2.987-2.134 4.907-4.907 4.48-6.294-.427-1.28.107-3.306 1.28-4.48 1.493-1.493 1.387-2.666-.107-3.626-3.626-2.24-2.773-4.587 2.774-7.04 3.946-1.814 6.08-1.6 9.493.746 3.947 2.774 4.373 2.774 3.307.107-1.6-4.267 2.453-6.293 5.973-2.88 3.947 4.053 9.173 2.24 5.76-1.92-2.027-2.56-1.813-2.773 1.173-1.6 3.094 1.173 3.52.533 2.347-3.2-.853-2.773-.533-4.587.853-4.587 1.174 0 2.24.854 2.24 1.814 0 1.066 2.134 1.706 4.8 1.493 2.667-.213 5.974.533 7.467 1.6 1.493 1.173 2.667 1.387 2.667.64 0-.64 1.92.64 4.266 2.987 2.347 2.346 4.267 5.12 4.267 6.186 0 1.067 1.173 2.454 2.667 2.987 1.493.533 1.92 1.707.96 2.773-.96.96-2.347.854-3.2-.32-3.52-4.8-13.44-8.32-15.254-5.44-.96 1.707-2.88 2.134-4.373 1.28-2.027-1.28-1.813-2.133.853-3.626 4.16-2.347 2.454-6.294-2.026-4.587-1.707.64-3.094 2.987-3.094 5.227s-.746 4.053-1.706 4.053-3.627 1.493-5.867 3.307c-3.947 3.2-3.627 3.306 4.053 2.026 4.48-.746 7.68-.533 7.147.427-1.6 2.56 27.307 1.387 32.427-1.387 2.346-1.28 9.066-2.453 15.04-2.773 5.866-.32 10.773-1.067 10.773-1.813 0-.747 1.813-2.134 3.947-3.2 3.84-1.814 3.84-2.134-.747-6.827-4.267-4.587-5.013-4.693-8.107-1.6-4.053 4.053-6.613 4.267-5.12.32 1.494-3.733-2.453-7.68-7.573-7.68-3.733 0-3.733-.32-.64-3.413 1.92-1.92 4.907-2.88 6.72-2.134 1.813.747 4.8-.213 6.613-2.133 2.56-2.453 3.84-2.667 4.907-.747 1.173 1.814 2.027 1.814 3.093.107.747-1.28 2.347-2.347 3.414-2.347 2.986 0 2.453 5.867-.64 7.147-1.494.533-.427 1.173 2.346 1.173 3.734.214 4.694-.64 3.734-3.2-.854-2.24.106-3.733 3.2-4.586 3.946-.96 3.52-1.6-3.414-4.8l-8-3.734 6.72-.96c5.014-.746 6.507-.213 5.654 1.814-.534 1.6.426 2.88 2.24 2.88 1.92 0 2.986 1.493 2.666 3.733-.32 2.027.214 5.12 1.28 6.72 1.28 2.027 1.067 2.56-.64 1.493-1.386-.853-2.453-.533-2.453.747 0 1.173 1.173 2.347 2.667 2.453 1.493.107-.214.96-3.734 2.027-3.84 1.173-7.04 1.173-8.426-.213-1.067-1.067-5.974-2.027-10.774-2.027-4.8 0-10.133-1.173-11.733-2.667-1.707-1.493-1.28-.426 1.067 2.24 2.56 3.094 5.653 4.587 8.106 3.947 5.334-1.493 10.027.533 10.027 4.16 0 1.6.96 2.987 2.027 2.987 1.173 0 1.493-1.6.746-3.52-1.173-2.987-.64-2.88 2.774.533 2.986 2.88 3.413 4.267 1.493 4.693-1.493.427-2.773 2.56-2.773 4.8 0 2.347-.96 4.16-2.134 4.16-1.173 0-2.133 1.387-2.133 3.2 0 2.987-3.627 4.16-9.92 3.414-1.387-.214-3.307.853-4.16 2.24-.96 1.493-.64 1.92.96.96 1.387-.854 3.093-.107 3.733 1.813.747 1.813 2.24 3.307 3.307 3.307 1.173 0 1.493-.96.747-2.134-2.347-3.84 2.453-2.24 6.4 2.134 2.026 2.24 4.48 3.733 5.44 3.2.853-.64 2.133.32 2.666 1.92.64 1.6 4.587 3.52 8.747 4.266 4.267.854 7.68 2.347 7.68 3.414 0 1.066 1.387 1.493 3.2.746 1.707-.64 2.56-2.133 1.92-3.306-.853-1.28.213-1.174 2.667.106 2.133 1.174 5.546 2.667 7.573 3.2 3.2 1.067 3.52 5.334 3.093 42.774-.426 45.866-.426 45.653-9.6 40.853-8-4.053-8.853-4.16-8.853-.107 0 1.707-1.387 3.2-3.2 3.2-1.707 0-3.2-.96-3.2-2.133s-1.813-2.133-4.16-2.133c-2.24 0-4.8-1.067-5.547-2.24-1.6-2.667-11.413-7.04-15.36-6.934-5.973.214-6.933.747-6.933 3.947 0 1.813-.96 2.773-2.133 2.027-1.174-.747-2.134-.32-2.134.96 0 1.386-2.346 1.813-5.866 1.173-4.907-.96-5.12-.747-1.6.853 4.373 2.134 3.413 2.774-4.8 3.2-5.014.214-6.827 3.84-2.56 5.227 1.493.533 2.026-.107 1.173-1.493-.853-1.387-.533-2.454.747-2.454 1.173 0 2.24.96 2.24 2.24 0 3.734 31.893 1.814 34.24-2.133 1.813-2.987 2.346-2.88 5.013.533 3.2 4.054 33.92 5.12 40 1.28 1.6-1.066 2.133-1.92 1.173-1.92-.853 0-.533-2.026.747-4.586 1.92-3.52 1.813-4.907-.427-6.294-2.026-1.386-1.493-1.813 2.134-1.92 4.053 0 4.906-.853 3.946-4.373-.746-2.773-.213-4.053 1.387-3.52 1.28.427 2.453 1.92 2.453 3.307 0 1.493.96 3.306 2.134 4.16 2.986 2.133 3.946 11.093 1.173 11.093-1.173 0-2.24 1.387-2.24 2.987 0 1.92 1.493 2.666 4.267 1.92 2.346-.64 4.266-2.027 4.266-2.987 0-1.067 1.067-1.92 2.347-1.92s1.813 1.387 1.173 3.2c-.96 2.56.534 3.2 7.36 3.2 7.894 0 8.534-.32 7.04-4.8-1.28-4.267-1.066-4.48 2.134-1.707 2.026 1.6 3.52 2.027 3.306.96-.853-4.16.214-7.253 2.347-7.253 1.28 0 1.707 1.813 1.067 3.947-1.707 5.333 3.84 9.92 8.64 7.146 2.453-1.386 5.866-1.28 9.92.107 3.306 1.173 6.72 1.493 7.36.747.746-.64-1.6-1.814-5.334-2.56-3.626-.747-7.04-2.667-7.68-4.16-.64-1.814 0-2.454 2.027-1.707 6.293 2.453 2.88-1.28-4.373-4.693-4.694-2.24-9.494-2.987-13.12-2.134-5.12 1.28-5.44 1.067-2.987-1.92 3.2-3.84 3.307-3.626-4.8-7.146-3.307-1.387-5.333-3.627-4.587-4.907.747-1.173-.533-.96-2.986.533-2.347 1.494-3.84 3.414-3.307 4.374.64.96-.427 1.706-2.24 1.706-1.813 0-3.2-.746-3.093-1.6 1.066-6.506-.534-9.493-4.48-8.426-3.734.96-4.267 0-4.267-7.36 0-6.187.747-8.107 2.667-6.934 2.133 1.174 2.133.854 0-1.386-3.2-3.414-3.627-21.227-.534-21.227 1.174 0 2.134-1.067 2.134-2.24 0-1.28-.96-1.707-2.134-.96-1.28.747-2.133-1.493-2.133-5.44 0-5.76.64-6.613 4.267-5.653 2.346.64 4.266.213 4.266-.854 0-1.066-1.92-1.92-4.266-1.92-2.347 0-4.267-1.386-4.267-3.093 0-4.053 7.787-8.427 9.6-5.44.747 1.173-.213 2.133-2.027 2.133-1.813 0-3.306 1.067-3.306 2.24 0 1.28.853 1.707 1.92 1.067 1.066-.64 2.453.213 3.093 1.92.96 2.453 2.133 2.56 6.4.533 3.52-1.706 4.693-3.306 3.413-4.906-2.88-3.414 0-5.334 4.48-2.88 5.334 2.773 9.92.533 11.52-5.547.854-3.733 2.774-5.227 6.4-5.227 2.88 0 5.654-.746 6.187-1.6.747-1.28-5.76-1.6-13.973-.746-.747.106-1.707 2.88-2.134 6.08-.746 7.146-6.186 7.786-9.173 1.066-1.173-2.666-3.2-4.48-4.48-3.946-1.28.533-3.627 0-5.333-1.067-2.24-1.387-1.6-1.813 2.453-1.92 2.987 0 6.827-1.173 8.533-2.667 1.6-1.493 2.347-1.813 1.494-.746-.854 1.066-.32 3.413 1.066 5.226 2.134 2.56 2.134 2.987 0 1.707-1.6-1.067-2.666-.427-2.666 1.493 0 1.707 1.493 3.627 3.2 4.267 2.346.96 3.2-.32 3.2-4.907 0-3.413 1.173-6.613 2.666-7.253 1.6-.64 1.067-1.173-1.173-1.173-2.133-.107-3.307-1.067-2.667-2.134.64-1.066 4.054-1.493 7.574-.96 5.653.854 6.4.427 6.4-4.48 0-2.986 1.066-5.44 2.346-5.44 1.387 0 1.707 2.347.854 6.4-1.067 5.014-.64 6.4 1.92 6.4 1.92 0 3.413-1.493 3.413-3.306 0-1.814.853-2.774 2.027-2.134 1.066.64 2.56.32 3.306-.96.747-1.173.107-2.133-1.493-2.24-3.84-.106-12.373-7.466-12.373-10.773 0-2.133.533-2.24 2.56-.213 2.773 2.773 10.346 3.52 10.026.96-.746-4.48.534-6.72 3.307-5.547 1.813.64 2.987 2.24 2.667 3.52-.214 1.28 1.493 2.56 3.84 2.88 2.346.427 2.986.107 1.493-.533-2.24-1.067-2.24-1.92 0-4.694 2.347-2.88 2.24-3.093-.427-1.706-1.706.853-1.28 0 1.067-2.027 4.16-3.52 4.053-3.627-2.667-2.347-4.8.854-6.72.534-6.4-1.386.32-1.387-.64-2.347-2.133-2.027-2.56.533-3.413-2.347-2.987-11.2.107-2.347-.32-3.093-.96-1.6-1.28 2.773-35.093 3.947-37.653 1.387-2.453-2.454 11.413-22.187 15.68-22.187 2.24 0 4.053 1.28 4.053 2.987 0 4.586 5.867 8.32 10.134 6.506 2.026-.853 5.013-1.386 6.613-1.173 1.707.32 2.24-.533 1.387-2.027-1.174-1.813-.214-2.026 3.413-.853 2.88.96 15.253 1.813 27.52 2.133 12.373.214 28.8 1.067 36.48 2.027 13.653 1.493 20.587-.64 14.4-4.48-1.493-.96-1.92-.64-.96.96 1.92 2.987.107 3.093-5.013.427-2.134-1.174-17.707-2.454-34.667-2.88-19.2-.534-32.32-1.814-34.88-3.414-3.307-2.026 2.88-2.346 31.04-1.386 19.413.64 47.467 1.28 62.507 1.386 25.813.214 50.346 3.307 31.36 3.947l-7.467.213 5.333 2.987c3.2 1.813 5.76 2.133 6.614.96.64-1.173 5.44-1.493 10.666-.747 8.747 1.174 9.067 1.067 5.227-2.133-4.587-3.627 28.693-4.373 70.613-1.493l19.52 1.386-6.933 8.32c-7.04 8.214-7.04 8.32-13.76 4.907-3.627-1.813-6.08-2.453-5.44-1.28.747 1.173-2.773 1.707-8.533 1.387-6.08-.32-9.707-1.494-9.707-3.2 0-8.854-32.747-8.854-33.707 0-.426 3.2.32 5.866 1.6 5.866 1.174 0 2.24-2.453 2.24-5.333 0-5.44 4.907-7.467 7.574-3.093.746 1.28 3.946 1.706 7.253.96 4.267-.96 6.293-.32 7.253 2.026.96 2.56-.32 3.307-5.653 3.414-3.733 0-8.64 1.386-10.987 3.2-4.053 2.986-3.946 3.093.747 3.093 8.32 0 14.827 6.72 12.587 12.8-1.6 4.267-2.24 4.693-3.947 2.133-1.067-1.813-2.027-2.24-2.027-1.173 0 1.067-1.066.96-2.453-.427-1.92-1.92-1.813-3.306.213-5.76 1.92-2.24 2.027-3.306.32-3.306-1.28 0-2.346.96-2.346 2.133s-.96 2.133-2.027 2.133c-1.173 0-1.6-1.493-.853-3.2.746-2.133-.107-3.306-2.774-3.413-8.32-.533-9.493-.96-11.413-4.053-1.6-2.56-2.027-2.56-2.133-.32 0 2.346-.64 2.453-2.987.533-2.987-2.56-12.16-3.413-23.68-2.453-5.973.533-5.867.746 2.133 2.346 4.694.96 10.24 1.28 12.267.64 2.453-.64 3.733.107 3.733 2.454 0 2.88-1.493 3.306-8 2.346-4.373-.64-13.973-1.173-21.333-1.173-7.36-.107-13.333-1.067-13.333-2.24 0-1.173 2.986-2.133 6.613-2.133 5.76 0 6.293-.427 4.053-3.2-4.266-5.227-12.586-3.947-14.933 2.133-1.067 2.987-2.667 5.333-3.413 5.333-.747 0-.854-1.28-.214-2.773.64-1.707-.853-2.88-4.053-3.2-3.093-.213-5.12.747-5.12 2.56 0 1.6-1.387 3.52-3.2 4.16-1.707.747-3.2.32-3.2-.853 0-1.067-4.267-2.027-9.6-2.027-5.653 0-9.6.96-9.6 2.347 0 1.493-2.027 1.92-5.12 1.066-6.293-1.493-9.387 6.72-5.12 13.654 2.987 4.693 11.413 5.76 13.12 1.6.533-1.494 1.173-.534 1.173 2.026.32 6.934 11.307 5.76 13.014-1.386 1.386-5.867 6.4-8.64 6.4-3.52 0 1.92 1.066 3.413 2.24 3.413 1.28 0 1.6-1.067.746-2.453-.853-1.387-.533-1.92.64-1.067 1.28.747 2.774-1.493 3.52-5.227 1.067-4.906 2.24-6.293 4.8-5.333 1.814.747 4.694 1.28 6.4 1.28 1.6 0 2.987 1.92 2.987 4.16 0 3.2-.96 3.84-3.733 2.88-3.414-1.28-3.414-1.067-.534 2.56 2.454 2.987 2.454 3.627.214 2.24-2.027-1.173-2.56-.853-1.92 1.173.533 1.6 2.666 3.307 4.8 3.734 2.133.426 3.306-.107 2.666-1.174-2.24-3.52 6.4-7.253 9.067-3.946 1.707 2.026 1.707 3.306.213 4.266-1.28.854-2.24.427-2.24-.853 0-1.173-1.066-2.24-2.346-2.24-1.387 0-1.92 1.92-1.28 4.16.853 3.52-.214 4.267-7.787 4.8-11.307.853-12.373 6.4-1.387 7.253 5.867.534 8.534-.64 12.48-5.12 5.334-6.186 12.374-7.466 16.96-3.093 1.6 1.493 3.734 2.667 4.8 2.667 2.987 0 2.454-3.734-.64-5.014-1.6-.64-1.173-1.066 1.067-1.173 4.907-.213 4.693-2.88-.533-7.68-4.16-3.733-4.267-3.733-4.267.853 0 4.48-.213 4.587-3.627 1.174-4.16-4.16-5.546-9.494-2.56-9.494 1.067 0 1.92.96 1.92 2.134 0 1.173 1.067 2.133 2.24 2.133 1.28 0 1.6-1.067.854-2.347-.854-1.28.746-.853 3.626.96 2.774 1.814 5.974 3.307 7.147 3.414 1.173 0 2.24 2.133 2.347 4.586.426 6.08 5.013 8.747 8.853 4.907 4.267-4.267 5.333-3.733 2.667 1.28-1.28 2.347-1.6 4.267-.854 4.267.854 0-.213 1.92-2.346 4.266-3.627 3.947-3.627 4.267-.214 4.267 2.027 0 3.094-.96 2.347-2.133-.747-1.174.213-2.774 2.133-3.52 1.92-.747 2.987-2.56 2.454-4.054-1.6-3.946.96-5.546 4.373-2.773 2.133 1.813 3.627 1.813 5.227.213 2.773-2.773 8.213-1.066 11.84 3.627 1.706 2.027 2.666 2.347 2.666.747.107-1.387 2.454-.214 5.334 2.666 5.013 5.014 5.44 13.227.64 10.24-1.28-.853-1.6-.426-.747 1.067.853 1.387 2.667 2.453 4.053 2.453 4.267 0 8.107 8.107 6.614 13.974-1.174 4.586-1.814 4.906-4.694 2.666-2.88-2.346-3.093-2.24-1.813 1.28 1.28 3.414.96 3.627-1.813 1.28-1.707-1.493-3.2-3.946-3.2-5.546 0-3.734-5.76-3.947-6.934-.32-1.6 4.586.854 10.986 2.88 7.68 1.387-2.347 2.24-2.347 4.48.106 2.027 2.24 2.134 2.56.107 1.494-1.493-.854-2.667-.534-2.667.746 0 1.174.854 2.24 1.92 2.24 3.414 0 3.947 5.12 1.387 12.694-2.347 6.72-2.667 6.933-3.84 2.666-.64-2.56-.32-4.16.747-3.52 1.066.64 1.92-.32 1.92-2.133s-.96-3.307-2.134-3.307c-2.133 0-2.986 2.88-2.346 7.787.213 1.387-.64 3.2-1.92 3.947-3.52 2.133-5.014-5.014-1.814-8.96 2.56-3.094 2.454-3.414-.853-2.134-2.56.96-3.733.32-3.733-2.026 0-2.454-1.28-2.987-4.587-2.134-3.2.747-3.947.534-2.24-1.173 1.173-1.173 1.707-3.52 1.067-5.12-.64-1.707-.107-2.987 1.066-2.987 1.174 0 2.667 1.174 3.094 2.667.533 1.493 1.706-.427 2.56-4.267 1.28-6.08 7.573-12.48 9.92-10.24.533.427 2.24-.746 3.946-2.666 2.774-2.987 2.774-3.2-.533-1.92-5.547 2.133-7.467-4.8-2.453-8.427 3.84-2.773 3.84-3.093.106-6.613-3.733-3.52-3.84-3.52-2.453 1.066 1.387 4.694-8.96 13.44-17.493 14.72-3.52.534-1.494-7.786 2.88-11.2 1.6-1.28 2.346-2.986 1.493-3.733-.747-.747-.213-1.387 1.173-1.387 1.387 0 2.454-1.6 2.454-3.413 0-2.88-.534-2.987-3.2-.853-1.707 1.493-3.2 3.84-3.2 5.333 0 1.493-1.6 3.307-3.414 4.053-2.666 1.067-3.2.32-2.453-2.773.853-2.987.213-3.84-2.027-2.987-1.92.747-2.666 2.88-2.026 5.44.64 2.347-.214 5.654-1.814 7.254-1.706 1.706-2.453 4.586-1.6 6.72 1.174 3.093 1.6 2.88 2.56-1.387l1.174-5.013 4.053 4.373c2.347 2.667 3.52 6.187 2.773 8.747-.533 2.453-.213 3.84.854 3.2 1.066-.64 1.92-.214 1.92 1.066 0 1.174-.854 2.24-1.92 2.24-1.067 0-1.707 1.707-1.6 3.734.426 4.693-6.4 5.226-13.334.96-4.586-2.774-5.013-2.774-3.84.426.854 2.24.214 3.414-1.92 3.414-1.813 0-2.666.96-1.92 2.133.854 1.387 2.667 1.387 5.014.107 4.266-2.24 7.466-.64 9.493 4.693 1.387 3.84-.747 5.013-3.627 2.133-3.733-3.626-18.346-2.346-18.346 1.707 0 2.027.96 4.267 2.24 4.907 1.173.533.96.853-.534.533-4.373-.853-3.413-10.987.96-10.56 2.774.213 3.52-.96 2.774-4.8-.534-2.987.106-5.12 1.6-5.12 1.706-.107 1.6-.64-.32-1.92-4.054-2.56-2.24-9.28 2.773-10.027 5.12-.746 8.853 1.28 5.76 3.2-3.2 2.027-.107 5.76 6.08 7.467 5.12 1.387 5.12 1.387 1.28-1.813-2.347-1.814-4.267-5.867-4.373-8.96-.214-3.2-1.494-6.187-2.987-6.72-1.92-.64-2.027-1.6-.32-3.734 3.307-3.946-4.907-8.426-10.133-5.546-2.88 1.706-4.16.853-6.294-4.16-1.386-3.414-3.84-6.08-5.333-5.974-2.027.107-2.027.427-.213 1.174 1.386.533 2.026 2.453 1.386 4.053-.64 1.707-.426 3.093.64 3.093.96 0 1.814 2.347 1.814 5.334 0 3.733-1.174 5.333-3.947 5.333-2.667 0-3.52-1.067-2.773-3.2.746-1.813.32-3.2-.747-3.2s-1.387-1.6-.64-3.52c.96-2.453.533-3.093-1.173-2.027-1.92 1.174-2.347 0-1.494-4.373 1.067-5.653.96-5.547-2.133 1.173-2.56 5.44-3.947 6.614-5.76 4.8-1.387-1.386-3.413-2.453-4.693-2.346-3.307.106 7.36 8.426 10.773 8.426 1.6 0 2.88.747 2.773 1.6-.746 4.48.64 6.187 4.8 6.08 2.56-.106 5.014 1.174 5.654 2.774.64 2.026.106 2.346-1.92 1.066-1.707-.96-4.694-1.493-6.72-1.173-2.027.32-3.734-.427-3.734-1.707 0-1.173-.96-2.24-2.24-2.24-1.493 0-1.386 1.387.107 4.267 1.28 2.453 1.813 5.227 1.173 6.187-1.386 2.346 3.84 4.48 10.774 4.48 2.773 0 5.12 1.066 5.12 2.346 0 2.24-5.44 1.707-13.547-1.386-2.453-.96-2.987-.107-2.133 3.626.64 2.88.32 4.054-.64 2.774-.96-1.174-2.987-2.027-4.48-1.814-1.494.214-3.734.427-4.907.534-1.28.213-1.707 1.28-.96 2.453 2.347 3.733-5.12 4.8-8.64 1.28-3.093-3.093-2.987-3.413 1.173-3.413 2.454 0 3.947-.854 3.307-1.92-.64-.96.213-2.987 1.813-4.374 2.027-1.6 3.52-1.706 4.374-.32.746 1.174 2.666 1.6 4.48.96 1.706-.64 2.56-2.026 1.92-2.986-.64-1.067-2.454-1.28-4.267-.64-1.707.64-3.093.213-3.093-1.067 0-1.173-1.92-1.813-4.267-1.387-3.627.747-3.947.214-2.027-3.306 2.454-4.8 5.44-5.334 7.04-1.494.534 1.494 1.174.427 1.174-2.24.106-3.306-.64-4.48-2.454-3.626-1.493.746-.96 0 1.174-1.707 3.413-2.88 3.413-3.2.213-4.48-3.84-1.493-9.387 2.027-9.387 5.867 0 1.386.96.96 2.134-.747 1.813-2.773 2.026-2.667 2.133.533 0 2.027-1.387 3.734-3.2 3.734-1.707 0-3.2 1.386-3.2 3.093 0 2.027-1.28 2.667-3.413 1.92-2.24-.96-2.56-1.813-.96-2.88 1.706-.96 1.493-2.24-.747-4.053-4.693-3.947-8.213-.96-5.333 4.48 1.706 3.2 1.706 3.946 0 2.88-1.387-.854-2.347.106-2.347 2.026 0 1.92.747 2.987 1.707 2.454.96-.64 3.093-.214 4.8.96 2.666 1.706 2.56 2.346-.534 4.16-2.026 1.173-3.093 3.52-2.453 5.226.64 1.814 1.92 2.667 2.88 2.134.96-.534 2.24.426 2.987 2.24.64 1.92.32 2.773-.854 2.026-1.173-.746-2.133.64-2.133 2.987s-.96 4.8-2.133 5.547c-1.28.746-1.707 2.24-1.067 3.2.64.96 0 2.56-1.387 3.413-3.52 2.133-14.826 2.88-13.546.747.64-.854-.107-2.134-1.6-2.667-2.027-.747-2.027-1.6-.214-3.52 1.92-2.027 3.627-1.813 7.894.96l5.44 3.52-2.027-6.933c-1.067-3.84-1.173-7.574-.213-8.214 3.306-2.133 1.813-9.173-2.134-10.24-3.093-.853-3.413-1.813-1.6-5.546 1.92-4.16 1.92-4.267-.853-.854-1.6 2.027-3.733 2.987-4.693 2.134-.96-.854-1.174 0-.427 2.026 1.92 5.547-1.493 6.4-6.72 1.6l-4.48-4.266-1.387 5.44c-.96 3.84-2.453 5.12-4.8 4.373-2.56-.853-3.626.32-3.84 4.16-.106 2.987.534 5.333 1.6 5.333 1.067 0 1.92-1.386 1.92-3.2 0-5.226 10.134.747 11.2 6.614 1.28 6.613.427 7.253-7.146 5.12-6.187-1.814-7.36-.427-6.4 7.786.426 3.414-3.414 5.654-5.014 2.987-.746-1.173-.106-3.947 1.387-6.293 3.093-5.12 2.133-6.4-5.973-7.894-3.307-.64-7.147-2.026-8.534-3.2-1.706-1.386-2.88-.96-3.733 1.067-.747 2.027-3.093 2.773-6.4 2.24-7.68-1.387-11.84 4.48-4.48 6.4 3.093.747 6.827.32 8.32-.853 2.027-1.707 3.413-1.387 5.227.746 2.133 2.56 1.813 2.88-1.814 1.92-3.306-.853-4.373-.106-4.373 3.2 0 2.347-1.173 4.8-2.667 5.44-1.493.534-.746 1.174 1.6 1.28 3.52.107 3.734.534 1.067 2.24-2.24 1.494-2.347 2.027-.427 2.134 2.24 0 2.24.533 0 2.88-1.386 1.6-4.586 2.453-6.933 1.92-3.413-.64-3.2-.214.96 2.026 4.587 2.56 5.653 2.56 7.893-.32 2.774-3.626 2.987.747.32 5.227-.746 1.173-.64 3.947.214 6.293 1.173 3.2 1.92 3.52 3.306 1.174 1.174-1.92.854-3.307-.96-3.84-5.546-1.92 10.454-6.614 17.92-5.334 6.507 1.067 7.574.64 7.36-2.773 0-2.347-.64-2.88-1.173-1.387-1.387 3.414-5.013 1.28-5.013-2.773 0-1.813 2.133-3.093 5.12-3.093 4.16 0 5.013.853 4.266 4.8-.533 2.666-.32 3.626.32 2.133.747-1.493 2.24-2.133 3.307-1.493 1.067.64 1.92.213 1.92-.96 0-1.174-.96-2.667-2.133-3.414-1.28-.746-1.494-2.453-.534-3.84.854-1.386 1.6-4.266 1.6-6.293s.96-3.413 2.134-3.2c1.173.32 2.026 1.707 1.813 3.093-.107 1.387 1.387 2.56 3.2 2.56 7.893.32 10.773.96 9.92 2.347-4.48 7.253 14.293 12.587 19.52 5.547 1.813-2.454 2.773-3.094 2.027-1.28-.747 1.706-1.92 4.906-2.56 6.933-.747 2.027-3.414 3.84-5.867 3.84l-4.587.213 4.587 1.814c2.56.96 5.227 2.88 5.973 4.16 1.814 2.88 5.44 2.88 5.44 0 0-1.28-.746-1.814-1.813-1.174-.96.64-1.707-.213-1.707-1.706 0-1.6.96-2.667 2.24-2.56 1.28.106 2.454-.32 2.56-.854.107-.64 1.28-3.2 2.667-5.866 2.133-3.947 2.027-4.8-.427-4.8-3.093 0-6.293-7.894-4.373-10.987 2.133-3.52 5.333-1.707 4.16 2.24-.853 2.453-.107 4.48 2.027 5.227 4.48 1.706 16.213-.854 14.72-3.2-.64-1.067-2.027-1.387-2.987-.747-1.067.64-3.413-1.067-5.227-3.733-1.813-2.667-3.84-4.587-4.373-4.267-3.733 1.92-11.733.107-11.733-2.667 0-3.093 3.52-4.16 11.2-3.52 2.026.107 3.733-.64 3.733-1.706 0-3.627-7.467-3.52-14.507.32-7.573 4.16-14.293 5.12-12.16 1.706.747-1.173 2.987-2.133 5.12-2.133 2.134 0 5.547-1.92 7.68-4.267 2.56-2.88 5.334-3.84 8.854-2.986 3.413.96 5.013.426 5.12-1.6 0-1.6 1.28-.64 2.773 2.026 1.493 2.667 3.307 4.16 4.16 3.307.853-.747 1.493-.32 1.493 1.067 0 4.266-.96 5.653-4.053 5.653-1.707 0-3.52 1.387-4.053 2.987-.534 1.6 0 2.346 1.173 1.6 1.173-.747 4.693 1.92 7.68 5.866l5.547 7.254-4.8 1.493c-2.56.853-6.614 1.6-8.96 1.813-2.987.214-4.267 1.814-4.054 5.12 0 2.667-.426 4.8-1.173 4.8-.747 0-1.493 2.667-1.707 5.867l-.426 5.867 4.266-5.12c2.347-2.774 4.8-4.48 5.547-3.84.64.746-1.493 3.626-4.907 6.506-3.306 2.987-6.4 4.48-6.826 3.414-1.067-3.2-8.854 2.026-8.854 5.973 0 2.773-.533 2.987-2.56.96-2.026-2.027-2.026-3.093 0-5.12 3.84-3.84 3.094-6.507-1.173-4.16-2.88 1.707-4.907.64-9.6-4.48-4.053-4.587-5.867-5.547-5.867-3.2 0 1.92 1.6 5.013 3.414 6.933 1.92 1.814 2.773 4.054 2.026 4.907-.853.853-2.773-.213-4.266-2.24-3.414-4.693-9.707-4.907-9.707-.427 0 2.027-1.493 3.094-3.52 2.667-4.693-.853-6.4-5.973-2.027-5.973 2.24 0 3.414-1.92 3.414-5.44 0-2.987-.96-4.907-2.027-4.267-1.173.747-1.493 2.667-.853 4.48.746 1.92-.107 3.093-2.027 3.093-1.813 0-3.627-1.066-4.053-2.453-.64-1.813-2.027-1.813-5.547.107-5.12 2.666-6.613 7.146-1.813 5.333 1.813-.64 3.413.747 4.16 3.413.853 3.307.32 4.267-1.707 3.52-1.6-.64-3.413.214-4.053 1.92-.64 1.707-.214 3.094.96 3.094 1.066 0 2.026 1.386 2.026 3.093 0 1.92-1.28 2.667-3.2 1.92-1.706-.64-3.2-.213-3.2.96 0 2.56 2.347 2.24 13.334-1.493 4.373-1.387 9.813-2.027 12.053-1.387 2.88.96 5.227-.213 7.573-3.52 1.814-2.667 3.947-4.907 4.587-4.907 1.92 0 5.547 7.68 4.267 9.067-.747.64-1.28.107-1.28-1.28 0-3.733-5.76-2.987-7.254.96-.853 2.24-2.88 3.093-5.546 2.347-2.347-.64-4.267-.107-4.267.96 0 1.173 6.187 1.813 14.827 1.493 11.626-.427 14.293-1.173 12.586-3.307-1.706-2.026-1.386-3.093 1.174-4.053 1.813-.747 2.88-2.133 2.24-3.2-.64-1.067-.32-1.92.853-1.92 1.067 0 2.56 1.387 3.2 3.2.747 1.707.32 3.2-.853 3.2-1.067 0-2.027 1.6-2.027 3.52 0 3.2.427 3.2 4.267-.32 2.346-2.133 4.266-2.987 4.373-1.92 0 1.067.96.32 2.133-1.6 1.067-2.027 4.907-4.267 8.534-5.013 4.373-.96 7.466-3.52 9.6-8.214 2.133-4.586 2.88-5.12 2.24-1.92-.534 3.094.213 4.8 2.133 4.8 4.48 0 3.627 2.987-1.6 5.334-2.453 1.173-4.267 2.986-4.053 4.053.213 1.067-.747 2.667-2.347 3.627-4.693 2.88-.64 4.266 5.653 1.92 4.16-1.6 6.72-1.494 8.747.213 2.667 2.24 3.84 1.28 3.307-2.667-.107-.746 1.493-1.066 3.52-.746 2.026.426 4.16.853 4.693.96.64.106-.32 1.066-2.133 2.24-2.667 1.706-2.56 2.026.96 2.133 2.24 0 6.293-2.133 9.066-4.587 2.667-2.56 5.547-4.053 6.294-3.2.853.747-.32 2.88-2.56 4.587-3.734 2.773-3.84 3.093-.427 3.093 2.027.107 3.733-1.066 3.733-2.453 0-2.027.534-2.027 2.56 0 3.414 3.413 9.174 3.2 12.267-.427 1.387-1.706 4.587-2.666 7.253-2.24 3.52.64 5.76-.746 8.427-5.226 5.013-8.534 4.693-12.48-.64-7.68-2.24 2.026-3.627 4.586-2.987 5.653 1.174 1.92-5.013 5.227-6.613 3.627-2.347-2.347 1.92-10.347 5.547-10.347 2.24 0 3.946-.747 3.84-1.6-.747-4.693.426-11.307 1.92-10.453.853.64 1.6-.747 1.6-2.987 0-4.053-3.947-4.587-9.387-1.173-1.813 1.173-3.627.746-4.8-1.067-1.173-2.027-.747-3.2 1.387-3.627 1.706-.426 3.093-1.706 3.093-2.88 0-1.066-.96-1.493-2.133-.746-1.174.746-2.24.106-2.24-1.494-.107-1.493-.96-.853-1.92 1.494-3.2 8 .533 19.413 4.48 13.76 1.813-2.667 2.026-2.667 1.173.106-.533 2.027-2.987 2.987-6.4 2.56-4.587-.426-5.44.214-4.693 3.734.96 5.12-2.134 5.866-4.054.96-.746-1.92-2.666-2.88-4.48-2.24-1.813.746-3.2.32-3.2-.854 0-1.066-1.066-2.026-2.24-2.026-1.28 0-1.706.96-.96 2.24.96 1.386-.533 1.706-4.053.853s-5.547-.533-5.547.96c0 2.133 6.934 3.307 15.36 2.453 3.094-.32 3.2.427 1.067 5.12-2.56 5.44-5.76 7.254-5.76 3.307 0-1.173-1.387-2.133-3.2-2.133-1.707 0-3.2-1.067-3.2-2.24 0-1.28-.96-1.707-2.133-.96-1.28.746-1.6 2.24-.96 3.306.64 1.174-.32 2.027-2.134 2.027-1.813 0-3.306-1.067-3.306-2.24 0-1.28-.96-1.707-2.027-1.067-1.173.747-1.387 2.987-.64 5.014 1.173 3.2.853 3.306-2.24.746-3.2-2.56-3.627-2.453-3.627 1.28 0 3.52-1.066 3.947-5.866 2.987-5.227-1.173-5.44-1.387-1.174-2.027 3.947-.533 4.694-2.026 4.48-8.213-.213-7.147 3.52-12.373 7.254-10.027.96.534 1.706-.533 1.706-2.346 0-3.734 3.52-4.48 4.694-1.067.426 1.387 3.626.96 8.853-1.173 5.547-2.347 7.787-4.374 6.933-6.507-.64-1.707-.213-3.093.96-3.093 1.067 0 1.92-.747 1.814-1.6-.64-3.947.426-6.934 2.346-6.934 1.174 0 2.134 2.347 2.134 5.334 0 2.88-.96 5.333-2.134 5.333-1.173 0-2.133 1.387-2.133 3.2 0 6.187 6.08 3.2 7.467-3.733.853-3.84 3.52-8.64 6.08-10.667 5.653-4.587.853-9.707-4.907-5.227-2.24 1.6-2.027 1.067.427-1.92 2.026-2.453 3.733-5.76 3.733-7.466.107-2.454.427-2.454 2.133.213 2.347 3.627 2.987 1.493 2.454-8.853-.214-3.84 1.386-6.72 5.226-9.174 6.4-4.266 8.96-3.2 4.16 1.6-4.373 4.374-4.266 10.027.107 10.027 2.773 0 2.987-.64.96-2.987-1.813-2.346-1.813-3.413 0-4.586 1.387-.854 3.093-.64 3.84.32 2.347 3.306 7.36 3.413 6.08.213-.64-1.707.853-4.693 3.2-6.613 2.347-2.027 3.733-4.267 2.987-5.014-.64-.64-2.987.427-5.12 2.347-4.48 4.053-6.827 4.48-6.827 1.387 0-3.094 10.667-6.827 14.72-5.334 1.92.747 2.453 1.92 1.173 2.774-3.946 2.88-3.52 8.96.64 8.96 5.44 0 13.12 6.293 9.6 7.786-1.493.64-2.24 1.92-1.6 2.774.534.96-.426 2.986-2.133 4.373-2.24 1.813-3.2 1.92-3.2.213 0-1.28 1.173-2.346 2.56-2.346 2.027 0 2.027-.534 0-2.56-3.307-3.307-3.307-6.72-.107-4.694 1.6.96 1.92.534.854-1.066-1.174-2.027-2.667-1.494-5.76 1.706-4.8 5.227-4.267 5.12-11.307 2.347-3.52-1.28-5.44-1.28-5.44 0 0 1.173-1.387 2.133-3.2 2.133-3.733 0-3.947 1.067-1.067 6.294 1.494 2.986 1.28 4.266-1.173 5.226-1.813.64-2.88.427-2.24-.533.64-.96-1.813-1.707-5.333-1.707-4.907 0-5.654.427-3.2 1.814 1.92 1.066 3.413 3.2 3.413 4.8 0 1.6 1.493 3.413 3.2 4.053 2.027.747 3.2 0 3.2-2.133 0-2.347 1.28-2.987 4.267-2.24 2.346.64 4.266 0 4.266-1.28 0-1.707.64-1.707 2.347 0 2.88 2.88.747 7.04-3.52 7.04-1.707 0-3.093 1.493-3.093 3.306 0 1.814.746 2.88 1.706 2.24.96-.533 1.387 1.814.854 5.334-.534 3.52-.107 6.08.96 5.76.96-.32 2.026.32 2.24 1.493.213 1.173-1.067 1.813-2.88 1.493-2.027-.426-2.987.427-2.347 2.134.533 1.493 2.56 2.453 4.48 2.133 3.84-.64 2.987 3.307-2.453 11.84-2.88 4.48-2.774 4.8.853 3.733 2.24-.64.213.747-4.48 2.987l-8.533 4.16 7.786.213c11.2.214 15.36-1.706 12.267-5.546-1.387-1.6-1.92-3.52-1.28-4.267 2.133-2.027 16.427-2.453 15.147-.427-.64.96-.107 1.814 1.066 1.814 1.174 0 3.094-1.6 4.16-3.627 1.707-2.987 2.027-2.667 1.707 2.027-.32 5.12-.96 5.653-7.253 4.8-5.014-.64-6.934 0-6.934 2.24 0 8.106 17.067 2.986 17.28-5.227.107-4.267.64-15.573 1.067-25.28.427-9.92 0-17.6-1.173-17.6-1.067 0-.534-2.88 1.28-6.4 1.706-3.52 2.56-7.36 1.813-8.533-.747-1.174-.853-2.134-.213-2.134s2.666 2.88 4.48 6.4c1.813 3.52 2.56 6.4 1.813 6.4-.853 0-.427 1.174.96 2.56 1.707 1.707 2.56 10.987 2.56 27.734 0 31.786 3.84 33.813 4.693 2.453.427-15.893 1.494-23.04 3.307-23.68 1.493-.533 2.667.96 2.667 3.413 0 2.347.96 4.907 2.133 5.654 1.173.746 2.133-.96 2.133-3.84 0-3.414 1.494-5.654 4.16-6.294 5.654-1.493 6.934.32 3.094 4.267-4.16 4.16-2.347 5.76 3.093 2.88 2.88-1.6 4.8-1.6 5.653-.213.747 1.173 2.24 1.706 3.2 1.066.96-.64 2.454-.106 3.307 1.28 1.067 1.707 2.027 1.6 3.2-.426 2.347-3.627-2.24-6.72-5.76-3.84-1.813 1.493-2.987.746-4.053-2.667-.96-2.987-.64-5.12.853-5.653 1.387-.427 1.92-1.707 1.28-2.774-.64-1.066.32-2.56 2.347-3.306 1.92-.747 4.266-.214 5.12 1.173 2.666 4.48 8.746.213 7.68-5.44-.534-3.2-.107-4.587 1.28-3.733 1.493.853 1.706-.214.853-3.094-1.707-5.333 4.48-6.506 9.173-1.92 2.134 2.134 2.454 1.92 1.28-1.066-1.6-4.374 1.174-4.907 5.334-1.067 2.24 2.133 2.56 2.133 1.386 0-2.133-3.733 5.44-3.413 10.56.427 4.054 3.093 3.947 3.2-1.173 3.413-4.8.213-4.907.32-1.067 1.92 5.014 1.92 9.707.64 8.96-2.56-.533-2.88 10.027-5.867 13.44-3.733 1.814 1.173 1.174 2.56-2.346 5.013l-5.014 3.52h4.907c2.667 0 4.267-.853 3.627-2.027-.747-1.066.426-2.986 2.56-4.16 2.026-1.28 2.56-2.24 1.173-2.24-1.6-.106-2.133-1.6-1.28-3.626.853-2.347.533-3.094-.96-2.134-1.28.854-2.987.427-3.733-.746-1.707-2.774 10.24-1.6 18.773 1.813 3.947 1.6 5.44 3.413 4.48 5.12-.853 1.493.213 1.067 2.56-.853 2.24-1.814 5.76-3.094 7.787-2.774 2.026.32 3.306-.106 2.773-.96-.427-.853 0-2.88 1.067-4.586 1.386-2.134 1.92-2.24 2.026-.427 0 1.493 1.067 2.667 2.24 2.667 5.227 0 .64-7.04-4.906-7.574-3.307-.426-5.547 0-5.014.854.534.853.107 2.986-.96 4.693-1.6 2.453-1.92 2.56-2.026.213 0-2.133-1.92-2.666-6.934-1.813-3.84.64-5.76.747-4.266.107 3.946-1.6 3.306-5.654-.64-4.16-2.134.746-2.774.426-1.814-1.28 1.067-1.6.32-2.027-2.133-1.067-2.453.96-3.093.64-2.133-1.067 1.066-1.6.426-2.026-1.92-1.066-1.92.746-4.054.426-4.8-.747-.64-1.067.32-2.027 2.133-2.027 3.627 0 2.453-10.986-1.28-12.48-1.067-.32-1.28-1.6-.64-2.666.64-1.067.213-1.92-1.067-1.92-3.093 0-2.773 5.866.427 7.146 1.493.534.533 1.174-2.027 1.174-5.333.213-8.213-3.094-4.693-5.227 1.6-1.067.747-2.56-2.56-4.373-2.88-1.6-3.947-2.88-2.453-2.88 1.493-.107 2.666-1.707 2.666-3.52 0-2.88.534-2.987 3.2-.854 3.627 2.987 6.934-2.133 4.16-6.506-1.066-1.814.534-2.134 5.654-1.174 4.053.64 6.08.64 4.586 0-4.053-1.813-3.2-4.906 1.28-4.586 2.134.213 3.84 1.28 3.947 2.56 0 1.28.64 4.16 1.387 6.613 1.92 5.867-3.734 13.867-7.04 10.027-1.28-1.387-1.707-2.24-.96-1.707 1.386.96 7.253-3.947 7.253-6.187 0-2.56-4.48-.96-8.427 2.987-4.16 4.16-4.16 4.267.214 7.36 2.453 1.707 3.84 4.053 3.093 5.12-.64 1.173.213 2.667 2.027 3.413 1.92.64 3.84-.213 4.48-2.026.746-1.92 2.666-2.774 4.48-2.134 1.813.747 4.586.107 6.186-1.28 3.627-2.986 6.08-.853 6.08 5.227 0 2.56 1.494 4.907 3.414 5.333 2.56.427 3.306-.853 2.986-5.333-.64-8.96-.746-9.173-5.866-9.387-4.587-.213-4.48-.32.533-1.706 3.947-1.067 5.44-3.094 5.76-7.787.32-3.413 0-5.12-.64-3.627-.64 1.494-2.56 2.667-4.267 2.667-1.6 0-2.986 1.067-2.986 2.453 0 1.387-2.454-.213-5.334-3.306-2.986-3.2-4.8-6.827-4.053-8.107.853-1.28 1.92-1.387 2.773-.107 2.347 3.52 11.414 4.907 10.027 1.494-.533-1.6 0-3.627 1.28-4.374 1.387-.96 1.813-.533.853.96-.853 1.387-.64 2.454.534 2.454 3.52 0 1.6-11.52-2.667-15.787-3.947-3.947-4.053-3.947-2.987 1.387.747 4.16.32 5.226-2.026 4.266-2.454-.853-2.88 0-1.707 3.947 1.173 4.48 1.067 4.587-1.067 1.173-1.386-2.133-1.92-5.76-1.386-8 .64-2.24.213-4.053-.854-4.053-1.066 0-1.92 2.667-1.92 5.867s-.746 4.906-1.6 3.733c-2.346-3.093-11.306-3.627-14.613-.853-1.6 1.28-4.267 1.92-5.973 1.28-1.707-.747-3.627.106-4.267 1.813-.64 1.707-2.133 3.093-3.307 3.093-1.173 0-1.6-1.386-.853-3.2 1.387-3.52-2.453-4.48-4.587-1.066-.746 1.173-2.24 2.133-3.413 2.133-1.173 0-1.6-.96-.853-2.133.746-1.28-1.707-2.134-6.08-2.134-5.44 0-8.214-1.386-10.88-5.44-1.92-2.88-4.374-4.8-5.334-4.16-1.066.64-2.666 0-3.52-1.386-.96-1.494-.64-1.92.96-.96 3.2 2.026 3.2-1.387-.106-4.694-2.88-2.88-.96-3.2 16.426-2.453 28.8 1.28 42.987 1.067 46.294-.533 2.453-1.174 4.48-.534 6.4 2.24 2.666 3.733 2.986 3.733 8-1.067l5.333-5.013-26.88.106c-14.72.107-29.44-.533-32.747-1.386-3.413-.854-5.44-.64-4.8.426.64 1.067-1.813 1.814-5.44 1.707-3.626-.107-6.933-1.28-7.466-2.667-.427-1.386-4.587-3.093-9.174-3.84-5.12-.746-8.32-2.453-8.32-4.373 0-1.707 1.067-2.347 2.454-1.493 2.986 1.813 82.133 6.72 87.68 5.44 2.026-.427 3.733-2.027 3.733-3.52 0-2.134-11.413-3.094-48.96-4.267l-48.96-1.6-8.747-12.587c-8.746-12.373-8.853-12.8-8.213-28.48l.747-16h-30.294l-1.6 26.134c-1.6 27.52-3.093 32-10.453 30.4-4.48-.96-107.307-4.267-205.12-6.614-35.947-.853-50.133-.533-50.133 1.174 0 1.706-1.174 1.706-4.267.106-2.347-1.28-4.267-3.626-4.267-5.226 0-1.707-5.226-11.414-11.733-21.76l-11.733-18.667v-45.867l6.933-1.173c3.84-.64 21.867-3.093 40-5.44 23.36-2.987 33.813-5.227 35.52-7.573 1.6-2.134 2.88-28.694 3.84-81.6.853-43.094 1.6-83.627 1.813-90.027.64-16.747.214-16.747-82.773 16.747zm68.693-9.814c0 1.494.64 4.8 1.494 7.467 1.28 3.733.746 4.907-2.347 5.013-3.307.214-3.307.427-.32 1.174 3.627.96 4.587 30.826 1.173 36.266-.64 1.067-.426 5.547.534 9.814.96 4.16.96 8.426 0 9.386-1.067 1.067-1.067 5.334 0 9.6 1.066 5.12.853 8.747-.534 10.134-1.28 1.28-1.6 2.346-.746 2.346.853 0 .533 1.92-.747 4.267-1.707 3.2-1.6 4.267.427 4.267 1.92.106 1.813.64-.427 2.133-2.347 1.493-2.453 2.027-.427 2.133 1.707 0 2.134 1.067 1.174 2.667-.96 1.493-1.387 4.8-1.067 7.36.32 2.56-.427 6.613-1.707 9.067-1.493 2.666-1.6 4.373-.32 4.373 4.374 0 1.28 20.16-3.093 21.12-4.053.747-4.053.853.107 2.453 3.84 1.494 3.52 1.92-2.667 4.16-3.84 1.387-6.933 3.307-6.933 4.267 0 .96-2.347 1.493-5.227 1.173-2.987-.32-4.8.214-4.16 1.28.64.96-.32 1.814-2.133 1.814-1.707 0-3.734-.96-4.48-2.134-2.667-4.266-35.2-.213-35.2 4.48 0 2.347-12.907 5.654-29.334 7.467-9.6.96-13.333.747-13.333-1.067 0-1.706-3.84-2.453-11.2-2.24-6.187.214-12.16.214-13.333-.106-1.174-.32-2.56-.32-3.2-.107-4.587 1.707-12.8 1.493-12.8-.32 0-1.173-1.92.107-4.267 2.88l-4.16 5.013-4.267-5.333c-2.24-2.987-3.413-5.653-2.453-5.973 1.92-.64-.213-13.44-3.627-21.974l-2.24-5.546 35.627-8c19.52-4.374 41.6-9.387 48.96-11.2 16.427-3.947 16.533-3.734 13.547 11.413-5.12 25.28-1.707 28.48 11.413 10.88 4.48-6.187 17.707-22.933 29.227-37.333 11.52-14.4 20.906-26.56 20.906-26.987 0-.64-46.506-37.12-54.72-42.88-5.013-3.52-7.36 2.987-5.76 16 2.667 21.547 5.014 19.093-28.053 29.333-16.32 5.12-38.4 11.52-49.067 14.187l-19.2 5.013-1.6 15.574c-.853 8.533-2.133 16.106-2.88 16.746-2.773 2.56 1.6-32.64 4.907-40.106 1.92-4.267 3.84-10.134 4.267-13.014.426-2.986 2.24-6.4 3.946-7.68 1.707-1.386 2.56-3.946 1.92-5.76-2.346-6.08 12.267-11.84 18.134-7.146 2.453 1.92 2.666 1.813 1.28-.427-2.134-3.627 2.773-7.04 7.893-5.44 2.027.64 3.733.107 3.733-1.067 0-1.173 1.494-1.706 3.2-.96 1.814.64 3.2.214 3.2-1.066 0-1.174 1.92-1.814 4.267-1.387 2.56.533 4.267-.32 4.267-2.027 0-2.56 18.24-11.84 23.253-11.84 1.28 0 7.68-2.986 14.4-6.613 6.72-3.627 14.613-6.933 17.707-7.253 2.986-.427 5.44-.96 5.44-1.067 0-.213 1.706-.64 3.84-1.067 2.026-.426 7.466-2.666 12.053-5.013 4.48-2.347 8.96-3.627 9.92-2.88.96.853.64 0-.747-1.92-2.24-2.773-1.813-3.307 2.134-2.88 3.52.213 20.266-4.907 24.213-7.467.107-.106.107 1.067.213 2.56zm-49.493 66.027c2.347.533 4.053 2.027 3.733 3.413-.32 1.387.854 2.56 2.56 2.56 1.707 0 3.947 1.494 5.014 3.414 1.066 1.813 2.56 3.306 3.306 3.2.747-.107 1.387.213 1.387.853v3.2c0 1.173-1.173 1.92-2.667 1.6-1.386-.32-2.88 1.6-3.306 4.267-.427 2.666-1.707 4.266-2.88 3.52-1.174-.64-1.814.213-1.387 2.026.32 1.814-1.28 4.8-3.627 6.72-2.346 1.92-2.773 2.774-1.066 1.92 2.773-1.493 2.773-1.173.32 1.92-1.6 1.92-3.734 3.094-4.587 2.56-.96-.533-2.24.427-2.88 2.134-.64 1.706-2.56 2.56-4.267 1.92-1.706-.64-3.733-.107-4.48 1.066-1.386 2.347-11.626-1.173-14.293-4.8-1.707-2.453-12.907-3.733-11.307-1.28.534.96 2.454 1.28 4.267.64 1.707-.64 3.093 0 3.093 1.387 0 1.707-1.706 2.133-4.693 1.387-2.56-.64-5.973-.214-7.467 1.066-2.026 1.707-3.2 1.067-4.8-2.773l-1.92-5.013-.213 4.8c-.107 4.373-2.347 5.866-7.253 5.013-1.067-.213-2.987.533-4.267 1.6-1.387 1.173-5.653 1.813-9.493 1.387-3.947-.32-8.214.64-9.6 2.133-1.707 1.707-4.48 2.027-8.427.96-3.627-1.067-5.44-.96-4.693.213.64 1.174-1.494 2.027-4.8 2.027-5.44 0-5.974-.747-6.294-8-.106-4.373.214-6.72.747-5.227.853 2.24 1.707 2.24 4.48 0 2.88-2.346 3.093-2.24 1.493.427-1.173 2.133-.32 1.92 2.667-.64 2.453-2.133 7.36-4.16 10.987-4.48 3.52-.213 7.146-1.067 8-1.92.746-.853 3.093-1.493 5.12-1.493 2.026 0 4.906-1.494 6.4-3.307 1.493-1.92 4.586-2.88 6.72-2.347 2.133.534 3.84 0 3.84-1.173 0-1.067 1.173-1.6 2.666-1.067 1.494.534 2.454 2.027 2.134 3.307-.32 1.387.32 2.453 1.493 2.453 1.067 0 2.24-2.133 2.667-4.8.426-3.2 1.92-4.586 4.373-4.16 2.027.32 3.733-.426 3.733-1.706s.96-1.814 2.134-1.067c1.066.64 4.266.107 6.933-1.387 2.667-1.493 5.333-2.773 5.867-2.88 4.053-.426 12.8-8.746 15.04-14.08 1.493-3.626 3.2-5.546 3.946-4.48.747 1.174 3.2 2.454 5.547 2.987zm300.907 186.987c3.946 18.773 5.866 24.96 8 26.453 1.92 1.173 1.813 2.027-.32 3.413-1.494 1.067-2.667 2.454-2.56 3.2.106.854-1.174 4.16-2.88 7.467-2.347 4.48-2.667 8.64-1.387 16.533 1.387 8.214 1.813 9.067 2.24 4.054 1.067-13.227 1.387-17.174 1.813-21.014.214-3.306.854-3.626 3.52-1.386 2.667 2.24 3.2 1.706 3.307-3.52.107-3.947.747-4.907 1.6-2.88 1.6 3.413 5.44 5.013 11.52 4.693 4.373-.213 10.667 8.853 8.96 13.12-1.493 4.053 2.987 12.587 5.653 10.88 1.174-.64 1.387-2.347.64-3.733-.853-1.387.534-.747 3.094 1.493 2.56 2.133 5.12 5.76 5.866 8 .747 2.24 2.24 3.413 3.414 2.667 3.946-2.454-1.387 5.653-25.174 37.866-12.8 17.28-24.533 33.387-26.24 35.734-4.8 6.826-6.506 5.44-6.506-5.334 0-6.826-.747-9.493-2.667-8.853-1.813.64-2.453 4.373-1.92 11.093.96 12.8-1.707 12.374-13.867-2.56-4.906-5.973-9.493-10.24-10.346-9.493-.747.853-1.067.533-.747-.747.427-1.173-4.48-8.853-10.987-17.066-19.306-24.32-25.28-33.387-24.213-36.267 1.387-3.52-3.2-12.053-5.653-10.56-.96.64-2.454.213-3.2-1.067-.747-1.173-3.414-2.24-5.974-2.24-4.48-.213-4.586-.213-.426-2.026 2.346-.96 2.986-1.92 1.493-2.027-1.6 0-2.24-1.067-1.493-2.24.746-1.28 2.24-1.707 3.2-1.067.96.64 2.453.214 3.2-1.066.746-1.174.32-2.134-.96-2.134-1.174 0-2.24-.746-2.24-1.706 0-3.627 29.226-2.987 30.613.64.853 2.346.533 2.88-1.173 1.813-3.52-2.133-12.267-2.347-10.987-.32.533.96 2.453 1.707 4.16 1.707 1.813 0 2.667.96 1.92 2.133-.747 1.173-4.693 2.133-8.747 2.133-4.48 0-6.933.854-6.186 2.134.746 1.173 3.2 2.133 5.546 2.133 2.774 0 3.84.96 2.987 2.667-.747 1.493 1.067-.214 4.053-3.734 2.987-3.52 6.187-6.506 7.147-6.613 4.587-.64 15.467-5.76 15.467-7.36 0-.96 1.813-1.387 4.16-.96 2.666.533 3.733-.213 3.093-2.027-.64-1.493.533-3.413 2.453-4.16 2.027-.746 2.987-2.666 2.347-4.373-.747-2.027-.107-2.667 1.92-1.92 3.413 1.387 6.933-5.333 3.947-7.467-4.267-3.093-1.814-14.506 5.12-23.253 7.68-9.707 12.48-10.027 14.4-.853zm-475.52 27.306c-3.734 3.84 10.24 8.854 14.613 5.227 3.52-2.88 3.733-2.88 1.6-.107-3.093 4.054-.96 13.334 2.667 11.947 1.493-.64 3.733 0 5.12 1.387 1.493 1.493 2.346 1.493 2.346.106 0-1.173 2.774-1.706 6.187-1.28 3.307.534 6.72-.106 7.573-1.386 2.24-3.627 6.08-2.774 4.587 1.173-1.28 3.2-.96 3.2 3.947-.107 4.48-2.88 5.12-2.986 4.053-.213-.64 1.707-.107 3.2 1.173 3.2s2.347-1.493 2.347-3.2c0-5.12 3.733-3.627 4.8 1.92.747 4.16.107 5.013-3.093 4.373-2.134-.426-3.414.107-2.774 1.174.64.96.214 2.453-.853 3.093-1.173.747-3.093-.427-4.267-2.56-2.133-3.52-2.24-3.52-2.24.213-.106 2.667-1.173 3.52-3.413 2.667-1.813-.64-2.773-.427-2.133.64.64 1.067-.32 2.453-2.24 3.2-5.334 2.027-7.254 1.493-7.254-2.027 0-1.813.96-2.773 2.134-2.026 1.173.746 2.133.426 2.133-.747 0-1.067-1.387-2.56-3.2-3.2-2.453-.96-3.2.427-3.2 5.973 0 6.08-.64 7.04-4.267 6.08-2.346-.64-4.266-2.133-4.266-3.306 0-1.174-1.387-.96-3.2.533-2.56 2.133-3.2 2.133-3.2 0 0-1.387-1.387-2.027-3.094-1.387-1.813.64-3.733.32-4.48-.853-.64-1.067-4.053-2.027-7.466-2.027-3.52 0-6.294-.32-6.294-.746 0-2.987 7.147-14.187 9.067-14.187 1.28 0 .213-2.24-2.347-4.907-5.013-5.44-5.973-10.026-2.133-10.026 1.387 0 1.92.64 1.067 1.386zm39.146 9.707c0 .853 1.707.96 3.734.32 2.986-1.067 2.88-.64-.534 2.133-4.8 3.84-10.666 4.267-17.066 1.174-3.414-1.6-2.774-1.814 2.666-.96 6.72 1.066 9.707-1.707 4.267-3.734-1.493-.64-.533-.96 2.133-.853 2.667.213 4.8.96 4.8 1.92zm142.827 15.04c8.427.32 11.52 3.84 6.293 7.04-1.706 1.067-1.493 2.027.534 3.307 1.6 1.066 1.813 1.92.533 1.92-1.28 0-4.053-1.92-6.187-4.267-2.133-2.347-4.906-4.267-6.186-4.16-1.28 0-.64 1.387 1.493 2.987 3.84 2.88 3.84 2.986 0 5.44-3.413 2.24-3.413 2.346-.107 1.28 2.027-.64 3.734-.107 3.734 1.066 0 1.174.96 1.6 2.026.854 1.28-.747 2.027 1.92 1.814 6.293-.214 5.013-1.28 7.573-3.307 7.573-1.707 0-2.667-1.28-2.027-2.88 1.067-2.666-7.04-14.186-9.92-14.186-2.24 0-1.6 8.213.747 9.6 1.173.746 2.133.106 2.133-1.28 0-4.16 2.88-.107 3.627 5.12.32 2.56-.107 3.733-.96 2.56-2.027-2.774-7.68-3.947-5.973-1.28 2.133 3.52-4.054 4.053-7.894.64-2.346-2.027-3.733-2.347-3.733-.747 0 1.387-1.387 2.453-3.2 2.453-1.813 0-3.093.747-2.987 1.6 1.814 11.52-.533 19.627-5.546 19.2-2.88-.213-5.334-1.6-5.334-3.093 0-1.387 1.387-2.133 2.987-1.493 4.267 1.6 6.187-2.56 3.413-7.68-3.946-7.36-.746-12.374 9.174-14.507 5.546-1.067 8.746-2.88 8.32-4.587-.32-1.493.426-3.84 1.6-5.333 1.173-1.493 1.6-3.2.96-3.84-.747-.747.746-.747 3.2-.107 4.8 1.174 5.653-.64 2.56-5.546-2.24-3.52-8.747-1.6-8.747 2.56 0 1.6-1.387 2.88-3.2 2.88-4.16 0-4.16-2.667 0-4.267 1.813-.747 3.093-2.027 2.987-2.88-.64-4.053.533-5.12 4.373-3.84 2.24.64 8 1.387 12.8 1.6zm135.893 6.827c0 1.493-2.24 2.773-4.906 2.773-3.307 0-5.014-1.28-5.014-3.733 0-2.667 1.28-3.414 5.014-2.774 2.666.534 4.906 2.24 4.906 3.734zm-266.133 1.706c1.173 3.094.96 5.44-.64 6.507-1.28.96-.213 1.173 2.453.427 4.907-1.387 6.934 2.133 2.134 3.84-1.494.426-.534.533 2.133.106 3.627-.64 4.8.214 4.8 3.52 0 4.374-2.24 5.547-5.12 2.667-.96-.853-2.56-1.707-3.627-1.92-1.066-.107-2.88-.32-4.053-.533-1.173-.107-2.027-.96-1.92-1.814.747-4.48-.427-7.04-2.667-5.653-1.386.853-1.92.32-1.28-1.493.534-1.6 2.027-2.774 3.2-2.56 1.28.32 1.707-1.387 1.174-3.734-1.6-5.76 1.173-5.226 3.413.64zm307.413.534c0 3.2-3.84 6.4-5.653 4.693-.64-.64-.533-3.2.32-5.653 1.493-4.694 5.333-4.054 5.333.96zm20.267 5.333c.747 1.173 4.267 2.133 8 2.133 7.147 0 6.507 2.774-.96 3.307-2.453.107-6.293-1.493-8.427-3.627-2.133-2.133-3.093-3.946-1.92-3.946 1.067 0 2.56.96 3.307 2.133zm166.827 9.6c-3.094 2.133-7.574 2.453-15.36 1.067-1.174-.32 1.706-1.707 6.4-3.094 9.493-2.986 14.293-1.92 8.96 2.027zm-144.427 2.027c0 2.453-1.173 2.666-6.4.853-3.52-1.28-6.4-2.667-6.4-3.093 0-.427 2.88-.854 6.4-.854 4.16 0 6.4 1.067 6.4 3.094zm-426.667 2.026c0 1.707 1.174 3.627 2.667 4.267 1.493.64.747.96-1.6.64-2.773-.213-4.053.64-3.733 2.773.426 2.454-.107 2.347-2.347-.533-2.987-3.84-5.653-2.88-5.653 2.133 0 1.707 1.066 2.347 2.666 1.387 1.814-1.067 2.027-.747.534.853-2.56 2.774-12.267.854-10.454-2.026.64-1.067 2.24-1.28 3.627-.427 1.387.747 1.92.64 1.067-.213-3.52-3.84 2.56-9.92 7.253-7.36 3.84 2.026 4.267 1.92 3.2-1.067-.747-1.813-.427-3.413.747-3.413 1.066 0 2.026 1.386 2.026 2.986zm115.2 4.48c-3.2 3.84.107 4.267 4.16.534 2.347-2.134 2.56-2.134 1.174.213-.96 1.707-.427 3.733 1.28 4.8 2.346 1.387 2.026 1.92-1.28 1.92-4.16.107-4.16.213-.32 3.093 2.133 1.707 3.306 4.054 2.56 5.334-2.134 3.306-6.08 2.666-4.694-.747.64-1.707-.426-3.627-2.24-4.373-1.92-.64-2.773-1.92-2.026-2.667.746-.747.213-2.667-1.174-4.373-1.92-2.347-1.813-3.414.534-4.907 4.48-2.773 5.013-2.453 2.026 1.173zm449.92 15.147c-2.133 2.56-2.986 2.667-4.373.427-3.52-5.44-2.133-8.427 2.56-5.867 3.627 1.92 3.947 2.88 1.813 5.44zm-160.853-1.28c3.2 1.387 3.413 1.92.853 2.027-1.813 0-4.48 2.56-5.866 5.546-1.387 3.094-3.52 4.8-4.8 4.054-1.707-1.067-1.6-1.92.213-3.094 1.493-.96 2.027-2.773 1.173-4.053-3.2-5.227 1.174-7.573 8.427-4.48zm29.76 8.32c-.32 1.813-.747 4.16-.747 5.013-.106.854-1.28 1.6-2.453 1.6-1.28 0-1.6-1.066-.853-2.346.853-1.28.32-3.2-1.174-4.054-2.133-1.386-2.133-2.346.214-4.906 3.306-3.52 6.186-.96 5.013 4.693zm112.747 2.56l4.693 4.587-4.693-2.454c-6.08-3.093-7.147-2.986-5.654.854.64 1.706 3.307 3.306 5.76 3.52 4.267.213 4.267.32-.426 1.173-3.2.64-4.48 2.027-3.734 4.053.64 1.707-.106 2.987-1.706 2.987-3.627 0-13.974-8.32-10.56-8.427 1.386-.106 2.88 1.067 3.413 2.454.427 1.493 2.347 1.813 4.907.853 3.946-1.6 3.946-1.813-.64-3.52-2.667-1.067-4.8-2.347-4.8-2.987 0-.533 1.6-.426 3.52.32 2.453.96 3.093.534 2.026-1.173-1.493-2.347-.106-6.72 2.134-6.72.533 0 3.2 2.027 5.76 4.48zm18.56-2.24c0-1.387.96-1.92 2.133-1.173 3.2 2.026 2.56 6.826-1.173 8.32-4.907 1.813-11.734-2.987-8.747-6.294 1.707-1.813 3.307-2.026 5.12-.533 1.813 1.6 2.667 1.493 2.667-.32zm11.52 6.08c.64.96-1.814 2.453-5.547 3.2-3.627.747-5.973 1.92-5.227 2.773 2.24 2.24-7.253 6.614-11.733 5.44-8-2.026-4.16-6.506 6.72-7.786 3.733-.427 7.787-1.814 9.173-3.2 2.88-2.88 5.12-2.987 6.614-.427zm-280.747 9.173c3.093 3.094 3.413 8.107.427 8.107-1.174 0-2.027-.747-1.92-1.6.746-4.16-.534-5.12-3.414-2.667-2.56 2.134-3.2 2.027-3.2-.426 0-5.974 3.947-7.574 8.107-3.414zm102.187 9.174c1.92 17.066 1.813 20.693-.854 24.533-1.706 2.347-3.946 4.267-5.226 4.267-1.174 0-.64-1.494 1.28-3.307 3.626-3.733 4.48-6.187 1.386-4.267-.96.64-3.093-.32-4.48-2.026-2.026-2.454-2.026-3.2-.106-3.2 1.386 0 1.92-.96 1.173-2.134-.747-1.173-3.627-2.133-6.507-2.133s-5.226-.96-5.226-2.133c0-1.174 2.026-2.134 4.373-2.134 2.453 0 3.84-.96 3.093-2.133-.746-1.173.107-1.493 2.027-.853 1.813.746 2.773 2.133 2.133 3.2-.64 1.066.32 1.28 2.134.64 3.626-1.494 4.48-5.12 1.173-5.12-1.173 0-2.133-1.494-2.133-3.2 0-1.814-1.067-3.2-2.24-3.2-1.28 0-1.6 1.173-.64 2.666 1.066 1.814.426 1.707-2.027-.213-5.12-4.16-4.587-4.907 3.307-4.16 5.12.427 7.04 1.813 7.36 4.907zm45.226 5.12c1.6 1.066 2.24 2.986 1.387 4.266-.747 1.28.107 2.987 1.92 3.627 4.587 1.813 4.16 4.16-.853 4.16-2.24 0-3.627-.64-3.094-1.387 1.494-2.56-1.6-8.426-3.733-7.04-2.987 1.814-8.747-.853-7.147-3.413 1.6-2.56 7.467-2.773 11.52-.213zm-59.946 8.746c.746 0 .106 1.174-1.387 2.667-2.133 2.133-2.987 2.027-4.48-.32-.96-1.6-2.667-2.347-3.733-1.707-1.067.64-3.094-.64-4.48-2.986-2.56-4.054-2.454-4.054 5.12-.854 4.266 1.707 8.32 3.2 8.96 3.2zm74.986 1.28c-1.813 2.134-1.92 2.987-.106 2.987 7.253 0 1.173 8.107-7.04 9.387-4.48.64-7.04 3.413-3.2 3.52 2.346 0 2.346.533-.427 2.666-1.813 1.387-3.947 3.947-4.587 5.76-.853 2.027-1.386 1.28-1.6-2.133-.213-2.987-.533-8-.746-11.2-.32-3.2.32-5.867 1.173-5.867.96 0 1.707 1.387 1.707 3.2 0 2.454.96 2.24 4.266-1.066 2.347-2.347 4.267-5.654 4.267-7.254 0-3.2 4.16-5.653 7.04-4.053.96.533.533 2.347-.747 4.053zm-92.053 2.454c-.64 5.333-.107 5.866 6.293 5.546 3.84-.213 6.4.534 5.76 1.6-.64 1.067-2.986 1.92-5.12 1.92-3.84 0-7.36 6.72-6.613 12.587.213 1.6-2.027.213-4.907-3.2-5.333-6.08-5.44-6.08-8.64-1.92-3.413 4.48-4.266 3.733-2.133-1.92.747-1.92 2.56-3.413 4.16-3.413 4.373 0 5.653-3.734 2.987-8.747-1.92-3.627-1.814-5.013.426-6.4 5.547-3.52 8.427-2.133 7.787 3.947zm-93.653 3.52c1.6 1.173 5.76 1.92 9.28 1.6 3.733-.427 5.866.106 5.013 1.386-.64 1.174-5.973 1.814-11.733 1.494-8.747-.534-10.667 0-11.52 3.2-.747 2.773-.107 3.626 1.92 2.773 2.026-.747 2.666 0 1.813 2.24-.747 1.813-2.56 2.773-4.16 2.133-4.16-1.6-5.973-7.573-2.773-9.493 2.026-1.28 1.706-2.027-1.067-3.093-5.12-2.027-4.48-4.8 1.173-5.76 5.12-.854 7.36-.214 12.054 3.52zm55.68-.854c0 5.227-2.134 6.4-6.507 3.734-2.56-1.6-3.307-3.307-1.92-4.907 2.987-3.627 8.427-2.88 8.427 1.173zm130.24 21.014c0-1.6 1.386-.534 2.986 2.453 2.667 4.693 2.56 5.547-.64 6.827-5.76 2.346-6.186 2.026-7.146-4.694-.747-5.013-.427-5.866 1.92-3.946 2.026 1.706 2.773 1.6 2.88-.64zm-7.787 6.4c1.493 2.346-4.373 10.346-6.187 8.426-1.92-1.813.747-10.24 3.2-10.24 1.067 0 2.347.854 2.987 1.814zm-36.8 3.2c-1.387 1.6-1.813 3.413-1.067 4.16.747.746.214 2.666-1.066 4.266s-1.92 3.414-1.28 4.054c.64.64-.32 1.706-2.134 2.453-3.733 1.387-4.693-3.947-1.173-6.08 3.2-2.027.107-5.867-3.627-4.373-1.92.746-2.773.106-2.24-1.494.534-1.493 2.987-2.346 5.547-2.026 2.56.426 4.587-.32 4.587-1.6 0-1.174 1.066-2.24 2.346-2.24 1.814 0 1.814.746.107 2.88zm-309.653 7.786c-1.28 2.347-3.627 4.267-5.227 4.267-1.6 0-3.413 1.173-4.053 2.667-.534 1.493-1.174.426-1.174-2.24-.106-3.094 1.494-5.547 4.587-6.72 7.36-2.987 8.32-2.667 5.867 2.026zm111.146-293.866c.534 6.613 3.627 13.546 3.84 8.746.107-2.56.747-6.186 1.494-8 .853-2.24.106-3.413-2.134-3.413-1.92 0-3.306 1.173-3.2 2.667zm277.44 124.16c.107 10.026 3.627 19.84 4.054 11.413.96-17.173.64-21.76-1.6-22.507-1.814-.533-2.56 2.667-2.454 11.094zm-468.266 28.16c-2.774 2.773-1.387 5.546 1.6 3.093 1.813-1.493 5.44-1.92 8.853-1.067 4.16 1.067 5.44.747 4.373-.96-1.6-2.666-12.48-3.413-14.826-1.066zm346.453-256.427c-1.707 2.027-3.2 20.267-4.48 53.867-2.88 78.08-3.84 95.146-5.227 100.053-1.6 5.12 3.627 11.52 9.174 11.52 3.2-.107 3.2-.32.426-2.347-2.453-1.706-1.493-2.026 4.054-1.066 3.946.746 12.586 1.493 19.2 1.6l11.946.426-12.8 1.174c-17.493 1.813 23.254 4.693 74.027 5.44 25.28.32 36.587 1.28 38.933 3.306 2.027 1.6 6.187 2.24 10.774 1.494 4.16-.64 7.466-.32 7.466.746 0 1.174 4.587 2.134 10.134 2.134 5.546.106 21.653 1.386 35.733 2.88 18.347 1.92 26.027 2.026 27.2.426.853-1.28 1.493-31.68 1.493-67.413 0-35.84-.64-66.133-1.493-67.52-2.027-3.093-50.667-15.893-80.533-21.227-3.52-.533-9.28-2.026-12.8-3.093-3.52-1.067-9.28-2.347-12.8-2.773-3.52-.534-30.187-5.76-59.307-11.84-59.52-12.267-57.6-11.947-61.12-7.787zm67.627 15.253l51.733 10.24.427 17.174.426 17.173.747-16.533c.427-9.067 1.493-16.534 2.453-16.534 15.574 0 98.24 24.96 91.2 27.52-3.52 1.28-3.52 1.814-.64 4.16 3.307 2.88 2.454 9.814-.96 7.68-1.066-.64-1.92-.213-1.92.96 0 1.174.96 2.667 2.134 3.414 1.28.746 1.493 2.453.64 3.84-1.067 1.92-.747 2.026 1.6.106 2.56-2.133 3.2-1.066 3.733 6.4 1.92 29.334 1.493 41.6-1.92 53.12-2.027 6.72-2.773 12.267-1.813 12.267 1.066 0 1.28 1.493.64 3.307-.747 1.813-2.667 2.88-4.267 2.24-1.6-.64-2.88-.214-2.88.96 0 1.066 1.387 2.026 3.093 2.026 1.6 0 3.307 1.707 3.84 3.734 1.067 5.226-.64 11.413-2.88 10.026-1.066-.64-1.28.32-.64 2.134.96 2.453-.106 3.306-4.053 3.306-4.267 0-5.76-1.386-6.827-6.4-1.92-8.746-5.333-10.24-5.333-2.24s7.36 8-78.933.107c-38.08-3.52-71.04-6.4-73.067-6.4-2.88 0-3.733-1.813-3.733-7.467 0-4.16-.96-7.466-2.134-7.466-1.173 0-2.133 3.2-2.133 7.04v7.04l-17.493-1.707c-9.6-.96-18.24-2.453-19.307-3.52-1.707-1.707 2.027-141.013 3.947-147.2.64-2.027 2.88-2.56 6.72-1.813 3.2.64 29.12 5.76 57.6 11.306zm-9.387 40.96c-17.813 11.414-33.707 21.654-35.413 22.827-2.454 1.707 4.16 9.173 31.893 36.16 40.427 39.253 43.307 40.213 38.08 12.907-1.6-8.214-2.667-15.147-2.347-15.467.32-.427 27.627 3.2 60.8 8 33.174 4.693 60.587 8.533 61.12 8.533.427 0 .854-8.426.854-18.773v-18.773l-25.067-4.907c-13.76-2.667-40.747-7.573-59.84-10.88-41.067-7.04-37.76-4.907-33.493-21.333 6.4-24.854 4.586-24.747-36.587 1.706zm24.107 21.227c3.733 3.84 8.32 6.933 10.133 6.933 2.24 0 3.413 1.92 3.413 5.44 0 3.947-.96 5.227-3.733 4.8-2.56-.426-3.52.534-3.093 3.307.426 2.453-.96 4.267-3.734 5.013-2.346.64-4.373 1.814-4.373 2.667 0 .853-1.387 1.493-3.2 1.493-1.707 0-3.2-1.173-3.2-2.56 0-1.706-1.707-2.24-4.373-1.6-2.347.64-4.16.32-3.947-.64.747-4.586-.533-6.826-4.693-7.893-2.454-.64-3.84-2.24-3.094-3.52.747-1.173-.106-2.24-1.92-2.24-7.253 0-.213-10.987 8.96-13.76 2.667-.853 4.374-2.24 3.84-3.2-2.88-4.693 7.147-.213 13.014 5.76zm43.413-31.573c0 14.506 3.627 15.573 3.947 1.173.213-6.507-.64-11.733-1.814-11.733-1.173 0-2.133 4.693-2.133 10.56zm-.747 106.026c-2.24 2.24-1.6 11.414.747 11.414 1.173 0 2.133-2.88 2.133-6.4 0-6.614-.426-7.36-2.88-5.014zm-351.36 4.48c-.853 14.614-2.133 120.747-1.386 120 1.6-1.706 3.946-31.786 3.626-47.466-.106-10.88.427-14.294 2.56-13.867 1.814.32 2.667-1.6 2.454-5.867-.214-3.52-.854-16.533-1.494-28.8-.64-12.373-1.173-23.146-1.28-24 0-.853-1.066-1.6-2.24-1.6-1.173 0-2.133.747-2.24 1.6zm-99.733 47.894c-2.027.853 1.92 1.386 8.747 1.28 6.826-.214 12.8-1.067 13.333-1.92 1.28-1.92-17.067-1.387-22.08.64zm27.307-.854c0 .96 4.373 2.027 9.813 2.24 5.333.32 9.28-.32 8.64-1.386-1.493-2.347-18.453-3.094-18.453-.854zm139.626 0c2.667 2.667 95.04 6.187 143.04 5.334 14.08-.214 33.814-.32 43.734-.214 36.906.427 50.24-.106 55.466-2.24 4.16-1.706-.96-2.346-22.4-2.666-39.253-.854-220.586-.96-219.84-.214zm309.334 2.667c-.96 1.707-.747 2.133.64 1.28 2.453-1.493 13.44 2.56 15.786 5.76.747 1.067 17.067 2.347 36.267 2.773 19.2.534 37.013 1.174 39.68 1.6 3.84.534 4.8-.32 4.8-4.48 0-5.013-.533-5.226-14.4-5.013-21.76.32-60.053-1.28-71.253-2.987-6.934-1.173-10.347-.853-11.52 1.067zm-477.76 12.693c15.68 1.707 60.053 2.667 58.453 1.28-.427-.426-17.173-1.28-37.12-1.813-22.08-.747-30.4-.533-21.333.533zm273.066 17.067l-8.533 1.28 9.173 1.067c5.12.533 9.707.32 10.24-.534 1.6-2.56-1.92-3.093-10.88-1.813zm-338.133 11.52v9.173l9.6-.32c5.333-.213 9.6.427 9.6 1.387s-2.667 1.813-5.867 1.92l-5.866.32 6.186 1.28c3.414.747 6.72 2.987 7.467 5.013.96 2.667 2.24 3.094 4.373 1.707 2.774-1.6 2.667-2.133-.32-3.307-2.026-.746-3.093-2.666-2.453-4.373.64-1.6 2.027-2.453 3.093-1.813 1.067.64 1.92.32 1.92-.854 0-1.173-1.173-2.56-2.666-3.2-1.6-.64-1.28-1.066.96-1.173 1.92-.107 4.266-1.387 5.12-2.667 1.066-1.706.32-2.133-2.24-1.066-2.667.96-4.054.213-4.8-2.987-.64-2.453-2.454-3.947-3.84-3.413-1.494.64-4.48-.107-6.72-1.6-8.96-5.974-13.547-3.947-13.547 5.973zm448.213-6.507c2.027 1.814 21.12 2.88 21.12 1.174 0-1.067-4.906-1.92-10.986-1.92-6.08 0-10.667.32-10.134.746zm-160.746 7.147c3.84.533 9.6.533 12.8 0 3.2-.427.106-.853-6.934-.853s-9.706.426-5.866.853zm-11.52 4.373c.213 2.667-1.814 4.054-7.147 5.014l-7.467 1.386 8.214.214c9.6.32 9.92 5.226.32 6.4-4.587.533-5.334 1.173-2.987 2.56 2.24 1.493 2.347 1.92.213 2.026-1.6 0-2.24.96-1.493 2.134.747 1.173.32 2.133-.96 2.133-1.173 0-2.24 1.28-2.24 2.987 0 1.6-1.387 4.053-3.2 5.546-1.707 1.387-2.667 3.52-2.027 4.48.64 1.067-.533 1.92-2.666 2.027-3.52 0-3.52.32.426 3.413 3.2 2.56 3.307 3.094.747 2.24-4.587-1.6-7.253 4.694-3.52 8.32 2.24 2.24 3.627 2.134 7.04-.426 4.053-3.094 4.053-3.2-1.6-2.134-3.307.534-5.867 0-5.867-1.173 0-1.28 1.28-1.813 2.774-1.173 3.733 1.386 16.426-4.054 16.426-7.147 0-1.387-1.386-1.92-3.2-1.28-2.666 1.067-2.666.533-.533-2.987 1.707-2.666 3.947-3.733 6.507-2.88 2.133.64 6.186-.32 8.96-2.133 2.88-1.92 6.613-3.413 8.426-3.413 1.814 0 3.307-.96 3.307-2.134 0-1.173-.96-2.133-2.133-2.133-1.174 0-2.134-1.92-2.134-4.267 0-2.346-1.173-4.053-2.666-3.733-1.6.32-2.454-1.387-2.134-4.267.427-4.48-5.013-13.333-8.213-13.333-.853 0-1.28 1.707-1.173 3.733zm2.88 21.867c-.107 2.347-1.067 4.267-1.92 4.267-.96 0-2.347.213-3.094.533-.746.32-1.706-1.707-2.133-4.373-.427-2.88.107-4.374 1.387-3.627 1.173.747 2.133.213 2.133-1.067s.853-1.813 2.027-1.173c1.066.747 1.813 3.2 1.6 5.44zm-25.707-22.08c-3.307 3.413-1.387 11.413 2.88 11.413 3.307 0 4.267-1.386 4.267-6.4 0-5.973-3.52-8.533-7.147-5.013zm78.613 24.427c-4.053 1.493-4.053 1.6.427 1.813 2.56 0 5.227 1.067 5.973 2.24 1.494 2.347 5.334.853 5.334-2.027 0-2.666-7.04-3.946-11.734-2.026zm-167.36 3.52c-.106 1.493-1.706 2.666-3.733 2.666-3.2 0-3.2.32.32 2.88 3.093 2.24 3.733 4.587 2.667 10.667-.64 4.267-.427 7.787.533 7.787 2.453 0 4.267-19.734 2.133-23.467-1.28-2.133-1.92-2.24-1.92-.533zm131.2.426c-.746 1.067-3.093 1.6-5.44 1.174-5.013-.96-6.826 1.28-4.266 5.333 1.386 2.24 2.453 2.347 4.8.427 1.706-1.387 3.52-2.134 4.053-1.6.533.533 2.027-.854 3.52-3.2 1.387-2.24 1.707-4.16.533-4.16-1.066 0-2.56.853-3.2 2.026zm6.614 3.094c-3.094 4.8-3.094 5.12.96 6.186 3.413.96 3.84.534 1.92-1.706-1.814-2.24-1.387-2.987 2.346-3.52 4.16-.64 4.374-1.067 1.494-3.414-2.774-2.346-3.84-1.92-6.72 2.454zm24.213-1.067c0 1.067-2.987 1.493-6.613.96-4.16-.64-6.187-.213-5.334 1.067.747 1.173-.32 2.56-2.453 3.093-2.027.427 2.027.747 9.067.64 9.6-.107 12.693.533 12.266 2.56-.426 1.6.32 2.347 1.387 1.6 1.173-.64 3.093.427 4.267 2.56 1.28 2.027 2.24 2.987 2.24 2.027.106-.854-1.494-4.054-3.414-7.04-3.84-5.76-11.413-10.88-11.413-7.467zm-296.533 5.867c0 1.493 1.066 3.306 2.24 4.053 1.28.747 1.813 2.88 1.066 4.587-.853 2.346-.213 2.88 2.134 1.92 1.92-.64 6.506-1.387 10.24-1.494 6.293-.213 6.4-.32 1.386-1.706-3.626-.96-4.48-2.027-2.666-3.094 4.16-2.56 3.093-5.333-1.6-4.16-2.347.64-4.267.107-4.267-1.066 0-1.28-1.92-2.134-4.267-2.027-2.346.213-4.266 1.6-4.266 2.987zm243.413 7.68c-2.88 4.693-2.88 4.693 1.387.96 3.626-3.307 4.48-3.307 5.546-.64.747 2.026-.426 3.733-2.986 4.48-6.4 2.026-4.907 5.546 1.706 4.053 7.787-1.92 7.787-1.813 3.627-8.107-4.373-6.826-5.547-6.826-9.28-.746zm41.387-2.667c-2.347.96-3.094 1.92-1.6 2.027 1.493 0 2.666 1.493 2.666 3.2 0 3.52-7.36 6.4-10.986 4.16-1.494-.854-1.92-.64-1.067.746.747 1.174 0 2.774-1.707 3.414-1.706.64-3.413 0-3.946-1.387-.427-1.387-.64-.96-.32 1.067.213 1.92-.854 4.053-2.454 4.693-1.6.64-2.986.213-2.986-.96 0-1.067-2.134-2.027-4.8-1.92-4.48.107-4.48.213 1.066 3.2 6.934 3.733 7.574 6.293 1.707 6.72-2.56.213-3.733-.64-3.093-2.347.533-1.493-.427-2.666-2.24-2.666-1.814 0-3.307 1.706-3.307 3.84 0 2.346-1.6 3.946-3.733 3.946-2.88.107-3.094.427-.854 1.92 2.134 1.387 2.24 2.24.427 3.414-1.387.853-2.027 2.88-1.387 4.48.64 1.706-.213 2.986-1.813 2.986-4.053 0-6.187-3.626-2.773-4.8 2.026-.746 1.706-2.666-1.174-7.68-2.133-3.733-3.306-7.68-2.56-8.853 1.174-2.027-1.813-3.093-6.08-2.347-1.066.214-1.28-1.28-.533-3.413 1.173-3.413.96-3.413-1.813.213-1.707 2.24-2.667 4.907-2.027 5.867.64.96.107 1.813-1.067 1.813-1.28 0-2.88-2.346-3.52-5.12-1.813-7.04-22.293-9.706-22.293-2.986 0 1.28 3.307 1.706 8 .96 4.373-.64 6.827-.747 5.333-.107-1.493.64-2.026 2.24-1.28 3.413.854 1.494-1.386 1.92-6.4 1.387-4.266-.533-7.786-.213-7.786.853 0 2.88 11.2 6.187 16.64 4.8 3.733-.96 4.693-.533 3.413 1.494-.853 1.493-.853 2.133.107 1.28.853-.747 3.84-.534 6.613.533 3.093 1.173 5.547 1.067 6.293-.213.747-1.067-.426-2.027-2.56-2.027-3.2-.107-3.306-.427-.64-2.133 6.08-3.947 5.974-4.054 3.84 16.533-.106 1.493-1.6 2.667-3.093 2.667-1.6 0-2.88.853-2.88 1.92 0 2.453 12.053 4.16 15.36 2.133 1.493-.96 3.413-.533 4.267.853 1.386 2.24 2.773-4.48 1.92-9.706-.107-.854.64-1.6 1.706-1.6.96 0 2.347-1.814 2.88-3.947.534-2.133 3.2-4.48 5.76-5.227 3.414-.853 4.374-.426 3.627 1.707-.64 1.6.427 3.413 2.453 3.947 2.027.533.854.853-2.56.64-4.8-.214-6.293.64-6.826 4.48-.534 3.093.213 4.8 2.24 4.8 3.84 0 6.72-4.267 2.88-4.374-1.494-.106.533-1.28 4.48-2.666 6.933-2.454 12.266-8.747 6.293-7.467-1.6.427-3.093-1.6-3.413-4.693-.534-4.587-.32-4.8 1.6-1.6 4.48 7.146 10.346 3.306 8.746-5.654-.213-.96 1.494-1.28 3.84-.746 3.2.853 3.84.32 2.88-2.347-.746-1.92 1.28-.747 4.374 2.667 3.2 3.413 6.506 5.44 7.36 4.48.853-.854.426-2.027-1.067-2.56-1.493-.534-2.667-3.414-2.667-6.294 0-3.093-.96-4.693-2.24-3.946-1.386.853-1.813-.64-1.173-4.054.533-3.093.853-5.44.64-5.44-.213.107-2.347 1.067-4.693 2.027zm27.413 6.08c-1.493 3.947-1.707 7.147-.533 7.893 2.56 1.6 4.586-3.84 3.733-9.813-.64-4.16-1.067-3.947-3.2 1.92zm-8.213-1.813c.746 1.173-.64 2.133-3.094 2.133-2.346 0-4.373 1.387-4.373 3.093 0 4.374 2.773 5.44 6.4 2.56 3.947-2.986 5.333-9.92 2.133-9.92-1.28 0-1.813.96-1.066 2.134zm-272 2.133c-4.907 1.173-8 8.747-3.414 8.32 1.067-.107 2.774 1.173 3.84 2.667 1.494 2.026 1.814 1.493 1.067-1.92-1.493-6.507 1.493-7.787 8.64-3.734 4.373 2.454 4.693 3.094 1.28 2.134-2.56-.64-5.333-.107-6.187 1.28-1.066 1.6-.746 2.026.854 1.066 1.386-.853 2.453-.426 2.453.854 0 1.493 1.707 1.92 4.587.96 3.306-1.067 4.053-.747 2.88 1.28-1.28 1.92-.214 2.346 3.946 1.6 3.094-.64 5.654-.32 5.654.746 0 .96-1.067 1.814-2.454 1.814-1.386 0-1.92.533-1.28 1.28.64.64 3.307.106 5.974-1.28 2.56-1.387 5.333-1.707 6.08-.747.64.96 2.773 2.133 4.48 2.56 6.826 1.6 9.706 2.133 13.866 2.453 4.267.32 4.267.32 0 2.027-2.773 1.173-.426 1.493 6.934 1.173 6.08-.32 13.546-2.133 16.533-4.053 6.827-4.48 6.72-5.547-.213-4.267-4.054.747-5.014.32-3.84-1.706.853-1.494.853-2.134-.107-1.28-.853.746-3.947.533-6.72-.534-3.627-1.386-5.12-1.173-5.12.64-.107 1.814-.747 1.6-2.027-.426-1.066-1.707-1.493-3.84-.853-4.8.533-.96-.533-1.707-2.453-1.707-2.027 0-2.88.96-1.92 2.453.96 1.6.533 1.92-.96.96-1.387-.853-1.92-2.453-1.28-3.52 1.386-2.24-9.067-7.68-10.987-5.76-.64.64-.107 3.307 1.28 5.76 3.733 7.04 1.493 10.134-3.627 5.014-3.413-3.414-5.12-3.947-7.146-2.027-2.027 1.92-2.24 1.813-1.174-.213.854-1.494.32-2.667-1.28-2.667-2.24-.107-2.24-.427 0-1.813 1.6-.96-1.813-1.707-8.106-1.6-5.974.106-11.52-.854-12.374-2.134-.853-1.173-3.84-1.6-6.826-.853zm-33.494 3.52c1.814 3.093-.32 9.28-3.2 9.28-1.173 0-1.493-1.707-.746-3.733 1.173-3.094.96-3.2-1.387-.96-2.24 2.346-2.133 3.306.96 5.653 2.027 1.493 3.733 4.267 3.733 6.187s1.494 3.52 3.2 3.52c1.814 0 3.2.853 3.2 1.92 0 1.066 1.707 1.706 3.734 1.386 2.026-.32 5.546.32 7.68 1.387 5.013 2.667 18.666 3.84 17.28 1.493-.64-.96 1.6-3.2 4.8-4.906 3.413-1.92 4.586-3.307 2.666-3.307-1.813-.107-4.266.853-5.546 2.133-3.094 3.094-13.547 4.694-13.547 2.027 0-1.28 2.56-3.2 5.653-4.373 9.387-3.627.747-7.894-14.4-7.147-12.373.64-16.426-3.52-6.08-6.187 2.347-.64 4.16-2.133 4.16-3.413 0-2.987-3.626-3.093-5.44-.107-.853 1.494-2.453 1.28-4.8-.533-2.026-1.707-2.773-1.813-1.92-.32zm28.054 13.333c.64.96-.107 1.814-1.494 1.814-8-.32-10.56.746-9.386 3.733 1.066 2.56.106 2.987-4.587 1.92-8.64-2.133-10.773-5.12-3.52-5.12 3.413 0 7.787-.96 9.493-2.133 4.054-2.56 7.894-2.667 9.494-.214zm212.906-8.853c.854.533 1.6 2.56 1.6 4.587 0 5.013 5.44 4.8 5.867-.107.107-2.24-.533-3.947-1.6-3.947-.96 0-3.093-.32-4.587-.746-1.6-.32-2.133-.32-1.28.213zm338.667 5.76c0 2.773 10.453 8.427 12.267 6.613.64-.533-.427-1.706-2.454-2.453-2.346-.853-2.88-2.133-1.493-3.733 1.387-1.707.427-2.56-3.2-2.774-2.773-.106-5.12.854-5.12 2.347zm-607.467 11.84c0 11.093 3.414 13.653 15.467 11.84 6.293-.96 9.6-.64 9.6.853 0 3.627 18.24 2.667 21.44-1.066 2.24-2.774 2.24-3.2-.32-2.667-1.6.32-2.773-.533-2.453-2.027.32-1.493-.32-2.666-1.387-2.666s-2.56 1.173-3.2 2.666c-.747 1.814-2.24 1.174-4.587-2.133-2.773-3.627-4.373-4.267-7.466-2.667-4.374 2.454-7.574-.533-5.014-4.586 1.067-1.707.32-2.027-2.346-1.067-2.987 1.173-3.307.853-1.387-1.387 3.093-3.733-9.813-4.266-14.507-.64-2.346 1.814-2.666 1.707-1.493-.32.96-1.493.747-2.666-.32-2.666s-2.027 3.84-2.027 8.533zm12.267 7.573c0 3.947-5.12 3.947-8.427.107-1.92-2.453-1.706-3.2 1.387-3.947 4.907-1.066 7.04 0 7.04 3.84zm81.387-7.36c-2.667 4.374-12.587 3.734-15.787-1.066-1.067-1.6-1.493-1.494-1.6.426 0 1.6-.96 2.24-2.133 1.494-3.307-2.027-8.427 4.16-6.294 7.573 1.067 1.813.747 4.16-.746 5.973-2.134 2.56-1.707 2.774 2.773 1.28 2.987-.96 10.133-1.813 16-1.706 5.867 0 8-.32 4.8-.854-3.2-.426-5.867-1.493-5.867-2.346 0-2.454 8.214-6.72 8.96-4.587.32 1.067 2.774.32 5.44-1.707 4.587-3.52 4.587-3.733.96-6.08-3.2-2.026-4.373-1.706-6.506 1.6zm48.213 4.054c-1.387 2.346-3.84 4.266-5.44 4.266-1.493 0-2.133 1.067-1.387 2.24.747 1.28 2.454 1.92 3.84 1.387 4.267-1.6 11.414 2.24 12.587 6.827.64 2.453.32 4.48-.747 4.48-1.066 0-1.92-.96-1.92-2.027 0-1.173-1.813-3.093-4.053-4.267-3.413-1.813-3.947-1.493-2.987 2.027.64 2.347.107 4.267-1.28 4.267-1.28 0-2.346-1.6-2.346-3.414 0-2.453-.854-2.88-2.667-1.6-5.12 3.627-17.707 2.24-16.96-1.92.747-4.266-1.813-4.906-5.333-1.386-1.707 1.706-2.24 1.28-2.027-1.6.213-2.774-1.28-4.054-5.013-4.374l-5.334-.426 5.334 1.706 5.333 1.707-5.653 2.347c-3.094 1.28-6.294 3.2-6.934 4.373-2.026 3.2 2.987 5.44 5.76 2.667 2.88-2.88 10.774-3.094 8.96-.214-.746 1.174-.213 2.134 1.067 2.134 1.493 0 1.28 1.066-.427 2.986-1.706 1.814-3.306 2.134-4.053.854-.853-1.387-2.027-1.174-2.987.426-1.173 2.027-2.026 1.92-3.52-.32-1.386-2.24-2.133-1.706-3.093 1.92-1.28 4.694-5.12 6.827-5.12 2.88 0-1.066-1.92-1.493-4.267-.853-2.346.64-4.266 2.56-4.266 4.373 0 2.56.64 2.667 3.2.534 2.346-2.027 3.2-2.027 3.2-.107 0 1.387.96 1.92 2.24 1.173 6.4-4.053 14.933-3.093 12.48 1.387-1.707 3.2-2.987 3.733-4.694 2.027-1.28-1.28-3.306-2.347-4.586-2.24-1.28 0 0 1.92 2.773 4.266 3.307 2.774 4.587 5.334 3.627 7.787-1.174 3.2-1.707 3.307-3.414.533-1.066-1.706-2.026-2.133-2.026-.853 0 1.173-3.627 1.813-8.747 1.28-6.08-.533-7.893-1.387-5.867-2.667 2.134-1.386 2.134-1.813.214-1.92-1.494 0-2.667-1.28-2.667-2.986 0-1.707-3.2-3.52-7.573-4.374-4.054-.746-6.934-2.346-6.187-3.413.64-1.067.213-2.027-.853-2.027-1.174 0-2.88 2.134-3.627 4.587-1.387 4.587-1.6 4.587-3.84.533-2.88-4.8-9.92-5.973-9.92-1.706 0 1.706 1.92 2.986 4.267 2.986 3.2 0 4.16 1.28 3.733 5.334-.213 3.2-1.173 4.48-2.347 3.306-1.066-1.066-3.946-1.173-6.72-.106-3.093 1.173-5.653.96-7.146-.534-3.947-3.946-2.774-6.293 2.346-4.906 4.694 1.28 4.694 1.28-.32-1.6-3.626-2.24-4.373-3.52-2.346-4.694 2.026-1.28 1.813-2.133-.96-3.733-2.027-1.067-4.16-1.387-4.907-.747-.64.747-.107 1.28 1.28 1.28 1.813 0 1.6 1.494-.747 5.014-1.706 2.666-2.453 5.76-1.6 6.72.854.96.427 1.066-1.066.213-1.494-.853-2.667-.533-2.667.747 0 1.173 1.92 2.24 4.267 2.24 2.346 0 4.266.746 4.266 1.706 0 .854 2.987 1.92 6.72 2.134 9.28.746 11.734 2.666 7.254 5.973-2.027 1.493-3.2 3.52-2.56 4.48.533 1.067-.854 1.813-3.2 1.813-2.987 0-3.947-1.066-3.2-3.733.853-3.2-.427-3.84-7.36-3.84-5.12 0-8.427 1.067-8.534 2.667-.213 1.493-.853-.214-1.6-3.734-.96-4.48-2.88-6.613-6.186-7.04-4.8-.746-5.76-6.826-1.707-10.453 1.067-.96 1.173-.533.427.853-2.56 4.267 1.92 4.8 4.586.534 1.6-2.56 1.707-4.16.427-4.16-1.173 0-2.133-1.494-2.133-3.2 0-2.134 2.24-3.2 6.933-3.307l6.933-.107-8.533-3.2c-4.693-1.813-9.707-3.413-11.2-3.52-2.027-.106-1.92-1.066.32-3.52 2.773-3.093 2.027-3.52-7.467-4.053-6.186-.32-10.453.32-10.453 1.6s2.453 2.24 5.333 2.24c3.307 0 5.334 1.173 5.334 3.2 0 1.707-1.494 3.2-3.307 3.2s-2.773-.96-2.027-2.133c.747-1.174-.106-2.134-1.92-2.134-1.813 0-2.986 1.814-2.773 4.374.213 3.093 1.387 4.16 4.053 3.413 2.134-.533 4.374-.107 5.014.96.64 1.067 2.133 1.92 3.306 1.92 1.174 0 1.6-.96.854-2.133-.747-1.174 1.066-2.134 4.053-2.134 3.947 0 5.12.854 4.16 3.2-.64 1.707-2.453 3.2-3.947 3.2-3.413 0-5.333 4.8-5.333 13.014 0 5.226.853 6.186 5.44 6.186 3.093 0 4.907.96 4.16 2.134-1.92 3.093-11.2 2.666-12.373-.534-1.6-4.373-8.96 1.387-9.174 7.147-.213 7.04 3.094 13.013 6.187 11.2 1.387-.853.853.427-1.173 2.773-4.267 4.907-4.694 7.147-1.494 7.147 1.28 0 1.707-.96.96-2.133-.746-1.174-.32-2.134.96-2.134 1.174 0 2.24.96 2.24 2.134 0 1.173 1.494 2.133 3.414 2.133 2.24 0 2.986-1.173 2.133-3.307-.64-1.92-.32-2.773.853-2.026 1.174.746 2.134-.214 2.134-2.027 0-2.027 1.813-3.307 4.8-3.307 2.666 0 3.84.747 2.666 1.6-1.173.854-3.52 3.52-5.333 5.867-3.093 4.267-3.093 4.267 1.6.213 4.053-3.413 4.907-3.52 5.973-.746 1.494 3.84 6.294 3.626 10.027-.427 2.133-2.24 1.6-2.56-3.2-1.387-4.373 1.067-5.867.534-5.867-1.813 0-2.133 1.174-2.667 3.52-1.813 2.24.853 3.094.533 2.134-.96-.747-1.174 0-2.774 1.6-3.414 1.92-.64 3.52.747 4.373 4.054 1.493 6.293 5.44 6.933 5.44.96 0-5.334 10.453-10.24 13.013-6.08 2.24 3.626-2.026 10.986-5.546 9.6-1.6-.64-3.414.213-4.054 1.92-.853 2.24.534 3.093 5.227 3.093 3.413 0 6.293-1.067 6.293-2.347s1.6-1.813 3.52-1.066c2.88 1.173 3.094.853.747-1.92-1.493-1.814-2.027-3.947-1.28-4.8.853-.854 2.133-.534 2.987.64 2.24 3.093 8.213 2.88 8.213-.427 0-1.6-1.28-2.88-2.987-2.88-1.6 0-2.346-.853-1.706-1.92.64-1.067 3.093-1.493 5.44-.853 2.346.64 3.733 2.026 3.093 2.986-.64 1.067 0 1.92 1.6 1.92 1.813.107 2.027.64.533 1.6-4.16 2.88-5.333 9.067-1.813 9.067 1.813 0 2.56-1.067 1.813-2.347-.853-1.386.107-2.026 2.667-1.6 2.24.427 7.253-1.92 11.093-5.12s8.427-5.866 10.134-5.866c1.706 0 4.586-1.494 6.4-3.2 1.706-1.814 2.133-3.2.853-3.2-1.173 0-2.24-1.92-2.24-4.267 0-4.373 4.16-4.693 17.387-1.173 3.093.853 6.186.533 6.933-.64.747-1.174-.427-1.6-2.987-.96-2.986.746-4.266.106-4.266-2.347 0-3.2 3.52-4.373 10.133-3.52 1.493.107 2.667-.64 2.667-1.813 0-1.067 2.133-2.347 4.8-2.774 2.666-.426 4.586-2.026 4.266-3.52-.426-1.493.427-2.133 1.6-1.386 6.4 3.946 11.094-9.494 6.294-18.24-1.494-2.88-1.494-4.16 0-4.16 1.173 0 2.026-2.347 1.706-5.227-.32-4.48-1.28-5.12-6.506-4.587-5.12.64-5.974.107-5.12-3.2 1.386-5.226.106-5.12-3.307.214zm-5.013 21.013c1.706 2.667-5.867 8.96-8.534 7.147-4.373-2.774-2.56-8.96 2.56-8.96 2.667 0 5.334.853 5.974 1.813zm8.64 4.693c-.64 1.067.32 1.387 2.133.747 1.813-.747 3.307-2.24 3.307-3.307 0-1.173.96-1.493 2.24-.64 1.6.96 1.6 2.134 0 4.054-1.174 1.386-1.494 3.306-.64 4.16.853.96-.96.96-4.054.213-4.693-1.173-5.973-.533-7.253 3.52-1.6 5.013-1.6 5.013-3.627-.96-1.706-4.907-1.28-6.613 1.92-8.853 4.054-3.094 8.107-2.347 5.974 1.066zm-27.947 7.467c-.747 1.92.107 3.093 2.24 3.093 4.48 0 4.373 2.987-.213 6.72-2.667 2.134-3.2 2.134-1.92.107 2.026-3.413-2.56-9.387-5.867-7.68-1.387.64-.747-.213 1.28-1.813 2.027-1.707 2.987-3.84 2.133-4.8-.853-.96-.426-1.067.96-.32 1.387.853 2.027 2.88 1.387 4.693zm-42.56 6.933c1.92 3.307-2.56 7.467-6.827 6.294-3.093-.747-4.053-.214-3.306 1.813.64 1.6 4.48 3.52 8.533 4.267 6.08 1.173 8.32 3.946 3.2 4.053-.747 0-2.667.853-4.16 1.813-1.493.96-4.053 1.28-5.76.64-1.6-.64-3.2-.32-3.627.747-.32 1.173-2.026 1.067-3.84-.213-2.453-1.707-2.56-2.56-.533-3.307 1.493-.64 2.667-3.947 2.667-7.36 0-7.147 10.453-13.867 13.653-8.747zm28.053 13.014c-.64 1.066 0 2.453 1.494 2.986 1.493.427 1.92 1.707 1.066 2.56-.853.96-2.986.427-4.906-1.173-2.88-2.347-3.734-2.347-5.334.213-1.066 1.707-2.026 2.134-2.026.854 0-1.28 1.173-3.414 2.56-4.8 2.986-2.987 8.96-3.52 7.146-.64zm-85.866 2.453c9.28-2.133 9.6-1.173 2.453 7.04-8.533 9.707-18.88 5.333-14.507-6.08.747-2.133 1.92-2.667 2.667-1.387.853 1.387 4.267 1.6 9.387.427zm75.413 9.493c-1.92 1.387-2.88 3.2-2.027 3.947.747.747.32 1.387-.96 1.387-3.84 0-5.333-4.16-2.666-7.467 1.28-1.6 3.946-2.347 5.76-1.707 2.986 1.174 2.986 1.6-.107 3.84zm117.227-63.68c-.854 2.027.213 4.587 2.453 6.187 2.773 2.133 3.093 3.413 1.28 5.227-1.813 1.92-3.2 1.28-5.867-2.454-1.813-2.666-3.413-3.626-3.413-2.24 0 1.494-2.453 5.12-5.333 8.107-4.694 4.693-5.014 5.76-2.347 8.427 4.053 4.053 5.76 3.946 4.16-.32-1.387-3.52 14.827-3.307 20.8.32 1.6.96 2.027.746 1.173-.747-2.24-3.627 5.867-7.253 9.067-4.053 1.493 1.386 2.453 1.6 2.24.426-1.067-5.76.213-8.533 2.347-4.906 1.28 2.24 3.52 3.093 5.653 2.346 1.92-.746 2.88-.533 2.24.64-.747 1.174.427 2.24 2.667 2.347 2.133.213 4.48-1.067 5.12-2.88.746-1.707 2.24-2.56 3.413-1.813 1.173.746 2.133.426 2.133-.747 0-1.067-1.493-2.56-3.413-3.307-5.013-1.92-5.653-1.6-4.267 2.027.854 2.453.214 3.2-2.453 2.667-2.027-.427-3.733-2.134-3.84-3.84 0-1.814-.853-4.48-1.813-6.08-1.387-2.24-.747-2.56 2.666-1.494 3.627 1.174 4.587.534 4.587-2.986 0-2.347-.96-4.374-2.133-4.374-1.174 0-2.134 1.067-2.134 2.347 0 1.387-1.6 1.813-3.626.96-2.027-.747-2.987-.747-2.24.107 3.2 3.2-3.094 7.04-9.814 6.08-3.733-.534-5.546-.427-4.053.213 1.493.747 2.667 2.24 2.667 3.307 0 1.28-1.707 1.173-4.267-.214-2.347-1.28-3.947-3.413-3.733-4.906.32-1.387-1.174-2.24-3.414-1.92-2.24.426-3.413-.214-2.666-1.387.746-1.173.426-2.667-.64-3.413-1.067-.64-2.454.426-3.2 2.346zm399.04 8.107c4.266 2.987 8.32 14.187 4.8 13.333-.854-.213-2.987 1.494-4.8 3.84-3.094 4.054-3.2 4.16-7.467.214-2.987-2.667-6.507-3.627-10.987-2.987-3.626.533-7.04.213-7.68-.747-1.706-2.773-5.226-2.133-4.586.854.32 1.493-.64 2.453-2.134 2.133-1.493-.32-2.453.64-2.133 2.133.32 1.494-.747 2.454-2.24 2.134-1.707-.427-2.347.426-1.493 2.133.746 1.493-.107.853-2.027-1.493-1.813-2.24-3.413-3.414-3.52-2.667-.213.853-.427 2.453-.533 3.733-.214 1.174-1.6 2.987-3.2 3.947-2.454 1.493-2.24 2.347 1.066 4.373 3.734 2.347 3.734 2.347-.32 1.28-5.76-1.493-11.093 6.187-7.36 10.774 1.387 1.6 3.627 2.986 4.907 2.88 1.387 0 .64-1.387-1.493-2.987-3.627-2.773-3.52-2.987 2.666-2.88 5.014.213 6.08.853 4.374 2.88-1.6 1.92-1.387 3.2.533 4.48 4.373 2.773 12.907 3.413 11.413.853-2.133-3.413 1.707-2.666 6.4 1.067 2.347 1.92 3.094 2.88 1.814 2.24-1.28-.533-2.24.213-2.24 1.813 0 2.774 4.266 3.2 6.826.64 3.2-3.2 4.694-16.213 1.814-15.04-1.707.64-2.987.107-2.987-1.066 0-1.174-1.92-1.707-4.267-1.067-4.693 1.28-5.866-4.267-2.133-10.027 1.707-2.56 2.027-2.24 2.133 1.6 0 5.12 2.987 6.4 5.547 2.347.96-1.493.533-1.92-.96-.96-1.387.853-2.453.213-2.453-1.6 0-1.707 1.173-3.627 2.666-4.053 1.494-.534.107-.96-3.093-1.067-5.653 0-11.307 8.32-10.88 16 .107 1.387-.64 2.133-1.6 1.6-.853-.64-2.133.107-2.56 1.6-.533 1.493-1.707-.533-2.56-4.48-.96-4.48-.747-8 .747-9.493 1.706-1.707 2.346-1.6 2.346.213 0 1.387 1.067 2.56 2.347 2.56s1.813-1.387 1.173-3.093c-.64-1.707.64-5.334 2.88-8 2.24-2.667 4.16-3.734 4.16-2.24.107 1.493 2.88 2.666 6.72 2.666 5.014 0 6.294.747 5.44 3.2-1.386 3.414 2.987 3.52 5.547 0 .96-1.386 1.6-1.173 1.6.427 0 1.387-.96 3.093-2.133 3.84-1.174.747-2.134 2.24-2.134 3.413 0 1.174.96 1.6 2.134.854 1.173-.747 3.093.853 4.16 3.626 1.066 2.667 2.026 3.734 2.133 2.24 0-1.493.853-2.56 1.707-2.453 4.8.747 6.72-.533 5.44-3.733-.96-2.454-.534-3.094 1.173-2.027 1.493.96 2.453.213 2.453-1.813 0-1.814-1.386-3.307-3.2-3.307-2.986 0-4.16 2.667-3.306 7.467.213 1.173-.747.96-2.24-.534-4.054-3.946-4.054-8.64-.107-10.133 6.72-2.56 17.387-10.667 17.387-13.333 0-3.52 1.706-3.414 5.76.64 1.813 1.813 3.84 2.666 4.586 2.026.64-.746-.106-2.24-1.92-3.306-1.92-1.174-2.133-2.027-.533-2.027 1.387 0 3.52 1.707 4.693 3.733 2.134 3.52 2.24 3.52 2.24 0 .107-6.186-11.84-9.386-18.666-5.013-1.6.96-3.414 1.173-4.16.427-.64-.747.106-1.28 1.6-1.28 1.92 0 1.493-1.067-1.174-3.094-2.346-1.813-6.08-3.2-8.32-3.2-4.16-.106-4.053 0 .214 2.987zm-560 3.52c-1.387 2.24-3.52 4.053-4.694 4.053-1.28 0-1.6-1.066-.853-2.346 1.067-1.6.213-1.814-2.56-.534-4.907 2.24-11.52 2.24-15.36-.106-2.24-1.387-2.24-.96-.107 2.56 2.56 4.16 12.374 7.893 18.987 7.253 1.813-.107 6.4.747 10.24 2.027 4.48 1.386 7.893 1.493 9.6.106 3.84-2.986 22.187-4.48 24.747-1.92 2.133 2.134 2.56 1.6 5.333-7.68 1.493-4.906-8.96-3.946-12.693 1.174-2.347 3.2-3.84 3.946-4.587 2.133-.533-1.493-1.92-2.667-3.093-2.667-1.174 0-1.387 1.067-.534 2.454.96 1.493.534 1.92-.96.96-1.386-.854-3.626-.747-5.12.106-1.493.96-5.973 1.92-10.133 2.24-5.333.32-6.507-.106-4.267-1.6 1.814-1.066 5.334-2.026 8-2.026 2.88 0 4.8-1.28 4.8-3.2 0-3.734-2.88-4.054-8.64-.96-2.56 1.28-4.16 1.386-4.16.106 0-1.066 1.174-2.346 2.56-2.88 1.707-.533 1.494-1.28-.64-2.026-1.92-.747-4.373.426-5.866 2.773zm509.546 1.707c0 1.28.747 2.24 1.6 2.133 5.334-.853 11.307.533 10.134 2.347-1.387 2.346-11.2.64-15.36-2.56-1.814-1.387-2.454-.854-2.24 1.92.213 2.88 1.92 3.946 5.76 3.84 2.986-.214 7.04.533 8.96 1.386 4.693 2.347 9.386-3.093 5.546-6.293-4.266-3.52-14.4-5.547-14.4-2.773zm-305.493 11.306c-2.56 2.56-4.053 3.2-3.413 1.494.96-2.347-.32-3.094-4.374-2.987-3.2.107-5.44 1.28-5.12 2.773.32 1.387-.426 2.56-1.6 2.56-1.173 0-2.133 1.067-2.133 2.347s1.493 1.813 3.2 1.173c2.027-.746 3.2 0 3.2 2.027 0 1.813-.853 2.667-1.92 2.027-.96-.64-2.88.106-4.053 1.6-1.814 2.026-.427 2.56 6.293 2.133 5.227-.213 9.92-1.92 11.84-4.267 2.987-3.626 3.093-3.626 1.707.427-2.347 7.253-2.24 8 1.6 8.64 2.026.32 3.306-.213 2.666-1.173-.64-1.067.854-2.454 3.2-3.2 4.48-1.387 5.014-7.147 1.067-10.134-1.387-1.066-1.067-2.24.747-3.52 1.6-.96 2.133-2.24 1.066-2.773-6.4-3.627-9.706-3.413-13.973.853zm370.56-.64c-6.08 1.387-6.187 1.6-2.133 3.947 4.266 2.56 4.266 2.56 0 2.773-2.454.107-3.094.747-1.494 1.387 2.24.853 2.24 1.707 0 4.373-2.24 2.667-2.24 3.52-.106 4.267 1.493.533 2.133 1.813 1.493 2.773-.64 1.067.32 1.387 2.133.747 1.814-.747 3.307-.32 3.307.853 0 1.174-1.493 2.667-3.413 3.414-4.587 1.813-4.694 1.706-5.76-2.454-.854-3.093-1.067-3.093-1.28.534-.107 2.346 1.813 5.546 4.266 7.146 2.454 1.494 3.947 1.814 3.2.64-.746-1.173-.426-2.773.854-3.52 1.173-.746 2.133-.213 2.133 1.067s.96 1.813 2.133 1.067c1.174-.747 2.134.746 2.134 3.2 0 3.84-.96 4.373-6.4 3.52-4.48-.747-6.4-.107-6.4 1.92 0 3.84 4.8 6.72 5.866 3.52 1.387-4.16 8.64-2.88 10.134 1.706 2.24 7.04 4.586 3.094 4.8-7.893 0-5.653-.427-8.533-.96-6.507-.534 2.134-1.814 3.2-2.987 2.56-1.067-.746-1.387-2.24-.747-3.306.747-1.174.107-3.52-1.28-5.227-1.493-1.813-2.026-3.733-1.386-4.48.746-.747.32-3.2-.96-5.547-2.134-3.946-1.814-4.16 3.84-2.88 5.76 1.28 5.866 1.174 1.92-1.92-2.347-1.813-5.44-2.773-6.934-2.24-1.493.534-2.773.107-2.773-1.066 0-1.067 2.667-2.027 5.867-2.027 4.586-.107 5.12-.533 2.666-2.133-1.706-1.174-3.626-1.92-4.266-1.814l-7.467 1.6zm-414.08 3.627c.747 1.813 1.28 3.733 1.28 4.267 0 .426 1.6.853 3.52.853 2.773 0 3.2 1.493 2.24 7.36-.96 5.76-.533 7.04 1.813 6.187 1.707-.64 3.094-2.454 3.094-3.947 0-1.707 1.6-2.347 4.266-1.707 2.347.64 3.734 2.027 3.094 2.987-.64 1.067-.107 1.92 1.28 1.92 1.493 0 2.026-1.92 1.28-4.8-.64-2.667.213-6.613 1.92-8.96 3.626-4.8 3.946-7.573.96-7.573-1.174 0-2.027.746-1.92 1.6.746 4.16-.427 5.12-3.307 2.773-3.84-3.2-7.787-1.067-6.187 3.2 1.067 2.667 1.814 2.667 4.587.533 2.667-2.346 3.093-2.24 2.24.32-1.813 5.547-6.08 4.8-9.813-1.813-3.84-6.827-12.8-9.6-10.347-3.2zm-209.387 3.84c0 2.667 1.814 5.973 4.054 7.36 3.2 2.027 3.946 1.92 3.946-.853 0-1.814-.853-2.774-2.026-2.134-1.067.64-2.56.32-3.307-.96-.747-1.173-.32-2.133.96-2.133 3.2 0 2.773-3.627-.747-4.907-1.92-.746-2.88.427-2.88 3.627zm204.16 1.387c-4.373 8.213-1.92 13.973 3.84 8.96 5.334-4.694 6.187-7.254 2.134-6.4-1.494.32-2.347-1.067-2.027-3.2.853-5.014-1.067-4.694-3.947.64zm-49.706 2.56c-3.414 2.56-3.094 2.88 2.986 3.306 4.48.32 6.4-.32 5.867-2.026-1.28-3.84-4.587-4.374-8.853-1.28zm169.066-1.6c-.746 1.173-1.066 3.84-.746 5.866.32 2.027-.32 3.734-1.387 3.734-2.56 0-2.453 7.893.107 9.493 1.066.64 2.666.107 3.52-1.28.96-1.493.64-1.92-.96-.96-3.094 1.92-3.2-3.52-.107-6.613 1.28-1.28 1.92-4.587 1.6-7.36-.427-2.774-1.387-4.054-2.027-2.88zm223.467.533c-2.56.64-3.52 2.24-2.88 4.8.64 2.56-.427 4.267-2.987 4.907-2.24.64-4.053.213-4.053-.854 0-1.066-3.413-1.92-7.573-1.92-4.587 0-7.04.854-6.294 2.134.747 1.173.534 2.133-.533 2.133-.96 0-1.92 2.133-2.133 4.8-.214 2.56-1.28 5.013-2.454 5.44-1.173.427-1.493 2.24-.746 4.16.853 2.24.426 2.88-1.28 1.813-2.987-1.92-3.2-9.066-.32-10.88 3.626-2.24 2.346-6.506-1.92-6.826-4.8-.427-6.934 5.653-3.947 11.093 1.707 3.093 1.493 3.627-.853 2.667-2.027-.747-3.2.533-3.52 3.946-.427 5.12 4.373 7.254 6.933 3.094.747-1.174 2.667-1.494 4.48-.854 1.813.747 3.093-.106 3.093-1.92 0-2.026 2.027-3.2 5.334-3.2 6.72 0 6.933 3.2.32 5.76-10.454 3.947-6.827 12.907 5.12 12.907 10.453 0 15.466-2.773 9.386-5.12-1.92-.64-2.773-.32-2.026.853.746 1.174.533 2.134-.427 2.134-3.093 0-6.187-9.494-4.8-14.934.747-2.986.427-6.506-.747-8-1.493-1.92-.746-2.666 2.774-2.666 3.2 0 4.373.96 3.52 3.093-.747 2.133-.107 2.667 2.026 1.92 1.92-.853 2.667-2.773 1.814-5.333-.747-2.56-.32-3.84 1.173-3.52 1.387.426 3.627-1.28 5.013-3.627 1.387-2.347 3.307-4.907 4.267-5.653 2.667-1.814-1.067-3.414-5.76-2.347zm-407.04 11.413c-4.373 3.84-4.48 4.267-.747 2.987 3.52-1.067 3.734-.853 1.494 1.493-1.494 1.494-3.84 2.774-5.12 2.774-3.307 0-4.16 3.626-1.814 7.36 1.494 2.346 3.094 1.6 7.68-3.947 3.947-4.693 6.507-6.187 8-4.693 1.494 1.493.64 3.413-2.773 6.186-4.267 3.52-4.48 4.16-1.387 5.334 1.92.746 3.52.426 3.52-.854 0-1.173 1.707-1.813 3.734-1.493 5.12.853 6.4-8.853 1.6-12.48-2.027-1.387-2.987-3.627-2.24-4.907 2.56-4.053-6.72-2.346-11.947 2.24zm458.133 4.694c.534 4.053 0 5.44-1.6 4.48s-1.92-.534-.853 1.066c.853 1.494 2.987 2.134 4.587 1.494 3.306-1.28 3.84.533 1.173 4.693-.96 1.493-2.987 2.453-4.48 2.133-1.493-.32-3.2.534-3.733 2.027-.534 1.493.426 2.667 2.24 2.667 1.706 0 4.906.64 7.04 1.493 3.52 1.28 3.626.96 1.066-2.133-2.88-3.52-2.453-3.947 3.414-4.48 1.386-.107 2.56-1.174 2.453-2.134-.107-1.066 1.28-2.773 2.987-3.733 1.92-1.067 2.666-3.733 2.026-7.04-.533-2.987-1.813-4.907-2.773-4.267-1.067.64-1.28 2.454-.64 4.16.747 2.027-.32 2.88-3.307 2.667-2.453-.213-4.48-1.173-4.48-2.133 0-1.067-.853-1.28-2.026-.64-1.067.64-2.347-.427-2.88-2.56-.534-2.027-.534-1.067-.214 2.24zm-362.453-3.414c-.853 1.28-.96 3.947-.213 5.867 1.173 2.88.533 3.093-4.374 1.173-4.48-1.706-5.653-1.493-4.906.534.426 1.493 5.12 3.2 10.346 3.946 5.12.747 8 1.387 6.4 1.6-5.12.534-.32 3.414 6.08 3.734 4.48.213 6.614-.96 8.32-4.587 2.88-6.293-1.173-8.213-6.933-3.307-3.84 3.2-4.053 3.094-2.773-.32 1.386-3.946-2.454-4.373-5.654-.533-.96 1.173-1.28.107-.746-2.667.64-2.666.32-4.266-.64-3.733-.96.64-2.134-.107-2.667-1.493-.533-1.814-1.28-1.92-2.24-.214zm47.68 7.467c-2.453 2.56-4.373 5.44-4.373 6.4s-1.067 1.707-2.24 1.707c-1.28 0-1.707-.96-.96-2.134.746-1.173.32-2.133-.96-2.133-1.174 0-2.24.96-2.24 2.24 0 1.173-1.707 1.92-3.734 1.6-2.133-.32-3.52.533-3.2 2.027.534 2.453-2.133 3.626-6.4 2.88-.853-.107-1.6.64-1.6 1.706 0 1.067-.533 3.414-1.28 5.227-.96 2.773.747 3.2 10.774 2.88 7.893-.213 11.626-1.173 10.986-2.773-.533-1.387.214-3.734 1.6-5.12 1.92-2.134 1.814-2.454-.213-1.28-1.493.853-2.667.533-2.667-.747 0-1.173 1.494-2.24 3.307-2.24 2.027 0 2.773-.96 1.813-2.453-1.066-1.707.214-2.134 4.054-1.387 3.52.64 5.973 0 6.613-1.813.747-1.92-.533-2.88-3.627-2.987-4.586 0-4.586-.107-.533-3.2 2.24-1.707 2.987-3.093 1.707-3.093-1.387 0-4.48 2.133-6.827 4.693zm-8.64 14.72c0 1.173-.853 1.6-2.027.96-1.066-.64-2.56-.32-3.306.96-.747 1.173-2.987 2.133-4.907 2.133-2.88-.106-2.453-.96 1.6-4.16 5.227-4.053 8.64-3.946 8.64.107zm273.6-3.52c.533 2.88.213 4.8-.747 4.267-.853-.534-1.493.853-1.386 3.306.426 4.8 19.2 6.507 21.973 1.92 1.067-1.706 2.027-1.493 3.2.427 1.387 2.133 3.307 2.347 7.787.747 5.013-1.814 7.786-5.654 3.52-5.014-.747.107-2.134-1.173-3.094-2.666-1.386-2.134-1.92-1.814-2.026 1.386-.214 4.054-.32 3.947-2.454-.426-1.6-3.307-3.733-4.48-6.826-3.947-2.454.427-5.334.96-6.294 1.067-1.066 0-1.386 2.026-.746 4.373 1.173 4.587-5.547 6.293-8.107 2.133-.747-1.173-.107-2.133 1.493-2.133 2.134-.107 2.134-.427-.213-1.92-1.6-1.067-2.347-2.88-1.6-4.053.747-1.174-.213-2.667-2.133-3.414-2.667-1.066-3.2-.213-2.347 3.947zm78.08 3.307c-.96 6.186-.213 7.04 6.187 7.253 3.84.107 6.933-.533 6.933-1.387 0-1.493-5.013-2.453-9.067-1.813-2.666.427-1.813-3.627 1.067-4.8 1.6-.64 1.173-1.067-1.067-1.173-2.026-.107-3.84.746-4.053 1.92zm-34.56 5.333c.64 1.813 3.84 3.2 7.36 3.2 7.36 0 8.213-3.2 1.387-5.013-7.68-2.134-10.134-1.6-8.747 1.813zm18.027-.213c-1.814 2.026-.854 2.666 4.053 2.666 3.52 0 6.4-1.066 6.4-2.346 0-3.307-7.787-3.627-10.453-.32z" fill="#BA3C10"/></svg>