<svg version="1" xmlns="http://www.w3.org/2000/svg" viewBox="0 0 252 300"><g fill="#2E8B57"><path d="M18 1.8c-2.9 1.4-14.2 13.6-15.3 16.5-.4 1 .3 7 1.4 13.5 1.1 6.4 2.3 17.9 2.6 25.5.4 9.5 1 14 1.9 14.8 1 .8 2.7.8 6.4 0 10.1-2.2 14.6-3 20.9-3.7 6.3-.6 6.3-.6 5.6 1.7-.4 1.3-1.1 2.8-1.6 3.3-2.7 2.9.2 6.6 6.6 8.6 2.2.7 4.4 1.6 4.9 2.1.6.5 1.6.9 2.4.9.7 0 2 .7 2.9 1.5.8.8 1.9 1.3 2.4 1 .5-.4.9-.2.9.3 0 .8 7 3.6 9.5 3.7 1.5.1 6.9 2.5 7.5 3.3.3.4 3.1 1.5 6.2 2.5l5.8 1.8-.6 5.7c-.3 3.1-.7 5.8-.9 6-.2.3-1.6-.9-3-2.6-1.4-1.7-3.9-3.2-5.9-3.6-1.8-.4-6.2-1.8-9.6-3.1-8-3.1-10.5-3.1-15.5 0-2.2 1.3-4.9 2.5-6 2.5-5.1.1-22 7.6-27.3 12-2.3 1.9-3.8 7-2.1 7 .5 0 .9.9.9 1.9 0 1.1.4 2.2.8 2.5.5.3.9 2.2 1 4.2.2 4 .7 6.3 2.7 10.9 2.3 5.3 6.5 17 6.5 18 0 .6.8 1.8 1.8 2.6.9.9 3.7 4 6.2 6.9 6.4 7.7 13 14 14.7 14 .8 0 2.4-.5 3.5-1.1 1.1-.6 3.4-1.5 5-1.9 3.1-.9 3-.3-.2 3.5-3.6 4.1-9.6 15.1-9.8 18-.3 3.4 1.5 5.6 6.3 7.6 1.7.7 3.3 1.3 3.7 1.3.3.1 2 1.3 3.7 2.8 1.7 1.6 3.3 2.8 3.7 2.8.8 0 9.8 6.2 10.5 7.3.4.5 1.5 1.4 2.6 2 1.1.7 3.5 2.2 5.4 3.4 5 3.4 8 3 12.7-1.7 4.3-4.3 5.8-5.1 4.4-2.3-.4 1-.7 2.9-.6 4.3.1 1.4-.8 4.5-2 7-1.3 2.5-2.9 6.8-3.5 9.7-.7 2.8-1.9 6-2.6 7-1.7 2.1-1.9 7.5-.5 8.9.6.6 1.2 4.4 1.4 8.5.4 8.1 2.8 15.4 5.4 16.4.9.3 1.8.6 1.9.6.2 0 3.3 1 7 2.3 3.8 1.3 8.4 2.8 10.3 3.2 1.9.4 3.7.8 4 .9 3.9.9 9.6 3.1 10.1 3.8.3.5.9.8 1.3.8.3-.1.7-.1.9 0 .1.1 3.4.3 7.3.5 5.7.4 7.1.2 7.1-1 0-.8-1.2-2-2.6-2.6-6-2.7-25-8.2-34.4-9.9-9.3-1.6-11.2-2.9-11.1-7.6.1-2.2.7-5.8 1.3-8 .7-2.2 1.3-4.7 1.5-5.7.1-.9.7-2.2 1.3-3 .6-.7 1.8-2.9 2.7-4.8.9-1.9 2.4-4.9 3.4-6.5 1.1-2 1.7-5.3 1.7-9.8v-6.7h3.5c2 0 4.1.5 4.6 1 .6.6 3.3 1.5 6 2 8.6 1.6 19.7 4 25.9 5.6 3.3.9 7.3 1.8 8.8 2.1 3.9.7 4.3 2.6 2 8.6-3.6 9.1-6.3 18.6-6.3 22.2 0 1.9-.9 5.7-2 8.4-1.9 4.8-3.4 16.1-2.1 16.1.8 0 5.8-10.5 7.2-15 .5-1.9 1.2-5.3 1.5-7.5.3-2.2 1-4.2 1.5-4.3.5-.2.9-1.4.9-2.7 0-2.4 1.9-7.6 3.1-8.5.8-.6 2-8.5 1.9-13-.1-4.7.9-10.2 1.8-9.6 1 .5 10 1.9 13.6 2 2.3.1 3.3-.5 4.2-2.4 3.7-7.6 5.4-11.9 5.4-13.3 0-.9.4-1.9 1-2.2.5-.3 1.2-2.8 1.6-5.6.4-2.7 1.1-5.2 1.5-5.5.5-.3.9-2 .9-3.7 0-1.8.6-4.1 1.3-5.2 1.9-2.9 3.7-11.8 3.7-18.3 0-4.2-.6-6.4-2-8.2-1.1-1.4-3.9-5.3-6.1-8.8-2.8-4.3-4.6-6.2-6.2-6.4-1.2 0-2.9-.1-3.7-.2-2.4-.2-1.5-2 1.7-3.6 1.6-.8 4.5-2.7 6.5-4.3 1.9-1.5 4-2.7 4.6-2.7.7 0 1.2-.5 1.2-1 0-.6.7-1 1.5-1s3.3-.9 5.5-2.1c5.1-2.7 6-5.7 3.1-10.9-1.1-2.1-2.7-4.8-3.4-6.1-1.8-3.5-4.9-8-7.2-10.5-3.5-3.9-6.7-8.5-6.3-8.9.2-.2 3.2.7 6.7 2.1 3.5 1.4 9.3 3 13 3.6 3.6.5 7 1.4 7.5 1.9 2.5 2.3 6.2.2 6.9-3.7.1-1 .6-2.5 1.1-3.2.4-.7.6-1.6.3-1.8-.3-.3.4-2.9 1.5-5.7 2.2-5.8 4.6-13.4 5.8-18.7.4-1.9 1.4-5.1 2.2-7 .9-2 1.6-7.4 1.7-12.8.2-8.6 0-9.7-2.3-13.3-1.4-2.1-2.6-4.2-2.6-4.5 0-.4-1.6-2.6-3.5-4.9-3.1-3.9-4.1-4.4-10-5.4-3.6-.7-6.9-.9-7.4-.7-.8.5-1.9.3-12.6-3.3-3.3-1.1-9.5-2.2-13.7-2.6-7-.5-7.8-.4-8.8 1.5-.6 1.1-1.6 2-2.2 2-.6 0-.9-.3-.5-.6.3-.3-.1-2.4-.9-4.6-.8-2.2-1.4-5.5-1.4-7.4 0-1.8-.5-3.6-1-3.9-.6-.4-.8-1-.5-1.5.3-.5.1-2.8-.5-5-.9-3.4-1.5-4-3.8-4.1-6.7-.2-11.3.4-18.7 2.7-4.4 1.3-11.6 3-15.9 3.7l-7.9 1.3-3.9 6.4c-2.1 3.6-4.5 6.6-5.3 6.8-.8.2-2.7-.6-4.1-1.7-1.4-1.1-4.5-2.3-7-2.7-2.4-.3-4.4-.9-4.4-1.3s-1.4-.8-3.1-.9c-1.8-.1-4.5-1.2-6.1-2.3-3.4-2.4-9.3-3.5-11.1-2.1-.7.5-5 2.2-9.6 3.8-4.6 1.6-9.4 3.9-10.8 5.1-2.9 2.8-3.2 2.8-3.1.5 0-.9-.3-3.3-.6-5.2-.4-1.9-.9-7.5-1.3-12.3l-.6-8.9-18.5.4c-12.5.2-19.4.7-21.2 1.6zm25 .7c-2.3 1.3-2.1 1.4 3 .8 3-.3 5.9-.9 6.5-1.4 1.7-1.6 3.5-.9 3.5 1.3 0 1.7-.3 1.9-.9 1-.5-.9-1.4.6-2.7 4.6l-1.9 6-11 .8c-6 .5-14.5.8-18.7.7-5-.1-7.8.3-7.8.9 0 1.1 8 .8 31.5-.8 5-.3 7.5-.2 6.7.4-1.1.7-1.1 2.1-.3 6.8.6 3.2 1.1 11.1 1.2 17.5.2 9.7-.1 12.1-1.7 15-1 1.9-2.3 3.7-2.9 4.1-.6.5-.6.8 0 .8s.6.3 0 .9c-.6.6-6.2 1.3-12.5 1.6-10.3.6-18.9 2.4-21.4 4.6-1 .9 6.7.1 10.9-1.2 1.7-.5 7.5-1.1 12.9-1.4 8.2-.4 10.2-.8 10.9-2.2.6-1 2.6-4.2 4.4-7 1.9-2.9 3.3-5.8 3.1-6.5-.2-.6.4-2 1.4-3 1-1 1.8-2.5 1.8-3.4 0-.8.7-2.2 1.5-3 1.9-1.9 1.9-3.8.1-3.1-1 .4-1.6-.2-1.8-1.6-.2-1.4-1.1-2.3-2.5-2.5-2.6-.4-2.5.2-2.8-15-.1-5.6.2-10.2.7-10.2.5 0 .6-.5.3-1-.3-.6-.1-1 .4-1 .6 0 1.1 1 1.1 2.2 0 2.2 2.5 19.3 3.7 24.8.5 2.3.7 2.2 2.4-1.8 1.8-4.1 5.8-7 8-5.6.5.3.9 0 .9-.6s.5-.8 1-.5c1.5.9 5.1-.5 4.4-1.7-.5-.7-.2-.8.5-.4 1.5 1 6.8-1.1 7.5-3 .3-.8 1.6-1.4 2.9-1.4 2.6 0 8.3 2.5 9.2 4.1.4.5 1 .7 1.5.4.9-.5 11.5 2.7 15.8 4.7 1.2.6 2.2 1.6 2.2 2.1s-1 .3-2.2-.5c-5.6-3.5-17.8-6.1-17.8-3.7 0 .7 1 .9 2.5.5 1.8-.5 2.5-.2 2.5.7 0 1.4-.9 1.4-10.7-.8-2.2-.5-3.3-.4-3.3.4 0 .6-1.6 1.1-3.5 1.1s-3.5.4-3.5.8c0 1 8.5 5.1 11.6 5.7 1.2.2 4.8 1.5 7.9 3 3.6 1.6 6.5 2.3 7.8 1.9 1.9-.6 1.7-.8-1.6-2.1-4.2-1.7-4.7-3-1.4-3.5 2.6-.4 2.6-2.2 0-2.6-1.5-.3-1.6-.1-.3.8 1.2.9 1 1-1 .5-4.6-1.3-11-2.2-11.5-1.7-.2.3.3 1.1 1.3 1.9.9.7-.5.4-3.3-.8-6.4-2.6-6.9-3.2-2-2.5 3.2.4 3.5.4 1.5-.4-2.2-.8-2-.9 1-.4 1.9.3 4.9.6 6.5.8 1.7.2 3.8.7 4.7 1.1 1.2.5 1.6.2 1.4-1.2-.2-1-.1-1.2.1-.5.3.9 1.4 1.1 3.3.7 1.7-.4 3.1-.2 3.5.5.5.9.1 1-1.6.5-1.8-.5-1.5-.1 1.1 1.6l3.5 2.3-4 .6-4 .6 4.2.8c5.9 1.1 7.3-.1 3.7-3.2l-2.9-2.4 3 .7c1.7.3 4.3 1.3 5.9 2.1 3.1 1.5 4.9.5 3.9-2.3-.3-.7.2-1.6 1.1-1.9.9-.3 1.3-1 1-1.5-.3-.5-.1-.9.4-.9s1.7-1.2 2.7-2.6c.9-1.5 1.2-2.4.6-2-.7.5-.7-.2 0-2.2 1-2.9 1.1-3 8.2-2.9 4 .1 11.3-.2 16.2-.6 9-.6 9-.6 6.5 1.3-1.3 1-2.9 1.8-3.4 1.7-.4-.1-1.1.4-1.3 1.1-.4.9.1 1 2.1.2 3.9-1.4 4.2.7.4 3-4 2.4-4.8 2.5-4.8.5 0-1.7-3.6-2-6-.5-.9.6-1.7.5-2.1-.1-.4-.6-.9-.4-1.3.6-.5 1.4-.2 1.6 1.6 1.2 4.4-1 6.3-1.4 4.9-1-1 .4-1.1.7-.2 1.2.7.4-.4.8-2.4.9-2 .1-4 .4-4.5.7-.5.3-1.2 0-1.5-.5-.7-1.2-5-.6-9.9 1.2-2.6 1.1-2.7 1.2-1.1 2.5 1.9 1.3 3.2 1.2 12-1.2 2.8-.7 7.6-1.9 10.7-2.6 6-1.3 10.6-4.8 9.3-6.9-.4-.7-.2-1.6.5-2 2.7-1.7-.2-3.2-4.9-2.6-3.2.4-4.1.3-3.1-.4.8-.5 2.5-1 3.6-1 1.2 0 3.7-.7 5.5-1.5 3.1-1.3 3.2-1.4.9-1.4-1.4-.1-6 1-10.3 2.4-4.3 1.4-9 2.5-10.5 2.4-1.5 0 1.4-1.2 6.3-2.6 9.3-2.6 23-3.7 23.3-1.8.8 5.7 2.8 14.5 4.8 21 1.3 4.4 2.4 8.6 2.4 9.2 0 .7.4 1.3.9 1.3s1.2-2 1.5-4.5c.7-4.1 2.6-7.1 3.3-4.9.2.5 2.6.7 5.5.5 4.8-.3 20.5 3.5 19.3 4.7-.2.2-3.5-.5-7.4-1.7-3.8-1.1-7.7-2.1-8.8-2.1-1.7.1-1.7.1.1 1.5 1.1.8 3.3 1.5 4.9 1.5 1.5 0 3.7.5 4.8 1 1 .6 4 1.3 6.6 1.5 2.7.2 4.8.5 4.8.5 0 .8 4.6.7 5 0 .3-.6-.4-1.1-1.7-1.1-1.8-.1-1.9-.2-.5-.6 1-.3 2.4.1 3.2.7.8.7 3.4 1.3 5.7 1.4 3.6.1 4.3.4 4.6 2.3.2 1.3.8 2.3 1.3 2.3.6 0 .8.3.6.8-.3.4.8 3.4 2.4 6.7 1.5 3.3 2.8 5.3 2.9 4.4 0-.8-.7-2.4-1.5-3.5-.8-1-1.5-2.3-1.5-2.9 0-.5 1.2.8 2.6 2.9 2.6 3.7 2.6 4.3 2 13.3-.4 6.2-1.3 10.4-2.5 12.6-1 1.8-2.1 5.9-2.6 9.2-.4 3.3-2 9.3-3.6 13.3s-3.1 8.9-3.4 10.9c-.6 4.5-1 4.9-3.8 3.5-1.2-.6-4.2-1.4-6.7-1.7-6.2-.9-8-1.5-8-2.6 0-.6.7-.6 1.8-.1.9.5 3.6 1.2 5.9 1.5 3.8.4 4.1.3 2.7-1-.8-.8-2.9-1.9-4.7-2.3-9.8-2.5-15.1-4.2-17-5.5-1.2-.8-3.7-1.5-5.6-1.5-2.3 0-4.1-.8-5.7-2.5-1.5-1.6-3.4-2.5-5.4-2.5-3.9 0-4.7-1.9-3-7.3.8-2.3 1.3-4.8 1.1-5.5-.1-.6.3-1.2.9-1.2.6 0 .9-.4.5-.9-.3-.5.2-1.7 1.1-2.5.8-.9 1.1-1.6.5-1.6-1.7 0-4.5 3.7-5.2 6.8l-.7 2.7-.1-2.8c-.2-4.8-2.1-2.9-2.1 2.2 0 6.9 2.3 12.1 5.5 12.2 4.4.2 4.8.4 5.2 1.6.3.7-.2 1.3-.9 1.3-.8 0-2.4.9-3.6 2-1.2 1.1-2.8 2-3.7 2-.8 0-1.5.4-1.5 1 0 .5-.8 1-1.9 1-1 0-2.9.8-4.2 1.8-1.3 1.1-4.5 3.1-7 4.5-5.1 3-6.9 2.4-6.9-2.4 0-1.5-.7-3.3-1.7-4-1.4-1.3-1.3-1.5 1.3-1.9 2.1-.4 2.5-.7 1.3-1.2-.9-.4-2.7 0-3.9.9l-2.1 1.5 2.1 1.5c1.7 1.2 2.1 2.2 1.6 4.4-.4 2.3-.2 2.9 1.1 2.9 1.4 0 1.4.2-.2 2-1 1.1-2.3 2-2.9 2-.7 0-1.8.9-2.5 1.9-1.2 1.6-1.9 1.7-4.2.9-1.6-.5-2.9-1.4-2.9-1.8 0-1.3-9.3-5.7-10.8-5.2-.6.2-1.2-.1-1.2-.7s.5-1.1 1-1.1c.8 0 6.2-3.1 9.9-5.7.2-.2.1-.6-.2-.9-.4-.4-2.5.5-4.7 2-4.9 3.2-6 3.3-6 .3 0-1.3-.9-3.2-2-4.2s-1.7-2.2-1.4-2.6c.3-.5-.2-1-1-1-2.9-.3-3.4-.4-4.2-1.2-.4-.4 2-.7 5.4-.7 3.3 0 6.4.5 6.7 1.1.4.6 1.4.8 2.2.5.8-.3 1.1-.1.8.4-.3.6.1 1 1 1 1.1 0 1.5.5 1.1 1.5-.3.8-.2 1.5.3 1.5s1.1-1.3 1.3-3c.6-3.8.1-3.9-14.3-4.4-6.3-.3-15.5-.8-20.6-1.2l-9.1-.7-.7-3.4c-.4-2.1-1-3.1-1.7-2.7-.7.4-.8.3-.4-.4.4-.6.2-2.1-.4-3.3-1.4-2.6.4-5.4 1.9-3 .6.9 2.1 1.2 4.5.9 2-.2 3.6-.1 3.6.3s.9.5 2 .2c2.6-.7 2.6-2.3-.1-2.3-1.8 0-2-.4-1.4-2.8.3-1.5 1.5-4.5 2.5-6.7 1.9-4 5-12.2 5-13.3 0-2.9-9 18.1-9.2 21.5-.1.7-1.4 1.3-2.9 1.3s-2.9-.6-3.2-1.3c-.3-.9-.9-.9-2.3-.1-2.3 1.4-3.2 11.3-1.1 12.6.7.4 1.3 3.3 1.4 7.3.2 8.5-.6 13.5-2.3 13.5-1.7 0-1.8-3.9-.1-4.6.8-.3 1.2-2.8 1.3-7.2.1-3.7 0-5.8-.3-4.7-.2 1.1-.8 3.1-1.3 4.5s-1.2 4.3-1.5 6.5c-1.1 8.2-1.7 10.5-2.7 9.9-.5-.3-.6-1.3-.2-2.3.6-1.4 3.3-17 3.4-19.6 0-.6-2.6-1.9-5.7-2.9-3.2-1-7.6-2.7-9.9-3.7-2.3-1-4.9-1.9-5.7-1.9-.9 0-5.6-1.9-10.4-4.2-4.9-2.2-10.9-5.1-13.5-6.2-2.6-1.2-4.7-2.4-4.8-2.8 0-.6 5 1.4 19.5 8.2 7 3.2 13.4 5.4 14.1 4.7.4-.4-24.7-11.7-26.1-11.7-.3 0-2.1-.7-4.1-1.5-3.2-1.3-3.4-1.6-2.2-3.7.7-1.3 1.9-3 2.6-4 2-2.4 0-3.1-6.6-2.3-3.1.4-7 .9-8.7 1.1-7.1.9-16.2 2.3-18.2 3-2.3.6-2.3.5-2.3-8.9 0-5.2-.2-10.4-.5-11.4s.1-.5 1 1.2l1.5 3-.5-4c-2.1-15.7-4.5-30.8-5.1-31.3-.4-.4-.4.4-.1 1.8.3 1.4.8 5.2 1.1 8.5l.5 6-1.4-7c-1.3-6.7-1.1-14.1.4-11.6.4.6 2.7-1 6.1-4.4 5.8-5.9 5.9-7.6.1-2.3l-3.5 3.3 3-3.7c1.6-2 3.4-3.7 4.1-3.7.6-.1 1.8-.7 2.6-1.5.9-1 5.4-1.8 13.3-2.4 6.5-.5 12.4-1 12.9-1 .6-.1-.1.5-1.5 1.3zm38 18.5c-.8.5-1.9 1-2.5 1-.5 0-.3-.5.5-1s2-1 2.5-1c.6 0 .3.5-.5 1zm58.7 6.6c-1 1-8.7 2.2-8.7 1.3 0-.4 1.2-1 2.8-1.2 4.7-.7 6.6-.7 5.9-.1zm-38.7 4.4c1.8 1.2.2 1.2-2.5 0-1.3-.6-1.5-.9-.5-.9.8 0 2.2.4 3 .9zm-44 4c0 1.1-.4 2-1 2-.5 0-1-.9-1-2s.5-2 1-2c.6 0 1 .9 1 2zm-49.3 3.2c-.3.8-.6.5-.6-.6-.1-1.1.2-1.7.5-1.3.3.3.4 1.2.1 1.9zm49.8 3.7c-.7 3.2-2.5 4.3-2.5 1.5 0-1.9 2-5.7 2.7-5.1.3.3.2 1.9-.2 3.6zm38.3 52.6c-.3.3-.9-.2-1.2-1.2-.6-1.4-.5-1.5.5-.6.7.7 1 1.5.7 1.8zm9.8 4.6c.5.5 2.7.6 4.7.2 2.8-.4 3.7-.2 3.7.8 0 1.1.2 1.1.8.1.6-.9 1.6-1 3.2-.4 2.3.8 2.2.9-1.3 1.6-5 .9-10.2 6.1-11.7 11.6-1.8 6.8-.8 19.1 2 23 5.3 7.4 17.9 6.7 22.2-1.3 2-3.7 2.7-8.9 1.6-11-.9-1.7-.8-1.9.7-1.4.9.4 2 .7 2.5.7.4 0 1.1.8 1.4 1.7.3 1 1.3 2.9 2.1 4.3 1 1.8 1.5 5.6 1.5 13.4 0 10.8 0 10.8-2.2 10.2-5.9-1.8-33.6-5.1-34.5-4.2-.4.3.2 1.5 1.2 2.6s1.5 2.3 1.2 2.7c-.4.3-.7 0-.7-.7s-.3-1-.7-.6c-.4.4.3 1.6 1.7 2.6l2.5 1.9-3.9 1.6c-2.1.9-5 1.5-6.5 1.5-4.9-.4-8.1 0-8.1.9 0 .5 2.9.6 6.5.3 4.7-.3 6.9-.1 8.2.9 1.5 1.2 1.6 1.2.9-.1-.4-.8 0-.6.8.4.9 1.1 1.6 1.6 1.6 1 0-.5.5-.1 1.1.8.5 1 1.6 1.5 2.4 1.2.8-.4 1.5-.1 1.5.4 0 .6-.7 1.2-1.5 1.4-1 .2-.6.7 1.1 1.5 2.2 1 2.4 1 1.4-.3-1-1.1-1-1.4-.1-1.4.7 0 1-.4.7-.9-.4-.5.3-.7 1.4-.4 1.1.3 2 .9 2 1.3s1.2 1.1 2.6 1.4c1.5.4 2.4.9 2.1 1.3-.3.3-2-.2-3.8-1.1-3.9-1.9-4-1.9-3.3-.3.2.7 1.4 1.4 2.6 1.4 1.2.1 5.8 2 10.3 4.2 7.1 3.5 7.7 3.3 1.9-.7-1.1-.7 0-.3 2.4.8 2.3 1.1 4.2 2.4 4.2 2.8 0 1.6-7.2 15.1-8.7 16.4-1 .7-1.4.8-1 .1.4-.6.3-2.2-.2-3.5l-1-2.3.1 2.5c0 1.4-.3 3.4-.7 4.4-.6 1.4-.5 1.7.3 1.2 1.6-1-.2 3.7-2.8 7.4-1.1 1.6-2 3.3-2 3.9 0 .6-.3 1.1-.7 1.1-.5 0-1.6 1.4-2.6 3.1-1 1.8-2 2.9-2.3 2.6-.3-.3.5-2.1 1.8-3.9 2.7-3.6 7.8-12.3 7.8-13.2 0-.3-.4-.6-1-.6-.5 0-1.8 1.9-2.8 4.2-2.3 5.3-7.4 13.3-8.6 13.7-1.9.6-2.4-2.4-1-5.8s1.4-3.5-.4-1.6c-2.3 2.5-2.6 6.4-.6 8.6 1.1 1.3 2.5 1.6 5.6 1.1 2.7-.3 3.9-.2 3.5.5-.8 1.3.6 1.9 6.1 2.2 2.3.1 4.2-.2 4.2-.7 0-.5 1-.7 2.3-.5 2.2.4 2.2.4 1.6-7.7-.3-4.4-1.1-8.6-1.7-9.2-1.5-1.5-1.6-5.8-.2-5.8.6 0 1 1.2 1 2.6 0 1.4.4 3.3.9 4.2.5.9 1.1 5.3 1.3 9.8.4 7.5.3 8.1-1.4 7.6-1-.2-2.5.1-3.3.8-.8.7-2.2 1-3 .6-.9-.3-1.3-.2-1 .4.3.5 2.7.7 5.3.4 5.4-.5 12.4.4 11.7 1.6-.2.4 1.4.6 3.8.3 2.3-.2 6.4.2 9 1.1 3.4 1 4.7 1.1 4.4.3-.2-.7-1.4-1.3-2.8-1.5-1.3-.1-5.1-.9-8.4-1.7-3.3-.8-7.3-1.7-8.9-2-2.4-.5-2.7-1-2.3-3.3 1.1-5.8 2.5-10.3 4.6-14.5 1.1-2.4 2.1-4.8 2.1-5.5 0-.6 1-2 2.1-3.1 1.4-1.3 2-2.7 1.6-4-.3-1.2 0-1.9.6-1.8.6.1 1.2-.3 1.2-.8.1-.6.5-1.8.9-2.8.9-1.8.4-5.9-.9-9.1-.7-1.7-.4-1.8 3.6-1.4 2.4.3 5.8 1 7.4 1.6 5.2 1.8 20.2 5.2 23.2 5.2 1.5 0 5.3.9 8.3 2 3 1.1 6.5 2 7.7 2 3 0 3.1 3.6.2 9.1-1.1 2.3-1.8 4.7-1.5 5.5.3.8.1 1.4-.3 1.4-.5 0-1.2 1.8-1.6 4-.4 2.2-1.1 4.2-1.6 4.6-.5.3-.9 2.5-.9 5s-.7 6.1-1.5 8.2c-.9 2-2 5.5-2.5 7.8-.5 2.2-1.2 4.9-1.6 5.9-.5 1.3-.4 1.6.4 1.1.7-.4 1.2-1.6 1.2-2.7 0-1 .4-1.9.9-1.9s.4 1.5-.2 3.5c-.7 2.3-1.6 3.5-2.9 3.5-1 0-1.8-.6-1.8-1.3 0-1.8-12.4-7.1-19.3-8.3-2-.3-4-1-4.3-1.5-.8-1.3-2.4-1.1-2.4.4 0 .7.9 1.9 2 2.7 1.1.8 2 1.9 2 2.4 0 1.4 4.2 7.8 4.8 7.2.3-.3-.2-1.4-1.1-2.4-1-1-1.7-2.2-1.7-2.7s1 .2 2.1 1.4c2 2.2 2.1 3 1.5 12.4-.3 5.6-1 10.4-1.4 10.7-1.3.9-3.2 6-3.2 8.5 0 1.4-.4 2.5-1 2.5-.5 0-1 1.7-1 3.7 0 3.8-3.3 13.9-5.1 15.7-1.6 1.8-.9-1.7 1.6-7.9 1.4-3.3 2.5-7.5 2.5-9.3 0-1.7.4-3.2.9-3.2.4 0 1.1-2.1 1.5-4.6.3-2.6 1-5.2 1.5-5.8.5-.6 1.1-2.5 1.4-4.1.3-1.7.9-4.2 1.3-5.7.8-3.5-.3-8.1-1.9-7.5-.7.2-2.7-.2-4.6-.9-1.8-.8-4.4-1.4-5.7-1.4-1.2 0-2.5-.4-2.8-.9-.7-1.1-6.4-2.4-9.4-2.1-1.2.1-5.1-.7-8.5-1.8-7.8-2.5-11.1-3.2-16.3-3.4-3.7-.1-4.2-.4-5.3-3.5-.7-1.8-1.6-3.1-2-2.8-.5.2-.6-.7-.3-2.2.4-1.9.2-2.4-.8-1.8-.9.5-1 .2-.6-1.1 1.1-3.7-.8-4.7-4-1.9-3.9 3.4-5.6 4.8-7.8 6.5-1.8 1.4-1.9 1.4-.5-1 .8-1.3 1.9-3 2.6-3.7.6-.7 1.5-2.3 1.9-3.6.3-1.2 1.5-3.4 2.5-4.8s1.5-2.9 1.1-3.3c-.3-.4-.2-1 .4-1.4 1-.7 5.3-7.5 8.6-13.6 2.1-3.9 2.3-7.5.3-8.2-.8-.4-1.5-1.3-1.5-2.1 0-.9-.6-1.3-1.4-1-.8.3-2-.1-2.7-.9-.7-.9-4.2-3.1-7.8-5-8.5-4.3-12.5-6.7-12.9-7.7-.2-.4-1.1-.7-2.1-.7-.9 0-2.7-.7-3.9-1.6-1.2-.8-2.8-1.3-3.5-1.1-.7.3-.5.6.6.6.9.1 1.7.8 1.7 1.7 0 .8.5 1.2 1 .9.6-.3 1.3.1 1.6.9.3.9 1.4 1.6 2.5 1.6 1 0 2.2.7 2.7 1.6.5.8 1.5 1.6 2.3 1.8 2 .4 7.6 3.6 11 6.4 1.6 1.3 3.3 2.1 3.8 1.8.4-.3 2.7.8 4.9 2.4 4 2.8 4.1 3.1 3 6.2-.6 1.8-2.4 4.6-4 6.2-2.2 2.3-10.7 17.6-11.4 20.6 0 .3-.8 2.2-1.7 4.2-1 2.1-1.6 4.3-1.5 5 .7 3.1-9.4 1.4-10.6-1.8-.3-.8-1.1-1.4-1.7-1.4-.6 0-2.6-1.2-4.4-2.8-1.8-1.5-5.8-4.2-8.9-6.1-3.1-1.9-5.8-4.3-6.2-5.3-.3-1-1.5-2.3-2.7-3-2-1-2.1-1-.8.6 1.2 1.4 1.2 1.6-.3 1-.9-.3-1.6-1.4-1.6-2.3 0-1.1-.3-1.2-.8-.4-.5.8-1.3.9-2.2.3-1.3-.9-1.3-1 0-1 .9-.1.6-.5-.7-1-1.4-.6-2.3-1.8-2.3-3.1 0-2.2 5.7-12.3 10-17.5 6.4-7.9 6.1-7.4 4.5-7.4-.9 0-3.2.7-5.2 1.5-4.7 2-6.6 1.8-2.8-.2 1.8-1 2.5-1.8 1.7-2.1-1.7-.5-6.3 2.5-5.9 4 .5 2.6-3.1 1.7-6.8-1.7-3.2-3-3.6-3.8-2.4-4.7 1.2-.8 1.1-.9-.2-.5-1.1.4-3-1-5.5-4-5-5.9-6.4-7.3-7.3-7.3-.7 0-3.3-6.2-2.7-6.7.2-.2.9 1 1.6 2.7.7 1.6 1.6 3 2 3 .4 0-.1-1.7-1.1-3.7-1-2.1-1.9-4.7-1.9-6 0-1.2-.5-2.5-1.2-2.9-.7-.4-.8-.3-.4.4s.5 1.2.1 1.2c-.3 0-1.6-2.4-2.9-5.3-2.3-5.1-2.9-6.7-4-11.7-.5-2.2-.4-2.1.9.5l1.5 3-.6-3.5c-.4-1.9-1-3.6-1.4-3.8-.4-.2-.6-1.3-.3-2.5.4-1.8.3-1.9-.6-.7-.9 1.2-1 .9-.5-1.4.5-1.9.3-2.7-.3-2.3-.6.4-1.3-.2-1.6-1.2-.6-2.3 6-8.1 9-8 1.4 0 1.5.2.3.6-1.9.8-6.5 4.3-5.5 4.3.4 0 1.9-.6 3.3-1.4 1.5-.8 4.1-1.9 5.7-2.5 1.7-.5 6.1-2.1 9.9-3.5 3.8-1.4 7.9-2.6 9-2.6 1.2 0 2.9-.9 3.9-2 2.2-2.6 2.2-3.3-.2-2-1.1.5-5.7 2.2-10.3 3.7-4.6 1.4-9.3 3.3-10.5 4.1-1.3.8-2.3 1-2.3.5 0-1.3 3.2-2.8 11.5-5.3 3.9-1.2 8.7-3 10.8-4.1 2.2-1 5.1-1.8 6.5-1.8 2.4.1 2.3.3-.8 1l-3.5.8 4.2-.2c2.3-.1 3.9.1 3.7.4-.7 1.2 10 4.8 13.3 4.5 2.3-.2 3.8.4 5.2 2 1.1 1.2 1.7 2.5 1.4 2.8-.4.3-.1.6.6.6s.9 1 .5 2.7c-.4 2.2-.3 2.5.5 1.3.6-.8 1.1-1 1.1-.5 0 .6-.5 1.6-1 2.1-.7.7-.4 1.9 1 3.6 1.1 1.5 2 3.3 2 4.2 0 .9.9 2.5 2.1 3.7 1.1 1.1 1.8 2.7 1.5 3.4-.3.8.1 2 .8 2.8.7.7 2.2 2.8 3.2 4.6 3.9 6.9 4.4 7.6 5.6 7.3 3.8-1.1 5.8-1.1 10.8-.1 17.5 3.3 22.6 4.1 21.5 3.1-3.3-2.9-16.2-5.2-28.6-5.1-4.1 0-4.7-.3-5.3-2.5-.3-1.3-1.2-3.1-1.9-3.8-2-2-4.7-7.8-3.6-7.8.5 0 .9-4.4.9-9.8s.5-12.5 1.1-15.7c.8-4.3.8-6 0-6.3-.6-.2-1.1-.7-1.1-1.1 0-.9 8.2-.1 9.6 1zm-36.6 3.9c.8.5 1.1 1 .5 1-.5 0-1.7-.5-2.5-1s-1-1-.5-1c.6 0 1.7.5 2.5 1zm123.7 7c.3 0-.2-1.1-1.1-2.5-.9-1.4-1.2-2.5-.7-2.5s1.2.9 1.6 2c.6 1.8 2.8 4.9 9.9 13.6 1.5 1.8 2.6 3.6 2.6 4.2 0 .6.3 1.2.8 1.4 1.1.5 7.2 12.4 7.2 14.2 0 .9-.5 1.6-1 1.6-1.4 0-18.4 10.6-20 12.5-.7.8-2 1.5-2.9 1.5-1.3-.1-1.2-.3.4-1.2 1.1-.6 2.5-1.6 3-2.3.6-.6 4-3.1 7.8-5.4 3.7-2.4 6.7-4.5 6.7-4.7 0-.8-11.3 5.6-16.3 9.3-2.6 2-4.5 3.8-4.2 4.1.3.3-.5 1.6-1.7 2.9-2.7 2.9-1.7 4 4.5 4.2 1 .1 1.5.5 1.2 1.1-.3.5.3 1 1.5 1 1.3 0 1.9-.4 1.4-1.2-.5-.7-.3-.8.5-.4.7.5 1 1.4.7 2.2-.3.8-.1 1.4.5 1.4s.7.4.4 1c-.3.5-.1 1 .4 1 .6 0 1 .3.9.7-.4 1.4 3.4 8.3 4.5 8.3.5 0 .3-.8-.6-1.8-1-1-1.7-2.3-1.7-2.8 0-.4 1.4.6 3 2.4 2.6 2.9 3 4.1 3 9.2 0 3.2-.4 6.2-1 6.5-.5.3-1 2.4-1 4.6 0 2.1-.4 3.9-.8 3.9-1.2 0-3 6.1-4.2 13.8-.5 3.5-1.3 6.9-1.8 7.5-.5.7-1.5 2.9-2.1 4.9-.7 2.1-1.7 4-2.2 4.3-.5.4-.5-.3 0-1.7.5-1.3 1.8-4.6 2.9-7.3 1.1-2.8 2.3-7.6 2.6-10.8.4-3.2 1.4-7 2.2-8.5.7-1.5 1.4-3.5 1.4-4.4 0-1 .5-3.7 1.2-6.1 1.3-4.9.4-10.1-1.5-9.4-.7.3-2.4-.1-3.8-.9-1.3-.7-3.8-1.3-5.5-1.4-1.7 0-3.7-.7-4.4-1.5-.7-.9-1.9-1.4-2.7-1.1-.7.3-1.3.2-1.3-.2s-2.1-.8-4.7-.8c-2.7-.1-8.1-1.1-12.2-2.3-4.1-1.1-9.6-2.1-12.3-2.1-3.5 0-4.8-.4-4.8-1.4 0-1.6-3.1-7.9-4.1-8.4-.3-.1-.4-1.4-.1-2.7.3-1.9 0-2.5-1.2-2.5-1 0-1.5-.4-1.2-.9.8-1.3 11-.1 12.2 1.5.6.7 1.4 1.1 1.7.7.4-.3.7-.2.7.3 0 .6 1.5.8 3.3.6 2.2-.2 3.9.3 5.4 1.7 2.3 2.2 3.8 2.8 2.8 1.1-.3-.6.1-1 .9-1 .9 0 1.6.4 1.6.9s2.2 1.4 5 2.1c3.1.7 4.7 1.6 4.3 2.3-.4.6 0 .8.9.4.9-.3 2.8.1 4.3.9 1.6.8 3.3 1.3 3.9 1.1 1.1-.4-3.5-2.7-8.9-4.5l-3-1 2.8-.1c1.7-.1 2.6-.5 2.2-1.2-.4-.6.3-2.1 1.6-3.5 2.7-2.8 1.6-3.1-2.6-.6-3.9 2.4-7.3 3.3-8.1 2-.3-.5-1.4-.8-2.5-.5-2.4.6-4-1.3-7.9-9.8-1.8-3.9-3.8-7.3-4.4-7.7-.6-.4-.7-.8-.3-.8.5 0-.9-2.1-3-4.8-4.7-5.5-6.8-10.6-5-11.9.7-.5 3-1.8 5.2-2.8 2.2-1.1 5.3-3 6.8-4.3 1.6-1.2 3.7-2.2 4.7-2.2.9 0 2.3-.7 3-1.5.7-.8 1.8-1.5 2.6-1.5.7 0 1.9-.9 2.7-2 .9-1.3 2-1.8 3.1-1.4 1.1.4 1.6.1 1.6-1 0-.9.7-1.6 1.5-1.6.9 0 2.5-.9 3.7-2l2.2-2 2.3 4c1.3 2.2 2.7 4 3 4zm-66.6-4.3c4 4.6 5.3 7.4 3.8 8.3-.9.6-.9 1.2.4 2.4.9.9 1.8 1.6 1.9 1.5.9-.6 4.7 1.4 4.3 2.2-.4.5-.1.9.4.9.6 0 3.3 1.6 6 3.5 4.5 3.2 5.1 4.3 7.1 10.8 1.2 4 2.1 7.2 2 7.2-.2 0 .7 2 1.9 4.3 2.4 4.7 2.4 6.3-.1 3.5-1.6-2-6.8-16.1-6.8-18.7 0-.8-1.5-2.3-3.2-3.2-1.8-.9-4.3-2.8-5.6-4.3l-2.3-2.6 1.1 2.5c1.1 2.4 1 2.4-.4.6-.9-1.1-1.6-2.3-1.6-2.8 0-.4-.7-.5-1.5-.2-.8.4-1.5.1-1.5-.5s-.7-.8-1.5-.5c-.9.4-1.5 0-1.5-1 0-.9-.5-1.6-1.1-1.6-.5 0-.7-.5-.4-1 .3-.6.1-1-.4-1-.6 0-1.1-.5-1.1-1 0-.6.7-1 1.5-1s1.5-.5 1.5-1.1c0-.7-1.2-.9-3.4-.5-2.8.5-3.4.3-3.9-1.4-1.3-5.1-7-2.5-8.3 3.7l-.6 3.3 3-1.6c2.7-1.3 3.5-1.3 6.6 0 4.6 1.9 6.9 5.6 6.8 11.1-.1 5.6-1.4 8.1-5.5 10.5-3.8 2.4-6.6 2.5-11.2.6-4.9-2.1-6.9-6.5-6.9-15.6 0-13.6 4.2-20 13.3-20 3.9 0 5.2.5 7.2 2.7zm-52.6-.7c.3.6-.1.7-.9.4-1.8-.7-2.1-1.4-.7-1.4.6 0 1.3.4 1.6 1zm130.4 3.5c3.1 1.4 4.7 2.4 3.6 2.5-1.2 0-3.8-.9-6-2s-4.7-2-5.7-2c-.9 0-2-.5-2.4-1.1-.9-1.6 3.3-.5 10.5 2.6zm-83.5 4c.3 1-.1 1.5-1.4 1.5-2 0-3.3-1.3-2.3-2.4 1.1-1.1 3.1-.6 3.7.9zm-27.4 5.5c0 1.1-.4 2-1 2-.5 0-1-.9-1-2s.5-2 1-2c.6 0 1 .9 1 2zm0 7.8c0 3.3-1.6 1.8-2.6-2.3-.7-2.7-.6-2.9.9-1.6 1 .7 1.7 2.5 1.7 3.9zm53.6 10.9c1 3.2 1.8 7 1.9 8.5 0 2.6-.1 2.6-1.7.8-1-1.1-1.8-2.2-1.8-2.6 0-.3-.9-1.9-2.1-3.6-1.2-1.6-1.9-3.1-1.7-3.3.2-.2 1.5 1.4 2.8 3.5 1.4 2.2 2.9 4 3.4 4 .4 0 .1-1-.8-2.3-.9-1.2-2.3-3.9-3.2-5.9-.9-2.1-2.1-3.5-2.7-3.1-.5.3-.7.1-.3-.5.3-.6.2-1.3-.4-1.7-2.4-1.5-.7-2.4 1.8-1.1 2.2 1.1 3.4 2.9 4.8 7.3zm8.4 2.5c1.3 2.4 2.6 4.5 3 4.8.6.5 6 12.7 6 13.6 0 .9-2.6.3-5.4-1.1-1.5-.8-3.7-1.5-4.7-1.5-2.3 0-5.1-5.1-3.8-7.1.7-1.1.9-.9.9.8 0 1.3.5 2.3 1 2.3.6 0 .9.4.8.9-.2.5-.1.9.2.8.3 0 1.6.5 2.9 1.2 1.9 1.1 2.2 1.1 1.5-.1-.5-.7-.7-2.1-.6-3 .2-1-.1-2.6-.7-3.6-2.2-4.1-5-12.2-4.3-12.2.5 0 1.9 1.9 3.2 4.2zm-12 4.2c0 .7 1.4 2.8 3 4.6 3.8 4.3 3.8 5-.4 5-4.6 0-5.6 1.6-6.2 10.2-.5 7.1-2.2 12.7-3.3 11-1.2-1.7-11.2-7.2-13.1-7.2-1 0-4-1.1-6.6-2.5-2.6-1.4-5.3-2.5-6-2.5-1.4 0-1.8-1.2-1.5-3.7.1-.7-.5-2.6-1.4-4.2-.8-1.7-1.5-3.3-1.5-3.6 0-1 21.6 1.8 28.2 3.7 4.1 1.2 7-.1 6.7-3.1-.4-4.6.2-10.2 1.1-9.6.6.3 1 1.2 1 1.9zm-36 15.5c0 .5-1 1.1-2.2 1.4-2.2.6-2.2.6-.4-.8 2.3-1.7 2.6-1.8 2.6-.6zm35.4 6.8c-.6 4.3-2.3 10.4-3.8 13.6-1.4 3.2-2.7 7.3-2.9 9.1-.1 1.9-.5 3.3-.8 3.1-.3-.2-.5 1.8-.4 4.5.1 2.7-.3 4.6-.8 4.3-.5-.3-.7-1.8-.5-3.4.3-1.6.1-2.9-.4-2.9-.4 0-.1-1.7.6-3.8.8-2 1.7-5.4 2.1-7.4.3-2.1 1.1-4.3 1.8-5 2.2-2.4 3.6-6.3 4.2-12.3.6-5.4 1.1-7.5 1.9-7.5.1 0-.3 3.5-1 7.7zm34.3-3.1c-.3.3-1.2.4-1.9.1-.8-.3-.5-.6.6-.6 1.1-.1 1.7.2 1.3.5zm-33 6.6c-.3.7-.5.2-.5-1.2s.2-1.9.5-1.3c.2.7.2 1.9 0 2.5zm3 6c-.4 4-.9 8.8-1.3 10.7-.6 3.8-4.6 13.2-7.2 17.1-.9 1.4-1.5 3.8-1.4 5.5.2 2.2 0 2.6-.6 1.5-1.2-1.9-.2-18 1-18 .6 0 .8 1.3.6 2.9-.2 1.7-.1 2.8.4 2.5 1.1-.7 1-5.2-.2-5.9-.5-.3-1-1.1-1-1.6 0-.6.5-.7 1-.4.6.3 1-.3 1-1.3 0-1.1.9-4.8 2-8.3 1-3.5 2-6.9 2.2-7.4.3-1.1 3-4.5 3.7-4.5.2 0 .1 3.3-.2 7.2zm-20.6-4.5c1.3 1.5 1.2 1.5-.8.4-2.4-1.2-2.9-2.1-1.4-2.1.5 0 1.5.7 2.2 1.7zm3.7 31.3c.5 0 .9.6.9 1.2.6 9.7.5 11-.8 11.8-.7.5-1.6.6-1.9.2-.3-.4-2.5-.9-5-1.1-2.5-.1-4.7-.5-4.8-.6-.5-.5 3.1-6.5 3.9-6.5.3 0 1.6-2.1 2.9-4.6 2.1-4 2.5-4.3 3.2-2.5.4 1.2 1.1 2.1 1.6 2.1zm-5.5 14.7c-.7.2-1.9.2-2.5 0-.7-.3-.2-.5 1.2-.5s1.9.2 1.3.5zm-15.4 5.5c-.4 2.4-.8 5.4-.9 6.7 0 2.4 0 2.4 2.1.5 2.2-1.9 2.2-1.9 1.4.6-.4 1.4-2.9 7.6-5.6 13.8-2.7 6.3-4.9 12.2-4.9 13.2s-.4 2.2-1 2.5c-2 1.2-.9-3.2 3-12.2 4.6-10.6 5.9-14.9 4.1-13.9-1.5 1-5.1 8.9-5.5 12.3-.2 1.6-1.3 4.6-2.5 6.7-1.7 2.9-2.1 4.8-1.6 7.3.3 1.8 1 3.3 1.5 3.3.6 0 1 2.6 1 5.9 0 11.7 2 15.4 9 16.5 2.3.4 5.5 1.3 7 2.1s4.3 1.6 6.1 1.8c1.9.2 4.3.9 5.4 1.5 3 1.6 11.4 4.2 16.9 5.2 2.7.5 5.1 1.2 5.5 1.5.8.9-10-.6-11.9-1.5-2.3-1.2-12.9-4.6-18.5-5.9-2.7-.7-5.4-1.6-6-2.1-.5-.4-2.6-1.1-4.5-1.5-6-1.1-7-1.6-7-3.1 0-.8-.4-1.4-.8-1.4-1.4 0-3.2-6.4-3.2-11.2 0-2.6-.5-6.8-1.1-9.5-1-4.3-.9-5.4 1-9.3 1.1-2.4 2.1-5 2.1-5.7 0-.7 1.3-4.2 2.8-7.6 1.6-3.4 3.2-8.8 3.5-11.9.8-6.3 1.5-8.8 2.7-8.8.4 0 .4 1.9-.1 4.2zm63.8 12.3c1.9.8 4.7 1.5 6.2 1.6 1.4 0 3.5.4 4.6.9 1.3.6.1.7-3.5.4-3-.3-7-1.3-8.8-2.1-1.8-.8-4-1.2-4.8-.9-.8.3-1.4.1-1.4-.4 0-1.5 3.6-1.2 7.7.5zm-59.2 3.2c-1.5 8.5-9.7 28.3-11.7 28.3-2.4 0 3.9-20.6 9-29.8 2-3.5 3.4-2.7 2.7 1.5zm-10.5 31.3c0 1.1-.4 2-.8 2s-.8-.9-.9-2c-.1-1.1.2-2 .8-2 .5 0 .9.9.9 2zM31.3 3.7c1.5.2 3.9.2 5.5 0 1.5-.2.2-.4-2.8-.4s-4.3.2-2.7.4zM21.8 4.7c.7.3 1.6.2 1.9-.1.4-.3-.2-.6-1.3-.5-1.1 0-1.4.3-.6.6zM28.2 6.3c-5.3.6-8.1 1.4-7.9 2.1.3.6 2.4 1 5.1.9l4.6-.3-1.6 2.5-1.6 2.5h4.9c4.6 0 5.2-.3 7.6-3.7 2.5-3.4 2.5-3.8.9-4.5-2-.8-1.3-.8-12 .5zm9.8.2c0 .4-.7 1.9-1.5 3.5-1.2 2.3-2.2 3-4.6 3-2.6 0-2.9-.2-1.9-1.9 1.4-2.7 1.3-3.1-.7-3.3-1 0 .2-.4 2.7-.8s4.8-.8 5.3-.8c.4-.1.7 0 .7.3zM170.5 15.1c-.4 1.9-1.4 4.3-2.1 5.4-.8 1.1-1.4 2.7-1.4 3.7s-.6 1.5-1.2 1.3c-.7-.3-5.3.4-10.3 1.5-4.9 1.2-11.1 2.4-13.7 2.8-2.5.5-5.2 1.3-6 1.9-.7.6-2.6 1.3-4.3 1.6-6.8 1.2-10 3.1-10.3 6.1-.5 3.5-5.5 8.6-8.5 8.6-2.2 0-5.2-1.4-22.1-10.3-3.7-2-7.2-3.4-7.7-3.1-.5.3-.9 0-.9-.6s-.4-.8-1-.5c-.5.3-1 .1-1-.5 0-1.4-8.5-5-11.8-5-2.1 0-2.4.2-1.2 1 .8.5 2.3 1 3.4 1 1.6 0 3.3 1.1 9.3 6 .7.6 1.6 1 2 1 .5 0 2.9 1.1 5.6 2.5 2.6 1.4 4.7 2.3 4.7 2 0-.3 3.1 1 6.9 3 3.8 2 9.1 3.8 11.8 4.2l5 .5-1.9 5c-2.8 7.4-1.5 6.9 2.1-.7 3.3-6.9 5.3-8 5.9-3.2.2 1.5.7 2.7 1.1 2.7 1.2 0 3 6.6 4.1 14.4.8 6.3 1.5 8.5 2.3 7.5 1.3-1.4-3.2-22.1-5.9-27.4-.5-1.1-1-3.7-.9-5.8 0-3.6.3-4 3.9-5.2 3.8-1.3 7.8-2.2 14.1-3 1.7-.2 5-1 7.5-1.9 2.5-.9 5.3-1.6 6.3-1.6s2.8-.6 4-1.4c2-1.3 5.3-2 8.5-1.7.9.1 1 .6.2 2-1 1.9-1 9.1 0 9.1.3 0 .6 1.4.7 3.1.1 1.8.9 3.9 1.7 4.8 2.4 2.8 5 8.5 5.2 11.5.1 1.6.6 3.1 1 3.5 1.2.8 1.3 5.1.2 5.1-.5 0-.6.4-.3 1 .3.5.2 1-.3 1s-.9.6-1 1.2c-.4 3.1-1.4 8.8-1.6 8.8 0 .1-2.6.3-5.6.6-3 .3-6.6 1.2-8 2-3 1.7-13.5 5.4-16.8 5.9-1.3.2-3.4 1.5-4.7 2.9-2.3 2.5-2.5 2.5-3.5.7-.5-1.1-1-2.8-1-3.8 0-1.3-.3-1.5-.8-.5-1.6 2.4-.6 5.6 2.4 7.3 1.6.9 2.8 2.2 2.6 2.9-.2.8.3 1 1.4.6 1.1-.4 1.8 0 2.1 1.4.3 1.1.9 1.7 1.4 1.4.5-.3.9 1.7.9 4.5 0 4.8 1.2 7.2 2.5 5.1.4-.6 1.1-.8 1.6-.5.5.4.9.1.9-.5 0-.7-.8-.9-2.1-.5-1.5.5-1.9.4-1.4-.5.4-.6 1.8-.9 3.5-.5 2 .4 2.9.2 3.4-1 .4-1 .2-1.4-.6-.9-.7.5-.8.3-.4-.5.5-.7 1.8-1.1 3-.9 1.2.1 3.7-.8 5.6-2.2 1.8-1.3 3-1.7 2.6-.9-.4.7 0 .5.8-.5.9-1.1 1.6-1.4 1.6-.8 0 .7 1.5 1.2 3.5 1.2 2.1 0 3.5-.5 3.5-1.3 0-.9.2-.9.9.1.4.8 1.8 1.2 3 1 2-.3 2-.5.6-3.2-.9-1.6-1.5-5.5-1.5-9s-.3-6.5-.6-6.8c-.6-.6-16.8 4.5-18.8 6-2.6 1.9-17.6 5.2-17.6 3.8 0-.4 8.1-2.6 10.8-2.8.6-.1 1.2-.5 1.2-.9 0-.5.6-.6 1.4-.3.8.3 2.5-.1 3.8-.9 1.3-.9 6-2.7 10.5-4.2l8.2-2.6 2.3 2.1 2.3 2.1.6-3.3c.3-1.9.9-3.9 1.3-4.6.4-.7.3-3.4-.4-6-1.3-5.8-.6-8.1 4.6-14 5.4-6.3 6-3.8 1.8 8.2-2.3 6.6-3.2 10.6-2.7 12.4.6 2.6.7 2.5 2-1.2.7-2.1 2-4.4 2.9-5 .8-.7 1.4-1.6 1.3-2.1-.1-.6.3-2.4 1-4 .8-1.8 1.1-4.9.7-7.7l-.5-4.7 4.4.3c2.4.1 4.9.7 5.7 1.3.7.6 2.9 1.3 4.8 1.6 5.8.9 25.2 5.5 29.8 7 2.6.9 3.2 1.6 3.2 4 0 1.5-.6 4-1.3 5.5-.8 1.5-2 5.4-2.7 8.7-.7 3.3-1.6 6.4-2 6.8-.4.5-.5 2.8-.2 5.3.3 2.6.1 4.4-.6 4.4-.5 0-1.2 1-1.5 2.2-.3 1.3-1.5 5.4-2.6 9.3-1.1 3.8-1.8 7.1-1.6 7.4.3.2.6-.2.9-1 .2-.8 1.8-5.2 3.6-9.9s3.3-10 3.4-11.8c.2-1.7.6-3.5.9-3.9.4-.3.7-1.7.7-3 0-1.4.5-3.3 1-4.4 1.9-3.5 4.2-18.1 3.1-19.7-.7-.9-6.7-3.2-10.1-3.9-1.4-.3-3.9-1.1-5.7-1.9-1.7-.8-4.7-1.4-6.6-1.4-1.9 0-5.2-.7-7.3-1.6-2.2-.9-5.1-1.6-6.6-1.6-1.6 0-2.8-.3-2.8-.8s-1.6-.7-3.5-.6c-2 .2-3.5-.1-3.5-.7 0-.7-.4-.7-1.2.1-1.8 1.8-3 1.5-2.4-.6.4-1-.1-2.7-.9-3.8-.8-1-1.5-2.7-1.5-3.7s-.4-1.6-.9-1.3c-.5.4-.7-.4-.4-1.5.4-1.6.2-2-.8-1.7-.8.3-1.5 1.8-1.5 3.4-.3 6.3-.4 7.4-1.1 7.4-1 0-3.3-4.9-3.3-6.9 0-.9-.7-2.5-1.5-3.5-.8-1.1-1.5-3.1-1.5-4.4 0-1.3-.7-3-1.5-3.9-.9-.9-1.3-2.4-1-3.7.2-1.1.2-1.6-.1-.9-.4.9-1 1-2.4.1-1.8-1.2-1.8-1.3.2-4.9 1.5-2.7 1.8-4.1 1-5.4-.8-1.6-1.1-1.4-1.7 1.6zm1.9 13c1 1.7 1.5 3.3 1.2 3.7-.4.3-.9-.4-1.3-1.6-.4-1.8-.8-2-1.9-1.1-.8.6-1.4 2-1.4 3.1 0 2.1 3.5 7.8 5.7 9.1.7.5 1.1 1.2.8 1.8-.4.5-.1.9.4.9 1.7 0 1.3-1.9-.9-4.7-2-2.5-2.7-6.3-1.2-6.3 1 0 3.4 7 3.5 10.2 0 1.6.4 2.5 1 2.1.6-.4.7-.1.2.6-.5.9-1 1-1.8.2-.7-.7-1.4-.6-2.1.5-1 1.3-1.7.5-4-4.4-2.5-5.3-2.8-6.6-2.2-11.6.4-3.1 1.1-5.6 1.5-5.6.3 0 1.5 1.4 2.5 3.1zm-1.7 6.1c-.3.7-.5.2-.5-1.2s.2-1.9.5-1.3c.2.7.2 1.9 0 2.5zm15.1 14.3c0 2.6-1.7 4.7-1.9 2.3 0-.7-.4-.4-.9.7-.8 1.8-.9 1.8-.9-.6-.1-2.3 1.5-4.9 3-4.9.3 0 .7 1.1.7 2.5zm-5.8 2.6c0 1.9-2 1.8-3.4-.3-2.3-3.3-2-4.1.9-2.2 1.4.9 2.5 2 2.5 2.5zm-1.9 6.2c-.8.8-1.1.6-1.1-1 0-1.1-.7-2.6-1.5-3.3-.8-.7-1.5-1.7-1.5-2.2 0-.5 1.2.5 2.6 2.2 2 2.3 2.4 3.4 1.5 4.3zm-1.6 12.7c-.3.5-.1 1 .6 1s.9.8.4 2.2c-.3 1.3-.7 2.9-.7 3.6-.2 1.7-2.2.9-2.6-1-.3-1.6 1.4-6.8 2.3-6.8.4 0 .3.4 0 1zm-4.5 18.5v6.2c0 .5-2.1 1-4.8 1.3-2.6.3-7 1.6-9.8 2.9-2.7 1.3-6.2 3-7.7 3.7-4 1.9-4.4 1.8-5.1-1.8-.3-1.8-1.6-4.2-2.8-5.5-2.6-2.7-2.3-3.1 2.8-3.8 4.9-.8 7-1.4 11.4-3.2 15.7-6.7 16-6.7 16 .2zM54.4 21.2c0 3.7.4 6.8.9 6.8.4 0 .7.6.7 1.4 0 .8.5 1.8 1.1 2.1 1.2.8.5-6.3-1.1-10.5-.5-1.4-1.1-3.4-1.3-4.5-.3-1.1-.4 1-.3 4.7zM143.4 17.9c-5.9 1.7-11.3 4.7-11.4 6.5 0 1 4.2.3 8.5-1.5 1.7-.7 4.5-1.3 6.4-1.5 1.9-.2 4.1-1 5-1.9 1.4-1.3 1.3-1.5-.9-1.5-2 0-2.2-.2-1-1 2-1.3.7-1.1-6.6.9zm6.6 1.1c1.3.8 1.3 1-.2 1-.9 0-2.4.3-3.2.6-1.2.5-1.5.2-1-1 .7-1.8 2.2-2 4.4-.6zm-9.5 2c-5.2 2.5-7.1 2.5-2.5 0 1.9-1.1 4.2-1.9 5-1.9.8 0-.3.8-2.5 1.9zM129.6 17.9c-.4.5.1.8.9.7 2.1-.3 3.1-1.6 1.2-1.6-.9 0-1.8.4-2.1.9zM87.6 19.7c1.8.2 4 1.3 5 2.4 1.7 1.9 3.4 2.5 3.4 1.1s-6.2-4.2-8.8-4c-2.4.1-2.4.2.4.5zM172 20.5c-.7.9-1 1.8-.6 2.2.3.3.6.1.6-.6s.5-.9 1-.6c.6.3 1-.1 1-.9 0-2-.4-2-2-.1zM29.3 25c-1.3.5-2.3 1.6-2.3 2.4 0 1.5-2.1 2.6-5.1 2.6-2.3 0-2.5 2.3-.3 4.5 1.1 1 2.5 1.4 4 1.1 2.7-.7 2.7-.7 4.4 11.3.6 4.1 1.3 7.8 1.6 8.3.5.7 6.2.2 7.2-.7.6-.6-4-28-4.9-29.2-1.3-1.5-1.6-1.5-4.6-.3zm3.3 2.5c-.3.8-.1 1.5.5 1.5s.8.9.4 1.9c-.5 1.7.1 7.4 2 18.7.4 2.6.2 3.3-1.5 3.7-1.6.4-2-.1-2.5-2.7-1-6.1-2.5-16.1-2.5-17 0-.4-1.5-.5-3.4-.2-2.5.5-3.5.3-4-.9-.4-1.1.2-1.5 2.5-1.5 2.2 0 3.2-.6 3.6-1.9.4-1.8 1.8-2.6 4.7-3 .4 0 .6.6.2 1.4zM142.9 39.2c-4.6 1.4-7.9 6.1-7.9 11.5 0 4.8 1.2 5.6 5.8 3.5 2.2-1.1 3.2-2.3 3.2-3.9 0-1.9 2.5-4.3 4.4-4.3.3 0 .6 1.5.6 3.4 0 2.6-.5 3.6-2 4.1-2 .7-2.5 2.1-1.4 4.9.4 1.1 1.9 1.6 4.5 1.6 2.8 0 4.1.5 4.9 1.9 1.5 2.9 1.3 3.5-1.8 5.3-2.7 1.6-2.9 1.6-5.3-.8-2.2-2.2-2.8-2.3-5.7-1.3-3.7 1.3-3.7 1.1-1.6 5.4 1.7 3.6 3.7 4.5 10.1 4.5 8.7 0 14.3-4.4 14.3-11.2 0-3.3-.6-4.6-3.4-7.2-2.6-2.6-3.2-3.8-2.9-6.1 1.2-8.5-6.5-14-15.8-11.3zm8.7 1.8c5.2 2 7.1 7.5 3.7 11.2-1.3 1.4-1.3 1.8-.2 1.8 2.2.1 5.5 3.3 6.5 6.5 2.3 7-1.6 12.1-9.8 13.1-5.2.6-5.7.5-8.7-2.5-3.5-3.4-3.4-4.6.3-5.3 1.8-.4 2.6 0 2.9 1.3.8 3 5.4 3.5 8.3.8 3-2.8 3-4.4-.1-7.5-1.8-1.8-3.1-2.3-4.8-1.8-3.5.8-4.3-2.1-1.2-4.2 3.2-2.1 3.4-6.7.4-8.7-3.6-2.6-7.2-.3-7.3 4.7-.1 1.2-1.1 2.2-2.7 2.6-2.5.7-2.5.7-1.9-3.7.8-5 1.8-6.3 6.3-8 4.1-1.5 5-1.5 8.3-.3zM200.3 38.7c-1.7.6-1.6 2 0 2.6.8.3 1.4-.3 1.4-1.4.1-1 .1-1.9 0-1.8-.1 0-.8.3-1.4.6zM203 40c0 .5.5 1 1 1 .6 0 1-.5 1-1 0-.6-.4-1-1-1-.5 0-1 .4-1 1zM211 42c0 .4 2 1.3 4.5 2 2.4.7 4.2 1.6 3.9 2.1-.3.5.2.6 1 .3.9-.3 2.4-.3 3.4.1 1.1.6-.6 1.2-5.6 2.1-9.2 1.6-12.2.7-12.2-3.6 0-1.6-.5-3-1.1-3-1.3 0-.4 5.9 1.1 7.4 1.6 1.6 20 .9 21.8-.8.3-.4.1-1.1-.4-1.6-1.4-1.4-16.4-6-16.4-5zM228 41.4c0 .2.7.7 1.6 1 .8.3 1.2.2.9-.4-.6-1-2.5-1.4-2.5-.6zM211 46c0 1.1.4 2 .9 2 .6 0 .9-.9.8-2-.1-1.1-.5-2-.9-2s-.8.9-.8 2zM77.2 46.2c-1.9.5-3.7 1.8-4.2 3.1-.6 1.2-1.5 3-2.2 3.9-1.6 2.2-.2 3.8 4 4.4 2.4.4 3.2.1 3.7-1.5 1.2-3.8 6.5-3.3 6.5.7 0 1.5-3.6 5.2-5.2 5.2-.5 0-2.8.9-5 2-2.3 1.1-4.7 2-5.4 2-1.1 0-4.8 4.2-6.8 7.7-.4.8 2.8 2.3 10.4 4.7 6 2 11.4 3.6 11.9 3.6.9 0 3.4-6 2.8-6.6-.2-.2-3-1.2-6.3-2.3-3.2-1-4.9-1.9-3.7-2 2.4-.1 10-3.3 12.4-5.3.9-.7 2.1-2.9 2.8-4.8 2.2-6.1-1.9-12.9-8.9-14.7-2.1-.6-4.9-.6-6.8-.1zm8.4 2.4c4.9 1.9 7 5.5 6 10.6-.7 3.9-4.7 7-12.2 9.4-2.7.9-5.3 2-5.8 2.5-.5.4 1.8 1.5 5 2.5 7.4 2.1 7.3 2 6.7 4.4-.4 1.3-1.1 1.9-2.2 1.6-.9-.3-2.8-.7-4.2-1-2.5-.4-14-3.7-14.8-4.2-.9-.7 5.4-7.4 6.9-7.4 1 0 2-.4 2.2-.9.2-.6 1.4-1.2 2.8-1.4 6.1-1.2 8.1-2.1 9.2-4.1 1.5-2.6 1.6-4.5.5-6.9-1.3-2.8-8.1-2-8.5.9-.2 1.7-.8 2.1-2.5 1.6-1.2-.3-2.5-1-2.9-1.5-.8-1.3 2.2-5.6 4-5.7.6 0 1.2-.5 1.2-1 0-1.5 3.9-1.2 8.6.6zM117.6 53.5c-1 2.1-1.4 4.4-1.1 5.7.5 1.3.3 1.8-.3 1.4-.6-.3-1.4-.1-1.8.5-.3.6-.1 1.5.5 1.9.9.5.8 1-.4 2-.8.7-1.5 1.7-1.5 2.3 0 .5 1.2-.3 2.7-1.9 1.5-1.6 3-2.8 3.5-2.7.4.2.4-.5.1-1.4-.4-.9-.2-1.4.3-1.1.5.3 1-1.8 1.1-4.8.3-6.3-.8-6.9-3.1-1.9zm1.6 1.7c-.7.7-1.2.8-1.2.2 0-1.4 1.2-2.6 1.9-1.9.2.3-.1 1.1-.7 1.7zM122 56.6c0 1.7-.7 5.1-1.6 7.5-.9 2.4-1.7 5.1-1.8 5.9-.4 3.4-3.1 9-4.5 9.5-.9.3-2.4 1.6-3.3 2.9l-1.7 2.4 9.9.7c6.1.4 10 1.1 10 1.8 0 .8.4.7 1.2-.1.9-.9.5-2.7-1.4-7.9-1.5-3.7-2.9-9.6-3.3-13.1-.3-3.4-1.2-7.7-2-9.5l-1.4-3.2-.1 3.1zm2.3 11.9c.3 2.7 1.3 7 2.1 9.4 1.1 2.9 1.3 4.7.6 5.1-1.1.7-12 .3-12.7-.4-.3-.2.5-1.4 1.6-2.5s2.8-4.6 3.7-7.8c1.5-5.1 3.5-9.6 4-9 .1.1.4 2.4.7 5.2zM10.1 61c-.1 2.7.2 5 .7 5 .5 0 .9-2.3 1.1-5 .1-2.8-.2-5-.7-5-.5 0-.9 2.2-1.1 5zM183.4 59.8c-1.9 1.3-3.2 4.6-2.4 6.7.5 1.5 1 1 2.3-2.8.9-2.6 1.5-4.7 1.4-4.7-.1 0-.7.4-1.3.8zM206.8 70.7c-9.9 7.3-14.8 12.9-13.3 15.3.3.5 3.1 1.6 6.3 2.5 8.1 2.3 9 2.6 7.5 3.2-1.4.5-1.8 4.9-.5 5.6.4.3 2.2.8 4 1.2 3 .6 3.3.4 4.3-2.4.8-2.2 1.6-3 3.2-2.8 2.9.3 4.9-6 2.4-7.8-1.5-1.1-1.5-1.6.2-7.2 1-3.3 2.1-7.6 2.5-9.6.6-3.4.4-3.8-1.9-4.7-1.5-.6-3-1-3.4-1-.4 0-5.5 3.5-11.3 7.7zm16.2-5.4c0 .1-1.3 4.5-3 9.7-1.6 5.2-3 9.8-3 10.2 0 .5.9.8 2 .8 2.3 0 2.3 0 1 3.5-.7 2-1.5 2.5-2.9 2-1.3-.4-2.1.1-2.6 1.7-.4 1.3-.6 2.7-.6 3.2.2.8-5.7.1-6.7-.8-.2-.2.1-1.3.7-2.4 1.8-3.5 1.3-4-5.9-5.8-6.2-1.6-6.9-2.1-6.4-3.9.8-2.6.9-2.7 11.6-11.1 7.1-5.5 10.1-7.3 12.6-7.3 1.7-.1 3.2 0 3.2.2zM210.4 75.8c-1.7 1.5-4 3.4-5.2 4.2-2.5 1.7-1.9 2.5 2.4 3.4 2.9.7 3.1.5 4.4-3.6.8-2.4 1.8-4.9 2.3-5.6 1.7-2.2-.7-1.2-3.9 1.6zm-.1 4.2c-.3 1.1-1.2 2-2 2-1.1 0-1.1-.4-.3-2 .6-1.1 1.5-2 1.9-2 .5 0 .7.9.4 2zM117 67c0 .5-1.1 1.2-2.5 1.6-1.5.4-2.5 1.3-2.5 2.4 0 .9-.9 2.5-2 3.5-2.1 1.9-2.6 5.1-1 7.5.7 1.1 1.1.9 1.9-1.3.6-1.5 1.6-2.7 2.3-2.7 1.6 0 4.2-5.5 4.4-9.3.1-1.5 0-2.7-.2-2.7s-.4.4-.4 1zm-1 5c-2.4 1.6-3.1 1.1-1.9-1.1.8-1.6 1.4-1.8 2.2-1 .9.9.8 1.4-.3 2.1zm-4.8 5.2c-1.2 1.3-2.2 1.7-2.2 1.1 0-1.5 3.1-4.6 3.8-3.8.3.3-.4 1.5-1.6 2.7zM44.1 71.6c0 1.1.3 1.4.6.6.3-.7.2-1.6-.1-1.9-.3-.4-.6.2-.5 1.3zM129 76.7c0 .5.5 1.5 1 2.3.8 1.2 1 1.1 1-.8 0-1.2-.4-2.2-1-2.2-.5 0-1 .3-1 .7zM111.3 86.7c1.5.2 3.9.2 5.5 0 1.5-.2.2-.4-2.8-.4s-4.3.2-2.7.4zM124.8 87.7c.7.3 1.6.2 1.9-.1.4-.3-.2-.6-1.3-.5-1.1 0-1.4.3-.6.6zM103.8 89.1c-2.3 1.3-2.3 2.6.2 3.9 1.6.9 2 .8 2-.5 0-.9-.4-1.4-.9-1-.5.3-1.2.1-1.6-.5-.3-.5.7-1.2 2.2-1.6 4.5-.9 5-1.2 2.3-1.3-1.4 0-3.3.4-4.2 1zM121.3 89.4c5.6 1.5 7.2 2.8 6.4 5-.4 1.1-1.9 1.6-4.7 1.6-2.3 0-4 .5-4 1.1 0 .8 1.2.9 3.7.4 4.9-.9 7.3-2.2 7.3-4.1 0-1.8-7.4-5.4-11-5.3-1.6 0-.7.5 2.3 1.3zM77.4 91.4c1.1.9 2.9 1.6 4 1.6 1.7-.1 1.8-.2.6-.9-.8-.5-2.6-1.2-4-1.5-2.4-.7-2.4-.6-.6.8zM109 90.8c0 .8.9 1.6 1.9 1.9 1.1.3 2.2 1.1 2.5 1.9.3.8 1.1 1.4 1.8 1.4.9 0 .8-.3-.2-1-1.1-.7-.6-1 2.1-1 2.3 0 3.9-.6 4.3-1.5.3-.8.1-1.5-.4-1.5-.6 0-1 .5-1 1.1 0 1.6-9 .5-10.1-1.2-.7-1.2-.9-1.2-.9-.1zM86 93.5c0 .5 5.6 3.5 6.6 3.5.4 0-.3-.9-1.6-2-2.1-1.8-5-2.7-5-1.5zM107.5 96c.3.5 1.8 1 3.2 1 3.2 0 2.8-.5-1-1.4-1.9-.4-2.6-.3-2.2.4zM170 107.1c0 .5-.4.8-.8.5-.4-.2-1.4-.1-2.2.5-1.3.7-1.3.9 0 .9.9 0 .3.8-1.4 1.9-1.6 1.1-3.6 1.7-4.5 1.4-1.4-.4-1.4-.3-.1.6 1.2.9 1.3 1.1.1 1.1-.8 0-1.2.3-.9.6.6.6 9-4.5 9.6-5.9.2-.4 1-.7 1.8-.7.9 0 1.2-.5.9-1-.8-1.3-2.5-1.3-2.5.1zM159.1 109.6c0 1.1.3 1.4.6.6.3-.7.2-1.6-.1-1.9-.3-.4-.6.2-.5 1.3zM163 110c-.9.6-1 1-.3 1 .6 0 1.5-.5 1.8-1 .8-1.2.4-1.2-1.5 0zM53.4 110.2c-4.2 3.2-5.2 4.2-2.7 2.9 1.2-.6 2.5-1.6 2.8-2.1 1-1.5 4.2-1.2 8.1.9l3.5 1.9-5.6 3.2c-3 1.7-5.5 3.3-5.5 3.6 0 .6 13-6 13-6.6 0-.7-8.8-6-9.9-6-.5 0-2.1 1-3.7 2.2zM72.3 113c-2.4 1.1-4.3 2.4-4.3 3 0 .6-.4.8-1 .5-.5-.3-1-.1-1 .5s-.4.9-.9.6c-.5-.3-3.8 1-7.4 2.9-4.6 2.4-6.7 3.1-7 2.2-.4-.7-.6-.6-.6.4-.1 2.3-8.8 6.5-14.3 6.8-3.9.2-4.8-.1-5.8-1.9-.6-1.1-1.4-1.8-1.9-1.6-.4.3-1.8-1.5-3.1-4-2.4-4.3-4-5.6-4-3.3 0 1.1 5.3 8.2 8.7 11.7.7.8 1 1.8.7 2.4-.4.6.1 1.7 1.1 2.5 1.1.7 1.6 1.3 1.2 1.3-.4 0 0 1.1.9 2.5 2.3 3.5 1.1 4.2-1.5.9-1.1-1.5-2.1-2.2-2.1-1.6 0 1.6 5.1 6.8 6.2 6.4.6-.2.8.4.5 1.3-.4.8-.1 1.5.5 1.5s.9.3.5.6c-.3.4.7 3.3 2.4 6.6 1.6 3.2 2.7 6.3 2.4 6.8-.3.4.1 1 .7 1.3 1 .4 1 .7.1 1.8-1.5 1.5-1.2 1.7-5.3-4.6-1.8-2.8-2.9-4.1-2.5-3 .7 1.8 1.1 4.1 1.4 7 .1.5.6.3 1.1-.5.6-.9 1-1 1-.3 0 1.4 2.8 4.3 4.1 4.3.5 0 .9-.8.9-1.7 0-2.7 1.4-.3 3.4 5.7 2.1 6.2 4.2 9.1 6.5 8.9 1.4-.1 1.4-.2-.1-.6-.9-.2-2.1-1.8-2.8-3.6-.7-1.8-3.2-7.7-5.6-13.3-2.4-5.5-4.4-10.3-4.4-10.7 0-.4-1.4-3.6-3-7.1-1.7-3.6-3.3-7.5-3.5-8.7-.3-1.2-.9-2.7-1.5-3.3-1.7-1.7-1.1-2.1 3.9-2.2 3.5-.1 6.8-1.1 12-3.8 3.9-2 7.1-3.4 7.1-3.1 0 .3 2.1-.6 4.7-2 2.7-1.4 5.4-2.5 6-2.5.7 0 1.3-.4 1.3-.8 0-.5 1-1.4 2.3-2.1 3.9-2.1 9-6.1 7.6-6-.8 0-3.3.9-5.6 1.9zM38 113.5c-.7.8-.9 2.2-.6 3.1.5 1.3 1.7 1.5 6.1 1.1 3.1-.3 6.7-1.2 8.1-2.2 1.4-.9 3.2-1.4 4-1.1.8.3 1.4.1 1.4-.3 0-1.5-2.8-2-3.9-.7-1.6 1.9-12.1 4-13.4 2.7-.7-.7-.6-1.5.3-2.6.7-.8.8-1.5.2-1.5-.5 0-1.5.7-2.2 1.5zM45 122.5c.7.8 2 1.5 2.8 1.5 1.3 0 1.2-.3-.4-1.5-2.5-1.9-4-1.9-2.4 0zM61 128.1c-4.7 2-8.4 4.2-8.3 4.7.1.5.5 2.9.8 5.4.8 5.8 2.9 12.9 3.8 12.9.4-.1 1.5-.1 2.6-.1 1 0 3.2-1.4 4.9-3 1.8-1.7 3.6-3 4.2-3 1.7 0 4.2 4.8 3.8 7.7-.3 2.4-.7 2.8-3.5 2.8-1.7 0-2.9.3-2.6.7.6 1 4.5 1 6.1-.1 2.9-1.8.7-10.5-3-11.6-1.9-.7-6.8 1.8-6.8 3.4 0 .5-1.3 1.4-3 2-2.8.9-3 .9-3-1.7 0-1.5-.7-5.2-1.5-8.2-.8-3-1.5-5.8-1.5-6.3 0-.4 2.6-2 5.8-3.5 9.1-4.4 9.1-4.4 10.4-1.7 1.5 3.4 3 3.2 1.6-.3-.7-1.5-1.4-3-1.7-3.3-.3-.3-4.4 1.1-9.1 3.2zM66 134.2c0 .4.4.8.9.8.6 0 1.2-.4 1.5-.8.3-.5-.1-.9-.9-.9s-1.5.4-1.5.9zM136 134.5c-.7.9-.8 1.5-.2 1.5.6 0 .9 2.5.6 6.5-.2 3.8.1 6.5.6 6.5.6 0 1-3.5 1-8 0-4.4-.2-8-.4-8s-.9.7-1.6 1.5zM62.3 135.2c-1.8.9-2.1 1.6-1.6 3.7.8 3.5 1 3.6 3 2 4.5-3.8 12.9-1.4 15.7 4.5 2.6 5.5 2.1 9.3-1.7 13.1-5.3 5.3-11.4 5.8-15.7 1.5-2.4-2.4-3.1-2.5-2.3-.5 1.5 4.1 10.9 5.8 16.3 3 8.9-4.6 7.8-19.5-1.7-24.1-3.5-1.6-4.1-1.6-8-.2-3.6 1.3-4.3 1.3-4.8.1-.3-.9.3-1.7 1.5-2 1.1-.3 2-.9 2-1.4 0-1.1.1-1.1-2.7.3zM29.3 143c1.1 2.7 2.3 4.8 2.5 4.5.6-.6-3.1-9.5-4-9.5-.3 0 .3 2.2 1.5 5zM26 141.9c0 .6.4 1.3 1 1.6.6.3.7-.1.4-.9-.7-1.8-1.4-2.1-1.4-.7zM33.7 148.4c-.3.8.1 1.7.9 2 .8.3 1.4 1.2 1.4 2 0 .9.9 3 2.1 4.8 1.2 1.8 1.8 2.4 1.4 1.3-.4-1.1-1.2-3.4-1.8-5-.5-1.7-1.6-3.8-2.2-4.8-1-1.5-1.3-1.5-1.8-.3zM81 162c-.8.5-1.2 1.2-.8 1.5.9.9 7.8-.5 7.8-1.6 0-1.2-5.1-1.1-7 .1zM75.1 167.6c-2 3.6-3.6 5.1-7.5 6.9-5 2.3-5.1 2.3-1.3 1.8 2-.3 3.7-.2 3.7.3s-1.8 3.3-4 6.2c-2.2 2.9-4 5.6-4 6.1s-.3 1.1-.8 1.3c-1 .4-7.2 9.9-7.2 11 0 .5 1.6-.3 3.5-1.8 1.9-1.4 3.5-3.3 3.5-4.1 0-.7 1.2-2.6 2.6-4.1 2.2-2.4 6.5-9.4 7-11.5.1-.4.2-.8.4-1 .1-.1.3-1 .5-2 .2-.9 1.9-4.2 3.9-7.1 3.7-5.6 4.1-6.6 2.8-6.6-.4 0-1.8 2.1-3.1 4.6zM103.2 168.2c.2 1.3-.3 2.8-1.1 3.4-1.1.9-1.2 1.2-.1 1.9.9.5 1.1.4.6-.3-.5-.9.3-1.1 2.7-1 1.9.2 3.4.5 3.2.8-.6.9 2 3.5 3.4 3.5.8 0 1.6.6 1.9 1.4.3 1-.4 1.2-3.1.9-3.6-.4-4.2.6-.9 1.4 2.8.8 6.3-.9 5.6-2.7-.7-1.8.7-2 2.4-.3.9.9 1.3.7 1.8-.6.4-1.1 0-2.4-1.2-3.4-1.7-1.6-1.7-1.6-.5.1 1.9 2.4.5 3.5-1.5 1.1-.8-1-1.3-1.3-.9-.7.4.8 0 1.3-.9 1.3s-1.6-.5-1.6-1.1c0-.6-.7-.8-1.6-.5-.8.3-1.3.2-1-.3.6-.9-2.2-2.6-3.8-2.2-1 .2-2.6-1.8-2.6-3.2 0-.5 1-.5 2.1-.2 1.5.5 1.9.4 1.5-.4-.4-.6-1.6-1.1-2.7-1.1-1.5 0-2 .6-1.7 2.2zM96.4 169.5c-.7 1.9.5 3.4 4.5 5.8 2.2 1.3 3.2 1.4 3.7.6.4-.7.3-.9-.3-.6-1.3.8-6.3-3-6.3-4.8 0-.9.7-1.1 2.2-.7 1.4.3 1.9.2 1.4-.6-1-1.7-4.6-1.5-5.2.3zM105.6 176.9c-.4.5.3.7 1.4.4 2.3-.6 2.6-1.3.6-1.3-.8 0-1.7.4-2 .9zM85.3 178c-3.4 1.4-6.5 6.9-5.8 10.5.3 1.6 1 3.4 1.6 4 .8.7.9.3.3-1.5-2.9-9 4.9-15 13.6-10.5 8.1 4.2 7.9 13.5-.4 17.1-2.6 1.1-2.7 1.3-.9 1.4 1.2 0 3.5-1.2 5.2-2.6 2.5-2.1 3.1-3.3 3.1-6.6 0-5.3-1.2-7.3-6.4-10.3-4.5-2.6-6.7-2.9-10.3-1.5zM126.5 182c-2.7 1.6-5.9 3.4-7 3.9-1.7.8-1.7 1-.3 1 2.1.1 14.8-6 14.8-7.1 0-1.4-2.4-.7-7.5 2.2zM169 182.7c-5.8 2.2-10.9 9.5-11 15.6 0 4 3.3 9.9 6.8 11.9 3.8 2.3 8.5 2.3 10.3.2 1.2-1.5 1.1-1.6-1.1-.9-8.5 2.8-15.1-3.9-13.6-13.7.9-5.5 2.1-7.6 5.9-9.8 8.9-5.5 19.7 1.2 19.7 12.1 0 9.5-5.7 22.6-11 25.4-7.8 4.1-17.4 0-18.7-7.9l-.6-3.9 3.6.6c2.2.3 3.7.2 3.7-.4 0-.6-1.7-.9-3.7-.7-3.6.3-3.8.5-4.1 3.9-.6 6.7 6.6 12.5 14.4 11.6 8.4-.9 13.2-6.5 16.4-19.3 2.3-8.7 2-13.2-1.1-18.3-2.9-4.8-11.2-8.1-15.9-6.4zM87 185.5c-.8.9-.8 1.5-.2 1.5 1.2 0 2.6-1.9 1.9-2.6-.2-.2-1 .2-1.7 1.1zM128.7 187.5c-1 2.1-1.6 4-1.3 4.2.7.7 3.8-5.6 3.4-6.8-.2-.6-1.1.6-2.1 2.6zM92.9 186.3c.7.7 1.4.8 2.1.1.6-.6.2-1-1.2-1.1-1.6-.2-1.8.1-.9 1zM185.8 185.7c.7.3 1.6.2 1.9-.1.4-.3-.2-.6-1.3-.5-1.1 0-1.4.3-.6.6zM121.2 189.1c-.9 1.2-2.4 2.9-3.4 3.7-.9.8-1.4 2.1-1.1 2.8.3.8-.7 2.8-2.1 4.5-1.4 1.7-2.6 3.6-2.5 4.2 0 .7.6.3 1.2-.7.7-1.1 2-2.8 3-3.8.9-1 1.7-2.3 1.7-2.9 0-2.1 4.2-8.1 6.4-8.9 1.7-.7 1.8-.9.3-.9-.9-.1-2.5.9-3.5 2zM85 188.7c.1 2.8 4.7 5.4 7.5 4.2 1.9-.9 1.9-.9-.1-.6-2.7.5-5.4-.9-5.4-2.8 0-.8-.4-1.5-1-1.5-.5 0-1 .3-1 .7zM94 189.4c0 .8.4 1.7.9 2 .5.4.7-.3.4-1.4-.6-2.3-1.3-2.6-1.3-.6zM171.3 188.7c.9.2 2.5.2 3.5 0 .9-.3.1-.5-1.8-.5-1.9 0-2.7.2-1.7.5zM75.2 193c-4 2.4-6.6 8-5.7 12.1.9 3.9 5.8 8.6 10.4 10 8 2.4 15.5-3.4 14.9-11.5-.1-2-.6-3.6-1-3.6-.5 0-.6 1.1-.2 2.4.8 3.5-2.2 9.2-5.7 10.6-4.7 2-9.9.6-13.8-3.6-2.9-3.2-3.3-4.1-2.8-7.6.5-4.1 4-8.8 6.4-8.8.7 0 1.3-.5 1.3-1 0-1.3 0-1.3-3.8 1zM121.1 193.1c-.7 1.2-1 2.3-.8 2.6.3.3 1.1-.5 1.7-1.7 1.5-2.8.8-3.5-.9-.9zM168.4 194.5c-.7 1.9-1.4 4.3-1.4 5.3 0 3.7 5.9 6.8 7.6 4 .4-.7.3-.8-.5-.4-1.7 1.1-4.9-.2-5.5-2.2-.7-2.2 1-8.3 2.6-9.4 1-.6 1-.8 0-.8-.7 0-2 1.6-2.8 3.5zM173.4 192.2c-.5.7-.3.8.6.3 1.6-1 3 1.2 3 5 0 2.3-.3 2.7-1 1.5-1.1-1.8-1.2-.3-.1 2.5.7 1.7.9 1.6 1.5-1.3 1.4-6.1-1.6-12-4-8zM179.3 197c0 5.8.1 6.1 1 3.2.6-2 .6-4.4 0-6.5-.8-2.8-.9-2.5-1 3.3zM165.3 195.5c-.3.9-.3 1.8-.1 2.1.3.3.8-.4 1.1-1.6.6-2.3-.1-2.7-1-.5zM88.8 195.7c.6.2 1.8.2 2.5 0 .6-.3.1-.5-1.3-.5-1.4 0-1.9.2-1.2.5zM171 196c0 .5.5 1 1.1 1 .5 0 .7-.5.4-1-.3-.6-.8-1-1.1-1-.2 0-.4.4-.4 1zM79.6 198.6c-.9.8-2.1 1.2-2.8.8-.9-.5-.8-.2.1.9 1.3 1.6 1.5 1.6 2.8-.3 1.9-2.6 4.8-2.5 6.7.2 1.1 1.6 1.6 1.8 1.6.7 0-3.7-5.5-5.3-8.4-2.3zM164 199.5c0 1.7 4.1 7.8 4.8 7.1.3-.4.2-1-.4-1.4-.6-.4-1.8-2.1-2.7-3.7-.9-1.7-1.6-2.6-1.7-2zM171 200.6c0 .8.5 1.2 1 .9.6-.4.8-1.1.5-1.6-.9-1.4-1.5-1.1-1.5.7zM115 204c-3 5.9-2.4 7.1 1 1.8 3.3-5.2 3.5-5.8 2-5.8-.5 0-1.9 1.8-3 4zM86.1 205.3c-1.3 2.1-1.2 2.1.5.5 1-1 1.6-2 1.3-2.2-.3-.3-1.1.5-1.8 1.7zM65 210.4c0 .6 9.8 7.6 10.6 7.6.4 0 3.4 2.2 6.8 4.8 8.4 6.6 9.8 7.2 5.1 2.3-2.1-2.2-4.4-4.1-5-4.1-.6 0-2.9-1.6-5.1-3.6-4.6-4.2-12.4-8.6-12.4-7zM164.1 214.7c-.2 3.3 3.4 4.9 6.5 2.8 1.3-.8 2.4-2 2.4-2.5 0-.6-.9-.1-2 1-2.9 2.9-5.3 2.3-6.3-1.5-.4-1.8-.5-1.8-.6.2zM161.6 215.5c.4.8.8 1.5 1 1.5.2 0 .4-.7.4-1.5s-.4-1.5-1-1.5c-.5 0-.7.7-.4 1.5zM167 215c0 .5.5 1 1 1 .6 0 1-.5 1-1 0-.6-.4-1-1-1-.5 0-1 .4-1 1zM164.7 220.2c.6 1.1 7.1 1 7.7-.1.3-.5-1.4-.8-3.8-.7-2.4 0-4.2.4-3.9.8zM121.4 223.5c-1.6 4 5.4 9.2 13.4 10.2 5.9.7 7.9-1 6.1-5.1-1.6-3.5-5.9-6.3-7-4.5-.4.7-.3 2.1.2 3.2 1.8 3.2.3 5-3.3 4.3-4.4-.9-8.1-4.5-7.5-7.3.5-2.6-1-3.1-1.9-.8zm17 3.4c2.6 2.8 1.7 5.5-1.9 5.9-1.7.1-2.5-.1-1.9-.5 2-1.5 2.3-5.2.6-6.3-1.5-.8-1.5-.9-.1-1 .9 0 2.4.9 3.3 1.9zM144.5 226.1c-.4.6-.3 1.4.1 1.8.5.3 1.8 2.6 2.9 5 1.9 4.3 1.9 4.3 5.9 3.6 2.3-.3 4.9-.6 5.9-.6.9 0 1.7-.4 1.7-.9 0-1.3-2.1-2.4-2.9-1.4-.3.5-1.3 1-2.1 1-.8.1-2.4.3-3.5.5-1.4.3-2.4-.6-3.8-3.6-1.1-2.2-2.4-4.3-3.1-4.7-.7-.5-.3-.8.9-.8 1.4 0 2.6 1.3 3.9 4.3 1 2.3 2 3.6 2.3 2.9 1.4-3.6-6.3-10.3-8.2-7.1zM126.7 227.4c-.3.8-.2 1.8.4 2.2 1.6.9 2.2-.2 1.1-2.1-.8-1.5-1-1.6-1.5-.1zM193.9 114c2.4 6.7 5.2 11.8 7.7 14.5 1.6 1.6 2.9 3.4 2.9 4.1 0 .6 1.6 2.6 3.5 4.4 3.3 3.1 3.4 3.3 1.5 4.1-2 .9-2 .9 0 .6 2.8-.4 2.2-3-2.1-9.3-1.9-2.8-3.4-5.6-3.4-6.2 0-.6-1.1-1.9-2.4-2.7-1.4-.9-2.9-2.8-3.5-4.3-.5-1.5-1.9-3.8-3.1-5.2l-2-2.5.9 2.5zM172.1 118c-4.6 2.7-8.8 5.3-9.3 5.8-1.1 1.1 1.6 7.2 3.2 7.2s6.4-2.4 8.5-4.3c2-1.8 2-1.8 2.6 6.5.8 9.6 2.1 14.5 4.9 18.1 2 2.5 2.1 2.5 5 .9 1.7-.9 3-2 3-2.4 0-.4-1-3.1-2.2-6-1.8-4.3-2.2-7.5-2.3-16.9-.1-6.4-.5-12.1-.9-12.8-1.3-2-3.9-1.2-12.5 3.9zm11.5-1.4c.4 1.4.4 4.5.1 6.8-.8 5.4.8 15.7 3.2 21.2l1.8 4-2.8 1.7c-1.6.8-3 1.3-3.3.9-1.8-3.3-4-14.1-4-20.8l-.1-8.1-6.2 3.8-6.3 3.9-1.4-2.7-1.4-2.8 9.2-5.1c5-2.9 9.4-5.2 9.8-5.3.4-.1 1.1 1.1 1.4 2.5zM189.1 140.6c0 1.1.3 1.4.6.6.3-.7.2-1.6-.1-1.9-.3-.4-.6.2-.5 1.3zM176.2 144c0 1.4.2 1.9.5 1.2.2-.6.2-1.8 0-2.5-.3-.6-.5-.1-.5 1.3zM161.6 164.6c-.9.8-1.6 1.8-1.6 2 0 1.7 2.4 4.6 4.8 5.7 3.8 1.9 13.4 4 15.8 3.5 1.1-.3-.4-.9-3.7-1.7-4.5-.9-5.8-1.7-6.3-3.4-.4-1.8-.8-1.9-1.8-.9-1 1-1 1.5.2 2.2 1.3.8 1.3 1-.1 1-2.2 0-6.9-3.8-6.9-5.5 0-.8 1-2.1 2.2-2.9 1.8-1.3 1.9-1.6.6-1.6-.9 0-2.4.7-3.2 1.6zM170.4 167.8c.3.5 2.5 1.3 5 1.6 2.7.4 5.2 1.6 6.6 3.1 1.6 1.7 3.1 2.3 4.7 2.1 1.2-.3 2.3 0 2.3.5s-1.2.9-2.7.9c-3.3 0-2.8.5 1.3 1.3 2.7.5 3.1.3 3-1.5-.1-1.1-1.2-2.8-2.6-3.7-1.3-.9-2.1-1.1-1.7-.4.4.6.3 1.4-.3 1.8-.5.3-1 .1-1-.4 0-.6-.8-1.1-1.7-1.2-1.5 0-1.5-.2.2-.8 2-.8 2-.8 0-1.4-1.1-.4-3.8-.9-6-1.2-2.2-.4-4.8-.9-5.9-1.2-1.1-.3-1.6-.1-1.2.5zM201.5 180c-.3.5-.1 1 .4 1 .6 0 1.1-.5 1.1-1 0-.6-.2-1-.4-1-.3 0-.8.4-1.1 1zM114 123.9c-1.4 2.7-1.2 7.2.4 9.3 3 4 8.6.5 8.6-5.3 0-5-6.8-8-9-4zm6.8 3.4c.3 2.8-1.2 5.7-2.9 5.7-1.9 0-3.2-4.6-1.9-6.9 1.6-3 4.4-2.3 4.8 1.2zM142.2 182.4c-1.3 3.3-2.2 6.9-2 8 .3 2.1.4 2 1.6-.2.7-1.3 1.4-3.3 1.6-4.5.1-1.2.6-3 1-3.9.4-.9.6-2.5.4-3.5-.3-1.1-1.2.4-2.6 4.1zM107.6 248.1c-2 5-3.6 9.8-3.4 10.7.2.8 2-3.1 4.1-8.8 2.1-5.6 3.6-10.4 3.4-10.7-.3-.2-2.1 3.7-4.1 8.8zM117.6 2.1c2.1 2.4 3.1 2.4 4.3.1.8-1.6.5-1.8-2.5-1.9-3.4-.1-3.5 0-1.8 1.8zM126.8 243.4c-.9 1.3-3.8 3.2-6.3 4.2-2.8 1.2-4.5 2.5-4.5 3.6 0 .9-.3 2.4-.7 3.4-.4 1.2-.2 1.5.8 1.2.7-.2 1.6-1.5 1.9-2.9.3-1.4 1.9-3 3.5-3.8 1.7-.7 4.2-2.5 5.7-3.8 1.8-1.8 3.2-2.3 4.7-1.8 1.2.4 2.1.2 2.1-.4 0-.6-.6-1.1-1.4-1.1-.8 0-2-.2-2.8-.5-.7-.2-2.1.6-3 1.9zM134.7 244.7c-.7 1.1-8.7 33.5-8.6 34.8.1 2.2 2.3-4.7 6-19.4 3.4-13.9 4.1-17.9 2.6-15.4zM144.4 247.4c-4.2 1.8-8.8 11.5-10.4 21.4-2 12.5 2 19 11.2 18.3 3.7-.2 7.8-5.5 10.3-13 5.1-15 4.1-23.7-2.9-26.6-4.2-1.8-4.3-1.8-8.2-.1zm10.3 3.2c2.4 2.4 2.5 3 2.1 10.2-.6 8.9-3.9 18.5-7.6 21.9-3 2.8-8.1 3-11.2.5-5.5-4.5-2.4-25.1 5-33 3-3.1 8.3-3 11.7.4zM146.2 254.3c-2.7 3.6-6.1 18-5.2 21.7.8 3.5 4 3.2 6.1-.5 2.3-3.9 3.3-8.6 3.4-15.9 0-4.8-.3-5.9-1.7-6.2-.9-.1-2.1.3-2.6.9zm1 16.7c-1.2 3.5-2.5 5.6-3.7 5.8-1.6.4-1.7-.1-1.1-4.5.8-5.8 3.4-14.2 5-16.2 2-2.6 1.9 8.8-.2 14.9zM124.1 254.1c-1.2 2.7-6.1 23.3-6.1 25.4 0 1.6 5.1 2.7 6.4 1.4.6-.6.5-.9-.5-.9-4-.1-4-1.3-.9-14.5 2.9-12.1 3.3-16.7 1.1-11.4zM119.5 256c-.3.5-.2 1 .4 1 .5 0 1.3-.5 1.6-1 .3-.6.2-1-.4-1-.5 0-1.3.4-1.6 1zM153.5 297c-.3.5-.1 1 .4 1 .6 0 1.1-.5 1.1-1 0-.6-.2-1-.4-1-.3 0-.8.4-1.1 1z"/></g></svg>