<svg version="1" xmlns="http://www.w3.org/2000/svg" viewBox="0 0 300 212"><g fill="#dbdbdb"><path d="M6.7 3.25c2.65 1.8 6.15 3.9 7.65 4.7 3.25 1.7 3.25 6.6.05 10.2-.95 1-1.55 2-1.3 2.1.2.15 2.2 1.65 4.4 3.35 7.8 6.05 32.35 6.7 27.4.75-.65-.75-1.6-1.35-2.2-1.35-5.75 0-22.7-11.5-22.7-15.4 0-3.6-7.05-7.6-13.45-7.6h-4.75l4.9 3.25zM63 .75c0 1 6.65 4.6 8.25 4.5.7-.1 2.85-.55 4.85-1.05 2.4-.6 5.55-.5 9.5.3 10.55 2.15 24.1 1.9 25.35-.4 2.15-4.05 1.85-4.1-23.45-4.1-13.45 0-24.5.35-24.5.75zM114.4.7c.35.4 3.35.6 6.65.5 5.5-.25 6.05-.05 7.1 2.25 1.05 2.35 2.05 3 4.1 2.65.4-.05 5 2.15 10.2 4.95 12.65 6.7 18.5 8 28.75 6.4 4.55-.7 21.8 6.35 23.95 9.75.3.55 1.5.75 2.6.4 2.65-.85 3.6.5 7.1 9.95 2.7 7.45 10.5 26.8 13.7 34.2 1.5 3.45.4 8.95-1.55 7.75-.6-.35-.95-.05-.75.7.15.75-.45 1.2-1.5 1-1-.15-2.05.4-2.35 1.25-.35.85-1.05 1.55-1.55 1.55-.55 0-.7-.45-.35-1 1.35-2.2-4.75-.85-7.15 1.55-1.85 1.85-3.1 2.35-4.7 1.85-1.8-.6-1.95-.45-.9.8 1.1 1.3.5 1.55-4.55 1.6-3.2.05-6.25.15-6.75.25-2.1.4-3.45-.1-3.45-1.35 0-.7-.9-3.05-2-5.2-1.1-2.15-2-4.3-2-4.75 0-.5-1.1-3.2-2.45-6.05-1.3-2.85-4.3-10.15-6.55-16.2-2.3-6.05-4.65-11.55-5.15-12.2-1.6-1.9-.25-3.05 6.25-5.4 3.85-1.4 5.55-2.5 4.75-3-.7-.4-1.65-.5-2.2-.2-.5.3-.7-.05-.45-.8.35-.95 2.1-1.4 5.4-1.4 7.9 0 10.85-4.95 4.4-7.4l-5.95-2.2c-1.6-.6-3.5-.7-4.25-.3-.7.45-4.65 2-8.8 3.35-4.85 1.65-7.5 3.1-7.5 4.05 0 2.1 3.2 2.45 6 .6 5.15-3.4 7.6-1.9 5.05 3-1.15 2.2-1.2 3-.25 3.6.75.5.3.8-1.3.85-1.35.05-3.75.25-5.25.45-1.55.2-2.6.05-2.35-.3.2-.4-.8-.8-2.25-.9-3.3-.25-14.15-5.1-14.15-6.35 0-1.7-4.65-1-7.25 1.05-1.4 1.1-3.55 2-4.7 2-3.05 0-6.05 1.8-6.05 3.6 0 .85.45 1.25.95.95 1.5-.95 3.45 3.65 3.15 7.45-.15 1.9-.8 3.85-1.45 4.25-.85.55-.85.7.05.75.75 0 1 .7.6 1.6-.55 1.45-.3 1.45 1.8.35 1.3-.7 1.9-1.45 1.3-1.65-1.25-.4-.65-5 .7-5.85 1.45-.9 1.05-2.2-1.5-4.8-3.1-3.1-1.75-4.65 4-4.65 3.85 0 8.2 1.45 17 5.6 2.3 1.1 3.75 1.2 5.8.45 4.4-1.7 5.6-1.25 7.2 2.55 1.8 4.25 1.25 6.4-1.5 6.4s-3.5 1.65-1.1 2.3c1.4.35 2.4-.15 3.15-1.55 1.45-2.7 3.3.1 2.35 3.5-.5 1.75-.4 1.95.4.75 1.05-1.5 1.5-.3 1.35 3.75 0 .65.35 1 .8.75 1.15-.75 3.1 5.85 2.4 8.1-.45 1.3-.35 1.5.3.6.65-.95 1.25-.55 2.15 1.5 1.6 3.45 9.1 23.15 9.1 23.8 0 .95-3.9.5-4.5-.5-.35-.55-1.1-1-1.7-1-.65 0-.55.55.2 1.5 1.1 1.3 1 1.45-.45.85-1.55-.55-1.65-.4-.6 1.55 1.15 2.2 1.15 2.2-1.3.6-1.9-1.25-2.55-1.3-2.9-.3-.35 1-.95.9-2.45-.45-2.6-2.3-4.2-2.2-4.05.25.15 1.95 1.75 2.9 1.75 1.05 0-.55.7-.75 1.5-.4 1.7.65 2.05 4.35.45 4.35-.6 0-.75-.55-.35-1.15.5-.8.2-1-.8-.6-.85.35-2 .15-2.5-.35-1.1-1.1-4.3-.15-4.3 1.25 0 .55-.5.65-1.15.25-.75-.45-.9-.25-.45.45.4.65 1.15.9 1.65.6.55-.3.95.15.95 1 0 1.9-1.05 1.95-3.5.2-1-.75-2.55-1.2-3.4-.95-.9.2-2.5-.3-3.6-1.1-1.2-.95-1.5-1.55-.7-1.55 1.5-.05.6-2.05-.9-2.05-.55 0-.7.55-.3 1.15.5.85.15 1-1.2.5-1.65-.55-1.7-.5-.3.6 1.8 1.45 2.1 4.9.5 6-.75.5-.75.7.1.75.65 0 1.45-.45 1.8-1 .35-.6 1.3-.5 2.55.25 2.55 1.6 2.5 2.7-.05 2.05-2.15-.55-2.8 1.2-.75 2.05.8.3.65.5-.4.55-.85.05-2.2-.6-2.9-1.45-.7-.85-1.8-1.35-2.5-1.05-.75.3-1.7-1.2-2.45-3.95-.7-2.45-1.65-4.45-2.15-4.45-1.65 0-.8-2 .9-2.1 1.05-.05 1.25-.25.5-.55-.7-.3-1.25-1.3-1.25-2.3 0-1.75-3-5.15-3-3.4-.05 1-1.95-1.8-2-2.9 0-.4 1.7.2 3.75 1.3l3.75 2-3-2.5c-1.65-1.4-2.4-2.55-1.65-2.55 1.15 0 1.15-.3.15-1.5-1.05-1.25-.9-1.5.65-1.5 1.55-.05 1.6-.2.35-1-2.05-1.35-3.25-1.25-2.4.15.5.8.2 1-.95.55-2.15-.85-2.1.2.1 2 1.3 1.05 1.35 1.35.25 1.05-1.8-.5-4.35-5.1-3.05-5.55.55-.2.7-.95.4-1.75-.3-.8-.95-1.2-1.4-.9-.45.25-1.55-1.85-2.4-4.7-1.8-6.05-1.8-6.15-.75-5.5.4.3.75-.35.75-1.35 0-1.35-.3-1.6-1.2-.9-.85.75-1.5.45-2.3-.95-.75-1.45-.75-2.2 0-2.7.6-.35.85-1.3.55-2.1-.4-.95-.15-1.2.6-.75.75.5.95.2.5-.95-.65-1.65.6-2.15 4.65-1.8 1.3.1 1.7-.3 1.3-1.35-.6-1.5.8-2 4.55-1.7 1.15.1 1.55-.35 1.15-1.3-.7-1.9-.95-1.85-5.85.5-2.2 1.05-4.5 1.95-5.1 1.95-1.8.05-4.65 3.85-3.9 5.25.35.7-.25.15-1.4-1.2-2.35-2.85-2.6-4-1-4 .75 0 .8-.4.2-1.25-.55-.7-.85-3.1-.65-5.35.15-2.25-.3-4.9-1-5.85-1.1-1.5-1.3-1.15-1.5 2.85-.15 2.7.2 4.6.8 4.6.6 0 1.05.5 1.05 1.05 0 .6-.45.8-1.05.45-.65-.4-.85.3-.55 1.9.25 1.45.1 2.6-.3 2.6-1.9 0-13.15-4.35-19.8-7.65-7.1-3.5-12.3-4.05-12.3-1.25 0 .55.45.75 1 .4s1-.05 1 .7c0 .85-1.55 1.35-4.5 1.5-4.4.2-6.6-1.1-2.4-1.45 2.15-.15 3.6-.95 2.8-1.55-.9-.75-9.9.55-9.9 1.4 0 .5.7.9 1.5.9.85 0 1.5.7 1.5 1.55 0 .85-.55 1.4-1.25 1.25-1.45-.3-7.15 5.1-6.3 5.95 1 1.05-2.7 4.3-3.85 3.35-2.3-1.8-10.6-2.35-10.6-.65 0 1.95.55 2-12.5-.95-12.8-2.9-13.5-2.95-13.5-1.05 0 1.75.75 1.95 14.35 4.6 10.6 2 14.4 2 13.15-.05-.85-1.35 4.1-1.3 6.75.1 2 1.1 1.95 1.2-1.2 2.5-2.2.95-3.1 1.85-2.7 2.9.35.85-.55 2.5-2.1 4-1.9 1.7-2.25 2.5-1.2 2.5 2.35 0 6.15-3.05 5.6-4.5-.3-.75 1.25-2.45 3.65-4.05 2.3-1.5 4.55-3.35 5-4.1.45-.75 1.45-1.35 2.25-1.35.85 0 1.95-1.2 2.5-2.6 1-2.7 2.55-2.85 7.35-.85 1.45.6 1.75.45 1.15-.5-.85-1.3.95-3 3.2-3.05 1.9 0 1.5 2.7-.5 3.5-2.25.9 10.05 4.5 12.9 3.75 1.1-.3 2.95 0 4.2.65 1.8 1 3.15.75 8.05-1.4 7.7-3.4 13.05-.7 11.05 5.6-.4 1.3-.1 1.9 1 1.9.85 0 1.55.45 1.55 1s-.35.95-.75.9c-3.4-.55-5.95 1.55-4.3 3.55 1.05 1.25 1.1 1.9.2 2.8-1.4 1.4-1.55 5.75-.15 5.75.55 0 1-1.1 1-2.45 0-1.3.6-3 1.35-3.75.75-.75 1.2-2.1 1.1-3.05-.45-2.9 2.45-1.95 3.2 1 .4 1.5 1.55 4.7 2.6 7.1 1.05 2.35 1.65 4.6 1.35 4.9-.35.3 0 1.3.8 2.15 1.3 1.5 8.7 20.7 10.1 26.1.5 2.15.4 2.3-.7 1-1.6-1.85-3.8-2.4-3.8-.95 0 .6-.8.3-1.75-.65-1.65-1.65-1.75-1.65-2.1 0-.15.95-.85 1.55-1.5 1.3-.65-.2-2.1.65-3.3 1.9-1.15 1.25-2.45 2-2.8 1.6-.35-.35-.35.15 0 1.1.35.95.2 1.7-.35 1.7-1.05 0-2.2-2.3-2.2-4.55 0-.8.6-1.15 1.45-.85 1 .4 1.25 0 .9-1.4-.3-1.1.25-3.5 1.2-5.35 1.85-3.75 1.15-3.15-2.85 2.35-1.5 2-2.7 4.15-2.7 4.75 0 .55-.5 1.05-1.1 1.05-.85 0-.85.35 0 1.35 1.05 1.3-2.2 4.65-4.5 4.65-.4 0-1.2.75-1.9 1.65-1.1 1.5-1.25 1.5-1.85-.05-.35-1-.2-1.45.35-1.1.55.35.7-.05.4-.95-.35-.85-.05-2.25.65-3.1 1-1.25 1-1.75-.05-2.75-1-.95-1.15-.95-.6.05.45.8.1 1.25-.9 1.25-1.2 0-1.45.55-.95 2.15.55 1.75.35 2.05-1.05 1.5-2.9-1.1-4.9 1.25-2.95 3.4 1.05 1.15 1.2 1.95.5 2.4-.55.35-1.05.1-1.1-.65 0-.85-.5-.65-1.4.55-.8 1-1.15 2.5-.85 3.25.25.75.05 1.4-.5 1.4-.5 0-1.2-.8-1.5-1.75-.85-2.65-7.65-20.45-8.7-22.75-.5-1.1-2.55-6.3-4.55-11.5-4.1-10.85-4.4-11.55-7.85-19-1.4-3.05-2.55-4.9-2.55-4.15-.05.8-.7 1.1-1.6.75-1-.35-1.3-.15-.85.55.4.65.15.9-.7.6-.75-.25-1.35-1.2-1.25-2.1.15-2.2-.1-2.1-3.1.9-1.7 1.7-3.2 2.35-4.45 2-1.4-.45-2 0-2.45 1.8-.8 3-4.45 4.15-6.75 2.05-.95-.85-6.15-2.65-11.55-4.05-11.05-2.85-10.6-2.75-18.85-3.8-14.2-1.75-21.55-4.15-18.5-6.05 1.7-1.05 1.1-2.5-1-2.5-1.1 0-2.9.55-3.95 1.2-1.1.7-2.2.95-2.55.65-1.1-1.1.75-3.85 2.55-3.85 1 0 2.1-.45 2.45-1 .9-1.5 2.5-1.2 2.5.45 0 .8.4 1.7.9 2 1.4.85 11.1-4.35 11.1-5.95 0-.75 1.35-2.2 2.95-3.15 7.6-4.45 4.15-5.5-4.6-1.35-3.5 1.65-6.8 3-7.35 3-.55 0-1.8.4-2.75.9-.95.45-3.9 1.85-6.5 3.05-4.45 2.05-4.75 2.45-4.65 5.85 0 2.05.3 3.15.55 2.45 1.05-2.6 7.35-1.05 7.35 1.8 0 2.2-.95 2.9-4.35 3.15-1.75.15-2.65.95-2.95 2.6-.45 2.3-.35 2.35 4.15 1.65 2.55-.4 12.1-.7 21.15-.55 18.55.2 19 .35 19 7.3 0 5.35 1.5 5.55 11.2 1.5 11.65-4.95 21.5-8.7 22.55-8.7 1.95 0 4.05 3.9 8.6 16 2.6 6.85 5.15 13.4 5.65 14.5 6.9 15.4 11.8 30.7 8.9 27.8-1.4-1.4-5.15-.4-4.55 1.2.35.85-.5 1.1-2.7.8-5.25-.65-15.85 1.7-15.2 3.4.3.8.1 1.15-.5.75-.55-.35-1.65-.15-2.35.45-.7.6-3.25 1.2-5.65 1.25-3.5.15-11 2.6-8.95 2.9.3.05 1.8.25 3.35.45 3.85.5 4.4 1.25 2.1 2.95-1.5 1.05-2.25 1.1-3.4.2-1.15-.95-1.3-.8-.75.7.5 1.2.3 1.7-.55 1.45-1.7-.55-5-7.7-15.25-33.3-10.05-25.15-10.3-25.5-13.95-23.15-2.6 1.75-3.3 4.05-1.55 5.15 2.1 1.3.85 3.25-3 4.75-4.9 1.95-5.05 3.25-.5 4.75 2.3.75 3.65 1.9 3.9 3.35.25 1.15 1.2 6.8 2.1 12.5 2.7 16.65 4.8 21.5 12.9 29.9 5 5.15 4.6 5.15 14.8.3 4.55-2.15 20.45-9.3 35.3-15.9 27.2-12.05 62.8-28.05 96-43.1 9.9-4.5 23.65-10.7 30.5-13.75 6.9-3.05 15.75-7.05 19.7-8.9 3.95-1.85 8.35-3.6 9.7-3.95 5.6-1.45 3.8-10.7-6.45-33.25-1.05-2.35-1.95-4.65-1.95-5.2 0-2.75-7.25-15.85-8.5-15.35-.75.3-1.1 1.2-.8 2 .45 1.2-.35 1.35-4.8.85-3.85-.45-4.95-.35-3.8.4.85.55 3.3 1.2 5.45 1.4 3.2.35 4 .85 4.6 3.15.4 1.5 1.5 3.6 2.45 4.65 1.8 1.95.85 2.5-3.35 1.95-2.6-.3-1.05 1.55 2.8 3.4 3.9 1.85 3.95 1.95 1.9 3.05-2.1 1.15-2.05 1.2 1.1 2.5 2.65 1.1 2.95 1.55 1.7 2.45-1.6 1.2-.7 2.6 2.5 3.8 1.9.75 2.4 2.75.65 2.75-.6 0-.9.55-.65 1.25s.9 1.25 1.5 1.25c1.6 0 1.9.6 2.7 4.95.65 3.5.55 3.8-.85 2.6-.9-.7-1.6-1.85-1.6-2.55 0-2.7-3.75-6.2-4.55-4.2-.45 1.1-.05 2.5 1.05 3.7 1.05 1.2 1.8 3.7 1.85 6.7l.15 4.8h-3.75c-3.15 0-3.65.3-3.15 1.85.5 1.5.2 1.7-1.4 1.2-1.15-.35-2.3-.2-2.6.3-.35.55-2.2.95-4.1.95-1.95 0-4.2.55-5.05 1.2-.8.7-1.45.85-1.5.35 0-.45-.5 0-1.1 1-1.4 2.45-3.25-.05-4.3-5.85-.4-2.2-1.3-4.9-2-6-.7-1.1-3.85-8.55-7-16.5-3.1-7.95-6.55-15.9-7.6-17.6-2.45-3.95-2.45-4.15.3-4.75 1.35-.3.85-.45-1.25-.4-3.35.1-8.15-1.5-14.35-4.75-1.55-.85-4.25-1.5-6-1.5-2.1 0-3.6-.7-4.4-2-.7-1.1-2.15-2-3.2-2-1.1 0-7.1-2-13.35-4.4-6.25-2.4-12.9-4.6-14.85-4.85-1.9-.25-4.45-1-5.6-1.6-2.3-1.25-27.1-1.65-25.85-.45zm65.1 26.8c0 1.25-.75 2.1-2 2.25-2.85.35-4.9-1.25-4.15-3.2.95-2.5 6.15-1.7 6.15.95zm-23.5 78c4.3 3.2 3.4 3.2-2.15 0-2.4-1.35-3.65-2.5-2.8-2.5.85 0 3.1 1.1 4.95 2.5zm-110 20.75c1.3 2.9 2.6 5.45 2.9 5.75 1.35 1.15 3.1 5.1 3.1 7 0 1.1.35 2 .75 2 1.3 0 3.1 7 1.95 7.7-1.65 1-12.7-22.3-12.7-26.85 0-2.35 1.9-.25 4 4.4zM165 .95c0 2.4 10.85 7.15 14.25 6.25.45-.1 2.6-.3 4.75-.35 7.35-.3 9.75-6.85 2.55-6.85-2.85 0-3.55.4-3.55 1.95 0 3.25-9.15 2.7-11.3-.7-.9-1.45-6.7-1.75-6.7-.3zM195 1c0 .55 2.25 1 5.05 1 2.75 0 6.65.65 8.6 1.5 4.95 2.05 7.35 1.95 7.35-.4 0-1.05-.7-2.15-1.6-2.5-2.65-1-19.4-.7-19.4.4zM258 1.15c0 3.85-5.5 5.6-9 2.85-3.25-2.55-3.7-2.5-10.2.75-3.7 1.85-5.3 3.25-5 4.25.25.9-.15.7-1.05-.45-1.45-1.85-1.65-1.85-4.05-.25-2.3 1.5-7.05 2.1-13.2 1.65-5.15-.4-18.05 3.45-18.9 5.6-1 2.65 3.35 3.4 7.1 1.2 3.5-2.05 6.1-.15 3.45 2.5-3.4 3.4 1.15 3.7 6.05.4 1.9-1.3 5.2-2.7 7.35-3.1 2.1-.4 5.8-1.8 8.2-3.15 4.95-2.75 9.25-3.15 9.25-.9 0 2.15 3.95 1.9 9.65-.65 7.1-3.1 16.85-6.7 25.35-9.4l7.5-2.35-11.25-.05c-7.75-.05-11.25.3-11.25 1.1zM294.35 3.55c-1.75.75-3.5 1.85-3.85 2.4-.35.6-1.45 1.05-2.5 1.05s-6.3 2.15-11.7 4.8c-5.4 2.65-12.7 6.15-16.3 7.75-8.95 4-11 5.4-11 7.45 0 2.4 2.15 3.1 4.5 1.4 1.05-.8 2.6-1.4 3.55-1.4.9 0 2.8-1.35 4.3-3 1.95-2.2 3.55-3 6-3 2.05 0 4.05-.75 5.1-1.95.95-1.05 3.5-2.2 5.65-2.55 2.15-.4 4.15-1.1 4.45-1.55.45-.75 6.2-3.75 14.85-7.8.5-.2.6 0 .3.55-.35.55-.2 2.3.25 3.9l.9 2.9.05-3.15c.05-1.7.4-4.5.75-6.25.7-3.55-.2-3.8-5.3-1.55zM50.75 3.75c-2.2.5-2.2 1.65-.1 4.85 1.45 2.15 1.45 2.7.3 3.45-1.1.65-1 1 .6 1.55 1.05.45 2.2 1.1 2.5 1.55 1.7 2.5 5.45 1.3 5.95-1.9l.5-3.25 3.25 2c3.5 2.15 6.75 2.6 7.7 1.1.45-.8 1.35-.8 4.4-.2.25.05-.15.75-.85 1.6-1.05 1.25-.3 1.45 5.65 1.4 3.75-.05 8.9.2 11.35.45 2.5.3 6.1.1 8-.4 1.95-.5 3.75-.8 4.05-.65.35.1 1.4-.6 2.35-1.55 1.7-1.7 8.6-2.5 8.6-1 0 .4-1.55 1.25-3.5 1.85-2 .65-3.5.7-3.5.2 0-.55-.7-.25-1.55.65-.9.85-2.45 1.55-3.5 1.55-2.2 0-2.65 2.45-.7 3.65 2.45 1.55 16.25 7.35 17.5 7.35 1.75 0 1.55-2.65-.25-3.35-3.05-1.2-1.55-2.9 2-2.25 1.95.35 5.1.85 7 1.2 2.1.35 3.5.2 3.5-.4 0-1.6 3.1-2.35 4.6-1.1.75.6 2.1.85 3 .5 3-1.15-3.1-4.95-6.4-4-6.75 1.95-14.2-1.45-14.2-6.45 0-3.35-4.5-3.6-11.65-.55-5.85 2.5-6.8 2.6-11.6 1.6-2.9-.6-8.6-1.4-12.75-1.75-10.7-.9-23.75-4.05-28.45-6.9-1.15-.7-2.85-1.05-3.8-.8zm63 13.9c1.25.3 2.25 1.25 2.25 2.05 0 2.15-5.4 1.25-5.8-.95-.35-1.9.1-2.05 3.55-1.1zM40.05 6.9c-3.35.9-3.5 2.25-.55 5.65 1.35 1.65 2.5 3.25 2.5 3.65 0 1.2 4.05 3 5.5 2.45 3.8-1.45-3.4-12.85-7.45-11.75zM28.05 8.4c-1.8 2.2 2.75 5.2 4.85 3.15 1.15-1.2 1.2-1.75.15-3-1.6-1.95-3.45-2-5-.15zM123.65 9.1c-4.35 2.3-4.35 2.3.6 4.35 3.25 1.35 3.6 1.35 3.1.05-.3-.8-.2-1.5.3-1.5.45 0 .85-1.15.85-2.5 0-2.95.05-2.95-4.85-.4zM283.25 17.65c-.7.3-1 .95-.65 1.5.35.6-.4.9-1.95.7-2.3-.3-2.65-.1-2.65 1.6 0 .2 1.3.05 2.9-.4 1.6-.5 3.3-.45 3.75 0 1.3 1.3 3.7-.65 3.05-2.45-.65-1.6-2.05-1.9-4.45-.95zM79 21c-2.75 2.75-2.55 3.2 2.05 5.4 2.2 1.1 6.05 4.35 8.55 7.25 2.5 2.95 5 5.35 5.6 5.35.55 0 2.6.75 4.5 1.65 2.8 1.35 4.15 1.45 6.65.6 1.75-.6 4.85-1.35 6.9-1.7 5.85-1 3.7-6.5-2.55-6.55-.65 0-7.5-3.15-15.15-7-16.25-8.15-14.05-7.5-16.55-5zM1 20.9c0 .5-.25 1.6-.6 2.45-.5 1.35-.15 1.4 2.5.4 2.9-1.1 4.35-3.75 2.05-3.75-.6 0-.75.5-.4 1.1.5.75.05.75-1.45-.05-1.2-.65-2.1-.7-2.1-.15zM264.95 25.55c-.75.9-.9 1.85-.35 2.35 1.2 1.1 7.65-1.65 6.9-2.9-.95-1.55-5.1-1.2-6.55.55zM296.15 25.35c-1.25 1.45-.55 2.65 1.5 2.65.75 0 1.35-.9 1.35-2 0-2.3-1.25-2.6-2.85-.65zM58 27.9c0 .45-1.75 2.65-3.9 4.8-4.1 4.05-7.55 14.3-4.85 14.3h2.25c1.65 0 2.05-3.55.5-4.5-3.45-2.15 2.2-5.2 10.5-5.75 3-.2 4.05-.7 4.35-2.15.3-1.65-.1-1.8-3.1-1.35-3.55.6-7.45-.9-5-1.9 1.5-.6 1.7-4.35.25-4.35-.55 0-1 .4-1 .9zM48.2 28.85c-.7.45-.75 1.25-.2 2.2.8 1.25 1.15 1.25 2.55-.15 1.75-1.8-.1-3.4-2.35-2.05zM13.15 31.05c-1.3 1.05-2.9 1.95-3.55 1.95-2.1 0-1.5 3.55.75 4.55 2.75 1.2 3.75 6.1 1 5-5.5-2.2-12.2-1.45-8.35.95 1.5.95 1.2 3.5-.45 3.5-2 0-3 1.95-1.65 3.3.8.8 1.1.8 1.1-.1 0-.65.45-1.2 1.05-1.2 1.95 0 9.95-4.05 9.95-5 0-.55.7-1 1.5-1 .85 0 1.5.45 1.5.95 0 1.9 3.85 3.2 6 2.05 3.6-1.95 2.45-4.6-2.6-6.05-6.15-1.7-6.6-3.45-1.8-7.55l3.9-3.3-3-.05c-1.65 0-4.05.9-5.35 2zM68.5 31.1c.95 3.1 2.45 4.9 4 4.9.7 0 1.8.65 2.5 1.5 1.65 2 4 1.9 4-.1 0-2.1-5.6-7.25-8.75-8.05-2.25-.55-2.4-.4-1.75 1.75zM211.25 30.8c-3.65.35-4.5 2.25-1 2.15 2.9-.1 6.4-1.45 5.2-2.05-.55-.25-2.4-.3-4.2-.1zM194.05 32.25c-1.9.5-4.3 1.5-5.35 2.25-1.05.75-2.55 1.1-3.3.8-.85-.3-1.4.15-1.4 1.1 0 2.1 2.05 2.05 5.95-.15 2.7-1.55 3.2-1.55 4.05-.25.8 1.2.95 1.2 1 .1 0-.75.8-1.95 1.75-2.65 2.45-1.8 1.35-2.3-2.7-1.2zM225.3 32.1c-7.75 2.85-4.25 15.9 4.25 15.9 6.8 0 10.25 4.2 7 8.55-1.4 1.95-1.45 1.95-5 .05-5.1-2.75-7.4-.6-3.25 2.95 6.1 5.3 12.7 2.3 12.7-5.8 0-5.35-4.05-9.75-9-9.75-3.9 0-5.85-.9-7.1-3.2-2.1-3.9 2.7-6.35 6.2-3.2 1 .9 2.25 1.3 2.85.95 3.8-2.35-4-8.2-8.65-6.45zM26.15 33.75c-2.35 4.35-1.8 7.65 1.35 8.6 4.85 1.45 6 2.25 6 4.25 0 1.9 8.9 5.9 10.7 4.75 1.5-.9.75-2-7.6-10.65-9.15-9.5-9.1-9.5-10.45-6.95zM282.9 33.9c1.05.7.85 1.05-.9 1.6-1.7.55-1.95.9-.95 1.55.75.45 2 .45 2.85 0 .85-.5 2.25-.35 3.25.3 1.35.8 2.1.8 3.05-.15 1-1 .85-1.4-.95-1.85-1.25-.3-2.25-1-2.25-1.45 0-.5-1.25-.9-2.75-.9-1.95.05-2.35.3-1.35.9zM274.5 37.55c-1.65.75-2.45 1.4-1.75 1.4 2.45.1 1.3 3.05-1.2 3.05-1.35 0-2.7.4-3 .9-.3.55.85.8 2.7.6 1.8-.2 4.35-.35 5.7-.4 1.9-.1 2.2-.35 1.25-1.3-1.55-1.55-1.55-4.5.05-5.15.7-.25.8-.5.25-.5s-2.35.65-4 1.4zM67.6 41.45c-1.65 2.6-.85 3.95 1.8 2.95 1.7-.65 2.2-3.9.7-4.85-.5-.3-1.6.55-2.5 1.9zM263.7 39.65c-.3.25-1.3.6-2.3.75-1 .15-2 .85-2.2 1.5-.25.75.3 1.15 1.45 1 1-.2 2.75.2 3.9.8 1.75 1 2.05.85 2.2-1.2.2-2.1-1.85-4.05-3.05-2.85zM176.25 41.65c-1.25.9-2.25 1.15-2.25.55 0-1.1-4.6-.95-5.7.2-.4.35-.05 1.25.75 2 1.8 1.7 7.95.95 7.95-.95 0-.75.8-1.8 1.75-2.35.95-.6 1.3-1.05.75-1-.55 0-2 .7-3.25 1.55zM55 42.05c0 .55.7 1.3 1.55 1.6 1.15.45 1.25.9.35 1.95-.85 1.05-.85 1.4 0 1.4 1.25 0 3.15-4.05 2.4-5.25-.65-1.15-4.3-.9-4.3.3zM140.65 45.5c.4 1.1-.15 1.5-2.4 1.5-1.7 0-3.75.85-4.8 2.05-1.9 2.1-1.85 2.1.8 1.4 6.6-1.65 13.9-5.2 11.8-5.75-1.15-.25-1.8-.1-1.5.4.3.5-.15.9-1 .9s-1.55-.45-1.55-1-.45-1-.95-1c-.55 0-.75.65-.4 1.5zM154.8 45.55c-.3.25-1.45.7-2.6.9-1.1.25-4 1.3-6.35 2.4l-4.35 1.95 3.25.75c1.8.35 3.25 1.1 3.25 1.55 0 2.05 1.8.7 2.25-1.6.4-2.2.2-2.45-1.65-1.95-1.65.45-1.8.35-.6-.45 1.95-1.4 5.3-1.4 6.7 0 .8.8 1.05.4.95-1.5-.1-1.45-.2-2.6-.25-2.6-.05 0-.3.25-.6.55zM185.25 48.85c-5.3 1.95-5.3 1.4.9 17.1 5.6 14.05 5.7 14.2 11.85 11.05 8.05-4.1 8.4-16.55.75-26.1-3.25-4.05-6.8-4.6-13.5-2.05zm11.1 5.2c5.9 6.95 6.2 16.6.6 19.5-3.8 1.95-3.55 2.1-5.55-3.3-.95-2.6-2.8-7.4-4.15-10.7-3.55-8.6 3.15-12.65 9.1-5.5zM63 49.2c-15.55 2.55-17.05 4.9-3.35 5.15 8.25.2 9.15 0 9.95-1.8.5-1.15 1.9-2.2 3.15-2.35 1.25-.2 2.25-.65 2.25-1 0-1.05-5.8-1.05-12 0zM291.15 52.55c-4.05 1.9-7.7 3.45-8.2 3.45-1.65 0-19.8 8.95-20.55 10.15-1 1.6 7.35.25 10.3-1.7 1.25-.8 3.1-1.45 4.15-1.45 1.05 0 2.2-.7 2.55-1.55.3-.85 1-1.35 1.5-1 .45.3 1.45-.15 2.1-.95.7-.85 2.2-1.5 3.35-1.55 1.2 0 3.3-.65 4.65-1.45 3.3-1.85 5-1.85 5 .05 0 2.95 3.55-.25 3.8-3.4.3-4.35-.55-4.4-8.65-.6zM118.95 61.75c-1.7 2-1.8 2.2-2.6 6.15-.4 2.15-1 2.8-2.2 2.45-1.3-.4-1.35-.35-.3.45.95.65 1.05 1.15.25 1.65-.6.35-1.1.3-1.1-.15-.05-1.05-1.95 1.95-2 3.05 0 .5.6.4 1.35-.2.75-.65 1.6-.85 1.95-.55.9.9 5.75-9.7 5-10.9-.35-.65 0-.8.95-.45.9.35 1.8.1 2.05-.55.25-.65.95-.1 1.6 1.3.7 1.65 1 1.85.85.6-.4-3.15-4.05-4.95-5.8-2.85zM146.25 62.5c-6 2.75-6 2.7-3.1 9.15 1.15 2.7 3.6 8.65 5.4 13.35 1.95 5.15 3.9 8.65 4.85 8.8 2.25.5 2.05-2.95-.4-7.8-4.6-9.05.15-10.6 7.5-2.5 3.85 4.2 5.35 5.25 6.5 4.55 1.25-.8.65-1.85-3.2-5.75l-4.7-4.8.6-5.7c1-9.95-4.15-13.55-13.45-9.3zm8.9 3.15c3.45 3.1 2.3 7.05-2.8 9.65l-3.1 1.65-2.05-4.95-2.05-4.95 2.65-1.4c3.65-1.95 5.2-1.95 7.35 0zM77 64.25c.05 2.65 1 4.2 2.75 4.35 2.9.25 3.25.5 3.25 2.3 0 1.85.4 1.8 7.45-.75 6.8-2.4 7.25-2.75 5.25-3.8-1.7-.85-16.3-4.35-18.3-4.35-.2 0-.4 1-.4 2.25zM209.1 66.3c-.6.6-1.1 1.8-1.1 2.65.05 1.35.15 1.35.95.05 1.9-3 3.4.4 1.95 4.4-1.6 4.45-.3 6.45 3 4.65 2.5-1.35 2.75-3.05.5-3.05-1.2 0-1.5-.6-1.05-2.2 1.2-4.7-1.65-9.1-4.25-6.5zM101.3 67.2c.8.5.6.75-.55.8-.95 0-1.75.7-1.75 1.55 0 .85-.5 1.25-1.05.9-1.55-.95-11.95 3.55-11.95 5.15 0 .8.4 1.4.85 1.4.5 0 .7 1.25.5 2.75-.4 2.5-.3 2.6.85.85.7-1.05 2.1-2.6 3.05-3.45.95-.9 1.75-2.1 1.75-2.75 0-.65 1.15-1.4 2.5-1.65 1.95-.35 2.5-.05 2.5 1.4 0 1 .5 1.85 1.05 1.85.65 0 .8-.85.4-2.15-.55-1.7-.35-2.05.95-1.55.85.35 1.6.2 1.6-.35 0-.5.5-.95 1.1-.95.6 0 .85.65.55 1.5-1 2.55.95 1.65 2.15-1 .65-1.35 1.7-2.3 2.4-2.15.7.2.95.15.55-.1-.4-.25-.75-1-.75-1.7 0-.85-1.35-1.25-3.95-1.2-2.15.05-3.4.45-2.75.85zM297.35 71.25c-.45.7-.7 2-.55 2.85.3 1.75-4.8 4.4-7 3.65-.7-.25.4-1.05 2.45-1.8 2.05-.75 3.75-1.75 3.75-2.25 0-1.5-5.55.25-13.7 4.35-4.3 2.15-8.35 3.95-9.05 3.95-.7 0-1.25.65-1.25 1.5 0 1.95.1 1.95 5.55-.95 2.55-1.4 4.95-2.45 5.3-2.4 1.95.25 3.2-.25 2.65-1.15-.35-.55.1-1 .95-1s1.55.35 1.55.8c0 .75-36.8 19.25-38.25 19.2-1.85-.05-.5-1.85 2.25-3 1.65-.7 3-1.55 3-1.95 0-.95 4.95-3.2 5.85-2.65.9.55 4.65-2.2 3.95-2.95-.55-.55-3.2.5-14.3 5.55-3.3 1.5-8.45 3.8-11.5 5.05-3 1.25-6.15 2.8-7 3.45-.8.65-2.4 1.5-3.5 1.9-4.75 1.65-9.45 4.2-9.9 5.3-.6 1.45 1.3.8 7.1-2.4 2.45-1.35 4.85-2 5.9-1.6 1.05.4 1.5.25 1.1-.4-.35-.6.6-1.05 2.4-1.1 1.65-.05 3.7-.6 4.5-1.3.8-.65 1.7-.9 2.05-.6 1.05 1.1-41.7 21.4-43.55 20.7-.2-.1-.65.25-1 .8-.3.5-4.85 3-10.1 5.45-5.2 2.5-16.65 7.95-25.4 12.15-16.25 7.8-18.45 8.7-15.05 6.15 1.85-1.4 1.85-1.45-.55-.95-2.45.45-2.45.45-.25-.55 1.25-.55 2.95-.75 3.75-.4 1.1.4 1.35.1.9-1.05-.35-.9-.1-1.6.55-1.6s.9.45.55 1c-.95 1.5.75 1.15 3-.65 1.95-1.5 1.95-1.55-.4-.85-1.7.5-2.15.4-1.6-.5.4-.65 1.55-.95 2.6-.7 1.05.3 2.15.1 2.45-.4.35-.5 1.05-.65 1.55-.35 1.35.85 6.1-2.4 5.35-3.65-.4-.6.35-.75 1.95-.35 1.9.5 2.75.2 3.2-.95.35-.9 1.15-1.6 1.75-1.5 1.85.2 5.65-1.25 5.65-2.2 0-.45.75-.55 1.65-.2 1.3.5 1.55.25 1.05-1.1-.4-.95-.3-1.5.15-1.2 1.25.75 8.25-1.95 7.4-2.9-.4-.45-.2-.5.45-.1.7.35 2.15-.25 3.25-1.35 1.15-1.15 2.85-2.05 3.8-2.05.95 0 3.05-.7 4.6-1.5 1.6-.85 3.45-1.5 4.2-1.5.7 0 1.6-.9 1.95-2 .35-1.1 1.5-2 2.55-2 1.1 0 1.95-.4 1.95-.9 0-2.2-7.05-.7-7.65 1.6-.3 1.25-.95 2.05-1.4 1.8-.9-.55-10.7 3.95-46.95 21.7-13.45 6.6-25.4 12.35-26.5 12.8-2.2.95-15.75 7.2-27.5 12.7-4.1 1.9-8.15 3.9-9 4.4-2.2 1.35-21.95 11.6-25.95 13.5-1.9.85-5.05 1.85-7 2.1-1.95.3-5.9 2.05-8.7 3.95-2.85 1.85-5.95 3.35-6.85 3.35-.95 0-2.9.95-4.35 2.1-1.45 1.15-6.15 4-10.4 6.4-8.75 4.85-9 4.75-10.05-3.35-.6-5.05-6.7-13.05-11.1-14.6-4.7-1.7-6.05.15-6.4 8.65l-.3 7.45 9 4.2c4.9 2.3 9.25 4.15 9.6 4.15.4 0 1.75.85 3.05 1.85 3 2.35 9.6 1.45 12.55-1.75 1.1-1.15 2.35-2.1 2.85-2.1.75 0 11.6-8.3 13.05-10 3.1-3.6 6.2-4.75 10.25-3.9 8.9 1.9 9.2 2 7.85 2.85-.95.55-.35 1.65 2.2 4.15 1.9 1.9 3.65 4.25 3.85 5.3.2 1.05 1 2.15 1.75 2.4.95.3 1.2-.05.8-1.1-.3-.9.05-1.8.95-2.1 2.25-.85 2.3-.85 3.35 1.95 1.1 2.85 7 .85 7-2.35 0-.9.6-1.2 1.55-.8.9.3 2.55.1 3.7-.55 2.95-1.55-6.2-5.15-10.9-4.25-2.4.45-3.55.1-5.15-1.6-1.15-1.25-3.75-2.4-6.15-2.7-6.75-.95-5.15-3.85 1.95-3.6 10.1.3 11.5.55 13.5 2.25 1.1.95 5.4 3 9.5 4.55 4.4 1.7 8.5 4.05 9.95 5.7 1.4 1.55 3.05 2.8 3.7 2.8.65 0 4.35 1.6 8.25 3.6 7 3.55 16.1 5.8 14.75 3.65-.35-.55.05-1.6.85-2.25 3.95-3.3 1.9-7.55-5.4-11.3-3.85-2-13.4-6.95-21.25-11-7.9-4.05-15-7.65-15.85-7.95-3.7-1.3 32.8-19.8 39.45-20 1.65-.05 9.15-2.95 16.55-6.5 7.45-3.55 14.5-6.85 15.75-7.35 1.25-.45 2.25-1.3 2.25-1.9 0-.55.7-1 1.55-1 .85 0 3.4-.9 5.7-2 4.25-2.05 8.75-2.45 12.25-1.05 2 .8 4.5-.35 4.5-2.05 0-1.2-3.35-1.15-4.6.1-.65.65-1.05.3-1.1-.95-.2-2.2 2.65-3.5 5.55-2.6 1.75.55 3.55-.7 4.3-2.95.2-.55 2.25-.95 4.6-.85 4 .15 4.65-.3 4.4-3.15-.1-.9 10.3-6.5 12.05-6.5.4 0 3.1-1.05 6-2.4 6.25-2.8 10-4.1 11.1-3.8.4.15 2.2-1.1 3.95-2.7 1.7-1.65 5.8-4.35 9.1-6.05l6-3.1 2.15 2.05c1.15 1.1 2.7 2 3.35 2 .7 0 1 .45.65 1s.55 1 2.15 1h2.75l-3.45 3.35c-1.9 1.85-3.75 3.2-4.1 3-.35-.15-2.25.8-4.25 2.15-3 2.05-9.25 5.35-14.05 7.4-.55.2.6-.95 2.5-2.65 1.9-1.65 3.8-3.05 4.25-3.1 1.3-.15 4.2-3.45 4.2-4.8 0-.75.45-1.4 1-1.45 1.8-.15 3.5-2.1 3.5-4 0-3.05-1.1-2.35-10.7 6.6-10.2 9.5-9.3 9.05-13.85 6.9-3.2-1.5-3.5-1.5-6.05.5-1.45 1.15-3.15 2.1-3.8 2.1-.6.05-2.2.9-3.6 2-1.35 1.1-3.7 1.95-5.15 2-2.65 0-5.35 2.15-4.2 3.35.35.35 1.3.1 2.05-.5 1-.85 2-.85 3.95.05 3.3 1.5 2.7 2.1-2.45 2.4-2.25.15-4.4.6-4.8.95-.35.4-1.9-.05-3.45-.95-2.65-1.55-5.95-1.25-5.95.55 0 .5.8 1.15 1.75 1.4.95.3 2.65.85 3.75 1.25 1.25.4 1.55.35.8-.2s1.1-.85 4.75-.85c3.25.05 5.95.4 5.95.85 0 .45.7.15 1.5-.65.85-.85 1.5-2.35 1.5-3.35 0-1.95 3.65-4.85 4.2-3.3.55 1.7 4.8-.15 4.8-2.1 0-1.35.7-1.9 2.55-1.9 1.45 0 2.3.45 1.95 1-.35.55-1.35 1-2.25 1-.85 0-1.3.3-.95.65 1.05 1.05 7.95.75 10.9-.45 4.75-1.95 28.35 5.95 25 8.4-1.45 1.1-1.15 1.2 2.3.9 4.7-.45 7.75.25 6.95 1.55-.3.55.4.85 1.6.7 3.2-.35 4.55 2.35 3.35 6.9-.55 2.15-1.5 3.75-2.2 3.6-.65-.15-1.2.4-1.2 1.2 0 .8-.4 1.7-.9 2-1.3.8-4.1-.45-4.1-1.75 0-.75.4-.7 1.2.1 1.85 1.85 2.45 1.45 2.2-1.7-.15-2.15.35-3.05 1.7-3.4 1.05-.3 1.9-1.05 1.9-1.65 0-1.45-3.4-.5-7.25 2.1-1.5 1-4.1 2.75-5.7 3.85-1.65 1.1-3.4 2-3.95 2-.5 0-1.1.35-1.25.8-.2.4-2.6 2.1-5.35 3.75-4.75 2.8-4.85 2.95-2.25 3.25 1.5.2 2.75.8 2.75 1.35 0 .65-1.55.75-4.15.35-2.9-.5-3.9-.4-3.4.4.35.6 1.75 1.1 3.1 1.1s2.45.45 2.45 1c0 1.55-4.35 2.2-10.65 1.55-4.05-.4-5.4-.25-4.35.45.85.5 2.65 1 4 1 2.3.05 2.35.15.75 1.4-1.7 1.3-1.65 1.4.35 1.9 2.25.6 9.3-2.55 8.2-3.65-.35-.35.05-.65.9-.65 2 0 7.2-2.6 13.3-6.65 2.75-1.85 5.65-3.35 6.5-3.4.8 0 2.75-1.05 4.3-2.3 2.8-2.3 2.8-2.3 8-.5 9.15 3.15 21.35-1.7 21.45-8.6.05-3.05.05-3.05-1.45-.8-.85 1.25-2.2 2.25-3.05 2.25-.95 0-1.25.6-.85 1.6.45 1.25.2 1.45-1.1.95-.95-.35-1.4-.35-1.05.05.95.95-1.1 3.4-2.8 3.4-.85 0-1.45-1.55-1.65-4.25l-.3-4.25-11-4.65c-6.05-2.55-11.55-5.2-12.25-5.8-.7-.65-1.75-.85-2.3-.5-.55.35-1.6.2-2.25-.35-.65-.55-3.2-1.7-5.7-2.55-2.45-.9-6.3-2.3-8.5-3.15-4.15-1.6-4.1-1.6 4-.3 1.65.25 2.05-.35 2.3-3.45.2-2.05.75-3.75 1.25-3.75.55 0 .85-.5.7-1.15-.15-.6 1.9-2.4 4.5-3.95 5.2-3.1 13.75-3.25 13.75-.25 0 1.6 4.55 1.85 5.55.3.4-.7 1.05-.7 2.05.1.75.65 1.2 1.5.95 1.85-.25.4 0 1.35.45 2.1.75 1.2 1 1.15 1.55-.3.8-2.1 2.45-2.25 2.45-.2 0 .85.9 1.5 2 1.5s2-.5 2-1.05c0-.6-.45-.8-1-.45-.55.35-1 .15-1-.45 0-1.6 3-1.25 3.65.45.4 1 1.95 1.5 4.95 1.5 4.6 0 5.45-.9 2.9-3-.8-.65-1.25-1.6-1-2.05.3-.4-.95-1.1-2.75-1.45-1.8-.35-8.65-1.95-15.25-3.5s-14-3.1-16.5-3.5c-9.25-1.35-13.5-3.6-9.25-4.9 3.95-1.25 8.6-.55 25.75 3.8 22.5 5.75 20.9 5.8 20.15-.55-.6-5.25-1.6-7.35-2.35-5.1-.35.9-.95.95-2.45.15-2.65-1.4-5-.45-4.15 1.75.45 1.15.25 1.45-.55.95-.75-.45-.95-1.65-.55-2.95.55-1.75.45-1.9-.7-1-.75.65-1.85 1.3-2.4 1.5-.55.15-.85.85-.7 1.55.15.75-.3 1.05-1.2.7-.8-.3-1.25-1.2-.95-2 .7-1.75-1-1.8-3.65-.15-1.45.9-2.45.95-3.7.15-1.15-.7-3.15-.75-5.8-.2-11.3 2.4-9.55-.7 4-7.1 7.15-3.4 14.15-6.85 15.5-7.65 1.4-.8 4.2-2.2 6.25-3.1 3.6-1.6 3.75-1.85 3.75-6.5 0-4.7-1.05-6.15-2.65-3.6zm-166.25 83.4c-12.45 6-19.55 8.5-9.65 3.35 2.5-1.25 4.3-2.6 4.05-3-.25-.4.8-.5 2.3-.3 2.2.35 2.4.25 1.2-.7-1.25-.95-1.15-1.05.55-.55 1.15.3 2.95-.1 4-.95 1.9-1.5 1.9-1.5-.05-.9-1.2.35-.85-.1.9-1.25 1.55-1 4.5-1.9 6.5-2 3-.1 1.4.95-9.8 6.3zm-42.1 29.3c0 2.8 0 2.85-6.75 2.9l-6.75.1 5.95-3.4c6.6-3.8 7.55-3.75 7.55.4zm-15.1-2.55c-2 1.8-9.2 4.65-7.95 3.15.8-1 2.4-2.15 3.5-2.6 2.1-.85 5.2-1.25 4.45-.55zM102 75.75c0 .6-.9 1.4-2 1.75-1.1.35-1.8 1-1.55 1.45.3.45-.35 1.05-1.45 1.35-1.1.3-2 1.1-2 1.85.05 1.1.2 1.1.9 0 .55-.9 1.05-1 1.5-.3.85 1.35-3.1 5.45-4.45 4.65-.5-.35-.95-.15-.95.4 0 2.35 2.3 2.05 4.55-.55 3.05-3.5 6.75-10.4 6-11.15-.3-.3-.55-.05-.55.55zM75.2 79.85c-2.4 1-4.3 2.2-4.25 2.7.05.55-1.6 1.15-3.65 1.45-2.15.3-3.8 1.05-3.8 1.8 0 .7-.65 1.7-1.45 2.2-.85.5-1.15 1.25-.7 1.7.45.45 1.4 0 2.1-.95.7-.95 1.8-1.75 2.4-1.75.65 0 1.15-.5 1.15-1.1 0-.6.65-.85 1.45-.55.85.3 1.8.1 2.15-.5.35-.6 2.15-.8 4.25-.45l3.65.6-3-1.35-3-1.35 4.3-1.2c2.35-.65 4-1.6 3.65-2.15-.3-.5-.65-.9-.75-.9-.1.05-2.15.85-4.5 1.8zM108.5 79.55c-12.55 6.45-2.6 34.45 11.05 31.05 10.45-2.65 7.05-25.05-4.75-31.2-3.25-1.7-2.65-1.7-6.3.15zm6.15 3.95c6.9 4.8 10.05 19.7 4.9 23.05-7.35 4.85-18.05-16.05-11.55-22.55 2.4-2.4 3.85-2.5 6.65-.5zM129.05 80.25c-.05.95-.45 1.75-.95 1.75-.5 0-.8 1.1-.75 2.4.1 1.35.45 2.2.8 2 .4-.25.9.15 1.1.85.25.7.75-.2 1.15-1.95.45-1.85.3-4-.3-5-1-1.7-1.05-1.7-1.05-.05zM168.5 80.95c-.3.55.35 1.9 1.5 3.05s2.35 3.4 2.65 5.05c.6 2.9 2.35 4.15 2.35 1.7.05-5.35-4.75-12.55-6.5-9.8zM30.2 83.55c-1 1.15-4.25 1.45-15.25 1.45-13.05 0-17.05.85-12.35 2.7 1.4.5 1.3.8-.6 1.8-2.65 1.4-1.35 2.65 1.9 1.8 1.35-.35 2-1.1 1.7-1.95-.4-1.05.75-1.35 5.2-1.45 9.55-.1 20.3-.65 20.65-1.05.15-.2.6-1.35 1-2.6.8-2.55-.3-2.9-2.25-.7zM296.95 87.9c1.35 2.55 3.35 2.8 2.85.35-.15-.95-1.15-1.9-2.15-2.1-1.55-.3-1.65-.05-.7 1.75zM64.05 90.45c-2.4 2.9 2.6 5.1 8 3.55 1.7-.5 3.15-.4 3.85.3.8.8 1.1.65 1.1-.6 0-1.6-4-2.4-8.75-1.75-.7.05-1.25-.55-1.25-1.4 0-1.95-1.4-2-2.95-.1zM25.5 92.15c.35.9.15 1.95-.45 2.3-.55.35-1.05.1-1.05-.55 0-.7-.25-.95-.6-.65-.3.3 0 1.65.7 2.9l1.25 2.35.8-3c.5-1.8.4-3.35-.25-4-.7-.7-.8-.5-.4.65zM45.75 92.3c-3.2 1.25-3.1 3.05.15 3.55 3.7.5 5.55-.6 4.05-2.4-1.05-1.25-.95-1.4.55-.8 1.25.45 1.6.3 1.1-.5-.85-1.35-2.1-1.35-5.85.15zM58.65 92.5c-.35.8-1.3 1.5-2.1 1.5-.85 0-1.55.45-1.55.95 0 .55 1.65.75 3.7.5 3.5-.45 5.9-1.45 3.45-1.45-.6 0-1.15-.7-1.15-1.5 0-.85-.4-1.5-.9-1.5s-1.15.65-1.45 1.5zM80 92c0 .3.9 1.1 2 1.75 1.7 1.05 2 1 2-.3 0-.85.45-1.3 1-.95.55.35 1 .2 1-.3s-1.35-.85-3-.8c-1.65.05-3 .35-3 .6zM154.85 96.35c1.05 1.25 1.1 1.65.15 1.65-1 0-1 .3 0 1.5 1.7 2.05 3.1 1.9 2.3-.25-.6-1.55-.45-1.6 1.05-.35.95.75 2 1.1 2.35.75.35-.35 0-.65-.7-.65-.9 0-.7-.55.55-1.55 1.9-1.55 1.85-1.6-.45-1.1-1.35.3-3.35.05-4.5-.55-1.9-1-1.95-.95-.75.55zM22.3 97.35c.9 2.3-.1 2.55-11.8 2.85l-10 .3-.3 5.75c-.4 7.3-1.75 7.55 25.1-3.95 4.85-2.1 5.65-3.35 1.75-2.9-2.05.2-3.05-.1-3.05-.95 0-.75-.55-1.65-1.15-2.05-.8-.5-1-.2-.55.95zM77 97.2c0 .7.9 5.95 2 11.6 3 15.35 2.7 15.35-5.65.95-2.5-4.25-4.95-8-5.5-8.35-1.5-.9-4 1.75-3.3 3.5 2.65 6.6 4.85 24.2 2.5 20.05-3.5-6.1-11.65-18.95-12.05-18.9-3.6 0-2.7 2.4 6.05 15.8 13.15 20.15 13.85 19.4 8.35-8.85-.95-4.85.45-3.35 7.4 8.1 3.15 5.15 6.15 9.15 6.7 8.9 2.55-1.3-1.95-33.25-4.75-33.8-.95-.2-1.75.25-1.75 1zM130.45 100.1c-.4.6-.15 1.45.55 1.9.7.45.9 1.3.45 2.05-.45.8-.35 1 .35.6.6-.4 1.6.75 2.35 2.85.7 1.9 1.6 3.5 2.05 3.5 1.25 0 1-1.3-1.35-6.85-2.15-5.15-3.15-6.1-4.4-4.05zM211.6 104.5c-2.05 1.35-4 2.5-4.4 2.5-.4 0-2.05 1.2-3.7 2.6-3.65 3.2-.15 2.65 4.65-.75 1.45-1 3.1-1.85 3.65-1.85.5 0 1.5-.65 2.15-1.45.65-.8 1.85-1.2 2.6-.9.9.35 1.45-.05 1.45-1.05 0-2.3-2.15-2-6.4.9zM87.7 112c-.3 1.1-.1 2 .45 2s.7.45.35 1c-.35.6.1.7 1.15.3 1.05-.4 1.3-.8.55-1.05-.85-.3-.9-.95-.15-2.35.8-1.45.7-1.9-.4-1.9-.8 0-1.65.9-1.95 2zM194 112.5c-.7.85-1.1 1.7-.9 1.9.75.7 4.9-1.35 4.9-2.35 0-1.55-2.6-1.25-4 .45zM24.5 116.75c-4.4 2.3-5.35 2.75-14.05 6.2-7.8 3.05-10.45 5.05-10.45 7.8 0 1 .9 1.15 3.55.65 2.75-.5 3.85-.25 4.85 1.15 1.4 1.9 5.25 1.3 4.05-.6-.35-.6-1.25-.85-2-.6-.7.3-1.75-.05-2.35-.7-.75-.95.1-1.65 3.45-2.9 4.4-1.65 5.55-1.25 3.25 1.05-.9.9-.35.9 2.25.1 1.9-.6 4.45-1.35 5.7-1.6 3.4-.8 3.75-2.3.6-2.3h-2.8l2.5-1.7c3.1-2.15 4.05-3.5 3.45-5.05-.25-.7.2-1.25.95-1.25.8 0 1.7-.45 2.05-1 .9-1.45-1.5-1.05-5 .75zM262.3 118.35c-6.45 3.9-6.3 4.5 1.75 7.2 3.55 1.15 8.95 3.1 11.95 4.3 7.1 2.75 6.95 2.8 13.6-1.45 4.35-2.8 5.35-3.85 4.3-4.6-.95-.65-.2-.75 2.35-.35 4.6.8 4.95-.85.55-2.35-2.85-1-3.4-.9-5.25 1.25-4.5 5.25-8.2 6.9-12.3 5.6-5.7-1.85-5.75-2-1.1-4.8 3.9-2.35 4.1-2.7 2-3-1.25-.15-3.95.8-6 2.1-3.15 2.1-4.05 2.3-6.85 1.35-4.75-1.65-4.8-2.2-.4-4.25 4.1-1.9 5.5-4.45 2.35-4.25-.95.05-4.1 1.55-6.95 3.25zM90 123.75c0 2.05-.3 4.8-.65 6.1-.6 2.2-.45 2.35 2.5 1.7 2-.45 3.15-.3 3.15.35 0 .6.45 1.1 1 1.1 1.55 0 1.2-4.6-.45-5.95-.8-.65-1.7-2.5-2.05-4.1-.95-4.4-3.5-3.8-3.5.8zM168.7 125.4c-4.55 2.05-5.3 3.6-1.75 3.6 3.8 0 9.4-4.15 7.25-5.35-.4-.2-2.85.6-5.5 1.75zM158.5 130c-2.35 2.55-.45 2.6 2.65.05 1.8-1.5 1.95-2 .75-2-.85-.05-2.4.85-3.4 1.95zM235.65 131.5c-.85.8-2.4 1.5-3.5 1.5-3.3 0-3.25 1.45.05 2.95 1.7.7 3.25 2.15 3.55 3.1.25 1.05 1.05 1.6 1.85 1.25.95-.35 1.25-.05.85 1-.35.8-.1 1.8.5 2.15 1.5.95 5.2-.4 4.45-1.6-.4-.7-1-.65-1.7.05-1.6 1.6-3 1.35-2.3-.45.3-.85-.05-1.75-.9-2.1-.85-.3-1.5-1.2-1.5-1.95s-.55-1.3-1.25-1.15c-.7.15-1.25-.45-1.25-1.25 0-.85.6-1.4 1.3-1.25.75.2 1.05-.15.7-.75-.35-.55.4-1.45 1.7-1.95 1.6-.65 1.8-.95.6-1-.9 0-2.35.6-3.15 1.45zM220.5 132c-2.15.4-4.55.55-5.25.25-.7-.25-1.25.15-1.25.9 0 1.55 5.6 2.25 6.55.8.3-.5 1.9-.95 3.55-.95 1.75 0 2.75-.4 2.4-1-.35-.55-.95-.95-1.3-.9-.4.1-2.5.45-4.7.9zM150.3 132.7c-4.4.85-5.1 3.5-.8 3.1 2.7-.2 3.9-.8 4.05-2.05.15-.95 0-1.7-.4-1.6-.35.05-1.65.3-2.85.55zM18.4 133.95c-1.7.4-3.7 1.15-4.5 1.6-.75.5-2.35.75-3.55.6-1.2-.15-2.5.25-2.9.95-.55.85-.05 1 1.85.55 1.4-.35 2.8-.3 3.1.15.95 1.55 7.4.1 7.9-1.8.25-1 1.55-2.05 2.85-2.3 1.75-.3 1.85-.45.35-.45-1.1-.05-3.4.3-5.1.7zM225.6 136.55c-.35 1-.2 1.3.6.85.75-.5.9-.15.45 1.05-.5 1.3-.3 1.6.75 1.2.8-.3 1.65 0 1.85.6.25.8.6.85 1.05.1.6-1-2.3-5.35-3.55-5.35-.3 0-.8.7-1.15 1.55zM289 138c-1.35 1.1-1.9 1.95-1.2 2 1.45 0 7.2-2.8 7.2-3.55 0-1.15-3.75-.2-6 1.55zM22.25 137.65c-2.25.9-1.35 2.5 1 1.8 3.2-.95 4.6-2.45 2.2-2.35-1.05 0-2.5.3-3.2.55zM138.7 139.05c-.95 1.1-3.05 2.25-4.7 2.6-4 .8-3.8 1.85.25 1.8 4.3-.1 6.75-1.3 6.1-3.05-.3-.75-.05-1.4.55-1.4.6 0 1.1-.45 1.1-1 0-1.6-1.4-1.15-3.3 1.05zM190.3 138.1c-.6.6-.8 3-.55 5.4.6 5.15-1.9 6.55-7.95 4.65-10.8-3.5-18.15-2.6-10.95 1.35 2.55 1.35 2.55 1.4.4 1.45-1.25.05-2.25.55-2.25 1.2 0 .7 1.25.9 3.5.55 2.5-.4 3.5-.2 3.5.75 0 1.25 5 2.85 5.95 1.9.65-.65-2.2-2.3-3.05-1.8-.4.25-.95-.25-1.25-1.05-.7-1.75.45-2 2.05-.4.75.75 1.45.65 2.4-.4 1.15-1.2 1.55-1.2 2.4-.1 2.25 3 9.9 2.35 15.65-1.3 6.55-4.2 11.8-3.8 23.35 1.7 1.1.55 5.45 2.25 9.65 3.85l7.65 2.9 2.35-2.15c1.3-1.15 3.7-2.7 5.35-3.45 5.5-2.4 12.5-7.35 11.85-8.35-.35-.65.2-.75 1.45-.35 1.5.45 2.4.05 3.15-1.4 1.1-2-.2-3.05-1.35-1.2-.75 1.2-9.55 3.6-12.35 3.35-1.25-.1-2.25.2-2.25.7 0 1.15 3.85 2.15 4.5 1.15.65-1.15 4.5-2 4.5-1.05 0 2.05-12.85 6.8-20.5 7.6-4.65.45-4.85.4-3-1 1.1-.85 2.7-1.55 3.5-1.6 1.35-.05 1.35-.15 0-1-1.3-.85-1.25-.95.15-1 .95 0 1.85.35 2 .8.2.45 2.15.25 4.35-.4 2.2-.7 3.15-1.3 2.15-1.3-1.2-.05-1.65-.6-1.3-1.55.35-.95.05-1.25-.9-.9-.8.3-1.45 1.25-1.45 2.1 0 1.25-.25 1.25-1.55.25-1.2-1.05-2.05-1.05-4.25 0-3.8 1.85-10.15 2-13.6.35-1.6-.75-4.2-1.35-5.75-1.35-2.9 0-3.85-1.4-1.6-2.4.7-.3-.3-.3-2.25.1-6.1 1.1-22.95-3.35-21.5-5.7.8-1.3-1.05-2.05-2.2-.9zM242.85 140c3.3 3.05 5.55 3.75 6.6 2.1.3-.5 1.4-.7 2.45-.4 1.05.25 2.2-.05 2.6-.7 1.1-1.75-.25-2.45-2-1-1.05.85-1.5.9-1.5.1 0-.75-.8-.6-2.35.4-2.15 1.4-2.45 1.35-4.65-1-1.3-1.35-2.8-2.5-3.4-2.5-.55 0 .45 1.35 2.25 3zM7.85 139.95c-2.3 1.95-2.3 2-.2 2 2.4.05 5-2.45 3.5-3.35-.5-.35-2 .3-3.3 1.35zM143.45 139.45c-1.9 1.45-1.9 1.5.2 1.5 1.15.05 2.65-.65 3.35-1.45 1.7-2.05-.85-2.05-3.55-.05zM.35 140.55c-.35.85-.35 1.8 0 2.15.7.7 3.65-1.55 3.65-2.8 0-1.55-3.05-1-3.65.65zM233.1 141.75c-.1 2.65-.5 3.25-2.35 3.3-1.25 0-3.15.75-4.25 1.6-1.9 1.5-1.9 1.55 1 .95 1.65-.4 3.55-.75 4.25-.8.7-.1 1.25-.5 1.25-.95 0-.45.8-.7 1.75-.6.95.15 1.85-.2 2-.75.15-.55-.3-1-1-1s-1.55-1.15-1.9-2.5c-.55-2.25-.6-2.2-.75.75zM213 141.6c0 1.2.6 1.45 2.25 1.05 1.25-.35 2.7-.65 3.25-.7 1.25-.1-2.55-1.8-4.25-1.9-.7 0-1.25.7-1.25 1.55zM13 141.95c-.8.45-3.45 1.65-5.8 2.65-4.3 1.75-7.95 6.4-6.7 8.45 1.15 1.8 2.6.95 3.65-2.05.6-1.65 1.45-3 1.9-3 .5 0 1.75-.95 2.85-2.15 1.15-1.2 2.65-1.85 3.55-1.5.85.3 1.55.15 1.55-.4 0-.5.85-.95 1.95-.95 1.05 0 2.2-.45 2.55-1 .75-1.2-3.35-1.25-5.5-.05zM125.55 146.6c-2.2.8-4.25 1.9-4.6 2.5-.35.55-2.3 1.15-4.3 1.35-3.55.25-7.65 2.85-7.65 4.8 0 .5.75.15 1.65-.75 1.15-1.15 2.6-1.5 4.5-1.1 2.2.4 3.6-.1 6.25-2.45 1.85-1.6 4.05-2.95 4.9-2.95 2.25 0 4.7-1.1 4.7-2.1 0-1.15-.65-1.05-5.45.7zM11.2 147.7c-4.6 2.25-2.05 3.5 2.9 1.45 2.15-.9 3.9-2 3.9-2.4 0-1.25-3.3-.8-6.8.95zM17.45 151.05c-.95 1.55-.3 1.85 2.8 1.25 1.5-.3 2.5-.95 2.2-1.4-.8-1.25-4.2-1.1-5 .15zM99 156c0 .55-.7 1-1.6 1-.9 0-2.85 1.35-4.4 3-1.9 2.05-4.3 3.3-7.45 3.9-2.55.45-5.2 1.55-5.85 2.35-1.85 2.25-9.65 4.9-12.6 4.25-1.6-.35-3.4.05-4.6.95-1.95 1.45-1.95 1.5.25 1.5 1.25.05 2.25.45 2.25 1 0 .5-1 1.25-2.25 1.6-1.25.4-2.6 1.2-3 1.85-.55.8-1 .7-1.65-.25-.5-.85-1.65-1.1-3-.7-2.65.85-2.75 2.55-.15 2.55 1.05 0 2.2.4 2.5.9.65 1.1 8.55-2.55 8.55-3.9 0-.55 1.15-1 2.55-1 1.45 0 2.3-.45 1.95-1-.35-.55.15-1 1.05-1s3.3-.85 5.3-1.9c2-1 4.8-2.35 6.15-2.95 1.4-.6 1.85-1 1-.9-.8.15-1.6-.2-1.75-.75-.15-.55.65-1.05 1.75-1.1 1.1-.1 2 .2 2 .65 0 1.45 6-1.5 6.55-3.2.3-.95 1.35-2 2.3-2.3 3.8-1.2 8.75-5.55 6.35-5.55-1.2 0-2.2.45-2.2 1zM23.45 158.45c-1.7 1.3-1.7 1.5-.3 1.5 2.6.05 4.9-1.05 4.3-2.05-.8-1.25-1.75-1.1-4 .55zM188.95 158.1c-.8.4-2.35 1.05-3.4 1.4-1.7.5-1.75.75-.5 1.6 1.25.85 1.25.95-.05.8-2.85-.3-4.1.1-3.5 1.1.95 1.55 7.55 1.3 6.95-.3-.3-.75.55-1.7 1.95-2.25 1.9-.75 2.2-1.2 1.25-2.05-.65-.6-1.9-.75-2.7-.3zM4 158.8c-3.4.55-5.7 4.2-2.65 4.2 1.4 0 6.3-3.8 5.55-4.3-.2-.15-1.5-.1-2.9.1zM206.65 159.05c-14.25 2.35-15.95 14.95-2.05 14.95 1.5 0 3.5.7 4.45 1.55 1.6 1.45 10.95-2.45 10.95-4.55 0-1.05-9.5-3.9-10.35-3.05-.45.45.05 1.15 1.25 1.5 3.55 1.15 2.35 2.55-2.15 2.55-14.2-.05-11-9.55 3.55-10.75 6.6-.5 8.1.2 8.85 4.25.55 3.05 4.35 2.65 4.35-.45 0-4.7-9.1-7.6-18.85-6zM9.15 161.5c-3.3 3.45-.1 3.45 3.65 0 2.4-2.25 2.5-2.5.7-2.5-1.1.05-3.05 1.15-4.35 2.5zM166.5 159.85c1.75 1.6 9.05 2.55 7.4.95-.75-.75-2.95-1.5-4.9-1.6-2.1-.15-3.1.1-2.5.65zM262.25 160.95c-2.9 2.4-2.85 2.75.7 3.25 1.95.3 3.15-.05 3.5-.95.8-2.05.7-2.3-.7-2-.7.15-1.15-.3-1-1 .3-1.6.2-1.55-2.5.7zM161.95 162.05c-1.4.9-1.2 1 2.05 1.3.8.1 1.5.8 1.5 1.65 0 .8.9 1.65 1.95 1.85 1.6.3 1.75.1.85-1-.6-.75-1.15-1.8-1.2-2.35-.05-.55-.45-1-.85-1-.4 0-1.2-.35-1.8-.7-.55-.35-1.7-.25-2.5.25zM271.9 162.85c-2.55.9-5.4 2.3-6.35 3.05-1.95 1.7-10.75 2.3-11.65.85-1.55-2.35-20.9 12.65-20.9 16.2 0 3.15-1.3 4.9-5.8 8-1.85 1.25-3.1 2.5-2.8 2.75.25.3 1.5-.2 2.75-1.1 2.4-1.65 5.85-2.15 5.85-.85 0 .4 2.15 1.6 4.75 2.65 2.6 1 6.35 3.05 8.25 4.55 13 9.9 27.15 15.35 28.35 10.9 2.15-8.05 2.6-7.65-26.85-25.1-10.65-6.3-11.4-7.25-6.75-8.35 1.5-.4 3.2-.95 3.75-1.3.55-.3 2.95-.65 5.3-.7 2.9-.1 4.75-.75 5.7-2 .8-1.05 1.45-1.4 1.45-.8.05 1.5 6.05 1.25 6.05-.25 0-.6 1.15-1.4 2.55-1.75 1.4-.35 2.75-1.25 3.05-2 .3-.85 1.35-1.15 2.6-.85 1.6.45 1.9.25 1.3-.75-.6-1-.35-1.15.8-.7 1.05.4 1.6.15 1.45-.6-.15-.65 1-1.35 2.5-1.5 1.55-.2 2.5-.75 2.2-1.25-.75-1.2-1.9-1.05-7.55.9zM42.5 164.05c-2.2 1.05-6.6 2.85-9.75 4-3.15 1.15-6.4 2.75-7.2 3.5-.75.8-2 1.5-2.75 1.5-2.05.1-11.1 5.3-11.55 6.7-.25.7.15 1.05.9.8.75-.3 3.8-.7 6.8-.95 3.7-.3 5.85-1 6.75-2.2.7-1 1.3-1.4 1.3-.95 0 .4 1.6-.4 3.5-1.9 2.35-1.8 4.2-2.45 5.5-2.05 1.9.6 3.3-.35 14.45-9.7 1.85-1.55-4.05-.65-7.95 1.25zM289.5 164c1.65 1.1 3.9 2 5 2 1.4 0 .85-.6-1.75-2-4.85-2.6-7.15-2.6-3.25 0zM281 164.95c-.8.45-2.6 1.3-4 1.85-2.15.85-2.25 1.1-.75 1.7 1.5.6 10.75-2.9 10.75-4.1 0-.7-4.45-.3-6 .55zM143.65 165.8c-.9 1.45 1 3.3 2.7 2.65 2.1-.85 2.1-2.05.05-2.85-2-.75-2.2-.75-2.75.2zM176.75 166.15c-.85.55-.4.85 1.25.9 1.4.05 3.3.25 4.25.45.95.15 1.75-.05 1.75-.45 0-1.15-5.7-1.85-7.25-.9zM126.5 168.95c-.5.9 5.45 4.05 7.6 4.05.5 0 .9.65.9 1.45 0 2.45-3.7 2.75-12.1 1.05-7.1-1.45-8.35-1.5-9.6-.25-1.25 1.3-.8 1.55 3.85 2.15 8.15 1.1 9.85 1.65 9.85 3.45.05 5.4 7.55 7.25 15.2 3.75 2.95-1.35 6.55-2.7 8.05-3.05 1.5-.3 2.75-1 2.75-1.5 0-2.1 4.95-5.9 6.95-5.35 2.9.75 2.55-1.15-.5-2.55-3.45-1.55-5.5-1.45-4.85.25.7 1.8-1.25 5.6-2.9 5.6-.65 0-5.65-2.25-11.1-5-9.9-5-12.95-5.85-14.1-4.05zm15.95 8.75c1.95.9 3.55 2 3.55 2.45 0 1.55-10.1 3.85-12.1 2.8-3.1-1.65-2.35-4.75 1.35-5.85 1.8-.5 3.35-.95 3.45-1 .15-.05 1.8.65 3.75 1.6zM169 173.5c0 2.45-.45 3.5-1.5 3.5-.8 0-1.5.55-1.5 1.25 0 2.95-8.95 9.4-10.7 7.65-.55-.55-1.75.25-3.15 2.1-2.95 4-1.05 4 6.9-.05 3.95-1.95 6.35-3.9 7-5.55 2.15-5.65 5.7-6.55 9.4-2.45 1.5 1.65 1.95 1.7 4.35.45 3.15-1.6 7.5-1.8 9.95-.4.95.5 5.15 2.5 9.25 4.35 4.15 1.85 9.7 4.4 12.4 5.7 4.3 2.05 5.2 2.15 8 1 1.7-.7 4-1.35 5.1-1.4 2.95-.25 4.5-1.5 4.5-3.7 0-2.3-2.25-2.55-4-.45-.7.8-1.9 1.5-2.65 1.5-.8 0-1.65.7-2 1.5-.6 1.65-3.9 2.05-4.8.55-1.15-1.85-19.05-9.4-32.05-13.45-4.45-1.4-8.95-3.2-10-4.05-3.25-2.4-4.5-1.9-4.5 1.95zM229.4 172.95c2.65 1.35 4.35 1.7 5.5 1.1 1.9-1.1.95-1.55-5.4-2.5l-4-.55 3.9 1.95zM272.4 172.8c-15.85 6.55-3.4 17.45 15.15 13.3 12.55-2.85 14.25-10.9 2.95-14-5.7-1.55-13.35-1.25-18.1.7zm20.3 3.45c3.55 3.55-4.35 7.75-14.55 7.75-5.3 0-10-2.8-8.55-5.15 2.7-4.4 19.4-6.3 23.1-2.6zM102 176c0 1.15 7.25 5 9.45 5 .85 0 1.55-.7 1.55-1.5 0-.9-.95-1.5-2.25-1.55-1.25 0-3.1-.65-4.2-1.5-2.2-1.65-4.55-1.9-4.55-.45zM217 176.85c0 .55.8 1.2 1.75 1.45s-.35.5-2.95.6c-5.5.1-7.05 1.65-3.2 3.15 2 .75 2.95.7 3.45-.15.4-.65 2.25-.95 4.4-.7 3.4.4 3.65.25 3.35-2.15-.3-2.55-6.8-4.65-6.8-2.2zM38.55 185.9c-.3.5 1.05.85 2.95.8 1.95-.05 3.5-.45 3.5-.9 0-1.1-5.75-1-6.45.1zM28.25 190.15c-.1 1.5.4 1.9 2.05 1.65 2.6-.35 2.6-1.9 0-2.9-1.45-.5-1.95-.2-2.05 1.25zM140.55 191.2c-.85 1.25-1.55 2.8-1.55 3.5 0 2.05 2.15 1.5 2.7-.7.3-1.1.95-2 1.4-2 .5 0 .9-.7.9-1.5 0-2.2-1.65-1.85-3.45.7zM183.55 189.9c-.75 1.25.85 2.35 10.7 7.1 8.85 4.3 10.35 6.05 6.8 7.95-3.8 2.05-8.5 1.05-18.5-3.95-9.3-4.7-14.3-5.7-13.3-2.75.45 1.3.85 1.55 11.85 6.75 13.4 6.35 26.4 5.1 26.4-2.6 0-4.05-22.05-15.55-23.95-12.5zM294.5 194.95c-2.2 1.05-6.8 3.1-10.25 4.6-4.85 2.1-6.25 3.2-6.2 4.85 0 2.05.05 2.05 1.45.2 1.95-2.6 3-.05 1.55 3.8-1.15 3-.75 3 6.45.2 1.65-.7 4.35-.9 6-.5 4.6 1 6.5 1 6.5-.1 0-.55-.8-1-1.75-1.05-1.65 0-1.65-.1 0-1.35 1.3-1 1.75-2.75 1.75-6.95 0-6.3.05-6.25-5.5-3.7zM219 196c0 .4 1 1.45 2.25 2.35 1.65 1.1 1.85 1.55.7 1.6-.85.05-2-.35-2.5-.85-1.75-1.75-8.45-2.5-8.45-.95.05 2.65 10.05 6.15 12.15 4.2 1.75-1.55 1.85-1.55 1.85.05 0 1.85 5.35 1.5 7.45-.5 1.25-1.2-2.3-3.85-5.25-3.85-1.25-.05-2.5-.6-2.75-1.3-.5-1.35-5.45-2.05-5.45-.75zM142.6 200.25c-1.55 5.85-2.6 11.1-2.25 11.4.2.2 7.75.3 16.75.15l16.4-.3-5.5-1.85c-3-1-9.25-3.8-13.85-6.25-8.75-4.6-11-5.2-11.55-3.15zM230.05 206.15c-2.45 1.6-5 2.85-5.65 2.85-.65 0-1.7.65-2.4 1.5-1.1 1.3-.35 1.5 5.9 1.5 4.05 0 7.1-.45 7.1-1s2.05-1 4.5-1c2.5 0 4.5.45 4.5 1s2.85 1 6.5 1c3.6 0 6.5-.4 6.5-.85 0-1.4-7.2-2.2-8.7-1-.95.8-1.3.75-1.3-.3-.05-1.75-7.45-5.3-9.05-4.3-.7.45-1.7.15-2.35-.7-.95-1.3-1.75-1.1-5.55 1.3zM54.45 206.1c-1.65 2.65 10.45 5.95 21.1 5.8l6.95-.1-6.35-1.4c-3.5-.75-9.25-2.3-12.85-3.4-7.55-2.3-7.95-2.35-8.85-.9zM87.2 209.2c-1.9 1.9-1.4 2.8 1.65 2.8 3.3 0 4.2-.65 3.45-2.6-.65-1.7-3.45-1.85-5.1-.2z"/></g></svg>