<svg xmlns="http://www.w3.org/2000/svg" viewBox="0, 0, 640, 555"><path d="M637.156 2.633c-1.352.782-3.485.925-8.534.64-3.698-.213-8.818-.071-11.378.285-2.56.355-8.604.996-13.511 1.423-4.906.356-10.169.996-11.733 1.423-1.564.356-4.907.711-7.467.711-2.56.072-6.044.356-7.822.712-1.778.427-8.462.996-14.933 1.423-6.471.356-13.44.996-15.574 1.423-2.062.356-6.755.712-10.311.712-3.555 0-9.955.498-14.293 1.067-4.267.569-10.738 1.067-14.222 1.067-3.556 0-10.311.498-14.934 1.068-4.693.569-11.591 1.067-15.288 1.067-3.698 0-10.88.498-16 1.067-5.049.569-12.729 1.067-17.067 1.067-4.267 0-12.942.499-19.2 1.068-6.258.569-15.716 1.067-20.978 1.067-5.262 0-16.782.498-25.6 1.067-20.693 1.352-60.729 1.352-84.267 0-10.168-.569-22.613-1.067-27.733-1.067-5.049 0-14.364-.498-20.622-1.067-6.258-.569-14.862-1.068-19.2-1.068-4.267 0-12.302-.498-17.778-1.067-5.475-.569-13.155-1.067-17.067-1.067-3.911 0-10.951-.498-15.644-1.067-4.693-.57-11.591-1.068-15.289-1.068-3.698 0-10.595-.498-15.289-1.067-4.622-.569-11.235-1.067-14.578-1.067-3.342 0-9.386-.498-13.511-1.068-4.124-.569-10.311-1.067-13.866-1.067-3.485 0-9.6-.498-13.511-1.067-3.912-.57-9.814-1.068-13.156-1.068-3.342 0-9.244-.498-13.156-1.067-3.911-.569-9.813-1.067-13.155-1.067-3.342 0-7.822-.285-10.098-.641-2.204-.355-7.04-.925-10.809-1.209l-6.826-.498v7.044c0 3.913-.498 10.531-1.067 14.871-.569 4.269-1.067 10.673-1.067 14.231 0 3.486-.355 8.325-.782 10.673-.356 2.348-.853 7.756-1.067 12.096-.213 4.269-.64 9.037-1.066 10.673-.356 1.566-.854 7.969-1.067 14.231-.213 6.261-.64 12.665-1.067 14.231-.355 1.565-.995 8.894-1.422 16.365-.355 7.4-.995 15.725-1.351 18.5-.356 2.704-.64 8.183-.711 12.096 0 3.914-.356 8.539-.782 10.246-.356 1.708-.996 8.539-1.351 15.298-.427 6.689-.996 14.587-1.352 17.504-.355 2.918-.711 10.318-.853 16.366-.284 9.89-.142 11.029.925 11.242 2.417.498 5.76-9.606 5.688-17.29 0-1.21.427-5.693.925-9.962.498-4.34.995-10.104 1.067-12.808 0-2.775.142-5.478.355-6.048.142-.569.64-6.048 1.067-12.096.426-6.048 1.209-16.508 1.778-23.125.568-6.688 1.351-16.934 1.777-22.769.427-5.906 1.138-14.515 1.565-19.212.426-4.696.853-13.519.853-19.709.071-10.602 0-11.243-1.564-13.377-.925-1.21-1.494-2.419-1.28-2.633.853-.925 7.822-1.067 11.733-.284 2.347.426 8.178 1.138 13.013 1.565 4.765.356 10.525.996 12.658 1.352 2.133.284 6.187.64 8.889.64 2.773.071 6.116.356 7.467.783 1.351.356 6.969.996 12.444 1.423 5.476.427 12.231 1.067 14.933 1.423 2.774.356 7.112.64 9.672.64 2.56.072 7.822.57 11.733 1.139 3.84.569 10.382 1.067 14.507 1.067 4.124 0 9.6.356 12.231.712 2.631.356 12.231.996 21.333 1.423 9.102.427 20.267 1.067 24.747 1.423 4.48.356 13.937.64 20.977.711 7.04 0 16.143.356 20.267.712 4.125.427 19.342.854 33.778 1.067l26.311.356.284 1.565c.072.925-.142 3.202-.568 5.195-.427 1.921-1.138 10.459-1.494 18.855-.426 8.397-.995 18.145-1.351 21.702-.355 3.487-.711 9.535-.711 13.377-.071 5.906-.284 7.187-1.493 8.468-.783.853-2.276 2.846-3.343 4.411-1.137 1.637-2.346 3.202-2.773 3.629-.498.356-1.635 1.992-2.631 3.629-.996 1.565-2.276 3.344-2.773 3.913-.569.57-2.276 2.775-3.769 4.91-1.494 2.135-2.987 4.198-3.342 4.625-.356.356-7.04 9.321-14.863 19.923-7.751 10.531-14.577 19.71-15.146 20.279-.498.569-1.778 2.348-2.703 3.913-.995 1.566-2.56 3.629-3.413 4.625-.853.996-2.133 2.562-2.702 3.558-.64.996-7.751 10.602-15.787 21.346-8.106 10.744-15.289 20.635-16 21.844-.782 1.281-1.564 2.348-1.849 2.348-.284 0-1.493 1.566-2.631 3.416-1.138 1.85-2.56 3.842-3.129 4.411-1.777 1.85-7.466 10.247-7.964 11.883-.285.925-.925 1.637-1.422 1.637-.498 0-3.058-2.206-5.831-4.839-2.703-2.704-5.76-5.479-6.756-6.261-.996-.712-5.76-4.341-10.453-7.97-4.765-3.557-8.889-6.546-9.316-6.546-.355 0-.782-.213-.924-.569-.356-.783-4.694-3.7-5.547-3.7-.356 0-.711-.213-.711-.569 0-.285-1.636-1.494-3.627-2.633-1.991-1.21-4.693-2.704-5.902-3.486-5.476-3.274-17.991-9.962-20.124-10.602-.712-.285-1.778-.783-2.347-1.139-.996-.569-3.271-1.636-8.676-3.984-1.28-.499-3.484-1.495-4.977-2.064-1.423-.64-2.845-1.138-3.272-1.138-.355 0-1.635-.498-2.702-1.068-1.138-.569-2.56-1.067-3.2-1.067-.64 0-2.133-.498-3.2-1.067-1.138-.57-2.844-1.068-3.911-1.068-.995 0-2.062-.284-2.489-.64-.355-.356-2.204-.996-4.195-1.423-1.92-.356-5.12-1.067-7.111-1.494-16.498-3.7-28.729-4.768-43.52-3.7-14.792 1.138-19.414 1.067-21.12-.214-1.28-.925-1.565-.925-3.058.498-1.067.996-1.636 2.348-1.636 3.914 0 1.352-.355 3.059-.782 3.842-.569 1.139-.498 1.779.498 2.846 1.138 1.281 1.351 1.281 2.489.214.711-.641 2.844-1.921 4.764-2.775 3.413-1.566 4.196-1.637 25.813-1.708 18.916-.142 22.543 0 23.752.925.924.712 3.057 1.067 5.902 1.138 3.129 0 4.338.285 4.266.854-.142.641 1.209 1.068 4.409 1.281 2.56.214 5.618.925 6.898 1.637 1.28.64 3.2 1.209 4.409 1.209 1.138 0 2.347.285 2.56.712.213.427 1.209.711 2.204.711.996 0 3.058.641 4.623 1.423l5.546 2.847c1.565.782 3.485 1.423 4.196 1.423.782 0 3.555 1.138 6.258 2.49 2.631 1.352 5.404 2.49 6.115 2.49.64 0 1.494.427 1.778.925.284.57 2.204 1.779 4.124 2.704 1.992.925 3.698 1.921 3.912 2.135.213.284 2.133 1.281 4.266 2.348 2.134 1.067 4.48 2.277 5.262 2.775.712.498 4.409 2.846 8.178 5.265 3.769 2.42 7.822 5.195 9.031 6.191 1.28.996 2.631 1.85 3.129 1.85.498 0 2.418 1.352 4.267 2.988 3.627 3.273 10.667 8.823 13.511 10.673.996.641 2.773 1.993 3.911 3.06 2.845 2.49 4.765 3.202 8.889 3.202 3.342 0 3.769-.214 7.68-4.127 4.693-4.696 8.676-9.606 8.676-10.744 0-.498 1.137-1.993 2.488-3.487 1.423-1.423 4.196-4.91 6.258-7.827 2.062-2.917 4.765-6.475 6.045-7.969 1.209-1.494 2.275-2.917 2.275-3.202 0-.285 1.565-2.562 3.485-4.981 1.991-2.49 5.049-6.688 6.897-9.321 1.778-2.704 4.125-5.906 5.049-7.044 4.551-5.55 11.591-15.014 11.591-15.512 0-.355 1.494-2.49 3.414-4.767 1.849-2.277 5.12-6.617 7.253-9.677 2.133-2.988 5.049-6.76 6.471-8.396 1.422-1.565 2.845-3.629 3.058-4.554.284-.854.782-1.565 1.067-1.565.284 0 1.209-1.281 2.133-2.846.853-1.566 1.991-3.06 2.489-3.345 1.209-.782 8.249-10.53 8.249-11.527 0-.427.284-.782.711-.782.355 0 1.493-1.21 2.489-2.704.924-1.423 2.702-3.914 3.84-5.479 1.209-1.565 2.915-3.985 3.911-5.408.924-1.423 2.133-2.988 2.702-3.557.498-.57 1.351-1.779 1.849-2.775l1.92-3.629c.569-1.068 1.422-5.194 1.778-9.25.426-4.056 1.066-9.037 1.422-10.958.427-1.992.711-9.321.64-16.365 0-7.045.284-15.725.782-19.283.569-4.767.569-7.685 0-11.385-.924-5.692-2.346-7.613-6.613-8.823-4.053-1.067-16.925-2.063-18.418-1.28-1.209.569-5.404.071-6.613-.854-.356-.356-9.031-.783-19.2-.996-10.169-.285-22.969-.641-28.445-.783-38.613-1.352-51.626-1.85-54.4-2.135-5.546-.64-26.737-1.779-45.084-2.49-13.796-.498-17.92-.854-18.845-1.708-.782-.711-3.768-1.138-10.026-1.494-4.907-.214-9.814-.712-11.022-.996-1.138-.356-4.552-.498-7.467-.427-7.325.284-13.511-.356-13.298-1.352.071-.498-3.058-.925-9.742-1.281-5.405-.284-10.809-.854-12.018-1.209-1.138-.427-3.698-.783-5.547-.783-2.417 0-3.484-.285-3.484-.925 0-.569-.711-1.352-1.636-1.85-1.493-.783-1.564-1.281-1.422-7.044.071-3.416.427-9.393.782-13.306.356-3.914.569-7.329.427-7.614-.569-.925 1.422-7.684 2.489-8.68.924-.783 2.844-.783 11.804-.072 5.903.499 15.005 1.281 20.267 1.708 5.262.427 12.8 1.139 16.711 1.494 3.911.427 11.947 1.068 17.778 1.423 5.902.356 11.947.854 13.511 1.068 1.565.213 7.68.711 13.511 1.067 28.089 1.921 40.534 2.846 44.302 3.202 2.205.213 9.529.712 16.143 1.138 6.684.356 19.626 1.139 28.8 1.708 9.173.569 23.751 1.352 32.355 1.779 8.605.427 21.547 1.138 28.8 1.565 14.365.925 90.169 1.21 105.956.427 5.262-.284 17.422-.782 27.022-1.209 9.6-.427 22.044-1.068 27.733-1.423 10.169-.783 24.391-1.637 45.156-2.918 5.902-.355 14.862-.996 19.911-1.423 5.12-.356 15.502-1.209 23.111-1.779 7.609-.569 18.062-1.423 23.111-1.778 5.12-.427 13.44-1.068 18.489-1.495 5.12-.355 13.013-1.138 17.636-1.707 4.551-.57 12.231-1.566 17.066-2.135 21.689-2.704 31.858-4.838 34.703-7.258.568-.498 1.635-.925 2.275-.925.782 0 1.209-.569 1.209-1.707 0-2.277-.64-2.562-2.844-1.352zm-2.134 30.454c-.284 13.803-.569 15.511-3.058 17.432-1.208.996-3.342 1.993-4.764 2.277-1.351.285-4.053.783-6.044 1.21-1.92.356-6.4.711-9.885.711-5.262.071-6.187.214-5.831 1.139.427 1.138-.213 1.209-13.44 1.494-3.484.071-10.098.498-14.578.854-4.48.427-9.671.783-11.52.783-2.418.071-3.413.355-3.413 1.067 0 1.281-4.551 1.85-14.507 1.85-9.884 0-38.898 1.209-51.626 2.134-5.263.356-18.205.997-28.8 1.424-10.525.355-23.325.853-28.445 1.067-5.049.142-15.787.498-23.822.783-8.036.213-14.862.711-15.289.996-.356.355-4.693.64-9.6.64-23.324.214-47.004.925-48.853 1.423-1.138.356-3.129 1.566-4.48 2.775-1.92 1.779-2.489 2.989-2.916 5.977-.427 3.415.142 20.564 1.138 32.589.498 5.834.924 11.953 1.422 20.99.925 15.013 1.849 16.792 19.058 34.794 6.044 6.333 13.298 14.017 16.213 17.148 2.845 3.131 8.107 8.61 11.662 12.168 3.485 3.628 11.023 11.384 16.712 17.361 11.662 12.31 11.377 11.954 23.466 24.904 18.489 19.781 27.662 29.173 28.445 29.173.213 0 .995 1.138 1.635 2.49.64 1.352 1.636 2.491 2.205 2.491.64 0 1.422.64 1.849 1.423.426.783 1.208 1.423 1.777 1.423.498 0 1.565.854 2.347 1.921 1.28 1.708 1.92 1.992 6.471 2.206l4.978.284 6.969-7.257c18.915-19.639 27.52-27.964 31.502-30.383 1.351-.854 3.413-2.49 4.551-3.7 1.209-1.21 2.702-2.206 3.342-2.206.711 0 1.494-.355 1.707-.782.782-1.21 13.298-6.902 16.498-7.4 1.564-.214 3.484-.925 4.266-1.423.712-.57 2.347-1.068 3.627-1.068 1.28 0 3.058-.356 3.84-.782.782-.427 6.471-.997 12.587-1.281 9.102-.427 10.738-.641 9.315-1.281-1.351-.64 2.774-.854 18.134-.854 13.297-.071 20.266.214 20.764.712.427.427 4.196 1.067 8.462 1.423 4.267.356 8.178.854 8.676.996.995.356 1.138 4.269.213 7.186-.355 1.139-.853 2.918-1.066 4.056-.498 2.135-2.134 2.491-3.912.925-.64-.569-2.773-1.85-4.764-2.846-3.556-1.779-4.196-1.85-16-1.85-6.827 0-15.431.356-19.129.783-3.698.427-14.578.854-24.178.996-16.071.142-17.706.285-20.835 1.708-1.92.782-4.054 1.494-4.765 1.494-2.275 0-8.604 5.621-22.542 19.994-3.627 3.771-6.613 7.329-6.613 7.969 0 .712-.569 1.21-1.28 1.21-.711 0-3.342 2.277-5.831 5.123-2.56 2.775-5.76 6.262-7.111 7.685-8.036 8.467-15.36 16.65-16.925 18.855-.995 1.352-2.062 2.491-2.347 2.491-.355 0-1.208 1.209-1.991 2.632-.711 1.495-1.991 3.345-2.844 4.056-.853.783-1.493 1.779-1.493 2.348 0 .57-.783 2.064-1.778 3.345-.996 1.28-1.778 2.846-1.778 3.415 0 .64-.498 1.494-1.067 1.992s-1.066 1.423-1.066 2.135c0 .711-.498 1.636-1.067 2.134-.569.499-1.067 1.708-1.067 2.775 0 .997-.497 2.491-1.066 3.202-.569.783-1.067 1.922-1.067 2.633 0 .64-.498 1.565-1.067 2.064-.569.498-1.066 2.063-1.066 3.557 0 1.494-.498 3.843-1.067 5.194-.569 1.424-1.067 3.629-1.067 4.981 0 1.281-.426 2.775-.853 3.273-1.28 1.21-1.209 73.716.071 74.996.996.997 1.067 22.698.071 23.695-1.138 1.138-1.422 32.73-.355 35.861.497 1.352 1.066 4.696 1.351 7.329.284 2.704.995 5.692 1.635 6.617.711 1.139.996 2.562.711 4.27-.284 1.778-.142 2.632.64 2.917.498.213.996 1.067.996 1.992 0 .854.498 1.993 1.067 2.491s1.066 1.423 1.066 2.134c0 1.566 5.12 6.262 7.254 6.689 8.106 1.636 13.084.782 17.066-2.989 1.423-1.352 2.987-3.415 3.485-4.482.426-1.139 1.209-2.064 1.635-2.064.783 0 1.636-1.067 4.125-5.621.782-1.423 2.062-3.202 2.773-4.056.711-.783 1.351-1.85 1.351-2.277 0-.498.356-.854.711-.854.427 0 .711-.427.711-.925 0-.569.64-1.565 1.423-2.277.782-.711 1.422-1.707 1.422-2.276 0-.499.355-.925.711-.925.427 0 .711-.641.711-1.352 0-.783.285-1.566.64-1.779.996-.641 6.898-11.883 7.467-14.302.284-1.21.995-2.704 1.635-3.344 2.631-2.918 8.747-15.085 8.747-17.362 0-1.138.427-1.992 1.28-2.206 1.28-.355 3.698-4.482 3.698-6.261 0-.57.426-1.068.995-1.068s1.565-1.565 2.276-3.557c.711-1.921 1.493-3.558 1.778-3.558.284 0 1.849-2.704 3.413-5.977 1.564-3.344 3.2-6.19 3.627-6.475.355-.213.711-1.209.711-2.134 0-.854 1.28-3.345 2.844-5.408 1.565-2.135 2.845-4.341 2.845-4.981 0-.64.569-1.921 1.28-2.846 1.92-2.49 9.386-16.935 9.386-18.144 0-.498.64-1.637 1.351-2.348 1.849-1.85 3.627-5.337 3.627-7.187 0-.783.427-1.423.996-1.423.995 0 3.271-5.123 3.271-7.329 0-.64.426-1.209.924-1.209.569 0 1.565-1.85 2.347-4.27.711-2.348 1.778-4.269 2.204-4.269.498 0 .925-.498.925-1.067 0-.57.995-2.775 2.133-4.839 1.209-2.134 2.133-4.482 2.133-5.336 0-.854.285-1.566.712-1.566.782 0 3.555-5.123 3.555-6.617 0-.569.64-1.565 1.422-2.277.783-.711 1.423-1.779 1.423-2.419 0-.641.711-1.85 1.635-2.633.853-.854 2.631-3.7 3.982-6.261 1.351-2.633 2.987-5.052 3.769-5.479.711-.356 1.28-1.067 1.28-1.494 0-.498 1.92-3.345 4.267-6.404 2.347-2.989 4.267-5.621 4.267-5.835 0-.498 5.546-6.119 5.973-6.119.213 0 .213 1.352.071 2.988-.284 2.918-1.636 7.543-3.698 12.452-.498 1.21-.924 2.562-.924 2.989 0 1.352-5.618 14.159-11.947 27.109-3.271 6.831-7.111 14.658-8.462 17.433-1.28 2.704-2.845 5.764-3.342 6.76-.569.996-2.347 4.482-4.054 7.827-1.635 3.344-4.337 8.253-6.044 11.028-1.636 2.704-4.622 8.183-6.613 12.097-2.063 3.913-4.48 8.396-5.334 9.961-3.129 5.408-10.382 18.927-10.382 19.354 0 .213-.782 1.494-1.778 2.775-.995 1.281-1.778 2.561-1.778 2.775 0 .285-2.773 5.194-6.186 10.887-3.414 5.763-6.614 11.242-7.111 12.238-.498.996-1.28 2.419-1.778 3.202-3.129 4.838-7.111 11.313-9.529 15.583-1.493 2.632-3.129 5.407-3.484 6.048-.427.64-1.636 2.703-2.845 4.696-1.138 1.921-3.627 5.906-5.475 8.752-1.849 2.917-3.414 5.407-3.414 5.621 0 .213-1.422 2.49-3.058 5.123-1.706 2.561-3.697 5.692-4.48 6.973-.711 1.281-3.271 5.408-5.617 9.25-2.276 3.842-4.765 8.112-5.405 9.463-.64 1.352-2.062 3.416-3.129 4.554-1.706 1.85-2.204 1.993-5.191 1.637-3.555-.427-7.964-2.277-7.964-3.415 0-.356-.498-.641-1.067-.641s-1.067-.356-1.067-.711c0-.427-.782-1.068-1.706-1.424-1.849-.64-7.111-7.257-8.249-10.317-.356-.996-1.209-1.992-1.778-2.206-.569-.284-1.067-1.209-1.067-2.134 0-.925-1.066-3.985-2.417-6.831-1.28-2.846-2.631-6.617-2.916-8.396-.284-1.779-.995-4.056-1.493-5.123-.569-1.067-.996-2.491-.996-3.202 0-.712-.64-2.49-1.422-3.985-.782-1.423-1.422-3.7-1.422-5.052 0-1.28-.427-2.775-.996-3.202-.498-.426-1.138-2.917-1.351-5.905-.213-2.775-.782-5.408-1.209-5.835-.355-.356-.711-2.49-.711-4.696 0-2.419-.427-4.554-1.067-5.408-.711-.925-1.066-3.273-1.066-7.756 0-3.557-.356-8.467-.711-11.028-.711-4.483-.925-39.135-.285-44.116.214-1.352.569-9.392.782-17.788.285-10.958.64-15.868 1.352-17.219.64-1.139.995-4.127.995-7.685 0-3.487.427-6.76 1.067-8.325.569-1.352 1.066-3.7 1.066-5.194 0-1.708.356-2.846 1.067-3.131.711-.214 1.067-1.352 1.067-3.415 0-1.851.569-3.914 1.422-5.195.782-1.209 1.422-2.775 1.422-3.486 0-.783.427-1.921.925-2.491.569-.64 1.351-2.277 1.849-3.628.853-2.277 4.408-9.677 7.324-15.085 2.418-4.483 1.28-11.812-2.489-16.081-1.635-1.85-103.609-103.884-116.907-116.977-.924-.925-1.635-1.281-1.635-.925 0 .356-.853-.213-1.92-1.209-2.133-1.993-7.182-2.989-9.742-1.993-.783.285-2.418 1.423-3.485 2.42-1.066.996-2.204 1.85-2.489 1.85-.284.071-1.777 1.707-3.342 3.7-1.564 1.992-4.551 5.407-6.542 7.542-2.062 2.134-3.769 4.198-3.769 4.483 0 .64-4.764 6.546-7.467 9.178-.995.997-1.777 2.135-1.777 2.42 0 .355-1.138 1.921-2.56 3.557-1.352 1.566-3.2 3.771-4.054 4.91-.853 1.067-2.062 2.49-2.631 3.202-.569.711-2.702 3.344-4.764 5.834-2.063 2.562-4.338 5.266-5.049 6.049-.782.782-3.911 4.625-7.04 8.538-3.129 3.913-6.187 7.542-6.827 8.112-.711.498-1.209 1.28-1.209 1.636 0 .356-1.991 3.06-4.409 5.906-2.489 2.846-6.257 7.542-8.391 10.388-2.133 2.846-5.049 6.262-6.4 7.685s-5.191 6.048-8.533 10.317c-3.342 4.198-8.391 10.46-11.236 13.875-2.915 3.344-6.755 8.183-8.533 10.673-1.849 2.491-4.196 5.55-5.262 6.831-3.485 4.127-4.978 8.539-4.409 13.448.284 2.419.924 5.408 1.422 6.76.569 1.28.996 3.131.996 4.056 0 .853.355 1.849.711 2.063.426.213.711 1.21.711 2.063 0 .925.853 3.487 1.849 5.693 1.066 2.277 1.635 4.554 1.351 5.336-.213.783.071 2.562.711 3.985.569 1.494 1.067 4.056 1.067 5.692 0 1.708.426 3.914.995 4.91.569 1.138.996 4.482 1.067 8.467.071 4.91.355 6.76 1.138 7.329.782.569 1.066 2.206 1.066 6.262 0 3.059.356 6.119.711 6.83.427.783.925 3.771 1.209 6.76.285 3.558.783 5.621 1.423 5.834.64.285.924 1.922.924 5.835 0 3.273.356 5.835.853 6.333.427.427.996 3.558 1.138 6.902.213 4.269.569 6.048 1.209 6.048.64 0 1.067 2.419 1.422 8.681.569 9.89.711 47.957.214 56.069-.214 2.917-.427 6.831-.427 8.681-.142 2.348-.427 3.415-1.138 3.415-.64 0-1.067 1.352-1.351 4.34-.213 2.42-.711 4.696-1.138 5.123-.426.427-.782 1.779-.782 3.06 0 1.21-.498 2.633-1.067 3.131-.64.498-1.066 2.063-1.066 3.771 0 1.565-.427 3.415-.996 3.985-.498.64-1.707 3.344-2.631 6.119-1.778 5.336-4.764 10.388-7.253 12.096-1.351.925-1.707.925-3.983-.498-1.422-.854-4.977-2.917-7.964-4.554-9.244-5.265-18.347-16.294-39.182-47.388-1.067-1.637-2.631-3.629-3.414-4.483-.782-.854-1.422-1.779-1.422-2.064 0-.355-1.28-2.205-2.844-4.126-1.565-1.993-2.845-3.985-2.845-4.412 0-.498-1.422-2.562-3.2-4.625-1.777-2.064-3.2-4.127-3.2-4.554 0-.498-1.351-2.633-2.986-4.767-4.196-5.55-27.591-41.269-29.654-45.396-.497-1.068-2.346-3.985-3.982-6.546-4.48-6.974-11.164-18.145-16.213-27.039-3.911-6.973-5.12-9.036-6.329-10.602-.711-.996-1.991-3.059-2.773-4.625-1.565-3.131-3.556-6.759-10.027-17.931-14.578-25.544-16.925-29.671-16.925-30.169 0-.284-.497-.925-1.066-1.423-.569-.498-1.067-1.423-1.067-2.135 0-.64-.782-2.063-1.778-3.13-1.92-2.064-2.204-2.918-1.066-3.629 1.137-.712 4.48 1.494 7.466 4.909 1.565 1.85 4.551 5.052 6.543 7.258 2.062 2.206 3.768 4.412 3.768 4.91 0 .498.569 1.636 1.352 2.561.711.925 2.488 3.914 3.982 6.689 1.422 2.704 3.058 5.265 3.626 5.55.569.284.996 1.138.996 1.85 0 1.992 2.133 6.688 3.627 8.111.711.712 1.351 1.921 1.351 2.633 0 .783.355 1.423.711 1.423.427 0 .711.783.711 1.708 0 .996.284 1.921.64 2.134.356.214.853 1.21 1.067 2.277.284.996 1.209 2.989 2.133 4.412.924 1.423 1.92 3.415 2.204 4.411.285.997 1.636 2.989 2.916 4.483 1.351 1.423 2.418 3.131 2.418 3.7 0 .569.355 1.067.711 1.067.427 0 1.28 1.139 1.92 2.491.64 1.352 1.422 2.49 1.778 2.49.284 0 1.28 1.067 2.133 2.419 5.262 7.827 7.324 10.531 8.107 10.887.497.142 1.137 1.281 1.351 2.419.284 1.21 1.138 2.491 1.92 2.989.782.498 2.062 2.134 2.844 3.7 1.636 3.202 3.769 6.261 5.974 8.894.853.996 1.991 2.632 2.488 3.629 2.489 4.554 8.818 13.448 9.672 13.448.497 0 .924.427.924.925 0 1.565 5.76 10.673 8.32 13.092 1.28 1.281 2.347 2.917 2.347 3.7 0 .712.497 1.708 1.137 2.277.996.783 5.334 6.831 7.04 9.819.427.641 1.849 2.918 3.2 5.052 1.352 2.206 2.916 4.554 3.414 5.337.498.782 1.209 2.277 1.635 3.344.427 1.138 1.209 1.992 1.707 1.992s1.422 1.423 2.062 3.131c.64 1.708 1.636 3.344 2.205 3.558.569.213 1.493 1.423 1.991 2.775 1.066 2.419 9.386 10.459 10.951 10.459.427 0 1.351.57 2.062 1.21.711.711 3.84 1.85 6.969 2.49 11.307 2.348 18.133-.427 22.613-9.321l2.347-4.625-.284-33.158c-.285-39.348-1.352-57.776-3.485-61.69-.498-.854-.853-3.344-.853-5.55 0-2.561-.498-4.981-1.422-6.76-.783-1.565-1.423-4.198-1.423-5.905 0-1.637-.355-3.416-.782-3.843-.427-.427-.853-2.419-.995-4.482-.072-1.993-.569-4.056-.996-4.483-.427-.427-.782-2.063-.782-3.7s-.427-3.344-.854-3.771c-1.066-1.068-2.702-6.973-3.2-11.527-.142-1.779-.853-3.629-1.493-4.056-.569-.498-1.351-2.419-1.635-4.269-.783-5.337-1.92-9.037-2.703-9.321-.426-.143-.782-1.139-.782-2.277 0-1.067-.498-2.348-1.067-2.846-.568-.498-1.066-1.495-1.066-2.206 0-.783-.498-1.352-1.067-1.352s-1.067-.64-1.067-1.423c0-1.565-6.044-10.744-9.813-14.871-1.28-1.352-2.987-3.558-3.911-4.839-.853-1.28-1.849-2.348-2.276-2.348-.355-.071-1.848-1.494-3.2-3.202-1.351-1.779-2.773-3.202-3.057-3.202-.285 0-1.92-1.28-3.556-2.775-4.124-3.913-10.951-9.321-11.662-9.321-.356 0-1.707-1.138-3.058-2.49-1.351-1.352-2.844-2.491-3.271-2.491-.498 0-2.418-1.28-4.196-2.846-1.848-1.565-4.195-3.344-5.191-3.842-1.066-.569-2.56-1.637-3.271-2.49-.782-.854-1.778-1.495-2.346-1.495-.996 0-1.849-.569-4.552-3.059-.711-.641-1.635-1.21-1.991-1.21-.355 0-.995-.498-1.493-1.067-.498-.569-2.347-1.708-4.124-2.562-1.849-.782-3.485-1.636-3.698-1.921-.711-.925-5.049-2.988-6.4-2.988-.64 0-1.636-.498-2.134-1.068-.497-.569-1.777-1.067-2.844-1.067s-2.347-.427-2.773-.996c-.427-.498-1.991-1.139-3.485-1.423-1.422-.214-4.551-1.21-6.898-2.206-2.346-.996-5.262-1.779-6.542-1.779-1.209 0-2.489-.356-2.702-.711-.213-.427-1.636-.712-3.129-.712s-4.551-.64-6.898-1.423c-3.2-1.067-6.257-1.423-12.729-1.423-4.693-.071-10.311-.427-12.444-.783-8.96-1.565-11.378-1.565-15.431-.213-5.618 1.921-9.173 6.048-9.885 11.456-.284 2.348-.995 4.482-1.777 5.265-1.494 1.494-2.774 1.779-2.774.64 0-.925-5.475-6.403-6.4-6.403-.426 0-.711 2.276-.711 5.051 0 4.697.356 6.049 2.916 10.602.355.57 1.066 1.993 1.635 3.202.569 1.139 2.063 3.7 3.2 5.693 1.138 1.921 2.987 5.123 3.983 7.115.995 1.921 2.915 5.479 4.266 7.827 1.28 2.348 3.271 5.835 4.267 7.827.995 1.921 2.489 4.483 3.2 5.692.711 1.139 2.204 3.7 3.2 5.692.995 1.922 2.987 5.479 4.267 7.827 1.351 2.348 2.773 4.91 3.2 5.693.426.782 1.848 3.344 3.2 5.692 1.351 2.348 2.773 4.91 3.2 5.692.426.783 1.351 2.348 2.133 3.558.711 1.138 2.204 3.7 3.2 5.692.995 1.921 2.418 4.483 3.2 5.693.782 1.138 1.707 2.775 2.133 3.557.427.783 1.849 3.344 3.2 5.693 1.351 2.348 2.774 4.909 3.2 5.692.427.783 1.351 2.348 2.134 3.558.711 1.138 2.204 3.7 3.2 5.692.995 1.921 2.417 4.483 3.2 5.692.782 1.139 1.706 2.775 2.133 3.558.427.783 1.351 2.348 2.133 3.558.782 1.138 1.707 2.775 2.134 3.557.924 1.85 4.337 7.827 6.328 11.029.783 1.352 1.778 3.131 2.205 3.914.427.782 1.351 2.348 2.133 3.557.782 1.139 1.707 2.775 2.134 3.558.426.783 1.28 2.277 1.991 3.344.64 1.067 2.631 4.269 4.337 7.116 1.707 2.846 3.343 5.336 3.627 5.55.285.213.711.853.925 1.423.284.569 1.137 1.992 1.92 3.202.782 1.138 1.635 2.632 1.92 3.202.213.569 1.28 2.205 2.346 3.557 1.067 1.352 2.134 2.989 2.347 3.558.284.569 1.138 1.992 1.92 3.202.782 1.138 1.778 2.846 2.204 3.7.498.925 1.067 1.636 1.351 1.636.285 0 .712.57.996 1.21.498 1.565 1.564 3.273 4.196 6.688 1.066 1.424 1.92 2.847 1.92 3.131 0 .285.924 1.708 1.991 3.131 1.137 1.423 2.275 3.131 2.489 3.771.284.712.782 1.281 1.208 1.281.356 0 .712.356.712.711 0 .854 2.915 5.195 3.768 5.55.285.143.498.57.498.997 0 .355 1.351 2.49 3.058 4.696 1.636 2.277 3.342 4.625 3.698 5.265.426.64 2.631 3.985 4.978 7.329 2.346 3.344 4.693 6.902 5.191 7.898.497.925 1.209 1.708 1.635 1.708.356 0 .64.356.64.782 0 .427 1.351 2.562 3.058 4.768 2.987 4.055 8.036 11.242 9.387 13.519 2.915 4.838 12.373 16.508 17.422 21.488 6.827 6.831 10.524 8.539 18.347 8.539 2.773 0 4.408.285 4.408.783 0 .782 1.778.64 9.529-.57 3.414-.569 3.556-.64 4.765-4.127.711-1.992 1.28-4.269 1.28-5.051.071-.854.569-2.491 1.138-3.558.568-1.139 1.066-2.562 1.066-3.202 0-.641.498-2.135 1.067-3.202.569-1.138 1.067-2.775 1.067-3.629 0-.854.284-1.708.64-1.921.355-.285.853-1.779 1.137-3.487.285-1.636.854-3.628 1.28-4.411.783-1.352.996-2.562 2.631-12.452.427-2.562 1.209-6.902 1.636-9.606 1.209-6.973 1.138-49.879-.071-58.346-1.138-8.254-2.916-18.927-3.769-23.481-.427-1.992-.996-5.479-1.28-7.827-.284-2.348-.924-5.905-1.351-7.827-1.138-5.407-2.347-12.878-2.987-18.998-.284-3.059-.924-7.044-1.28-8.894-.782-3.558-1.849-9.748-2.915-16.65-.356-2.134-.925-5.052-1.351-6.404-.712-2.277-1.423-5.123-3.058-12.736-.356-1.708-.996-3.487-1.351-3.843-.427-.426-.711-1.494-.711-2.419s-.427-2.561-.925-3.557c-.569-1.068-1.422-2.918-2.062-4.127-1.138-2.277-.782-3.985 1.138-5.622.426-.426 2.062-2.276 3.626-4.269 1.565-1.921 3.271-3.984 3.698-4.482.498-.499 2.418-2.918 4.267-5.337 1.92-2.419 3.911-4.91 4.48-5.479.64-.64 2.986-3.486 5.333-6.404 2.347-2.917 4.409-5.479 4.622-5.692.214-.213 2.134-2.633 4.267-5.337 2.133-2.775 4.267-5.336 4.693-5.692.427-.427 1.849-2.134 3.2-3.913 2.063-2.704 5.191-6.546 14.863-18.216.711-.854 2.986-3.7 5.048-6.404 2.134-2.703 4.196-5.265 4.623-5.621.426-.427 1.849-2.134 3.2-3.913 2.346-3.131 12.017-14.942 15.146-18.5.854-.996 2.631-3.202 3.983-4.981 1.351-1.779 3.413-4.34 4.622-5.692 1.138-1.423 3.271-3.985 4.622-5.693 1.351-1.707 4.124-5.051 6.044-7.471 1.992-2.348 4.694-5.692 6.045-7.471 1.351-1.708 3.271-3.984 4.195-4.981.854-.996 2.418-3.13 3.414-4.838 1.92-3.202 4.764-4.127 5.475-1.779.214.712 28.231 29.102 62.294 63.185 61.866 61.832 64.142 64.252 60.942 65.532-.498.143-1.707 1.85-2.631 3.7-.996 1.85-1.991 3.487-2.205 3.7-.426.356-2.489 4.625-6.257 12.95-.783 1.85-1.494 3.629-1.494 4.056 0 .427-.426 1.779-.995 3.06-1.849 4.411-3.414 10.602-6.116 25.117-.427 2.348-1.067 8.61-1.493 13.875-.356 5.265-.925 14.089-1.28 19.567-.925 13.164-.925 53.437 0 59.77.355 2.703.995 7.4 1.351 10.317.284 2.917.924 6.76 1.351 8.538.782 3.487 1.991 9.677 2.916 15.156.355 1.85.924 4.412 1.351 5.692.64 2.277 1.706 6.404 2.915 11.172.569 2.348 1.067 3.984 3.271 10.103 2.347 6.547 3.414 9.037 5.334 13.022 1.137 2.348 2.062 4.482 2.062 4.767 0 .285 1.493 2.704 3.342 5.336 1.778 2.704 4.196 6.191 5.333 7.756 1.067 1.637 2.987 3.344 4.267 3.914 1.28.498 3.485 1.707 4.836 2.775 2.915 2.205 9.031 4.269 12.586 4.269 3.556 0 7.04-2.348 8.676-5.906 4.409-9.463 4.764-10.104 8.96-16.508 3.2-4.838 4.267-6.475 5.333-8.538.427-.783 1.351-2.419 2.134-3.558.782-1.209 1.706-2.775 2.133-3.557.427-.783 1.351-2.42 2.133-3.558.782-1.21 1.707-2.775 2.134-3.558.426-.782 1.351-2.419 2.133-3.557.782-1.21 1.707-2.776 2.133-3.558.427-.783 1.28-2.277 1.991-3.344.64-.997 3.627-5.764 6.543-10.531 2.915-4.696 5.902-9.464 6.542-10.531.711-1.067 1.564-2.561 1.991-3.344.427-.783 1.351-2.419 2.133-3.558.782-1.209 1.707-2.775 2.134-3.558.426-.782 1.706-3.059 2.915-4.98 1.138-1.993 2.631-4.554 3.2-5.693.569-1.209 1.636-3.13 2.418-4.269.782-1.209 2.204-3.771 3.2-5.692.995-1.993 2.489-4.554 3.2-5.692.782-1.21 2.204-3.772 3.2-5.693.995-1.992 2.489-4.554 3.2-5.692.782-1.21 2.204-3.771 3.271-5.692.996-1.993 2.916-5.479 4.196-7.827 1.351-2.348 3.271-5.906 4.266-7.827 1.067-1.993 2.987-5.479 4.267-7.827 1.351-2.348 3.2-5.906 4.267-7.827.995-1.992 2.133-4.127 2.488-4.767 1.565-2.775 2.347-4.341 9.956-19.781 4.409-8.823 8.249-16.508 8.604-17.077.356-.569.854-1.565 1.067-2.135.213-.569 1.422-3.13 2.56-5.692 1.138-2.562 2.56-5.763 3.2-7.115.569-1.352 1.493-3.416 2.062-4.483.569-1.139.996-2.562.996-3.273 0-.641.498-1.85 1.067-2.633.568-.711 1.066-2.134 1.066-3.131 0-1.067.356-2.205.782-2.632.427-.427.996-1.85 1.352-3.131.711-3.06 2.133-6.973 3.057-8.823.427-.783.996-2.348 1.28-3.558.925-3.7 3.129-9.606 5.334-14.088.569-1.139.995-2.562.995-3.202 0-.641.498-1.85 1.067-2.562.569-.782 1.067-1.921 1.067-2.632 0-.641.497-1.566 1.066-2.064.569-.498 1.067-1.423 1.067-2.135 0-.711.498-1.636 1.067-2.134.568-.498 1.066-1.352 1.066-1.921 0-1.068 2.845-4.91 6.614-9.037 1.066-1.209 1.92-2.704 1.92-3.344 0-1.992.782-3.487 1.848-3.487.569 0 .996-.64.996-1.423 0-.782-.427-1.423-.996-1.423-1.208 0-1.848-1.565-1.848-4.696 0-1.352-.498-3.629-1.138-5.123-1.422-3.344-1.494-9.748-.071-12.95 1.635-3.842 2.133-11.456.924-13.021-.924-1.139-1.493-1.281-4.124-.712-1.92.427-5.191.427-8.747 0-8.747-1.067-57.742-1.067-65.422.071-15.005 2.135-23.182 4.056-27.876 6.475-.711.356-3.058 1.424-5.191 2.42-2.204.996-5.689 2.988-7.751 4.34-2.062 1.423-3.911 2.562-4.124 2.562-.498 0-9.032 6.688-12.658 9.961-8.534 7.542-25.529 25.971-29.085 31.45-1.777 2.775-4.053 2.562-6.186-.427-2.063-2.917-6.685-7.827-24.889-26.754-7.68-8.04-15.218-15.867-16.64-17.432-6.329-6.76-24.605-25.971-29.511-31.023-2.916-2.989-9.671-10.033-14.934-15.654-15.004-16.01-22.613-23.979-29.226-30.668l-6.116-6.19-.782-7.685c-.427-4.198-.996-11.882-1.209-17.005-.213-5.123-.711-11.243-1.067-13.52-.426-2.276-.711-7.755-.782-12.025 0-4.34-.355-9.605-.711-11.74-.427-2.135-.924-5.123-1.138-6.617l-.355-2.633h31.502c17.351-.071 37.049-.356 43.662-.711 6.685-.356 21.476-.997 32.925-1.424 11.448-.355 23.608-.996 27.022-1.423 3.413-.355 9.884-.711 14.364-.711 4.48-.071 11.734-.356 16-.783 4.338-.356 14.365-.925 22.4-1.352 8.036-.356 16.285-.996 18.418-1.423 2.062-.356 6.542-.711 9.956-.783 3.342 0 8.391-.284 11.093-.64 2.773-.356 9.884-.996 15.929-1.423 6.044-.427 11.306-.996 11.662-1.21.356-.213 4.267-.64 8.604-.925 4.338-.355 9.814-.925 12.16-1.352 2.347-.355 7.183-1.067 10.667-1.494 10.951-1.352 12.089-1.565 12.658-2.063.284-.285.213-2.206-.213-4.198-.356-2.064-.712-7.97-.854-13.164-.142-10.815-1.066-16.152-1.28-7.257zm-19.484 206.061c1.778.783 3.982 2.562 4.906 3.771 1.494 1.993 1.778 3.131 1.778 7.471 0 5.977-1.066 8.61-5.049 12.025-2.702 2.348-5.617 7.614-5.617 10.247 0 4.34-5.903 17.575-10.738 24.05-.996 1.351-1.991 2.846-2.134 3.273-.142.427-.995 1.707-1.92 2.846-8.746 11.313-19.342 26.469-19.342 27.821 0 .427-.284.925-.569 1.067-.64.214-.924.641-5.475 9.606-1.565 3.06-3.271 5.977-3.698 6.475-.498.498-.924 1.352-.924 1.779 0 .854-12.303 25.473-17.707 35.363-1.565 2.918-3.058 5.835-3.342 6.404-.214.569-.711 1.708-1.138 2.419-.356.712-1.991 3.771-3.627 6.76-1.564 2.988-4.266 7.969-5.973 11.1-1.707 3.131-4.053 7.613-5.262 9.962-1.209 2.348-3.271 6.19-4.551 8.538-1.352 2.348-3.343 6.048-4.48 8.183-4.978 9.463-7.467 13.946-8.392 15.013-.568.569-.995 1.637-.995 2.277 0 .64-.285 1.281-.64 1.565-.356.214-1.636 2.206-2.773 4.483-3.698 7.187-10.596 20.35-12.374 23.623-1.706 3.202-4.409 7.329-10.738 16.579-1.848 2.633-3.342 4.981-3.342 5.265 0 1.139-6.755 8.468-8.604 9.393-2.987 1.423-6.827 0-9.885-3.629-3.555-4.127-5.546-10.531-7.111-22.627-.355-2.917-.995-6.119-1.422-7.187-.996-2.348-.569-22.271.64-33.726.782-6.76.782-10.958.142-20.279-3.342-49.168-2.062-80.902 3.911-94.421.569-1.21.996-2.562.996-2.918 0-.427.427-1.636.995-2.775.569-1.067 2.134-4.269 3.414-6.973 1.28-2.775 2.773-5.408 3.271-5.906.427-.498.853-1.209.853-1.565 0-.783 5.902-9.392 7.609-11.242 1.707-1.779 14.08-15.227 18.418-19.995 1.92-2.134 8.178-8.68 13.867-14.586 5.688-5.906 12.657-13.235 15.573-16.223 2.844-3.06 6.827-6.617 8.818-7.898 6.542-4.341 8.889-4.696 27.804-4.696 14.151.071 29.085-.854 30.08-1.779.071-.143 4.978-.285 10.88-.356 9.671-.142 11.022 0 13.867 1.423zm-581.618 5.692c1.067.498 7.467 1.139 14.08 1.423 11.662.57 20.267 1.708 26.311 3.487 25.387 7.471 33.493 11.812 61.511 32.802 14.791 11.029 18.276 13.946 25.458 21.275 3.982 3.985 13.013 15.369 15.573 19.567 1.92 3.131 5.903 11.883 5.903 12.879 0 .64.426 2.135.995 3.344.996 2.419 2.205 6.76 3.271 11.669.356 1.637.925 3.558 1.28 4.27.64 1.281 1.28 3.486 3.414 11.954l2.062 8.538c1.706 6.617 3.2 13.804 3.911 18.714.355 2.49.995 5.692 1.422 7.115.356 1.423.711 4.056.711 5.835 0 1.778.427 6.261.996 9.961.782 4.981 1.066 16.223 1.209 42.337.213 39.348.355 37.498-4.409 42.336-2.702 2.633-4.551 3.131-10.169 2.704-4.409-.356-9.671-2.846-13.867-6.546-2.631-2.348-10.738-13.306-12.089-16.437-1.777-4.055-10.88-18.215-17.066-26.682-2.205-2.989-4.267-5.906-4.694-6.547-1.28-2.134-13.44-20.136-13.866-20.492-.214-.213-2.56-3.7-5.334-7.827-2.702-4.127-5.191-7.613-5.475-7.684-.356-.143-.569-.57-.569-.997 0-.355-1.422-2.561-3.2-4.838-1.778-2.277-3.2-4.34-3.2-4.625 0-.285-1.422-2.348-3.2-4.625-1.778-2.277-3.2-4.483-3.2-4.91 0-.355-.427-.996-.925-1.28-1.422-.854-9.457-11.741-11.235-15.227-.925-1.708-1.778-3.273-1.991-3.487-.782-.711-8.889-17.931-9.671-20.492-.214-.854-.783-1.566-1.138-1.566-.356 0-.64-.498-.64-1.067 0-1.209-2.916-7.044-3.698-7.329-.284-.142-.569-.569-.569-.996 0-.783-4.906-9.179-5.689-9.819-.213-.214-1.422-1.779-2.631-3.558-1.209-1.779-3.058-4.198-4.124-5.336-1.067-1.21-3.556-4.198-5.618-6.76-2.133-2.561-5.049-5.977-6.542-7.542-1.565-1.566-4.054-4.483-5.618-6.404-1.493-1.921-2.987-3.629-3.2-3.842-.853-.712-9.031-11.812-10.453-14.231-2.845-4.625-7.325-13.804-7.325-14.942 0-.57-.426-1.922-.995-2.989s-1.423-4.269-1.849-7.115c-1.636-10.033 1.493-14.8 9.742-14.8 2.418 0 5.262.355 6.4.782zm596.48 7.756c.498.854-.356 4.269-1.067 4.269s-1.564-3.415-1.066-4.269c.284-.427.711-.711 1.066-.711.356 0 .783.284 1.067.711zm-587.022 61.192c0 .356-.498.712-1.067.712s-1.067-.356-1.067-.712c0-.426.498-.711 1.067-.711s1.067.285 1.067.711zm590.364-238.578c-1.92 5.763-3.555 26.398-4.835 59.982-.214 5.266-.711 14.373-1.067 20.279-.356 5.835-.996 19.852-1.422 31.094-.711 19.781-.711 20.493.711 23.623 1.493 3.487 3.129 4.127 4.338 1.85.426-.782 1.066-9.961 1.493-21.203.356-10.816.996-24.05 1.28-29.316.356-5.265.64-14.657.711-20.777.071-6.119.427-13.804.782-17.077.783-6.83.854-50.092.071-52.013-.355-.996-.924-.071-2.062 3.558zm-196.409 469.9c-8.106 1.209-28.089 2.134-48 2.063-11.306 0-34.986.498-52.622 1.139-33.209 1.209-44.729 1.067-84.622-1.281-22.685-1.352-28.302-1.21-30.649.569-3.484 2.561-2.916 2.988 4.48 3.415 3.84.285 9.671.783 13.013 1.21 7.609.925 185.458.356 196.623-.569 4.337-.427 8.604-1.068 9.6-1.495.995-.426 2.915-.924 4.337-1.209 1.494-.214 2.987-.854 3.485-1.423.498-.569 1.351-1.068 1.849-1.068 1.92 0 .995-1.28-1.209-1.707-2.987-.569-11.378-.427-16.285.356z" fill="#F08080"/></svg>