<svg version="1" xmlns="http://www.w3.org/2000/svg" viewBox="0 0 300.000000 225.000000"><path d="M94.5 16.85c-18.7 7.55-37.9 15.2-42.7 17-5.25 1.95-8.9 3.95-9.25 4.95-1.65 5.35-3.3 62.65-1.8 63.5.4.25 8.6-.65 18.25-1.95 9.75-1.3 17.65-1.95 17.8-1.45.15.5 1.05.7 2 .45 1.85-.45 9.9 12.8 9.45 15.65-.8 5.15-1.05 10.35-.6 11.55.95 2.45 2.6 1.6 1.95-1-.35-1.35-.2-2.65.25-2.95.5-.3 1.1 1.4 1.4 3.8.25 2.55 1.4 5.35 2.6 6.7 1.2 1.25 2.15 2.85 2.15 3.6 0 .7.5 1.2 1.15 1.05.6-.15 1.3.3 1.55 1s-.35 1.25-1.35 1.25c-1.55.05-1.6.2-.35 1s1.3 1.3.2 3c-.7 1.15-1 2.55-.65 3.1.35.6-.3 1.95-1.45 3-2.1 2-2.1 2-3.05-.45-.5-1.35-1.4-2.75-2-3.15-.6-.35-.15 1.3 1.05 3.75l2.1 4.35-2.6 3.95c-1.4 2.15-2.9 4.4-3.35 5-.4.55-1.6 2.55-2.65 4.5-4.85 8.75-9.95 12.35-10.4 7.3-.1-1.25-1.05-4.6-2.15-7.5-1.35-3.45-1.65-5.5-.95-5.9 1.2-.75 1.8-12.8.85-18.45-.55-3.2-.7-2.3-.95 4.5l-.3 8.5-.85-11.5c-.45-6.35-.65-11.95-.4-12.5.2-.55.45.45.45 2.2.05 1.75.6 3.5 1.25 3.9.7.45.9.25.45-.45s-.1-1.15.85-1.15c.85 0 1.55-.5 1.55-1.05 0-.6-.45-.8-1-.45-.6.35-1.05-1.1-1.1-3.7-.2-8.4.3-11.35 2.3-13.5 1.1-1.15 1.7-2.65 1.3-3.25-.35-.65-.15-3.35.5-6.05 2.95-12.2-3.25-2.7-11.45 17.5-4 9.95-4.2 11.7-2.05 16.9l1.55 3.65-4.3-.7c-2.35-.35-4.55-1.05-4.85-1.6-.35-.5-1.45-.85-2.5-.7-3.45.35-4.55 0-3.75-1.3.4-.75-.05-.6-1.15.25-1.05.8-1.6 1-1.25.45.4-.7-.55-1.1-2.55-1.15-4.9-.05-14.4-1.85-15.9-2.95-.7-.55-2.85-1.1-4.8-1.2-3.6-.2-18.1-2.75-21.25-3.75-1.35-.4-1.75.05-1.75 2.05 0 1.85.5 2.55 1.95 2.55 1.05 0 2.15.4 2.45.85.3.5-.55.65-1.95.4-1.45-.3-2.45 0-2.45.7 0 .65.4.9.9.6 1.45-.9 4.15.55 3.45 1.8-.4.65-.3.8.15.4.45-.4 1.45-.2 2.2.4.75.6 1.65.85 2 .45 1.15-1.1 1.2-3.6.1-3.6-.55 0-.75.7-.45 1.5.35.85.2 1.5-.25 1.5-.5 0-1.1-.95-1.4-2.1-.5-1.95-.25-2.05 3.1-1.4 4.5.85 5.4 1.35 4.6 2.65-.35.55.2.85 1.25.65 1.05-.15 1.75.25 1.6.95-.15.7.3 1.25 1 1.3.75 0 .5.6-.6 1.4-2.1 1.6-1.25 4 1.05 3.1 1.15-.45 1.35-.15.8 1.2-.4.95-.95 2.55-1.25 3.5-.25.95-.85 1.75-1.25 1.75-1.1 0-.7-3.35.5-4.35.6-.5.5-.65-.35-.45-.7.2-1.3.8-1.3 1.3-.05.55-.45 1.8-1 2.75-.6 1.15-.55 1.75.15 1.75.65 0 .85.45.5 1s.05 1.25.85 1.6c3.15 1.2 2.85 3.55-.4 3.25-1.7-.2-3.4.2-3.85.95-.4.7-1.2 1.2-1.7 1.1-.5-.15-2.15.3-3.7.95-1.55.65-3.25 1.15-3.75 1.15-.55 0-.95.5-.95 1.05 0 .6-.35.85-.75.6s-.9 1.75-1.05 4.5l-.3 4.9 3.55-1.45c2.05-.85 3.55-1.05 3.55-.5s1.1.2 2.45-.8c1.4-1 2.3-2.3 2.1-2.95-.2-.6.05-1.55.6-2.1.7-.7.65-1.25-.05-1.7-1.7-1.05-1.3-2.15 1.3-3.3 1.85-.85 2.85-.75 4.45.35 1.85 1.3 2.05 1.3 1.55.05-.75-2 1.15-2.95 2.8-1.35 1.85 1.9 4.3 1.05 2.7-.9-.95-1.2-.85-1.3.55-.75 1.45.55 1.65.25 1.1-1.5-.4-1.3-.25-2.15.4-2.15.55 0 1.05.4 1.05.85 0 .5 1 .8 2.25.7 1.25-.1 2.8.25 3.5.75.7.55 1.25.65 1.25.3 0-.3.9.3 2 1.4 1.1 1.1 2 2.4 2 2.9s.55 1.15 1.25 1.4.9.8.45 1.3c-.45.45-1.1.4-1.5-.15-1.65-2.25-6.3-3.9-7.15-2.55-.45.8-1.35 1-2.05.6-.95-.6-.85-1 .4-1.7 1.95-1.1 1.15-2.95-.95-2.15-.8.3-1.45 1.4-1.45 2.45 0 1.05-.35 1.9-.8 1.9-.45 0-1.7.7-2.75 1.55-1.85 1.5-1.7 1.55 1.9.95 2.1-.35 3.6-.25 3.35.2-.75 1.2 12.8.65 15.2-.65 1.1-.6 4.25-1.15 7.05-1.3 2.75-.15 5.05-.5 5.05-.85s.85-1 1.85-1.5c1.8-.85 1.8-1-.35-3.2-2-2.15-2.35-2.2-3.8-.75-1.9 1.9-3.1 2-2.4.15.7-1.75-1.15-3.6-3.55-3.6-1.75 0-1.75-.15-.3-1.6.9-.9 2.3-1.35 3.15-1 .85.35 2.25-.1 3.1-1 1.2-1.15 1.8-1.25 2.3-.35.55.85.95.85 1.45.05.35-.6 1.1-1.1 1.6-1.1 1.4 0 1.15 2.75-.3 3.35-.7.25-.2.55 1.1.55 1.75.1 2.2-.3 1.75-1.5-.4-1.05.05-1.75 1.5-2.15 1.85-.45 1.65-.75-1.6-2.25l-3.75-1.75 3.15-.45c2.35-.35 3.05-.1 2.65.85-.25.75.2 1.35 1.05 1.35.9 0 1.4.7 1.25 1.75-.15.95.1 2.4.6 3.15.6.95.5 1.2-.3.7-.65-.4-1.15-.25-1.15.35 0 .55.55 1.1 1.25 1.15.7.05-.1.45-1.75.95-1.8.55-3.3.55-3.95-.1-.5-.5-2.8-.95-5.05-.95s-4.75-.55-5.5-1.25c-.8-.7-.6-.2.5 1.05 1.2 1.45 2.65 2.15 3.8 1.85 2.5-.7 4.7.25 4.7 1.95 0 .75.45 1.4.95 1.4.55 0 .7-.75.35-1.65-.55-1.4-.3-1.35 1.3.25 1.4 1.35 1.6 2 .7 2.2-.7.2-1.3 1.2-1.3 2.25 0 1.1-.45 1.95-1 1.95s-1 .65-1 1.5c0 1.4-1.7 1.95-4.65 1.6-.65-.1-1.55.4-1.95 1.05-.45.7-.3.9.45.45.65-.4 1.45-.05 1.75.85.35.85 1.05 1.55 1.55 1.55.55 0 .7-.45.35-1-1.1-1.8 1.15-1.05 3 1 .95 1.05 2.1 1.75 2.55 1.5.4-.3 1 .15 1.25.9.3.75 2.15 1.65 4.1 2 2 .4 3.6 1.1 3.6 1.6s.65.7 1.5.35c.8-.3 1.2-1 .9-1.55-.4-.6.1-.55 1.25.05 1 .55 2.6 1.25 3.55 1.5 1.5.5 1.65 2.5 1.45 20.05-.2 21.5-.2 21.4-4.5 19.15-3.75-1.9-4.15-1.95-4.15-.05 0 .8-.65 1.5-1.5 1.5-.8 0-1.5-.45-1.5-1s-.85-1-1.95-1c-1.05 0-2.25-.5-2.6-1.05-.75-1.25-5.35-3.3-7.2-3.25-2.8.1-3.25.35-3.25 1.85 0 .85-.45 1.3-1 .95-.55-.35-1-.15-1 .45 0 .65-1.1.85-2.75.55-2.3-.45-2.4-.35-.75.4 2.05 1 1.6 1.3-2.25 1.5-2.35.1-3.2 1.8-1.2 2.45.7.25.95-.05.55-.7-.4-.65-.25-1.15.35-1.15.55 0 1.05.45 1.05 1.05 0 1.75 14.95.85 16.05-1 .85-1.4 1.1-1.35 2.35.25 1.5 1.9 15.9 2.4 18.75.6.75-.5 1-.9.55-.9-.4 0-.25-.95.35-2.15.9-1.65.85-2.3-.2-2.95-.95-.65-.7-.85 1-.9 1.9 0 2.3-.4 1.85-2.05-.35-1.3-.1-1.9.65-1.65.6.2 1.15.9 1.15 1.55 0 .7.45 1.55 1 1.95 1.4 1 1.85 5.2.55 5.2-.55 0-1.05.65-1.05 1.4 0 .9.7 1.25 2 .9 1.1-.3 2-.95 2-1.4 0-.5.5-.9 1.1-.9.6 0 .85.65.55 1.5-.45 1.2.25 1.5 3.45 1.5 3.7 0 4-.15 3.3-2.25-.6-2-.5-2.1 1-.8.95.75 1.65.95 1.55.45-.4-1.95.1-3.4 1.1-3.4.6 0 .8.85.5 1.85-.8 2.5 1.8 4.65 4.05 3.35 1.15-.65 2.75-.6 4.65.05 1.55.55 3.15.7 3.45.35.35-.3-.75-.85-2.5-1.2-1.7-.35-3.3-1.25-3.6-1.95-.3-.85 0-1.15.95-.8 2.95 1.15 1.35-.6-2.05-2.2-2.2-1.05-4.45-1.4-6.15-1-2.4.6-2.55.5-1.4-.9 1.5-1.8 1.55-1.7-2.25-3.35-1.55-.65-2.5-1.7-2.15-2.3.35-.55-.25-.45-1.4.25-1.1.7-1.8 1.6-1.55 2.05.3.45-.2.8-1.05.8-.85 0-1.5-.35-1.45-.75.5-3.05-.25-4.45-2.1-3.95-1.75.45-2 0-2-3.45 0-2.9.35-3.8 1.25-3.25 1 .55 1 .4 0-.65-1.5-1.6-1.7-9.95-.25-9.95.55 0 1-.5 1-1.05 0-.6-.45-.8-1-.45-.6.35-1-.7-1-2.55 0-2.7.3-3.1 2-2.65 1.1.3 2 .1 2-.4s-.9-.9-2-.9-2-.65-2-1.45c0-1.9 3.65-3.95 4.5-2.55.35.55-.1 1-.95 1s-1.55.5-1.55 1.05c0 .6.4.8.9.5.5-.3 1.15.1 1.45.9.45 1.15 1 1.2 3 .25 1.65-.8 2.2-1.55 1.6-2.3-1.35-1.6 0-2.5 2.1-1.35 2.5 1.3 4.65.25 5.4-2.6.4-1.75 1.3-2.45 3-2.45 1.35 0 2.65-.35 2.9-.75.35-.6-2.7-.75-6.55-.35-.35.05-.8 1.35-1 2.85-.35 3.35-2.9 3.65-4.3.5-.55-1.25-1.5-2.1-2.1-1.85-.6.25-1.7 0-2.5-.5-1.05-.65-.75-.85 1.15-.9 1.4 0 3.2-.55 4-1.25.75-.7 1.1-.85.7-.35-.4.5-.15 1.6.5 2.45 1 1.2 1 1.4 0 .8-.75-.5-1.25-.2-1.25.7 0 .8.7 1.7 1.5 2 1.1.45 1.5-.15 1.5-2.3 0-1.6.55-3.1 1.25-3.4.75-.3.5-.55-.55-.55-1-.05-1.55-.5-1.25-1 .3-.5 1.9-.7 3.55-.45 2.65.4 3 .2 3-2.1 0-1.4.5-2.55 1.1-2.55.65 0 .8 1.1.4 3-.5 2.35-.3 3 .9 3 .9 0 1.6-.7 1.6-1.55 0-.85.4-1.3.95-1 .5.3 1.2.15 1.55-.45.35-.55.05-1-.7-1.05-1.8-.05-5.8-3.5-5.8-5.05 0-1 .25-1.05 1.2-.1 1.3 1.3 4.85 1.65 4.7.45-.35-2.1.25-3.15 1.55-2.6.85.3 1.4 1.05 1.25 1.65-.1.6.7 1.2 1.8 1.35 1.1.2 1.4.05.7-.25-1.05-.5-1.05-.9 0-2.2 1.1-1.35 1.05-1.45-.2-.8-.8.4-.6 0 .5-.95 1.95-1.65 1.9-1.7-1.25-1.1-2.25.4-3.15.25-3-.65.15-.65-.3-1.1-1-.95-1.2.25-1.6-1.1-1.4-5.25.05-1.1-.15-1.45-.45-.75-.6 1.3-16.45 1.85-17.65.65-1.15-1.15 5.35-10.4 7.35-10.4 1.05 0 1.9.6 1.9 1.4 0 2.15 2.75 3.9 4.75 3.05.95-.4 2.35-.65 3.1-.55.8.15 1.05-.25.65-.95-.55-.85-.1-.95 1.6-.4 1.35.45 7.15.85 12.9 1 5.8.1 13.5.5 17.1.95 6.4.7 9.65-.3 6.75-2.1-.7-.45-.9-.3-.45.45.9 1.4.05 1.45-2.35.2-1-.55-8.3-1.15-16.25-1.35-9-.25-15.15-.85-16.35-1.6-1.55-.95 1.35-1.1 14.55-.65 9.1.3 22.25.6 29.3.65 12.1.1 23.6 1.55 14.7 1.85l-3.5.1 2.5 1.4c1.5.85 2.7 1 3.1.45.3-.55 2.55-.7 5-.35 4.1.55 4.25.5 2.45-1-2.15-1.7 13.45-2.05 33.1-.7l9.15.65-3.25 3.9c-3.3 3.85-3.3 3.9-6.45 2.3-1.7-.85-2.85-1.15-2.55-.6.35.55-1.3.8-4 .65-2.85-.15-4.55-.7-4.55-1.5 0-4.15-15.35-4.15-15.8 0-.2 1.5.15 2.75.75 2.75.55 0 1.05-1.15 1.05-2.5 0-2.55 2.3-3.5 3.55-1.45.35.6 1.85.8 3.4.45 2-.45 2.95-.15 3.4.95.45 1.2-.15 1.55-2.65 1.6-1.75 0-4.05.65-5.15 1.5-1.9 1.4-1.85 1.45.35 1.45 3.9 0 6.95 3.15 5.9 6-.75 2-1.05 2.2-1.85 1-.5-.85-.95-1.05-.95-.55s-.5.45-1.15-.2c-.9-.9-.85-1.55.1-2.7.9-1.05.95-1.55.15-1.55-.6 0-1.1.45-1.1 1s-.45 1-.95 1c-.55 0-.75-.7-.4-1.5.35-1-.05-1.55-1.3-1.6-3.9-.25-4.45-.45-5.35-1.9-.75-1.2-.95-1.2-1-.15 0 1.1-.3 1.15-1.4.25-1.4-1.2-5.7-1.6-11.1-1.15-2.8.25-2.75.35 1 1.1 2.2.45 4.8.6 5.75.3 1.15-.3 1.75.05 1.75 1.15 0 1.35-.7 1.55-3.75 1.1-2.05-.3-6.55-.55-10-.55-3.45-.05-6.25-.5-6.25-1.05s1.4-1 3.1-1c2.7 0 2.95-.2 1.9-1.5-2-2.45-5.9-1.85-7 1-.5 1.4-1.25 2.5-1.6 2.5-.35 0-.4-.6-.1-1.3.3-.8-.4-1.35-1.9-1.5-1.45-.1-2.4.35-2.4 1.2 0 .75-.65 1.65-1.5 1.95-.8.35-1.5.15-1.5-.4 0-.5-2-.95-4.5-.95-2.65 0-4.5.45-4.5 1.1 0 .7-.95.9-2.4.5-2.95-.7-4.4 3.15-2.4 6.4 1.4 2.2 5.35 2.7 6.15.75.25-.7.55-.25.55.95.15 3.25 5.3 2.7 6.1-.65.65-2.75 3-4.05 3-1.65 0 .9.5 1.6 1.05 1.6.6 0 .75-.5.35-1.15-.4-.65-.25-.9.3-.5.6.35 1.3-.7 1.65-2.45.5-2.3 1.05-2.95 2.25-2.5.85.35 2.2.6 3 .6.75 0 1.4.9 1.4 1.95 0 1.5-.45 1.8-1.75 1.35-1.6-.6-1.6-.5-.25 1.2 1.15 1.4 1.15 1.7.1 1.05-.95-.55-1.2-.4-.9.55.25.75 1.25 1.55 2.25 1.75 1 .2 1.55-.05 1.25-.55-1.05-1.65 3-3.4 4.25-1.85.8.95.8 1.55.1 2-.6.4-1.05.2-1.05-.4 0-.55-.5-1.05-1.1-1.05-.65 0-.9.9-.6 1.95.4 1.65-.1 2-3.65 2.25-5.3.4-5.8 3-.65 3.4 2.75.25 4-.3 5.85-2.4 2.5-2.9 5.8-3.5 7.95-1.45.75.7 1.75 1.25 2.25 1.25 1.4 0 1.15-1.75-.3-2.35-.75-.3-.55-.5.5-.55 2.3-.1 2.2-1.35-.25-3.6-1.95-1.75-2-1.75-2 .4 0 2.1-.1 2.15-1.7.55-1.95-1.95-2.6-4.45-1.2-4.45.5 0 .9.45.9 1s.5 1 1.05 1c.6 0 .75-.5.4-1.1-.4-.6.35-.4 1.7.45 1.3.85 2.8 1.55 3.35 1.6.55 0 1.05 1 1.1 2.15.2 2.85 2.35 4.1 4.15 2.3 2-2 2.5-1.75 1.25.6-.6 1.1-.75 2-.4 2 .4 0-.1.9-1.1 2-1.7 1.85-1.7 2-.1 2 .95 0 1.45-.45 1.1-1-.35-.55.1-1.3 1-1.65.9-.35 1.4-1.2 1.15-1.9-.75-1.85.45-2.6 2.05-1.3 1 .85 1.7.85 2.45.1 1.3-1.3 3.85-.5 5.55 1.7.8.95 1.25 1.1 1.25.35.05-.65 1.15-.1 2.5 1.25 2.35 2.35 2.55 6.2.3 4.8-.6-.4-.75-.2-.35.5.4.65 1.25 1.15 1.9 1.15 2 0 3.8 3.8 3.1 6.55-.55 2.15-.85 2.3-2.2 1.25-1.35-1.1-1.45-1.05-.85.6.6 1.6.45 1.7-.85.6-.8-.7-1.5-1.85-1.5-2.6 0-1.75-2.7-1.85-3.25-.15-.75 2.15.4 5.15 1.35 3.6.65-1.1 1.05-1.1 2.1.05.95 1.05 1 1.2.05.7-.7-.4-1.25-.25-1.25.35 0 .55.4 1.05.9 1.05 1.6 0 1.85 2.4.65 5.95-1.1 3.15-1.25 3.25-1.8 1.25-.3-1.2-.15-1.95.35-1.65.5.3.9-.15.9-1s-.45-1.55-1-1.55c-1 0-1.4 1.35-1.1 3.65.1.65-.3 1.5-.9 1.85-1.65 1-2.35-2.35-.85-4.2 1.2-1.45 1.15-1.6-.4-1-1.2.45-1.75.15-1.75-.95 0-1.15-.6-1.4-2.15-1-1.5.35-1.85.25-1.05-.55.55-.55.8-1.65.5-2.4-.3-.8-.05-1.4.5-1.4s1.25.55 1.45 1.25c.25.7.8-.2 1.2-2 .6-2.85 3.55-5.85 4.65-4.8.25.2 1.05-.35 1.85-1.25 1.3-1.4 1.3-1.5-.25-.9-2.6 1-3.5-2.25-1.15-3.95 1.8-1.3 1.8-1.45.05-3.1-1.75-1.65-1.8-1.65-1.15.5.65 2.2-4.2 6.3-8.2 6.9-1.65.25-.7-3.65 1.35-5.25.75-.6 1.1-1.4.7-1.75-.35-.35-.1-.65.55-.65s1.15-.75 1.15-1.6c0-1.35-.25-1.4-1.5-.4-.8.7-1.5 1.8-1.5 2.5s-.75 1.55-1.6 1.9c-1.25.5-1.5.15-1.15-1.3.4-1.4.1-1.8-.95-1.4-.9.35-1.25 1.35-.95 2.55.3 1.1-.1 2.65-.85 3.4-.8.8-1.15 2.15-.75 3.15.55 1.45.75 1.35 1.2-.65l.55-2.35 1.9 2.05c1.1 1.25 1.65 2.9 1.3 4.1-.25 1.15-.1 1.8.4 1.5.5-.3.9-.1.9.5 0 .55-.4 1.05-.9 1.05s-.8.8-.75 1.75c.2 2.2-3 2.45-6.25.45-2.15-1.3-2.35-1.3-1.8.2.4 1.05.1 1.6-.9 1.6-.85 0-1.25.45-.9 1 .4.65 1.25.65 2.35.05 2-1.05 3.5-.3 4.45 2.2.65 1.8-.35 2.35-1.7 1-1.75-1.7-8.6-1.1-8.6.8 0 .95.45 2 1.05 2.3.55.25.45.4-.25.25-2.05-.4-1.6-5.15.45-4.95 1.3.1 1.65-.45 1.3-2.25-.25-1.4.05-2.4.75-2.4.8-.05.75-.3-.15-.9-1.9-1.2-1.05-4.35 1.3-4.7 2.4-.35 4.15.6 2.7 1.5-1.5.95-.05 2.7 2.85 3.5 2.4.65 2.4.65.6-.85-1.1-.85-2-2.75-2.05-4.2-.1-1.5-.7-2.9-1.4-3.15-.9-.3-.95-.75-.15-1.75 1.55-1.85-2.3-3.95-4.75-2.6-1.35.8-1.95.4-2.95-1.95-.65-1.6-1.8-2.85-2.5-2.8-.95.05-.95.2-.1.55.65.25.95 1.15.65 1.9-.3.8-.2 1.45.3 1.45.45 0 .85 1.1.85 2.5 0 1.75-.55 2.5-1.85 2.5-1.25 0-1.65-.5-1.3-1.5.35-.85.15-1.5-.35-1.5s-.65-.75-.3-1.65c.45-1.15.25-1.45-.55-.95-.9.55-1.1 0-.7-2.05.5-2.65.45-2.6-1 .55-1.2 2.55-1.85 3.1-2.7 2.25-.65-.65-1.6-1.15-2.2-1.1-1.55.05 3.45 3.95 5.05 3.95.75 0 1.35.35 1.3.75-.35 2.1.3 2.9 2.25 2.85 1.2-.05 2.35.55 2.65 1.3.3.95.05 1.1-.9.5-.8-.45-2.2-.7-3.15-.55-.95.15-1.75-.2-1.75-.8 0-.55-.45-1.05-1.05-1.05-.7 0-.65.65.05 2 .6 1.15.85 2.45.55 2.9-.65 1.1 1.8 2.1 5.05 2.1 1.3 0 2.4.5 2.4 1.1 0 1.05-2.55.8-6.35-.65-1.15-.45-1.4-.05-1 1.7.3 1.35.15 1.9-.3 1.3-.45-.55-1.4-.95-2.1-.85-.7.1-1.75.2-2.3.25-.6.1-.8.6-.45 1.15 1.1 1.75-2.4 2.25-4.05.6-1.45-1.45-1.4-1.6.55-1.6 1.15 0 1.85-.4 1.55-.9-.3-.45.1-1.4.85-2.05.95-.75 1.65-.8 2.05-.15.35.55 1.25.75 2.1.45.8-.3 1.2-.95.9-1.4-.3-.5-1.15-.6-2-.3-.8.3-1.45.1-1.45-.5 0-.55-.9-.85-2-.65-1.7.35-1.85.1-.95-1.55 1.15-2.25 2.55-2.5 3.3-.7.25.7.55.2.55-1.05.05-1.55-.3-2.1-1.15-1.7-.7.35-.45 0 .55-.8 1.6-1.35 1.6-1.5.1-2.1-1.8-.7-4.4.95-4.4 2.75 0 .65.45.45 1-.35.85-1.3.95-1.25 1 .25 0 .95-.65 1.75-1.5 1.75-.8 0-1.5.65-1.5 1.45 0 .95-.6 1.25-1.6.9-1.05-.45-1.2-.85-.45-1.35.8-.45.7-1.05-.35-1.9-2.2-1.85-3.85-.45-2.5 2.1.8 1.5.8 1.85 0 1.35-.65-.4-1.1.05-1.1.95 0 .9.35 1.4.8 1.15.45-.3 1.45-.1 2.25.45 1.25.8 1.2 1.1-.25 1.95-.95.55-1.45 1.65-1.15 2.45.3.85.9 1.25 1.35 1 .45-.25 1.05.2 1.4 1.05.3.9.15 1.3-.4.95-.55-.35-1 .3-1 1.4 0 1.1-.45 2.25-1 2.6-.6.35-.8 1.05-.5 1.5.3.45 0 1.2-.65 1.6-1.65 1-6.95 1.35-6.35.35.3-.4-.05-1-.75-1.25-.95-.35-.95-.75-.1-1.65.9-.95 1.7-.85 3.7.45l2.55 1.65-.95-3.25c-.5-1.8-.55-3.55-.1-3.85 1.55-1 .85-4.3-1-4.8-1.45-.4-1.6-.85-.75-2.6.9-1.95.9-2-.4-.4-.75.95-1.75 1.4-2.2 1-.45-.4-.55 0-.2.95.9 2.6-.7 3-3.15.75l-2.1-2-.65 2.55c-.45 1.8-1.15 2.4-2.25 2.05-1.2-.4-1.7.15-1.8 1.95-.05 1.4.25 2.5.75 2.5s.9-.65.9-1.5c0-2.45 4.75.35 5.25 3.1.6 3.1.2 3.4-3.35 2.4-2.9-.85-3.45-.2-3 3.65.2 1.6-1.6 2.65-2.35 1.4-.35-.55-.05-1.85.65-2.95 1.45-2.4 1-3-2.8-3.7-1.55-.3-3.35-.95-4-1.5-.8-.65-1.35-.45-1.75.5-.35.95-1.45 1.3-3 1.05-3.6-.65-5.55 2.1-2.1 3 1.45.35 3.2.15 3.9-.4.95-.8 1.6-.65 2.45.35 1 1.2.85 1.35-.85.9-1.55-.4-2.05-.05-2.05 1.5 0 1.1-.55 2.25-1.25 2.55-.7.25-.35.55.75.6 1.65.05 1.75.25.5 1.05-1.05.7-1.1.95-.2 1 1.05 0 1.05.25 0 1.35-.65.75-2.15 1.15-3.25.9-1.6-.3-1.5-.1.45.95 2.15 1.2 2.65 1.2 3.7-.15 1.3-1.7 1.4.35.15 2.45-.35.55-.3 1.85.1 2.95.55 1.5.9 1.65 1.55.55.55-.9.4-1.55-.45-1.8-2.6-.9 4.9-3.1 8.4-2.5 3.05.5 3.55.3 3.45-1.3 0-1.1-.3-1.35-.55-.65-.65 1.6-2.35.6-2.35-1.3 0-.85 1-1.45 2.4-1.45 1.95 0 2.35.4 2 2.25-.25 1.25-.15 1.7.15 1 .35-.7 1.05-1 1.55-.7.5.3.9.1.9-.45s-.45-1.25-1-1.6c-.6-.35-.7-1.15-.25-1.8.4-.65.75-2 .75-2.95 0-.95.45-1.6 1-1.5.55.15.95.8.85 1.45-.05.65.65 1.2 1.5 1.2 3.7.15 5.05.45 4.65 1.1-2.1 3.4 6.7 5.9 9.15 2.6.85-1.15 1.3-1.45.95-.6-.35.8-.9 2.3-1.2 3.25-.35.95-1.6 1.8-2.75 1.8l-2.15.1 2.15.85c1.2.45 2.45 1.35 2.8 1.95.85 1.35 2.55 1.35 2.55 0 0-.6-.35-.85-.85-.55-.45.3-.8-.1-.8-.8 0-.75.45-1.25 1.05-1.2.6.05 1.15-.15 1.2-.4.05-.3.6-1.5 1.25-2.75 1-1.85.95-2.25-.2-2.25-1.45 0-2.95-3.7-2.05-5.15 1-1.65 2.5-.8 1.95 1.05-.4 1.15-.05 2.1.95 2.45 2.1.8 7.6-.4 6.9-1.5-.3-.5-.95-.65-1.4-.35-.5.3-1.6-.5-2.45-1.75-.85-1.25-1.8-2.15-2.05-2-1.75.9-5.5.05-5.5-1.25 0-1.45 1.65-1.95 5.25-1.65.95.05 1.75-.3 1.75-.8 0-1.7-3.5-1.65-6.8.15-3.55 1.95-6.7 2.4-5.7.8.35-.55 1.4-1 2.4-1s2.6-.9 3.6-2c1.2-1.35 2.5-1.8 4.15-1.4 1.6.45 2.35.2 2.4-.75 0-.75.6-.3 1.3.95.7 1.25 1.55 1.95 1.95 1.55.4-.35.7-.15.7.5 0 2-.45 2.65-1.9 2.65-.8 0-1.65.65-1.9 1.4-.25.75 0 1.1.55.75.55-.35 2.2.9 3.6 2.75l2.6 3.4-2.25.7c-1.2.4-3.1.75-4.2.85-1.4.1-2 .85-1.9 2.4 0 1.25-.2 2.25-.55 2.25-.35 0-.7 1.25-.8 2.75l-.2 2.75 2-2.4c1.1-1.3 2.25-2.1 2.6-1.8.3.35-.7 1.7-2.3 3.05-1.55 1.4-3 2.1-3.2 1.6-.5-1.5-4.15.95-4.15 2.8 0 1.3-.25 1.4-1.2.45s-.95-1.45 0-2.4c1.8-1.8 1.45-3.05-.55-1.95-1.35.8-2.3.3-4.5-2.1-1.9-2.15-2.75-2.6-2.75-1.5 0 .9.75 2.35 1.6 3.25.9.85 1.3 1.9.95 2.3-.4.4-1.3-.1-2-1.05-1.6-2.2-4.55-2.3-4.55-.2 0 .95-.7 1.45-1.65 1.25-2.2-.4-3-2.8-.95-2.8 1.05 0 1.6-.9 1.6-2.55 0-1.4-.45-2.3-.95-2-.55.35-.7 1.25-.4 2.1.35.9-.05 1.45-.95 1.45-.85 0-1.7-.5-1.9-1.15-.3-.85-.95-.85-2.6.05-2.4 1.25-3.1 3.35-.85 2.5.85-.3 1.6.35 1.95 1.6.4 1.55.15 2-.8 1.65-.75-.3-1.6.1-1.9.9-.3.8-.1 1.45.45 1.45.5 0 .95.65.95 1.45 0 .9-.6 1.25-1.5.9-.8-.3-1.5-.1-1.5.45 0 1.2 1.1 1.05 6.25-.7 2.05-.65 4.6-.95 5.65-.65 1.35.45 2.45-.1 3.55-1.65.85-1.25 1.85-2.3 2.15-2.3.9 0 2.6 3.6 2 4.25-.35.3-.6.05-.6-.6 0-1.75-2.7-1.4-3.4.45-.4 1.05-1.35 1.45-2.6 1.1-1.1-.3-2-.05-2 .45 0 .55 2.9.85 6.95.7 5.45-.2 6.7-.55 5.9-1.55-.8-.95-.65-1.45.55-1.9.85-.35 1.35-1 1.05-1.5-.3-.5-.15-.9.4-.9.5 0 1.2.65 1.5 1.5.35.8.15 1.5-.4 1.5-.5 0-.95.75-.95 1.65 0 1.5.2 1.5 2-.15 1.1-1 2-1.4 2.05-.9 0 .5.45.15 1-.75.5-.95 2.3-2 4-2.35 2.05-.45 3.5-1.65 4.5-3.85 1-2.15 1.35-2.4 1.05-.9-.25 1.45.1 2.25 1 2.25 2.1 0 1.7 1.4-.75 2.5-1.15.55-2 1.4-1.9 1.9.1.5-.35 1.25-1.1 1.7-2.2 1.35-.3 2 2.65.9 1.95-.75 3.15-.7 4.1.1 1.25 1.05 1.8.6 1.55-1.25-.05-.35.7-.5 1.65-.35.95.2 1.95.4 2.2.45.3.05-.15.5-1 1.05-1.25.8-1.2.95.45 1 1.05 0 2.95-1 4.25-2.15 1.25-1.2 2.6-1.9 2.95-1.5.4.35-.15 1.35-1.2 2.15-1.75 1.3-1.8 1.45-.2 1.45.95.05 1.75-.5 1.75-1.15 0-.95.25-.95 1.2 0 1.6 1.6 4.3 1.5 5.75-.2.65-.8 2.15-1.25 3.4-1.05 1.65.3 2.7-.35 3.95-2.45 2.35-4 2.2-5.85-.3-3.6-1.05.95-1.7 2.15-1.4 2.65.55.9-2.35 2.45-3.1 1.7-1.1-1.1.9-4.85 2.6-4.85 1.05 0 1.85-.35 1.8-.75-.35-2.2.2-5.3.9-4.9.4.3.75-.35.75-1.4 0-1.9-1.85-2.15-4.4-.55-.85.55-1.7.35-2.25-.5-.55-.95-.35-1.5.65-1.7.8-.2 1.45-.8 1.45-1.35 0-.5-.45-.7-1-.35s-1.05.05-1.05-.7c-.05-.7-.45-.4-.9.7-1.5 3.75.25 9.1 2.1 6.45.85-1.25.95-1.25.55.05-.25.95-1.4 1.4-3 1.2-2.15-.2-2.55.1-2.2 1.75.45 2.4-1 2.75-1.9.45-.35-.9-1.25-1.35-2.1-1.05-.85.35-1.5.15-1.5-.4 0-.5-.5-.95-1.05-.95-.6 0-.8.45-.45 1.05.45.65-.25.8-1.9.4s-2.6-.25-2.6.45c0 1 3.25 1.55 7.2 1.15 1.45-.15 1.5.2.5 2.4-1.2 2.55-2.7 3.4-2.7 1.55 0-.55-.65-1-1.5-1-.8 0-1.5-.5-1.5-1.05 0-.6-.45-.8-1-.45-.6.35-.75 1.05-.45 1.55.3.55-.15.95-1 .95s-1.55-.5-1.55-1.05c0-.6-.45-.8-.95-.5-.55.35-.65 1.4-.3 2.35.55 1.5.4 1.55-1.05.35-1.5-1.2-1.7-1.15-1.7.6 0 1.65-.5 1.85-2.75 1.4-2.45-.55-2.55-.65-.55-.95 1.85-.25 2.2-.95 2.1-3.85-.1-3.35 1.65-5.8 3.4-4.7.45.25.8-.25.8-1.1 0-1.75 1.65-2.1 2.2-.5.2.65 1.7.45 4.15-.55 2.6-1.1 3.65-2.05 3.25-3.05-.3-.8-.1-1.45.45-1.45.5 0 .9-.35.85-.75-.3-1.85.2-3.25 1.1-3.25.55 0 1 1.1 1 2.5 0 1.35-.45 2.5-1 2.5s-1 .65-1 1.5c0 2.9 2.85 1.5 3.5-1.75.4-1.8 1.65-4.05 2.85-5 2.65-2.15.4-4.55-2.3-2.45-1.05.75-.95.5.2-.9.95-1.15 1.75-2.7 1.75-3.5.05-1.15.2-1.15 1 .1 1.1 1.7 1.4.7 1.15-4.15-.1-1.8.65-3.15 2.45-4.3 3-2 4.2-1.5 1.95.75-2.05 2.05-2 4.7.05 4.7 1.3 0 1.4-.3.45-1.4-.85-1.1-.85-1.6 0-2.15.65-.4 1.45-.3 1.8.15 1.1 1.55 3.45 1.6 2.85.1-.3-.8.4-2.2 1.5-3.1 1.1-.95 1.75-2 1.4-2.35-.3-.3-1.4.2-2.4 1.1-2.1 1.9-3.2 2.1-3.2.65 0-1.45 5-3.2 6.9-2.5.9.35 1.15.9.55 1.3-1.85 1.35-1.65 4.2.3 4.2 2.55 0 6.15 2.95 4.5 3.65-.7.3-1.05.9-.75 1.3.25.45-.2 1.4-1 2.05-1.05.85-1.5.9-1.5.1 0-.6.55-1.1 1.2-1.1.95 0 .95-.25 0-1.2-1.55-1.55-1.55-3.15-.05-2.2.75.45.9.25.4-.5-.55-.95-1.25-.7-2.7.8-2.25 2.45-2 2.4-5.3 1.1-1.65-.6-2.55-.6-2.55 0 0 .55-.65 1-1.5 1-1.75 0-1.85.5-.5 2.95.7 1.4.6 2-.55 2.45-.85.3-1.35.2-1.05-.25.3-.45-.85-.8-2.5-.8-2.3 0-2.65.2-1.5.85.9.5 1.6 1.5 1.6 2.25s.7 1.6 1.5 1.9c.95.35 1.5 0 1.5-1 0-1.1.6-1.4 2-1.05 1.1.3 2 0 2-.6 0-.8.3-.8 1.1 0 1.35 1.35.35 3.3-1.65 3.3-.8 0-1.45.7-1.45 1.55 0 .85.35 1.35.8 1.05.45-.25.65.85.4 2.5s-.05 2.85.45 2.7c.45-.15.95.15 1.05.7.1.55-.5.85-1.35.7-.95-.2-1.4.2-1.1 1 .25.7 1.2 1.15 2.1 1 1.8-.3 1.4 1.55-1.15 5.55-1.35 2.1-1.3 2.25.4 1.75 1.05-.3.1.35-2.1 1.4l-4 1.95 3.65.1c5.25.1 7.2-.8 5.75-2.6-.65-.75-.9-1.65-.6-2 1-.95 7.7-1.15 7.1-.2-.3.45-.05.85.5.85s1.45-.75 1.95-1.7c.8-1.4.95-1.25.8.95-.15 2.4-.45 2.65-3.4 2.25-2.35-.3-3.25 0-3.25 1.05 0 3.8 8 1.4 8.1-2.45.05-2 .3-7.3.5-11.85.2-4.65 0-8.25-.55-8.25-.5 0-.25-1.35.6-3 .8-1.65 1.2-3.45.85-4-.35-.55-.4-1-.1-1 .3 0 1.25 1.35 2.1 3 .85 1.65 1.2 3 .85 3-.4 0-.2.55.45 1.2.8.8 1.2 5.15 1.2 13 0 14.9 1.8 15.85 2.2 1.15.2-7.45.7-10.8 1.55-11.1.7-.25 1.25.45 1.25 1.6 0 1.1.45 2.3 1 2.65.55.35 1-.45 1-1.8 0-1.6.7-2.65 1.95-2.95 2.65-.7 3.25.15 1.45 2-1.95 1.95-1.1 2.7 1.45 1.35 1.35-.75 2.25-.75 2.65-.1.35.55 1.05.8 1.5.5.45-.3 1.15-.05 1.55.6.5.8.95.75 1.5-.2 1.1-1.7-1.05-3.15-2.7-1.8-.85.7-1.4.35-1.9-1.25-.45-1.4-.3-2.4.4-2.65.65-.2.9-.8.6-1.3-.3-.5.15-1.2 1.1-1.55.9-.35 2-.1 2.4.55 1.25 2.1 4.1.1 3.6-2.55-.25-1.5-.05-2.15.6-1.75.7.4.8-.1.4-1.45-.8-2.5 2.1-3.05 4.3-.9 1 1 1.15.9.6-.5-.75-2.05.55-2.3 2.5-.5 1.05 1 1.2 1 .65 0-1-1.75 2.55-1.6 4.95.2 1.9 1.45 1.85 1.5-.55 1.6-2.25.1-2.3.15-.5.9 2.35.9 4.55.3 4.2-1.2-.25-1.35 4.7-2.75 6.3-1.75.85.55.55 1.2-1.1 2.35l-2.35 1.65h2.3c1.25 0 2-.4 1.7-.95-.35-.5.2-1.4 1.2-1.95.95-.6 1.2-1.05.55-1.05-.75-.05-1-.75-.6-1.7.4-1.1.25-1.45-.45-1-.6.4-1.4.2-1.75-.35-.8-1.3 4.8-.75 8.8.85 1.85.75 2.55 1.6 2.1 2.4-.4.7.1.5 1.2-.4 1.05-.85 2.7-1.45 3.65-1.3.95.15 1.55-.05 1.3-.45-.2-.4 0-1.35.5-2.15.65-1 .9-1.05.95-.2 0 .7.5 1.25 1.05 1.25 2.45 0 .3-3.3-2.3-3.55-1.55-.2-2.6 0-2.35.4s.05 1.4-.45 2.2c-.75 1.15-.9 1.2-.95.1 0-1-.9-1.25-3.25-.85-1.8.3-2.7.35-2 .05 1.85-.75 1.55-2.65-.3-1.95-1 .35-1.3.2-.85-.6.5-.75.15-.95-1-.5-1.15.45-1.45.3-1-.5.5-.75.2-.95-.9-.5-.9.35-1.9.2-2.25-.35-.3-.5.15-.95 1-.95 1.7 0 1.15-5.15-.6-5.85-.5-.15-.6-.75-.3-1.25s.1-.9-.5-.9c-1.45 0-1.3 2.75.2 3.35.7.25.25.55-.95.55-2.5.1-3.85-1.45-2.2-2.45.75-.5.35-1.2-1.2-2.05-1.35-.75-1.85-1.35-1.15-1.35.7-.05 1.25-.8 1.25-1.65 0-1.35.25-1.4 1.5-.4 1.7 1.4 3.25-1 1.95-3.05-.5-.85.25-1 2.65-.55 1.9.3 2.85.3 2.15 0-1.9-.85-1.5-2.3.6-2.15 1 .1 1.8.6 1.85 1.2 0 .6.3 1.95.65 3.1.9 2.75-1.75 6.5-3.3 4.7-.6-.65-.8-1.05-.45-.8.65.45 3.4-1.85 3.4-2.9 0-1.2-2.1-.45-3.95 1.4-1.95 1.95-1.95 2 .1 3.45 1.15.8 1.8 1.9 1.45 2.4-.3.55.1 1.25.95 1.6.9.3 1.8-.1 2.1-.95.35-.9 1.25-1.3 2.1-1 .85.35 2.15.05 2.9-.6 1.7-1.4 2.85-.4 2.85 2.45 0 1.2.7 2.3 1.6 2.5 1.2.2 1.55-.4 1.4-2.5-.3-4.2-.35-4.3-2.75-4.4-2.15-.1-2.1-.15.25-.8 1.85-.5 2.55-1.45 2.7-3.65.15-1.6 0-2.4-.3-1.7s-1.2 1.25-2 1.25c-.75 0-1.4.5-1.4 1.15 0 .65-1.15-.1-2.5-1.55-1.4-1.5-2.25-3.2-1.9-3.8.4-.6.9-.65 1.3-.05 1.1 1.65 5.35 2.3 4.7.7-.25-.75 0-1.7.6-2.05.65-.45.85-.25.4.45-.4.65-.3 1.15.25 1.15 1.65 0 .75-5.4-1.25-7.4-1.85-1.85-1.9-1.85-1.4.65.35 1.95.15 2.45-.95 2-1.15-.4-1.35 0-.8 1.85.55 2.1.5 2.15-.5.55-.65-1-.9-2.7-.65-3.75.3-1.05.1-1.9-.4-1.9s-.9 1.25-.9 2.75-.35 2.3-.75 1.75c-1.1-1.45-5.3-1.7-6.85-.4-.75.6-2 .9-2.8.6-.8-.35-1.7.05-2 .85-.3.8-1 1.45-1.55 1.45s-.75-.65-.4-1.5c.65-1.65-1.15-2.1-2.15-.5-.35.55-1.05 1-1.6 1s-.75-.45-.4-1c.35-.6-.8-1-2.85-1-2.55 0-3.85-.65-5.1-2.55-.9-1.35-2.05-2.25-2.5-1.95-.5.3-1.25 0-1.65-.65-.45-.7-.3-.9.45-.45 1.5.95 1.5-.65-.05-2.2-1.35-1.35-.45-1.5 7.7-1.15 13.5.6 20.15.5 21.7-.25 1.15-.55 2.1-.25 3 1.05 1.25 1.75 1.4 1.75 3.75-.5l2.5-2.35-12.6.05c-6.9.05-13.8-.25-15.35-.65-1.6-.4-2.55-.3-2.25.2.3.5-.85.85-2.55.8-1.7-.05-3.25-.6-3.5-1.25-.2-.65-2.15-1.45-4.3-1.8-2.4-.35-3.9-1.15-3.9-2.05 0-.8.5-1.1 1.15-.7 1.4.85 38.5 3.15 41.1 2.55.95-.2 1.75-.95 1.75-1.65 0-1-5.35-1.45-22.95-2l-22.95-.75-4.1-5.9c-4.1-5.8-4.15-6-3.85-13.35l.35-7.5h-14.2l-.75 12.25c-.75 12.9-1.45 15-4.9 14.25-2.1-.45-50.3-2-96.15-3.1-16.85-.4-23.5-.25-23.5.55s-.55.8-2 .05c-1.1-.6-2-1.7-2-2.45 0-.8-2.45-5.35-5.5-10.2l-5.5-8.75v-21.5l3.25-.55c1.8-.3 10.25-1.45 18.75-2.55 10.95-1.4 15.85-2.45 16.65-3.55.75-1 1.35-13.45 1.8-38.25.4-20.2.75-39.2.85-42.2.3-7.85.1-7.85-38.8 7.85zm32.2-4.6c0 .7.3 2.25.7 3.5.6 1.75.35 2.3-1.1 2.35-1.55.1-1.55.2-.15.55 1.7.45 2.15 14.45.55 17-.3.5-.2 2.6.25 4.6.45 1.95.45 3.95 0 4.4-.5.5-.5 2.5 0 4.5.5 2.4.4 4.1-.25 4.75-.6.6-.75 1.1-.35 1.1s.25.9-.35 2c-.8 1.5-.75 2 .2 2 .9.05.85.3-.2 1-1.1.7-1.15.95-.2 1 .8 0 1 .5.55 1.25-.45.7-.65 2.25-.5 3.45.15 1.2-.2 3.1-.8 4.25-.7 1.25-.75 2.05-.15 2.05 2.05 0 .6 9.45-1.45 9.9-1.9.35-1.9.4.05 1.15 1.8.7 1.65.9-1.25 1.95-1.8.65-3.25 1.55-3.25 2 0 .45-1.1.7-2.45.55-1.4-.15-2.25.1-1.95.6.3.45-.15.85-1 .85-.8 0-1.75-.45-2.1-1-1.25-2-16.5-.1-16.5 2.1 0 1.1-6.05 2.65-13.75 3.5-4.5.45-6.25.35-6.25-.5 0-.8-1.8-1.15-5.25-1.05-2.9.1-5.7.1-6.25-.05-.55-.15-1.2-.15-1.5-.05-2.15.8-6 .7-6-.15 0-.55-.9.05-2 1.35l-1.95 2.35-2-2.5c-1.05-1.4-1.6-2.65-1.15-2.8.9-.3-.1-6.3-1.7-10.3l-1.05-2.6 16.7-3.75c9.15-2.05 19.5-4.4 22.95-5.25 7.7-1.85 7.75-1.75 6.35 5.35-2.4 11.85-.8 13.35 5.35 5.1 2.1-2.9 8.3-10.75 13.7-17.5 5.4-6.75 9.8-12.45 9.8-12.65 0-.3-21.8-17.4-25.65-20.1-2.35-1.65-3.45 1.4-2.7 7.5 1.25 10.1 2.35 8.95-13.15 13.75-7.65 2.4-18 5.4-23 6.65l-9 2.35-.75 7.3c-.4 4-1 7.55-1.35 7.85-1.3 1.2.75-15.3 2.3-18.8.9-2 1.8-4.75 2-6.1.2-1.4 1.05-3 1.85-3.6.8-.65 1.2-1.85.9-2.7-1.1-2.85 5.75-5.55 8.5-3.35 1.15.9 1.25.85.6-.2-1-1.7 1.3-3.3 3.7-2.55.95.3 1.75.05 1.75-.5s.7-.8 1.5-.45c.85.3 1.5.1 1.5-.5 0-.55.9-.85 2-.65 1.2.25 2-.15 2-.95 0-1.2 8.55-5.55 10.9-5.55.6 0 3.6-1.4 6.75-3.1 3.15-1.7 6.85-3.25 8.3-3.4 1.4-.2 2.55-.45 2.55-.5 0-.1.8-.3 1.8-.5.95-.2 3.5-1.25 5.65-2.35 2.1-1.1 4.2-1.7 4.65-1.35.45.4.3 0-.35-.9-1.05-1.3-.85-1.55 1-1.35 1.65.1 9.5-2.3 11.35-3.5.05-.05.05.5.1 1.2zm-23.2 30.95c1.1.25 1.9.95 1.75 1.6-.15.65.4 1.2 1.2 1.2.8 0 1.85.7 2.35 1.6.5.85 1.2 1.55 1.55 1.5.35-.05.65.1.65.4v1.5c0 .55-.55.9-1.25.75-.65-.15-1.35.75-1.55 2-.2 1.25-.8 2-1.35 1.65-.55-.3-.85.1-.65.95.15.85-.6 2.25-1.7 3.15-1.1.9-1.3 1.3-.5.9 1.3-.7 1.3-.55.15.9-.75.9-1.75 1.45-2.15 1.2-.45-.25-1.05.2-1.35 1-.3.8-1.2 1.2-2 .9-.8-.3-1.75-.05-2.1.5-.65 1.1-5.45-.55-6.7-2.25-.8-1.15-6.05-1.75-5.3-.6.25.45 1.15.6 2 .3.8-.3 1.45 0 1.45.65 0 .8-.8 1-2.2.65-1.2-.3-2.8-.1-3.5.5-.95.8-1.5.5-2.25-1.3l-.9-2.35-.1 2.25c-.05 2.05-1.1 2.75-3.4 2.35-.5-.1-1.4.25-2 .75-.65.55-2.65.85-4.45.65-1.85-.15-3.85.3-4.5 1-.8.8-2.1.95-3.95.45-1.7-.5-2.55-.45-2.2.1.3.55-.7.95-2.25.95-2.55 0-2.8-.35-2.95-3.75-.05-2.05.1-3.15.35-2.45.4 1.05.8 1.05 2.1 0 1.35-1.1 1.45-1.05.7.2-.55 1-.15.9 1.25-.3 1.15-1 3.45-1.95 5.15-2.1 1.65-.1 3.35-.5 3.75-.9.35-.4 1.45-.7 2.4-.7s2.3-.7 3-1.55c.7-.9 2.15-1.35 3.15-1.1s1.8 0 1.8-.55c0-.5.55-.75 1.25-.5s1.15.95 1 1.55c-.15.65.15 1.15.7 1.15.5 0 1.05-1 1.25-2.25.2-1.5.9-2.15 2.05-1.95.95.15 1.75-.2 1.75-.8 0-.6.45-.85 1-.5.5.3 2 .05 3.25-.65 1.25-.7 2.5-1.3 2.75-1.35 1.9-.2 6-4.1 7.05-6.6.7-1.7 1.5-2.6 1.85-2.1.35.55 1.5 1.15 2.6 1.4zm141.05 87.65c1.85 8.8 2.75 11.7 3.75 12.4.9.55.85.95-.15 1.6-.7.5-1.25 1.15-1.2 1.5.05.4-.55 1.95-1.35 3.5-1.1 2.1-1.25 4.05-.65 7.75.65 3.85.85 4.25 1.05 1.9.5-6.2.65-8.05.85-9.85.1-1.55.4-1.7 1.65-.65 1.25 1.05 1.5.8 1.55-1.65.05-1.85.35-2.3.75-1.35.75 1.6 2.55 2.35 5.4 2.2 2.05-.1 5 4.15 4.2 6.15-.7 1.9 1.4 5.9 2.65 5.1.55-.3.65-1.1.3-1.75-.4-.65.25-.35 1.45.7 1.2 1 2.4 2.7 2.75 3.75.35 1.05 1.05 1.6 1.6 1.25 1.85-1.15-.65 2.65-11.8 17.75-6 8.1-11.5 15.65-12.3 16.75-2.25 3.2-3.05 2.55-3.05-2.5 0-3.2-.35-4.45-1.25-4.15-.85.3-1.15 2.05-.9 5.2.45 6-.8 5.8-6.5-1.2-2.3-2.8-4.45-4.8-4.85-4.45-.35.4-.5.25-.35-.35.2-.55-2.1-4.15-5.15-8-9.05-11.4-11.85-15.65-11.35-17 .65-1.65-1.5-5.65-2.65-4.95-.45.3-1.15.1-1.5-.5-.35-.55-1.6-1.05-2.8-1.05-2.1-.1-2.15-.1-.2-.95 1.1-.45 1.4-.9.7-.95-.75 0-1.05-.5-.7-1.05.35-.6 1.05-.8 1.5-.5.45.3 1.15.1 1.5-.5.35-.55.15-1-.45-1-.55 0-1.05-.35-1.05-.8 0-1.7 13.7-1.4 14.35.3.4 1.1.25 1.35-.55.85-1.65-1-5.75-1.1-5.15-.15.25.45 1.15.8 1.95.8.85 0 1.25.45.9 1s-2.2 1-4.1 1c-2.1 0-3.25.4-2.9 1 .35.55 1.5 1 2.6 1 1.3 0 1.8.45 1.4 1.25-.35.7.5-.1 1.9-1.75s2.9-3.05 3.35-3.1c2.15-.3 7.25-2.7 7.25-3.45 0-.45.85-.65 1.95-.45 1.25.25 1.75-.1 1.45-.95-.3-.7.25-1.6 1.15-1.95.95-.35 1.4-1.25 1.1-2.05-.35-.95-.05-1.25.9-.9 1.6.65 3.25-2.5 1.85-3.5-2-1.45-.85-6.8 2.4-10.9 3.6-4.55 5.85-4.7 6.75-.4zm-222.9 12.8c-1.75 1.8 4.8 4.15 6.85 2.45 1.65-1.35 1.75-1.35.75-.05-1.45 1.9-.45 6.25 1.25 5.6.7-.3 1.75 0 2.4.65.7.7 1.1.7 1.1.05 0-.55 1.3-.8 2.9-.6 1.55.25 3.15-.05 3.55-.65 1.05-1.7 2.85-1.3 2.15.55-.6 1.5-.45 1.5 1.85-.05 2.1-1.35 2.4-1.4 1.9-.1-.3.8-.05 1.5.55 1.5.6 0 1.1-.7 1.1-1.5 0-2.4 1.75-1.7 2.25.9.35 1.95.05 2.35-1.45 2.05-1-.2-1.6.05-1.3.55.3.45.1 1.15-.4 1.45-.55.35-1.45-.2-2-1.2-1-1.65-1.05-1.65-1.05.1-.05 1.25-.55 1.65-1.6 1.25-.85-.3-1.3-.2-1 .3.3.5-.15 1.15-1.05 1.5-2.5.95-3.4.7-3.4-.95 0-.85.45-1.3 1-.95.55.35 1 .2 1-.35 0-.5-.65-1.2-1.5-1.5-1.15-.45-1.5.2-1.5 2.8 0 2.85-.3 3.3-2 2.85-1.1-.3-2-1-2-1.55s-.65-.45-1.5.25c-1.2 1-1.5 1-1.5 0 0-.65-.65-.95-1.45-.65-.85.3-1.75.15-2.1-.4-.3-.5-1.9-.95-3.5-.95-1.65 0-2.95-.15-2.95-.35 0-1.4 3.35-6.65 4.25-6.65.6 0 .1-1.05-1.1-2.3-2.35-2.55-2.8-4.7-1-4.7.65 0 .9.3.5.65zm18.35 4.55c0 .4.8.45 1.75.15 1.4-.5 1.35-.3-.25 1-2.25 1.8-5 2-8 .55-1.6-.75-1.3-.85 1.25-.45 3.15.5 4.55-.8 2-1.75-.7-.3-.25-.45 1-.4 1.25.1 2.25.45 2.25.9zm66.95 7.05c3.95.15 5.4 1.8 2.95 3.3-.8.5-.7.95.25 1.55.75.5.85.9.25.9s-1.9-.9-2.9-2-2.3-2-2.9-1.95c-.6 0-.3.65.7 1.4 1.8 1.35 1.8 1.4 0 2.55-1.6 1.05-1.6 1.1-.05.6.95-.3 1.75-.05 1.75.5s.45.75.95.4c.6-.35.95.9.85 2.95-.1 2.35-.6 3.55-1.55 3.55-.8 0-1.25-.6-.95-1.35.5-1.25-3.3-6.65-4.65-6.65-1.05 0-.75 3.85.35 4.5.55.35 1 .05 1-.6 0-1.95 1.35-.05 1.7 2.4.15 1.2-.05 1.75-.45 1.2-.95-1.3-3.6-1.85-2.8-.6 1 1.65-1.9 1.9-3.7.3-1.1-.95-1.75-1.1-1.75-.35 0 .65-.65 1.15-1.5 1.15s-1.45.35-1.4.75c.85 5.4-.25 9.2-2.6 9-1.35-.1-2.5-.75-2.5-1.45 0-.65.65-1 1.4-.7 2 .75 2.9-1.2 1.6-3.6-1.85-3.45-.35-5.8 4.3-6.8 2.6-.5 4.1-1.35 3.9-2.15-.15-.7.2-1.8.75-2.5s.75-1.5.45-1.8c-.35-.35.35-.35 1.5-.05 2.25.55 2.65-.3 1.2-2.6-1.05-1.65-4.1-.75-4.1 1.2 0 .75-.65 1.35-1.5 1.35-1.95 0-1.95-1.25 0-2 .85-.35 1.45-.95 1.4-1.35-.3-1.9.25-2.4 2.05-1.8 1.05.3 3.75.65 6 .75zm63.7 3.2c0 .7-1.05 1.3-2.3 1.3-1.55 0-2.35-.6-2.35-1.75 0-1.25.6-1.6 2.35-1.3 1.25.25 2.3 1.05 2.3 1.75zm-124.75.8c.55 1.45.45 2.55-.3 3.05-.6.45-.1.55 1.15.2 2.3-.65 3.25 1 1 1.8-.7.2-.25.25 1 .05 1.7-.3 2.25.1 2.25 1.65 0 2.05-1.05 2.6-2.4 1.25-.45-.4-1.2-.8-1.7-.9-.5-.05-1.35-.15-1.9-.25-.55-.05-.95-.45-.9-.85.35-2.1-.2-3.3-1.25-2.65-.65.4-.9.15-.6-.7.25-.75.95-1.3 1.5-1.2.6.15.8-.65.55-1.75-.75-2.7.55-2.45 1.6.3zm144.1.25c0 1.5-1.8 3-2.65 2.2-.3-.3-.25-1.5.15-2.65.7-2.2 2.5-1.9 2.5.45zm9.5 2.5c.35.55 2 1 3.75 1 3.35 0 3.05 1.3-.45 1.55-1.15.05-2.95-.7-3.95-1.7s-1.45-1.85-.9-1.85c.5 0 1.2.45 1.55 1zm78.2 4.5c-1.45 1-3.55 1.15-7.2.5-.55-.15.8-.8 3-1.45 4.45-1.4 6.7-.9 4.2.95zm-67.7.95c0 1.15-.55 1.25-3 .4-1.65-.6-3-1.25-3-1.45 0-.2 1.35-.4 3-.4 1.95 0 3 .5 3 1.45zm-200 .95c0 .8.55 1.7 1.25 2 .7.3.35.45-.75.3-1.3-.1-1.9.3-1.75 1.3.2 1.15-.05 1.1-1.1-.25-1.4-1.8-2.65-1.35-2.65 1 0 .8.5 1.1 1.25.65.85-.5.95-.35.25.4-1.2 1.3-5.75.4-4.9-.95.3-.5 1.05-.6 1.7-.2.65.35.9.3.5-.1-1.65-1.8 1.2-4.65 3.4-3.45 1.8.95 2 .9 1.5-.5-.35-.85-.2-1.6.35-1.6.5 0 .95.65.95 1.4zm54 2.1c-1.5 1.8.05 2 1.95.25 1.1-1 1.2-1 .55.1-.45.8-.2 1.75.6 2.25 1.1.65.95.9-.6.9-1.95.05-1.95.1-.15 1.45 1 .8 1.55 1.9 1.2 2.5-1 1.55-2.85 1.25-2.2-.35.3-.8-.2-1.7-1.05-2.05-.9-.3-1.3-.9-.95-1.25.35-.35.1-1.25-.55-2.05-.9-1.1-.85-1.6.25-2.3 2.1-1.3 2.35-1.15.95.55zm210.9 7.1c-1 1.2-1.4 1.25-2.05.2-1.65-2.55-1-3.95 1.2-2.75 1.7.9 1.85 1.35.85 2.55zm-75.4-.6c1.5.65 1.6.9.4.95-.85 0-2.1 1.2-2.75 2.6-.65 1.45-1.65 2.25-2.25 1.9-.8-.5-.75-.9.1-1.45.7-.45.95-1.3.55-1.9-1.5-2.45.55-3.55 3.95-2.1zm13.95 3.9c-.15.85-.35 1.95-.35 2.35-.05.4-.6.75-1.15.75-.6 0-.75-.5-.4-1.1.4-.6.15-1.5-.55-1.9-1-.65-1-1.1.1-2.3 1.55-1.65 2.9-.45 2.35 2.2zm52.85 1.2l2.2 2.15-2.2-1.15c-2.85-1.45-3.35-1.4-2.65.4.3.8 1.55 1.55 2.7 1.65 2 .1 2 .15-.2.55-1.5.3-2.1.95-1.75 1.9.3.8-.05 1.4-.8 1.4-1.7 0-6.55-3.9-4.95-3.95.65-.05 1.35.5 1.6 1.15.2.7 1.1.85 2.3.4 1.85-.75 1.85-.85-.3-1.65-1.25-.5-2.25-1.1-2.25-1.4 0-.25.75-.2 1.65.15 1.15.45 1.45.25.95-.55-.7-1.1-.05-3.15 1-3.15.25 0 1.5.95 2.7 2.1zm8.7-1.05c0-.65.45-.9 1-.55 1.5.95 1.2 3.2-.55 3.9-2.3.85-5.5-1.4-4.1-2.95.8-.85 1.55-.95 2.4-.25.85.75 1.25.7 1.25-.15zm5.4 2.85c.3.45-.85 1.15-2.6 1.5-1.7.35-2.8.9-2.45 1.3 1.05 1.05-3.4 3.1-5.5 2.55-3.75-.95-1.95-3.05 3.15-3.65 1.75-.2 3.65-.85 4.3-1.5 1.35-1.35 2.4-1.4 3.1-.2zm-131.6 4.3c1.45 1.45 1.6 3.8.2 3.8-.55 0-.95-.35-.9-.75.35-1.95-.25-2.4-1.6-1.25-1.2 1-1.5.95-1.5-.2 0-2.8 1.85-3.55 3.8-1.6zm47.9 4.3c.9 8 .85 9.7-.4 11.5-.8 1.1-1.85 2-2.45 2-.55 0-.3-.7.6-1.55 1.7-1.75 2.1-2.9.65-2-.45.3-1.45-.15-2.1-.95-.95-1.15-.95-1.5-.05-1.5.65 0 .9-.45.55-1s-1.7-1-3.05-1c-1.35 0-2.45-.45-2.45-1s.95-1 2.05-1c1.15 0 1.8-.45 1.45-1-.35-.55.05-.7.95-.4.85.35 1.3 1 1 1.5-.3.5.15.6 1 .3 1.7-.7 2.1-2.4.55-2.4-.55 0-1-.7-1-1.5 0-.85-.5-1.5-1.05-1.5-.6 0-.75.55-.3 1.25.5.85.2.8-.95-.1-2.4-1.95-2.15-2.3 1.55-1.95 2.4.2 3.3.85 3.45 2.3zm21.2 2.4c.75.5 1.05 1.4.65 2-.35.6.05 1.4.9 1.7 2.15.85 1.95 1.95-.4 1.95-1.05 0-1.7-.3-1.45-.65.7-1.2-.75-3.95-1.75-3.3-1.4.85-4.1-.4-3.35-1.6.75-1.2 3.5-1.3 5.4-.1zm-28.1 4.1c.35 0 .05.55-.65 1.25-1 1-1.4.95-2.1-.15-.45-.75-1.25-1.1-1.75-.8-.5.3-1.45-.3-2.1-1.4-1.2-1.9-1.15-1.9 2.4-.4 2 .8 3.9 1.5 4.2 1.5zm35.15.6c-.85 1-.9 1.4-.05 1.4 3.4 0 .55 3.8-3.3 4.4-2.1.3-3.3 1.6-1.5 1.65 1.1 0 1.1.25-.2 1.25-.85.65-1.85 1.85-2.15 2.7-.4.95-.65.6-.75-1-.1-1.4-.25-3.75-.35-5.25-.15-1.5.15-2.75.55-2.75.45 0 .8.65.8 1.5 0 1.15.45 1.05 2-.5 1.1-1.1 2-2.65 2-3.4 0-1.5 1.95-2.65 3.3-1.9.45.25.25 1.1-.35 1.9zm-43.15 1.15c-.3 2.5-.05 2.75 2.95 2.6 1.8-.1 3 .25 2.7.75-.3.5-1.4.9-2.4.9-1.8 0-3.45 3.15-3.1 5.9.1.75-.95.1-2.3-1.5-2.5-2.85-2.55-2.85-4.05-.9-1.6 2.1-2 1.75-1-.9.35-.9 1.2-1.6 1.95-1.6 2.05 0 2.65-1.75 1.4-4.1-.9-1.7-.85-2.35.2-3 2.6-1.65 3.95-1 3.65 1.85zm-43.9 1.65c.75.55 2.7.9 4.35.75 1.75-.2 2.75.05 2.35.65-.3.55-2.8.85-5.5.7-4.1-.25-5 0-5.4 1.5-.35 1.3-.05 1.7.9 1.3.95-.35 1.25 0 .85 1.05-.35.85-1.2 1.3-1.95 1-1.95-.75-2.8-3.55-1.3-4.45.95-.6.8-.95-.5-1.45-2.4-.95-2.1-2.25.55-2.7 2.4-.4 3.45-.1 5.65 1.65zm26.1-.4c0 2.45-1 3-3.05 1.75-1.2-.75-1.55-1.55-.9-2.3 1.4-1.7 3.95-1.35 3.95.55zm61.05 9.85c0-.75.65-.25 1.4 1.15 1.25 2.2 1.2 2.6-.3 3.2-2.7 1.1-2.9.95-3.35-2.2-.35-2.35-.2-2.75.9-1.85.95.8 1.3.75 1.35-.3zm-3.65 3c.7 1.1-2.05 4.85-2.9 3.95-.9-.85.35-4.8 1.5-4.8.5 0 1.1.4 1.4.85zm-17.25 1.5c-.65.75-.85 1.6-.5 1.95.35.35.1 1.25-.5 2s-.9 1.6-.6 1.9c.3.3-.15.8-1 1.15-1.75.65-2.2-1.85-.55-2.85 1.5-.95.05-2.75-1.7-2.05-.9.35-1.3.05-1.05-.7.25-.7 1.4-1.1 2.6-.95 1.2.2 2.15-.15 2.15-.75 0-.55.5-1.05 1.1-1.05.85 0 .85.35.05 1.35zm-145.15 3.65c-.6 1.1-1.7 2-2.45 2-.75 0-1.6.55-1.9 1.25-.25.7-.55.2-.55-1.05-.05-1.45.7-2.6 2.15-3.15 3.45-1.4 3.9-1.25 2.75.95zm52.1-137.75c.25 3.1 1.7 6.35 1.8 4.1.05-1.2.35-2.9.7-3.75.4-1.05.05-1.6-1-1.6-.9 0-1.55.55-1.5 1.25zm130.05 58.2c.05 4.7 1.7 9.3 1.9 5.35.45-8.05.3-10.2-.75-10.55-.85-.25-1.2 1.25-1.15 5.2zm-219.5 13.2c-1.3 1.3-.65 2.6.75 1.45.85-.7 2.55-.9 4.15-.5 1.95.5 2.55.35 2.05-.45-.75-1.25-5.85-1.6-6.95-.5zm162.4-120.2c-.8.95-1.5 9.5-2.1 25.25-1.35 36.6-1.8 44.6-2.45 46.9-.75 2.4 1.7 5.4 4.3 5.4 1.5-.05 1.5-.15.2-1.1-1.15-.8-.7-.95 1.9-.5 1.85.35 5.9.7 9 .75l5.6.2-6 .55c-8.2.85 10.9 2.2 34.7 2.55 11.85.15 17.15.6 18.25 1.55.95.75 2.9 1.05 5.05.7 1.95-.3 3.5-.15 3.5.35 0 .55 2.15 1 4.75 1 2.6.05 10.15.65 16.75 1.35 8.6.9 12.2.95 12.75.2.4-.6.7-14.85.7-31.6 0-16.8-.3-31-.7-31.65-.95-1.45-23.75-7.45-37.75-9.95-1.65-.25-4.35-.95-6-1.45-1.65-.5-4.35-1.1-6-1.3-1.65-.25-14.15-2.7-27.8-5.55-27.9-5.75-27-5.6-28.65-3.65zm31.7 7.15l24.25 4.8.2 8.05.2 8.05.35-7.75c.2-4.25.7-7.75 1.15-7.75 7.3 0 46.05 11.7 42.75 12.9-1.65.6-1.65.85-.3 1.95 1.55 1.35 1.15 4.6-.45 3.6-.5-.3-.9-.1-.9.45s.45 1.25 1 1.6c.6.35.7 1.15.3 1.8-.5.9-.35.95.75.05 1.2-1 1.5-.5 1.75 3 .9 13.75.7 19.5-.9 24.9-.95 3.15-1.3 5.75-.85 5.75.5 0 .6.7.3 1.55-.35.85-1.25 1.35-2 1.05-.75-.3-1.35-.1-1.35.45 0 .5.65.95 1.45.95.75 0 1.55.8 1.8 1.75.5 2.45-.3 5.35-1.35 4.7-.5-.3-.6.15-.3 1 .45 1.15-.05 1.55-1.9 1.55-2 0-2.7-.65-3.2-3-.9-4.1-2.5-4.8-2.5-1.05s3.45 3.75-37 .05c-17.85-1.65-33.3-3-34.25-3-1.35 0-1.75-.85-1.75-3.5 0-1.95-.45-3.5-1-3.5s-1 1.5-1 3.3v3.3l-8.2-.8c-4.5-.45-8.55-1.15-9.05-1.65-.8-.8.95-66.1 1.85-69 .3-.95 1.35-1.2 3.15-.85 1.5.3 13.65 2.7 27 5.3zm-4.4 19.2c-8.35 5.35-15.8 10.15-16.6 10.7-1.15.8 1.95 4.3 14.95 16.95 18.95 18.4 20.3 18.85 17.85 6.05-.75-3.85-1.25-7.1-1.1-7.25.15-.2 12.95 1.5 28.5 3.75 15.55 2.2 28.4 4 28.65 4 .2 0 .4-3.95.4-8.8v-8.8l-11.75-2.3c-6.45-1.25-19.1-3.55-28.05-5.1-19.25-3.3-17.7-2.3-15.7-10 3-11.65 2.15-11.6-17.15.8zm11.3 9.95c1.75 1.8 3.9 3.25 4.75 3.25 1.05 0 1.6.9 1.6 2.55 0 1.85-.45 2.45-1.75 2.25-1.2-.2-1.65.25-1.45 1.55.2 1.15-.45 2-1.75 2.35-1.1.3-2.05.85-2.05 1.25s-.65.7-1.5.7c-.8 0-1.5-.55-1.5-1.2 0-.8-.8-1.05-2.05-.75-1.1.3-1.95.15-1.85-.3.35-2.15-.25-3.2-2.2-3.7-1.15-.3-1.8-1.05-1.45-1.65.35-.55-.05-1.05-.9-1.05-3.4 0-.1-5.15 4.2-6.45 1.25-.4 2.05-1.05 1.8-1.5-1.35-2.2 3.35-.1 6.1 2.7zm20.35-14.8c0 6.8 1.7 7.3 1.85.55.1-3.05-.3-5.5-.85-5.5s-1 2.2-1 4.95zm-.35 49.7c-1.05 1.05-.75 5.35.35 5.35.55 0 1-1.35 1-3 0-3.1-.2-3.45-1.35-2.35zm-164.7 2.1c-.4 6.85-1 56.6-.65 56.25.75-.8 1.85-14.9 1.7-22.25-.05-5.1.2-6.7 1.2-6.5.85.15 1.25-.75 1.15-2.75-.1-1.65-.4-7.75-.7-13.5-.3-5.8-.55-10.85-.6-11.25 0-.4-.5-.75-1.05-.75s-1 .35-1.05.75zm-46.75 22.45c-.95.4.9.65 4.1.6 3.2-.1 6-.5 6.25-.9.6-.9-8-.65-10.35.3zm12.8-.4c0 .45 2.05.95 4.6 1.05 2.5.15 4.35-.15 4.05-.65-.7-1.1-8.65-1.45-8.65-.4zm65.45 0c1.25 1.25 44.55 2.9 67.05 2.5 6.6-.1 15.85-.15 20.5-.1 17.3.2 23.55-.05 26-1.05 1.95-.8-.45-1.1-10.5-1.25-18.4-.4-103.4-.45-103.05-.1zm145 1.25c-.45.8-.35 1 .3.6 1.15-.7 6.3 1.2 7.4 2.7.35.5 8 1.1 17 1.3 9 .25 17.35.55 18.6.75 1.8.25 2.25-.15 2.25-2.1 0-2.35-.25-2.45-6.75-2.35-10.2.15-28.15-.6-33.4-1.4-3.25-.55-4.85-.4-5.4.5zm-223.95 5.95c7.35.8 28.15 1.25 27.4.6-.2-.2-8.05-.6-17.4-.85-10.35-.35-14.25-.25-10 .25zm128 8l-4 .6 4.3.5c2.4.25 4.55.15 4.8-.25.75-1.2-.9-1.45-5.1-.85zm-158.5 5.4v4.3l4.5-.15c2.5-.1 4.5.2 4.5.65s-1.25.85-2.75.9l-2.75.15 2.9.6c1.6.35 3.15 1.4 3.5 2.35.45 1.25 1.05 1.45 2.05.8 1.3-.75 1.25-1-.15-1.55-.95-.35-1.45-1.25-1.15-2.05.3-.75.95-1.15 1.45-.85.5.3.9.15.9-.4s-.55-1.2-1.25-1.5c-.75-.3-.6-.5.45-.55.9-.05 2-.65 2.4-1.25.5-.8.15-1-1.05-.5-1.25.45-1.9.1-2.25-1.4-.3-1.15-1.15-1.85-1.8-1.6-.7.3-2.1-.05-3.15-.75-4.2-2.8-6.35-1.85-6.35 2.8zm210.1-3.05c.95.85 9.9 1.35 9.9.55 0-.5-2.3-.9-5.15-.9-2.85 0-5 .15-4.75.35zm-75.35 3.35c1.8.25 4.5.25 6 0 1.5-.2.05-.4-3.25-.4s-4.55.2-2.75.4zm-5.4 2.05c.1 1.25-.85 1.9-3.35 2.35l-3.5.65 3.85.1c4.5.15 4.65 2.45.15 3-2.15.25-2.5.55-1.4 1.2 1.05.7 1.1.9.1.95-.75 0-1.05.45-.7 1 .35.55.15 1-.45 1-.55 0-1.05.6-1.05 1.4 0 .75-.65 1.9-1.5 2.6-.8.65-1.25 1.65-.95 2.1.3.5-.25.9-1.25.95-1.65 0-1.65.15.2 1.6 1.5 1.2 1.55 1.45.35 1.05-2.15-.75-3.4 2.2-1.65 3.9 1.05 1.05 1.7 1 3.3-.2 1.9-1.45 1.9-1.5-.75-1-1.55.25-2.75 0-2.75-.55 0-.6.6-.85 1.3-.55 1.75.65 7.7-1.9 7.7-3.35 0-.65-.65-.9-1.5-.6-1.25.5-1.25.25-.25-1.4.8-1.25 1.85-1.75 3.05-1.35 1 .3 2.9-.15 4.2-1 1.35-.9 3.1-1.6 3.95-1.6.85 0 1.55-.45 1.55-1s-.45-1-1-1-1-.9-1-2-.55-1.9-1.25-1.75c-.75.15-1.15-.65-1-2 .2-2.1-2.35-6.25-3.85-6.25-.4 0-.6.8-.55 1.75zm1.35 10.25c-.05 1.1-.5 2-.9 2-.45 0-1.1.1-1.45.25-.35.15-.8-.8-1-2.05-.2-1.35.05-2.05.65-1.7.55.35 1 .1 1-.5s.4-.85.95-.55c.5.35.85 1.5.75 2.55zm-12.05-10.35c-1.55 1.6-.65 5.35 1.35 5.35 1.55 0 2-.65 2-3 0-2.8-1.65-4-3.35-2.35zm36.85 11.45c-1.9.7-1.9.75.2.85 1.2 0 2.45.5 2.8 1.05.7 1.1 2.5.4 2.5-.95 0-1.25-3.3-1.85-5.5-.95zm-78.45 1.65c-.05.7-.8 1.25-1.75 1.25-1.5 0-1.5.15.15 1.35 1.45 1.05 1.75 2.15 1.25 5-.3 2-.2 3.65.25 3.65 1.15 0 2-9.25 1-11-.6-1-.9-1.05-.9-.25zm61.5.2c-.35.5-1.45.75-2.55.55-2.35-.45-3.2.6-2 2.5.65 1.05 1.15 1.1 2.25.2.8-.65 1.65-1 1.9-.75s.95-.4 1.65-1.5c.65-1.05.8-1.95.25-1.95-.5 0-1.2.4-1.5.95zm3.1 1.45c-1.45 2.25-1.45 2.4.45 2.9 1.6.45 1.8.25.9-.8-.85-1.05-.65-1.4 1.1-1.65 1.95-.3 2.05-.5.7-1.6-1.3-1.1-1.8-.9-3.15 1.15zm11.35-.5c0 .5-1.4.7-3.1.45-1.95-.3-2.9-.1-2.5.5.35.55-.15 1.2-1.15 1.45-.95.2.95.35 4.25.3 4.5-.05 5.95.25 5.75 1.2-.2.75.15 1.1.65.75.55-.3 1.45.2 2 1.2.6.95 1.05 1.4 1.05.95.05-.4-.7-1.9-1.6-3.3-1.8-2.7-5.35-5.1-5.35-3.5zm-139 2.75c0 .7.5 1.55 1.05 1.9.6.35.85 1.35.5 2.15-.4 1.1-.1 1.35 1 .9.9-.3 3.05-.65 4.8-.7 2.95-.1 3-.15.65-.8-1.7-.45-2.1-.95-1.25-1.45 1.95-1.2 1.45-2.5-.75-1.95-1.1.3-2 .05-2-.5 0-.6-.9-1-2-.95-1.1.1-2 .75-2 1.4zm114.1 3.6c-1.35 2.2-1.35 2.2.65.45 1.7-1.55 2.1-1.55 2.6-.3.35.95-.2 1.75-1.4 2.1-3 .95-2.3 2.6.8 1.9 3.65-.9 3.65-.85 1.7-3.8-2.05-3.2-2.6-3.2-4.35-.35zm19.4-1.25c-1.1.45-1.45.9-.75.95.7 0 1.25.7 1.25 1.5 0 1.65-3.45 3-5.15 1.95-.7-.4-.9-.3-.5.35.35.55 0 1.3-.8 1.6-.8.3-1.6 0-1.85-.65-.2-.65-.3-.45-.15.5.1.9-.4 1.9-1.15 2.2-.75.3-1.4.1-1.4-.45 0-.5-1-.95-2.25-.9-2.1.05-2.1.1.5 1.5 3.25 1.75 3.55 2.95.8 3.15-1.2.1-1.75-.3-1.45-1.1.25-.7-.2-1.25-1.05-1.25-.85 0-1.55.8-1.55 1.8 0 1.1-.75 1.85-1.75 1.85-1.35.05-1.45.2-.4.9 1 .65 1.05 1.05.2 1.6-.65.4-.95 1.35-.65 2.1.3.8-.1 1.4-.85 1.4-1.9 0-2.9-1.7-1.3-2.25.95-.35.8-1.25-.55-3.6-1-1.75-1.55-3.6-1.2-4.15.55-.95-.85-1.45-2.85-1.1-.5.1-.6-.6-.25-1.6.55-1.6.45-1.6-.85.1-.8 1.05-1.25 2.3-.95 2.75.3.45.05.85-.5.85-.6 0-1.35-1.1-1.65-2.4-.85-3.3-10.45-4.55-10.45-1.4 0 .6 1.55.8 3.75.45 2.05-.3 3.2-.35 2.5-.05-.7.3-.95 1.05-.6 1.6.4.7-.65.9-3 .65-2-.25-3.65-.1-3.65.4 0 1.35 5.25 2.9 7.8 2.25 1.75-.45 2.2-.25 1.6.7-.4.7-.4 1 .05.6.4-.35 1.8-.25 3.1.25 1.45.55 2.6.5 2.95-.1.35-.5-.2-.95-1.2-.95-1.5-.05-1.55-.2-.3-1 2.85-1.85 2.8-1.9 1.8 7.75-.05.7-.75 1.25-1.45 1.25-.75 0-1.35.4-1.35.9 0 1.15 5.65 1.95 7.2 1 .7-.45 1.6-.25 2 .4.65 1.05 1.3-2.1.9-4.55-.05-.4.3-.75.8-.75.45 0 1.1-.85 1.35-1.85s1.5-2.1 2.7-2.45c1.6-.4 2.05-.2 1.7.8-.3.75.2 1.6 1.15 1.85s.4.4-1.2.3c-2.25-.1-2.95.3-3.2 2.1-.25 1.45.1 2.25 1.05 2.25 1.8 0 3.15-2 1.35-2.05-.7-.05.25-.6 2.1-1.25 3.25-1.15 5.75-4.1 2.95-3.5-.75.2-1.45-.75-1.6-2.2-.25-2.15-.15-2.25.75-.75 2.1 3.35 4.85 1.55 4.1-2.65-.1-.45.7-.6 1.8-.35 1.5.4 1.8.15 1.35-1.1-.35-.9.6-.35 2.05 1.25 1.5 1.6 3.05 2.55 3.45 2.1.4-.4.2-.95-.5-1.2s-1.25-1.6-1.25-2.95c0-1.45-.45-2.2-1.05-1.85-.65.4-.85-.3-.55-1.9.25-1.45.4-2.55.3-2.55-.1.05-1.1.5-2.2.95zm12.85 2.85c-.7 1.85-.8 3.35-.25 3.7 1.2.75 2.15-1.8 1.75-4.6-.3-1.95-.5-1.85-1.5.9zm-3.85-.85c.35.55-.3 1-1.45 1-1.1 0-2.05.65-2.05 1.45 0 2.05 1.3 2.55 3 1.2 1.85-1.4 2.5-4.65 1-4.65-.6 0-.85.45-.5 1zm-127.5 1c-2.3.55-3.75 4.1-1.6 3.9.5-.05 1.3.55 1.8 1.25.7.95.85.7.5-.9-.7-3.05.7-3.65 4.05-1.75 2.05 1.15 2.2 1.45.6 1-1.2-.3-2.5-.05-2.9.6-.5.75-.35.95.4.5.65-.4 1.15-.2 1.15.4 0 .7.8.9 2.15.45 1.55-.5 1.9-.35 1.35.6-.6.9-.1 1.1 1.85.75 1.45-.3 2.65-.15 2.65.35 0 .45-.5.85-1.15.85-.65 0-.9.25-.6.6.3.3 1.55.05 2.8-.6 1.2-.65 2.5-.8 2.85-.35.3.45 1.3 1 2.1 1.2 3.2.75 4.55 1 6.5 1.15 2 .15 2 .15 0 .95-1.3.55-.2.7 3.25.55 2.85-.15 6.35-1 7.75-1.9 3.2-2.1 3.15-2.6-.1-2-1.9.35-2.35.15-1.8-.8.4-.7.4-1-.05-.6-.4.35-1.85.25-3.15-.25-1.7-.65-2.4-.55-2.4.3-.05.85-.35.75-.95-.2-.5-.8-.7-1.8-.4-2.25.25-.45-.25-.8-1.15-.8-.95 0-1.35.45-.9 1.15.45.75.25.9-.45.45-.65-.4-.9-1.15-.6-1.65.65-1.05-4.25-3.6-5.15-2.7-.3.3-.05 1.55.6 2.7 1.75 3.3.7 4.75-1.7 2.35-1.6-1.6-2.4-1.85-3.35-.95-.95.9-1.05.85-.55-.1.4-.7.15-1.25-.6-1.25-1.05-.05-1.05-.2 0-.85.75-.45-.85-.8-3.8-.75-2.8.05-5.4-.4-5.8-1-.4-.55-1.8-.75-3.2-.4zm-15.7 1.65c.85 1.45-.15 4.35-1.5 4.35-.55 0-.7-.8-.35-1.75.55-1.45.45-1.5-.65-.45-1.05 1.1-1 1.55.45 2.65.95.7 1.75 2 1.75 2.9 0 .9.7 1.65 1.5 1.65.85 0 1.5.4 1.5.9s.8.8 1.75.65c.95-.15 2.6.15 3.6.65 2.35 1.25 8.75 1.8 8.1.7-.3-.45.75-1.5 2.25-2.3 1.6-.9 2.15-1.55 1.25-1.55-.85-.05-2 .4-2.6 1-1.45 1.45-6.35 2.2-6.35.95 0-.6 1.2-1.5 2.65-2.05 4.4-1.7.35-3.7-6.75-3.35-5.8.3-7.7-1.65-2.85-2.9 1.1-.3 1.95-1 1.95-1.6 0-1.4-1.7-1.45-2.55-.05-.4.7-1.15.6-2.25-.25-.95-.8-1.3-.85-.9-.15zm13.15 6.25c.3.45-.05.85-.7.85-3.75-.15-4.95.35-4.4 1.75.5 1.2.05 1.4-2.15.9-4.05-1-5.05-2.4-1.65-2.4 1.6 0 3.65-.45 4.45-1 1.9-1.2 3.7-1.25 4.45-.1zm99.8-4.15c.4.25.75 1.2.75 2.15 0 2.35 2.55 2.25 2.75-.05.05-1.05-.25-1.85-.75-1.85-.45 0-1.45-.15-2.15-.35-.75-.15-1-.15-.6.1zm158.75 2.7c0 1.3 4.9 3.95 5.75 3.1.3-.25-.2-.8-1.15-1.15-1.1-.4-1.35-1-.7-1.75.65-.8.2-1.2-1.5-1.3-1.3-.05-2.4.4-2.4 1.1zm-284.75 5.55c0 5.2 1.6 6.4 7.25 5.55 2.95-.45 4.5-.3 4.5.4 0 1.7 8.55 1.25 10.05-.5 1.05-1.3 1.05-1.5-.15-1.25-.75.15-1.3-.25-1.15-.95.15-.7-.15-1.25-.65-1.25s-1.2.55-1.5 1.25c-.35.85-1.05.55-2.15-1-1.3-1.7-2.05-2-3.5-1.25-2.05 1.15-3.55-.25-2.35-2.15.5-.8.15-.95-1.1-.5-1.4.55-1.55.4-.65-.65 1.45-1.75-4.6-2-6.8-.3-1.1.85-1.25.8-.7-.15.45-.7.35-1.25-.15-1.25s-.95 1.8-.95 4zm5.75 3.55c0 1.85-2.4 1.85-3.95.05-.9-1.15-.8-1.5.65-1.85 2.3-.5 3.3 0 3.3 1.8zm38.15-3.45c-1.25 2.05-5.9 1.75-7.4-.5-.5-.75-.7-.7-.75.2 0 .75-.45 1.05-1 .7-1.55-.95-3.95 1.95-2.95 3.55.5.85.35 1.95-.35 2.8-1 1.2-.8 1.3 1.3.6 1.4-.45 4.75-.85 7.5-.8 2.75 0 3.75-.15 2.25-.4-1.5-.2-2.75-.7-2.75-1.1 0-1.15 3.85-3.15 4.2-2.15.15.5 1.3.15 2.55-.8 2.15-1.65 2.15-1.75.45-2.85-1.5-.95-2.05-.8-3.05.75zm22.6 1.9c-.65 1.1-1.8 2-2.55 2-.7 0-1 .5-.65 1.05.35.6 1.15.9 1.8.65 2-.75 5.35 1.05 5.9 3.2.3 1.15.15 2.1-.35 2.1s-.9-.45-.9-.95c0-.55-.85-1.45-1.9-2-1.6-.85-1.85-.7-1.4.95.3 1.1.05 2-.6 2-.6 0-1.1-.75-1.1-1.6 0-1.15-.4-1.35-1.25-.75-2.4 1.7-8.3 1.05-7.95-.9.35-2-.85-2.3-2.5-.65-.8.8-1.05.6-.95-.75.1-1.3-.6-1.9-2.35-2.05l-2.5-.2 2.5.8 2.5.8-2.65 1.1c-1.45.6-2.95 1.5-3.25 2.05-.95 1.5 1.4 2.55 2.7 1.25 1.35-1.35 5.05-1.45 4.2-.1-.35.55-.1 1 .5 1 .7 0 .6.5-.2 1.4-.8.85-1.55 1-1.9.4-.4-.65-.95-.55-1.4.2-.55.95-.95.9-1.65-.15-.65-1.05-1-.8-1.45.9-.6 2.2-2.4 3.2-2.4 1.35 0-.5-.9-.7-2-.4-1.1.3-2 1.2-2 2.05 0 1.2.3 1.25 1.5.25 1.1-.95 1.5-.95 1.5-.05 0 .65.45.9 1.05.55 3-1.9 7-1.45 5.85.65-.8 1.5-1.4 1.75-2.2.95-.6-.6-1.55-1.1-2.15-1.05-.6 0 0 .9 1.3 2 1.55 1.3 2.15 2.5 1.7 3.65-.55 1.5-.8 1.55-1.6.25-.5-.8-.95-1-.95-.4 0 .55-1.7.85-4.1.6-2.85-.25-3.7-.65-2.75-1.25 1-.65 1-.85.1-.9-.7 0-1.25-.6-1.25-1.4 0-.8-1.5-1.65-3.55-2.05-1.9-.35-3.25-1.1-2.9-1.6.3-.5.1-.95-.4-.95-.55 0-1.35 1-1.7 2.15-.65 2.15-.75 2.15-1.8.25-1.35-2.25-4.65-2.8-4.65-.8 0 .8.9 1.4 2 1.4 1.5 0 1.95.6 1.75 2.5-.1 1.5-.55 2.1-1.1 1.55-.5-.5-1.85-.55-3.15-.05-1.45.55-2.65.45-3.35-.25-1.85-1.85-1.3-2.95 1.1-2.3 2.2.6 2.2.6-.15-.75-1.7-1.05-2.05-1.65-1.1-2.2.95-.6.85-1-.45-1.75-.95-.5-1.95-.65-2.3-.35-.3.35-.05.6.6.6.85 0 .75.7-.35 2.35-.8 1.25-1.15 2.7-.75 3.15.4.45.2.5-.5.1s-1.25-.25-1.25.35c0 .55.9 1.05 2 1.05s2 .35 2 .8c0 .4 1.4.9 3.15 1 4.35.35 5.5 1.25 3.4 2.8-.95.7-1.5 1.65-1.2 2.1.25.5-.4.85-1.5.85-1.4 0-1.85-.5-1.5-1.75.4-1.5-.2-1.8-3.45-1.8-2.4 0-3.95.5-4 1.25-.1.7-.4-.1-.75-1.75-.45-2.1-1.35-3.1-2.9-3.3-2.25-.35-2.7-3.2-.8-4.9.5-.45.55-.25.2.4-1.2 2 .9 2.25 2.15.25.75-1.2.8-1.95.2-1.95-.55 0-1-.7-1-1.5 0-1 1.05-1.5 3.25-1.55l3.25-.05-4-1.5c-2.2-.85-4.55-1.6-5.25-1.65-.95-.05-.9-.5.15-1.65 1.3-1.45.95-1.65-3.5-1.9-2.9-.15-4.9.15-4.9.75s1.15 1.05 2.5 1.05c1.55 0 2.5.55 2.5 1.5 0 .8-.7 1.5-1.55 1.5-.85 0-1.3-.45-.95-1 .35-.55-.05-1-.9-1s-1.4.85-1.3 2.05c.1 1.45.65 1.95 1.9 1.6 1-.25 2.05-.05 2.35.45.3.5 1 .9 1.55.9s.75-.45.4-1 .5-1 1.9-1c1.85 0 2.4.4 1.95 1.5-.3.8-1.15 1.5-1.85 1.5-1.6 0-2.5 2.25-2.5 6.1 0 2.45.4 2.9 2.55 2.9 1.45 0 2.3.45 1.95 1-.9 1.45-5.25 1.25-5.8-.25-.75-2.05-4.2.65-4.3 3.35-.1 3.3 1.45 6.1 2.9 5.25.65-.4.4.2-.55 1.3-2 2.3-2.2 3.35-.7 3.35.6 0 .8-.45.45-1-.35-.55-.15-1 .45-1 .55 0 1.05.45 1.05 1s.7 1 1.6 1c1.05 0 1.4-.55 1-1.55-.3-.9-.15-1.3.4-.95.55.35 1-.1 1-.95 0-.95.85-1.55 2.25-1.55 1.25 0 1.8.35 1.25.75s-1.65 1.65-2.5 2.75c-1.45 2-1.45 2 .75.1 1.9-1.6 2.3-1.65 2.8-.35.7 1.8 2.95 1.7 4.7-.2 1-1.05.75-1.2-1.5-.65-2.05.5-2.75.25-2.75-.85 0-1 .55-1.25 1.65-.85 1.05.4 1.45.25 1-.45-.35-.55 0-1.3.75-1.6.9-.3 1.65.35 2.05 1.9.7 2.95 2.55 3.25 2.55.45 0-2.5 4.9-4.8 6.1-2.85 1.05 1.7-.95 5.15-2.6 4.5-.75-.3-1.6.1-1.9.9-.4 1.05.25 1.45 2.45 1.45 1.6 0 2.95-.5 2.95-1.1 0-.6.75-.85 1.65-.5 1.35.55 1.45.4.35-.9-.7-.85-.95-1.85-.6-2.25.4-.4 1-.25 1.4.3 1.05 1.45 3.85 1.35 3.85-.2 0-.75-.6-1.35-1.4-1.35-.75 0-1.1-.4-.8-.9.3-.5 1.45-.7 2.55-.4 1.1.3 1.75.95 1.45 1.4-.3.5 0 .9.75.9.85.05.95.3.25.75-1.95 1.35-2.5 4.25-.85 4.25.85 0 1.2-.5.85-1.1-.4-.65.05-.95 1.25-.75 1.05.2 3.4-.9 5.2-2.4 1.8-1.5 3.95-2.75 4.75-2.75.8 0 2.15-.7 3-1.5.8-.85 1-1.5.4-1.5-.55 0-1.05-.9-1.05-2 0-2.05 1.95-2.2 8.15-.55 1.45.4 2.9.25 3.25-.3.35-.55-.2-.75-1.4-.45-1.4.35-2 .05-2-1.1 0-1.5 1.65-2.05 4.75-1.65.7.05 1.25-.3 1.25-.85 0-.5 1-1.1 2.25-1.3 1.25-.2 2.15-.95 2-1.65-.2-.7.2-1 .75-.65 3 1.85 5.2-4.45 2.95-8.55-.7-1.35-.7-1.95 0-1.95.55 0 .95-1.1.8-2.45-.15-2.1-.6-2.4-3.05-2.15-2.4.3-2.8.05-2.4-1.5.65-2.45.05-2.4-1.55.1zm-2.35 9.85c.8 1.25-2.75 4.2-4 3.35-2.05-1.3-1.2-4.2 1.2-4.2 1.25 0 2.5.4 2.8.85zm4.05 2.2c-.3.5.15.65 1 .35.85-.35 1.55-1.05 1.55-1.55 0-.55.45-.7 1.05-.3.75.45.75 1 0 1.9-.55.65-.7 1.55-.3 1.95.4.45-.45.45-1.9.1-2.2-.55-2.8-.25-3.4 1.65-.75 2.35-.75 2.35-1.7-.45-.8-2.3-.6-3.1.9-4.15 1.9-1.45 3.8-1.1 2.8.5zm-13.1 3.5c-.35.9.05 1.45 1.05 1.45 2.1 0 2.05 1.4-.1 3.15-1.25 1-1.5 1-.9.05.95-1.6-1.2-4.4-2.75-3.6-.65.3-.35-.1.6-.85.95-.8 1.4-1.8 1-2.25-.4-.45-.2-.5.45-.15.65.4.95 1.35.65 2.2zm-19.95 3.25c.9 1.55-1.2 3.5-3.2 2.95-1.45-.35-1.9-.1-1.55.85.3.75 2.1 1.65 4 2 2.85.55 3.9 1.85 1.5 1.9-.35 0-1.25.4-1.95.85-.7.45-1.9.6-2.7.3-.75-.3-1.5-.15-1.7.35-.15.55-.95.5-1.8-.1-1.15-.8-1.2-1.2-.25-1.55.7-.3 1.25-1.85 1.25-3.45 0-3.35 4.9-6.5 6.4-4.1zm13.15 6.1c-.3.5 0 1.15.7 1.4.7.2.9.8.5 1.2-.4.45-1.4.2-2.3-.55-1.35-1.1-1.75-1.1-2.5.1-.5.8-.95 1-.95.4s.55-1.6 1.2-2.25c1.4-1.4 4.2-1.65 3.35-.3zm-40.25 1.15c4.35-1 4.5-.55 1.15 3.3-4 4.55-8.85 2.5-6.8-2.85.35-1 .9-1.25 1.25-.65.4.65 2 .75 4.4.2zm35.35 4.45c-.9.65-1.35 1.5-.95 1.85.35.35.15.65-.45.65-1.8 0-2.5-1.95-1.25-3.5.6-.75 1.85-1.1 2.7-.8 1.4.55 1.4.75-.05 1.8zm54.95-29.85c-.4.95.1 2.15 1.15 2.9 1.3 1 1.45 1.6.6 2.45-.85.9-1.5.6-2.75-1.15-.85-1.25-1.6-1.7-1.6-1.05 0 .7-1.15 2.4-2.5 3.8-2.2 2.2-2.35 2.7-1.1 3.95 1.9 1.9 2.7 1.85 1.95-.15-.65-1.65 6.95-1.55 9.75.15.75.45.95.35.55-.35-1.05-1.7 2.75-3.4 4.25-1.9.7.65 1.15.75 1.05.2-.5-2.7.1-4 1.1-2.3.6 1.05 1.65 1.45 2.65 1.1.9-.35 1.35-.25 1.05.3-.35.55.2 1.05 1.25 1.1 1 .1 2.1-.5 2.4-1.35.35-.8 1.05-1.2 1.6-.85s1 .2 1-.35c0-.5-.7-1.2-1.6-1.55-2.35-.9-2.65-.75-2 .95.4 1.15.1 1.5-1.15 1.25-.95-.2-1.75-1-1.8-1.8 0-.85-.4-2.1-.85-2.85-.65-1.05-.35-1.2 1.25-.7 1.7.55 2.15.25 2.15-1.4 0-1.1-.45-2.05-1-2.05s-1 .5-1 1.1c0 .65-.75.85-1.7.45-.95-.35-1.4-.35-1.05.05 1.5 1.5-1.45 3.3-4.6 2.85-1.75-.25-2.6-.2-1.9.1.7.35 1.25 1.05 1.25 1.55 0 .6-.8.55-2-.1-1.1-.6-1.85-1.6-1.75-2.3.15-.65-.55-1.05-1.6-.9-1.05.2-1.6-.1-1.25-.65.35-.55.2-1.25-.3-1.6-.5-.3-1.15.2-1.5 1.1zm187.05 3.8c2 1.4 3.9 6.65 2.25 6.25-.4-.1-1.4.7-2.25 1.8-1.45 1.9-1.5 1.95-3.5.1-1.4-1.25-3.05-1.7-5.15-1.4-1.7.25-3.3.1-3.6-.35-.8-1.3-2.45-1-2.15.4.15.7-.3 1.15-1 1-.7-.15-1.15.3-1 1 .15.7-.35 1.15-1.05 1-.8-.2-1.1.2-.7 1 .35.7-.05.4-.95-.7-.85-1.05-1.6-1.6-1.65-1.25-.1.4-.2 1.15-.25 1.75-.1.55-.75 1.4-1.5 1.85-1.15.7-1.05 1.1.5 2.05 1.75 1.1 1.75 1.1-.15.6-2.7-.7-5.2 2.9-3.45 5.05.65.75 1.7 1.4 2.3 1.35.65 0 .3-.65-.7-1.4-1.7-1.3-1.65-1.4 1.25-1.35 2.35.1 2.85.4 2.05 1.35-.75.9-.65 1.5.25 2.1 2.05 1.3 6.05 1.6 5.35.4-1-1.6.8-1.25 3 .5 1.1.9 1.45 1.35.85 1.05-.6-.25-1.05.1-1.05.85 0 1.3 2 1.5 3.2.3 1.5-1.5 2.2-7.6.85-7.05-.8.3-1.4.05-1.4-.5s-.9-.8-2-.5c-2.2.6-2.75-2-1-4.7.8-1.2.95-1.05 1 .75 0 2.4 1.4 3 2.6 1.1.45-.7.25-.9-.45-.45-.65.4-1.15.1-1.15-.75 0-.8.55-1.7 1.25-1.9.7-.25.05-.45-1.45-.5-2.65 0-5.3 3.9-5.1 7.5.05.65-.3 1-.75.75-.4-.3-1 .05-1.2.75-.25.7-.8-.25-1.2-2.1-.45-2.1-.35-3.75.35-4.45.8-.8 1.1-.75 1.1.1 0 .65.5 1.2 1.1 1.2.6 0 .85-.65.55-1.45-.3-.8.3-2.5 1.35-3.75s1.95-1.75 1.95-1.05c.05.7 1.35 1.25 3.15 1.25 2.35 0 2.95.35 2.55 1.5-.65 1.6 1.4 1.65 2.6 0 .45-.65.75-.55.75.2 0 .65-.45 1.45-1 1.8-.55.35-1 1.05-1 1.6s.45.75 1 .4 1.45.4 1.95 1.7c.5 1.25.95 1.75 1 1.05 0-.7.4-1.2.8-1.15 2.25.35 3.15-.25 2.55-1.75-.45-1.15-.25-1.45.55-.95.7.45 1.15.1 1.15-.85 0-.85-.65-1.55-1.5-1.55-1.4 0-1.95 1.25-1.55 3.5.1.55-.35.45-1.05-.25-1.9-1.85-1.9-4.05-.05-4.75 3.15-1.2 8.15-5 8.15-6.25 0-1.65.8-1.6 2.7.3.85.85 1.8 1.25 2.15.95.3-.35-.05-1.05-.9-1.55-.9-.55-1-.95-.25-.95.65 0 1.65.8 2.2 1.75 1 1.65 1.05 1.65 1.05 0 .05-2.9-5.55-4.4-8.75-2.35-.75.45-1.6.55-1.95.2-.3-.35.05-.6.75-.6.9 0 .7-.5-.55-1.45-1.1-.85-2.85-1.5-3.9-1.5-1.95-.05-1.9 0 .1 1.4zm-262.5 1.65c-.65 1.05-1.65 1.9-2.2 1.9-.6 0-.75-.5-.4-1.1.5-.75.1-.85-1.2-.25-2.3 1.05-5.4 1.05-7.2-.05-1.05-.65-1.05-.45-.05 1.2 1.2 1.95 5.8 3.7 8.9 3.4.85-.05 3 .35 4.8.95 2.1.65 3.7.7 4.5.05 1.8-1.4 10.4-2.1 11.6-.9 1 1 1.2.75 2.5-3.6.7-2.3-4.2-1.85-5.95.55-1.1 1.5-1.8 1.85-2.15 1-.25-.7-.9-1.25-1.45-1.25-.55 0-.65.5-.25 1.15.45.7.25.9-.45.45-.65-.4-1.7-.35-2.4.05-.7.45-2.8.9-4.75 1.05-2.5.15-3.05-.05-2-.75.85-.5 2.5-.95 3.75-.95 1.35 0 2.25-.6 2.25-1.5 0-1.75-1.35-1.9-4.05-.45-1.2.6-1.95.65-1.95.05 0-.5.55-1.1 1.2-1.35.8-.25.7-.6-.3-.95-.9-.35-2.05.2-2.75 1.3zm238.85.8c0 .6.35 1.05.75 1 2.5-.4 5.3.25 4.75 1.1-.65 1.1-5.25.3-7.2-1.2-.85-.65-1.15-.4-1.05.9.1 1.35.9 1.85 2.7 1.8 1.4-.1 3.3.25 4.2.65 2.2 1.1 4.4-1.45 2.6-2.95-2-1.65-6.75-2.6-6.75-1.3zm-143.2 5.3c-1.2 1.2-1.9 1.5-1.6.7.45-1.1-.15-1.45-2.05-1.4-1.5.05-2.55.6-2.4 1.3.15.65-.2 1.2-.75 1.2s-1 .5-1 1.1c0 .6.7.85 1.5.55.95-.35 1.5 0 1.5.95 0 .85-.4 1.25-.9.95-.45-.3-1.35.05-1.9.75-.85.95-.2 1.2 2.95 1 2.45-.1 4.65-.9 5.55-2 1.4-1.7 1.45-1.7.8.2-1.1 3.4-1.05 3.75.75 4.05.95.15 1.55-.1 1.25-.55-.3-.5.4-1.15 1.5-1.5 2.1-.65 2.35-3.35.5-4.75-.65-.5-.5-1.05.35-1.65.75-.45 1-1.05.5-1.3-3-1.7-4.55-1.6-6.55.4zm173.7-.3c-2.85.65-2.9.75-1 1.85 2 1.2 2 1.2 0 1.3-1.15.05-1.45.35-.7.65 1.05.4 1.05.8 0 2.05-1.05 1.25-1.05 1.65-.05 2 .7.25 1 .85.7 1.3-.3.5.15.65 1 .35.85-.35 1.55-.15 1.55.4s-.7 1.25-1.6 1.6c-2.15.85-2.2.8-2.7-1.15-.4-1.45-.5-1.45-.6.25-.05 1.1.85 2.6 2 3.35 1.15.7 1.85.85 1.5.3-.35-.55-.2-1.3.4-1.65.55-.35 1-.1 1 .5s.45.85 1 .5 1 .35 1 1.5c0 1.8-.45 2.05-3 1.65-2.1-.35-3-.05-3 .9 0 1.8 2.25 3.15 2.75 1.65.65-1.95 4.05-1.35 4.75.8 1.05 3.3 2.15 1.45 2.25-3.7 0-2.65-.2-4-.45-3.05-.25 1-.85 1.5-1.4 1.2-.5-.35-.65-1.05-.35-1.55.35-.55.05-1.65-.6-2.45-.7-.85-.95-1.75-.65-2.1.35-.35.15-1.5-.45-2.6-1-1.85-.85-1.95 1.8-1.35 2.7.6 2.75.55.9-.9-1.1-.85-2.55-1.3-3.25-1.05-.7.25-1.3.05-1.3-.5 0-.5 1.25-.95 2.75-.95 2.15-.05 2.4-.25 1.25-1-.8-.55-1.7-.9-2-.85l-3.5.75zm-194.1 1.7c.35.85.6 1.75.6 2 0 .2.75.4 1.65.4 1.3 0 1.5.7 1.05 3.45-.45 2.7-.25 3.3.85 2.9.8-.3 1.45-1.15 1.45-1.85 0-.8.75-1.1 2-.8 1.1.3 1.75.95 1.45 1.4-.3.5-.05.9.6.9.7 0 .95-.9.6-2.25-.3-1.25.1-3.1.9-4.2 1.7-2.25 1.85-3.55.45-3.55-.55 0-.95.35-.9.75.35 1.95-.2 2.4-1.55 1.3-1.8-1.5-3.65-.5-2.9 1.5.5 1.25.85 1.25 2.15.25 1.25-1.1 1.45-1.05 1.05.15-.85 2.6-2.85 2.25-4.6-.85-1.8-3.2-6-4.5-4.85-1.5zm-98.15 1.8c0 1.25.85 2.8 1.9 3.45 1.5.95 1.85.9 1.85-.4 0-.85-.4-1.3-.95-1-.5.3-1.2.15-1.55-.45-.35-.55-.15-1 .45-1 1.5 0 1.3-1.7-.35-2.3-.9-.35-1.35.2-1.35 1.7zm95.7.65c-2.05 3.85-.9 6.55 1.8 4.2 2.5-2.2 2.9-3.4 1-3-.7.15-1.1-.5-.95-1.5.4-2.35-.5-2.2-1.85.3zm-23.3 1.2c-1.6 1.2-1.45 1.35 1.4 1.55 2.1.15 3-.15 2.75-.95-.6-1.8-2.15-2.05-4.15-.6zm79.25-.75c-.35.55-.5 1.8-.35 2.75.15.95-.15 1.75-.65 1.75-1.2 0-1.15 3.7.05 4.45.5.3 1.25.05 1.65-.6.45-.7.3-.9-.45-.45-1.45.9-1.5-1.65-.05-3.1.6-.6.9-2.15.75-3.45-.2-1.3-.65-1.9-.95-1.35zm104.75.25c-1.2.3-1.65 1.05-1.35 2.25.3 1.2-.2 2-1.4 2.3-1.05.3-1.9.1-1.9-.4s-1.6-.9-3.55-.9c-2.15 0-3.3.4-2.95 1 .35.55.25 1-.25 1-.45 0-.9 1-1 2.25-.1 1.2-.6 2.35-1.15 2.55-.55.2-.7 1.05-.35 1.95.4 1.05.2 1.35-.6.85-1.4-.9-1.5-4.25-.15-5.1 1.7-1.05 1.1-3.05-.9-3.2-2.25-.2-3.25 2.65-1.85 5.2.8 1.45.7 1.7-.4 1.25-.95-.35-1.5.25-1.65 1.85-.2 2.4 2.05 3.4 3.25 1.45.35-.55 1.25-.7 2.1-.4.85.35 1.45-.05 1.45-.9 0-.95.95-1.5 2.5-1.5 3.15 0 3.25 1.5.15 2.7-4.9 1.85-3.2 6.05 2.4 6.05 4.9 0 7.25-1.3 4.4-2.4-.9-.3-1.3-.15-.95.4.35.55.25 1-.2 1-1.45 0-2.9-4.45-2.25-7 .35-1.4.2-3.05-.35-3.75-.7-.9-.35-1.25 1.3-1.25 1.5 0 2.05.45 1.65 1.45-.35 1-.05 1.25.95.9.9-.4 1.25-1.3.85-2.5-.35-1.2-.15-1.8.55-1.65.65.2 1.7-.6 2.35-1.7.65-1.1 1.55-2.3 2-2.65 1.25-.85-.5-1.6-2.7-1.1zm-190.8 5.35c-2.05 1.8-2.1 2-.35 1.4 1.65-.5 1.75-.4.7.7-.7.7-1.8 1.3-2.4 1.3-1.55 0-1.95 1.7-.85 3.45.7 1.1 1.45.75 3.6-1.85 1.85-2.2 3.05-2.9 3.75-2.2.7.7.3 1.6-1.3 2.9-2 1.65-2.1 1.95-.65 2.5.9.35 1.65.2 1.65-.4 0-.55.8-.85 1.75-.7 2.4.4 3-4.15.75-5.85-.95-.65-1.4-1.7-1.05-2.3 1.2-1.9-3.15-1.1-5.6 1.05zm214.75 2.2c.25 1.9 0 2.55-.75 2.1-.75-.45-.9-.25-.4.5.4.7 1.4 1 2.15.7 1.55-.6 1.8.25.55 2.2-.45.7-1.4 1.15-2.1 1-.7-.15-1.5.25-1.75.95s.2 1.25 1.05 1.25c.8 0 2.3.3 3.3.7 1.65.6 1.7.45.5-1-1.35-1.65-1.15-1.85 1.6-2.1.65-.05 1.2-.55 1.15-1-.05-.5.6-1.3 1.4-1.75.9-.5 1.25-1.75.95-3.3-.25-1.4-.85-2.3-1.3-2-.5.3-.6 1.15-.3 1.95.35.95-.15 1.35-1.55 1.25-1.15-.1-2.1-.55-2.1-1 0-.5-.4-.6-.95-.3-.5.3-1.1-.2-1.35-1.2-.25-.95-.25-.5-.1 1.05zm-169.9-1.6c-.4.6-.45 1.85-.1 2.75.55 1.35.25 1.45-2.05.55-2.1-.8-2.65-.7-2.3.25.2.7 2.4 1.5 4.85 1.85 2.4.35 3.75.65 3 .75-2.4.25-.15 1.6 2.85 1.75 2.1.1 3.1-.45 3.9-2.15 1.35-2.95-.55-3.85-3.25-1.55-1.8 1.5-1.9 1.45-1.3-.15.65-1.85-1.15-2.05-2.65-.25-.45.55-.6.05-.35-1.25.3-1.25.15-2-.3-1.75-.45.3-1-.05-1.25-.7-.25-.85-.6-.9-1.05-.1zm22.35 3.5c-1.15 1.2-2.05 2.55-2.05 3 0 .45-.5.8-1.05.8-.6 0-.8-.45-.45-1 .35-.55.15-1-.45-1-.55 0-1.05.45-1.05 1.05 0 .55-.8.9-1.75.75-1-.15-1.65.25-1.5.95.25 1.15-1 1.7-3 1.35-.4-.05-.75.3-.75.8s-.25 1.6-.6 2.45c-.45 1.3.35 1.5 5.05 1.35 3.7-.1 5.45-.55 5.15-1.3-.25-.65.1-1.75.75-2.4.9-1 .85-1.15-.1-.6-.7.4-1.25.25-1.25-.35 0-.55.7-1.05 1.55-1.05.95 0 1.3-.45.85-1.15-.5-.8.1-1 1.9-.65 1.65.3 2.8 0 3.1-.85.35-.9-.25-1.35-1.7-1.4-2.15 0-2.15-.05-.25-1.5 1.05-.8 1.4-1.45.8-1.45-.65 0-2.1 1-3.2 2.2zm-4.05 6.9c0 .55-.4.75-.95.45-.5-.3-1.2-.15-1.55.45-.35.55-1.4 1-2.3 1-1.35-.05-1.15-.45.75-1.95 2.45-1.9 4.05-1.85 4.05.05zm128.25-1.65c.25 1.35.1 2.25-.35 2-.4-.25-.7.4-.65 1.55.2 2.25 9 3.05 10.3.9.5-.8.95-.7 1.5.2.65 1 1.55 1.1 3.65.35 2.35-.85 3.65-2.65 1.65-2.35-.35.05-1-.55-1.45-1.25-.65-1-.9-.85-.95.65-.1 1.9-.15 1.85-1.15-.2-.75-1.55-1.75-2.1-3.2-1.85-1.15.2-2.5.45-2.95.5-.5 0-.65.95-.35 2.05.55 2.15-2.6 2.95-3.8 1-.35-.55-.05-1 .7-1 1-.05 1-.2-.1-.9-.75-.5-1.1-1.35-.75-1.9.35-.55-.1-1.25-1-1.6-1.25-.5-1.5-.1-1.1 1.85zm36.6 1.55c-.45 2.9-.1 3.3 2.9 3.4 1.8.05 3.25-.25 3.25-.65 0-.7-2.35-1.15-4.25-.85-1.25.2-.85-1.7.5-2.25.75-.3.55-.5-.5-.55-.95-.05-1.8.35-1.9.9zm-16.2 2.5c.3.85 1.8 1.5 3.45 1.5 3.45 0 3.85-1.5.65-2.35-3.6-1-4.75-.75-4.1.85zm8.45-.1c-.85.95-.4 1.25 1.9 1.25 1.65 0 3-.5 3-1.1 0-1.55-3.65-1.7-4.9-.15z" fill="#ba3c10"/></svg>