<svg version="1" xmlns="http://www.w3.org/2000/svg" viewBox="0 0 300 193"><path fill="rgb(71,51,171)" d="M289 11.9c0 .35-2.35.65-5.25.7-2.9.05-8.85.35-13.25.7s-9.3.65-10.9.65c-1.6 0-8.35.45-15 1s-17.05 1.3-23.05 1.65c-6.6.35-11.4 1.1-12 1.8-1.65 1.9-6.55 3.75-6.55 2.5 0-.7-2-.95-5.25-.75-2.9.15-5.9-.1-6.65-.55-.95-.65-1.2-.55-.7.25s-.75 1.15-4.35 1.15c-3.9 0-5.05.35-5.05 1.55 0 1.3 1 1.45 5.75 1.1 3.15-.25 12.5-.7 20.75-1 8.25-.3 29.85-1.7 48-3.1 42.8-3.3 38.5-3.5 38.5 1.9 0 3.8-.3 4.45-2.25 4.85l-2.25.45 2.25.75c1.2.4 2 1.15 1.65 1.65-.3.5-.9.65-1.35.4-1-.65-2 14.65-2.2 33.65-.2 16.1 0 15.6-6.6 15.4-1.8-.05-3.25.1-3.25.4 0 .25-6.8.35-15.15.2-9.65-.2-15.55.1-16.2.75-1.05 1.05 6.1 1.3 30.7 1.05l10.9-.1-.55 2.3c-.35 1.25-.9 15.25-1.3 31.05-.55 23.15-.95 28.75-2.05 28.75-.75 0-1.35.65-1.35 1.5 0 .8.6 1.5 1.3 1.5 1 0 1.2 3.55.85 16.5-.35 14.7-.2 16.5 1.25 16.5 2.65 0 2.1 4.85-.65 5.55-1.25.3-23.85-1.3-50.25-3.55s-66.2-5.65-88.5-7.55c-22.25-1.9-41.55-3.45-42.8-3.45-1.7 0-2.25-.5-2-1.75.35-1.8 9.45-4.1 16.7-4.2l3.35-.05-.65-5-.65-5.05 4 .65c3.65.6 4.05.45 4.05-1.45 0-1.2-.45-2.15-.95-2.15-.55 0-.75.7-.4 1.5.35.95-.05 1.5-1.15 1.5-1.1 0-1.5-.55-1.15-1.5.45-1.1-.15-1.5-2.3-1.5-2.8 0-2.95-.2-3.55-5.75-.35-3.15-1.05-8.2-1.55-11.2-1.1-6.45-1-6.55 7.4-7.55 6.1-.7 6.15-.7 3.7-2.35-1.35-.9-5-3.5-8.1-5.8l-5.65-4.1-.6-8.55c-.8-11.35-1.85-13.05-7.6-12.3-2.4.35-6.8.6-9.8.6-3.35 0-5.2.4-4.8 1 .65 1.05 13.85.65 16.75-.5 1.1-.45 1.75-.25 1.75.55 0 .7 1.15 7.75 2.55 15.75 2.85 16.3 3.05 15.25-2.85 15.95l-4.4.45-1.65-10.75c-.9-5.95-1.8-10.85-1.9-10.95-.15-.1-3.6-2.65-7.75-5.7-4.1-3-8.8-6.35-10.35-7.35l-2.85-1.8.7-15.6c.35-8.55.85-16.35 1.15-17.3.4-1.4-.15-1.75-2.85-1.8-2.8-.1-3-.25-1.3-1 1.45-.65 1-.75-1.65-.35-1.95.3-16.5-.85-32.25-2.65-15.8-1.75-28.8-3.05-28.95-2.85-.2.25.25 25.15.9 55.4.7 30.25 1.15 55.45 1.1 56-.1.55 1 1 2.35 1 3.05 0 31-1.7 30.95-1.9-1-4.15-3.6-22.3-3.3-22.85.25-.4 1.9-.75 3.65-.75 5.9-.05 6.05-.55 3.95-12.2l-1.9-10.45 10.2-14.2 10.25-14.2 2.85 2.6c2.65 2.45 2.7 2.6.6 2.1-2.6-.55-2.7-.1-1.25 9.35 1.7 11.1 1.5 10.65 5.5 10.2 11-1.3 19.25 8.45 15.5 18.25-.95 2.5-.9 2.55 3.85 2.55h4.85l1.75 11.95 1.75 11.95-9.8 13.1c-11.05 14.65-10.4 14.6-12.45.7-1.55-10.45-1.05-10.05-9.9-8.55-3.9.6-7.35.85-7.7.5-.55-.5-4.3-20.5-4.35-22.95 0-.65-6.8.05-7.75.75-.1.1.45 4.2 1.25 9.1.85 4.95 1.75 10.35 2 12.05.4 2.35 1.85 4 6 6.85 3.05 2.1 5.5 4.2 5.5 4.65 0 .5.5.9 1.15.9 1.7 0 14.55 9.8 15.25 11.65.5 1.25 1.6.25 4.6-3.95 4.2-5.85 7.35-7.4 12.75-6.3 4.8 1 22.05 2.45 95.25 8.1 39.35 3 75 5.8 79.25 6.15l7.75.65v-5.9c0-3.25.9-38.3 2-77.9 1.1-39.6 2-76.6 2-82.2v-10.15l-3 .05c-1.65.05-3 .35-3 .7zm-248 42.2c0 1.05-2 1.1-7.25.25-2.05-.35-3.55-.9-3.35-1.25.6-.95 10.6 0 10.6 1zm7.5.9c.8 1.3-3.5 1.3-5.5 0-1.15-.75-.75-.95 1.7-1 1.75 0 3.45.45 3.8 1zm-12.2 3.95c1 0 1.55.5 1.15 1.1-.45.8-6.05.8-9.2 0-2-.5.65-1.9 3-1.6 1.8.2 4.05.45 5.05.5zm-3.3 7.05c0 .55-1.35 1-3 1s-3-.45-3-1 1.35-1 3-1 3 .45 3 1zm25.75.95c.15 0 .25.7.25 1.55 0 1.55 4.25 3.1 5.85 2.1 1.45-.9 4.15.4 4.15 2 0 .75-.65 1.4-1.5 1.4-.8 0-1.5-.35-1.5-.75s-2.8-.8-6.25-.85c-11.7-.2-12.95-.35-12.45-1.65.25-.7.95-1.15 1.6-1 1.35.3 1.45-1.4.1-2.25-.55-.35-1-.2-1 .25 0 1.05-9.6 0-10.75-1.2-.55-.55 19.05-.2 21.5.4zm-12.3 3.35c-.4.95-1.95 1.15-5.95.7-7.85-.85-7.95-2-.2-2 5.05 0 6.5.3 6.15 1.3zm25.45 6.95c-.1 2.35-.35 3.5-.6 2.55-.25-1-1.05-1.45-1.85-1.15-1.05.4-1.3.1-.85-1.05.35-.85 1-1.6 1.5-1.6s.9-.7.9-1.5c0-.85.25-1.5.5-1.5.3 0 .45 1.9.4 4.25zm-25.6-1.6c1.1.3 1.6 1.1 1.3 1.95-.4 1.1.55 1.4 4.35 1.4 2.7 0 5.25.5 5.6 1.05.85 1.4-.45 2.7-1.35 1.4-.4-.5-2.95-.95-5.7-.95-3.75 0-5-.4-5.1-1.5-.2-3.05-.4-3.5-1.15-2.45-.9 1.25-11.25.65-11.25-.65 0-.95 10.2-1.1 13.3-.25zm-4.05 3.3c2.6.1 2.1 1.95-.5 1.9-4.55-.05-8.75-.95-8.75-1.9 0-.55 1.65-.8 3.75-.55 2.05.25 4.55.5 5.5.55zm-10.9 2.05c2.2.05 5.95 1.9 4.15 2.1-5.7.65-8.7-.35-7.85-2.65.45-1.1.9-1.35 1.1-.65.25.65 1.4 1.2 2.6 1.2zm24.5 1.65c6.7.5 9.15 1 9.15 2 0 .75-.65 1.35-1.5 1.35-.8 0-1.5-.35-1.5-.75s-2-.6-4.5-.4c-2.8.2-4.5-.05-4.5-.75 0-.6-.5-1.1-1.05-1.1-.6 0-.75.5-.35 1.15.4.65.25.9-.25.55-.55-.3-3.3-.7-6.15-.8-2.85-.15-5.2-.65-5.2-1.1 0-.95 3.75-1 15.85-.15zm-22.35 6.35c-.35.55-1.7 1-3 1s-2.65-.45-3-1c-.35-.6.85-1 3-1s3.35.4 3 1zm15.2.35c1.25 1.3-.4 1.6-5.5 1-6.75-.8-6.9-2.75-.2-2.1 2.8.25 5.35.75 5.7 1.1zm8.3.75c0 .5-1.55.9-3.5.9-3.15 0-4.35-.85-3-2.15.8-.8 6.5.3 6.5 1.25zm-23.6 1.75c.3.45-1.25.9-3.4 1-2.15.05-4.15-.3-4.5-.85-.35-.6 1-1 3.4-1 2.2 0 4.2.4 4.5.85zm12.35.55c1.3 1.3-.75 1.65-5.65 1-2.8-.35-5.1-1-5.1-1.45 0-.85 9.85-.45 10.75.45zm14.65 3.25c3.15.45 3.6.8 2.25 1.5-.9.55-2.05.75-2.5.45-.45-.25-4.25-.6-8.45-.75-4.25-.15-7.7-.6-7.7-1 0-.85 10.8-1 16.4-.2zm-7.95 3.3c.35.55-4.3.95-11.95 1-6.85 0-12.5-.4-12.5-.9 0-1.2 23.7-1.35 24.45-.1zm-8.45 3.05c0 .55-2.25 1-5 1s-5-.45-5-1 2.25-1 5-1 5 .45 5 1zm18 .4c0 .25-1.6 1.4-3.5 2.6-4.9 3.05-6.85 7.2-6.2 13.05.7 5.65-.05 8.95-1.9 8.95-1.05 0-1.4 1.55-1.4 6 0 5.7-.1 6-2.75 6.55-5.7 1.25-5.85 1.5-2.25 3.7 3.6 2.25 4.95 3.6 5 5.1 0 1.3-2.1.25-7.7-3.9l-5.05-3.75 5.9-8.05c3.2-4.4 5.85-8.5 5.85-9.15 0-1.2-1.7-11.4-2.55-15.25-.3-1.5-1.2-2.25-2.65-2.25-3.75 0-1.15-1.15 3.75-1.65 2.6-.3 5.65-.9 6.85-1.35 2.15-.9 8.6-1.3 8.6-.6zm-25.4 2.9c.4.4-1.35.7-3.95.7-2.55 0-4.65-.45-4.65-1 0-1.1 7.5-.85 8.6.3zm3.4 3.8c0 .5-2 .9-4.5.9-4.4 0-6.25-1.5-2.75-2.2 2.65-.55 7.25.3 7.25 1.3zm-8.45 2.35c1.9 1.45 1.9 1.5-.35 1.5-1.25.05-2.6.85-3 1.8-.9 2.2-3.2 2.75-3.2.75 0-.85.7-1.5 1.5-1.5.85 0 1.5-.9 1.5-2 0-2.4.95-2.5 3.55-.55zm7.45 13.55c0 .55-2.45 1-5.5 1-3 0-5.5-.45-5.5-1s2.5-1 5.5-1c3.05 0 5.5.45 5.5 1zm-5.65 3.1c1.85.05 1.75.2-.65 1.1-3.45 1.25-9.45.05-6.2-1.25 1.1-.45 2.6-.6 3.35-.4.7.25 2.3.5 3.5.55zm2.65 3.9c-2 1.3-8 1.3-8 0 0-.55 2.15-1 4.75-1 3.45.05 4.35.3 3.25 1zm1.7 13.95c.3 1.05 1.45 2.15 2.65 2.35 1.45.3 1.05.45-1.1.55-2.1.1-3.15-.3-3-1.1.15-.8-1.05-1.25-3.5-1.25-2.35 0-3.75-.45-3.75-1.25 0-2.25 8.1-1.6 8.7.7zm-4.2 3.05c-2.8 1.2-7.5 1.2-7.5 0 0-.55 2.15-.95 4.75-.95 3.55.05 4.25.3 2.75.95zm4.5 3c0 .55-2 1-4.5 1-2.45 0-4.5-.45-4.5-1s2.05-1 4.5-1c2.5 0 4.5.45 4.5 1zM140 22.05c-5.2.45-16.35 1.35-24.7 2-8.4.7-15 1.6-14.7 2.1.3.5.85.7 1.2.5.4-.25 5.9-.75 12.2-1.1 6.35-.4 13.3-.85 15.5-1.1 2.2-.2 7.15-.6 11-.95 3.85-.3 9.3-.8 12.1-1.1 3.9-.4 5.25-.2 5.65.85.3.8.05 1.45-.6 1.45-35.5 1.4-55.3 2.95-57.65 4.45-1.45.95 6.3.75 28.65-.8 8.7-.6 9.15-.55 9.8 1.5.9 2.9 2.4 2.75 1.85-.15-.45-2.3 11.85-4.2 32.6-5.05 1.9-.1 3.6-.7 3.85-1.4.3-.95-1.2-1.15-6.15-.8-3.7.2-6.6 0-6.6-.55 0-.5-.5-.9-1.05-.9-.6 0-.8.45-.45 1 .35.55-.1 1-1 1s-1.35-.45-1-1c.7-1.15-6.15-1.15-20.5.05zM264.5 23.15c-4.4.35-16.75 1.2-27.5 1.85-10.7.7-21.3 1.6-23.5 2.1-6.3 1.3 49.05-1.8 71.5-4.05l8.5-.9-10.5.2c-5.75.1-14.1.45-18.5.8zM192 25.65c-22.05 1.75-30.6 2.25-37.75 2.3-3.75.05-6.25.5-6.25 1.15 0 .95 19.65.55 30.5-.6 1.65-.2 9.2-.65 16.8-1.05 12.45-.65 16.85-1.55 13.45-2.65-.7-.2-8.2.15-16.75.85zM87.2 27.2c-.65.65-1.2 2.4-1.2 3.85 0 9.2-1 11.55-4.85 11.3l-3.65-.25 4 .85c4.9 1 5.45.3 5.5-6.6 0-4.35.3-5.2 2.1-5.65 1.5-.4 1.9-.15 1.5.85-.4 1.1.35 1.45 2.95 1.45 1.9 0 3.45-.4 3.45-.9s-1.1-.8-2.5-.65c-1.35.15-2.5-.1-2.5-.6 0-.45 1.4-.85 3.1-.85 2.3 0 2.95-.4 2.55-1.45-.3-.75 0-1.65.65-1.9s-1.3-.55-4.35-.55c-3.1-.05-6.1.45-6.75 1.1zM264.25 27.75c2.05.2 5.45.2 7.5 0 2.05-.25.4-.4-3.75-.4-4.1 0-5.8.15-3.75.4zM248.75 28.7c1.75.25 4.9.25 7 .05 2.05-.25.6-.4-3.25-.4-3.85-.05-5.55.15-3.75.35zM231.8 29.75c2.35.2 5.95.2 8 0 2-.25.1-.4-4.3-.4-4.4 0-6.1.15-3.7.4zM216.75 30.7c1.8.25 4.5.25 6 0 1.5-.2.05-.4-3.25-.4s-4.55.2-2.75.4zM133.65 44.25c-.4 7.3-1.35 26.05-2.15 41.75-1.75 34.15-1.75 34.65-.6 33.45.5-.5 1.2-6.35 1.5-12.95 2.1-42.1 3.5-67.35 4-71.75.3-2.6.05-3.75-.85-3.75s-1.45 3.6-1.9 13.25zM4 35.2c0 2.95.05 3 5 2.65 2.75-.2 5 0 5 .4s1.45.7 3.25.65c1.8 0 2.7-.3 2-.55-2.9-1.2-1.3-3.6 2-3 7.5 1.35 44.2 5.7 45.65 5.4 1.5-.25-41.55-6.2-52.55-7.2-4.9-.5-5.15-.4-4.7 1.75.4 2.15.4 2.15-.55.1-1.6-3.65-5.1-3.8-5.1-.2zM105.85 33.5c-.25.25-3.7.5-7.65.6-5.4.1-7.2.5-7.2 1.55 0 .9.75 1.2 2.25.9 1.9-.45 9.8-1.25 14.5-1.5 1.7-.05 1.6-2.05-.1-2.05-.7 0-1.55.2-1.8.5zM186.75 34.55c-.15.1-4.75.45-10.25.8-5.5.3-10.15.6-10.3.6-.2.05-.05.45.25 1 .55.85 3.95.75 18.05-.45 2.75-.2 6.25-.45 7.75-.45 1.5-.05 2.75-.5 2.75-1.05 0-.8-7.35-1.2-8.25-.45zM144 36c0 .55-.65 1-1.5 1-.8 0-1.5.45-1.5 1.05 0 .55 1.25.8 2.75.55s3.1-.45 3.5-.5c1.75-.2.6-3.1-1.25-3.1-1.1 0-2 .45-2 1zM153.75 36.7c-.95.25-1.75.9-1.75 1.5 0 .55.7.75 1.6.4.85-.35 3.8-.6 6.5-.6s4.9-.45 4.9-1c0-1-7.85-1.2-11.25-.3zM94.3 40.1c-.2 2.45.1 2.95 1.3 2.5.85-.35 4-.6 7-.6 3.05 0 5.4-.45 5.4-1.05 0-.65-2.25-.75-6.45-.35-6.2.65-6.4.6-5.85-1.45.3-1.2.15-2.15-.35-2.15-.45 0-.95 1.4-1.05 3.1zM98.5 38c-1.4.6-.05.85 4.25.8 3.45 0 6.5-.4 6.8-.9.7-1.15-8.35-1.05-11.05.1zM21.75 39.1c.85.7 18.9 2.95 22.45 2.8 3.75-.2-4.9-1.8-14.45-2.65-4.8-.45-8.4-.5-8-.15zM159 39.85c0 .45 1.8.85 4 .85s4-.4 4-.85c0-.45-1.8-.85-4-.85s-4 .4-4 .85zM3.85 40.45c-.6.65-.45 16.75 1 94l.65 35.95 9-.05c4.95-.05 12.85-.6 17.5-1.25 4.7-.65 11.45-1.25 15-1.4l6.5-.2.9 4.75c1.05 5.3 1.55 5.5 8.6 3.35 10.45-3.25 11.35-4.7 2.45-4-8.6.7-10.45-.45-10.45-6.65 0-1.05-.45-1.95-1-1.95s-1 .8-1 1.75c-.05 1.5-.15 1.55-1 .25-.65-1-.95-1.1-1-.25 0 1.35-3.6 1.75-4.35.45-.65-1-10.65-.45-12.05.7-2.1 1.7-7.6 2.35-7.6.95-.05-1-.3-.95-1 .15-.65 1-.95 1.1-1 .25 0-.7-.9-1.25-2-1.25s-2 .55-2 1.25c-.05.85-.35.75-1-.25-.55-.85-1-1.05-1-.45 0 1.3-5.25 1.3-6.25-.05-.4-.55-.75-.25-.75.75 0 1.2-.8 1.75-2.5 1.75-3.1 0-3.3-1.7-.25-2.3l2.25-.45-2.25-.1c-2.15-.15-2.25-.55-2.3-8.4-.05-4.55-.25-10.05-.4-12.25-.2-2.2-.65-25-1-50.65l-.7-46.7 2.35-.45c2.2-.4 2.2-.45.1-.55-1.75-.1-2.25-.85-2.5-3.75-.15-1.95-.6-3.3-.95-2.95zM180 40.75c-10.85.5-11.4 2.25-.7 2.25 7.05 0 8.7-.3 8.7-1.5 0-.85-.1-1.4-.25-1.3-.15.1-3.6.35-7.75.55zM190 40.9c0 1.2 3.55 2.05 6 1.4 3.4-.9 2.2-2.3-2-2.3-2.2 0-4 .4-4 .9zM18 41.9c0 1.2 2.25 1.8 7.4 2 2.15.1 4.25.4 4.7.65.4.25 1.05.05 1.35-.5.35-.5-1.1-1.2-3.15-1.55-2.1-.3-5.25-.8-7.05-1.1-1.8-.25-3.25-.05-3.25.5zM69.65 41.65c-1 1.05-.8 3.55.25 2.9.5-.3 1.15 0 1.45.7.25.7.55.25.55-.95.05-1.15.9-2.35 1.85-2.6 1.15-.3.85-.5-.85-.6-1.4-.05-2.85.2-3.25.55zM159 43c0 .55 1.8 1 4 1s4-.45 4-1-1.8-1-4-1-4 .45-4 1zM35.05 43.95c-1.05.65-.55 1.05 2 1.4 20.05 3 19.95 3 19.95 1.8 0-.5-4.05-1.4-8.95-2.05-4.95-.6-9.55-1.35-10.25-1.6-.7-.25-1.95-.05-2.75.45zM73 43.8c0 1.45 2.6 2.2 7.45 2.2 3.1 0 4.5.45 4.95 1.65.9 2.3 1.5 2.3-13.65.45-7.55-.95-13.75-1.35-13.75-.9 0 .45.55.8 1.25.85.7 0 6.2.65 12.2 1.4 6.05.75 14.25 1.1 18.25.8 5.25-.4 7.3-.2 7.3.65 0 .8 2.3 1.1 7.5 1 4.15-.1 7.5-.6 7.5-1.1 0-.5-2.5-.75-5.55-.55-4.55.3-5.45.1-5.2-1.2.15-.85 1.4-1.65 2.75-1.75l2.5-.2-2.5.85c-3.05 1.05 15.8 1.35 23.75.4 4.3-.5 5.25-.95 5.25-2.55 0-1.6-.5-1.85-2.75-1.4-1.5.25-9.25.7-17.25 1-8.35.25-12.6.1-10-.35l4.5-.75-5.35-.15c-4-.1-5.25.15-4.85 1.15.35.95-1.05 1.35-5.4 1.5-3.35.15-5.9-.15-5.9-.75 0-.5-1.7-1.25-3.75-1.55-2.05-.35-5-.85-6.5-1.15-1.5-.3-2.75-.05-2.75.45zM181.5 46.75c-1.65.25-3.35.95-3.75 1.6-.5.85-.7.8-.75-.1 0-1.5-5.6-1.7-6.5-.25-.4.65.5 1.05 2.2 1h4.8c6.95.2 11.55-.25 12.1-1.15.45-.7.95-.6 1.5.3.7 1.05.85.95.9-.4 0-1.8-3.1-2.1-10.5-1zM144 49c0 .55.55 1 1.25 1 .85.05.75.35-.25 1.1-1.15.8-1.2 1.2-.25 1.55 3.8 1.55.2 8.65-3.9 7.6-1-.25-1.85.05-1.85.65s1.25 1.05 2.8.9c1.5-.1 3.2.1 3.8.45.65.4 1.1-2 1.25-6.8.2-6.15-.05-7.45-1.3-7.45-.85 0-1.55.45-1.55 1zM158 49c0 .55 1.35 1 3 1s3-.45 3-1-1.35-1-3-1-3 .45-3 1zM164.25 50.75c-2.35.2-4.25.75-4.25 1.25s1.25.75 2.75.55c1.5-.2 3.75-.35 5-.45 1.25-.05 2.25-.55 2.25-1.1s-.35-.9-.75-.85c-.4.1-2.65.35-5 .6zM172.1 51.15c-.15 2.15-2.15 2.85-8.2 2.85-2.95 0-4.9.45-4.9 1.1 0 .65.9.9 2 .6 1.1-.3 2-.1 2 .4s-1.1.9-2.5.9c-1.35 0-2.5.4-2.5.95 0 .5 1.45.85 3.2.75 4.85-.3 5.15 2.95.35 3.85-4.7.9-4.55 2.1.35 2.05 3.8 0 3.85-.05 3.8-3.8-.05-2.1-.45-3.8-.95-3.8-.5 0-.6-.45-.25-1 .35-.6 6.2-1 14.1-1 10.05 0 13.35-.3 12.8-1.15-.5-.8-.2-1 1-.55 1 .4 1.45.3 1.1-.3-.35-.55-1.85-.8-3.3-.55-8.95 1.45-16.95.9-17.5-1.2-.4-1.5-.5-1.5-.6-.1zM212.55 51.95c-.4.6 0 1.3.8 1.6 2.25.9 9.15.05 9.15-1.05 0-1.35-9.15-1.85-9.95-.55zM140.65 53.5c.3.8.05 1.5-.55 1.5-.6 0-1.1.9-1.1 2 0 1.35.65 2 2.1 2 1.8 0 1.95-.25.9-1.5-1.05-1.25-.95-1.5.5-1.5 1.35 0 1.5-.3.65-1.35-.65-.75-.85-1.65-.45-2 .35-.35-.1-.65-1-.65-1.05 0-1.45.55-1.05 1.5zM196 52.85c0 1 11.6.9 12.65-.15.35-.4-2.3-.7-6-.7-3.65 0-6.65.4-6.65.85zM103.7 53.8c-4.25.15-7.55.65-7.25 1.1.45.75 14.6.3 15.45-.5.85-.8-.55-.9-8.2-.6zM96.55 57.95c-.35.5 1.8.9 4.9.9 3.05 0 5.8-.4 6.1-.9.3-.55-1.8-.95-4.95-.95-3 0-5.75.4-6.05.95zM118.85 59.45c-.2.25-3.85.5-8.05.65-14.2.35-16.1 1.65-2.55 1.7 7 .05 12.75-.3 12.75-.8 0-1.05-1.55-2.15-2.15-1.55zM184.8 61.5c-.3.3-3.75.6-7.65.6-4.7.05-7.15.5-7.15 1.25 0 .8 2.4 1.05 8 .8 6.1-.2 8-.65 8-1.75 0-1.5-.35-1.75-1.2-.9zM190 61.9c0 1.4 3.7 1.95 7.45 1.1 1.95-.45 3.65-.35 3.95.15.25.5.35.35.2-.4-.3-1.4-11.6-2.25-11.6-.85zM203.5 62c-.35.55.6 1.05 2.2 1.1 1.55 0 3.6.2 4.55.4 1 .2 1.75-.3 1.75-1.1 0-1.65-7.5-2-8.5-.4zM98.25 63.7c-1.25.25-2.25.9-2.25 1.5s.95.75 2.25.45c1.25-.35 5.3-.65 9-.65s6.75-.4 6.75-.85c0-.9-11.7-1.25-15.75-.45zM92 71.35c.05 2.4 1.7 3.95 2.35 2.25.3-.9 1.75-1.6 3.1-1.6 1.4 0 2.55-.4 2.55-.95 0-.5-1.8-.9-4-.85-2.3 0-4 .5-4 1.15zM263.5 71.6c-1.1.15-14.35.55-29.5.85-15.1.3-35.15.8-44.5 1.1-9.35.35-21.25.65-26.5.75-5.55.15-9.5.6-9.5 1.2 0 .55.8.95 1.75.9 2-.05 2.35 1.2.5 1.95-.8.3-.6.5.4.55.95.05 1.9-.45 2.2-1.15.25-.7.55-.3.55.9.05 1.2-.45 2.4-1.15 2.7-.7.25 4.05.55 10.5.55 6.45.05 11.75-.3 11.75-.8s-4.55-.7-10.15-.5c-8.95.4-10 .25-8.85-1.1.85-1 .9-1.5.1-1.5-.6 0-1.1-.4-1.1-.9 0-.45 9.55-1 21.25-1.1 26.1-.3 24.75-.25 24.75-1.35 0-.5.65-.35 1.4.25 1 .85 6.35 1 18.75.6 9.55-.3 26-.75 36.6-.95 10.65-.25 19.85-.8 20.5-1.25.7-.4 2.1-.6 3.1-.45 1.15.2 1.6-.1 1.2-.75-.6-1-18.6-1.35-24.05-.5zM95 74.95c0 1 6.65.75 7.7-.3.35-.35-1.25-.65-3.55-.65-2.25 0-4.15.45-4.15.95zM143 74.9c0 .5.55 1.15 1.25 1.45 1 .4 1 .5 0 .55-1.75.15-1.55 1.75.25 2.45 1.15.45 1.5-.15 1.5-2.4 0-1.95-.5-2.95-1.5-2.95-.8 0-1.5.4-1.5.9zM95 78c0 .55 2.25 1 5 1s5-.45 5-1-2.25-1-5-1-5 .45-5 1zM163.65 78.25c-.6.4 3.25.75 8.6.75s9.75-.4 9.75-.9c0-1.1-16.6-.95-18.35.15zM215.75 79.7c-4.55.7-3.1 1.9 2.5 2.05 4.8.1 5.1 0 3.3-1.3-1.05-.8-2.2-1.4-2.5-1.3-.3.1-1.8.35-3.3.55zM227.75 79.75c-5.15.5-3.7 2.25 1.9 2.25 3.05 0 4.4-.4 4.1-1.2-.45-1.45-1.2-1.55-6-1.05zM236.25 79.65c-3.15 1.3-.7 2.35 4.75 2.1 5.95-.25 7.45-1 4.4-2.15-1.85-.7-7.35-.65-9.15.05zM92 81.4c0 .8-.25 2.15-.6 3-.4 1-.05 1.6.85 1.6s1.5-1.1 1.55-3c.05-1.65-.35-3-.85-3-.55 0-.95.65-.95 1.4zM181 81c0 .55 2.05 1 4.5 1 2.5 0 4.5-.45 4.5-1s-2-1-4.5-1c-2.45 0-4.5.45-4.5 1zM196 81c0 .55 1.1 1 2.45 1s2.7-.45 3.05-1c.35-.6-.65-1-2.45-1-1.65 0-3.05.45-3.05 1zM138 81.9c0 .5.55 1.15 1.25 1.45 1 .4 1 .5 0 .55-1.8.15-1.55 4.1.25 4.1.85 0 1.55-.55 1.6-1.25l.3-3.5c.2-1.6-.25-2.25-1.55-2.25-1.05 0-1.85.4-1.85.9zM162 84c-1.1.7-.2.95 3.25 1 2.6 0 4.75-.45 4.75-1 0-1.3-6-1.3-8 0zM171.4 84.15c-.45.75 12.65 1.55 16.35 1.05 1.25-.2 2.25-.75 2.25-1.25 0-1.05-17.95-.85-18.6.2zM222.5 85.85c-.2.2-7.15.35-15.4.3-8.6-.05-15.3.35-15.65.9-.55.9 3.15 1 34.05 1 18.75 0 18.5.05 18.5-1.35 0-1-1.1-1.2-4.25-.75-2.35.3-7.1.3-10.55 0-3.45-.25-6.5-.35-6.7-.1zM250 86.4c0 1.65 3.75 2.8 4.65 1.4.65-1.1-1.35-2.75-3.4-2.8-.7 0-1.25.6-1.25 1.4zM144.2 87.85c-.15 2-.6 2.2-3.05 1.7-2.5-.55-2.95-.3-3.4 1.85-.35 1.95 0 2.6 1.65 2.9 2 .4 2 .45-.15.55-1.25.1-2.25.55-2.25 1.1 0 .5 1 1.1 2.25 1.35l2.25.45-2.25.1c-1.25.1-2.25.55-2.25 1.1 0 .5 1 1.1 2.25 1.35l2.25.45-2.25.1c-3.1.2-2.85 2.15.25 2.15 2.1 0 2.5-.45 2.5-3 0-1.65.45-3 1-3s1 1.55 1 3.5c0 1.9-.4 3.5-.85 3.5-.5 0-.9 1.1-.9 2.5 0 1.35.35 2.5.8 2.5 1.3 0 2.1-7.75 1.7-16-.2-4.15-.45-6.45-.55-5.15zm-.2 5.65c0 1.35-.45 2.5-1 2.5s-1-.4-1-.9-.25-1.65-.6-2.5c-.4-1.05-.05-1.6 1-1.6s1.6.85 1.6 2.5zM160 87.25c0 .4 3.85.75 8.5.75 4.7 0 8.5-.4 8.5-.85 0-.45-3.8-.8-8.5-.75-4.65.05-8.5.45-8.5.85zM98 88c0 .55 1.3 1 2.95 1 1.6 0 3.2-.45 3.55-1 .35-.6-.8-1-2.95-1-1.95 0-3.55.45-3.55 1zM157 91.45c0 2.5.15 2.55 6.9 2.55 3.8 0 7.65.25 8.5.6 1.05.4 1.6.05 1.6-1.05 0-1.35-1-1.6-5.75-1.45-8.3.25-10.45 0-9.8-1.05.3-.5.15-1.2-.45-1.55-.55-.35-1 .45-1 1.95zM95.3 91.2c-1 .35 1.7.7 6 .75 4.8 0 7.6-.3 7.2-.9-.65-1.1-10.35-.95-13.2.15zM156.45 99.1c-.3.5 2.9.95 7.25 1 4.3.05 11.95.25 17.05.35 5.6.15 9.25-.1 9.25-.7 0-.55.7-.45 1.5.25 1.65 1.4 3.1.75 2.1-.85-.8-1.25-36.4-1.3-37.15-.05zM195.3 99.35c.5 1.55 5.45 1.8 6 .35.3-.75-.8-1.25-2.95-1.3-2.1-.1-3.3.3-3.05.95zM207.75 98.7c-4.55.7-3.1 1.9 2.5 2.05 4.8.1 5.1 0 3.3-1.3-1.05-.8-2.2-1.4-2.5-1.3-.3.1-1.8.35-3.3.55zM219.75 98.8c-2.1.2-3.55.75-3.2 1.25.8 1.3 25.45 1.25 25.45-.05 0-.55-.55-1.05-1.25-1.1-3.15-.3-17.65-.35-21-.1zM154 102.45c0 .85-.65 1.55-1.5 1.55-.8 0-1.5.65-1.5 1.5 0 .8-.45 1.5-1 1.5s-1 .65-1 1.5c0 .8.7 1.5 1.5 1.5.85 0 1.5-.7 1.5-1.5 0-.85.6-1.5 1.4-1.5 1.55 0 2.8-4.75 1.45-5.6-.45-.3-.85.2-.85 1.05zM73 113.9c-3.75.5-4.45.95-4.25 2.6.7 5.8 6.2 38.8 6.5 39.1.75.7 18.15-2.75 20.85-4.15 8.25-4.25 7.55-19.45-.9-19.45-3 0-3.15-.95-.6-3.5 1.7-1.75 2.4-3.55 2.4-6.35 0-8.15-6.95-10.5-24-8.25zm15.8 4.65c5.7 4 1.8 10.65-7 11.95l-4.55.7-.65-3.85c-.35-2.1-.9-5.05-1.2-6.55-.7-3.6 9.05-5.25 13.4-2.25zm5.45 18.55c5 6-1.35 12.85-11.9 12.9-1.95 0-4.35-7.5-4.35-13.75 0-2.9 13.75-2.15 16.25.85zM148 114c0 .55 2.6 1.05 5.75 1.1 3.15.05 7 .25 8.5.5 1.7.3 2.75 0 2.75-.7 0-.85.35-.85 1.3-.05 1 .8 1.65.8 2.5-.05.95-.95 1.2-.9 1.2 0 0 .65.7 1.2 1.6 1.2.85 0 1.4-.55 1.15-1.25-.5-1.55-24.75-2.3-24.75-.75zM141.8 117.2c1.6 1.6 1.55 6.5-.05 7.1-.7.25-.9.8-.45 1.3 1.25 1.35 2.65-1.75 2.7-5.85 0-2.85-.4-3.75-1.7-3.75-1.3 0-1.45.25-.5 1.2zM136 119.95c0 .5 1 1.1 2.25 1.35l2.25.45-2.25.1c-2.4.15-3.2 2.15-.85 2.15 1.8 0 3.95-2.65 3.15-3.95-.8-1.3-4.55-1.4-4.55-.1zM150 126c0 .55 2.45 1 5.45 1s5.7.45 6.05 1c.4.6-1 .75-3.8.35-2.65-.35-4.7-.15-5.05.45-.4.65 1.4 1.15 4.85 1.35 6 .4 8.5-3.1 3.25-4.5-3.6-1-10.75-.75-10.75.35zM167.35 126.7c.45.45 2.25.85 4 .95 1.7.1 5.75.4 8.95.7 4.3.4 5.75.25 5.45-.65-.3-.8-3.55-1.3-9.8-1.5-5.15-.15-9 .05-8.6.5zM187 126.85c0 .9 3.25 2.1 5.75 2.15 3.05 0 .95-2.6-2.25-2.85-1.9-.1-3.5.2-3.5.7zM128.4 131.3c-3.6 4.8-5.75 8.7-4.85 8.7 2.05 0 4.45-2.5 5.5-5.75 1.1-3.2 1.35-3.45 2.05-1.75.5 1.3.8 1.5.85.5.05-.85.35-2.5.7-3.75.9-3.45-.8-2.65-4.25 2.05zM167 129.85c0 .55 2.95 1.15 6.5 1.3 4.05.2 6.4-.05 6.15-.65-.4-1.3-12.65-1.9-12.65-.65zM136.2 132.75c.05.95-.25 2.55-.65 3.5-.6 1.35-.3 1.75 1.4 1.75 1.2 0 1.9-.4 1.6-.9-.3-.5-.1-2.1.4-3.5.85-2.25.75-2.6-.9-2.6-1.2 0-1.9.65-1.85 1.75zM142 133.4c0 1.35-.55 2.7-1.25 3-1 .5-1 .7 0 1.2 1.85.85 1.65 7.4-.25 7.4-.8 0-1.5.65-1.5 1.4 0 .9.7 1.25 1.95.9 1.8-.45 3.2-16.3 1.45-16.3-.2 0-.4 1.1-.4 2.4zM151 134.85c0 .65 1.8 1.2 4.25 1.2 2.35.05 5.5.25 7 .45s2.75-.05 2.75-.55c0-.55-1.05-.95-2.35-.95s-4.45-.3-7-.65c-3.2-.4-4.65-.25-4.65.5zM179.9 135.8c-.1.4-.1 1.05 0 1.45.05.4-2.7.8-6.15.9-8.3.2-7.05.25-17.5-.55-5.3-.35-9.25-.3-9.25.2 0 .9 6.85 1.45 33.75 2.8 8.95.45 12.25.35 12.25-.5 0-.7-1.4-1.05-3.5-.95-2.2.15-3.95-.3-4.75-1.3-1.4-1.8-4.7-3.15-4.85-2.05zM192.5 137c.35.55 2.2 1 4.1 1 2.1 0 3.25-.4 2.9-1-.35-.55-2.2-1-4.1-1-2.1 0-3.25.4-2.9 1zM201 137c0 .4.9 1 2 1.3 1.1.3 2 1.25 2 2.1 0 1.6 2.65 1.8 24.25 2.05 2.35.05 4.55.5 4.95 1 .4.55 1 .65 1.4.25 1.85-1.85-1.1-2.4-17.25-3.3-10.1-.55-12.65-1-13.2-2.3-.65-1.6-4.15-2.55-4.15-1.1zM206.45 137.9c.7 1.15 8.55 1.2 8.55.05 0-.55-2.05-.95-4.55-.95s-4.3.4-4 .9zM221 138c0 .55.1 1 .25 1 .15.05 2.6.3 5.5.65 4.05.45 5.25.25 5.25-.8 0-.95-1.65-1.45-5.5-1.6-3.25-.2-5.5.15-5.5.75zM135 140.1c0 .5.9.9 2 .9s2 .4 2 .9-.9.7-2 .4c-2.15-.55-2.8 1.2-.75 2.05 1 .4 1 .5 0 .55-1.8.15-1.55 2.1.25 2.1.85 0 1.5-.7 1.5-1.5 0-.85.45-1.5 1-1.5 1.15 0 1.4-3.95.25-4.1-.4 0-1.55-.2-2.5-.4-.95-.15-1.75.1-1.75.6zM195 140.3c0 .8 1.4 1.35 3.75 1.4 3.45.1 3.55 0 1.8-1.3-2.4-1.75-5.55-1.8-5.55-.1zM156.5 142c2.8 1.2 7.5 1.2 7.5 0 0-.55-2.15-.95-4.75-.95-3.55.05-4.25.3-2.75.95zM237 141.9c0 1 3.45 2.05 6.7 2.1 1.6 0 2.05-.45 1.65-1.5-.6-1.65-8.35-2.2-8.35-.6zM248 142.5c0 1 1.05 1.5 3.25 1.55 1.8.05 6.85.3 11.25.6 6.55.4 7.75.25 6.75-.8-.8-.75-4.3-1.35-9-1.5-4.25-.15-8.75-.5-10-.85-1.6-.35-2.25-.1-2.25 1zM272 143.95c0 .6.8 1.05 1.75 1.1.95 0 3.5.3 5.6.6 3 .4 3.8.25 3.45-.8-.55-1.65-10.8-2.5-10.8-.9zM149 147c0 .55 1.8 1 4 1 5.2 0 5.2-1.4 0-1.75-2.25-.2-4 .15-4 .75zM158.5 148c.35.55 2.15 1 4.05 1s3.45-.45 3.45-1-1.85-1-4.05-1c-2.45 0-3.8.4-3.45 1zM170.45 148.1c-2 .4-.65.7 4.3 1 4 .2 7.25.1 7.25-.25 0-.9-8.1-1.45-11.55-.75zM135 148.85c0 .55.55 1.2 1.25 1.5 1 .4 1 .5 0 .55-2.15.15-1.35 2.1.8 2.1 1.6 0 2-.55 1.75-2.25-.3-2.15-3.8-3.9-3.8-1.9zM184 149.1c0 .9 1.4 1 15 1.55 7.7.3 19.4 1.25 23.25 1.85 1.95.3 2.75.05 2.75-1.05 0-1.15-1.55-1.45-7.25-1.5-4-.05-8.8-.25-10.75-.45-8.75-.95-23-1.2-23-.4zM157 151c0 .55 1.8 1 4 1s4-.45 4-1-1.8-1-4-1-4 .45-4 1zM168.55 150.9c-.65 1.1 5.1 1.8 20.95 2.65 6.05.3 11.8.8 12.75 1.1 1.7.45 2.5-1.05 1-2-.4-.25-7.95-.8-16.75-1.2-8.8-.35-16.3-.85-16.7-1.1-.35-.2-.9.05-1.25.55zM140.85 153.25c-.05 1.25 0 4.15.1 6.5.15 2.55-.2 4.25-.85 4.25-.6 0-1.1-.9-1.1-2 0-1.45-.65-2-2.5-2-3.1 0-3.3 1.7-.25 2.3l2.25.45-2.25.1c-2.75.2-3.05 2.15-.3 2.15 1.05 0 2.1.8 2.35 1.75.45 1.65.45 1.65.6 0 .05-.95.8-1.75 1.6-1.75 1.2 0 1.5-1.45 1.5-7 0-6.45-.85-9.9-1.15-4.75zM155.45 152.9c-.2.2-.15.75.15 1.25.7 1.15 10.4 1.1 10.4-.05 0-.9-9.75-2-10.55-1.2zM167.55 153.95c-.4.6-.3 1.1.15 1.1.45.05 1.95.25 3.3.4 9.1 1.15 25.4 1.6 24.5.7-.55-.55-6.15-1.3-12.5-1.6-6.3-.35-12.25-.85-13.15-1.15-.95-.25-1.95 0-2.3.55zM149 156.45c0 .9.85 1.55 2.1 1.55 2.4 0 2.1-2.35-.45-2.8-.95-.2-1.65.3-1.65 1.25zM149 161.85c0 .65.8 1.2 1.75 1.2.95.05 3.1.25 4.75.45 8.15 1.05 26.95 2.4 27.4 1.95 1.45-1.5-2.8-2.35-14.55-2.85-7.2-.35-14.55-.9-16.25-1.25-2-.4-3.1-.2-3.1.5zM150.1 171.35c.2.2 4.9.65 10.4.9 6.95.4 8.45.3 5-.25-5.15-.85-16.15-1.3-15.4-.65zM180.5 171.6c.55.2 5.05.8 10 1.35l9 .9-11.5-.45c-6.3-.25-12.85-.7-14.5-.95-2.5-.4-2.65-.3-1 .55 2.2 1.05 113.5 10.35 114.3 9.5.3-.25-.65-.5-2.05-.5-1.45 0-2.85-.4-3.15-.85-.3-.5.55-.65 1.95-.4 1.35.25 2.45 0 2.45-.55 0-.6-1.35-1.05-3-1-1.65.05-3 .5-3 .95 0 1.15-9.75 1.1-10.45-.1-.35-.55.9-.8 3-.6 2 .2 3.25 0 2.8-.45-.7-.65-91.6-8.25-94.85-7.95-.65.05-.65.25 0 .55zm61.4 6.05c.25.2-1.9.35-4.75.35-2.8 0-5.15-.4-5.15-.9 0-.8 8.95-.3 9.9.55zm26 2c.8.7-10.45.15-12.9-.65-1.45-.5.6-.6 5-.3 4.15.3 7.7.75 7.9.95z"/></svg>