<svg version="1" xmlns="http://www.w3.org/2000/svg" viewBox="0 0 900 507"><path fill="rgb(193,35,25)" d="M0 131.7c0 72.4.2 131.4.6 131.1.3-.3.7-56.7.9-125.3.2-68.6.8-125.2 1.2-125.6.5-.5 23.3-.9 50.8-.9l50-.2 1.2 18.9c.6 10.3 1.4 36.6 1.7 58.3.4 21.7 1.1 50.3 1.7 63.5.5 13.2 1.4 40.9 1.9 61.5 2.3 92.2 3 116.3 4 128.5.5 7.1 1.1 20.4 1.2 29.5l.3 16.5-16.5 1.1c-9.1.7-25 1.5-35.5 1.8-10.4.4-20.3 1.1-22 1.6-4.5 1.2-38.4 2-39.1.8-1.3-2 1.4-2.7 11.6-2.7 20.3-.1 22.3-.2 25.8-1.6 1.9-.8 5.4-1.5 7.8-1.5 2.4 0 5.5-.5 6.9-1.2 1.9-.9 3.1-.8 4.9.1 1.5.9 3.8 1.1 6.5.6 3.6-.6 4.3-1.1 4.8-3.6.7-3.8 2.1-4.6 3.8-2.3 1.3 1.8 1.4 1.8 2-.1.4-1.1 1.1-2.8 1.7-3.9 1.3-2.5-2.3-6.6-4.4-4.8-.8.6-2.3.9-3.5.6-1.5-.4-2.2 0-2.7 1.8l-.6 2.3-1.9-2.5c-1.5-1.8-1.7-2.8-.9-3.8.8-.9.6-1.6-.8-2.7-3.4-2.6-6.2-2.7-12.4-.6-7.4 2.6-7.8 2.6-10.6 0-1.8-1.6-2.1-2.8-1.7-5.5.4-2.5.1-3.5-1-4-1-.3-1.8-2.5-2.2-5.7-.4-2.9-1.2-5.7-1.7-6.4-.5-.7-.7-1.7-.4-2.2.4-.6-.3-1.5-1.4-2.1-1.1-.6-2-1.8-2-2.6 0-1.3.8-1.5 4.4-1 4.3.7 4.3.6 5-2.6.5-2.5.2-3.7-1.4-5.3-2-1.9-2.2-1.9-5-.3-3.2 1.8-6 1.5-6-.8 0-.8-.9-1.4-2-1.4s-2 .4-2 1c0 .5.4 1 .8 1 .5 0 1.6.6 2.6 1.3 1.6 1.2 1.7 1.7.6 3.8-.7 1.3-2 2.9-2.8 3.5-1.2.9-1.3 1.7-.4 4.2 1 2.8.9 3.2-.8 3.2-1.2 0-2.6 1.6-4 4.5-2.9 6-1.8 7.5 4.8 6.8 4.3-.4 4.5-.3 2.7 1-2 1.5-2 1.6.1 4.4 1.4 1.8 3.1 2.8 4.8 2.8 1.4 0 2.6.3 2.6.7.1 3.3-.2 3.8-2 3.8-1.2 0-3.1.7-4.5 1.6-1.7 1.1-5.2 1.6-12 1.7-7.3.2-9.8.6-10.5 1.7-.8 1.2-1 .9-1-1.1 0-3.1 2.8-5.9 5.8-5.9 1.2 0 2.2-.3 2.3-.8.1-.4.2-4.6.3-9.4l.2-8.7-3.1.6c-1.6.3-3.2.7-3.4.9-.2.1-.4 3.2-.6 6.9-.1 3.6-.5 6.8-.8 7.1-.7.7-1.5-22.6-2.3-62.1-.3-17.6-1-32.7-1.5-33.5-.5-.9-.9 50.4-.9 118.7v120.3h900v-507h-900v131.7zm352.6-121c1.7 1.2-.3 26.3-2.7 34.5-1.6 5.3-2.4 6.7-4.1 7-2.6.4-6.8 6.1-6.8 9.4 0 1.3-.5 4.5-1.1 7.1-.9 4.1-1.7 5.2-5.3 7.5-2.4 1.6-4.7 2.8-5.1 2.8-.4 0-2.6 1.7-4.9 3.7-14.5 12.9-14.8 13.3-17.7 20.4-3.1 7.7-5.5 22.9-4.5 29 .5 3.4.3 3.9-2.1 5.1-2.5 1.2-2.8 1.9-2.7 5.8.3 13.7 3 24.9 7.1 29.2 2 2.1 2.7 4.2 3.5 10.7l.9 8.1-3.4 4.8c-2 2.6-4.4 5.5-5.5 6.5-1.1 1-2.5 3.8-3.2 6.2-.9 3.3-2.4 5.4-5.9 8.2-2.5 2.1-5.3 4.7-6.1 5.8-.8 1.1-2.9 3.4-4.7 5.1-1.8 1.7-3.3 3.5-3.3 4-.1 2-4.7 6.2-7.5 6.8-1.6.4-5 2.6-7.6 4.9-2.5 2.3-7.9 7.1-11.9 10.7-4 3.5-8.6 8.3-10.2 10.5-1.6 2.2-5.2 5.6-8.1 7.5-7.5 5.1-12.9 12.3-15.5 20.6-1.2 3.8-2.3 7.8-2.4 8.9-.3 1.7-1.4 2.1-6.8 2.7-9.5 1-64.5 2.2-66.5 1.4-1.5-.5-1.4-.9.9-2.7 2.2-1.8 2.6-2.7 2.2-5.8-.8-6.7-1.9-10.2-3.5-11.4-2.8-1.9-3.2-3.4-2-6.1.9-1.9.9-3.2.1-5-.7-1.6-.7-2.7 0-3.4 1.6-1.6.2-4.2-2.3-4.2-1.9 0-2.1-.4-1.4-4.3 1.3-8.7.9-15.3-1.2-17.8-1-1.2-1.5-5.2-1.6-14.3-.1-6.9.1-12.6.6-12.6.4 0 .7.9.7 2.1 0 1.1.5 1.7 1 1.4.6-.3 1-2.6 1-5.1 0-3.8-.3-4.6-2.5-5.4-2.4-.9-2.5-1.3-2.3-8.2.3-10.7-1-46.7-1.8-51.1-.4-2.5-.2-4.7.6-6.2.9-1.7 1.1-4.6.7-9.9-.5-6.1-.4-7.5.9-8 2.1-.8 1-9.4-1.8-14.9-1.6-3.2-1.9-4.7-1.1-6.7.5-1.4 1.1-5.4 1.2-9 .1-3.5.5-6.9.9-7.4.4-.6.8-5.8 1-11.6.4-15.5.6-18.4 1.5-19.8.5-.7.6-2.1.2-3.1-.3-1.1-.2-2.8.3-3.8 2.1-4.1 3.1-7 3.7-11.3.3-2.5.7-5.2.8-6 .1-.8 1.5-3.4 3.1-5.7 2.3-3.5 2.6-4.7 1.9-7-.8-2.2-1.7-2.9-4.3-3.1-4.4-.5-9.6-4-8.1-5.5 1.6-1.6 222.4-3.5 224.7-2zm318.8 3.2c.4.5-2.7 1.2-6.8 1.6l-7.4.7-.5 3.5c-1 5.8-.2 6.5 6.7 6.1 3.5-.2 6.2.1 6.3.7.2.6-2.2.9-6.1.7-3.5-.2-6.6 0-6.9.5-.3.5-1.1 3.8-1.6 7.3-.8 5.1-.8 6.6.4 8.4 2.3 3.2 1.8 4.6-1.5 4.6h-3v-31.8l3.8-1.5c4-1.7 15.7-2.3 16.6-.8zm53.6 4.4c0 2.8-.5 6.8-1.1 8.7-.5 1.9-1 6.6-.9 10.3 0 6-.2 6.8-1.7 6.5-1.6-.3-1.8-1.5-1.7-8.8 0-4.7.4-9.6.9-10.9.7-2.1.6-2.3-1.4-1.6-2.8.9-2.7-.6.7-5.4 3.8-5.6 5.2-5.3 5.2 1.2zm-22.6-2.7c.9.3 1.6 1.2 1.6 1.9 0 .8.9 3 2.1 4.9 2.1 3.6 6 4.9 7.4 2.6 1-1.7 2.7-1.1 2.3.7-.2 1.4-1.5 1.8-5.5 2-4.9.2-5.3.1-7.2-3.1-2.1-3.3-3.9-9.6-2.8-9.6.3 0 1.2.3 2.1.6zm-4.1 6.6c-.8 10.4-3.3 20.8-5 20.8-2.3 0-1.5-20.5 1-24.3 3.1-4.8 4.6-3.5 4 3.5zm-22.3 21.7c0 1-13.9 2.3-15.4 1.3-.6-.3.3-1 1.9-1.3 4.5-1 13.5-1 13.5 0zm56.3 12.8c-2.9.2-7.7.2-10.5 0-2.9-.2-.6-.3 5.2-.3s8.1.1 5.3.3zm-43.8 2.3c1.3.6-.5.8-5.5.8-6.6-.1-7-.2-3-.8 6.2-1 6.3-1 8.5 0zm-14.7.7c-1 .2-2.6.2-3.5 0-1-.3-.2-.5 1.7-.5s2.7.2 1.8.5zm16.7 6.3c.3.5 1.4 1 2.4 1 2.1 0 6.4 3.7 7.4 6.3.3.9.2 1.7-.3 1.7-.6 0-1-.4-1-.9s-1.7-2-3.7-3.2c-2.1-1.3-4.1-2.7-4.5-3.3-1.4-2.1-9.1-1.5-14 1.2-2.6 1.4-4.8 2.9-4.8 3.3 0 .5-1.1 2-2.5 3.5s-2.5 3.1-2.5 3.5c0 .5-.4.9-.9.9s-.2-2.2.6-4.9c2.3-7 7.3-10.1 16.4-10.1 3.7 0 7.1.4 7.4 1zm12.9 11.6c.9 2.2-.3 3.2-1.4 1.4-1.2-1.9-1.2-3-.1-3 .5 0 1.2.7 1.5 1.6zm-22.3 10.7c-.8.8-1.1.1-1.1-2.4 0-4.6 1.4-6 1.8-1.9.2 1.8-.1 3.7-.7 4.3zm-17.4-1.6c-.3 1-.5.2-.5-1.7s.2-2.7.5-1.8c.2 1 .2 2.6 0 3.5zm42.9-1.1c.8 3.1-.3 11.5-1.6 12.8-.6.6-1 2-1 3.2 0 2.6-4 9.3-5.6 9.4-.6 0-1.9.9-2.9 2-1.9 2.1-5.5 2.7-5.5 1 0-.5 1.2-1.3 2.8-1.6 1.5-.4 3.5-1.7 4.4-2.8 1-1.2 2.2-2.6 2.8-3.3.5-.7 1-2 1-3.1 0-1 .7-2.7 1.5-3.8.9-1.2 1.4-4.4 1.5-9.2 0-7.2 1.4-9.6 2.6-4.6zm-334.1 5.2c6.1 3.1 13.1 9.7 15.5 14.7 1.2 2.5 2.5 4.7 3 5 1 .6.5 45.2-.5 51.3l-.8 4.3 3.7-3.3c2-1.7 3.6-3.7 3.6-4.5 0-1.3 4.7-4.9 5.5-4.2.6.7-4.3 15.1-6.7 19.4-2.1 3.9-4.5 6.4-6 6.5-.5 0-.8-2-.8-4.5 0-4.5-1.2-5.8-2.8-3-.4.9-2.4 2.3-4.3 3.3-3.9 2-4.8 5-2.5 8.4.9 1.2 1.6 2.8 1.6 3.5 0 1.8-5.6 9.6-7.8 11-1.1.7-2.3 2.7-2.7 4.5-1.2 5.1-4.7 9.6-8.8 11.3-5.5 2.2-20 2-25.3-.4-5.1-2.3-9-7.2-10.2-12.9-.6-2.3-2.2-5.8-3.6-7.7-3.3-4.2-3.2-5.7.3-12.6 3.4-6.7 2.9-8.7-3.2-13-3.7-2.6-4.6-3.9-5.7-8.2-1.8-7.7-1.1-11.1 2.3-11.5 2.1-.3 3.1.3 4.4 2.7 2 3.4 5.1 5.1 9.1 5.1h2.7l-2.5-2c-2-1.5-2.1-2-.8-2 .9 0 2.9-1.2 4.3-2.8l2.6-2.7-2.2-1.8c-1.2-.9-2.9-1.7-4-1.7-2.4 0-3.2-1.5-1.4-3 .8-.7 2.4-.9 3.7-.5 3.4 1.1 7.9 4.5 7.3 5.5-.7 1.1 4.7 4 7.4 4 2.6 0 3.6-3.6 2.1-7.5-1.6-4.3-6-8.5-8.7-8.5-1.3 0-4-.7-5.9-1.5-2.3-.9-5-1.3-7.4-.9-4.2.7-5.4-.3-5.6-5.1-.1-1.7-.5-6.5-.9-10.8-.7-7-.6-8.3 1.5-12.3 2.6-5.2 9.8-10.4 14.6-10.4 1.6 0 3.4-.4 4-.9 1.9-1.9 8.2-2.8 17.9-2.6 7.8.2 10.9.7 14 2.3zm307.5 3.2c0 1.6-.4 3-1 3-.5 0-1-1.4-1-3 0-1.7.5-3 1-3 .6 0 1 1.3 1 3zm-16.3 9.7c-.3 1-.5.2-.5-1.7s.2-2.7.5-1.8c.2 1 .2 2.6 0 3.5zm4.8 5.3c2.7 3 1.2 3.4-1.5.5-1.3-1.4-1.9-2.5-1.3-2.5.5 0 1.8.9 2.8 2zm7.5 5c0 1.2-.8 1.2-3.5 0-1.8-.8-1.7-.9.8-.9 1.5-.1 2.7.3 2.7.9zm9.6 2.3c.4.4-1.1.7-3.4.7s-4.2-.3-4.2-.8c0-.9 6.6-.9 7.6.1zm-17.6 3.4c0 1.2-3.3 4.3-4.7 4.3-2 0-1.5-2.1.7-2.7 1.1-.3 2-.9 2-1.4 0-.5.5-.9 1-.9.6 0 1 .3 1 .7zm-8.7 4.9c.8.8-5.9 5.4-7.8 5.4-.8 0-1.6.4-1.9.9-.8 1.2-8.4 5.1-10 5.1-.7 0-1.9.7-2.6 1.5-.7.8-1.9 1.5-2.7 1.5-.8 0-3.5 1.3-6 3-2.4 1.6-4.7 3-5.1 3.1-.4 0-2.7 1.6-5.2 3.5-7.6 5.7-21 12.4-21 10.5 0-.9 8.3-7 13-9.5 1.9-1 4.2-2.4 5-3.1.8-.6 3.6-2.2 6.2-3.4 2.7-1.3 5-2.7 5.4-3.2.3-.5 1.4-.9 2.5-.9 1 0 1.9-.5 1.9-1 0-.6.8-1.4 1.8-1.7.9-.4 3.8-1.9 6.3-3.5 2.5-1.5 5.3-2.8 6.1-2.8.9 0 2.1-.7 2.8-1.5.7-.8 2.2-1.5 3.4-1.5 1.1 0 3-.7 4-1.5 2.2-1.6 3-1.8 3.9-.9zm94.8 35c1.6 2.1 6.6 7.4 11 11.8 7.1 7.3 9 10.2 7.3 11.8-.8.9-6.5-4.9-12.5-12.6-2.9-3.8-7.3-9-9.9-11.6-6.5-6.9-15.4-17.1-15.9-18.3-.2-.6-1.7-2.3-3.3-3.7-1.5-1.4-2.6-2.9-2.2-3.3.6-.6 20.2 19.2 25.5 25.9zm-350.8-14c1.1 1.1-2.5 5.4-4.4 5.4-2.1 0-2.4-1.2-.9-4.1 1-1.8 4-2.6 5.3-1.3zm192.7 15.3c0 1.1-4.5 4.1-6.1 4.1-.7 0-.2-1.1 1.1-2.5 2.3-2.5 5-3.3 5-1.6zm-10.6 13c2 2.2 1.9 12.2-.1 12.9-1 .3-1.3-1.3-1.3-5.7 0-5.9-.1-6.1-2.6-6.1-2.2 0-2.5-.2-1.4-1.5 1.7-2 3.3-1.9 5.4.4zm-5.7 17.2c1.3 9.8 2.4 11.2 4.3 5.5 1.2-3.6 3.7-5.3 5.3-3.7 1 1-1.3 7.7-3.6 10.8-1.4 2-3.8 1.5-4.4-.7-.3-1.1-.9-2-1.4-2-.4 0-1.1-1.5-1.4-3.4-.7-3.2-3.5-5.6-6.9-5.6-2.6 0-2.8-3.3-.4-5.1 2.2-1.7 2.4-1.7 5.3.5 1.6 1.3 3.1 3 3.2 3.7zm186.6-3.5c.7.7-2.9 4.4-4.3 4.4-1.7 0-1.1-2.8.8-3.9 2-1.2 2.7-1.3 3.5-.5zm16.5 2.4c1.1 1.8.9 2.7-1.3 6.4-2.2 3.8-2.4 4.5-1 5.6 1.7 1.4 2.1 6 .5 6-.5 0-1.3-1.4-1.8-3.2-.5-2.2-1.9-3.7-4.6-5.1-3.9-2.1-3.5-3.7 1.1-3.7 2.6 0 4.7-3.3 3.8-6-.9-2.7 1.6-2.6 3.3 0zm-217.3 6.9c.4.8-5.2 6-10 9.3-.5.4-3.8 3.1-7.1 6-7.5 6.5-17.5 14.4-22.9 18-2.2 1.5-6 4.5-8.5 6.8-7.7 7-14.9 12.2-16.2 11.7-1.2-.4 5.5-7.7 12.7-13.7 3.4-2.9 27.4-20.8 32.3-24.2 1.9-1.3 6.6-5.1 10.5-8.6 7.2-6.3 8.2-6.9 9.2-5.3zm27.5 12.2c0 .8 10.3 15.2 14 19.6 1.3 1.5 1.3 3.3.1 3.3-1.1 0-6.6-6.7-9.6-11.5-1-1.7-2.4-3.4-3.2-3.8-.7-.4-1.3-1.5-1.3-2.2 0-.8-.4-1.5-.9-1.5-1.3 0-2.4-3.7-1.6-5 .7-1.2 2.5-.4 2.5 1.1zm189.5 4.8c-.8 4.6-4.7 9.7-6.5 8.6-1-.6-.9-1.1.4-2.1 2-1.4 5.6-8.1 5.6-10.3 0-.8.3-1.2.6-.8.3.3.3 2.4-.1 4.6zm-34.5 1c0 1-10.9 10.5-24.4 21.1-3.6 2.9-6.9 5.7-7.4 6.4-1.4 2.3-17.5 15.6-18.8 15.6-2.9 0-1.2-3 4.7-8.1 3.3-3 7.1-6.3 8.4-7.4 1.2-1.1 4.4-3.8 7-6 2.6-2.2 7.4-6.4 10.6-9.3 3.2-2.8 6.2-5.2 6.6-5.2.5 0 2.8-1.8 5.3-4 4.2-3.7 8-5.2 8-3.1zm-356.1 5.2c3.5 4.2 3.5 5.5.4 4.5-1.6-.5-5.3-6.3-5.3-8.1 0-1.5 2.1 0 4.9 3.6zm377.9.4c.6 1.4 1.9 2.5 2.7 2.5.9 0 1.3.4 1 1-1.8 2.8-8.5-.5-8.5-4.2 0-2.7 3.5-2.2 4.8.7zm18 9.8c.2 2 .7 3.7 1.2 3.7s1.2 1 1.5 2.2c.4 1.3 1.3 3.8 2.1 5.5 3.8 8.5 4.9 10.8 5.4 11.3 1.8 1.6 8 12.1 8 13.4 0 .9.4 1.6.9 1.6 1.4 0 5.1 6.9 5.1 9.6 0 5.1-2.9 2-8.8-9.6-3.4-6.6-6.2-12.6-6.2-13.4 0-.8-.4-1.6-.8-1.8-1.8-.7-8.2-12.8-8.2-15.4 0-1.6-.7-3.8-1.5-4.8-1.8-2.4-2-6.9-.2-6.4.6.3 1.3 2.1 1.5 4.1zm-477.1 6.3c4.2 4.2 5.2 5.8 4.2 6.4-2.7 1.8-11.9-6-11.9-10.1 0-3.1 1.9-2.2 7.7 3.7zm71.9-2.5c.9 3.1 2.9 4.1 2.9 1.5 0-2.5 1.6-3.2 3-1.2 1.1 1.5 2.2 1.7 4.9 1.3 4-.6 4.2-.5 5.1 4.6.7 3.6.6 3.7-2.2 3.7-2.4 0-4 1.2-8.1 5.9-2.8 3.2-6.1 7.5-7.3 9.5-1.5 2.6-2.6 3.5-3.9 3.1-2-.6-3 1.8-3 7.7 0 4.1-1.5 5.9-2.5 2.9-.3-1-2.9-2.9-5.8-4.1-2.9-1.2-6.4-3.1-7.9-4.2-3.3-2.3-5.2-1.5-4.5 1.8.8 4.3-3.5 6.3-13.1 6.3-4.5 0-8.2-.4-8.2-.9 0-1.9-4.9-2.2-8.4-.5-1.9.9-3.9 1.4-4.5 1.1-.5-.3-1.6-2.7-2.5-5.4-1.6-4.5-1.6-4.8.4-6.4 1.1-.9 2-2.7 2-4.1 0-3.4 1.7-3.8 11-2.5 9.1 1.4 9.8 2.1 8.6 10.2-.8 5.3.6 6.8 3.5 3.7 1.1-1.2 2.3-2.1 2.7-2.1.4 0 1.5-1.2 2.5-2.5 1.8-2.5 1.8-2.6-.2-5.2-2.8-3.5-2.7-3.9 1.7-6.3 3.9-2.1 4.8-2.7 12.1-7.2 5.1-3.2 7.9-3.5 8.8-1.1.3 1 1.6 4.1 2.9 7 1.3 2.8 2.4 5.7 2.4 6.4 0 .7.3.9.7.6.3-.4.5-3.3.4-6.5-.1-3.4.5-7.4 1.4-9.5.8-2 1.5-5.2 1.5-7.2 0-4.4 2.4-4.7 3.6-.4zm-94.2 1.5c1.7 1.6 2.1 4 .9 4.7-.5.2-2.2-.6-4-1.8-2.4-1.7-2.9-2.5-2-3.4 1.5-1.5 3.3-1.4 5.1.5zm327.9 5.5c2.1 2.2 3.7 4.4 3.7 4.7.1.4 1.4 1.8 3 3.2 1.7 1.3 3 2.9 3 3.5 0 .5 1.6 2.8 3.6 5 1.9 2.2 5.6 6.8 8.2 10.2 4.4 5.8 5 6.2 9.1 6.5 2.7.2 4.6.8 4.9 1.7.4 1.2-.6 1.3-5.7.8-7.4-.8-11.4-3.1-10.5-5.9.4-1.5-.5-3.1-3.3-6.2-2.2-2.2-5.2-5.9-6.8-8.1-1.6-2.2-4.2-5.6-5.9-7.5-5.6-6.5-8.6-10.4-8.6-11.2 0-1.7 1.8-.6 5.3 3.3zm-339.3 1.4c.7.9 1 1.8.6 2.2-.8.9-5.6-1.4-5.6-2.7 0-1.5 3.6-1.2 5 .5zm21.8.8c1.6 1.3 1.5 2.6-.2 3.3-1.9.7-7-3.7-5.4-4.7 1.2-.8 3.5-.2 5.6 1.4zm-29.4 10.9l4.5 6.7-2.3 3.3c-1.2 1.8-2.5 4.1-2.9 5-.3 1-1 1.8-1.6 1.8-1.5 0-2.1-4.3-.8-5.8.9-1.1.7-1.7-.8-2.8-1-.8-2.4-1.4-2.9-1.4-.6 0-1.7-1.4-2.5-3-1-2.5-1-3.4 0-4.6.9-1.1.9-1.8.1-2.6-1.7-1.7-1.5-3.6.6-4.1 2.7-.6 3.8.4 8.6 7.5zm17.4-.4c.2.7-.3 1.2-1.2 1.2-.9 0-1.6-.7-1.6-1.6 0-1.7 2.2-1.4 2.8.4zm116.1 1.8c2.7 1.4 5.1 4.1 5.1 5.8 0 1.3-3.8.5-4.4-.9-.3-.8-1.5-1.5-2.6-1.5-1.5 0-2-.7-2-2.5 0-3-.1-2.9 3.9-.9zm303.7 8.8c-.3 1.3-1.6 2.8-2.8 3.2-1.2.3-5 3.5-8.5 7-4.9 4.9-6.3 7-6.3 9.3 0 2.5.5 3.1 3.6 4.1 3.4 1.2 3.8 1.1 6-1.5 2.8-3.3 3.3-9 .8-9.9-.8-.3-1.2-1.1-.9-1.7.5-.7 1.6-.2 3.2 1.2 2 1.9 2.3 3.1 2.1 6.9-.3 3.8-.7 4.7-3 5.8-3.1 1.5-3.8 5.1-1.3 7.2.8.7 1.5 2 1.6 2.9 0 .9 1.8 4.7 3.9 8.6 2.1 3.8 5.1 9.2 6.5 12 1.4 2.7 3.4 6.3 4.5 8 4.2 6.9 9 16.8 8.4 17.6-.3.5-1.5.9-2.8.9-1.9 0-3-1.6-6.8-9.8-7.4-15.4-11.8-24.6-12.7-26.2-1.6-2.9-3.9-8.5-5.2-12.8-.7-2.4-2-4.7-2.9-5.2-4.1-2.2-8-6.9-8-9.7 0-4.1 1.9-6.3 10-11.7 3.9-2.7 7.3-5.5 7.6-6.2 1.4-4.6 1.5-4.7 2.6-3.6.6.6.8 2.2.4 3.6zm-198.6 3.9c0 6.7-2.2 12-3.5 8.5-.4-.9-.1-2.6.5-3.8 1.6-3.1 0-4.4-5-4.2-4.5.2-8-1.2-8-3.1 0-.8 1.9-1.1 6.5-.9 5.2.3 6.6.1 7.1-1.2 1.3-3.4 2.4-1.3 2.4 4.7zm-261-4.2c0 .7 1.2.9 3.1.7 2.5-.4 3.3-.1 3.7 1.4.3 1.1 1.3 1.8 2.8 1.8 1.4 0 2.7.7 3 1.5.4.8 1.7 1.5 3 1.5 2.9 0 2.9 1.4.3 5.5-1.1 1.6-2.2 3.8-2.5 4.8-.9 2.6-4.9 1.8-4.8-.8 0-1.7-.5-2-2.8-1.7-2.7.4-2.9.2-2.2-2.2.6-2.6-.8-3.7-2.1-1.6-.9 1.5-3.7 1.2-7.6-.7-1.9-.9-3.6-1.7-3.8-1.9-.2-.2.5-1.3 1.5-2.6 1.4-1.6 2.7-2.2 4.8-2 2.6.3 2.8.1 2.2-2.2-.4-1.5-.2-2.6.4-2.6.5 0 1 .5 1 1.1zm48 .4c0 .8.6 1.5 1.4 1.5.7 0 1.9.6 2.6 1.4.9 1.2 1.7 1.2 3.5.4 3.1-1.4 4.5-.3 9.1 6.9 1.9 2.9 3.9 5.3 4.6 5.4.7 0 4 .3 7.3.5 3.3.3 8.1.5 10.8.5 3 0 4.7.5 4.7 1.3 0 2.5-2.6 3.6-8.4 3.7-3.4 0-8.3.4-11.1.8-3.6.6-5.7.5-7.6-.4-2.4-1.3-13-2-19.4-1.3-2.5.3-3.2-.2-4.5-2.9-.8-1.8-2.3-3.3-3.2-3.3-.9 0-2.1-.6-2.5-1.4-.4-.8-1.9-1.6-3.2-1.8-1.4-.1-2.7-.9-2.9-1.7-.4-1.1 0-1.2 1.4-.6 4 1.7 7.5 1.7 9.9.1 3-2 3.4-5.6.6-5.6-3 0-3.4-1.7-.9-3.4 2.9-2.1 7.8-2.1 7.8-.1zm99.4 3.2c.8 1.9-1 3.4-3.1 2.6-.7-.3-1.3-1.1-1.3-1.7 0-2.9 3.4-3.6 4.4-.9zm17.6 5.1c0 1-.5 2.3-1.1 2.9-1.6 1.6.6 7 4.3 10.5 1.6 1.4 3.7 4.5 4.7 6.8 1 2.4 3.1 5.3 4.6 6.6 1.9 1.7 2.5 2.8 2 4.3-.9 2.8-5.4 3.9-7 1.7-1.8-2.4-4.4-2-5.7.9-1.4 3.1-2.5 3.2-3.4.3-.4-1.2-1.7-3.1-3.1-4.1-2.5-2-5.3-6.7-5.3-9 0-.8 1.6-2.2 3.6-3.3 3.3-1.7 6.2-5.9 4.9-7.2-.3-.3-2.2 0-4.2.6-2.1.6-4.1.8-4.7.3-.6-.5-2.2-1.1-3.6-1.3-1.4-.1-2.6-1.1-2.8-2.1-.5-2.6 4.8-2.4 5.5.3.3 1.1.9 2 1.4 2 .5 0 .9-.9.9-2 0-1.9 6.6-9.7 8.3-9.9.4-.1.7.7.7 1.7zm219.6 3.8c-.3.9-.6 2.1-.6 2.7 0 .7-.5.4-1.1-.6-1.1-1.8-.5-3.7 1.3-3.7.5 0 .7.7.4 1.6zm-357.6 3.1c2.5.9 4.7 1.8 4.8 1.9.2.2-.1 1.8-.7 3.7-.9 2.7-2.1 3.9-5.2 5.1-2.2.9-4.6 1.6-5.4 1.6-1.8 0-1.9 2.2-.3 6.7 1.1 3 1 3.5-1.1 4.9-1.2.9-2.6 2.7-3.1 4-.6 1.6-1.7 2.4-3.3 2.4-2.5 0-10.7-5.7-10.7-7.5 0-.5.9-2.4 2-4 1.1-1.7 2-3.7 2-4.6 0-.9 1.8-2.8 4-4.3 2.2-1.4 4-3 4-3.5 0-1.3 6.2-8.1 7.4-8.1.6 0 3.1.8 5.6 1.7zm363.8 7.6c.4 2.1-4.5 5.4-6 3.9-.7-.7-.4-1.4 1.1-2.1 1.2-.7 2.1-1.9 2.1-2.7 0-2 2.4-1.2 2.8.9zm-404.4.2c.8.8 2.3 1.5 3.3 1.5s3.7.8 6 1.7c3.3 1.4 4.3 2.3 4.3 4 0 2-.5 2.3-3.5 2.3-2.8 0-3.5.4-3.5 2 0 1.3-1 2.4-2.7 3.1-1.5.6-3.1 1.6-3.5 2.2-.6.9-1.2.9-2.8-.1-1.1-.6-2.8-1.2-3.9-1.2-2.4 0-3.7-1.7-4.4-5.7-1.4-7.1 6.3-14.2 10.7-9.8zm579.6 0c.8 1 1 3.3.5 7.4l-.7 6 3.6.6c2 .4 3.6 1.2 3.6 1.7 0 .6-1.4.8-3.4.4-4.4-.8-6.3 0-8.2 3.6-1.9 3.7-1.4 5.8 3.6 16.3 6.5 13.6 10.8 23.1 13.6 29.7 1.4 3.5 3 6.7 3.5 7.2 1.3 1.4 1.1 5.6-.2 5.6s-4.8-4-4.9-5.5c0-.6-1.1-2.7-2.4-4.6-1.4-2-4.1-7.9-6.1-13-5.5-14.4-9.5-24.1-11.1-27.1-.8-1.4-1.4-3.5-1.4-4.6 0-1.1-.7-2.7-1.5-3.6-1.1-1-1.3-2.4-.9-4.3.9-3.9 2.3-5.3 5-5.3 3 0 3.8-1.5 3.7-7.2-.1-5 1.3-6.2 3.7-3.3zm-12.6 2.2c-2.7 2.9-4 2.6-2.9-.6.4-1.4 1.5-2.1 3-2.1h2.4l-2.5 2.7zm-294.3.5c2 4.5 3.8 7.1 8.9 12.8 7.6 8.7 8.7 10.3 12 16.9 3.5 7 3.7 8.1 1.1 8.1-1.4 0-2.9-1.8-5.1-6.3-1.8-3.4-6.2-10.2-9.8-15.1-7.7-10.4-10.5-15.3-9.8-17.2.8-2 1.5-1.7 2.7.8zm-168.7 1.8c.5.5.6 2 .2 3.4-.5 1.9-1.3 2.6-3.1 2.6-4.5 0-17.6 8.6-21.6 14.1-3.1 4.4-5.7 3.8-10.1-2.3-4.6-6.3-5-10.4-1.3-11.8 1.5-.6 2.5-1.7 2.5-3 0-2.1 2.4-2.8 3.5-1 .9 1.5 12.7.1 18.4-2.1 4.4-1.7 9.6-1.6 11.5.1zm53.1-.2c2.1 1.7 2.2 2 .8 4.6l-1.5 2.9-2.4-2.9c-4.3-5.3-2.1-8.6 3.1-4.6zm241.1 5.9c.9 2.9 3.5 9.6 4.9 12.8 9.1 20.4 11.4 31.2 6.2 29.2-1.5-.6-4.7-9.7-4.7-13.4 0-1-2-6.7-4.5-12.8-2.5-6-4.5-12-4.5-13.2 0-2.9-1.7-3.8-2.9-1.6-.5 1-3.8 3.3-7.4 5.1-3.6 1.9-8.7 5.2-11.5 7.5-2.7 2.3-6.4 5.4-8.3 6.9-1.9 1.4-4.7 3.8-6.4 5.2-1.6 1.4-3.6 2.6-4.2 2.6-2.2 0-1.4-3 1.5-5.6 5.8-5.2 24.9-19.2 29.7-21.6 6.1-3.1 11.3-3.6 12.1-1.1zm58.4.9c0 1.7-1.7 3.5-14.5 14.9-4.9 4.4-10.3 9.3-11.9 10.8-2.8 2.8-5.6 3-5.6.5.1-2.6 8.7-10.7 22.5-21.2 2.8-2.1 5.4-4.4 5.8-5.2 1.1-1.9 3.7-1.8 3.7.2zm-286.2 6.6c1.6 1.6 1.5 3.8-.2 3.8-1.3 0-2.6-2-2.6-4.1 0-1.3 1.4-1.1 2.8.3zm-156.3 2.9c0 1.8-.6 2.5-2.5 2.7-2 .3-2.2.2-1.2-1.1.7-.8 1.2-1.9 1.1-2.3-.3-1.8.1-2.6 1.4-2.2.6.3 1.2 1.6 1.2 2.9zm116-.8c1.1 0 3-.4 4.2-.8 1.8-.6 2.2-.2 2.8 2.7.4 1.8 1.1 3.8 1.6 4.4.5.6 1.2 3.1 1.5 5.5.5 3.8.2 4.8-2 7.1-1.4 1.5-4.2 3-6.2 3.4-2.4.4-3.9 1.4-4.6 3-.9 2-1.9 2.4-5.4 2.4-4 0-10.7 2.4-14.6 5.2-1.4 1-2.2.9-4.7-1-1.7-1.2-3.7-2.2-4.5-2.2-.8 0-2.7-.7-4.3-1.5-1.5-.8-5-1.7-7.6-2-4.7-.6-4.8-.7-3.1-2.6.9-1 3.2-2.4 5-3.1 3-1.1 3.4-1.6 3.4-4.8 0-4.9 3.1-7.6 9.6-8.4 3.9-.5 5.4-.3 6.3.8 1.3 1.6 6.6 1.9 9.2.5 1.9-1 3.9.7 3.9 3.3 0 1-1.5 3.1-3.2 4.7-3.5 3.1-3.2 5.1.5 3.3 1.2-.6 3.3-1.3 4.7-1.6 2.8-.6 7.3-7.6 6.4-9.9-.2-.7.2-2 1.1-2.7 2.3-1.9.1-4.2-3.1-3-1.5.6-3.4.6-5.1-.1-2.7-1-2.8-1.1-.8-2.5 1.3-1 2.9-1.2 4.5-.8 1.4.4 3.4.7 4.5.7zm433.5 2.6c0 1-2.5 4-5.7 6.7s-8.6 7.5-12 10.6c-3.4 3.2-6.7 5.8-7.2 5.8s-1.2-.8-1.6-1.7c-.7-1.9 2.3-4.9 13.8-13.9 3.2-2.6 7-5.7 8.4-7 3.1-2.9 4.3-3 4.3-.5zm-450.1 0c1.3.8 1.3 1.2.1 2.6-1.3 1.6-1.5 1.6-2.7-.1-2-2.7-.3-4.3 2.6-2.5zm-11.9.9c0 1.4-1.1 2.1-2.6 1.5-.8-.3-1.1-.9-.8-1.4.7-1.1 3.4-1.2 3.4-.1zm-36.2 2.4c.9.9.8 1.6-.5 3-2.2 2.5-4.3 2.3-4.3-.5 0-3.7 2.4-4.9 4.8-2.5zm96 2.9c.1 1.9.7 4.3 1.2 5.4 4 8.9 5 11.9 4 12.9-1.8 1.8-5-2.3-5-6.4 0-2-.7-4.5-1.5-5.6-1.8-2.4-2.1-10.7-.2-10.2.6.3 1.3 2 1.5 3.9zm-70.8-1.7c0 .8-.4 1.8-1 2.1-.5.3-1 2.2-1 4.1 0 3-.3 3.4-2.5 3.4-2.9 0-3.1-.8-1-3.6 1.8-2.4 1.9-3.4.1-3.4-2.1 0-3.1-2.1-1.5-3.1 2.3-1.4 6.9-1.1 6.9.5zm-46 5.6c0 .6-1.6 1.8-3.6 2.7-2.9 1.4-3.7 1.5-4.4.4-1.5-2.5.1-4.1 4.1-4.1 2.1 0 3.9.5 3.9 1zm18.5 10.5c3.6 3.6 4.5 7.1 2.3 9.3-1.5 1.5.7 4.2 3.3 4.2 1.5 0 1.9.7 1.9 3.5 0 2 .8 4.8 1.7 6.3 1.7 2.6 1.7 2.7-.2 1.2-3.5-2.8-8.4-8.5-8.5-9.9 0-.8-.7-1.9-1.6-2.6-.9-.6-1.7-2.5-1.8-4.2-.1-1.9-1.3-4.1-3.4-6.2-1.8-1.8-3-3.7-2.6-4.2 1.2-2 5.5-.8 8.9 2.6zm-11.8 3.7c1.1 1.3 2.8 4.4 3.8 7 1 2.7 2.2 4.8 2.6 4.8.5 0 .9.9.9 2 0 1.8-.6 1.5-5.1-2-2.8-2.2-5.4-4-5.9-4-.4 0-1.5-1.1-2.4-2.5-1.6-2.4-1.6-2.7.1-5 2.2-3 3.4-3.1 6-.3zm-59.3 4.4c1.9.7 2.2 3.4.4 3.4-2.2 0-4.1-1.7-3.4-2.9.8-1.3.9-1.3 3-.5zm116 8.2c.7 1.2-.5 5.2-1.5 5.2-1.3 0-2.2-2.7-1.5-4.5.6-1.6 2.2-2 3-.7zm25.6.2c0 .5-.7 1-1.5 1s-1.5-.5-1.5-1c0-.6.7-1 1.5-1s1.5.4 1.5 1zm34.5 1c.7 2.1-2.4 8.5-4 8.5-.5 0-1.4-1.2-1.9-2.6-.7-2-.5-3.2 1-5.2 2.3-3.2 4-3.4 4.9-.7zm27.3 4c1.3 1 2.1 2.4 1.7 3-.4.6-.2 1.7.4 2.4.8.9.7 2-.2 3.9-1.5 3.4-3.7 3.5-3.7.2 0-1.9-.8-2.8-3.5-3.9-2.9-1.2-3.5-2-3.5-4.5 0-5.4 3.4-5.8 8.8-1.1zm7.8.8c1.6 1.1 2.4 4.1 1.4 4.7-.6.4-1-.1-1-1s-.9-1.9-2-2.2c-1.1-.3-1.7-.9-1.4-1.4.6-1.1 1.5-1.1 3-.1zm-425.6 5.2c0 2.7-.4 5-.9 5-.6 0-1-2.3-.9-5 0-2.8.4-5 .9-5s.9 2.2.9 5zm226-1.9c4.1 3 4.2 3.2 3.6 7.5-.5 4.1-.4 4.6 2 5.6 3.2 1.5 6 6.9 6.9 13.3l.6 5-2.3-4.6c-2.6-5.1-4-6.7-8-9.3-1.6-1-2.8-2.6-2.8-3.5 0-1-1.7-5.2-3.8-9.4-4.5-8.9-3.6-9.9 3.8-4.6zm146.3.1c-.8 4.4-1 4.5-3.5 2-1.8-1.7-1.9-2.3-.8-3.6.7-.9 2.1-1.6 3.1-1.6 1.5 0 1.7.5 1.2 3.2zm-163.3 4.5c0 1.3-.3 1.3-1.5.3-.8-.7-1.5-1.9-1.5-2.7 0-1.3.3-1.3 1.5-.3.8.7 1.5 1.9 1.5 2.7zm62.6.2c2.4 1.9 2.5 2 .5 3-3 1.6-3.8 1.4-4.3-1.4-.8-4 .2-4.4 3.8-1.6zm-26.4 1.4c1.6 1.4 2.9 3.8 3.3 6.2.4 2.2 1.1 4.5 1.6 5 .4.6.9 2.3 1.1 3.9.3 3.3-1.9 4.8-2.8 1.9-.3-1-1-2.6-1.5-3.5-.5-1-.9-2.7-.9-3.9 0-1.2-1.6-3.6-3.5-5.5-2.2-2.1-3.3-3.8-2.9-4.8.8-2.2 2.4-2 5.6.7zm57.3 2.6c.8 1.4-1 2.2-3 1.5-1.3-.5-1.4-.8-.3-1.5 1.7-1.1 2.6-1.1 3.3 0zm38.3 3.4c.3 1.2-.3 1.7-2.1 1.7-3.1 0-4-1-2.5-2.7 1.5-1.8 4.2-1.2 4.6 1zm-51.8 4.5c2.4 2.3 4 4.8 4 6.2 0 2.2 0 2.2-2.7.4-6.4-4.1-7.2-5-7.3-7.7 0-3.6 1.2-3.4 6 1.1zm-109 18c0 3.3.5 6.3 1.2 7 1 1 1 1.5.1 2-1.6 1-2 11.5-.5 12 2.2.7 1.2 2.2-1.4 2.2-2 0-2.5-.4-2-1.6.3-.9.6-7.4.6-14.5 0-7.9.4-12.9 1-12.9s1 2.6 1 5.8zm189-4.9c0 1.2-2 2.5-2.7 1.8-.7-.7.6-2.7 1.8-2.7.5 0 .9.4.9.9zm69 5c0 3.3.5 6.3 1 6.6.7.4.7 1.2 0 2.5-1.4 2.6-1.2 10.4.2 11.8 1 1 1 1.5-.2 2.2-.8.5-1.9.8-2.4.7-.6-.2-1.1-24-.6-29.5 0-.1.5-.2 1-.2.6 0 1 2.6 1 5.9zm-274.8 8.5c-.4 11.1-.3 11.5 1.9 12.7l2.3 1.2-2.4.9c-1.3.5-3.7.6-5.3.2-2.6-.5-2.7-.7-1.3-2.3 1.3-1.4 1.6-4.2 1.6-12.9 0-10 .2-11.2 1.8-11.2s1.7 1.1 1.4 11.4zm35.7-8.3c1.2 1.7 2 3.7 1.7 4.5-.7 1.8-4 1.8-5.6-.1-.7-.8-2.8-1.5-4.6-1.5-3.4 0-4.1-1-2.8-4.4.4-1.1 1.9-1.6 4.8-1.6 3.6 0 4.6.5 6.5 3.1zm85.6-1.1c1.8 2 1.8 2.1-.1 3.5-2.5 1.9-2.8 1.9-4.9-.5-1.5-1.6-1.5-2.2-.5-3.5 1.7-2 3.3-1.9 5.5.5zm395.5-1c0 .5-.9 1-2.1 1-1.1 0-1.7-.5-1.4-1 .3-.6 1.3-1 2.1-1s1.4.4 1.4 1zm-254 5.1c0 2.3.5 3.2 2.2 3.7l2.2.5-2.2.8c-1.9.7-2.2 1.6-2.2 6.8 0 5.2.2 5.9 2.2 6.5 1.8.4 2 .8 1.1 1.7-1 1-1.8 1-3.8.1-2.3-1.1-2.5-1.7-2.6-8.4-.1-8.5.1-13 .8-14.1 1-1.7 2.3-.5 2.3 2.4zm224.8.5c.3 3.5.3 3.5-.4 10.3-.6 4.9-.4 5.6 1.7 7.2 2.1 1.6 2.2 1.8.6 2.4-3.7 1.5-4.7-.1-4.7-7.5 0-4-.4-7-1-7-.5 0-1-.7-1-1.5s.5-1.5 1-1.5c.6 0 1-1.4 1-3.1 0-4 2.4-3.4 2.8.7zm-287.6.1c.2 1.9 1 2.9 2.8 3.4l2.5.6-2.5.4c-2.3.4-2.5.9-2.8 6.3-.2 4.1.1 6.2 1 6.8 1 .6 1 1-.2 1.8-.8.5-1.9.8-2.4.7-.8-.3-1.1-9.1-.7-20.2.1-3.4 1.9-3.2 2.3.2zm-121.2 3.3c0 2.1-1.5 2.7-2.5 1-.7-1.2.2-3 1.6-3 .5 0 .9.9.9 2zm165 0c0 2.1-1.5 2.7-2.5 1-.7-1.2.2-3 1.6-3 .5 0 .9.9.9 2zm-213.6 1.4c1 1.6 1.5 4.5 1.4 8.3-.1 6.7-.3 7.4-2.3 6.6-1.2-.4-1.4-2-1.1-7 .3-4.8 0-6.6-1-7-1.8-.7-1.8-3.3 0-3.3.7 0 2.1 1.1 3 2.4zm9.8.9c-.1 1.4.2 2.8.8 3.2.8.5.7 1.1-.1 2.1-2.2 2.7.4 6.3 5.3 7.1l4.3.7-3.8.8c-4.6 1-7.4-.3-8.8-4-1.3-3.4-.2-13.5 1.4-12.9.7.2 1.1 1.6.9 3zm31.8-2.3c1.2.7 1.2 1.4.2 4.3-.7 1.8-1.2 4.1-1.2 5.1s-.5 1.4-1.1 1c-.6-.4-.9-2-.6-3.9.3-1.7.1-3.8-.3-4.5-1.6-2.5.3-3.8 3-2zm43.5.2c.2.7.5 4.6.7 8.5.3 6.3.1 7.3-1.3 7.3-1.4 0-1.7-1.2-1.7-6.8-.1-3.8-.2-7.3-.3-7.8-.4-2.5 1.8-3.5 2.6-1.2zm9.7 2.2c.2 1.3 1.5 2.3 3.6 2.8 3.3.9 7.2 4 7.2 5.8 0 1.5-1.5 1.2-4.3-1-1.4-1.1-3.6-2-4.9-2-3.1 0-4.8-1.8-4.8-5 0-4.6 2.4-5 3.2-.6zm30.7-1c1.7 1.8 2.2 3.3 1.9 6.2-.4 5.2-2.8 5.8-2.8.7 0-2.2-.7-4.8-1.5-5.9-3-3.9-1.1-4.7 2.4-1zm11.3 6.1c.3 8.1-.2 9.7-2.7 8.9-.6-.3-.9-3.9-.8-8.6.2-9.9 0-8.8 1.7-8.8 1.1 0 1.5 2 1.8 8.5zm11.9 0c.5 7.9-.2 10.9-2 8.9-.5-.5-1.1-4.6-1.3-9.2-.3-6.9-.1-8.2 1.2-8 1.1.2 1.6 2.3 2.1 8.3zm47.5-5.1c.9 3.6 0 10.9-1.3 11.4-1 .3-1.3-1.3-1.3-5.7 0-3.3-.5-6.3-1-6.6-1.5-.9-.2-2.5 1.5-1.8.9.3 1.8 1.5 2.1 2.7zm11.6-2.4c.6 0 .3.9-.8 2.1-1.7 1.9-1.9 1.9-3.1.3-1.5-2-.7-3.8 1.4-3 .8.3 1.9.6 2.5.6zm50.2 1.2c1.7 2.4 2.3 14.3.8 15.2-2 1.2-3-1.3-3-7.4.1-3.9-.4-6.6-1.1-6.8-1.6-.5-1.4-3.2.3-3.2.8 0 2.2 1 3 2.2zm89-1.6c1.1.4 1.3 1 .7 1.8-.5.6-1.1 2.1-1.3 3.4-.5 3.9-2.3 2.9-2.6-1.6-.3-4.2.2-4.8 3.2-3.6zm22.4 4.8c-.2 1.5-1.2 2.2-3.3 2.4l-3 .3 2.3-1.6c2.1-1.6 2.2-1.8.8-3.4-2.2-2.4-.7-3.5 1.6-1.4 1 .9 1.8 2.6 1.6 3.7zm20.7-3.8c1.2 1.2 1.5 3.1 1.3 7-.4 7.1-2.2 7-2.6-.1-.2-3-.7-5.5-1.2-5.5-.6 0-1-.7-1-1.5 0-2 1.4-1.9 3.5.1zm12.1-.5c.3.6.1 1.6-.5 2.2-1.4 1.4-1.4 11.4 0 12.3.8.5.6 1-.5 1.6-.9.5-2.1.6-2.6.3-1.1-.7-1.4-15.8-.3-16.8 1-1.1 3.1-.8 3.9.4zm10.5 5.7c-.2 4.1.1 6.8 1 7.8 1 1.3 1 1.7-.2 2.5-2.6 1.6-3.2.3-3.3-6.7-.1-3.8-.5-7.7-1-8.7-.7-1.6-.5-1.8 1.5-1.5 2.3.3 2.4.6 2 6.6zm11.7.3c.2 3.5.7 6.8 1.3 7.3 1.5 1.6 1.1 2.6-1.1 2.6-1.8 0-2-.7-2-6.3 0-3.4-.4-6.9-.9-7.7-1.1-1.7-.4-3.3 1.2-2.7.7.2 1.3 3 1.5 6.8zm23.2-1.4c0 1.8-.5 2.3-2.7 2.3-2.5 0-2.5-.1-.9-1.9 1.5-1.6 1.5-2 .1-3.1-.8-.7-1.2-1.7-.9-2.2 1-1.5 4.4 2.3 4.4 4.9zm30-4.7c0 .5-1.3 1-2.9 1-3.7 0-4.8 1.5-5.2 6.7-.2 3 .2 4.8 1.5 6.2 1.9 2.1 1.9 2.1-1 2.1h-2.9v-15.9l4-.4c2.2-.2 4.6-.4 5.3-.5.6-.1 1.2.2 1.2.8zm9.1-.3c.5 4.2.3 16.6-.3 16.9-.4.3-1.5.1-2.4-.4-1.1-.6-1.3-1.1-.5-1.6 1.4-.9 1.4-10.9 0-12.3-.6-.6-.8-1.6-.5-2.2.8-1.2 3.5-1.5 3.7-.4zm21 .6c-.1 1.2-1.5.9-1.9-.4-.3-.6.1-1 .8-.8.6.3 1.1.8 1.1 1.2zm-485.8 1.9c1.2 1.9.3 4.8-1.6 4.8-.8 0-1.3-1.3-1.3-3.5 0-3.6 1.2-4.1 2.9-1.3zm33.3 2.5c-.4 7.3.6 9 5.6 10.1l4.3.9-3.9.8c-3.7.7-4.2.5-6.9-2.5-2.6-2.9-2.9-3.8-2.3-7.7.6-4.8 1.2-6.3 2.5-6.3.5 0 .8 2.1.7 4.7zm11.9-1.1c0 2.5-.4 2.9-3 3.2-2.5.2-2.7.1-1.2-.8.9-.6 1.7-2.2 1.7-3.6 0-1.6.5-2.4 1.3-2.2.6.3 1.2 1.8 1.2 3.4zm200.9-1.2c-.3 1.3-.1 2.7.6 3.1.8.5.8 1.1-.1 2.1-2.2 2.7.4 6.3 5.3 7.1l4.3.7-3.9.8c-4.9 1-8.1-.8-9.1-5.2-.9-4.3.3-11 2.1-11 1 0 1.3.7.8 2.4zm11.9-.2c1.2 1.9.3 4.8-1.6 4.8-.8 0-1.3-1.3-1.3-3.5 0-3.6 1.2-4.1 2.9-1.3zm6.7.3c.6 1.6 1.7 2.5 3.1 2.5 2.4 0 8.9 3.7 8.9 5 0 .5-.3 1.5-.6 2.4-.5 1.3-1.1 1-3.4-1.4-1.6-1.8-3.8-3-5.2-3-3.3 0-6.2-3.2-5.3-5.9.8-2.7 1.3-2.6 2.5.4zm29.8.7c-.2 2-.9 3.4-1.9 3.6-1.2.2-1.4-.5-1.1-3.3.6-4.7 3.5-5 3-.3zm61.5-2.5c-2.1.8-1.6 9.6.7 12.6 2.7 3.4.7 4.6-2.5 1.5-1.9-1.8-2.5-3.3-2.5-6.7 0-4.4 2.1-8.2 4.4-8 .6 0 .6.3-.1.6zm139.7 4.6c4.4 1.1 6 2.4 6 4.8 0 2.5-1.7 2.4-3-.1-.7-1.3-2.1-2-3.8-2-3.3 0-5.2-1.6-5.2-4.5 0-3.1 1.4-4.1 2-1.4.4 1.6 1.6 2.6 4 3.2zm-405.3 1.3c-.1 4.3.3 5.9 1.6 6.9 1.7 1.2 2.3 3.5 1 3.5-.4 0-1.7-1-3-2.2-1.8-1.7-2.3-3.2-2.3-7.3 0-2.8.3-5.5.7-5.8 1.6-1.7 2.1-.3 2 4.9zm192.4-2.9c.1 1.6 0 3.8-.1 5.1-.2 3.3 1.5 4.9 6.3 5.8 3.8.7 4 .8 1.7 1.5-4.2 1.2-5.6 1-8.3-1.4-2.3-1.9-2.7-3.1-2.7-7.3 0-2.8.3-5.4.7-5.7 1.4-1.4 2.3-.6 2.4 2zm29.9 1.2c0 2.1.6 3 2.2 3.4 1.8.5 1.9.8.8 2.2-1.2 1.5-1.4 1.5-2.4-.2-.5-1-1.6-2.3-2.4-2.9-1-.7-1.3-1.9-.8-3.8.8-3.4 2.6-2.5 2.6 1.3zm163.3 7.8c.4.7 2.4 1.5 4.5 1.9 3.5.7 3.5.8 1.2 1.5-4 1.1-4.5 1-7.3-1.4-2.3-1.9-2.7-3.1-2.7-7.4 0-7.1 2.3-7.8 3-.9.3 2.8.9 5.6 1.3 6.3zm-316.3-6c0 1.9.9 4.8 2 6.3 1.9 2.7 1.6 4.6-.6 3.2-3.5-2.4-5.4-8.5-3.8-12.6 1-2.6 2.4-.8 2.4 3.1zm175.3-1.9c1.3 1.4 1.4 2.1.5 3-2.2 2.2.9 6 5.6 6.8l4.1.7-3.8 1c-2.8.7-4.2.6-5.4-.4-3-2.6-5-6.8-4.5-9.9.5-3.5 1.2-3.7 3.5-1.2zm78 0c1.3 1.4 1.4 2.1.5 3-2.2 2.2.9 6 5.6 6.8l4.1.7-3.9 1c-3.7.9-4.1.8-6.8-2.2-2.1-2.3-2.8-4.2-2.8-7.1 0-4.4.8-4.9 3.3-2.2zm-245.3 2.3c0 1.8-.2 1.9-1.5.9-1.5-1.2-1.2-3 .6-3 .5 0 .9 1 .9 2.1zm-69.2.1c-.3.7-1.1 1.3-1.8 1.3s-1.5-.6-1.7-1.3c-.3-.7.4-1.2 1.7-1.2 1.3 0 2 .5 1.8 1.2zm96.2-.2c1.4.7 1.8 2.1 1.8 5.5 0 2.5-.4 4.7-.9 5.1-1.6 1-5.8-4.9-5.9-8.4 0-3.4 1.5-4.1 5-2.2zm9 1.5c0 .8-.7 1.5-1.6 1.5-1.4 0-1.4-.3-.4-1.5.7-.8 1.4-1.5 1.6-1.5.2 0 .4.7.4 1.5zm-151.7 3.5c.3 1.2 1.4 2 2.6 2 2.4 0 2.8 1.8.6 2.7-2 .7-5.5-2.4-5.5-4.9 0-2.4 1.6-2.3 2.3.2zm-31.3 2.5c1.1 1.3.8 1.5-1.9 1.5-3 0-3.9-.9-2.4-2.3 1.1-1.1 3-.8 4.3.8zm165 0c1.1 1.3.8 1.5-1.9 1.5-3 0-3.9-.9-2.4-2.3 1.1-1.1 3-.8 4.3.8zm79 1.1c0 1.6-1.6 1.9-2.5.4-.8-1.3.4-3.2 1.6-2.5.5.4.9 1.3.9 2.1zm61.3-.4c1.7.9 2.2 4.2 1.1 7.2-1.1 2.8-2.4 1.7-2.4-1.9v-3.5h-6c-5.2 0-6-.3-6-1.8 0-1.6.7-1.8 5.8-1.4 3.1.2 6.5.9 7.5 1.4zm-253.5-.1c-.2.6-.8 1-1.3 1s-1.1-.4-1.3-1c-.2-.6.4-1.1 1.3-1.1s1.5.5 1.3 1.1zm133.3 3c1.4 1.4 1.9 2.8 1.5 4.2-.3 1.2-.6 3.4-.6 5 0 2-.7 3-2.5 3.7-2.8 1.1-3.1 2-1.3 3.8 1.4 1.4.9 2.1-2.2 2.4-3.3.4-3.7-2.4-1-6.2 1.6-2.3 2.1-4.3 2-7.8-.4-8.1.2-9 4.1-5.1zm106.8 6.1c.1 1-.4 1.8-.9 1.8-1.6 0-2.3-2.7-1.5-5.8l.8-2.7.7 2.5c.5 1.4.8 3.3.9 4.2zm-190.6-2.1c4.1 1.1 7.3 4.9 6.3 7.5-.9 2.4-9.3 1.4-13.3-1.6-2-1.4-3.9-2.1-5.3-1.7-4 1-8.6-2.3-6.3-4.6 1-1.1 14.4-.8 18.6.4zm28.7 2.5c0 .9-.7 1.4-1.7 1.2-2.5-.5-2.8-2.8-.4-2.8 1.2 0 2.1.6 2.1 1.6zm-188 5.9c0 .3-1.5 1.1-3.4 1.9-2.6 1.1-4.1 1.1-7 .2-5.5-1.7-4.3-2.6 3.4-2.6 3.9 0 7 .2 7 .5zm269.4 5.5c1 3.4 1.5 6.4 1.1 6.8-.4.4-1 .1-1.2-.6-.3-.8-2.5-1.2-6.3-1.2-7.3 0-9-.6-9-3.5 0-3.1 1.9-4.4 7.1-4.9 2.4-.3 4.5-.9 4.7-1.5.8-2.3 1.8-.9 3.6 4.9zm-253-4.1c.3.5.7 7.3.8 15.2.1 12.9 0 14.4-1.5 14.4-.9 0-1.7-.3-1.7-.8v-15.2c0-13.1.6-16.5 2.4-13.6zm125.6 4.5c0 1.9-.4 3.8-1 4.1-.6.3-1-.5-1-1.9 0-1.3-.3-3.1-.6-4-.4-1.1-.1-1.6 1-1.6 1.2 0 1.6.9 1.6 3.4zm361.1-2.1c-.1.4-.1 1.7-.1 2.9 0 1.9-.2 2-1 .8-1.3-2-1.3-5.3.1-4.8.6.2 1 .7 1 1.1zm-468.5 1.9c-.3 1.3-.6 2.7-.6 3.1 0 .4-1.7.5-3.7.1-7.5-1.3-9.6-4-2.8-3.6 1.8.1 3.6-.2 4-.8.3-.5 1.3-1 2.2-1 1.1 0 1.4.6.9 2.2zm245.7.9c-1.7 1.7-3.7.1-2.2-1.7.8-1 1.5-1.2 2.3-.4.7.7.7 1.3-.1 2.1zm-275.8 3.9c-.3 1 .1 2.4.8 3.2 1.2 1.1 1.2 1.6 0 2.6-.7.7-1.3 3.3-1.3 6.1 0 3.9.4 5.2 2.3 6.4 2 1.4 2 1.6.4 2.2-3.2 1.3-4.7-1.3-4.7-8.1 0-3.6-.4-6.4-1-6.4-.5 0-1-.7-1-1.5s.5-1.5 1-1.5c.6 0 1-1.1 1-2.3 0-1.3.3-2.7.6-3 1.2-1.2 2.5.4 1.9 2.3zm56.9-2.2c.8 1.3.9 7.1.1 12.9-.5 4.5-.4 5.4 1.6 7.2 2 1.8 2 2.1.6 2.7-3.7 1.4-4.7-.2-4.7-7.4 0-4.1-.5-7.3-1.2-8.1-1-1.1-1-1.4 0-1.8.6-.3 1.2-1.8 1.2-3.4 0-2.8 1.3-3.9 2.4-2.1zm270.6 2.7c0 1.8.7 2.6 2.8 3.2l2.7.7-2.5.6c-2.3.5-2.5 1.1-2.8 6.3-.3 5.4-.2 5.8 2.5 6.8l2.8 1.1-2.3 1.1c-3.7 1.7-5.6-1.1-5.8-8.5-.2-7.6.5-13.8 1.7-13.8.5 0 .9 1.1.9 2.5zm-189.8 5.9c-.2 2-.7 4.7-1.2 5.9-.6 1.6-.9.6-.9-4.1-.1-4.7.2-6.3 1.2-5.9.7.2 1.1 1.8.9 4.1zm63.2-1.2c-.3.4-1.6.5-2.9.2-2.2-.5-2.4-.2-3.1 4.2-.4 2.8-.3 6 .3 7.5 1.2 3-.2 4.4-3.2 3.3-1.1-.5-1.2-1-.4-2.6.6-1.1.9-4.8.7-8.2l-.3-6.1h3.2c1.8-.1 3.5-.4 3.9-.8.9-.9 2.5 1.4 1.8 2.5zm299 1.9c-2.9 5.7-.4 11.8 4.9 12 2.1.1 2 .1-.4 1-3.5 1.3-8.4-.5-7.5-2.7.3-.9.6-4.7.6-8.5 0-6.6.1-6.9 1.9-5.7 1.8 1.1 1.8 1.4.5 3.9zm-539.4-3.4c.6 18 .6 18.3-2.6 16.5-1.1-.6-1.3-1.1-.5-1.6 1.5-1 1.5-12.3-.1-12.8-.6-.2-.8-1-.4-1.6.8-1.3 3.6-1.7 3.6-.5zm10 2.7c0 1.8.7 2.5 3.2 3 3.2.6 6.8 3.2 6.8 4.8 0 1.4-3.8.9-4.4-.7-.3-.8-1.6-1.5-3-1.5-4.3 0-5.6-1-5.6-4.4 0-1.8.3-3.6.6-3.9 1.2-1.1 2.4.3 2.4 2.7zm54.5 2.3c.3 3.2.8 7.1 1 8.6.4 2.5.2 2.8-1.7 2.5-2-.3-2.2-.8-1.9-6.4.1-3.6-.2-6.5-.8-6.9-1.8-1.1-1.2-3.5.8-3.5 1.6 0 2.1.9 2.6 5.7zm20.6 2.9c.3 4.3.1 8.3-.3 8.8-1.7 2-2.7-1.1-2.8-8.4-.2-9.5-.2-9.2 1.3-8.8.7.3 1.4 3.3 1.8 8.4zm62.7-1.1c.2 3.8.8 7.5 1.4 8.2.8 1 .5 1.3-1.6 1.3h-2.6v-8.6c0-6.4.3-8.5 1.3-8.2.7.3 1.3 3 1.5 7.3zm20.3-6.2c-.1 1.2-1.5.9-1.9-.4-.3-.6.1-1 .8-.8.6.3 1.1.8 1.1 1.2zm20.7-.1c.5.7 1.2 4.7 1.3 8.8.3 6.1.1 7.5-1.1 7.5-1.2 0-1.6-1.5-1.8-6.7-.2-4.3-.8-7.1-1.7-7.8-.8-.7-1.5-1.6-1.5-2.1 0-1.4 3.6-1.1 4.8.3zm35.3 4c1 3.2 1.1 4.2.1 4.6-.7.2-1.2 1.2-1.2 2.1 0 2.1-1 3.2-2.1 2.5-.5-.2-.3-1.6.3-2.9.8-1.8.7-3.3-.5-6.3-.9-2.2-1.3-4.2-1-4.5 1.2-1.3 3.1.7 4.4 4.5zm36.5-4.1c.3.6.2 1.4-.4 1.8-.5.3-1.2 1.6-1.3 2.9-.7 3.9-2.4 2.9-2.7-1.6-.3-3.6 0-4.2 1.7-4.2 1.1 0 2.3.5 2.7 1.1zm19.2 6.4c.2 3.8.8 7.5 1.5 8.3.9 1.1.6 1.3-1.3 1-2.2-.3-2.5-.8-2.2-3.7.1-1.8-.2-3.9-.8-4.6-.7-.9-.8-1.5-.1-1.9.6-.4.8-2.1.4-3.8-.5-2.4-.3-3 .8-2.6 1 .3 1.5 2.5 1.7 7.3zm12 1.2c-.2 7-.6 8.8-1.8 8.8-1.2 0-1.4-1.3-1.2-7.1.3-4.8 0-7.4-.8-7.9-.9-.6-.9-1 .1-1.6 3.5-2.2 4-1.1 3.7 7.8zm12.2-1.8c0 3.8.3 7.7.6 8.6.5 1.1 0 1.8-1.5 2.2-1.1.3-2.1 1.1-2.1 1.8 0 .9 2.3 1.5 7 2 7.7.8 7.1.1 7.6 9.5.2 6 3 16.1 4.6 17.1.7.5 2.3.9 3.4.9 1.2 0 2.7.6 3.3 1.4.7.8 2.3 1.7 3.6 2 3.8 1 2.9 2.6-1.4 2.6-2.3 0-4.8-.8-6.4-2-3.2-2.6-3.9-2.5-6.7.5-3.3 3.6-6.1 3.3-5.8-.4.4-3.8-1.3-4.2-3-.8-1.5 3.1-7 5.1-11.2 4.2-3.5-.8-3.4-.5-1.5-4.1.8-1.6 1.5-4.1 1.5-5.6 0-3.8-4.5-7.8-8.9-7.8-3 0-3.3-.2-2.6-2.3.4-1.2.9-4.8 1.2-8 .6-6.3 2.1-7.7 8.2-7.7 4.7 0 6.1-2.6 6.4-12.3.2-7.5.4-8.7 2-8.7 1.4 0 1.7 1 1.7 6.9zm11.5 2.1c0 6.9-.3 8.5-1.5 8.5s-1.5-1.4-1.5-7c0-3.9-.3-7.5-.7-8.1-1-1.4.2-2.6 2.2-2.2 1.2.3 1.5 1.9 1.5 8.8zm21.5-8.4c0 1-6.2 8.7-8.3 10.5-1.2 1-1.8 2.3-1.4 3.3.8 2-3 4.3-4.6 2.7-.7-.7.1-2.2 2.6-5 2-2.2 4.8-5.8 6.3-8.1 2.3-3.4 5.4-5.4 5.4-3.4zm18.8 2.1c1.7 4.3 2.1 14.3.7 14.3-2.5 0-3.7-2.7-2.3-5 1.1-1.8 1.1-2.3-.6-3.2-1.9-1.1-1.9-1.1 0-2.5 1.8-1.3 1.8-1.5.2-2.7-2.1-1.6-2.4-3.6-.4-3.6.7 0 1.8 1.2 2.4 2.7zm26 5.7c.3 8.4-.5 10.4-3.3 8.8-1.2-.6-1.4-1.1-.6-1.6 1.4-.9 1.4-10.9 0-12.3-1.5-1.5-.2-3.5 1.9-3.1 1.4.3 1.8 1.8 2 8.2zm22.6-6.5c1.2 1.4 1.6 3.2 1.4 6.7-.4 6.6-2.8 7.2-2.8.6 0-3.2-.5-5.4-1.5-6.2-1.4-1.2-1.2-3 .4-3 .4 0 1.6.9 2.5 1.9zm10.9 7.1c0 7.5-.2 8.5-1.8 8.5s-1.8-.9-1.7-8.5c.1-4.7.1-8.6.2-8.8 0-.2.7-.2 1.6 0 1.4.2 1.7 1.7 1.7 8.8zm11.5-2c.2 3.6.8 7 1.4 7.8.9 1 .8 1.6-.2 2.2-2.4 1.5-3 .1-3-6.3 0-3.4-.4-6.9-.9-7.7-1.1-1.7-.4-3.3 1.2-2.7.7.2 1.3 3 1.5 6.7zm23.8-5.9c.3.6-.1 1.8-1 2.7-1.5 1.5-1.7 1.5-3.2 0-1.9-1.9-1.1-3.8 1.6-3.8 1 0 2.2.5 2.6 1.1zm10.1 0c1 1 .7 4.9-.4 4.9-1 0-4.1-4.5-3.6-5.2.6-1.1 2.7-1 4 .3zm11.6 1.2c1.5 2.4 2.8 14.7 1.5 14.7h-1.7c-.5 0-.7-2.7-.4-6.1.5-5.4.4-6.2-1.6-7.5-1.1-.8-2.1-1.9-2.1-2.5 0-1.8 2.8-.9 4.3 1.4zm33.6-1.4c1 .6 1 1 .1 1.6-.8.5-1.1 3.1-.8 7.9.3 6.4.1 7.1-1.6 7.1-1.7 0-1.9-.8-1.8-8.3 0-4.5.1-8.4.1-8.7.1-.8 2.5-.6 4 .4zm11.1 0c1.8.5 2.1.9 1.2 1.5-1 .6-1.3 2.8-1 8 .3 7 .1 7.4-2.9 6.8-.5-.1-.6-3.2-.5-6.8.3-5.2 0-7-1.4-8.5-1.6-1.8-1.6-1.9.2-1.8 1 .1 3 .4 4.4.8zm12.1 7.6c.3 4.4.2 8.4-.2 8.9-1.7 2-2.9-1-2.9-7.4 0-3.8-.4-7.2-1-7.5-1.8-1.1-1-2.6 1.3-2.3 2 .3 2.2 1 2.8 8.3zm22.3-6.9c1.6 1.5 2.1 6.9 1 9.8-1.1 2.8-2.4.6-2.4-3.9 0-2.9-.5-4.5-1.5-4.9-.8-.3-1.5-1-1.5-1.6 0-1.5 2.7-1.2 4.4.6zm22 4.7c-.3.9-1.5 1.7-2.5 1.7-1.6 0-1.8-.3-.9-1.9.7-1.3.7-2.2 0-2.6-.5-.3-1-1.4-1-2.3 0-1.3.5-1.1 2.5.9 1.7 1.6 2.4 3.1 1.9 4.2zm9.9 2.7c0 7.5-.2 8.5-1.8 8.5s-1.8-1-1.7-8.3c0-4.5.1-8.5.1-8.8.1-.3.8-.4 1.7-.2 1.4.2 1.7 1.7 1.7 8.8zm5.7-8c0 .5-.7 1-1.5 1s-1.5-.5-1.5-1c0-.6.7-1 1.5-1s1.5.4 1.5 1zm-470.9 3.2c.3 10.9-.1 10.2 5.4 11.4l5 1-4.4.8c-3.7.6-4.7.3-6.7-1.5-2-1.9-2.4-3.3-2.4-7.9 0-3.1.3-6 .7-6.3 1.4-1.5 2.3-.5 2.4 2.5zm11.7.6c.3 2.7 0 3.2-1.8 3.2-1.6 0-2-.4-1.6-1.6.3-.9.6-2.5.6-3.6 0-3.2 2.5-1.5 2.8 2zm80.6-2.3c-.4.8-1 1.5-1.5 1.5s-.9-.7-.9-1.5.7-1.5 1.5-1.5c.9 0 1.2.6.9 1.5zm273.1 3.7c-.4 7 .7 8.6 5.8 9.5l4.2.7-3.8.8c-2.3.5-4.6.4-5.8-.2-3.6-2-6.4-10-3.9-11.5.6-.3 1-1.5 1-2.6 0-1 .6-1.9 1.4-1.9 1 0 1.3 1.3 1.1 5.2zm11.8-3.1c1.4 2.3.2 4.9-2.3 4.9-1.8 0-1.9-.3-1-2.1.9-1.5.8-2.4-.1-3.6-1.1-1.3-1.1-1.5.5-1.2 1 .2 2.3 1.1 2.9 2zm66.1-.6c-.4.8-1 1.5-1.5 1.5s-.9-.7-.9-1.5.7-1.5 1.5-1.5c.9 0 1.2.6.9 1.5zm-170.4 4.9c0 3.5.5 5.8 1.5 6.6 1.5 1.3 2.1 4 .8 4-.4 0-1.7-1-3-2.2-3.2-3-3.4-13.8-.1-13.8.4 0 .8 2.4.8 5.4zm-234-.9c0 5.2 2.4 8.2 7.1 9 4.7.8 4.7 1-.4 1.9-3.3.6-4.1.3-6.7-2.3-2.3-2.3-3-3.9-3-6.9 0-2.1.3-4.2.7-4.5 1.5-1.5 2.3-.5 2.3 2.8zm90-.3c0 3-.1 3.1-1.6 1.6-.9-.9-1.4-2.4-1.1-3.2 1.1-2.7 2.7-1.7 2.7 1.6zm-39 1.1c0 1.2 1.1 3.9 2.5 6 2.5 3.6 2.5 3.7.5 3.7-2.4 0-6.1-7-5.3-10.1.7-2.6 2.3-2.4 2.3.4zm352.4-1.7c1.8.7 2.1 3.1.5 3.6-.7.2-.7 1.2.2 3 .9 2 2.2 2.8 5.3 3.4l4.1.7-3 .8c-1.6.5-3.8.6-4.7.3-2.7-.8-5.8-5.9-5.8-9.3 0-3.1.6-3.6 3.4-2.5zm-261.8 2.8c.8 3.4.1 6.1-1.6 6.1-1.6 0-2.6-4.5-1.6-7.1.8-2.2 2.5-1.7 3.2 1zm10.1 3.8c-.2 1.3-.4.3-.4-2.2s.2-3.5.4-2.3c.2 1.3.2 3.3 0 4.5zm-58.9-.5c-.3 2.7-.1 2.8 4.7 3.3 6.1.6 7.5 1.5 7.5 4.3 0 3.4-1.1 6.7-2.2 6.7-.6 0-.7-.7-.4-1.6.3-.8.3-2.6 0-4-.6-2.2-1.1-2.4-6.6-2.4h-6l.6-3.1c.3-1.7.6-3.8.6-4.5 0-.8.5-1.4 1-1.4.6 0 .9 1.2.8 2.7zm96.2-.1c0 1.5.8 3.3 1.8 4 1.6 1.2 1.6 1.3-.1 1.9-.9.4-2.4.2-3.2-.5-1.5-1.3-2.1-6.1-.8-7.3 1.3-1.4 2.3-.6 2.3 1.9zm-272.7.4c-.4 1.5.2 2.2 2.3 3 2.1.8 2.5 1.3 1.5 2.3-2.2 2.2-7-2.5-5.8-5.7.9-2.3 2.6-2 2 .4zm68.1 4.1c1.2 1.1-1.9 2.3-3.9 1.5-.8-.3-1.5-1.3-1.5-2.1 0-1.2.6-1.5 2.3-1 1.2.4 2.6 1.1 3.1 1.6zm36.3-.5c.5 1.5-2 2.4-3.7 1.4-.7-.4-.9-1.3-.5-1.9.8-1.4 3.7-1.1 4.2.5zm95.7.5c1.2 1.1-1.9 2.3-3.9 1.5-.8-.3-1.5-1.3-1.5-2.1 0-1.2.6-1.5 2.3-1 1.2.4 2.6 1.1 3.1 1.6zm176.3-.5c.5 1.5-2 2.4-3.7 1.4-.7-.4-.9-1.3-.5-1.9.8-1.4 3.7-1.1 4.2.5zm12.1.1c.2.8-.5 1.3-1.7 1.3s-2.1-.6-2.1-1.6c0-1.8 3.1-1.5 3.8.3zm-125.5 1.4c-.6.6-1.8.6-2.8.3-1.8-.7-1.8-.8.1-1.4 2.3-.9 3.9-.1 2.7 1.1zm-238.2 4.9c3.2 0 5.2.9 9.7 4.4 6.8 5.1 11.3 7.6 14.2 7.6 1.1 0 4.2 1.1 6.8 2.4 6.1 3 10.7 4.5 15.8 5 2.2.2 6.3 1.5 9 2.9 2.8 1.4 8.6 3.5 12.8 4.6 4.3 1 8.5 2.6 9.4 3.4.9.8 2.6 1.7 3.7 2.1 1.6.6 1.7.9.5 1.6-1.8 1.1-41.7 1.2-61.5.1-13.4-.7-14.3-.9-20-4.1-3.3-1.9-6.6-4-7.3-4.7-.7-.7-2-1.3-2.8-1.3-.8 0-3.1-1.6-5.3-3.5-2.1-1.9-4.3-3.5-4.8-3.5-.6 0-2.8-1.9-5-4.3-2.1-2.3-4.8-4.7-5.8-5.3-1.7-.9-1.6-1.2 1.1-4.2 2.8-3.2 3.2-3.3 12.3-3.6 5.1-.3 9.8-.9 10.4-1.5.8-.8 1.3-.7 2 .4.5.9 2.3 1.5 4.8 1.5zm148.9 2.8c0 1.5-.5 2.2-1.2 2-1.6-.6-2.2-3.3-1.3-5.6.5-1.4.7-1.4 1.5-.2.6.8 1 2.5 1 3.8zm24.8-1.6c.7.7 1.2 2.1 1.2 3.2 0 1.8-.1 1.9-2 .1-2-1.8-2.7-4.5-1.2-4.5.4 0 1.3.5 2 1.2zm-268.4 1.4c.9 2.3.7 7.7-.3 9.3-1.3 2.1-2.1-.1-1.8-5.8.2-5.1 1-6.4 2.1-3.5zm342.4 7.1c-1 .2-2.8.2-4 0-1.3-.2-.5-.4 1.7-.4 2.2-.1 3.2.1 2.3.4zm45.9 6c-2 .2-5.2.2-7 0-1.7-.2 0-.4 3.8-.4 3.9 0 5.3.2 3.2.4zm25.6 3.5c-1.5.7-4 .7-8 .1l-5.8-1 8-.1c6.3-.1 7.5.2 5.8 1zm21.2 1.7l4 .7-4.2.8c-5 .9-14.2-.2-12.2-1.5 1.7-1.1 7-1.1 12.4 0zm29.9 4.1c.9 1-1.2 1.1-9.3.7-6.1-.3-10.8-1-11.5-1.7-.9-1 1.2-1.1 9.3-.7 6.1.3 10.8 1 11.5 1.7zm16 1.6c3.1.5 4.3 1 3.4 1.5-2.5 1.7-16.8.6-16.8-1.2 0-1.1 6.8-1.2 13.4-.3zm-141.1 7.1c-1.3.2-3.3.2-4.5 0-1.3-.2-.3-.4 2.2-.4s3.5.2 2.3.4zM372.1 135c-6.8 1-9 2.2-11.9 6.5-3.3 4.7-2.6 6.8 2.6 7.8 2.4.5 4.6 1.5 4.9 2.4 1 2.5 4.5 3.2 8.3 1.6 2.3-.9 3.6-1 3.8-.3 1.2 3.6 8.7-3.1 9.5-8.6.6-3.4.3-4.4-1.6-6-2.5-2.3-7.2-4.5-9-4.3-.7.1-3.6.5-6.6.9zm7 8.7c3.2 1.9 3.9 5.3 1.2 5.3-1 0-4-.6-6.7-1.3l-4.9-1.3 2.8-2.2c3.3-2.6 3.9-2.7 7.6-.5zM339.1 169.4c-1.7 2 0 5.6 4.8 9.9 4.7 4.2 7 4.6 9.7 1.6 1-1.2 3.4-2.8 5.2-3.6 2.6-1.1 3.3-1.9 3-3.6-.3-2-.8-2.2-5.7-1.9-4.3.2-6.1-.2-8.2-1.8-3.2-2.3-7.1-2.6-8.8-.6zM329.5 185.1c-1.6.5-3.6.7-4.3.4-1-.4-.8.4.5 2.6 1.1 2 3.2 3.7 5.4 4.5 5.1 1.7 22.2 2.8 31.4 1.9 7-.6 7.6-.8 7.3-2.8-.3-2-1.3-2.3-16.3-3.8-8.8-.9-17.1-2.1-18.5-2.6-1.5-.6-3.7-.7-5.5-.2zM337 200c0 .6 1.5 1.9 3.3 3 4.9 3 17.7 2.4 17.7-.9 0-.4-4-1.3-8.9-1.9-10.8-1.5-12.1-1.5-12.1-.2zM250.6 271.5c1.4 1.4 3.1 2.2 4 1.8.8-.3 2.1.3 3 1.3 1.4 1.8 1.5 1.8 1.2-.1-.2-1.2-1.2-2.1-2.5-2.3-1.2-.2-2.7-1-3.3-1.8-.7-.8-2.1-1.4-3.1-1.4-1.6 0-1.5.3.7 2.5zM226.5 293.5c-1.9 1.5-1.9 1.5 1 1.3 1.7-.2 2.9-.7 2.8-1.3-.3-1.6-1.8-1.6-3.8 0zM50.2 338.2c.7 1.9 3.8 2.2 3.8.4 0-1-.9-1.6-2.1-1.6-1.2 0-1.9.5-1.7 1.2zM67.2 338.7c.2 1 1.3 1.9 2.6 2.1 1.7.3 2.2-.2 2.2-1.7 0-1.6-.6-2.1-2.6-2.1-1.9 0-2.5.5-2.2 1.7zM45.2 351.2c-1.7 1.7-1.5 3.8.3 3.8.8 0 1.5-.4 1.5-.9s.3-1.6.6-2.5c.7-1.9-.7-2.1-2.4-.4zM69.8 354.7c-1.9.5-2.4 2.8-.8 3.8 1.3.8 5.2-1.4 4.7-2.8-.4-1.3-1.6-1.6-3.9-1z"/></svg>