<svg xmlns="http://www.w3.org/2000/svg" viewBox="0, 0, 640, 1006"><path d="M106.667 2.664c0 1.918 2.346 2.984 6.506 2.984 7.894 0 7.254-4.263-.853-5.222-3.733-.533-5.653.32-5.653 2.238zm83.733.64c-3.52 3.836-3.413 4.582 1.6 5.861 4.373 1.065 5.547-1.705 2.667-6.288-1.174-1.705-2.347-1.598-4.267.427zm260.693 6.607c.854 5.328 2.134 11.296 2.774 13.108 1.066 2.877.533 2.877-3.84-.214-5.44-3.836-18.027-4.902-19.947-1.705-.64.96 1.707 2.451 5.227 3.091 7.146 1.492 16.96 10.763 16.96 16.092 0 2.984-4.267 3.41-34.134 3.41-32.106 0-39.786-1.066-29.866-4.263 4.373-1.385 5.973-5.328 2.24-5.328-1.174 0-7.04 2.024-13.227 4.369-10.347 4.156-16.32 4.476-90.24 5.115-43.413.32-92.8.746-109.547.959-17.6.107-30.08 1.066-29.333 2.132.64 1.172 43.627 1.492 103.893.746l102.827-1.173-5.653 7.46c-6.4 8.312-9.067 18.117-7.04 26.109 1.706 6.821 21.226 26.749 26.24 26.749 2.133 0 6.506 1.385 9.706 3.09 3.627 1.812 8.747 2.558 13.334 1.812 7.36-1.172 7.466-1.172 7.466 6.714s9.174 26.748 13.014 26.748l3.413.107c.747.106 4.053-6.821 7.147-15.453 6.933-18.862 13.013-23.977 22.08-18.01 6.613 4.263 6.72 6.181 1.386 26.856-2.346 8.738-3.84 16.304-3.413 16.731 2.133 2.131 19.307-4.902 25.707-10.551l7.466-6.5 5.867 3.943c3.2 2.131 8.533 4.902 11.733 6.074 3.307 1.279 7.467 5.329 9.6 9.591 5.014 9.805 16.107 17.051 26.454 17.051h8.213l-4.267 4.263c-4.373 4.369-5.546 13.854-2.346 18.862 1.706 2.665 4.053-2.024 9.493-18.862.533-1.812 1.173-.64 1.173 2.558.214 5.115 5.12 10.23 9.814 10.23 2.346 0-1.494-9.485-4.587-11.296-4.587-2.664-3.413-6.714 3.52-11.829 3.52-2.558 6.4-6.607 6.4-8.952 0-2.238 1.28-4.156 2.88-4.156 2.667 0 16.32 4.263 16.32 5.009 0 .213.853 3.303 1.92 6.927 2.133 7.566-2.56 20.034-7.467 20.034-3.84 0-20.053 14.6-20.053 18.117 0 5.435-9.6 9.698-14.293 6.394-2.347-1.599-9.174-3.623-15.147-4.369-11.52-1.599-17.707-5.648-13.013-8.526 1.6-1.065 2.026-.746 1.066.853-.96 1.598.107 2.451 2.987 2.451 6.293 0 4.8-7.353-1.6-7.673-8.64-.426-9.92 4.369-3.627 13.854 6.4 9.697 18.88 14.919 26.24 11.083 7.36-4.05 12.374-2.132 11.414 4.263-1.28 8.525 3.2 20.141 10.346 26.961 4.8 4.369 6.294 7.78 6.294 13.747 0 4.263.96 8.419 2.133 9.165 1.387.853.96 2.984-1.067 5.968-4.693 6.714-3.946 9.591 3.734 14.28 11.626 7.14 14.293 5.968 11.84-5.435-2.56-11.935.213-16.411 9.813-15.452 5.76.533 6.827 1.705 8.427 9.165 1.066 4.689 4.48 14.28 7.68 21.313l5.866 12.788.32 95.911c.427 159.852 2.987 453.873 3.84 454.938.427.427.534-113.388.214-253.098-.32-139.711.213-254.058 1.066-254.058.854 0 1.6 114.134 1.6 253.632 0 167.631.747 253.631 2.134 253.631 1.386 0 2.133-84.828 2.133-250.221v-250.328l7.467 2.131c9.493 2.558 11.84 1.066 11.413-7.353-.213-4.689-.533-5.435-1.173-2.238-1.814 9.165-14.507 7.673-16.534-2.025-5.226-23.871 2.24-45.824 12.16-35.913 4.16 4.156 4.907 2.877 5.44-8.525.427-11.297-3.306-18.863-9.493-18.863-4.587 0-3.307 4.796 2.56 9.485 7.467 5.967 5.227 11.829-4.373 11.829h-7.147l-.64-26.109-.747-26.11 10.134-9.697c8.32-7.993 10.133-10.977 10.026-17.051l-.106-7.353-3.627 5.222c-12.8 18.436-18.667 21.633-16.427 8.845.854-5.116.534-8.845-.96-9.698-1.493-.959-2.24 2.558-2.24 10.444 0 19.182-3.626 13.534-5.12-7.886-2.56-36.553-2.56-36.127 1.067-38.471 6.933-4.37 13.76 0 19.413 12.255 6.614 14.706 8.107 13.321 8.107-7.673 0-18.116-1.813-20.887-15.573-24.297l-5.974-1.492 1.387-18.65c1.493-19.075.32-27.707-3.733-27.707-1.6 0-1.92 7.246-1.067 23.445.747 14.28.427 23.018-.747 22.272-1.173-.639-2.24-10.976-2.453-22.912l-.427-21.74-1.173 20.035c-1.067 18.223-1.493 19.715-4.373 16.198-4.48-5.435-14.187-9.058-31.147-11.615-22.933-3.517-32.533-6.927-40.747-14.494-9.28-8.419-8.64-9.804 2.88-5.861 22.614 7.78 45.867 5.755 62.614-5.328 5.333-3.517 11.733-6.394 14.4-6.394 3.84 0 4.8-1.173 4.8-6.288 0-3.41 1.066-6.927 2.346-7.673 5.654-3.516 10.347-19.289 10.347-35.061.107-60.317-74.027-87.705-118.187-43.692-5.653 5.648-8.746 7.246-12.373 6.394-2.667-.746-10.88.746-18.453 3.09-16.107 5.222-15.147 5.115-15.147 1.492 0-1.598-1.92-5.328-4.267-8.312-2.346-2.984-4.266-7.46-4.266-10.018 0-2.451 1.92-8.312 4.266-12.894 5.547-10.87 5.654-10.657-4.48-10.657h-8.853l1.493 9.911zm3.307 42.094c0 2.771-1.387 6.181-3.2 7.673-1.707 1.492-3.307 3.73-3.307 5.009-.213 2.984-15.68 14.493-27.413 20.461-4.693 2.344-9.067 5.328-9.813 6.5-2.454 3.943-5.334 2.238-5.334-3.303 0-5.222 5.227-11.723 13.974-17.584 3.733-2.451 3.413-2.558-2.987-1.599-16.747 2.665-26.133 16.412-17.493 25.577 8.106 8.632 2.24 16.305-8.32 10.87-21.76-11.297-29.12-38.365-14.72-53.71 4.586-4.903 5.653-5.009 41.6-5.009h37.013v5.115zm19.2-.746c0 2.451.96 6.288 2.24 8.632 2.667 5.009.533 9.804-2.88 6.394-1.28-1.279-6.72-2.451-12.053-2.557-5.334 0-8.534-.64-7.147-1.173 1.493-.533 4.693-4.369 7.147-8.312 5.12-8.312 12.693-10.017 12.693-2.984zm27.733-2.238c0 1.172-.96 2.132-2.133 2.132-1.28 0-6.08 2.451-10.667 5.328l-8.533 5.435v-6.074c0-3.411.64-6.714 1.387-7.567 2.346-2.238 19.946-1.598 19.946.746zm85.014 8.845c25.813 22.273 20.16 52.751-11.094 60.211-26.24 6.288-50.026-38.151-31.573-59.252 10.24-11.615 29.76-12.148 42.667-.959zm-121.92 14.813c2.133 2.132 1.173 7.14-2.667 14.174-.213.319-3.733-.853-8-2.664-4.267-1.706-10.347-3.197-13.547-3.197-6.613 0-5.226-2.238 4.587-7.354 7.573-3.836 16.32-4.262 19.627-.959zm25.813 8.632c.427 3.943-1.387 7.993-6.08 13.321l-6.72 7.673-3.84-4.795c-4.16-5.116-3.627-8.1 2.987-17.158 5.546-7.566 12.693-7.033 13.653.959zm6.827 6.288c0 8.419 5.333 20.887 11.946 27.707l5.334 5.648-6.507 6.501c-3.627 3.623-7.147 9.485-7.893 13.108-1.494 7.353-1.494 7.353-7.787 4.156-15.787-8.206-18.133-27.814-5.44-45.398 3.413-4.582 6.08-11.083 6.08-14.493 0-3.623.853-5.648 2.133-4.902 1.174.746 2.134 4.156 2.134 7.673zm23.04 41.561c.32 2.238 1.813 6.288 3.093 9.058 3.093 6.181-2.027 10.977-11.84 10.977-6.08 0-6.187-.213-4.8-7.993 2.773-14.813 11.84-22.912 13.547-12.042zm26.453 24.298c12.587 0-.747 16.624-14.933 18.542-8 1.066-9.6.427-16.32-6.287-10.667-10.657-10.027-14.387 2.133-14.387 6.4 0 10.027-1.065 10.773-3.09.96-2.558 2.347-2.345 8 1.065 3.627 2.238 8.32 4.157 10.347 4.157zm54.827 18.01l7.146 7.14-5.013 2.664c-9.707 5.222-23.04 3.943-20.907-1.812 2.134-5.435.534-14.706-3.093-19.289-4.587-5.861 14.507 4.05 21.867 11.297zm-10.24 20.354c-4.054 15.346-1.067 26.003 8.853 31.224l6.293 3.197-4.693 5.116c-6.507 6.82-15.893 8.632-22.507 4.262-6.826-4.475-6.613-11.189.534-18.649 4.906-5.222 5.226-5.968 1.706-5.968-11.2 0-15.893 16.838-6.933 24.937 9.6 8.739 27.52 7.14 33.28-2.877 1.813-3.091 2.347-.853 2.347 10.443.106 13.748-1.92 17.797-5.654 11.51-4.693-7.993-21.653-10.231-32.96-4.37-6.186 3.197-6.72 3.091-11.84-1.598-16.106-15.133-15.253-35.167 2.027-45.291 5.12-2.984 11.627-7.886 14.507-10.977 5.653-6.074 16.533-6.714 15.04-.959zm7.36 64.047c10.24 3.837.853 5.755-16.107 3.304-2.88-.426-6.293-.853-7.467-1.066-1.173-.106-.64-1.172 1.067-2.344 4.16-2.664 15.36-2.664 22.507.106zm-24.96 6.075c2.24 1.385 1.92 2.664-1.92 6.287-6.827 6.394-12.48.959-5.867-5.648 2.987-2.984 3.947-3.09 7.787-.639zm42.986 26.002c0 18.543-.64 25.15-2.453 24.085-1.6-.96-2.027-6.927-1.173-18.33.96-15.026.64-17.264-3.2-20.887-5.12-4.796-4.054-9.592 2.346-10.018 4.374-.32 4.48.426 4.48 25.15zm-6.506 10.977l-.107 9.058-3.093-7.353c-2.88-6.607-1.92-10.444 2.773-10.764.32 0 .533 4.05.427 9.059zm-218.56-247.557c-4.694.746 5.333 1.492 22.186 1.598 16.96.213 30.187-.32 29.44-.959-1.706-1.812-41.066-2.238-51.626-.639zm-275.307-20.461c-.533 1.705-1.387 4.582-1.92 6.394-1.493 4.582-16.64 4.156-26.347-.853-23.573-11.935-43.2 1.492-43.946 30.159-.107 4.369-.96 7.992-1.814 7.992h-2.88c-.746 0-.213-1.492 1.28-3.197 2.134-2.664 2.027-3.197-.96-3.197-2.453 0-3.413 1.492-3.093 4.796.213 2.664-.32 6.394-1.173 8.419-2.454 5.648-.534 11.083 4.693 13.427 4.053 1.812 4.8 3.73 4.8 13.108 0 13.854 1.493 17.797 6.72 17.797 4.907 0 7.573-5.755 4.267-9.058-6.4-6.394 2.026-18.01 12.266-16.838 8.854.853 11.947-4.156 6.614-10.976-2.454-2.984-3.414-5.968-2.347-6.714 3.52-2.132 2.453-23.978-1.387-27.175-2.773-2.345 2.667-2.984 33.6-3.836 42.347-1.173 43.627-1.919 27.52-14.707-12.053-9.591-14.293-10.337-15.893-5.541zm6.72 3.516c2.24 3.624-7.04 10.337-13.76 10.124-5.013-.213-4.907-.426 1.493-1.918 7.36-1.705 14.187-6.394 9.28-6.394-1.386 0-2.56-.959-2.56-2.131 0-2.878 3.627-2.665 5.547.319zm-37.547 3.943c2.24 1.492 1.174 1.705-3.84.746-7.466-1.385-17.493 5.222-17.493 11.51 0 4.795-5.12 1.811-6.613-3.837-1.174-4.156-1.494-3.41-1.707 3.624-.213 9.804 4.48 16.091 8.853 11.722 4.16-4.156 8.32-2.877 7.574 2.345-.747 5.541-8.747 7.672-13.547 3.623-9.067-7.46-8.213-30.479.96-25.576 2.987 1.598 4.907 1.065 7.787-2.132 4.053-4.476 12.8-5.435 18.026-2.025zm46.187 2.132c1.707 0 2.56.959 1.813 2.131-.746 1.172-3.626 2.131-6.506 2.131-4.694 0-5.014-.426-2.56-4.262 1.493-2.345 2.986-3.304 3.413-2.132.32 1.173 2.133 2.132 3.84 2.132zm-43.52 7.886c-3.84.533-10.027.533-13.867 0-3.84-.427-.64-.853 6.934-.853 7.68 0 10.773.426 6.933.853zm-22.293 26.961c3.84-.213 6.72.64 6.4 1.706-.427 1.172-1.28 1.811-1.92 1.385-.747-.32-2.88.746-4.907 2.344-3.093 2.558-4.267 2.345-9.387-2.131l-5.76-5.115 5.12 5.861c2.88 3.197 7.254 5.861 9.814 5.861 2.986 0 5.653 2.132 7.253 5.861 2.667 5.755 2.667 5.755-1.707 1.812-2.56-2.344-6.08-3.517-8.64-2.771-2.986.746-5.44-.426-7.573-3.41-2.24-3.197-3.307-3.623-3.413-1.385-.107 1.705-1.067.213-2.134-3.304-1.066-3.517-1.28-10.657-.533-15.772l1.28-9.378 4.587 9.378c4.053 8.419 5.226 9.378 11.52 9.058zm-18.774 15.026c-1.706 1.706-2.773 1.492-4.16-.639-.96-1.598-2.88-2.238-4.16-1.385-1.28.746-2.346.426-2.346-.64 0-3.09 6.933-4.156 10.24-1.705 1.92 1.492 2.133 2.664.426 4.369zm149.867-37.618c26.667.32 70.4.32 97.067 0 26.666-.32 4.906-.639-48.534-.639-53.333 0-75.2.319-48.533.639zm135.147 37.299c.64 6.181.32 15.239-.854 20.248-1.493 6.5-1.386 11.189.64 16.837l2.667 7.78.747-7.247c1.493-12.681-.427-48.808-2.56-48.808-1.067 0-1.387 4.689-.64 11.19zm-15.254 15.985c-2.346 2.025-5.653 6.287-7.146 9.378-1.6 3.09-4.907 6.607-7.36 7.886-4.587 2.131-4.587 2.131.32 2.344 6.4.107 3.84 4.37-2.667 4.37-5.547 0-10.773 5.115-8.64 8.419 1.92 3.303 5.867.319 4.48-3.411-1.067-2.557.96-2.984 10.987-2.238 17.813 1.173 30.08-5.541 18.346-10.123-5.013-1.812-9.173 2.664-5.013 5.328 2.347 1.492 1.493 1.918-3.733 2.025-6.72 0-9.707-4.476-4.907-7.353 1.173-.746 1.6-2.558.96-4.157-.533-1.492 2.347-5.754 6.613-9.484 7.787-6.82 5.654-9.591-2.24-2.984zm38.827 14.28c-.64 1.705-.107 3.41 1.28 3.836 1.28.427 1.6 1.919.747 3.304-1.814 2.984-13.227 3.41-15.04.639-.64-1.065.853-1.385 3.413-.745 3.093.852 4.267.319 3.627-1.599-1.6-4.796-10.347-4.902-10.347-.107 0 5.222 6.293 8.846 12.48 7.247 2.773-.746 4.587-.213 4.587 1.172 0 1.812.746 1.812 2.773 0 3.413-3.303 3.52-10.656.213-14.067-2.026-2.131-2.773-2.024-3.733.32zm-77.333 6.394c.853 3.197.533 6.927-.534 8.312-1.493 1.705-.32 2.558 3.947 2.665 4.587.213 6.187-.853 6.933-4.476.747-3.73.107-4.583-2.986-3.73-2.56.639-3.947-.107-3.947-2.238 0-1.918-1.067-4.05-2.453-4.902-1.707-1.066-2.027.213-.96 4.369zm89.173 4.796c2.133.532 3.093 2.238 2.453 3.943-.853 2.131.214 3.09 3.307 3.09 2.453 0 4.48-.426 4.48-.959 0-2.451-7.147-7.566-10.24-7.353-3.413.213-3.307.32 0 1.279zm12.373 2.557c0 2.984 1.067 3.837 4.16 2.984 2.454-.639 3.627-2.238 2.88-4.049-1.6-4.476-7.04-3.624-7.04 1.065zm-332.8 251.5v253.419l-7.893-1.812c-4.48-.959-9.387-.959-11.52.213-2.133 1.172-5.76 2.025-8.213 2.025-5.654 0-5.654 3.41-.107 4.902 5.12 1.279 5.547 6.287.96 10.976-1.92 1.812-2.453 3.304-1.28 3.304 3.947 0 8.853 6.607 8.853 12.042 0 3.197.854 4.689 2.347 3.837 1.28-.746 1.813-3.197 1.28-5.329-.747-2.771.533-4.263 4.587-5.328l5.653-1.492-5.867-2.025c-10.346-3.623-10.346-18.969 0-20.461 7.574-1.172 11.2 7.14 11.2 25.683 0 20.461-4.906 25.15-16.853 16.411-7.787-5.861-12.16-3.516-4.693 2.558 3.946 3.09 4.586 4.689 2.666 6.607-5.546 5.542 4.267 23.552 10.56 19.609 1.494-.959.32-3.304-3.2-6.608-8.64-7.992-5.44-16.837 5.547-15.345 4.8.746 4.907 1.278 5.547 28.88l.533 28.027-6.4 3.836c-8 4.689-20.053 21.207-18.56 25.257 1.813 4.582 6.4 1.918 10.773-6.288 2.24-4.049 6.187-9.484 9.067-12.042l5.013-4.795v9.804c0 5.435.96 10.444 2.134 11.19 1.28.852 2.133-3.198 2.133-10.551 0-14.599 6.293-19.502 13.333-10.55 5.547 7.034 16.32 8.526 29.227 3.837 15.36-5.435 25.707 5.221 25.707 26.748 0 10.231-6.4 16.838-33.067 33.995-7.467 4.902-12.053 1.812-9.28-6.181 3.733-10.55.533-20.887-7.787-25.896-10.56-6.181-2.666-16.731 12.587-16.731 10.88 0 16.427 14.174 7.68 19.715-4.16 2.558-5.973 7.993-2.56 7.993 10.027 0 14.827-17.584 6.933-25.47-8.853-8.845-29.546-6.607-33.813 3.73-.96 2.344-1.92-.639-2.773-8.099l-1.174-11.723-.426 12.682c-.214 6.927.853 18.116 2.24 24.83 4.693 22.699-11.734 27.708-21.76 6.821-6.08-12.575-8.107-13.002-13.334-2.558-6.933 14.067 1.067 28.134 18.24 31.651l6.827 1.385-.747 19.289c-.533 12.681 0 19.928 1.6 20.887 1.6.959 2.347-4.689 2.347-19.076v-20.567l9.173 7.459c11.2 9.272 16.747 11.403 36.267 14.281 21.227 3.197 28.48 5.754 36.907 13.107 9.386 8.313 9.173 10.87-.534 6.821-19.84-8.313-49.28-5.861-65.92 5.541-8.746 6.075-9.066 6.181-10.133 1.919-2.347-8.846-8.96-3.943-9.173 6.82-.214 6.714-2.134 12.362-6.294 18.756-5.333 8.099-6.08 11.083-6.186 26.535-.32 60.318 73.493 88.451 119.146 45.398 6.934-6.501 9.814-7.779 17.494-7.779 11.093 0 19.52-3.517 21.226-8.846 2.454-7.779 11.52-5.008 10.24 3.091-.853 4.902-.106 7.886 2.24 9.804 4.907 4.156 4.16 14.813-1.813 25.257l-5.227 9.058h10.56c11.947 0 12.374-.853 7.36-15.026-3.84-10.763-3.2-12.042 3.84-7.46 5.014 3.304 14.614 3.624 17.6.746.64-.746-1.706-1.918-5.333-2.771-7.36-1.598-16.427-12.042-17.493-20.247l-.747-5.329 37.867-.533c40.533-.639 42.986.107 30.186 8.739-10.026 6.82-5.653 9.484 6.294 3.73 5.013-2.451 10.56-4.476 12.16-4.476 1.706 0 5.973-1.918 9.493-4.263 6.187-4.049 10.24-4.263 108.267-4.263 69.44 0 101.866-.745 101.866-2.237s-31.466-2.025-100.266-1.599c-66.24.426-99.947-.107-99.307-1.492 3.84-8.845 5.76-18.649 4.587-23.232-1.92-7.886-20.267-26.322-27.947-28.027-3.52-.853-7.573-2.451-8.96-3.623-1.493-1.066-6.507-1.386-11.2-.533l-8.64 1.492v-9.485c0-9.271-9.707-27.175-14.72-27.175-1.067 0-4.587 6.927-7.787 15.453-7.36 19.502-8.426 20.78-17.173 20.78-11.307 0-12.8-5.434-7.253-26.002 2.56-9.378 4.053-17.584 3.413-18.223-2.347-2.345-18.667 4.049-25.173 9.911l-6.72 5.967-12.48-6.5c-8.854-4.583-13.547-8.526-15.894-13.428-4.373-9.271-15.04-15.665-25.92-15.665h-8.746l5.226-5.222c5.76-5.755 6.507-10.976 2.347-16.518-2.453-3.304-3.2-2.771-6.613 4.902-3.627 8.419-3.84 8.526-6.827 4.156-4.373-6.181-8.96-5.648-7.68.959.533 2.984 2.347 5.329 3.947 5.329 1.706 0 2.986 1.172 2.986 2.664.107 1.812.747 1.598 2.134-.533 1.173-1.812 2.133-2.131 2.133-.746 0 1.386-3.84 5.542-8.533 9.272-4.694 3.729-8.534 8.632-8.534 10.869 0 7.886-18.026 1.066-21.546-8.099-2.454-6.5 2.666-19.821 7.68-19.821 3.626 0 20.266-14.813 20.266-18.01 0-5.009 10.454-10.444 14.187-7.353 1.707 1.492 9.173 3.729 16.32 5.115 11.627 2.025 21.227 9.591 12.267 9.591-1.174 0-2.134-.746-2.027-1.599.747-4.156-.533-5.115-3.413-2.664-4.587 3.73-.427 8.206 6.4 6.927 7.04-1.385 6.72-5.435-1.28-15.346-7.254-9.058-17.92-12.681-25.494-8.525-6.613 3.517-7.253 1.172-2.453-7.993 4.8-8.951 7.253-17.69 4.907-17.69-2.347 0-8.747 12.042-8.747 16.412 0 2.237-1.387 5.967-2.987 8.205-2.773 3.837-2.986 3.73-1.92-1.705 1.92-10.017-1.386-20.354-9.173-28.56-5.867-6.288-7.147-9.058-6.187-13.534.854-3.73.107-6.607-1.92-8.312-2.666-2.238-2.666-3.411.534-8.952 3.413-6.288 3.413-6.501-2.454-11.616-10.346-9.058-15.146-7.247-13.44 5.115 2.347 17.797-14.933 23.019-18.666 5.648-1.067-4.689-4.587-14.493-8-21.846-3.414-7.247-6.294-14.92-6.294-17.051-.213-3.303-.426-3.303-1.813.426-1.173 2.984-2.027 3.411-3.307 1.386-.853-1.492.107-4.476 2.347-6.927 2.773-3.197 3.947-7.46 3.733-15.346 0-6.074-.426-100.706-.746-210.258-.32-109.658-1.28-227.096-2.134-261.091-.853-36.66-1.386 42.947-1.386 195.552.106 141.522-.534 257.361-1.387 257.361s-1.6-115.626-1.6-256.829c0-169.762-.747-256.828-2.133-256.828-1.387 0-2.134 85.894-2.134 253.418zm8.534 314.162c.106 3.41.533 3.943 1.92 1.812 1.28-2.132 2.453-1.066 4.16 3.836 2.133 6.181 1.813 7.247-3.307 11.616-6.4 5.542-5.76 14.174 1.387 17.477 5.013 2.238 3.306 5.968-3.627 8.206-4.8 1.492-4.8 1.492-4.8-24.404 0-16.625.747-25.363 2.133-24.511 1.174.746 2.134 3.411 2.134 5.968zm49.066 38.684c0 4.263-4.906 7.247-9.386 5.542-3.84-1.386-3.84-1.705.853-6.075 5.013-4.689 8.533-4.475 8.533.533zm-12.16 9.698c1.067.852-1.706 2.238-5.973 3.09-8.533 1.599-23.147-2.238-21.12-5.541 1.387-2.238 24.213-.213 27.093 2.451zm-7.573 79.286c-1.387 4.263-1.067 7.567 1.28 12.256 3.52 7.246 2.24 7.886-7.787 3.516-6.4-2.664-20.48-15.452-18.453-16.731 13.44-8.099 27.947-7.566 24.96.959zm66.24 9.272c6.4 4.476 14.827 20.567 8.853 16.838-4.266-2.558-21.226 1.172-21.226 4.688 0 2.558-1.067 2.345-5.44-1.065-2.987-2.345-8.214-4.902-11.734-5.648-8.106-1.812-7.893-3.41 1.28-11.51 8.534-7.566 20.267-8.845 28.267-3.303zm10.453 29.093c-2.133 15.772-10.773 18.543-15.466 4.902-3.627-10.337-1.28-13.854 9.173-13.854h7.467l-1.174 8.952zm21.547-.533c8.427 6.074 8.64 6.501 6.507 13.96-1.174 4.263-1.814 9.805-1.494 12.469.32 2.557-1.92 7.992-5.12 12.255-3.2 4.156-6.613 11.296-7.786 15.879-1.067 4.689-2.027 6.394-2.134 3.836-.426-8.632-7.253-26.109-12.8-32.823l-5.653-6.82 6.933-6.927c4.374-4.369 7.04-9.165 7.04-12.575 0-7.247 3.734-7.033 14.507.746zm-73.387 24.724c13.654 5.648 24.64 30.158 20.587 45.504-7.68 28.134-44.267 26.642-61.973-2.451-15.04-24.617 13.76-54.669 41.386-43.053zm169.494 11.402c15.893 8.1 24.96 28.454 19.093 42.841l-2.987 7.246-39.893.107c-34.667.106-39.787-.32-38.613-3.091.746-1.811 1.813-4.902 2.453-6.927.533-2.024 1.92-3.729 2.88-3.729 1.067 0 5.547-3.197 9.92-7.034 4.373-3.943 11.093-8.312 14.827-9.911 3.84-1.492 8-4.049 9.386-5.648 3.734-4.582 6.187-3.623 6.187 2.451 0 5.329-7.04 14.28-12.907 16.305-1.706.64-2.346 1.918-1.386 2.984 2.986 3.197 21.546-8.206 23.786-14.6 1.6-4.795 1.174-6.713-2.88-10.976-9.173-9.698-2.453-16.412 10.134-10.018zm-84.267 18.863c-5.867 10.23-10.027 12.895-14.4 9.165-5.013-4.156-4.16-8.845 3.307-17.904l6.72-8.099 4.48 4.476 4.48 4.476-4.587 7.886zm29.12 3.943l9.6 2.558-10.027 4.582c-10.24 4.582-20.906 4.263-20.906-.639.106-8.206 2.773-12.149 7.146-10.657 2.56.852 8.96 2.664 14.187 4.156zm-45.013 8.099c1.92 2.238 1.706 3.197-.96 4.263-5.014 1.811-5.227 1.705-5.227-2.984 0-4.902 2.667-5.542 6.187-1.279zm17.28 7.886c0 1.492 3.626 2.025 9.6 1.599 5.333-.427 9.6-.533 9.6-.32 0 8.419-20.054 14.387-22.08 6.501-1.92-7.034-1.707-10.124.746-10.124 1.174 0 2.134 1.065 2.134 2.344zm-7.68 10.87c-.64.959-3.734 1.705-6.827 1.705l-5.76-.106 5.333-4.05c5.014-3.836 10.027-2.131 7.254 2.451zm-.854 5.968c0 1.065-2.133 3.41-4.8 5.115-8 5.222-21.12.107-15.146-5.861 2.24-2.238 19.946-1.599 19.946.746zm49.707-9.058c10.347.426 26.667.426 36.267 0 9.6-.427 1.173-.746-18.774-.746-19.946 0-27.84.319-17.493.746zm399.893-810.981c-.64 2.664-.32 10.017.534 16.518l1.493 11.722.32-16.518c.32-16.625-.427-20.568-2.347-11.722zm-328.213 5.008c-1.493 1.919-7.68 6.607-13.547 10.444-15.68 10.124-25.92 21.846-31.786 36.02-4.48 11.083-5.334 12.042-7.467 8.525-2.24-3.943-2.347-3.943-2.24.213.107 5.862 3.733 14.281 3.947 9.165.106-2.451 1.28-3.303 3.306-2.451 2.347.853 2.88.213 1.92-2.238-2.24-5.861 10.027-26.535 22.507-38.044 9.067-8.206 12.053-9.911 12.48-7.247.427 1.918 1.6 3.517 2.667 3.517 3.2 0 2.346 7.886-1.174 11.402-1.706 1.812-3.2 4.263-3.2 5.435 0 1.279-2.666 4.903-5.866 8.206-3.2 3.197-6.187 8.206-6.614 11.19-.64 5.222-.533 5.222 2.667 1.065 1.813-2.344 3.307-5.328 3.307-6.713.213-7.46 6.4-7.354 13.013.106 3.733 4.263 8.213 7.673 10.027 7.673 1.92 0 5.013 1.492 7.04 3.304 3.306 2.984 3.413 2.664 1.173-4.263-1.387-4.689-3.733-7.566-5.867-7.566-4.48 0-6.933-9.378-3.946-14.92 2.88-5.435 3.946-5.328 6.186.533 1.92 4.796 1.92 4.796 3.414-.853.96-3.729 3.2-5.967 6.72-6.713 4.48-.746 5.226-.213 4.373 2.984-.64 2.238-.213 4.582.853 5.221 1.067.64 1.92-.639 1.92-2.77 0-5.542 1.387-6.501 7.254-5.329l5.013.959-3.84 7.886c-2.667 5.435-3.52 10.657-2.667 16.518l1.067 8.526 5.013-4.369c3.627-3.304 4.374-5.116 2.667-7.14-4.16-5.009 9.6-15.879 15.467-12.256 1.493.959 1.386 2.558-.534 4.796-2.453 2.984-2.026 3.197 3.094 2.238 3.2-.64 5.866-.533 5.866.213 0 .639 2.454 4.156 5.334 7.673 2.986 3.516 4.8 4.795 4.053 2.77-.853-2.451.747-4.582 4.8-6.82 3.52-1.812 4.693-3.303 2.773-3.303-1.813-.107-4.48 1.065-5.866 2.451-2.027 2.024-3.307 1.918-5.76-.64-3.2-3.197 1.28-21.1 5.333-21.1 5.333 0 18.24 22.379 22.72 39.43l2.88 10.657-1.28-10.657c-1.6-13.428-5.44-22.593-13.76-33.249-3.627-4.583-5.653-8.313-4.373-8.313 5.226 0 1.813-4.049-4.48-5.435-3.84-.852-10.24-3.729-14.4-6.394-13.12-8.525-40-12.681-53.76-8.312-3.627 1.172-4.374.746-3.307-2.025 1.707-4.369-1.387-4.369-5.12 0zm43.733 6.181c13.12 3.41 24.64 9.591 17.814 9.591-2.24 0-3.2 1.173-2.454 3.091 1.814 4.689-4.693 5.541-28.48 3.623-3.84-.213-4.906-1.705-5.12-7.246l-.32-6.927-.853 6.82c-1.6 12.149-19.84 4.902-19.84-7.78 0-5.115 21.653-5.754 39.253-1.172zm-32.853 19.609c0 1.598-1.387 2.131-3.52 1.279-6.72-2.558-13.333 15.772-7.147 19.608 1.174.746 2.134 2.877 2.134 4.796 0 4.689-4.694.213-9.387-8.952-2.987-5.755-2.88-6.714.107-10.124 2.453-2.664 3.093-6.181 2.346-11.936-1.92-14.386 1.92-17.051 9.174-6.394 3.413 5.009 6.186 10.337 6.293 11.723zm62.613-3.091c-2.346 2.664-5.333 7.46-6.72 10.657-2.773 6.501-5.76 7.566-7.573 2.664-3.52-9.058-24.533 2.558-21.973 12.149.853 3.197.533 3.836-1.174 2.131-5.226-5.222 4.694-26.748 10.667-23.018 2.987 1.811 14.827-2.771 16.213-6.288.64-1.811 4.054-3.09 8-3.09h6.827l-4.267 4.795zm-107.733-20.248c-2.56 3.411-2.56 3.411.853.853 2.454-1.918 3.734-2.131 3.734-.533 0 1.279 1.493 2.345 3.2 2.345 1.813 0 3.2-1.492 3.2-3.197 0-4.37-7.36-4.05-10.987.532zm105.92-1.598c-1.387 2.344-.853 2.451 7.893 2.984 4.48.319 5.227-.213 3.52-2.345-2.773-3.303-9.493-3.623-11.413-.639zm-171.733 4.689c0 1.598 6.613 6.181 14.826 10.017 8.107 3.943 16.427 8.845 18.454 11.083 2.026 2.238 5.333 4.05 7.466 4.05 2.134 0 4.374.959 5.12 2.131.747 1.172 2.347 2.132 3.52 2.132 1.174 0-.746-2.878-4.266-6.395-3.52-3.516-7.467-6.394-8.747-6.394-2.56 0-18.133-7.992-29.44-15.239-5.227-3.303-6.933-3.623-6.933-1.385zm45.866-.213c-5.866.639-12.373 1.918-14.4 2.877-4.16 1.812-5.226 6.394-1.066 4.689 21.333-8.845 37.973-2.344 23.893 9.271-2.133 1.919-2.453 1.386-1.6-2.238.96-3.623.427-4.475-2.773-3.836-5.867 1.172-5.334 9.058.746 9.911 3.414.533 5.44-.853 7.254-4.796 1.386-2.984 3.84-5.435 5.44-5.435 2.24 0 2.453-.959.64-4.369-1.28-2.344-3.2-3.73-4.16-3.09-1.067.639-2.24-.107-2.56-1.599-.534-1.918-3.734-2.344-11.414-1.385zm139.094 6.287c-.64 2.558-.64 4.05.106 3.304.64-.64 2.987 1.598 5.12 5.115 3.52 5.861 9.814 8.312 13.014 5.115 1.6-1.492-2.88-9.378-5.334-9.378-2.453 0-1.92 5.862.64 7.14 1.174.533.96.853-.533.533-1.6-.213-4.373-3.623-6.293-7.46-4.8-9.271-5.334-9.697-6.72-4.369zm-167.894 17.051c0 3.517 1.92 10.231 4.267 14.813 2.347 4.582 4.373 11.083 4.48 14.28l.213 5.968 1.707-5.329c2.56-7.992 2.453-12.894-.32-12.255-2.88.64-5.547-7.14-5.867-17.051-.32-8.738-4.48-9.165-4.48-.426zm189.12-1.279c-.64 1.812-2.773 3.304-4.48 3.304-1.813 0-3.306.852-3.306 1.811 0 .96 3.413.746 7.466-.532 4.16-1.279 7.147-3.197 6.827-4.37-1.173-3.516-5.227-3.623-6.507-.213zm21.227 4.37c-2.347 10.869-5.227 16.411-7.787 14.812-1.066-.639-2.026.32-2.026 2.132 0 4.689-5.867 4.156-8.427-.853-3.307-5.968-2.773-10.124.64-5.541 2.027 2.77 3.307 3.197 4.373 1.492 1.92-3.091-4.266-9.591-7.253-7.78-3.2 2.025-2.56 10.87 1.067 13.854 1.813 1.492 2.773 3.197 2.24 3.836-.64.64.746 2.452 3.093 4.05 4.48 3.091 5.867 9.165 2.133 9.165-1.173 0-2.133 1.385-2.133 3.197 0 1.705 1.6 3.197 3.52 3.197 2.88 0 3.2-1.599 2.133-9.911-.746-5.541-.746-9.378 0-8.632 2.667 2.664 11.734-17.797 10.88-24.724l-.746-6.82-1.707 8.526zm-192 6.607c-1.6 4.049.32 7.779 3.093 6.074 2.987-1.812 2.347 1.705-1.28 6.394-1.706 2.238-3.2 3.197-3.2 2.131-.426-4.688-3.84 7.141-4.053 13.428-.107 4.689.853 6.927 2.987 6.927 4.48 0 6.293-4.05 2.346-5.542-4.693-1.811-4.266-3.729 3.307-14.386 4.693-6.607 6.187-10.657 5.227-13.961-1.707-5.221-6.507-5.967-8.427-1.065zm187.52 26.855c.96 6.074.32 8.312-2.56 9.911-3.627 2.024-3.627 2.238-.107 3.623 2.027.746 3.84 2.984 3.84 4.902.107 2.345.854 1.918 2.134-1.385 1.493-3.624 3.093-4.583 6.08-3.73 2.24.746 4.693.319 5.44-.853.853-1.385-1.174-2.238-5.12-2.238-5.334 0-6.507-.852-6.614-4.795-.106-2.664-1.066-6.714-2.24-9.059-1.493-3.197-1.706-2.344-.853 3.624zm-199.147 4.369c-.32 5.009-1.173 5.861-6.826 5.861-4.16 0-5.974.853-5.12 2.345.746 1.279 3.306 1.811 5.44 1.279 2.24-.64 4.8.106 5.653 1.598 1.173 2.025 2.56 1.812 5.653-1.279 3.52-3.303 3.627-3.943.747-3.943-2.133 0-3.84-2.238-4.373-5.861l-.854-5.861-.32 5.861zm104.214 7.247c0 11.296.106 11.402 6.4 11.402 3.52 0 6.4-.959 6.4-2.131 0-1.172-1.92-2.131-4.267-2.131-2.347 0-4.267-.959-4.267-2.132 0-1.172 1.92-2.131 4.267-2.131 2.347 0 4.267-.959 4.267-2.131 0-1.173-1.92-2.132-4.267-2.132-2.347 0-4.267-.959-4.267-2.131 0-1.172 1.92-2.131 4.267-2.131 6.613 0 5.013-3.624-2.133-4.689l-6.4-.959v11.296zm36.266-8.632c0 1.705.96 2.984 2.134 2.984 1.173 0 2.133 3.836 2.133 8.525 0 6.501.853 8.525 3.52 8.525 2.773 0 3.2-1.598 2.347-8.525-.96-6.607-.534-8.525 2.026-8.525 6.187 0 1.387-4.796-5.333-5.329-4.693-.426-6.827.32-6.827 2.345zm-108.266 1.172c-3.627 3.623-3.307 13.534.426 16.625 4.374 3.623 10.56 1.918 11.52-3.091.64-3.41.214-3.73-2.026-1.598-3.627 3.516-5.44 3.41-6.934-.533-2.133-5.435.854-9.911 5.547-8.313 2.987.853 3.947.427 3.307-1.598-1.28-3.837-8.534-4.796-11.84-1.492zm17.92-1.066c-2.987 3.091-1.387 17.904 2.133 19.289 8 3.09 15.147-10.444 9.173-17.584-2.666-3.197-8.853-4.156-11.306-1.705zm8.213 9.272c0 2.77-1.173 5.328-2.667 5.861-1.706.533-2.666-1.385-2.666-5.861s.96-6.394 2.666-5.862c1.494.533 2.667 3.091 2.667 5.862zm8.213 0c-.213 7.886.427 10.656 2.667 10.656 1.6 0 2.987-2.131 3.093-4.795l.107-4.796 3.307 4.796c5.226 7.353 7.146 5.755 7.146-5.861 0-5.862-.96-10.657-2.133-10.657s-2.133 2.664-2.24 5.861v5.861l-3.627-5.861c-5.44-8.632-8-7.14-8.32 4.796zm18.454-8.526c0 1.172 1.493 2.132 3.2 2.132 5.44 0 4.48 24.723-1.067 27.707-3.2 1.705-3.947 3.624-3.093 7.353.96 3.624 0 5.862-3.627 8.419-8.427 5.861-16.213 3.837-9.813-2.664 2.133-2.238 1.493-2.558-3.414-2.025-4.373.427-6.826-.639-8.533-3.516-4.053-6.821-8.96-11.723-7.147-6.927 1.067 2.664 0 4.369-3.84 6.181-2.986 1.278-5.333 3.197-5.333 4.156 0 2.664 2.667 2.131 7.253-1.386 6.827-5.115 10.134 1.599 5.974 12.042-4.8 12.149-10.027 8.632-21.654-14.173-3.52-7.034-6.4-11.403-6.4-9.591 0 5.115 7.254 19.608 13.44 26.962 6.934 8.099 6.934 9.164.854 9.484-2.667.107.746 1.918 7.573 4.05 6.72 2.131 13.44 4.795 14.933 5.861 9.814 7.566 39.787 12.042 52.8 7.992 4.054-1.278 4.374-.852 3.094 3.517-1.387 4.476-.534 4.156 6.72-2.664 4.48-4.156 11.626-9.698 15.68-12.149 10.133-5.968 19.946-16.624 25.706-27.707 6.934-13.534 4.16-12.575-4.053 1.278-8 13.641-26.56 30.372-27.627 24.937-.426-1.705-1.6-3.197-2.666-3.197-1.174 0-2.027-2.451-2.027-5.328 0-3.304 1.173-5.329 3.2-5.329 1.813 0 3.2-1.705 3.307-3.729.106-8.526 9.92-16.732 14.72-12.362 2.453 2.131 4.373 2.877 4.373 1.598 0-1.385-1.92-3.41-4.16-4.689-2.667-1.385-3.733-3.516-2.88-5.541 1.067-2.984.64-2.984-3.093-.64-2.454 1.492-3.947 3.73-3.414 5.116 2.774 7.353-6.72 9.271-11.946 2.344-7.574-10.017-19.307-13.427-19.307-5.541 0 4.475.96 5.648 4.8 5.541 6.08-.213 8.533 14.92 2.773 17.051-1.813.746-2.773 2.131-2.133 3.197 3.52 5.542 10.24-8.099 8.213-16.411-.746-2.878-3.84-6.714-6.933-8.419l-5.653-3.197 5.333 1.278c11.947 2.984 16.747 13.215 11.733 25.257-2.56 5.861-2.773 8.845-.96 12.149 1.707 3.197 1.707 5.115-.213 7.353-2.987 3.623-6.293 4.05-6.293.852 0-1.172-2.027-5.008-4.587-8.312-3.2-4.369-4.053-7.779-3.093-11.616 1.6-6.5-2.027-7.566-4.054-1.279-1.92 5.862-9.066 5.542-10.24-.532l-.96-4.796-.213 4.796c-.213 3.516-1.6 4.795-5.333 4.795-7.36 0-7.787-1.598-3.52-11.296 2.986-6.501 3.413-9.591 1.706-11.616-1.706-2.025-1.706-5.115.107-10.976 1.387-4.476 2.453-11.297 2.453-15.133 0-4.156 1.494-8.099 3.734-9.804 3.306-2.558 2.666-2.878-5.334-2.878-5.013-.106-9.066.853-9.066 2.025zm3.413 47.849c-3.627 8.526-6.933 10.764-14.507 10.018-3.52-.427-7.36 1.065-10.133 3.836-2.347 2.344-7.04 4.369-10.24 4.263-5.333 0-5.547-.32-2.133-2.878 2.026-1.598 4.8-5.754 5.973-9.378 2.453-6.926 8.427-10.976 8.427-5.648 0 2.025 2.24 3.091 6.506 3.091 8.534 0 17.067-8.313 15.68-15.239l-.96-5.009 2.134 4.902c1.6 3.623 1.386 6.927-.747 12.042zm-11.947 14.067c0 1.386 1.28 1.492 3.84.107 7.147-3.837 18.347.319 19.947 7.353l1.28 6.287.32-6.927c.32-9.484 6.72-9.271 14.293.64 7.04 9.271 6.187 10.124-10.453 11.083-29.227 1.812-56.64-16.518-30.827-20.568.854-.106 1.6.746 1.6 2.025zm44.8-53.39c0 11.296 3.414 14.706 4.8 4.795l.747-5.861 2.88 5.861c4.8 9.591 8.64 7.353 8.64-4.795 0-8.419-.747-10.657-3.413-10.657-2.027 0-2.987 1.172-2.347 2.984 1.92 4.902-1.067 5.861-4.267 1.279-4.906-6.927-7.04-4.903-7.04 6.394zm37.654-9.272c-2.88 2.984-1.28 9.059 2.88 10.337 2.346.746 4.266 2.345 4.266 3.517 0 1.172-1.92 1.492-4.48.639-3.306-.959-4.266-.639-3.626 1.492 2.24 6.501 14.506 3.304 14.506-3.836 0-1.599-2.666-4.05-5.866-5.435-5.654-2.344-5.654-2.451-1.067-3.304 2.667-.426 4.8-1.705 4.8-2.77 0-2.345-9.173-2.771-11.413-.64zm144.106 17.158c-2.773 4.369-4.586 10.017-4.266 13.214.853 6.927 8.32-5.009 9.493-15.239.853-7.353.747-7.353-5.227 2.025zm-295.573-4.263c-2.24 2.131-1.6 13.001.747 14.493 1.28.746 1.6 2.451.746 3.623-.853 1.492-2.56.96-4.586-1.705-2.987-3.943-3.094-3.943-2.027.533.64 2.558-.64 7.247-2.88 10.657-2.453 3.623-3.947 9.485-3.84 14.6l.213 8.525 2.667-10.87c2.56-10.337 9.28-20.034 13.973-20.034 2.987 0 2.667-1.919-1.066-5.649-3.52-3.516-4.48-10.23-1.067-8.205 1.173.746 2.133-.107 2.133-1.918 0-3.624-2.986-6.075-5.013-4.05zm182.08.639c0 4.37.427 5.329 2.347 4.796 2.24-.639 2.453 1.918.64 6.714-.747 1.918-2.774 3.41-4.587 3.41-1.92 0-2.773.639-2.027 1.385.747.746-.213 3.943-2.133 7.247-1.813 3.197-2.773 7.46-2.027 9.378 1.6 4.369 8.854 3.517 8.854-.959 0-1.812-1.174-2.984-2.667-2.664-3.627.745-3.413-3.624.427-7.78 6.293-7.033 9.6-15.665 7.36-19.715-2.24-4.263-6.187-5.328-6.187-1.812zm-12.8 9.165c0 2.132-.96 3.304-2.133 2.558-1.174-.746-2.134.32-2.134 2.344 0 2.025.64 3.091 1.387 2.345.747-.853 2.667-.426 4.267.959 3.52 2.877 4.053-3.73.746-8.845-1.706-2.664-2.026-2.558-2.133.639zm20.16 6.394c-2.453 5.329-1.707 10.764 1.28 8.952 2.027-1.279 6.187 12.042 6.293 20.248.107 4.795.32 4.902 2.347 1.492 2.667-4.583.96-13.108-4.053-20.674-1.92-2.984-3.2-7.46-2.88-10.124.746-6.075-.107-6.075-2.987.106zm-180.053 10.231c1.28 2.451 1.813 5.008 1.173 5.648-.747.639-1.28.106-1.28-1.279s-1.387-2.451-3.2-2.451c-1.707 0-3.2 1.492-3.2 3.304 0 1.811.853 2.77 1.92 2.131 1.067-.639 2.453 0 2.987 1.492.746 2.025 1.6 2.131 3.626.106 2.987-2.77 1.28-13.427-2.24-13.427-1.386 0-1.28 1.598.214 4.476zm163.306 16.305c3.414 3.09 6.827 5.541 7.574 5.328.746-.213 9.28 4.369 18.986 10.231 9.707 5.754 18.56 10.55 19.734 10.55 4.693 0-4.694-7.46-16.96-13.215-7.254-3.516-14.934-8.205-16.96-10.443-2.027-2.238-5.334-4.05-7.467-4.05s-4.373-.959-5.12-2.131c-.747-1.172-2.347-2.132-3.627-2.132-1.28 0 .427 2.665 3.84 5.862zm-170.453 2.238c-1.92 2.024-9.493 7.033-16.853 10.869-15.147 7.993-18.027 10.231-16.107 12.149.747.746 8.32-3.09 16.853-8.525 8.427-5.329 16.96-9.804 18.88-9.804 3.627 0 8.534-3.943 8.534-6.821 0-3.197-7.894-1.705-11.307 2.132zm13.44 2.557c-2.453 1.599-2.667 2.878-.853 5.755 2.56 4.049 6.4 3.41 5.866-.959-.426-4.156 3.094-3.091 5.76 1.811 3.52 6.501 1.067 11.19-4.266 8.313-3.414-1.812-4.054-1.599-3.094.852 1.28 3.304-6.72 2.132-18.986-2.771-7.894-3.09-5.44.853 3.2 5.329 3.626 1.812 9.28 2.984 12.8 2.451 3.413-.426 6.613-.107 7.253.852 2.027 3.304 5.013 1.812 3.627-1.705-1.067-2.77-.534-3.303 2.24-2.238 5.333 2.025 4.373-4.369-1.92-12.681-5.867-7.673-6.827-8.099-11.627-5.009zm148.373 2.451c1.92 6.607 2.347 6.821 6.4 5.329 4.907-1.919 2.88-8.739-2.986-9.591-4.374-.533-4.8 0-3.414 4.262zm-6.186 4.902c-4.48 6.714-4.48 9.698-.107 9.698 2.24 0 2.987 1.172 2.133 3.304-.746 2.131-.32 2.77 1.174 1.811 1.386-.852 6.506-1.705 11.413-2.024 9.493-.427 18.133-4.05 18.133-7.46 0-1.172-2.986-.533-6.72 1.279-4.693 2.557-9.28 3.09-16 2.131-10.24-1.599-10.346-1.705-6.933-7.886 3.413-6.394.96-7.034-3.093-.853zm-396.374 5.329c-1.386 8.632.96 21.207 2.667 13.96.533-2.344.427-8.099-.213-12.788l-1.174-8.525-1.28 7.353zm277.654 8.419c0 1.172-1.707 1.598-3.734.959-3.52-1.279-3.52-1.066-.213 2.451 3.84 4.049 11.307 2.877 9.813-1.492-1.066-3.304-5.866-4.902-5.866-1.918zm102.4 1.172c0 4.582 4.053 6.181 7.68 3.09 2.666-2.238 3.733-2.131 5.44.32 1.813 2.451 1.92 2.238.96-.852-.747-2.132-1.28-4.37-1.28-5.009 0-.64-1.387 0-3.2 1.492-2.24 1.811-3.2 1.918-3.2.213 0-1.279-1.387-2.345-3.2-2.345-1.707 0-3.2 1.386-3.2 3.091zm-10.88 6.074c-.214 1.386-.214 3.197-.107 4.05.32 2.344-8 4.263-10.88 2.451-2.667-1.705-6.72-1.599-16 .426-4.693.959-7.147 9.485-2.88 9.485 5.76 0 8.853-2.665 6.4-5.542-1.92-2.451-1.387-2.984 2.987-2.984 6.293 0 9.493 3.517 6.186 6.821-1.28 1.278-1.813 3.41-1.173 4.902.533 1.492-3.093 6.181-8 10.337-5.333 4.582-7.68 7.779-5.76 7.779 5.013 0 13.653-7.673 16.533-14.706 1.494-3.517 4.267-6.82 6.187-7.353 3.093-.746 3.093-.959-.213-1.173-5.654-.319-4.48-4.475 1.28-4.475 4.373 0 12.053-5.755 12.053-8.952 0-2.558-6.4-3.623-6.613-1.066zm8.746 2.558c0 2.131-1.6 4.902-3.52 6.394-2.986 2.131-2.453 2.451 3.2 1.598 5.12-.746 6.72-.213 6.72 2.452 0 1.811.96 3.41 2.134 3.41 2.773 0 2.773-3.624-.107-5.435-1.173-.746-1.6-3.41-.747-5.968.747-2.558.64-3.837-.32-2.984-.853.853-2.88.533-4.48-.853-2.24-1.811-2.88-1.491-2.88 1.386zm-99.946 2.451c1.92 2.344 1.92 3.623 0 5.541-1.387 1.386-2.454 3.943-2.454 5.755.107 2.345 1.28 1.812 4.054-1.812 2.56-3.303 5.226-4.689 7.36-3.836 1.92.746 3.52.426 3.52-.746 0-1.066-.96-2.025-2.134-2.025-1.173 0-2.133-1.279-2.133-2.984s-2.24-2.877-5.333-2.877c-4.48 0-4.907.533-2.88 2.984zm-277.654 13.747c.64 8.312.534 15.452-.213 15.879-1.707 1.065-1.173 42.947.533 44.652 4.054 3.943 4.267-25.896.427-39.963-.747-2.558-.107-3.304 2.133-2.558 1.707.746 3.734.213 4.48-1.066.854-1.278-.106-2.877-1.92-3.516-2.56-.959-3.306-4.583-3.306-14.92 0-7.46-.747-13.64-1.6-13.64-.96 0-1.174 6.82-.534 15.132zm330.454-9.591c-1.494 36.553-.64 58.932 2.24 54.35 1.706-2.771 1.066-57.547-.747-59.359-.747-.639-1.387 1.599-1.493 5.009zm-37.44-.107c0 1.279 2.666 1.812 5.973 1.386 3.627-.533 6.08.106 6.08 1.492 0 1.279-1.173 2.344-2.667 2.344-1.813.107-1.92.533-.32 1.599 1.28.852 3.947 4.582 5.76 8.206 3.2 6.18 13.654 15.026 15.467 13.107.427-.426-2.453-3.943-6.613-7.779-7.574-7.14-9.28-10.87-4.8-10.87 1.386 0 .746-1.279-1.387-2.877-5.013-3.624-2.56-7.78 4.693-7.78 4.374 0 5.12.533 3.094 2.558-3.627 3.623-3.2 6.074.96 4.476 2.666-.959 3.093-.533 1.813 1.705-1.067 1.811-.213 1.598 2.133-.64 3.307-2.983 3.414-4.156 1.174-6.927-3.307-3.942-31.36-3.836-31.36 0zm340.586 28.454c0 2.238-2.026 4.583-4.8 5.435-4.693 1.492-4.693 1.492.96 3.623 3.094 1.173 6.187 3.73 6.614 5.648.533 2.025 1.066-1.385 1.28-7.566.106-6.181-.747-11.189-1.92-11.189-1.174 0-2.134 1.811-2.134 4.049zm-484.266 55.628c0 4.689.96 8.526 2.133 8.526s2.133-1.599 2.133-3.517 1.6-4.582 3.52-6.074c4.267-3.091 2.134-7.46-3.626-7.46-3.414 0-4.16 1.492-4.16 8.525zm27.733-4.156c0 2.451-.96 3.837-2.133 3.091-1.174-.746-2.134.533-2.134 2.664 0 3.09 1.6 4.05 6.4 4.05 6.4 0 8.32-2.132 4.267-4.583-1.173-.746-2.133-3.197-2.133-5.435 0-2.344-.96-4.156-2.134-4.156-1.173 0-2.133 2.025-2.133 4.369zm53.333-3.623c0 5.968 5.12 13.96 7.68 11.829 2.134-1.812 2.987-1.812 2.987 0 0 1.279.96 2.345 2.133 2.345 1.174 0 2.134-1.919 2.134-4.263 0-2.345-.96-4.263-2.134-4.263-1.173 0-2.133-1.492-2.133-3.197 0-1.812-1.067-3.197-2.347-3.197s-1.813 1.385-1.173 3.091c.64 1.811.32 3.729-.853 4.475-1.067.64-2.027-.746-2.027-3.197 0-2.344-.96-4.369-2.133-4.369-1.174 0-2.134.32-2.134.746zm16.32 4.582c.32 2.345.747 5.435.747 6.927 0 4.263 8.533 3.197 8.64-1.065.213-3.197.427-3.091 2.027.533 1.706 4.049 1.813 4.049 2.026-.533.107-3.943-1.066-4.796-6.186-4.796-3.414 0-6.614-1.172-7.147-2.664-.427-1.492-.533-.746-.107 1.598zm53.334-3.943c-2.24 2.238-1.6 13.535.746 13.535 1.174 0 2.134-2.984 2.134-6.501 0-3.837.853-5.968 2.133-5.222 1.173.746 2.133.32 2.133-.959 0-2.451-4.906-3.09-7.146-.853zm32.96 5.435c-.214 7.78-.107 7.78 8.32 7.673 6.826 0 8.533-.852 8.533-3.943 0-4.476-3.413-7.353-5.227-4.369-1.813 2.984-9.386.213-10.453-3.73-.427-1.918-.96 0-1.173 4.369zm24.106.746c.96 10.337 3.414 11.936 3.414 2.238 0-4.369.853-7.353 1.92-6.713 1.066.639 1.706 3.41 1.386 6.18-.426 4.263.427 5.009 6.614 5.222 5.76.213 7.146-.533 7.146-3.943 0-2.77-1.493-4.156-4.373-4.156s-3.947.853-2.88 2.664c.853 1.599.747 1.919-.427.853-1.066-.959-1.92-2.345-1.92-3.197-.106-3.41-3.733-6.714-7.466-6.714-3.307 0-3.947 1.279-3.414 7.566zm60.694.959c.426 4.689 1.6 7.993 2.56 7.354 1.066-.64 1.28-2.665.533-4.583-.96-2.344-.533-2.984 1.173-1.918 1.28.853 2.454.639 2.454-.533 0-1.172-1.174-2.557-2.667-3.09-1.493-.533-2.133-1.492-1.387-2.345 2.667-2.771 8.107 1.386 8.96 6.927.64 4.583.96 4.263 1.174-1.918.32-7.034-.107-7.566-6.72-7.993-6.934-.532-6.934-.426-6.08 8.099zm78.933-5.328c-1.707 1.705.64 13.854 2.667 13.854 1.066 0 1.92-3.41 1.92-7.46 0-6.714-1.814-9.271-4.587-6.394zm10.667 0c-1.707 1.705.64 13.854 2.666 13.854 1.067 0 1.92-3.41 1.92-7.46 0-6.714-1.813-9.271-4.586-6.394zm-323.094 3.517c-.96 1.492-.64 1.918.96.959s2.454.107 2.454 2.984c0 2.451.96 3.943 2.133 3.197s2.133.213 2.133 2.025c0 1.811 1.814 3.303 4.16 3.303 3.2 0 4.054-1.385 3.947-6.5-.213-5.329-1.067-6.394-4.693-5.968-2.454.32-5.654-.107-7.04-.959-1.387-.853-3.2-.427-4.054.959zm22.507 2.771c-.213 4.369-.213 4.369-2.027.106-1.706-4.049-1.813-4.049-2.026.533-.107 4.263.96 4.796 8.533 4.796 7.787 0 8.64-.533 8-4.583-.96-6.501-12.267-7.246-12.48-.852zm55.573.106c0 5.968 4.16 7.46 4.374 1.599.213-3.197.426-3.091 2.026.533 1.814 4.156 1.814 4.156 2.027-.32 0-2.451-1.387-5.115-3.307-5.861-4.906-1.919-5.12-1.706-5.12 4.049zm22.614-3.73c-3.307 3.304-1.174 13.321 2.88 13.321 3.2 0 4.053-1.385 3.946-6.287-.213-5.968-4.053-9.911-6.826-7.034zm153.92.107c-7.147.852-8.64 8.952-1.6 8.952 2.666 0 4.266-1.386 4.266-3.73.107-3.091.427-3.197 2.027-.64 2.027 3.304 10.773 5.435 10.773 2.664 0-3.516-6.293-10.23-6.4-6.82 0 1.918-.746 2.345-1.6 1.066-.853-1.172-4.266-1.812-7.466-1.492zm16.533 2.131c.533 1.599 1.067 3.73 1.067 4.583 0 .959 2.88 2.131 6.4 2.664 5.12.746 6.4.213 6.4-2.878 0-2.237 1.173-3.943 2.453-3.943 6.827 0-1.493-2.877-8.853-3.09-6.4-.107-8.32.533-7.467 2.664zm-295.467 2.558c0 5.222 3.627 5.648 4.907.533.96-3.517.96-3.517 1.28 0 .107 2.024 1.067 3.73 2.24 3.73 1.067 0 1.813-1.919 1.707-4.263-.32-2.877-1.92-4.263-5.227-4.263-3.52 0-4.907 1.279-4.907 4.263zm113.067 0c0 5.222 4.16 5.755 4.373.533.214-3.197.427-3.091 2.027.533 1.707 4.049 1.813 4.049 2.027-.533.106-3.41-1.067-4.796-4.16-4.796-2.88 0-4.267 1.386-4.267 4.263zm32.213-.746c-.106 3.517 1.28 4.689 6.187 5.435 5.013.746 6.4.213 6.4-2.771 0-2.025 1.173-4.156 2.667-4.795 1.493-.533-.427-1.173-4.16-1.173-5.334-.213-6.614.533-5.654 2.984.64 1.705.214 3.197-.96 3.197-1.28 0-2.666-1.705-3.2-3.73-.746-2.984-1.066-2.77-1.28.853zm74.667 1.279c.213 3.623.533 3.836 1.28 1.065 1.173-4.582 4.907-5.008 4.907-.532 0 1.705.96 3.197 2.026 3.197 1.174 0 1.6-1.492.854-3.197-.64-1.812-.107-3.198 1.173-3.198s2.347 1.386 2.347 3.198c0 4.902 12.693 4.369 13.013-.533.107-2.451.747-1.919 1.92 1.598l1.707 5.329.213-5.862c.213-5.861.213-5.861-14.72-5.861-14.187 0-14.933.213-14.72 4.796zm256.64 21.846c0 14.067.32 19.502.747 12.149.426-7.353.426-18.863 0-25.576-.427-6.714-.747-.64-.747 13.427zm-489.387-3.09c0 2.024 366.507.639 368.854-1.492.533-.427-82.24-.746-184-.746-127.254 0-184.854.746-184.854 2.238zm2.134 20.141c-4.8 5.861 3.626 15.346 8.853 10.124 1.6-1.599 1.067-2.131-1.707-1.918-2.666.213-3.946-1.066-3.946-3.943 0-2.771 1.28-4.157 3.733-3.943 2.027.106 3.733-.533 3.733-1.599 0-3.09-7.786-2.131-10.666 1.279zm12.8 4.263c0 6.074.853 7.459 4.266 7.459 5.12 0 5.867-7.246 1.174-11.829-4.48-4.582-5.44-3.836-5.44 4.37zm56.426-5.222c-4.693 7.566 5.227 16.305 11.414 10.124 2.026-2.025 2.56-2.025 2.56 0 0 4.049 4.266 2.984 4.373-1.172.213-3.198.427-3.091 2.027.532 1.6 3.73 1.813 3.624 2.026-1.598.107-4.796-.853-5.861-5.12-5.861-2.88 0-5.76-.96-6.506-2.132-1.707-2.77-8.96-2.77-10.774.107zm9.707 5.222c0 3.303-1.173 5.328-3.2 5.328s-3.2-2.025-3.2-5.328c0-3.304 1.173-5.329 3.2-5.329s3.2 2.025 3.2 5.329zm34.133-5.009c0 1.385 1.707 4.476 3.734 6.82 3.52 4.05 3.52 4.156 0 2.878-2.027-.746-3.734-.427-3.734.746 0 1.065 1.92 2.024 4.267 2.024 5.333 0 5.653-5.861.533-10.017-3.52-2.984-3.52-3.09 0-1.918 2.027.639 3.734.213 3.734-.959 0-1.066-1.92-2.025-4.267-2.025-2.347 0-4.267 1.172-4.267 2.451zm76.8 1.812c-2.026 2.77-3.733 3.516-5.12 2.131-3.626-3.623-7.36-2.345-8.32 2.664l-.96 4.796-.213-4.796c-.32-4.476-6.72-7.246-6.72-2.877 0 1.066-.533 3.517-1.28 5.328-1.173 2.878.853 3.41 13.867 3.197l15.146-.213v-7.246c0-8.206-1.92-9.165-6.4-2.984zm12.8-1.812c0 1.385 1.707 4.476 3.734 6.82 3.52 4.05 3.52 4.156 0 2.878-2.027-.746-3.734-.427-3.734.746 0 1.065 1.92 2.024 4.267 2.024 5.333 0 5.653-5.861.533-10.017-3.52-2.984-3.52-3.09 0-1.918 2.027.639 3.734.213 3.734-.959 0-1.066-1.92-2.025-4.267-2.025-2.347 0-4.267 1.172-4.267 2.451zm48.854.213c-.214 1.492-.214 4.583-.214 6.927.107 3.41-.106 3.517-.96.639-2.346-7.992-37.013-8.312-37.013-.319 0 6.927 21.227 6.82 21.44-.213.213-4.263.213-4.263 2.027.213 3.52 8.738 19.2 6.607 19.2-2.558 0-6.714-3.947-10.87-4.48-4.689zm9.6-.852c.64 1.065 2.24 4.582 3.52 7.886 1.813 4.902 2.666 5.541 4.266 2.983 1.707-2.557 2.347-2.557 3.947-.213 1.493 2.451 2.027 2.451 2.987 0 .853-2.024 1.706-2.238 2.88-.426 3.306 4.476 13.546 2.877 13.653-2.238.213-4.369.213-4.369 2.133.32 3.094 7.673 19.094 7.033 19.094-.746 0-4.583-.854-5.435-4.267-4.476-2.773.746-4.267 0-4.267-1.918 0-3.304-3.52-4.05-4.586-.959-.427 1.172-4.587 2.238-9.28 2.557-4.694.213-9.92 1.386-11.52 2.665-2.347 1.918-2.667 1.385-1.494-2.452.96-2.77.64-4.795-.533-4.795s-2.56 2.131-3.093 4.795l-.96 4.796-.214-4.796c-.213-2.664-1.173-4.795-2.346-4.795-1.067 0-2.347 2.131-2.88 4.795l-.96 4.796-.214-4.796c-.213-2.77-1.706-4.795-3.626-4.795-1.814 0-2.88.852-2.24 1.812zm-218.454 2.131c0 1.066-2.346 1.385-5.12.852-4.16-.746-5.44.107-6.186 4.05-.854 5.009-.96 5.009-1.174.213-.426-6.714-6.72-6.287-6.72.533 0 3.836 1.174 5.328 4.054 5.328 2.24 0 4.586 1.173 5.12 2.665.64 1.811 2.453.959 5.44-2.451 2.56-2.771 4.586-4.157 4.586-2.984 0 1.172 2.88 2.238 6.4 2.344 3.52.107 6.4-.852 6.4-2.025 0-1.065-.96-1.492-2.133-.746s-2.133-.213-2.133-2.131c0-1.918.96-2.877 2.133-2.131s2.133.213 2.133-1.173c0-1.492-1.813-2.024-4.266-1.385-2.347.639-4.267.213-4.267-.853 0-1.065-.96-1.918-2.133-1.918-1.174 0-2.134.853-2.134 1.812zm106.24-.64c-3.626 3.624 1.28 11.616 7.254 11.616 5.76 0 7.146-5.328 2.666-10.337-2.026-2.238-5.226 2.451-3.2 4.796 1.6 1.918 1.28 2.664-1.173 2.664-2.133 0-2.987-1.279-2.24-3.836.96-3.837-1.173-7.034-3.307-4.903zm198.187.427c-1.707 2.771 1.067 15.452 2.987 14.28 2.56-1.599 2.453-15.879-.107-15.879-1.067 0-2.453.746-2.88 1.599zm8.107.533c-.747 1.172-.214 2.131 1.066 2.131 1.6 0 2.027 2.238 1.067 6.394-.747 3.517-.853 6.394-.107 6.394 1.28 0 7.574-13.321 7.574-15.879 0-2.131-8.214-1.172-9.6.96zm-260.16 1.705c-3.947 3.943-.747 8.632 5.76 8.419l6.933-.32-5.867-2.132c-3.2-1.172-5.866-2.983-5.866-3.943 0-1.065.96-1.278 2.133-.532s3.733.426 5.653-.64c2.88-1.705 2.56-2.025-2.026-2.025-3.094 0-6.08.533-6.72 1.173zm28.693 3.73c0 4.369 1.067 5.221 6.4 5.221s6.4-.852 6.4-5.008c0-4.05-1.173-5.009-6.4-5.222-5.44-.107-6.4.639-6.4 5.009zm14.933-.214c0 4.05 1.067 5.435 4.374 5.435 3.413 0 4.266-1.172 3.733-4.795-.96-7.034-8.107-7.673-8.107-.64zm-139.733 20.355c-.853 1.385 60.8 2.131 183.36 2.131 121.707 0 184.64-.746 184.64-2.131 0-1.385-62.507-2.131-183.36-2.131-119.893 0-183.787.746-184.64 2.131zm-.213 22.273c-3.094 7.992 4.693 15.665 10.24 10.124 1.493-1.492.853-2.025-1.814-1.812-2.666.213-3.946-1.066-3.946-3.943 0-2.771 1.28-4.156 3.733-3.943 2.027.106 3.733-.533 3.733-1.599 0-3.197-10.666-2.131-11.946 1.173zm14.186 4.582c.214 6.607.534 7.46 2.027 4.05 1.387-3.197 1.92-3.411 2.027-.853.213 6.181 12.906 4.796 12.906-1.385 0-3.197-1.28-5.222-3.2-5.222-1.706 0-3.2 1.492-3.2 3.303 0 2.345-1.6 1.599-5.333-2.451l-5.333-5.754.106 8.312zm56.107-6.181c2.987.746 3.733 2.558 2.987 7.247-.534 3.73.106 6.181 1.6 6.181 1.493 0 2.133-2.665 1.6-6.927-.747-6.608-.64-6.714 2.56-2.771 1.813 2.238 3.306 5.541 3.306 7.14 0 2.451.64 2.558 3.2.426 2.56-2.131 3.2-2.131 3.2.32.107 2.238.534 2.238 2.134-.32 1.493-2.238 2.56-2.451 3.733-.746.853 1.279 4.48 2.345 8 2.345 3.52-.107 5.227-.533 3.733-1.066-3.413-1.172-3.413-6.287 0-7.46 1.387-.426-1.173-.959-5.76-1.172-4.693-.213-9.173.853-10.133 2.238-1.28 2.131-1.6 2.131-1.707 0 0-1.492-1.92-2.664-4.266-2.664-2.347 0-4.267-.959-4.267-2.132 0-1.172-3.093-2.024-6.933-1.918-4.054.213-5.227.746-2.987 1.279zm44.48 5.968c.213 7.033 10.24 12.255 10.24 5.435 0-1.172-1.6-1.492-3.52-.746-2.88 1.066-3.307.106-2.453-5.435.64-4.583.106-6.714-1.814-6.714-1.813 0-2.666 2.664-2.453 7.46zm232.533 1.598c.96 10.337 8.107 10.977 8.107.64 0-6.181-.747-7.567-4.373-7.567-3.734 0-4.374 1.173-3.734 6.927zm-314.026 2.665c0 4.049 1.066 7.459 2.24 7.459 1.28 0 1.706-.852 1.066-1.918-.64-1.066.32-2.451 2.027-3.09 4.907-1.919 4.053-9.911-1.067-9.911-3.413 0-4.266 1.385-4.266 7.46zm15.786-4.37c-1.813 4.583.534 7.034 6.614 7.034 3.733 0 5.333-1.172 5.333-3.837 0-2.131 1.173-4.262 2.667-4.902 1.493-.533-.96-1.172-5.44-1.172-5.12-.107-8.427.852-9.174 2.877zm78.4 1.279c-.32 5.115.32 5.435 10.347 5.755 9.92.213 10.667-.107 10.667-4.796 0-6.82-14.72-6.714-17.174.107-1.386 3.73-1.6 3.623-2.56-1.172l-1.066-5.329-.214 5.435zm-97.386 19.182c-17.6.64 51.306 1.386 153.066 1.599 136.32.32 185.067-.213 185.067-2.025 0-2.451-267.627-2.131-338.133.426zm-30.827 21.101c-3.733 6.927-.64 10.763 8.64 10.337 5.973-.213 8.32-1.279 8.427-3.624.106-2.557.64-2.344 2.026.853 1.707 4.05 1.814 4.05 2.027-.533 0-2.664-.853-4.795-2.027-4.795-1.173 0-2.133-1.492-2.133-3.197 0-1.812-.96-3.197-2.133-3.197-1.174 0-2.134 2.344-2.134 5.115 0 5.328-5.76 9.165-8.96 5.968-2.773-2.771.534-9.378 3.947-8.1 1.6.64 2.88.214 2.88-.959 0-3.73-8.32-2.131-10.56 2.132zm68.16-1.918c0 1.278.96 1.705 2.133.959 1.28-.746 2.134 1.385 2.134 5.221 0 3.517.96 6.501 2.133 6.501s2.133-2.451 2.133-5.328c0-2.984.96-5.329 2.134-5.329 1.173 0 2.133 2.345 2.133 5.329 0 3.943 1.173 5.328 4.267 5.328 5.44 0 5.653-6.607.32-11.403-4.267-3.836-17.387-4.795-17.387-1.278zm57.6 5.115c0 7.353 2.88 10.23 5.013 4.902.854-2.131 1.067-2.131 1.174 0 .106 1.811 4.053 2.664 11.626 2.664h11.414l-2.347-7.46c-2.347-7.566-5.547-10.017-5.547-4.262 0 1.705-.746 3.09-1.6 2.984-4.48-.746-6.933.532-6.933 3.729 0 2.025-.64 2.878-1.493 2.025-.854-.852-1.6-3.623-1.6-6.181-.107-3.197-1.6-4.902-4.907-5.328-4.16-.64-4.8.213-4.8 6.927zm53.44-.959c-.32 4.049-1.067 5.754-1.6 3.73-.533-2.025-1.813-3.73-2.773-3.73-.96 0-2.24 1.705-2.774 3.73-.853 2.983-1.066 2.877-1.28-.746-.32-6.075-13.013-4.689-13.013 1.491 0 5.116 3.627 5.329 4.907.32.853-3.197 1.066-3.09 1.386.533.427 4.263.427 4.263 2.24 0 1.494-3.623 1.814-3.623 2.027-.533.107 3.197 2.453 3.623 19.307 3.41l19.2-.319v-7.14c0-3.943-.96-7.14-2.134-7.14-2.133 0-2.666 2.024-2.56 9.591.107 3.73 0 3.836-.96.319-1.066-3.623-1.28-3.623-5.226-.106-2.347 2.131-4.054 2.664-4.054 1.172 0-1.385 1.067-2.451 2.24-2.451 1.28 0 1.707-.959.854-2.238-.854-1.492-2.24-1.492-4.374.213-2.453 2.025-2.986 1.705-2.986-2.025 0-2.451-.96-4.475-2.027-4.475-1.173 0-1.6 2.77-.853 6.394.746 3.943.426 6.394-.96 6.394-1.28 0-2.667-3.091-3.2-6.927l-.854-6.927-.533 7.46zm34.987-4.156c-.747 1.278.426 4.262 2.56 6.82 3.626 4.049 3.626 4.369.213 3.09-2.027-.746-3.733-.533-3.733.533s4.373 1.918 9.6 1.918c9.066 0 9.6-.319 9.386-5.754l-.213-5.648-1.493 5.328-1.494 5.328-1.706-5.328c-1.494-4.476-1.92-4.689-2.774-1.492-.746 3.091-1.6 3.304-4.053 1.385-3.413-2.877-4.16-7.246-.853-5.221 1.173.746 2.133.319 2.133-.959 0-2.878-5.76-2.878-7.573 0zm-170.347 1.598c-.853 1.385-3.84 2.558-6.72 2.558s-5.227 1.172-5.333 2.664c0 1.492-.96.959-2.24-1.066-1.174-2.131-3.094-3.197-4.267-2.557-1.387.852-1.067 2.664.64 4.795 2.027 2.558 2.133 2.984.107 1.812-1.494-.959-2.667-.64-2.667.639 0 1.172 1.92 2.238 4.267 2.238 2.346 0 4.266.959 4.266 2.131 0 5.116 4.267 1.492 4.374-3.729.106-3.837.64-4.796 1.6-2.665 1.92 4.263 7.04 5.222 9.28 1.705 1.386-2.131 1.706-2.131 1.813-.106 0 1.492 1.493 2.664 3.2 2.664 1.813 0 3.2-1.812 3.2-4.156 0-5.009-3.413-7.46-5.547-4.05-1.066 1.812-2.026 1.386-2.986-1.385-.96-2.771-1.92-3.197-2.987-1.492zm50.453 2.025c-3.093 1.065-3.626 9.058-.64 9.058 1.174 0 1.6-1.492.854-3.197-.64-1.812-.107-3.197 1.173-3.197s2.347 1.385 2.347 2.984c0 2.131 2.88 2.984 10.773 2.877 5.973-.106 9.6-.852 8.107-1.811-1.494-.853-3.414-1.173-4.267-.64-.853.533-2.133-.106-2.88-1.279-.747-1.278-.64-2.131.427-1.918 4.053.746 9.813-.32 8.533-1.492-1.6-1.598-20.693-2.664-24.427-1.385zm142.08-1.172c-1.6 4.049-.64 10.23 1.707 10.23 3.307 0 3.947-7.673.747-9.591-1.174-.746-2.24-1.066-2.454-.639zm9.387 1.065c-3.2 1.172-3.627 13.428-.427 13.428 1.28 0 1.707-.959.96-2.132-.746-1.172.214-2.131 2.027-2.131 1.813 0 3.307-1.812 3.307-4.156 0-4.689-2.027-6.394-5.867-5.009zm13.653-.106c-.746.852-1.386 3.09-1.386 5.115 0 5.115 27.626 5.222 27.84.106.106-2.557.64-2.344 2.133.853 1.813 3.943 1.92 3.836 1.493-.853-.533-5.115-13.12-8.312-15.786-4.049-.427.852-3.307.639-6.294-.533-6.4-2.451-6.186-2.344-8-.639zm34.56-.853c-1.493 3.091-.64 10.124 1.28 10.124 3.947 0 5.12-1.918 3.84-6.501-.853-3.41-4.053-5.648-5.12-3.623zm54.72 1.599c-.64.959.107 2.238 1.6 2.77 2.134.746 2.134 1.492 0 3.73-3.84 4.05-3.306 6.288 1.387 6.288 2.24 0 3.84-1.172 3.733-2.664-.213-1.492.64-2.665 1.814-2.665 1.173 0 2.026 1.173 1.813 2.665-.427 4.156 3.093 3.09 5.76-1.812 4.267-7.886-11.413-15.985-16.107-8.312zm-193.066 23.445l-156.8 1.065 185.066.533c101.76.32 185.067-.213 185.067-1.066 0-1.918-10.133-1.918-213.333-.532zm-153.28 21.1c-1.494.959-2.454 4.05-2.134 6.82.96 6.394 15.787 8.313 17.494 2.238.746-3.09.96-3.09 1.173.213.32 5.648 13.013 5.222 13.013-.426 0-4.689-3.2-7.353-6.506-5.328-1.494.959-1.6 2.131 0 3.943 1.6 1.918 1.28 2.664-.96 2.664-1.814 0-3.2-1.279-3.2-2.984 0-7.247-11.734-11.722-18.88-7.14zm7.146 2.344c.747 1.279 2.24 1.599 3.307.96 1.173-.64 2.027.532 2.027 2.664 0 2.664-1.707 4.156-5.334 4.369-4.373.426-5.333-.426-5.333-4.796 0-5.434 2.88-7.14 5.333-3.197zm60.8 3.197c0 4.05.96 7.46 2.134 7.46 1.173 0 2.133-1.385 2.133-2.984 0-1.705 1.173-3.516 2.667-4.156 2.133-.852 2.133-1.065 0-1.172-1.494-.107-2.667-1.279-2.667-2.558 0-1.278 1.493-1.811 3.2-1.172 1.813.746 3.2.32 3.2-.852 0-1.066-2.347-2.025-5.333-2.025-4.694 0-5.334.959-5.334 7.459zm47.787-5.008c-.853 1.385.64 4.263 3.627 6.714 5.013 4.156 5.013 4.156.32 2.664-2.88-.853-4.8-.533-4.8.852 0 1.173 2.453 2.238 5.333 2.238 6.187 0 6.827-3.303 1.707-8.951-3.414-3.73-3.414-3.943 0-2.665 2.026.853 3.626.427 3.626-.959 0-3.09-7.893-2.984-9.813.107zm-73.6.639c-4.587 4.583.96 11.723 8.96 11.403 4.587-.107 8.32-.959 8.32-1.918 0-.853.533-2.984 1.173-4.689.96-2.451-.426-3.091-5.653-2.771-4.693.213-7.36 1.705-8.427 4.582-1.28 3.624-1.6 3.304-2.346-1.918-.427-3.303-1.28-5.435-2.027-4.689zm304.64.427c-5.867 5.861-1.28 13.534 8 13.534 9.387 0 9.387 0 9.067-7.46-.32-5.435-1.387-7.46-4.054-7.46-2.24 0-3.413 1.599-3.306 4.263.213 2.344 1.173 4.263 2.026 4.263.96 0 1.707.959 1.707 2.131 0 4.902-6.187 1.705-6.827-3.517-.64-5.754-3.84-8.525-6.613-5.754zm-315.52 8.205c-.96 8.632-.853 8.845 5.013 3.304 4.8-4.369 4.16-10.764-1.066-10.764-1.92 0-3.414 2.878-3.947 7.46zm48.853-6.074c-3.306 3.303-1.386 9.271 2.88 9.271 3.414 0 4.267-1.172 3.734-4.582-.64-4.902-4.054-7.247-6.614-4.689zm9.387 3.41c-.213 5.115.533 5.861 6.187 5.861 4.266 0 6.4-1.065 6.4-3.197 0-1.811 1.493-3.197 3.2-3.197 1.813 0 3.2-.959 3.2-2.131 0-4.476-14.934-1.279-15.147 3.197-.213 3.517-.533 3.303-1.92-1.066l-1.707-5.328-.213 5.861zm43.627-3.09c-3.307 3.197-.96 9.378 3.093 8.312 2.773-.746 4.267 0 4.267 1.918 0 1.599 2.026 2.984 4.48 2.984 3.626 0 4.266-.959 3.306-4.582-.853-3.411-.533-3.943 1.28-2.132 4.16 4.156 8 2.771 8-2.877 0-5.435-2.88-7.14-5.333-3.197-.747 1.279-2.453 1.492-3.84.639-3.093-2.025-13.653-2.664-15.253-1.065zm-135.574 23.871c0 1.172 1.92 2.131 4.267 2.131 2.347 0 4.267 1.172 4.267 2.664.106 1.812.533 1.919 1.6.32 1.173-1.705 53.76-2.771 179.626-3.836 98.027-.853 178.56-1.919 179.094-2.452.533-.532-82.24-.959-184-.959-121.814 0-184.854.746-184.854 2.132zm-1.066 23.551c-2.24 6.927 6.933 14.493 10.56 8.632.64-.959-.534-1.705-2.56-1.598-2.454.213-3.734-1.173-3.734-3.943 0-2.771 1.28-4.156 3.734-3.943 2.026.106 3.733-.533 3.733-1.599 0-4.049-10.347-1.918-11.733 2.451zm13.866 2.984c0 7.14.214 7.247 8.534 7.14 7.573-.106 8.533-.639 8.533-5.115 0-3.091-1.28-5.115-3.2-5.115-1.707 0-3.2 1.705-3.307 3.73 0 2.77-.96 2.237-3.626-2.132-4.907-7.779-6.934-7.353-6.934 1.492zm56.534.107c0 4.689 1.066 7.459 2.773 7.459 1.6 0 2.24-.959 1.493-2.131-.746-1.172.214-3.623 2.027-5.541 4.693-4.583 4.16-7.247-1.493-7.247-4.054 0-4.8 1.172-4.8 7.46zm44.48-5.968c3.093.852 3.733 2.344 2.773 7.246-.747 3.411-.32 6.181.853 6.181 1.067 0 2.027-2.877 2.027-6.394 0-4.475 1.067-6.394 3.413-6.394 2.667 0 3.2 1.492 2.56 6.394-1.066 7.354 1.814 8.846 3.2 1.599.96-4.796.96-4.796 1.174-.107.213 3.73 1.386 4.476 6.186 3.943 8.32-.959 8.32-.959 4.8-3.303-2.133-1.386-2.346-2.025-.533-2.132 1.493 0 2.667-1.065 2.667-2.344 0-1.492-2.027-1.918-5.227-1.066-3.2.853-6.293.107-8.32-1.918-1.813-1.812-6.613-3.09-11.413-2.984-4.48.213-6.294.746-4.16 1.279zm33.386.746c0 1.279.96 1.705 2.134.959 1.28-.746 2.133 1.385 2.133 5.222 0 3.517.96 6.5 2.133 6.5 1.174 0 2.134-2.983 2.134-6.5 0-3.837.853-5.968 2.133-5.222 1.173.746 2.133 3.623 2.133 6.501 0 3.836 1.174 5.221 4.267 5.221 3.2 0 4.267-1.385 4.267-5.541 0-4.156-.854-5.222-3.307-4.263-1.813.64-3.733-.106-4.48-1.918-1.387-3.623-13.547-4.476-13.547-.959zm71.467 5.222c0 4.049.747 7.459 1.6 7.459.853 0 1.6-1.491 1.6-3.197 0-4.049 5.547-4.156 7.147-.106 2.026 5.435 14.186 3.517 14.186-2.238 0-4.369-.96-4.902-7.466-4.369-5.014.426-7.467-.32-7.467-2.238 0-1.492-2.133-2.771-4.8-2.771-4.053 0-4.8 1.172-4.8 7.46zm121.92-6.075c-2.24 2.238-1.6 5.435.747 3.943 1.173-.746 2.133-.319 2.133.853s-.96 2.664-2.133 3.41c-5.334 3.304-1.92 7.14 6.4 7.034 10.133-.107 11.093-1.173 9.28-10.018-1.387-7.246-7.04-9.271-6.614-2.344.214 2.344 1.174 4.262 2.027 4.262.96 0 1.707.959 1.707 2.132 0 1.172-2.56 2.131-5.547 2.131-4.8 0-5.227-.533-2.987-3.197 4.16-5.009-.426-12.681-5.013-8.206zm-298.133 4.476c-.107 2.238-.534 2.664-1.174 1.066-2.56-6.288-9.28-2.877-9.28 4.795 0 8.632 1.174 9.165 6.72 2.878 2.134-2.558 3.947-3.624 3.947-2.451 0 1.172 2.88 2.238 6.4 2.344 6.4.107 8.64-2.557 3.733-4.582-2.133-.853-2.133-1.066 0-1.173 1.494-.106 2.667-1.278 2.667-2.557 0-1.386-1.92-1.918-4.267-1.279-2.346.639-4.266.213-4.266-.852 0-3.624-4.267-1.919-4.48 1.811zm49.28.107c0 4.156 5.12 8.419 10.026 8.419l5.974-.107-5.867-2.451-5.867-2.451 5.867-2.238c5.76-2.131 5.76-2.131-2.133-2.025-4.374 0-8 .426-8 .853zm78.933 3.623c0 2.877.96 5.328 2.027 5.328 1.173 0 1.6-1.385.96-2.983-.64-1.599-.107-3.624 1.173-4.37 1.28-.852 2.24.427 2.24 2.984 0 2.984 1.387 4.369 4.267 4.369 3.093 0 4.266-1.385 4.266-5.328 0-4.689-.96-5.328-7.466-5.328-6.507 0-7.467.639-7.467 5.328zm17.067.426c0 6.821 8.426 6.927 8.746.107.214-4.583.32-4.583 1.92.533l1.707 5.328.213-5.861c.214-5.329-.426-5.861-6.186-5.435-5.12.426-6.4 1.492-6.4 5.328zm16.32-4.369c-.747.853-1.387 4.263-1.387 7.673 0 9.058 7.147 7.14 7.893-2.131.534-6.608-2.666-9.272-6.506-5.542zm41.493 4.369l.213 5.968 1.707-5.328c1.6-5.116 1.707-5.116 1.92-.533.107 2.664 1.28 4.795 2.453 4.795 3.84 0 1.28-9.484-2.773-10.23-2.88-.533-3.733.639-3.52 5.328zm-244.48 17.691c-.853 1.385 60.8 2.131 183.36 2.131 121.707 0 184.64-.746 184.64-2.131 0-1.386-62.507-2.132-183.36-2.132-119.893 0-183.787.746-184.64 2.132zm-.96 23.338c-3.947 7.246 2.133 14.706 8.64 10.55 2.453-1.492 2.347-1.811-.64-1.918-1.92 0-4.16-.853-4.8-1.918-2.027-3.197 1.28-9.059 4.48-7.886 1.6.639 2.88.213 2.88-.959 0-3.73-8.32-2.132-10.56 2.131zm12.693 3.304c0 7.353 4.16 10.869 4.374 3.729.213-3.197.426-3.09 2.026.533 1.707 4.05 1.814 4.05 2.027-.533 0-2.664-.853-4.795-2.027-4.795-1.173 0-2.133-1.492-2.133-3.197 0-1.812-.96-3.197-2.133-3.197-1.174 0-2.134 3.303-2.134 7.46zm51.947-4.157c-.747 1.919.427 4.689 2.667 6.608 3.626 2.877 3.626 3.09.32 2.024-2.027-.639-3.734-.213-3.734.96 0 1.065 1.92 2.024 4.267 2.024 4.373 0 5.867-5.115 2.133-7.459-1.173-.746-2.133-2.452-2.133-3.837 0-1.492.853-1.279 2.133.639 1.814 2.771 2.027 2.665 2.134-.532 0-4.583-6.08-4.902-7.787-.427zm33.387-1.172c0 1.172.96 2.131 2.133 2.131s2.133 2.878 2.133 6.395c0 3.516.96 6.394 2.134 6.394 1.173 0 2.133-3.411 2.133-7.567 0-4.582.853-7.033 2.133-6.287 1.174.746 2.134.32 2.134-.959 0-1.173-2.88-2.238-6.4-2.238-3.52 0-6.4.959-6.4 2.131zm27.733 5.222c0 4.156.96 7.566 2.133 7.566 1.174 0 2.134-1.492 2.134-3.197 0-1.811 1.066-3.197 2.346-3.197s1.92 1.279 1.28 2.877c-.746 2.025.854 2.878 5.654 2.984 3.733 0 5.546-.426 4.053-.959-1.493-.532-2.667-2.557-2.667-4.582-.106-2.877-.426-2.984-1.92-.533-1.493 2.345-2.133 1.812-2.666-2.131-1.28-9.165-10.347-8.206-10.347 1.172zm21.333-4.156c0 1.705-.96 3.197-2.133 3.197s-2.133 1.066-2.133 2.238c0 1.279.96 1.705 2.133.959 1.173-.746 2.133.213 2.133 2.025 0 1.918 1.814 3.303 4.267 3.303 2.88 0 4.267-1.385 4.267-4.262 0-2.345-.96-4.263-2.134-4.263-1.173 0-2.133-1.492-2.133-3.197 0-1.812-.96-3.197-2.133-3.197-1.174 0-2.134 1.385-2.134 3.197zm192 1.172c0 1.279.96 1.705 2.134.959 1.173-.746 2.133.107 2.133 1.918 0 1.705-.96 3.73-2.133 4.476-3.414 2.132-2.454 5.329 1.6 5.329 2.773 0 3.84-1.919 4.16-7.46.213-6.074-.427-7.46-3.734-7.46-2.346 0-4.16 1.066-4.16 2.238zm10.24 2.877c-1.386 6.821 1.174 10.764 5.654 9.059 2.453-.959 3.413-3.304 2.88-7.247-.854-7.673-7.254-9.058-8.534-1.812zm-324.586-1.598c-3.2 3.197-1.28 9.271 2.88 9.271 2.346 0 4.266.959 4.266 2.132 0 5.115 4.267 1.492 4.374-3.73.106-3.943.64-4.796 1.6-2.664 1.706 3.729 17.493 5.861 17.493 2.451 0-1.173.533-3.411 1.067-4.903.853-2.237-1.707-2.77-11.734-2.131-10.133.533-12.8 1.386-12.906 4.263-.107 2.451-.747 2.131-2.134-1.279-2.026-5.115-2.666-5.541-4.906-3.41zm52.48 0c-7.574 3.09-2.56 8.952 7.466 8.845 8.107 0 9.174-.426 5.334-1.918-2.667-.959-5.44-3.304-6.187-5.115-1.28-3.304-2.133-3.624-6.613-1.812zm33.493 1.918c-2.027 2.451-2.027 3.73 0 6.181 3.2 3.836 8.64 1.918 8.64-3.09 0-5.009-5.44-6.927-8.64-3.091zm48.107-1.492c-2.667 2.664-.747 8.845 2.666 8.632 2.24-.106 2.667-.533 1.067-1.172-1.493-.639-2.667-2.664-2.667-4.689.107-2.984.32-3.091 2.134-.32 1.173 1.705 2.133 2.238 2.133 1.066.107-1.172 1.493-.32 3.2 2.025 3.733 4.795 7.253 2.557 4.053-2.451-2.026-3.304-10.346-5.329-12.586-3.091zm14.826 1.812c.64 1.705 1.174 4.049 1.174 5.115 0 1.066 2.026 1.918 4.373 1.918 6.613 0 4.8-9.484-1.813-9.804-3.52-.213-4.587.639-3.734 2.771zm23.04-2.132c-1.493.533-2.773 2.558-2.773 4.583-.213 2.771-.533 2.664-2.027-.746-1.706-4.05-1.813-4.05-2.026.533-.107 3.41 1.066 4.795 4.16 4.795 2.56 0 4.373-1.492 4.373-3.73.213-3.197.427-3.09 2.027.533 1.813 4.156 1.813 4.05 2.026-.426.107-5.115-1.706-6.927-5.76-5.542zm24 4.05c-3.2 5.009-3.2 5.115 3.2 5.115 4.587 0 6.4-1.065 6.4-3.623 0-3.091.427-3.091 3.094.533 2.986 4.049 2.986 4.049 4.586.106 1.494-3.836 1.707-3.836 3.414.746 1.386 3.837 2.346 4.37 4.693 2.345 3.627-2.877 3.093-9.058-.853-10.444-1.814-.533-2.134.107-1.067 2.025 1.387 2.344 1.173 2.451-1.173.32-2.027-1.812-3.52-1.919-5.654-.213-1.493 1.278-2.773 1.491-2.773.426 0-4.263-10.56-2.238-13.867 2.664zm-136.533 17.903c-63.893.853-38.827 1.279 99.733 1.599 130.774.426 185.067-.107 185.067-1.705 0-2.345-94.72-2.345-284.8.106zm403.947 10.124c-.534 2.025-.32 10.87.426 19.715l1.387 15.986.32-19.716c.32-18.969-.32-23.871-2.133-15.985zm-488.64 16.518c.853 7.034 11.093 12.043 11.093 5.435 0-1.172-1.387-1.598-3.2-.852-1.707.639-3.2.213-3.2-.959 0-1.173 1.173-2.665 2.667-3.304 2.133-.853 2.133-1.066 0-1.172-1.494-.107-2.667-1.279-2.667-2.451 0-1.279.96-1.705 2.133-.959 1.174.746 2.134.319 2.134-.959 0-1.173-2.24-2.238-4.907-2.238-4.373 0-4.8.852-4.053 7.459zm79.36-5.221c0 1.278.96 1.705 2.133.959 1.28-.746 2.133 1.385 2.133 5.221 0 3.517.96 6.501 2.134 6.501 1.173 0 2.133-2.984 2.133-6.607 0-5.542.533-6.288 2.987-4.263 1.6 1.386 2.453 4.369 1.92 6.714-.64 2.238-.107 4.156 1.066 4.156 1.28 0 2.667-2.131 3.2-4.795l.96-4.796.214 4.796c.213 3.836 1.6 4.795 6.826 4.795 5.547 0 6.507-.746 5.867-4.582-.96-6.608-5.547-7.353-8-1.492-1.6 3.943-2.027 4.156-2.133 1.172-.214-7.993-21.44-15.559-21.44-7.779zm38.4 5.115c0 7.353 2.88 10.23 5.013 4.902.853-2.131 1.067-2.131 1.173 0 .427 5.968 3.414 2.131 3.414-4.263 0-5.541-.96-7.033-4.8-7.566-4.16-.64-4.8.213-4.8 6.927zm221.546-2.345c1.387 1.599 1.814 3.517.96 4.263-.746.746-.213 1.385 1.174 1.385 1.386 0 2.453.96 2.453 2.025 0 1.172-1.387 1.599-3.2.853-1.707-.64-3.2-.213-3.2.959s4.267 2.238 9.493 2.238c9.494 0 9.6-.107 9.28-7.353-.213-5.435-1.173-7.247-4.16-7.247-4.053 0-3.306 5.968 1.174 8.952 1.173.852 1.493 2.131.746 2.984-2.346 2.344-10.026-5.542-8.746-8.952.853-2.025-.32-2.984-3.52-2.984-3.734 0-4.267.639-2.454 2.877zm19.52 1.386c0 2.344.96 4.262 2.134 4.262 1.173 0 2.133 1.066 2.133 2.238 0 1.279-.96 1.705-2.133.959-1.174-.746-2.134-.319-2.134.96 0 1.172 1.92 2.237 4.267 2.237 2.88 0 4.267-1.385 4.267-4.262 0-2.345-1.067-4.263-2.347-4.263-1.707 0-1.6-.959.213-3.197 2.24-2.664 1.92-3.197-1.92-3.197-3.093 0-4.48 1.385-4.48 4.263zm-345.813-1.599c-.533 1.918-.747 14.387-.213 14.387.426 0 2.133-1.386 3.84-3.091 1.706-1.705 4.48-2.557 6.293-1.918 2.027.853 3.093-.213 3.093-3.09 0-3.943-11.84-9.805-13.013-6.288zm20.907.853c-2.774 2.77-1.494 9.271 1.706 9.271 1.814 0 5.12 1.172 7.467 2.558 5.547 3.516 8.533.213 7.04-7.46-1.387-7.033-5.333-6.607-7.147.746l-1.386 5.222-.854-5.116c-.853-5.328-4.266-7.885-6.826-5.221zm18.133 3.41c1.067 7.46 8.107 7.673 7.893.106l-.213-5.967-1.707 5.328c-1.6 5.115-1.706 5.115-1.92.533-.106-2.664-1.28-4.796-2.453-4.796-1.28 0-2.027 2.132-1.6 4.796zm11.413-3.091c-3.84 3.837-.746 8.632 5.334 8.526 4.053-.107 5.546-.853 3.84-1.918-1.494-.853-3.414-1.173-4.267-.64-.853.533-2.133-.106-2.88-1.279-.747-1.278-.64-2.131.427-1.918 4.266.746 9.173-.32 9.173-2.131 0-1.918-9.707-2.558-11.627-.64zm67.094 4.05c0 3.517 1.28 4.902 4.266 4.902 3.094 0 4.267-1.385 4.267-5.222 0-3.836-1.067-5.115-4.267-4.902-2.88.32-4.266 1.918-4.266 5.222zm10.773.32c.213 5.008.427 5.222 2.027 1.385 1.6-3.623 1.813-3.73 2.026-.533.107 2.664 1.92 3.73 6.614 3.73 5.546 0 6.506-.746 5.866-4.582-.853-5.755-5.973-7.886-5.973-2.558-.107 3.197-.427 3.41-2.027.853-3.52-5.542-8.64-4.476-8.533 1.705zm19.093-2.984c.107 4.049 3.52 7.779 6.614 7.14 3.733-.853 6.08-3.943 6.08-8.099 0-2.878-.214-2.878-2.027 0-1.28 1.918-2.133 2.131-2.133.639 0-1.385-1.92-2.344-4.267-2.238-2.347.213-4.267 1.386-4.267 2.558zm14.934-1.172c0 1.065-.534 3.516-1.28 5.328-.96 2.558 0 3.41 3.946 3.41 4.48 0 5.12-.852 4.267-5.328-.96-4.902-6.933-7.78-6.933-3.41zm9.386 5.541c.214 6.074 3.414 11.616 3.414 5.755 0-.959 1.493-3.624 3.413-5.861 2.88-3.517 3.2-3.624 2.133-.427-.853 2.664 0 3.73 3.094 3.73 3.093 0 4.16-1.492 4.16-5.435 0-5.648-7.467-7.033-11.2-2.025-.96 1.279-1.6 1.066-1.6-.533 0-1.491-.747-2.664-1.814-2.664-.96 0-1.6 3.304-1.6 7.46zm-48.853 15.985l-136.533 1.066 185.066.533c101.76.319 185.067-.213 185.067-1.066 0-1.918-48.32-2.025-233.6-.533zm-228.587 108.699c0 8.739.32 12.362.854 7.993.426-4.369.426-11.616 0-15.985-.534-4.369-.854-.853-.854 7.992zm554.667 24.511c-.747 1.918-.213 4.582 1.067 5.861 5.866 5.861-2.027 16.518-12.267 16.518-9.173 0-11.84 4.583-6.613 11.296 2.666 3.304 3.52 5.968 2.133 6.821-3.52 2.238-2.667 24.404 1.067 25.896 9.28 3.516-.427 5.008-32.96 5.008-40.214 0-42.027.64-30.72 11.616 11.413 11.083 19.52 12.682 20.906 4.05.427-3.517 2.774-3.943 21.334-3.943 21.44 0 25.706-1.812 29.546-12.255.747-2.025 1.6-2.025 3.52-.214 1.92 1.812 2.027 3.517.427 6.608-1.28 2.344-1.813 4.689-1.173 5.328.533.533-.427 1.599-2.134 2.345-2.346.852-2.88.213-1.92-2.452 1.174-3.197.747-3.09-3.2.427-3.52 2.984-6.506 3.623-12.48 2.664-5.226-.746-7.146-.533-5.76.852 3.84 3.837 18.56 3.624 27.84-.319 9.174-3.943 9.387-4.263 14.614-25.896.746-3.197 2.88-5.861 4.586-5.861 1.92 0 2.88-1.812 2.56-4.796-.213-2.664.32-6.394 1.174-8.419 2.453-5.648.533-11.083-4.587-13.321-4.053-1.811-4.8-4.049-5.333-15.985-.64-14.387-7.787-21.633-11.627-11.829zm3.947 29.839c1.813 4.156 2.986 4.796 5.226 2.877 1.6-1.279 2.88-1.705 2.88-.959 0 3.517-.64 4.476-2.453 3.943-1.28-.426-1.6 3.41-.747 9.591 1.067 7.673.747 9.378-.96 6.927-1.813-2.451-2.133-1.172-1.173 5.329l1.28 8.525-4.907-9.591c-4.266-8.419-5.76-9.591-11.946-9.591-7.147 0-9.067-4.902-2.774-7.034 2.027-.639 2.454 0 1.28 1.919-1.386 2.451-1.173 2.451 1.174.319 3.626-3.303 7.04-3.516 5.013-.213-.96 1.599-.533 1.918 1.067.853 1.493-.959 3.946 0 5.76 2.344 2.986 3.73 3.093 3.623.96-.852-1.28-2.558-5.334-5.435-9.067-6.394-3.627-.96-8-4.157-9.707-7.034-2.773-4.582-2.773-4.795 0-1.492 1.707 2.025 6.08 3.73 9.707 3.73 4.053 0 7.467 1.492 8.747 3.73 1.28 2.025 2.24 2.664 2.24 1.385.106-1.385-1.92-4.902-4.267-7.992-2.453-3.091-3.413-5.648-2.133-5.648 1.28 0 3.413 2.344 4.8 5.328zm-3.2 28.027c4.16 6.288 4.8 18.756 1.28 22.273-1.814 1.812-2.027.426-.64-5.328 2.24-10.338-3.094-18.117-10.134-14.387-5.12 2.771-8.106.106-6.08-5.115 1.92-5.222 11.414-3.73 15.574 2.557zm-61.76 17.264c-4.48.427-11.2.427-14.934-.106-3.84-.427-.213-.853 8-.746 8.214 0 11.307.319 6.934.852zm42.666 0c-4.48.427-11.2.427-14.933-.106-3.84-.427-.213-.853 8-.746 8.213 0 11.307.319 6.933.852zm-49.066 5.648c-2.027 1.492-2.987 3.624-2.134 4.583.854 1.065-.106.639-2.133-.959-5.44-4.156-4.587-6.608 2.133-6.501 5.334 0 5.547.32 2.134 2.877zm10.56-.532c-4.48 1.705-5.654 3.197-4.587 6.287 1.387 4.369-2.133 5.648-4.587 1.599-1.813-2.984 6.72-10.444 11.627-10.124 1.92 0 .853 1.065-2.453 2.238zm-178.987-9.378c27.413.319 71.573.319 98.133 0 26.667-.32 4.267-.64-49.706-.64-53.974 0-75.734.32-48.427.64zm-364.48 28.24c-.213 2.877-.64 10.87-.96 17.584l-.64 12.255h7.253c8 0 9.707-3.197 2.987-5.328-3.413-1.066-4.267-3.304-4.373-11.297-.214-11.829-3.52-22.272-4.267-13.214zm595.093 7.993c-1.173 21.207-1.066 21.846 2.774 21.846 2.133 0 3.84-1.492 3.84-3.304 0-1.811-.747-2.877-1.6-2.344-.854.533-1.28-3.73-.854-9.485.427-6.607-.106-10.443-1.6-10.443-1.28 0-2.453 1.705-2.56 3.73z" fill="#FF7F50"/></svg>