<svg xmlns="http://www.w3.org/2000/svg" height="200" viewBox="0, 0, 770.3, 652.571"><path d="M370.6.246c-41 3.4-71.6 11.5-138 36.1-39.4 14.7-65.3 23.3-85.2 28.3-20 5.1-21.8 5.1-23.7.5-1-2.4-2.1-3.5-3.6-3.5-1.1 0-6.3 3.7-11.5 8.1-5.2 4.5-21.3 17.4-35.8 28.8-32.8 25.6-47 37.7-61.5 52.4l-11.3 11.5 4.5 5.9c14.6 18.9 19.4 42.3 17.5 85.3-2.7 63.1-.1 82 19.6 141.5 9.8 29.7 15.1 50.5 17.3 67.4 1.6 12.9 1.8 13.7 4.6 16.1 4.7 4 6.3 5.8 15.1 17.6 13.3 17.6 20.8 21.7 39.5 21.8 12.6.1 17.6-.9 38.6-7.3 20.1-6.1 20.6-6.2 43.4-7.6 11.8-.8 23.3-2 25.5-2.7 2.2-.7 5.9-3.2 8.3-5.5l4.2-4.2v-7.8c-.1-27.2-7.1-69.3-19.5-116.8-16.1-61.8-19.7-76.1-22.9-92.5-3.8-19.1-6.2-36.6-7.2-53.3l-.7-10.7h2.7c1.5 0 4.4.9 6.6 2 2.2 1.1 5.3 2 7 2h3v7.7c0 26.5 5.4 58.2 21.5 126.8 15.2 64.5 19.4 87.1 21.6 116.5.6 8.5.9 19.6.6 24.5l-.6 9.1 6.9 1.8c3.8.9 14.2 5.5 23.2 10 16.3 8.2 23.5 10.6 32.3 10.6 3 0 4.7-.6 6.1-2.1 6-6.6 18.3-9.4 47.4-10.8 31-1.6 40.3-3.7 47.4-11 3.6-3.7 3.9-4.4 5.4-14.8 1.2-8.3 1.6-19.4 1.6-48.8.1-56.2-2.7-96.9-10-148-3.1-22.2-4.3-52.7-2.4-64.2 1.7-10.6 4.8-20.3 6.4-20.3 1.8 0 7 6 9.8 11.3 3.6 6.8 3.7 21.3.3 40.7-4.3 24.9-3.9 51.3 2 119 5.1 58.6 5.7 92.8 1.9 114-2.5 14.5-3.3 13 7.9 16.8 12.4 4.2 27.9 7.8 43.2 9.8 21.1 2.9 59.6 1.7 63.2-1.9 1.9-2 7.9-17.5 10.7-27.7 5.8-21.4 7.3-43.9 5.5-80-1.7-33.1-1.8-60.9-.1-72 .7-4.7 3.8-20.9 6.7-36 5.6-28 7.8-42 9-56.8.5-5.2 1.1-8.2 1.9-8.2 3.1 0 11.9 8 14.9 13.5 1.8 3.3 2.2 5.6 2.1 13.5 0 10.2.8 7.3-12.3 44-7.1 20.2-8.8 37.6-10.1 106.2-1.1 57.2-2.6 77.1-7.5 95.8-.8 3-1.3 5.5-1.2 5.6.1.1 5 1 10.8 1.8 24.4 3.6 42.2.6 57.6-9.6 9.6-6.5 17.1-15.6 23.3-28.3 10.3-21 14.6-43.3 20-103 3.1-34.1 5.9-51.6 10.7-67 3.1-9.9 9.7-22.9 12.7-24.8l2.2-1.5-1 5.7c-.8 5.1-.6 6.6 2.4 15.6 4 11.9 4.7 20.2 3.1 35.5-2.5 24.2-8.4 45.5-25 91-15.7 42.7-22.5 64.5-23.3 74.4-.3 3.9-.2 4 4 5.2 34.6 10.2 68.4-8.1 88.9-48.2 8.8-17.1 13.6-34.3 15.3-54.4 1-11.8 0-28-1.4-22.3-.6 2.5-1.3 3.3-3 3.3-2 0-2.4-.7-3-4.6-1.1-8.3-.6-26.6.9-36.4.9-5.2 3.6-18.1 6-28.5 5.6-24.1 6.6-30.7 6.7-42.5 0-11.4-1.9-19.5-7.2-30.5-7.8-16.3-18.4-27.7-49.5-53.5-11.5-9.6-23.8-20.2-27.3-23.5-3.4-3.4-6-5.4-5.8-4.5 6.1 20.5 7.1 26.5 5.6 31.9-1.3 4.8-4 5.7-4 1.3 0-4.9-2.9-14.5-7-22.8-6.9-14.1-18.9-25.2-44.1-40.7-6.5-3.9-11.9-7.8-11.9-8.5 0-1.9 8.2-1.5 14 .8 3.9 1.5 5.6 1.8 7.1 1 1-.6 1.9-1.2 1.9-1.4 0-.3-4.3-2.7-9.6-5.6-14.5-7.7-28.9-17.1-60.4-39.5-15.7-11.1-33.7-23.6-40-27.7-40.9-26.7-73.9-40-111-44.8-9.1-1.2-42.2-2.1-50.5-1.4zm135.4 46.2c20.2 7.6 36.3 24 40.1 40.8.6 2.6.9 4.9.6 5.1-.5.5-17.9-12.3-26.5-19.6-6.6-5.6-13.7-14.9-15.3-20.3l-1.2-4.1-10 .6c-5.6.3-16.1 2-23.4 3.7-22 5-28.6 3.6-15.3-3.4 10.6-5.6 15.7-6.6 30.1-6.2 11.1.3 13.4.6 20.9 3.4zm-223.9 9.5c-.8.8-4.9 2.6-9 4.2-41 15.5-61.7 36-65.6 65.4l-.6 5 26.4 26.3c27.3 27.1 35.4 36.7 44.1 52.2 5.3 9.4 5.9 11.6 2.5 9.4-1.3-.8-5-2.5-8.3-3.7-9.4-3.5-26.3-12.6-34-18.4-32.2-24-45.4-57.3-36.5-92.2 1.1-4.4 3.4-11.5 5.1-15.7 3-7.4 3.3-7.8 6.8-8.4 7.3-1.2 12.4-3.4 22.2-9.9 18.6-12.2 26.9-15.3 40.4-15.4 6.6-.1 7.7.1 6.5 1.2zm144.5 14.2c3.3 3.2 3.1 6.1-.6 16.5-1.7 4.7-3.3 9.3-3.6 10.2-.3 1.2 1.4 4.1 5 8.6 8.1 9.9 15.5 22.9 23.7 41.9 16.4 37.9 22.5 48.6 35.5 62.2 7.5 7.9 7.8 8.2 4.2 6.8-5.9-2.5-20.3-12.8-30.7-21.9-22-19.4-37.6-42.4-44.2-65.3-2-6.8-2.3-10.3-2.3-23.5 0-13 .4-16.7 2.2-23 4.5-15.4 6.1-17.3 10.8-12.5zm-81.4 52.7c2.2 4.1 1.4 17.1-2.1 31.8-1.9 7.7-3.7 14-4.2 14-3.6 0-4.1-18-.9-31.5 4.3-18 4.8-18.9 7.2-14.3zm264.6 33.5c8.1 5.5 13.2 14.5 17.8 31.3 2.8 9.9 7.2 24.6 8.1 26.7.3.8-.2 1.3-1.2 1.3-2.8 0-14.5-13-19.3-21.4-5.9-10.4-10.1-23.2-10.8-32.9-.4-4.8-.2-7.7.4-7.7.6 0 2.8 1.2 5 2.7zm-576.4 13.6c2.6 13.3 9.2 32.4 14.3 41.2 5.3 9.4 12 17.4 19 22.7 3 2.2 5.4 4.5 5.4 5 0 1.7-7.7 0-13.3-2.9-20.1-10.1-35.7-33.3-35.7-52.9 0-7.9 5.1-22.4 7.8-22.4.4 0 1.5 4.2 2.5 9.3zm512.5 4.5c2.8 3.6-.7 15.8-5.4 18.9-5.7 3.7-7-1.5-2.9-11.6 1.6-3.8 2.3-7.1 1.9-8.3-.6-1.9-.3-2 2.2-1.4 1.6.4 3.5 1.5 4.2 2.4zm-411.7 10c2.4 2.1 3.2 3.8 3.5 7.2.8 8.2-3.2 11.7-8 7-1.4-1.4-2-3.8-2.4-9.4-.4-7.2-.4-7.6 1.7-7.6 1.1 0 3.5 1.3 5.2 2.8zm221.5 77.7c1 .8 2.7 1.5 3.7 1.5 1.3 0 1.7.8 1.7 3.3 0 6.1 3 28.5 7.4 56.4 6.1 38 7.6 51.9 7.6 71.8 0 18.6-.4 21.5-2.9 21.5-3.3 0-13.7-5.8-16.9-9.4-6.5-7.4-9.2-14.6-14.2-38.1-1.6-7.7-3.7-16.4-4.7-19.3-1.6-5.2-1.7-5.4-4.7-4.7-5.9 1.2-19.2 2.5-25.8 2.5h-6.8v3.3c0 1.9 1.4 11.7 3.2 21.8 3.6 20.7 4.2 37.9 1.6 45.9l-1.4 4.5-5.5-.1c-11.1-.2-18.7-5.1-23.9-15.4-3.9-7.8-5.4-13.9-10.5-44.2-5.3-32-7-43.9-9-63-2.2-21.6-2.4-20.4 2.9-20 2.4.2 9-.6 14.6-1.7 5.7-1.2 11.8-2.1 13.6-2.1h3.4v7.9c0 4.3.9 12.3 2 17.6 1.1 5.3 2 11.9 2 14.6v5l5.3-.7c2.8-.3 8.3-1.3 12-2 3.8-.8 10.2-1.4 14.3-1.4h7.4v-6.4c0-3.6-.9-11.3-2.1-17.2-1.1-5.9-1.7-11-1.2-11.4.4-.3 3.8-2.8 7.5-5.4 7.3-5 11.2-9.5 12.3-13.9.8-3.1 3.9-3.6 7.1-1.2zm372.5 9.5c3.3 1.8 4.9 6.4 4.9 14.3 0 7.3 0 7.4-2.4 7-3.9-.8-5.6-3.5-6.6-10.4l-1.5-9.2c-.4-2.2-.1-2.7 1.6-2.7 1.1 0 2.9.5 4 1zm-240.6 20.6c21 2.1 60.7 8.4 62.3 9.9.2.2-.4 1.8-1.4 3.6-.9 1.8-2.9 7.1-4.5 11.6-3.3 10-5.7 13.5-10.5 15.8-6.6 3.1-9.4-.8-6.3-9 3.6-9.6 1.9-12.7-8.6-15.5-3.8-1-7.1-1.7-7.2-1.6-.7.7-3.4 24.5-4.5 39.3-2.3 32.5 2.2 54.3 13.5 66.2l4.2 4.4-6.5-.6c-3.6-.3-11.4-1.8-17.5-3.3-7.2-1.7-14-2.7-19.7-2.8-4.9 0-8.8-.2-8.8-.3 0-.2 1.5-2.3 3.4-4.8 7.5-9.8 10.1-21.3 10-45.5 0-18.5-.6-24.7-4.6-45.8l-2.2-11.3-4.4.3c-5.6.4-7.7 3-9.2 10.8-1.4 7.6-2.9 11-5 11-2.9 0-8.4-4.4-10.7-8.5-1.8-3.3-6.3-21.8-6.3-25.8 0-1.2 22.5-.3 44.5 1.9zm-321.3 16.2c1.6 1.6-2.3 5.8-13.1 14.3-11.1 8.8-14.5 12.7-16.7 19.1l-1.5 4.7 3.2 4.8c9.7 14.1 19.8 20.8 34.8 23 8.4 1.3 9.2.5 8.4-8.2-.6-6.9-.4-7.2 4-5.6 4.1 1.6 6.7 5.1 6.7 9-.1 5.9-3.6 11.9-11.9 20.2l-7.9 7.9h-5.4c-11.2 0-22.3-4.3-39.3-15.3l-10-6.5-2.2 2.1c-1.2 1.1-2.8 3.6-3.4 5.5-1.1 3.3-.9 4.1 3.5 12.4 2.5 4.8 4.6 9.2 4.6 9.6 0 .4-2.8.6-6.2.4-5-.3-8.3.3-15.9 2.7-5.4 1.7-11.8 3.1-14.5 3.1-5 0-9.4-2-9.4-4.3 0-.7 2.8-3.5 6.2-6.2 17.3-14.2 19.5-16.5 23.4-25 3.3-7.1 2.7-9.6-3.5-15.6-8.2-7.9-23.4-12.5-30-9-1.2.7-2.4 2.5-2.8 4.2-.6 3.4-1.4 3.6-3.6 1.1-2.9-3.2-4.9-9.3-4.2-12.9 2-10.8 21-18.7 39-16.3 9.4 1.3 18.9 6.2 23 11.7 4.4 6.1 7 5.5 8.6-1.8.6-2.4 1.7-5.1 2.6-6.1 2.3-2.5 1-4.5-3.6-5.7-2.3-.6-5.9-1.6-8.1-2.1-2.2-.6-4-1.5-4-2 0-2.8 17.3-10.9 28.5-13.4 7.4-1.6 19-1.5 20.7.2zm445.3 4.8l7.1 1.7-.4 6.7c-.2 3.6.4 11.8 1.4 18.1.9 6.3 2 15.9 2.3 21.4l.6 10 2.6-4c1.4-2.2 4.7-9.3 7.3-15.8 5.1-13 6.5-15.7 11-20.5 2.9-3.1 3.3-3.2 10.7-3.2h7.7l.6 3.2c1.5 7.3 1.8 21.9.7 31.3-1.3 10.8-3.8 22.3-12.4 55.5-3.1 11.8-5.9 24.4-6.3 27.9l-.7 6.4-5.7-.6c-11.6-1-16.8-5.9-15.6-14.5.3-2.5 3.1-10.4 6.1-17.5 7.6-17.5 10.1-27.6 7.4-29.2-.6-.4-1.7.1-2.4 1.1-3 4-4.7 8.9-7.5 22.1-1.6 7.5-3.9 15.6-5.1 18-2.6 5.3-7 8.9-12.7 10.1l-4.2 1v-13.7c0-12 .9-22.3 2.6-28.6.4-1.7.2-1.6-1.5.5-2.4 3.1-4.7 10.9-6.1 21.7-2.3 17.3-5.3 22.3-13.5 22.3-2.3 0-5.7-.5-7.4-1.1-2.6-.9-3.1-1.6-2.7-3.3.3-1.1 1.9-9.5 3.5-18.7 5.1-28.2 8.8-56.4 13.7-104.2l.6-5.7h5.6c3.2 0 8.9.7 12.7 1.6zm106.6 47.4c2.4 1.1 6 2 8.1 2h3.6l-1.8 8.2c-1 4.6-3.7 14.7-5.9 22.6-4.5 16-7.3 29.5-6.5 31.5.8 2.1 4.3 3.4 11 4.2 3.2.4 6.9 1.1 8.2 1.6 3.5 1.3 2.8 5.3-1.8 10.3-2.9 3.1-4 5.2-4 7.5 0 3.1 0 3.1-5.5 3.1-2.9 0-7.8-.5-10.7-1.1-5.2-1-28.9-7.9-29.7-8.5-.2-.2.8-2.7 2.2-5.7 3.6-7.7 6.2-16.5 10.2-35.5 4.4-20.3 7-30 10.1-36.9 2-4.7 2.6-5.3 5.2-5.3 1.7 0 4.9.9 7.3 2zm-702.4 27.2c-1.7 13.6 0 28.3 4.7 42.6 2.6 7.9 14.4 32.8 18.5 39.2l2.3 3.5-.6-9c-.8-10.8-4.4-27.6-9-41.1-4.6-13.8-13.8-38.7-14.6-39.7-.4-.4-1 1.6-1.3 4.5zm215.1 127.9c-8.3 8.4-15.9 10-54.8 11.8-21.6 1-27.8 2.1-35.7 6.7l-4.1 2.4 6.5 6.2c3.6 3.5 12.3 13.3 19.3 21.8s14.7 17.3 17.1 19.6c5 4.6 10.9 8.9 10.9 7.8 0-.4-2.3-4.3-5.1-8.7-2.8-4.3-6-9.9-7.1-12.3-2.3-5.2-2.1-10.7.4-11.2 2.6-.5 11.3 12.7 22.4 33.8 12.8 24.4 17.2 31 26.4 40.1 15 14.9 33.3 20.5 60.3 18.4l9.7-.7 6.7-5.4c16.5-13.2 34.4-18.5 84.3-25.4 22-3 45-6.9 45-7.6 0-.2-2.2-2.4-4.9-4.9-8.5-8-14-21.7-14.1-35.2 0-4.5.4-5.4 3.2-7.8 5.1-4.3 16.5-9.5 26.7-12.2 13.1-3.5 42.7-4.4 60.1-1.9 31.6 4.6 59.3 15.7 71.4 28.5 1.6 1.6 3.3 2.8 3.7 2.5 1.4-.8 3.1-8.5 3.1-13.7-.1-7.3-4.6-15.9-13.3-25.3-4.1-4.3-9.3-10.1-11.6-12.7l-4.2-4.9-14.8 1.8c-20.4 2.5-62.7 2.5-80.3.1-15.6-2.2-26.8-4.8-36.6-8.6l-7.5-2.9-8.7 2.9c-31.2 10.6-73 16.8-103.7 15.5-28.9-1.2-48.8-7.4-61.5-19.1l-4.5-4.2-4.7 4.8zm225.7 50.3c-12.2 2-29.5 7.5-29.5 9.5 0 .4 1.2 1.8 2.6 3.2 1.4 1.3 4.6 5.8 7.2 9.9 10.4 17 13.4 21.1 15.1 20.6 3.5-1.1 19.5-2.6 38.1-3.6 44.2-2.4 59.6-5.3 71.9-13.7l5.4-3.7-3.4-2.9c-6.7-5.6-23.6-12.4-40.2-16.1-19.3-4.4-50-5.8-67.2-3.2z" fill="#db351e"/></svg>