<svg xmlns="http://www.w3.org/2000/svg" viewBox="0, 0, 640, 762"><path d="M45.714 4.572c-7.365 3.556-36.063 34.544-38.857 41.91-1.016 2.54.762 17.78 3.556 34.29 2.793 16.256 5.841 45.466 6.603 64.77 1.016 24.13 2.54 35.56 4.825 37.592 2.54 2.032 6.857 2.032 16.254 0 25.651-5.588 37.08-7.62 53.08-9.398 16-1.524 16-1.524 14.222 4.318-1.016 3.302-2.794 7.112-4.064 8.382-6.857 7.366.508 16.764 16.762 21.844 5.588 1.778 11.175 4.064 12.445 5.334 1.523 1.27 4.063 2.286 6.095 2.286 1.778 0 5.079 1.778 7.365 3.81 2.032 2.032 4.825 3.302 6.095 2.54 1.27-1.016 2.286-.508 2.286.762 0 2.032 17.778 9.144 24.127 9.398 3.809.254 17.524 6.35 19.048 8.382.761 1.016 7.873 3.81 15.746 6.35l14.73 4.572-1.524 14.478c-.762 7.874-1.778 14.732-2.286 15.24-.508.762-4.063-2.286-7.619-6.604-3.555-4.318-9.905-8.128-14.984-9.144-4.571-1.016-15.746-4.572-24.381-7.874-20.317-7.874-26.667-7.874-39.365 0-5.587 3.302-12.444 6.35-15.238 6.35-12.952.254-55.873 19.304-69.333 30.48-5.842 4.826-9.651 17.78-5.334 17.78 1.27 0 2.286 2.286 2.286 4.826 0 2.794 1.016 5.588 2.032 6.35 1.27.762 2.285 5.588 2.539 10.668.508 10.16 1.778 16.002 6.858 27.686 5.841 13.462 16.507 43.18 16.507 45.72 0 1.524 2.032 4.572 4.572 6.604 2.286 2.286 9.397 10.16 15.746 17.526 16.254 19.558 33.016 35.56 37.333 35.56 2.032 0 6.096-1.27 8.889-2.794 2.794-1.524 8.635-3.81 12.699-4.826 7.873-2.286 7.619-.762-.508 8.89-9.143 10.414-24.381 38.354-24.889 45.72-.762 8.636 3.809 14.224 16 19.304 4.317 1.778 8.381 3.302 9.397 3.302.761.254 5.079 3.302 9.396 7.112 4.318 4.064 8.381 7.112 9.397 7.112 2.032 0 24.889 15.748 26.667 18.542 1.016 1.27 3.809 3.556 6.603 5.08 2.794 1.778 8.889 5.588 13.714 8.636 12.699 8.636 20.318 7.62 32.254-4.318 10.921-10.922 14.73-12.954 11.175-5.842-1.016 2.54-1.778 7.366-1.524 10.922.254 3.556-2.032 11.43-5.079 17.78-3.302 6.35-7.365 17.272-8.889 24.638-1.778 7.112-4.826 15.24-6.603 17.78-4.318 5.334-4.826 19.05-1.27 22.606 1.524 1.524 3.047 11.176 3.555 21.59 1.016 20.574 7.112 39.116 13.715 41.656 2.285.762 4.571 1.524 4.825 1.524.508 0 8.381 2.54 17.778 5.842 9.651 3.302 21.333 7.112 26.159 8.128 4.825 1.016 9.396 2.032 10.158 2.286 9.905 2.286 24.381 7.874 25.651 9.652.762 1.27 2.286 2.032 3.302 2.032.762-.254 1.777-.254 2.285 0 .254.254 8.635.762 18.54 1.27 14.476 1.016 18.032.508 18.032-2.54 0-2.032-3.048-5.08-6.603-6.604-15.238-6.858-63.492-20.828-87.365-25.146-23.619-4.064-28.445-7.366-28.191-19.304.254-5.588 1.778-14.732 3.302-20.32 1.777-5.588 3.301-11.938 3.809-14.478.254-2.286 1.778-5.588 3.302-7.62 1.524-1.778 4.571-7.366 6.857-12.192 2.286-4.826 6.095-12.446 8.635-16.51 2.794-5.08 4.317-13.462 4.317-24.892v-17.018h8.889c5.08 0 10.413 1.27 11.683 2.54 1.524 1.524 8.381 3.81 15.238 5.08 21.841 4.064 50.032 10.16 65.778 14.224 8.381 2.286 18.539 4.572 22.349 5.334 9.905 1.778 10.92 6.604 5.079 21.844-9.143 23.114-16 47.244-16 56.388 0 4.826-2.285 14.478-5.079 21.336-4.826 12.192-8.635 40.894-5.333 40.894 2.031 0 14.73-26.67 18.285-38.1 1.27-4.826 3.048-13.462 3.81-19.05.762-5.588 2.539-10.668 3.809-10.922 1.27-.508 2.286-3.556 2.286-6.858 0-6.096 4.825-19.304 7.873-21.59 2.032-1.524 5.079-21.59 4.825-33.02-.254-11.938 2.286-25.908 4.572-24.384 2.54 1.27 25.397 4.826 34.54 5.08 5.841.254 8.38-1.27 10.666-6.096 9.397-19.304 13.714-30.226 13.714-33.782 0-2.286 1.016-4.826 2.54-5.588 1.27-.762 3.048-7.112 4.064-14.224 1.016-6.858 2.793-13.208 3.809-13.97 1.27-.762 2.286-5.08 2.286-9.398 0-4.572 1.524-10.414 3.301-13.208 4.826-7.366 9.397-29.972 9.397-46.482 0-10.668-1.524-16.256-5.079-20.828-2.794-3.556-9.905-13.462-15.492-22.352-7.111-10.922-11.683-15.748-15.746-16.256-3.048 0-7.365-.254-9.397-.508-6.095-.508-3.81-5.08 4.317-9.144 4.064-2.032 11.429-6.858 16.508-10.922 4.826-3.81 10.159-6.858 11.683-6.858 1.778 0 3.048-1.27 3.048-2.54 0-1.524 1.777-2.54 3.809-2.54s8.381-2.286 13.968-5.334c12.953-6.858 15.238-14.478 7.873-27.686-2.793-5.334-6.857-12.192-8.635-15.494-4.571-8.89-12.444-20.32-18.285-26.67-8.889-9.906-17.016-21.59-16-22.606.508-.508 8.127 1.778 17.016 5.334 8.888 3.556 23.619 7.62 33.015 9.144 9.143 1.27 17.778 3.556 19.048 4.826 6.349 5.842 15.746.508 17.524-9.398.254-2.54 1.524-6.35 2.794-8.128 1.015-1.778 1.523-4.064.761-4.572-.761-.762 1.016-7.366 3.81-14.478 5.587-14.732 11.683-34.036 14.73-47.498 1.016-4.826 3.556-12.954 5.587-17.78 2.286-5.08 4.064-18.796 4.318-32.512.508-21.844 0-24.638-5.841-33.782-3.556-5.334-6.604-10.668-6.604-11.43 0-1.016-4.063-6.604-8.888-12.446-7.873-9.906-10.413-11.176-25.397-13.716-9.143-1.778-17.524-2.286-18.794-1.778-2.032 1.27-4.825.762-32-8.382-8.381-2.794-24.127-5.588-34.794-6.604-17.777-1.27-19.809-1.016-22.349 3.81-1.524 2.794-4.063 5.08-5.587 5.08s-2.286-.762-1.27-1.524c.762-.762-.254-6.096-2.286-11.684-2.031-5.588-3.555-13.97-3.555-18.796 0-4.572-1.27-9.144-2.54-9.906-1.524-1.016-2.032-2.54-1.27-3.81s.254-7.112-1.27-12.7c-2.285-8.636-3.809-10.16-9.65-10.414-17.016-.508-28.699 1.016-47.492 6.858-11.175 3.302-29.461 7.62-40.381 9.398l-20.064 3.302-9.905 16.256c-5.333 9.144-11.428 16.764-13.46 17.272-2.032.508-6.857-1.524-10.413-4.318-3.555-2.794-11.428-5.842-17.777-6.858-6.096-.762-11.175-2.286-11.175-3.302s-3.556-2.032-7.873-2.286c-4.571-.254-11.429-3.048-15.492-5.842-8.635-6.096-23.619-8.89-28.191-5.334-1.777 1.27-12.698 5.588-24.381 9.652-11.682 4.064-23.873 9.906-27.428 12.954-7.365 7.112-8.127 7.112-7.873 1.27 0-2.286-.762-8.382-1.524-13.208-1.016-4.826-2.286-19.05-3.302-31.242l-1.523-22.606-46.984 1.016c-31.746.508-49.27 1.778-53.842 4.064zm63.492 1.778c-5.841 3.302-5.333 3.556 7.619 2.032 7.619-.762 14.985-2.286 16.508-3.556 4.318-4.064 8.889-2.286 8.889 3.302 0 4.318-.762 4.826-2.285 2.54-1.27-2.286-3.556 1.524-6.858 11.684l-4.825 15.24-27.937 2.032c-15.238 1.27-36.825 2.032-47.492 1.778-12.698-.254-19.809.762-19.809 2.286 0 2.794 20.317 2.032 80-2.032 12.698-.762 19.047-.508 17.016 1.016-2.794 1.778-2.794 5.334-.762 17.272 1.524 8.128 2.793 28.194 3.047 44.45.508 24.638-.254 30.734-4.317 38.1-2.54 4.826-5.841 9.398-7.365 10.414-1.524 1.27-1.524 2.032 0 2.032s1.524.762 0 2.286-15.746 3.302-31.746 4.064c-26.159 1.524-48 6.096-54.349 11.684-2.54 2.286 17.016.254 27.682-3.048 4.318-1.27 19.048-2.794 32.762-3.556 20.826-1.016 25.905-2.032 27.683-5.588 1.523-2.54 6.603-10.668 11.174-17.78 4.826-7.366 8.381-14.732 7.873-16.51-.508-1.524 1.016-5.08 3.556-7.62s4.571-6.35 4.571-8.636c0-2.032 1.778-5.588 3.81-7.62 4.825-4.826 4.825-9.652.254-7.874-2.54 1.016-4.064-.508-4.572-4.064s-2.793-5.842-6.349-6.35c-6.603-1.016-6.349.508-7.111-38.1-.254-14.224.508-25.908 1.778-25.908s1.524-1.27.762-2.54c-.762-1.524-.254-2.54 1.016-2.54 1.523 0 2.793 2.54 2.793 5.588 0 5.588 6.349 49.022 9.397 62.992 1.27 5.842 1.778 5.588 6.095-4.572 4.572-10.414 14.73-17.78 20.318-14.224 1.27.762 2.285 0 2.285-1.524s1.27-2.032 2.54-1.27c3.81 2.286 12.953-1.27 11.175-4.318-1.27-1.778-.508-2.032 1.27-1.016 3.809 2.54 17.269-2.794 19.047-7.62.762-2.032 4.064-3.556 7.365-3.556 6.603 0 21.08 6.35 23.365 10.414 1.016 1.27 2.54 1.778 3.81 1.016 2.286-1.27 29.206 6.858 40.127 11.938 3.048 1.524 5.587 4.064 5.587 5.334 0 1.27-2.539.762-5.587-1.27-14.222-8.89-45.206-15.494-45.206-9.398 0 1.778 2.539 2.286 6.349 1.27 4.571-1.27 6.349-.508 6.349 1.778 0 3.556-2.286 3.556-27.175-2.032-5.587-1.27-8.381-1.016-8.381 1.016 0 1.524-4.063 2.794-8.889 2.794-4.825 0-8.888 1.016-8.888 2.032 0 2.54 21.587 12.954 29.46 14.478 3.048.508 12.19 3.81 20.063 7.62 9.143 4.064 16.508 5.842 19.81 4.826 4.825-1.524 4.317-2.032-4.064-5.334-10.666-4.318-11.936-7.62-3.555-8.89 6.603-1.016 6.603-5.588 0-6.604-3.81-.762-4.064-.254-.762 2.032 3.048 2.286 2.54 2.54-2.54 1.27-11.682-3.302-27.936-5.588-29.206-4.318-.508.762.762 2.794 3.302 4.826 2.285 1.778-1.27 1.016-8.381-2.032-16.254-6.604-17.524-8.128-5.08-6.35 8.127 1.016 8.889 1.016 3.81-1.016-5.588-2.032-5.08-2.286 2.539-1.016 4.826.762 12.445 1.524 16.508 2.032 4.318.508 9.651 1.778 11.937 2.794 3.048 1.27 4.063.508 3.555-3.048-.507-2.54-.254-3.048.254-1.27.762 2.286 3.556 2.794 8.381 1.778 4.318-1.016 7.873-.508 8.889 1.27 1.27 2.286.254 2.54-4.063 1.27-4.572-1.27-3.81-.254 2.793 4.064l8.889 5.842-10.158 1.524-10.159 1.524 10.667 2.032c14.984 2.794 18.539-.254 9.396-8.128l-7.365-6.096 7.619 1.778c4.318.762 10.921 3.302 14.984 5.334 7.873 3.81 12.445 1.27 9.905-5.842-.762-1.778.508-4.064 2.794-4.826 2.286-.762 3.301-2.54 2.54-3.81-.762-1.27-.254-2.286 1.015-2.286 1.27 0 4.318-3.048 6.858-6.604 2.285-3.81 3.047-6.096 1.523-5.08-1.777 1.27-1.777-.508 0-5.588 2.54-7.366 2.794-7.62 20.826-7.366 10.158.254 28.698-.508 41.143-1.524 22.857-1.524 22.857-1.524 16.508 3.302-3.302 2.54-7.366 4.572-8.635 4.318-1.016-.254-2.794 1.016-3.302 2.794-1.016 2.286.254 2.54 5.333.508 9.905-3.556 10.667 1.778 1.016 7.62-10.158 6.096-12.19 6.35-12.19 1.27 0-4.318-9.143-5.08-15.238-1.27-2.286 1.524-4.318 1.27-5.334-.254s-2.285-1.016-3.301 1.524c-1.27 3.556-.508 4.064 4.063 3.048 11.175-2.54 16-3.556 12.445-2.54-2.54 1.016-2.794 1.778-.508 3.048 1.778 1.016-1.016 2.032-6.095 2.286-5.08.254-10.159 1.016-11.429 1.778-1.27.762-3.048 0-3.81-1.27-1.777-3.048-12.698-1.524-25.142 3.048-6.604 2.794-6.858 3.048-2.794 6.35 4.825 3.302 8.127 3.048 30.476-3.048 7.111-1.778 19.302-4.826 27.175-6.604 15.238-3.302 26.92-12.192 23.619-17.526-1.016-1.778-.508-4.064 1.27-5.08 6.857-4.318-.508-8.128-12.445-6.604-8.127 1.016-10.413.762-7.873-1.016 2.032-1.27 6.349-2.54 9.143-2.54 3.048 0 9.397-1.778 13.968-3.81 7.873-3.302 8.127-3.556 2.286-3.556-3.556-.254-15.238 2.54-26.159 6.096-10.92 3.556-22.857 6.35-26.666 6.096-3.81 0 3.555-3.048 16-6.604 23.619-6.604 58.412-9.398 59.174-4.572 2.032 14.478 7.111 36.83 12.191 53.34 3.301 11.176 6.095 21.844 6.095 23.368 0 1.778 1.016 3.302 2.286 3.302 1.269 0 3.047-5.08 3.809-11.43 1.778-10.414 6.603-18.034 8.381-12.446.508 1.27 6.603 1.778 13.968 1.27 12.191-.762 52.064 8.89 49.016 11.938-.508.508-8.889-1.27-18.793-4.318-9.651-2.794-19.556-5.334-22.35-5.334-4.317.254-4.317.254.254 3.81 2.794 2.032 8.381 3.81 12.445 3.81 3.809 0 9.397 1.27 12.19 2.54 2.54 1.524 10.159 3.302 16.762 3.81 6.857.508 12.191 1.27 12.191 1.27 0 2.032 11.682 1.778 12.698 0 .762-1.524-1.016-2.794-4.317-2.794-4.572-.254-4.826-.508-1.27-1.524 2.539-.762 6.095.254 8.127 1.778 2.031 1.778 8.635 3.302 14.476 3.556 9.143.254 10.921 1.016 11.682 5.842.508 3.302 2.032 5.842 3.302 5.842 1.524 0 2.032.762 1.524 2.032-.762 1.016 2.032 8.636 6.095 17.018 3.81 8.382 7.111 13.462 7.365 11.176 0-2.032-1.778-6.096-3.809-8.89-2.032-2.54-3.81-5.842-3.81-7.366 0-1.27 3.048 2.032 6.603 7.366 6.603 9.398 6.603 10.922 5.08 33.782-1.016 15.748-3.302 26.416-6.35 32.004-2.539 4.572-5.333 14.986-6.603 23.368-1.016 8.382-5.079 23.622-9.143 33.782-4.063 10.16-7.873 22.606-8.634 27.686-1.524 11.43-2.54 12.446-9.651 8.89-3.048-1.524-10.667-3.556-17.016-4.318-15.746-2.286-20.318-3.81-20.318-6.604 0-1.524 1.778-1.524 4.572-.254 2.285 1.27 9.143 3.048 14.984 3.81 9.651 1.016 10.413.762 6.857-2.54-2.032-2.032-7.365-4.826-11.936-5.842-24.889-6.35-38.35-10.668-43.175-13.97-3.048-2.032-9.397-3.81-14.222-3.81-5.842 0-10.413-2.032-14.476-6.35-3.81-4.064-8.635-6.35-13.715-6.35-9.905 0-11.936-4.826-7.619-18.542 2.032-5.842 3.302-12.192 2.794-13.97-.254-1.524.762-3.048 2.286-3.048 1.523 0 2.285-1.016 1.269-2.286-.762-1.27.508-4.318 2.794-6.35 2.032-2.286 2.794-4.064 1.27-4.064-4.318 0-11.429 9.398-13.206 17.272l-1.778 6.858-.254-7.112c-.508-12.192-5.334-7.366-5.334 5.588 0 17.526 5.842 30.734 13.969 30.988 11.174.508 12.19 1.016 13.206 4.064.762 1.778-.508 3.302-2.286 3.302-2.031 0-6.095 2.286-9.143 5.08-3.047 2.794-7.111 5.08-9.396 5.08-2.032 0-3.81 1.016-3.81 2.54 0 1.27-2.032 2.54-4.825 2.54-2.54 0-7.365 2.032-10.667 4.572-3.302 2.794-11.428 7.874-17.778 11.43-12.952 7.62-17.524 6.096-17.524-6.096 0-3.81-1.777-8.382-4.317-10.16-3.556-3.302-3.302-3.81 3.302-4.826 5.333-1.016 6.349-1.778 3.301-3.048-2.286-1.016-6.857 0-9.905 2.286l-5.333 3.81 5.333 3.81c4.318 3.048 5.334 5.588 4.064 11.176-1.016 5.842-.508 7.366 2.794 7.366 3.555 0 3.555.508-.508 5.08-2.54 2.794-5.842 5.08-7.365 5.08-1.778 0-4.572 2.286-6.35 4.826-3.047 4.064-4.825 4.318-10.666 2.286-4.064-1.27-7.365-3.556-7.365-4.572 0-3.302-23.619-14.478-27.429-13.208-1.524.508-3.048-.254-3.048-1.778s1.27-2.794 2.54-2.794c2.032 0 15.746-7.874 25.143-14.478.508-.508.254-1.524-.508-2.286-1.016-1.016-6.349 1.27-11.936 5.08-12.445 8.128-15.239 8.382-15.239.762 0-3.302-2.285-8.128-5.079-10.668-2.794-2.54-4.317-5.588-3.555-6.604.761-1.27-.508-2.54-2.54-2.54-7.365-.762-8.635-1.016-10.667-3.048-1.016-1.016 5.08-1.778 13.714-1.778 8.381 0 16.254 1.27 17.016 2.794 1.016 1.524 3.556 2.032 5.588 1.27 2.031-.762 2.793-.254 2.031 1.016-.762 1.524.254 2.54 2.54 2.54 2.794 0 3.81 1.27 2.794 3.81-.762 2.032-.508 3.81.762 3.81 1.269 0 2.793-3.302 3.301-7.62 1.524-9.652.254-9.906-36.317-11.176-16-.762-39.365-2.032-52.318-3.048l-23.111-1.778-1.778-8.636c-1.016-5.334-2.539-7.874-4.317-6.858s-2.032.762-1.016-1.016c1.016-1.524.508-5.334-1.016-8.382-3.555-6.604 1.016-13.716 4.826-7.62 1.523 2.286 5.333 3.048 11.428 2.286 5.08-.508 9.143-.254 9.143.762s2.286 1.27 5.079.508c6.604-1.778 6.604-5.842-.254-5.842-4.571 0-5.079-1.016-3.555-7.112.762-3.81 3.809-11.43 6.349-17.018 4.825-10.16 12.698-30.988 12.698-33.782 0-7.366-22.857 45.974-23.365 54.61-.254 1.778-3.555 3.302-7.365 3.302-3.809 0-7.365-1.524-8.127-3.302-.762-2.286-2.285-2.286-5.841-.254-5.841 3.556-8.127 28.702-2.794 32.004 1.778 1.016 3.302 8.382 3.556 18.542.508 21.59-1.524 34.29-5.841 34.29-4.318 0-4.572-9.906-.254-11.684 2.031-.762 3.047-7.112 3.301-18.288.254-9.398 0-14.732-.762-11.938-.508 2.794-2.031 7.874-3.301 11.43s-3.048 10.922-3.81 16.51c-2.793 20.828-4.317 26.67-6.857 25.146-1.27-.762-1.524-3.302-.508-5.842 1.524-3.556 8.381-43.18 8.635-49.784 0-1.524-6.603-4.826-14.476-7.366-8.127-2.54-19.302-6.858-25.143-9.398-5.841-2.54-12.444-4.826-14.476-4.826-2.286 0-14.222-4.826-26.413-10.668-12.444-5.588-27.682-12.954-34.286-15.748-6.603-3.048-11.936-6.096-12.19-7.112 0-1.524 12.698 3.556 49.524 20.828 17.778 8.128 34.032 13.716 35.809 11.938 1.016-1.016-62.73-29.718-66.285-29.718-.762 0-5.334-1.778-10.413-3.81-8.127-3.302-8.635-4.064-5.587-9.398 1.777-3.302 4.825-7.62 6.603-10.16 5.079-6.096 0-7.874-16.762-5.842-7.873 1.016-17.778 2.286-22.095 2.794-18.032 2.286-41.143 5.842-46.223 7.62-5.841 1.524-5.841 1.27-5.841-22.606 0-13.208-.508-26.416-1.27-28.956-.762-2.54.254-1.27 2.54 3.048l3.81 7.62-1.27-10.16c-5.334-39.878-11.429-78.232-12.953-79.502-1.016-1.016-1.016 1.016-.254 4.572s2.032 13.208 2.794 21.59l1.27 15.24-3.556-17.78c-3.301-17.018-2.793-35.814 1.016-29.464 1.016 1.524 6.857-2.54 15.492-11.176 14.73-14.986 14.984-19.304.254-5.842l-8.889 8.382 7.619-9.398c4.064-5.08 8.635-9.398 10.413-9.398 1.524-.254 4.571-1.778 6.603-3.81 2.286-2.54 13.714-4.572 33.778-6.096 16.508-1.27 31.492-2.54 32.762-2.54 1.524-.254-.254 1.27-3.81 3.302zm96.508 46.99c-2.031 1.27-4.825 2.54-6.349 2.54-1.27 0-.762-1.27 1.27-2.54s5.079-2.54 6.349-2.54c1.524 0 .762 1.27-1.27 2.54zm149.08 16.764c-2.54 2.54-22.096 5.588-22.096 3.302 0-1.016 3.048-2.54 7.112-3.048 11.936-1.778 16.761-1.778 14.984-.254zm-98.286 11.176c4.571 3.048.508 3.048-6.349 0-3.302-1.524-3.81-2.286-1.27-2.286 2.032 0 5.587 1.016 7.619 2.286zm-111.746 10.16c0 2.794-1.016 5.08-2.54 5.08-1.27 0-2.539-2.286-2.539-5.08s1.269-5.08 2.539-5.08c1.524 0 2.54 2.286 2.54 5.08zm-125.206 8.128c-.762 2.032-1.524 1.27-1.524-1.524-.254-2.794.508-4.318 1.27-3.302.761.762 1.015 3.048.254 4.826zm126.476 9.398c-1.778 8.128-6.349 10.922-6.349 3.81 0-4.826 5.079-14.478 6.857-12.954.762.762.508 4.826-.508 9.144zm97.27 133.604c-.762.762-2.286-.508-3.048-3.048-1.524-3.556-1.27-3.81 1.27-1.524 1.778 1.778 2.539 3.81 1.778 4.572zm24.888 11.684c1.27 1.27 6.858 1.524 11.937.508 7.111-1.016 9.397-.508 9.397 2.032 0 2.794.508 2.794 2.032.254 1.523-2.286 4.063-2.54 8.127-1.016 5.841 2.032 5.587 2.286-3.302 4.064-12.698 2.286-25.905 15.494-29.714 29.464-4.572 17.272-2.032 48.514 5.079 58.42 13.46 18.796 45.46 17.018 56.381-3.302 5.079-9.398 6.857-22.606 4.063-27.94-2.285-4.318-2.031-4.826 1.778-3.556 2.286 1.016 5.08 1.778 6.349 1.778 1.016 0 2.794 2.032 3.556 4.318.762 2.54 3.302 7.366 5.333 10.922 2.54 4.572 3.81 14.224 3.81 34.036 0 27.432 0 27.432-5.587 25.908-14.985-4.572-85.334-12.954-87.619-10.668-1.016.762.507 3.81 3.047 6.604s3.81 5.842 3.048 6.858c-1.016.762-1.778 0-1.778-1.778s-.762-2.54-1.778-1.524.762 4.064 4.318 6.604l6.349 4.826-9.905 4.064c-5.333 2.286-12.698 3.81-16.508 3.81-12.444-1.016-20.571 0-20.571 2.286 0 1.27 7.365 1.524 16.508.762 11.936-.762 17.524-.254 20.825 2.286 3.81 3.048 4.064 3.048 2.286-.254-1.016-2.032 0-1.524 2.032 1.016 2.285 2.794 4.063 4.064 4.063 2.54 0-1.27 1.27-.254 2.794 2.032 1.27 2.54 4.063 3.81 6.095 3.048 2.032-1.016 3.809-.254 3.809 1.016 0 1.524-1.777 3.048-3.809 3.556-2.54.508-1.524 1.778 2.794 3.81 5.587 2.54 6.095 2.54 3.555-.762-2.54-2.794-2.54-3.556-.254-3.556 1.778 0 2.54-1.016 1.778-2.286-1.016-1.27.762-1.778 3.556-1.016 2.793.762 5.079 2.286 5.079 3.302s3.047 2.794 6.603 3.556c3.81 1.016 6.095 2.286 5.333 3.302-.762.762-5.079-.508-9.65-2.794-9.905-4.826-10.159-4.826-8.381-.762.508 1.778 3.555 3.556 6.603 3.556 3.047.254 14.73 5.08 26.159 10.668 18.031 8.89 19.555 8.382 4.825-1.778-2.794-1.778 0-.762 6.095 2.032 5.841 2.794 10.667 6.096 10.667 7.112 0 4.064-18.286 38.354-22.095 41.656-2.54 1.778-3.556 2.032-2.54.254 1.016-1.524.762-5.588-.508-8.89l-2.54-5.842.254 6.35c0 3.556-.762 8.636-1.778 11.176-1.523 3.556-1.269 4.318.762 3.048 4.064-2.54-.508 9.398-7.111 18.796-2.793 4.064-5.079 8.382-5.079 9.906 0 1.524-.762 2.794-1.778 2.794-1.27 0-4.063 3.556-6.603 7.874-2.54 4.572-5.079 7.366-5.841 6.604-.762-.762 1.27-5.334 4.571-9.906 6.857-9.144 19.81-31.242 19.81-33.528 0-.762-1.016-1.524-2.54-1.524-1.27 0-4.571 4.826-7.111 10.668-5.841 13.462-18.794 33.782-21.841 34.798-4.826 1.524-6.096-6.096-2.54-14.732 3.555-8.636 3.555-8.89-1.016-4.064-5.841 6.35-6.603 16.256-1.524 21.844 2.794 3.302 6.349 4.064 14.222 2.794 6.858-.762 9.905-.508 8.889 1.27-2.031 3.302 1.524 4.826 15.492 5.588 5.842.254 10.667-.508 10.667-1.778s2.54-1.778 5.841-1.27c5.588 1.016 5.588 1.016 4.064-19.558-.762-11.176-2.794-21.844-4.318-23.368-3.809-3.81-4.063-14.732-.508-14.732 1.524 0 2.54 3.048 2.54 6.604s1.016 8.382 2.286 10.668c1.27 2.286 2.793 13.462 3.301 24.892 1.016 19.05.762 20.574-3.555 19.304-2.54-.508-6.349.254-8.381 2.032s-5.587 2.54-7.619 1.524c-2.286-.762-3.302-.508-2.54 1.016.762 1.27 6.857 1.778 13.46 1.016 13.715-1.27 31.493 1.016 29.715 4.064-.508 1.016 3.555 1.524 9.651.762 5.841-.508 16.254.508 22.857 2.794 8.635 2.54 11.936 2.794 11.174.762-.508-1.778-3.555-3.302-7.111-3.81-3.301-.254-12.952-2.286-21.333-4.318-8.381-2.032-18.54-4.318-22.603-5.08-6.096-1.27-6.857-2.54-5.842-8.382 2.794-14.732 6.35-26.162 11.683-36.83 2.794-6.096 5.333-12.192 5.333-13.97 0-1.524 2.54-5.08 5.334-7.874 3.555-3.302 5.079-6.858 4.063-10.16-.762-3.048 0-4.826 1.524-4.572 1.524.254 3.048-.762 3.048-2.032.254-1.524 1.269-4.572 2.285-7.112 2.286-4.572 1.016-14.986-2.285-23.114-1.778-4.318-1.016-4.572 9.142-3.556 6.096.762 14.731 2.54 18.794 4.064 13.206 4.572 51.302 13.208 58.921 13.208 3.809 0 13.46 2.286 21.079 5.08s16.508 5.08 19.556 5.08c7.619 0 7.873 9.144.508 23.114-2.794 5.842-4.572 11.938-3.81 13.97s.254 3.556-.762 3.556c-1.27 0-3.047 4.572-4.063 10.16-1.016 5.588-2.794 10.668-4.064 11.684-1.27.762-2.286 6.35-2.286 12.7s-1.777 15.494-3.809 20.828c-2.286 5.08-5.079 13.97-6.349 19.812-1.27 5.588-3.048 12.446-4.064 14.986-1.27 3.302-1.016 4.064 1.016 2.794 1.778-1.016 3.048-4.064 3.048-6.858 0-2.54 1.016-4.826 2.285-4.826 1.27 0 1.016 3.81-.508 8.89-1.777 5.842-4.063 8.89-7.365 8.89-2.539 0-4.571-1.524-4.571-3.302 0-4.572-31.492-18.034-49.016-21.082-5.079-.762-10.159-2.54-10.921-3.81-2.031-3.302-6.095-2.794-6.095 1.016 0 1.778 2.286 4.826 5.08 6.858 2.793 2.032 5.079 4.826 5.079 6.096 0 3.556 10.667 19.812 12.19 18.288.762-.762-.508-3.556-2.793-6.096-2.54-2.54-4.318-5.588-4.318-6.858 0-1.27 2.54.508 5.334 3.556 5.079 5.588 5.333 7.62 3.809 31.496-.762 14.224-2.54 26.416-3.555 27.178-3.302 2.286-8.127 15.24-8.127 21.59 0 3.556-1.016 6.35-2.54 6.35-1.27 0-2.54 4.318-2.54 9.398 0 9.652-8.381 35.306-12.952 39.878-4.064 4.572-2.286-4.318 4.063-20.066 3.556-8.382 6.35-19.05 6.35-23.622 0-4.318 1.015-8.128 2.285-8.128 1.016 0 2.794-5.334 3.81-11.684.762-6.604 2.54-13.208 3.809-14.732 1.27-1.524 2.794-6.35 3.556-10.414.762-4.318 2.286-10.668 3.301-14.478 2.032-8.89-.761-20.574-4.825-19.05-1.778.508-6.857-.508-11.682-2.286-4.572-2.032-11.175-3.556-14.477-3.556-3.047 0-6.349-1.016-7.111-2.286-1.778-2.794-16.254-6.096-23.873-5.334-3.047.254-12.952-1.778-21.587-4.572-19.81-6.35-28.191-8.128-41.397-8.636-9.397-.254-10.667-1.016-13.46-8.89-1.778-4.572-4.064-7.874-5.08-7.112-1.269.508-1.523-1.778-.761-5.588 1.015-4.826.507-6.096-2.032-4.572-2.286 1.27-2.54.508-1.524-2.794 2.794-9.398-2.032-11.938-10.159-4.826-9.905 8.636-14.222 12.192-19.809 16.51-4.572 3.556-4.826 3.556-1.27-2.54 2.032-3.302 4.825-7.62 6.603-9.398 1.524-1.778 3.81-5.842 4.825-9.144.762-3.048 3.81-8.636 6.35-12.192 2.539-3.556 3.809-7.366 2.793-8.382-.762-1.016-.508-2.54 1.016-3.556 2.54-1.778 13.46-19.05 21.841-34.544 5.334-9.906 5.842-19.05.762-20.828-2.031-1.016-3.809-3.302-3.809-5.334 0-2.286-1.524-3.302-3.556-2.54-2.031.762-5.079-.254-6.857-2.286-1.778-2.286-10.667-7.874-19.809-12.7-21.588-10.922-31.746-17.018-32.762-19.558-.508-1.016-2.794-1.778-5.334-1.778-2.285 0-6.857-1.778-9.904-4.064-3.048-2.032-7.112-3.302-8.889-2.794-1.778.762-1.27 1.524 1.524 1.524 2.285.254 4.317 2.032 4.317 4.318 0 2.032 1.27 3.048 2.54 2.286 1.523-.762 3.301.254 4.063 2.286.762 2.286 3.556 4.064 6.349 4.064 2.54 0 5.588 1.778 6.857 4.064 1.27 2.032 3.81 4.064 5.842 4.572 5.079 1.016 19.301 9.144 27.936 16.256 4.064 3.302 8.381 5.334 9.651 4.572 1.016-.762 6.857 2.032 12.445 6.096 10.158 7.112 10.412 7.874 7.619 15.748-1.524 4.572-6.096 11.684-10.159 15.748-5.587 5.842-27.175 44.704-28.953 52.324 0 .762-2.031 5.588-4.317 10.668-2.54 5.334-4.064 10.922-3.81 12.7 1.778 7.874-23.873 3.556-26.92-4.572-.762-2.032-2.794-3.556-4.318-3.556-1.523 0-6.603-3.048-11.174-7.112-4.572-3.81-14.73-10.668-22.603-15.494-7.873-4.826-14.731-10.922-15.746-13.462-.762-2.54-3.81-5.842-6.858-7.62-5.079-2.54-5.333-2.54-2.031 1.524 3.047 3.556 3.047 4.064-.762 2.54-2.286-.762-4.064-3.556-4.064-5.842 0-2.794-.762-3.048-2.031-1.016-1.27 2.032-3.302 2.286-5.588.762-3.301-2.286-3.301-2.54 0-2.54 2.286-.254 1.524-1.27-1.778-2.54-3.555-1.524-5.841-4.572-5.841-7.874 0-5.588 14.476-31.242 25.397-44.45 16.254-20.066 15.492-18.796 11.429-18.796-2.286 0-8.127 1.778-13.207 3.81-11.936 5.08-16.762 4.572-7.111-.508 4.572-2.54 6.349-4.572 4.318-5.334-4.318-1.27-16 6.35-14.985 10.16 1.27 6.604-7.873 4.318-17.269-4.318-8.127-7.62-9.143-9.652-6.096-11.938 3.048-2.032 2.794-2.286-.508-1.27-2.793 1.016-7.619-2.54-13.968-10.16-12.698-14.986-16.254-18.542-18.54-18.542-1.777 0-8.38-15.748-6.857-17.018.508-.508 2.286 2.54 4.064 6.858 1.778 4.064 4.063 7.62 5.079 7.62s-.254-4.318-2.793-9.398c-2.54-5.334-4.826-11.938-4.826-15.24 0-3.048-1.27-6.35-3.047-7.366-1.778-1.016-2.032-.762-1.016 1.016s1.27 3.048.254 3.048c-.762 0-4.064-6.096-7.365-13.462-5.842-12.954-7.366-17.018-10.159-29.718-1.27-5.588-1.016-5.334 2.286 1.27l3.809 7.62-1.524-8.89c-1.016-4.826-2.539-9.144-3.555-9.652-1.016-.508-1.524-3.302-.762-6.35 1.016-4.572.762-4.826-1.524-1.778-2.286 3.048-2.54 2.286-1.27-3.556 1.27-4.826.762-6.858-.762-5.842s-3.301-.508-4.063-3.048c-1.524-5.842 15.238-20.574 22.857-20.32 3.555 0 3.809.508.762 1.524-4.826 2.032-16.508 10.922-13.968 10.922 1.015 0 4.825-1.524 8.38-3.556 3.81-2.032 10.413-4.826 14.477-6.35 4.317-1.27 15.492-5.334 25.143-8.89 9.65-3.556 20.063-6.604 22.857-6.604 3.047 0 7.365-2.286 9.904-5.08 5.588-6.604 5.588-8.382-.507-5.08-2.794 1.27-14.477 5.588-26.159 9.398-11.683 3.556-23.619 8.382-26.667 10.414-3.301 2.032-5.841 2.54-5.841 1.27 0-3.302 8.127-7.112 29.206-13.462 9.905-3.048 22.095-7.62 27.429-10.414 5.587-2.54 12.952-4.572 16.508-4.572 6.095.254 5.841.762-2.032 2.54l-8.889 2.032 10.667-.508c5.841-.254 9.904.254 9.397 1.016-1.778 3.048 25.396 12.192 33.777 11.43 5.842-.508 9.651 1.016 13.207 5.08 2.793 3.048 4.317 6.35 3.555 7.112-1.016.762-.254 1.524 1.524 1.524s2.286 2.54 1.27 6.858c-1.016 5.588-.762 6.35 1.27 3.302 1.524-2.032 2.793-2.54 2.793-1.27 0 1.524-1.269 4.064-2.539 5.334-1.778 1.778-1.016 4.826 2.539 9.144 2.794 3.81 5.08 8.382 5.08 10.668 0 2.286 2.285 6.35 5.333 9.398 2.794 2.794 4.572 6.858 3.81 8.636-.762 2.032.254 5.08 2.031 7.112 1.778 1.778 5.588 7.112 8.127 11.684 9.905 17.526 11.175 19.304 14.223 18.542 9.65-2.794 14.73-2.794 27.428-.254 44.445 8.382 57.397 10.414 54.603 7.874-8.381-7.366-41.143-13.208-72.635-12.954-10.412 0-11.936-.762-13.46-6.35-.762-3.302-3.048-7.874-4.825-9.652-5.08-5.08-11.937-19.812-9.143-19.812 1.27 0 2.286-11.176 2.286-24.892s1.269-31.75 2.793-39.878c2.032-10.922 2.032-15.24 0-16.002-1.524-.508-2.793-1.778-2.793-2.794 0-2.286 20.825-.254 24.38 2.54zm-92.952 9.906c2.032 1.27 2.794 2.54 1.27 2.54-1.27 0-4.318-1.27-6.349-2.54-2.032-1.27-2.54-2.54-1.27-2.54 1.524 0 4.317 1.27 6.349 2.54zm314.159 17.78c.762 0-.508-2.794-2.794-6.35-2.286-3.556-3.047-6.35-1.778-6.35 1.27 0 3.048 2.286 4.064 5.08 1.524 4.572 7.111 12.446 25.143 34.544 3.809 4.572 6.603 9.144 6.603 10.668 0 1.524.762 3.048 2.032 3.556 2.793 1.27 18.285 31.496 18.285 36.068 0 2.286-1.269 4.064-2.539 4.064-3.556 0-46.73 26.924-50.794 31.75-1.778 2.032-5.079 3.81-7.365 3.81-3.302-.254-3.048-.762 1.016-3.048 2.794-1.524 6.349-4.064 7.619-5.842 1.524-1.524 10.159-7.874 19.809-13.716 9.397-6.096 17.016-11.43 17.016-11.938 0-2.032-28.698 14.224-41.397 23.622-6.603 5.08-11.428 9.652-10.666 10.414.762.762-1.27 4.064-4.318 7.366-6.857 7.366-4.317 10.16 11.429 10.668 2.54.254 3.809 1.27 3.048 2.794-.762 1.27.761 2.54 3.809 2.54 3.302 0 4.825-1.016 3.556-3.048-1.27-1.778-.762-2.032 1.269-1.016 1.778 1.27 2.54 3.556 1.778 5.588s-.254 3.556 1.27 3.556 1.778 1.016 1.016 2.54c-.762 1.27-.254 2.54 1.016 2.54 1.524 0 2.54.762 2.286 1.778-1.016 3.556 8.634 21.082 11.428 21.082 1.27 0 .762-2.032-1.524-4.572-2.539-2.54-4.317-5.842-4.317-7.112 0-1.016 3.555 1.524 7.619 6.096 6.603 7.366 7.619 10.414 7.619 23.368 0 8.128-1.016 15.748-2.54 16.51-1.27.762-2.539 6.096-2.539 11.684 0 5.334-1.016 9.906-2.032 9.906-3.048 0-7.619 15.494-10.667 35.052-1.27 8.89-3.301 17.526-4.571 19.05-1.27 1.778-3.81 7.366-5.334 12.446-1.777 5.334-4.317 10.16-5.587 10.922-1.27 1.016-1.27-.762 0-4.318 1.27-3.302 4.572-11.684 7.365-18.542 2.794-7.112 5.841-19.304 6.603-27.432 1.016-8.128 3.556-17.78 5.588-21.59 1.777-3.81 3.555-8.89 3.555-11.176 0-2.54 1.27-9.398 3.048-15.494 3.301-12.446 1.016-25.654-3.81-23.876-1.777.762-6.095-.254-9.65-2.286-3.302-1.778-9.651-3.302-13.969-3.556-4.317 0-9.397-1.778-11.174-3.81-1.778-2.286-4.826-3.556-6.857-2.794-1.778.762-3.302.508-3.302-.508s-5.333-2.032-11.937-2.032c-6.857-.254-20.571-2.794-30.984-5.842-10.412-2.794-24.381-5.334-31.238-5.334-8.889 0-12.19-1.016-12.19-3.556 0-4.064-7.873-20.066-10.413-21.336-.762-.254-1.016-3.556-.254-6.858.762-4.826 0-6.35-3.048-6.35-2.539 0-3.809-1.016-3.047-2.286 2.032-3.302 27.936-.254 30.984 3.81 1.524 1.778 3.555 2.794 4.317 1.778 1.016-.762 1.778-.508 1.778.762 0 1.524 3.81 2.032 8.381 1.524 5.587-.508 9.905.762 13.714 4.318 5.842 5.588 9.651 7.112 7.112 2.794-.762-1.524.253-2.54 2.285-2.54 2.286 0 4.064 1.016 4.064 2.286s5.587 3.556 12.698 5.334c7.873 1.778 11.937 4.064 10.921 5.842-1.016 1.524 0 2.032 2.285 1.016 2.286-.762 7.112.254 10.921 2.286 4.064 2.032 8.381 3.302 9.905 2.794 2.794-1.016-8.889-6.858-22.603-11.43l-7.619-2.54 7.111-.254c4.317-.254 6.603-1.27 5.587-3.048-1.016-1.524.762-5.334 4.064-8.89 6.857-7.112 4.063-7.874-6.604-1.524-9.904 6.096-18.539 8.382-20.571 5.08-.762-1.27-3.556-2.032-6.349-1.27-6.095 1.524-10.159-3.302-20.064-24.892-4.571-9.906-9.651-18.542-11.174-19.558-1.524-1.016-1.778-2.032-.762-2.032 1.27 0-2.286-5.334-7.619-12.192-11.937-13.97-17.27-26.924-12.699-30.226 1.778-1.27 7.619-4.572 13.207-7.112 5.587-2.794 13.46-7.62 17.269-10.922 4.064-3.048 9.397-5.588 11.937-5.588 2.286 0 5.841-1.778 7.619-3.81 1.778-2.032 4.571-3.81 6.603-3.81 1.778 0 4.826-2.286 6.857-5.08 2.286-3.302 5.08-4.572 7.873-3.556 2.794 1.016 4.064.254 4.064-2.54 0-2.286 1.778-4.064 3.809-4.064 2.286 0 6.35-2.286 9.397-5.08l5.588-5.08 5.841 10.16c3.301 5.588 6.857 10.16 7.619 10.16zm-169.143-10.922c10.159 11.684 13.46 18.796 9.651 21.082-2.286 1.524-2.286 3.048 1.016 6.096 2.285 2.286 4.571 4.064 4.825 3.81 2.286-1.524 11.937 3.556 10.921 5.588-1.016 1.27-.254 2.286 1.016 2.286 1.523 0 8.381 4.064 15.238 8.89 11.428 8.128 12.952 10.922 18.031 27.432 3.048 10.16 5.334 18.288 5.08 18.288-.508 0 1.778 5.08 4.825 10.922 6.095 11.938 6.095 16.002-.254 8.89-4.063-5.08-17.27-40.894-17.27-47.498 0-2.032-3.809-5.842-8.127-8.128-4.571-2.286-10.92-7.112-14.222-10.922l-5.841-6.604 2.794 6.35c2.793 6.096 2.539 6.096-1.016 1.524-2.286-2.794-4.064-5.842-4.064-7.112 0-1.016-1.778-1.27-3.809-.508-2.032 1.016-3.81.254-3.81-1.27s-1.778-2.032-3.809-1.27c-2.286 1.016-3.81 0-3.81-2.54 0-2.286-1.27-4.064-2.794-4.064-1.269 0-1.777-1.27-1.015-2.54.761-1.524.254-2.54-1.016-2.54-1.524 0-2.794-1.27-2.794-2.54 0-1.524 1.778-2.54 3.81-2.54 2.031 0 3.809-1.27 3.809-2.794 0-1.778-3.048-2.286-8.635-1.27-7.111 1.27-8.635.762-9.905-3.556-3.301-12.954-17.777-6.35-21.079 9.398l-1.524 8.382 7.619-4.064c6.857-3.302 8.889-3.302 16.762 0 11.683 4.826 17.524 14.224 17.27 28.194-.254 14.224-3.556 20.574-13.968 26.67-9.651 6.096-16.762 6.35-28.445 1.524-12.444-5.334-17.524-16.51-17.524-39.624 0-34.544 10.667-50.8 33.778-50.8 9.905 0 13.207 1.27 18.286 6.858zm-133.587-1.778c.762 1.524-.254 1.778-2.286 1.016-4.571-1.778-5.333-3.556-1.778-3.556 1.524 0 3.302 1.016 4.064 2.54zm331.174 8.89c7.873 3.556 11.937 6.096 9.143 6.35-3.047 0-9.651-2.286-15.238-5.08s-11.936-5.08-14.476-5.08c-2.286 0-5.08-1.27-6.095-2.794-2.286-4.064 8.381-1.27 26.666 6.604zm-212.063 10.16c.762 2.54-.254 3.81-3.556 3.81-5.079 0-8.381-3.302-5.841-6.096 2.794-2.794 7.873-1.524 9.397 2.286zm-69.588 13.97c0 2.794-1.015 5.08-2.539 5.08-1.27 0-2.54-2.286-2.54-5.08s1.27-5.08 2.54-5.08c1.524 0 2.539 2.286 2.539 5.08zm0 19.812c0 8.382-4.063 4.572-6.603-5.842-1.777-6.858-1.524-7.366 2.286-4.064 2.54 1.778 4.317 6.35 4.317 9.906zm136.127 27.686c2.54 8.128 4.572 17.78 4.826 21.59 0 6.604-.254 6.604-4.318 2.032-2.539-2.794-4.571-5.588-4.571-6.604 0-.762-2.286-4.826-5.333-9.144-3.048-4.064-4.826-7.874-4.318-8.382s3.81 3.556 7.111 8.89c3.556 5.588 7.365 10.16 8.635 10.16 1.016 0 .254-2.54-2.032-5.842-2.285-3.048-5.841-9.906-8.127-14.986-2.285-5.334-5.333-8.89-6.857-7.874-1.269.762-1.777.254-.762-1.27.762-1.524.508-3.302-1.015-4.318-6.096-3.81-1.778-6.096 4.571-2.794 5.587 2.794 8.635 7.366 12.19 18.542zm21.334 6.35c3.301 6.096 6.603 11.43 7.619 12.192 1.524 1.27 15.238 32.258 15.238 34.544 0 2.286-6.603.762-13.714-2.794-3.81-2.032-9.397-3.81-11.937-3.81-5.841 0-12.952-12.954-9.651-18.034 1.778-2.794 2.286-2.286 2.286 2.032 0 3.302 1.27 5.842 2.54 5.842 1.524 0 2.285 1.016 2.032 2.286-.508 1.27-.254 2.286.507 2.032.762 0 4.064 1.27 7.366 3.048 4.825 2.794 5.587 2.794 3.809-.254-1.27-1.778-1.778-5.334-1.524-7.62.508-2.54-.254-6.604-1.778-9.144-5.587-10.414-12.698-30.988-10.92-30.988 1.27 0 4.825 4.826 8.127 10.668zm-30.476 10.668c0 1.778 3.555 7.112 7.619 11.684 9.65 10.922 9.65 12.7-1.016 12.7-11.683 0-14.222 4.064-15.746 25.908-1.27 18.034-5.588 32.258-8.381 27.94-3.048-4.318-28.445-18.288-33.27-18.288-2.54 0-10.159-2.794-16.762-6.35-6.603-3.556-13.46-6.35-15.238-6.35-3.556 0-4.571-3.048-3.81-9.398.254-1.778-1.269-6.604-3.555-10.668-2.032-4.318-3.81-8.382-3.81-9.144 0-2.54 54.858 4.572 71.619 9.398 10.413 3.048 17.778-.254 17.016-7.874-1.016-11.684.508-25.908 2.794-24.384 1.524.762 2.54 3.048 2.54 4.826zm-91.429 39.37c0 1.27-2.54 2.794-5.587 3.556-5.588 1.524-5.588 1.524-1.016-2.032 5.841-4.318 6.603-4.572 6.603-1.524zm89.905 17.272c-1.524 10.922-5.841 26.416-9.651 34.544-3.556 8.128-6.857 18.542-7.365 23.114-.254 4.826-1.27 8.382-2.032 7.874s-1.27 4.572-1.016 11.43-.762 11.684-2.031 10.922c-1.27-.762-1.778-4.572-1.27-8.636.762-4.064.254-7.366-1.016-7.366-1.016 0-.254-4.318 1.524-9.652 2.031-5.08 4.317-13.716 5.333-18.796.762-5.334 2.794-10.922 4.571-12.7 5.588-6.096 9.143-16.002 10.667-31.242 1.524-13.716 2.794-19.05 4.825-19.05.254 0-.761 8.89-2.539 19.558zm87.111-7.874c-.762.762-3.048 1.016-4.825.254-2.032-.762-1.27-1.524 1.523-1.524 2.794-.254 4.318.508 3.302 1.27zm-83.81 16.764c-.762 1.778-1.269.508-1.269-3.048s.507-4.826 1.269-3.302c.508 1.778.508 4.826 0 6.35zm7.619 15.24c-1.015 10.16-2.285 22.352-3.301 27.178-1.524 9.652-11.683 33.528-18.286 43.434-2.286 3.556-3.809 9.652-3.555 13.97.508 5.588 0 6.604-1.524 3.81-3.048-4.826-.508-45.72 2.539-45.72 1.524 0 2.032 3.302 1.524 7.366-.508 4.318-.254 7.112 1.016 6.35 2.794-1.778 2.54-13.208-.508-14.986-1.27-.762-2.539-2.794-2.539-4.064 0-1.524 1.269-1.778 2.539-1.016 1.524.762 2.54-.762 2.54-3.302 0-2.794 2.286-12.192 5.079-21.082 2.54-8.89 5.08-17.526 5.588-18.796.761-2.794 7.619-11.43 9.396-11.43.508 0 .254 8.382-.508 18.288zm-52.317-11.43c3.302 3.81 3.048 3.81-2.032 1.016-6.095-3.048-7.365-5.334-3.555-5.334 1.27 0 3.809 1.778 5.587 4.318zm9.397 79.502c1.27 0 2.286 1.524 2.286 3.048 1.523 24.638 1.269 27.94-2.032 29.972-1.778 1.27-4.064 1.524-4.826.508-.762-1.016-6.349-2.286-12.698-2.794-6.349-.254-11.937-1.27-12.191-1.524-1.269-1.27 7.874-16.51 9.905-16.51.762 0 4.064-5.334 7.365-11.684 5.334-10.16 6.35-10.922 8.127-6.35 1.016 3.048 2.794 5.334 4.064 5.334zm-13.968 37.338c-1.778.508-4.826.508-6.35 0-1.777-.762-.508-1.27 3.048-1.27s4.825.508 3.302 1.27zm-39.112 13.97c-1.015 6.096-2.031 13.716-2.285 17.018 0 6.096 0 6.096 5.333 1.27 5.587-4.826 5.587-4.826 3.556 1.524-1.016 3.556-7.365 19.304-14.223 35.052-6.857 16.002-12.444 30.988-12.444 33.528 0 2.54-1.016 5.588-2.54 6.35-5.079 3.048-2.285-8.128 7.619-30.988 11.683-26.924 14.984-37.846 10.413-35.306-3.81 2.54-12.952 22.606-13.968 31.242-.508 4.064-3.302 11.684-6.349 17.018-4.318 7.366-5.334 12.192-4.064 18.542.762 4.572 2.54 8.382 3.81 8.382 1.523 0 2.539 6.604 2.539 14.986 0 29.718 5.08 39.116 22.857 41.91 5.842 1.016 13.969 3.302 17.778 5.334 3.81 2.032 10.921 4.064 15.492 4.572 4.826.508 10.921 2.286 13.715 3.81 7.619 4.064 28.952 10.668 42.92 13.208 6.857 1.27 12.953 3.048 13.968 3.81 2.032 2.286-25.396-1.524-30.222-3.81-5.841-3.048-32.762-11.684-46.984-14.986-6.857-1.778-13.714-4.064-15.238-5.334-1.27-1.016-6.603-2.794-11.429-3.81-15.238-2.794-17.777-4.064-17.777-7.874 0-2.032-1.016-3.556-2.032-3.556-3.556 0-8.127-16.256-8.127-28.448 0-6.604-1.27-17.272-2.794-24.13-2.539-10.922-2.285-13.716 2.54-23.622 2.794-6.096 5.333-12.7 5.333-14.478 0-1.778 3.302-10.668 7.111-19.304 4.064-8.636 8.127-22.352 8.889-30.226 2.032-16.002 3.81-22.352 6.857-22.352 1.016 0 1.016 4.826-.254 10.668zm162.032 31.242c4.826 2.032 11.937 3.81 15.746 4.064 3.556 0 8.889 1.016 11.683 2.286 3.301 1.524.254 1.778-8.889 1.016-7.619-.762-17.778-3.302-22.349-5.334-4.572-2.032-10.159-3.048-12.191-2.286s-3.555.254-3.555-1.016c0-3.81 9.142-3.048 19.555 1.27zm-150.349 8.128c-3.81 21.59-24.635 71.882-29.714 71.882-6.096 0 9.904-52.324 22.857-75.692 5.079-8.89 8.635-6.858 6.857 3.81zm-26.667 79.502c0 2.794-1.016 5.08-2.031 5.08-1.016 0-2.032-2.286-2.286-5.08s.508-5.08 2.032-5.08c1.269 0 2.285 2.286 2.285 5.08zm-182.095-676.402c3.81.508 9.905.508 13.968 0 3.81-.508.508-1.016-7.111-1.016s-10.92.508-6.857 1.016zm-24.127 2.54c1.778.762 4.064.508 4.825-.254 1.016-.762-.507-1.524-3.301-1.27-2.794 0-3.556.762-1.524 1.524zm16.254 4.064c-13.46 1.524-20.571 3.556-20.063 5.334.761 1.524 6.095 2.54 12.952 2.286l11.682-.762-4.063 6.35-4.064 6.35h12.445c11.682 0 13.206-.762 19.302-9.398 6.349-8.636 6.349-9.652 2.285-11.43-5.079-2.032-3.301-2.032-30.476 1.27zm24.889.508c0 1.016-1.778 4.826-3.81 8.89-3.047 5.842-5.587 7.62-11.682 7.62-6.603 0-7.365-.508-4.826-4.826 3.556-6.858 3.302-7.874-1.777-8.382-2.54 0 .508-1.016 6.857-2.032s12.19-2.032 13.46-2.032c1.016-.254 1.778 0 1.778.762zm336.508 21.844c-1.016 4.826-3.556 10.922-5.333 13.716-2.032 2.794-3.556 6.858-3.556 9.398s-1.524 3.81-3.048 3.302c-1.777-.762-13.46 1.016-26.158 3.81-12.445 3.048-28.191 6.096-34.794 7.112-6.349 1.27-13.206 3.302-15.238 4.826-1.778 1.524-6.603 3.302-10.921 4.064-17.27 3.048-25.397 7.874-26.158 15.494-1.27 8.89-13.969 21.844-21.588 21.844-5.587 0-13.206-3.556-56.127-26.162-9.397-5.08-18.285-8.636-19.555-7.874-1.27.762-2.286 0-2.286-1.524s-1.016-2.032-2.54-1.27c-1.27.762-2.539.254-2.539-1.27 0-3.556-21.588-12.7-29.969-12.7-5.333 0-6.095.508-3.047 2.54 2.031 1.27 5.841 2.54 8.635 2.54 4.063 0 8.381 2.794 23.619 15.24 1.777 1.524 4.063 2.54 5.079 2.54 1.27 0 7.365 2.794 14.222 6.35 6.603 3.556 11.937 5.842 11.937 5.08 0-.762 7.873 2.54 17.524 7.62 9.65 5.08 23.111 9.652 29.968 10.668l12.698 1.27-4.825 12.7c-7.111 18.796-3.81 17.526 5.333-1.778 8.381-17.526 13.461-20.32 14.984-8.128.508 3.81 1.778 6.858 2.794 6.858 3.048 0 7.619 16.764 10.413 36.576 2.031 16.002 3.809 21.59 5.841 19.05 3.302-3.556-8.127-56.134-14.984-69.596-1.27-2.794-2.54-9.398-2.286-14.732 0-9.144.762-10.16 9.905-13.208 9.651-3.302 19.809-5.588 35.809-7.62 4.318-.508 12.699-2.54 19.048-4.826 6.349-2.286 13.46-4.064 16-4.064 2.54 0 7.111-1.524 10.159-3.556 5.079-3.302 13.46-5.08 21.587-4.318 2.286.254 2.54 1.524.508 5.08-2.54 4.826-2.54 23.114 0 23.114.762 0 1.524 3.556 1.778 7.874.254 4.572 2.285 9.906 4.317 12.192 6.095 7.112 12.699 21.59 13.207 29.21.254 4.064 1.523 7.874 2.539 8.89 3.048 2.032 3.302 12.954.508 12.954-1.27 0-1.524 1.016-.762 2.54.762 1.27.508 2.54-.762 2.54-1.269 0-2.285 1.524-2.539 3.048-1.016 7.874-3.556 22.352-4.064 22.352 0 .254-6.603.762-14.222 1.524s-16.762 3.048-20.317 5.08c-7.62 4.318-34.286 13.716-42.667 14.986-3.302.508-8.635 3.81-11.937 7.366-5.841 6.35-6.349 6.35-8.889 1.778-1.269-2.794-2.539-7.112-2.539-9.652 0-3.302-.762-3.81-2.032-1.27-4.063 6.096-1.524 14.224 6.095 18.542 4.064 2.286 7.111 5.588 6.603 7.366-.507 2.032.762 2.54 3.556 1.524s4.571 0 5.333 3.556c.762 2.794 2.286 4.318 3.556 3.556 1.27-.762 2.286 4.318 2.286 11.43 0 12.192 3.047 18.288 6.349 12.954 1.016-1.524 2.793-2.032 4.063-1.27 1.27 1.016 2.286.254 2.286-1.27 0-1.778-2.032-2.286-5.333-1.27-3.81 1.27-4.826 1.016-3.556-1.27 1.016-1.524 4.572-2.286 8.889-1.27 5.079 1.016 7.365.508 8.635-2.54 1.016-2.54.508-3.556-1.524-2.286-1.778 1.27-2.032.762-1.016-1.27 1.27-1.778 4.572-2.794 7.619-2.286 3.048.254 9.397-2.032 14.223-5.588 4.571-3.302 7.619-4.318 6.603-2.286-1.016 1.778 0 1.27 2.031-1.27 2.286-2.794 4.064-3.556 4.064-2.032 0 1.778 3.809 3.048 8.889 3.048 5.333 0 8.889-1.27 8.889-3.302 0-2.286.508-2.286 2.285.254 1.016 2.032 4.572 3.048 7.619 2.54 5.08-.762 5.08-1.27 1.524-8.128-2.285-4.064-3.809-13.97-3.809-22.86 0-8.89-.762-16.51-1.524-17.272-1.524-1.524-42.667 11.43-47.746 15.24-6.603 4.826-44.698 13.208-44.698 9.652 0-1.016 20.571-6.604 27.428-7.112 1.524-.254 3.048-1.27 3.048-2.286 0-1.27 1.524-1.524 3.555-.762 2.032.762 6.349-.254 9.651-2.286 3.302-2.286 15.238-6.858 26.667-10.668l20.825-6.604 5.841 5.334 5.842 5.334 1.523-8.382c.762-4.826 2.286-9.906 3.302-11.684 1.016-1.778.762-8.636-1.016-15.24-3.301-14.732-1.524-20.574 11.683-35.56 13.714-16.002 15.238-9.652 4.571 20.828-5.841 16.764-8.127 26.924-6.857 31.496 1.524 6.604 1.778 6.35 5.079-3.048 1.778-5.334 5.08-11.176 7.365-12.7 2.032-1.778 3.556-4.064 3.302-5.334-.254-1.524.762-6.096 2.54-10.16 2.031-4.572 2.793-12.446 1.778-19.558l-1.27-11.938 11.174.762c6.096.254 12.445 1.778 14.476 3.302 1.778 1.524 7.366 3.302 12.191 4.064 14.73 2.286 64 13.97 75.683 17.78 6.603 2.286 8.126 4.064 8.126 10.16 0 3.81-1.523 10.16-3.301 13.97-2.032 3.81-5.08 13.716-6.857 22.098-1.778 8.382-4.064 16.256-5.08 17.272-1.016 1.27-1.269 7.112-.508 13.462.762 6.604.254 11.176-1.523 11.176-1.27 0-3.048 2.54-3.81 5.588-.762 3.302-3.809 13.716-6.603 23.622-2.794 9.652-4.572 18.034-4.064 18.796.762.508 1.524-.508 2.286-2.54.508-2.032 4.572-13.208 9.143-25.146 4.571-11.938 8.381-25.4 8.635-29.972.508-4.318 1.524-8.89 2.286-9.906 1.015-.762 1.777-4.318 1.777-7.62 0-3.556 1.27-8.382 2.54-11.176 4.825-8.89 10.667-45.974 7.873-50.038-1.778-2.286-17.016-8.128-25.651-9.906-3.555-.762-9.904-2.794-14.476-4.826-4.317-2.032-11.936-3.556-16.762-3.556-4.825 0-13.206-1.778-18.539-4.064-5.588-2.286-12.953-4.064-16.762-4.064-4.064 0-7.111-.762-7.111-2.032s-4.064-1.778-8.889-1.524c-5.08.508-8.889-.254-8.889-1.778 0-1.778-1.016-1.778-3.048.254-4.571 4.572-7.619 3.81-6.095-1.524 1.016-2.54-.254-6.858-2.286-9.652-2.032-2.54-3.809-6.858-3.809-9.398s-1.016-4.064-2.286-3.302c-1.27 1.016-1.778-1.016-1.016-3.81 1.016-4.064.508-5.08-2.032-4.318-2.031.762-3.809 4.572-3.809 8.636-.762 16.002-1.016 18.796-2.794 18.796-2.54 0-8.381-12.446-8.381-17.526 0-2.286-1.778-6.35-3.809-8.89-2.032-2.794-3.81-7.874-3.81-11.176 0-3.302-1.778-7.62-3.809-9.906-2.286-2.286-3.302-6.096-2.54-9.398.508-2.794.508-4.064-.254-2.286-1.016 2.286-2.54 2.54-6.095.254-4.572-3.048-4.572-3.302.508-12.446 3.809-6.858 4.571-10.414 2.539-13.716-2.031-4.064-2.793-3.556-4.317 4.064zm4.825 33.02c2.54 4.318 3.81 8.382 3.048 9.398-1.016.762-2.286-1.016-3.302-4.064-1.016-4.572-2.031-5.08-4.825-2.794-2.032 1.524-3.556 5.08-3.556 7.874 0 5.334 8.889 19.812 14.477 23.114 1.777 1.27 2.793 3.048 2.031 4.572-1.016 1.27-.254 2.286 1.016 2.286 4.318 0 3.302-4.826-2.286-11.938-5.079-6.35-6.857-16.002-3.047-16.002 2.54 0 8.635 17.78 8.889 25.908 0 4.064 1.016 6.35 2.539 5.334 1.524-1.016 1.778-.254.508 1.524-1.269 2.286-2.539 2.54-4.571.508-1.778-1.778-3.556-1.524-5.333 1.27-2.54 3.302-4.318 1.27-10.159-11.176-6.349-13.462-7.111-16.764-5.587-29.464 1.015-7.874 2.793-14.224 3.809-14.224.762 0 3.81 3.556 6.349 7.874zm-4.317 15.494c-.762 1.778-1.27.508-1.27-3.048s.508-4.826 1.27-3.302c.508 1.778.508 4.826 0 6.35zm38.349 36.322c0 6.604-4.317 11.938-4.825 5.842 0-1.778-1.016-1.016-2.286 1.778-2.032 4.572-2.286 4.572-2.286-1.524-.254-5.842 3.81-12.446 7.619-12.446.762 0 1.778 2.794 1.778 6.35zm-14.73 6.604c0 4.826-5.079 4.572-8.635-.762-5.841-8.382-5.079-10.414 2.286-5.588 3.555 2.286 6.349 5.08 6.349 6.35zm-4.826 15.748c-2.031 2.032-2.793 1.524-2.793-2.54 0-2.794-1.778-6.604-3.81-8.382-2.031-1.778-3.809-4.318-3.809-5.588 0-1.27 3.047 1.27 6.603 5.588 5.079 5.842 6.095 8.636 3.809 10.922zm-4.063 32.258c-.762 1.27-.254 2.54 1.524 2.54s2.286 2.032 1.016 5.588c-.762 3.302-1.778 7.366-1.778 9.144-.508 4.318-5.587 2.286-6.603-2.54-.762-4.064 3.555-17.272 5.841-17.272 1.016 0 .762 1.016 0 2.54zm-11.429 46.99v15.748c0 1.27-5.333 2.54-12.19 3.302-6.603.762-17.778 4.064-24.889 7.366-6.857 3.302-15.746 7.62-19.556 9.398-10.158 4.826-11.174 4.572-12.952-4.572-.762-4.572-4.063-10.668-7.111-13.97-6.603-6.858-5.841-7.874 7.111-9.652 12.445-2.032 17.778-3.556 28.952-8.128 39.874-17.018 40.635-17.018 40.635.508zm-298.666-170.942c0 9.398 1.016 17.272 2.285 17.272 1.016 0 1.778 1.524 1.778 3.556s1.27 4.572 2.794 5.334c3.047 2.032 1.27-16.002-2.794-26.67-1.27-3.556-2.793-8.636-3.301-11.43-.762-2.794-1.016 2.54-.762 11.938zm226.031-8.382c-14.984 4.318-28.698 11.938-28.952 16.51 0 2.54 10.667.762 21.587-3.81 4.318-1.778 11.429-3.302 16.254-3.81 4.826-.508 10.413-2.54 12.699-4.826 3.555-3.302 3.301-3.81-2.286-3.81-5.079 0-5.587-.508-2.54-2.54 5.08-3.302 1.778-2.794-16.762 2.286zm16.762 2.794c3.302 2.032 3.302 2.54-.508 2.54-2.285 0-6.095.762-8.127 1.524-3.047 1.27-3.809.508-2.539-2.54 1.778-4.572 5.587-5.08 11.174-1.524zm-24.127 5.08c-13.206 6.35-18.031 6.35-6.349 0 4.826-2.794 10.667-4.826 12.699-4.826 2.031 0-.762 2.032-6.35 4.826zm-27.682-7.874c-1.016 1.27.254 2.032 2.286 1.778 5.333-.762 7.873-4.064 3.047-4.064-2.286 0-4.571 1.016-5.333 2.286zm-106.667 4.572c4.572.508 10.159 3.302 12.699 6.096 4.317 4.826 8.635 6.35 8.635 2.794 0-3.556-15.747-10.668-22.35-10.16-6.095.254-6.095.508 1.016 1.27zm214.349 2.032c-1.777 2.286-2.539 4.572-1.523 5.588.762.762 1.523.254 1.523-1.524s1.27-2.286 2.54-1.524c1.524.762 2.54-.254 2.54-2.286 0-5.08-1.016-5.08-5.08-.254zm-362.412 11.43c-3.302 1.27-5.842 4.064-5.842 6.096 0 3.81-5.333 6.604-12.952 6.604-5.841 0-6.349 5.842-.762 11.43 2.794 2.54 6.349 3.556 10.159 2.794 6.857-1.778 6.857-1.778 11.174 28.702 1.524 10.414 3.302 19.812 4.064 21.082 1.27 1.778 15.746.508 18.286-1.778 1.523-1.524-10.159-71.12-12.445-74.168-3.301-3.81-4.063-3.81-11.682-.762zm8.381 6.35c-.762 2.032-.254 3.81 1.269 3.81 1.524 0 2.032 2.286 1.016 4.826-1.269 4.318.254 18.796 5.08 47.498 1.016 6.604.508 8.382-3.81 9.398-4.063 1.016-5.079-.254-6.349-6.858-2.54-15.494-6.349-40.894-6.349-43.18 0-1.016-3.81-1.27-8.635-.508-6.349 1.27-8.889.762-10.159-2.286-1.016-2.794.508-3.81 6.349-3.81 5.588 0 8.127-1.524 9.143-4.826 1.016-4.572 4.572-6.604 11.937-7.62 1.016 0 1.524 1.524.508 3.556zm280.127 29.718c-11.683 3.556-20.064 15.494-20.064 29.21 0 12.192 3.048 14.224 14.73 8.89 5.588-2.794 8.127-5.842 8.127-9.906 0-4.826 6.35-10.922 11.175-10.922.762 0 1.524 3.81 1.524 8.636 0 6.604-1.27 9.144-5.08 10.414-5.079 1.778-6.349 5.334-3.555 12.446 1.016 2.794 4.825 4.064 11.428 4.064 7.111 0 10.413 1.27 12.445 4.826 3.809 7.366 3.301 8.89-4.572 13.462-6.857 4.064-7.365 4.064-13.46-2.032-5.587-5.588-7.111-5.842-14.476-3.302-9.397 3.302-9.397 2.794-4.064 13.716 4.318 9.144 9.397 11.43 25.651 11.43 22.095 0 36.318-11.176 36.318-28.448 0-8.382-1.524-11.684-8.635-18.288-6.603-6.604-8.127-9.652-7.365-15.494 3.047-21.59-16.508-35.56-40.127-28.702zm22.095 4.572c13.206 5.08 18.032 19.05 9.397 28.448-3.302 3.556-3.302 4.572-.508 4.572 5.587.254 13.968 8.382 16.508 16.51 5.841 17.78-4.064 30.734-24.889 33.274-13.207 1.524-14.476 1.27-22.095-6.35-8.889-8.636-8.635-11.684.761-13.462 4.572-1.016 6.604 0 7.366 3.302 2.031 7.62 13.714 8.89 21.079 2.032 7.619-7.112 7.619-11.176-.254-19.05-4.571-4.572-7.873-5.842-12.191-4.572-8.888 2.032-10.92-5.334-3.047-10.668 8.127-5.334 8.635-17.018 1.016-22.098-9.143-6.604-18.286-.762-18.54 11.938-.254 3.048-2.794 5.588-6.857 6.604-6.349 1.778-6.349 1.778-4.825-9.398 2.031-12.7 4.571-16.002 16-20.32 10.412-3.81 12.698-3.81 21.079-.762zm123.682-5.842c-4.317 1.524-4.063 5.08 0 6.604 2.032.762 3.556-.762 3.556-3.556.254-2.54.254-4.826 0-4.572-.254 0-2.032.762-3.556 1.524zm6.858 3.302c0 1.27 1.269 2.54 2.539 2.54 1.524 0 2.54-1.27 2.54-2.54 0-1.524-1.016-2.54-2.54-2.54-1.27 0-2.539 1.016-2.539 2.54zm20.317 5.08c0 1.016 5.079 3.302 11.429 5.08 6.095 1.778 10.666 4.064 9.904 5.334-.762 1.27.508 1.524 2.54.762 2.286-.762 6.095-.762 8.635.254 2.794 1.524-1.524 3.048-14.222 5.334-23.365 4.064-30.984 1.778-30.984-9.144 0-4.064-1.27-7.62-2.794-7.62-3.302 0-1.016 14.986 2.794 18.796 4.063 4.064 50.793 2.286 55.365-2.032.762-1.016.254-2.794-1.016-4.064-3.556-3.556-41.651-15.24-41.651-12.7zm43.175-1.524c0 .508 1.777 1.778 4.063 2.54 2.032.762 3.048.508 2.286-1.016-1.524-2.54-6.349-3.556-6.349-1.524zm-43.175 11.684c0 2.794 1.016 5.08 2.286 5.08 1.524 0 2.285-2.286 2.031-5.08-.253-2.794-1.269-5.08-2.285-5.08-1.016 0-2.032 2.286-2.032 5.08zm-339.81.508c-4.825 1.27-9.396 4.572-10.666 7.874-1.524 3.048-3.81 7.62-5.587 9.906-4.064 5.588-.508 9.652 10.158 11.176 6.095 1.016 8.127.254 9.397-3.81 3.048-9.652 16.508-8.382 16.508 1.778 0 3.81-9.143 13.208-13.206 13.208-1.27 0-7.111 2.286-12.699 5.08-5.841 2.794-11.936 5.08-13.714 5.08-2.794 0-12.191 10.668-17.27 19.558-1.016 2.032 7.111 5.842 26.413 11.938 15.238 5.08 28.952 9.144 30.222 9.144 2.286 0 8.635-15.24 7.111-16.764-.508-.508-7.619-3.048-16-5.842-8.127-2.54-12.444-4.826-9.397-5.08 6.096-.254 25.397-8.382 31.492-13.462 2.286-1.778 5.334-7.366 7.112-12.192 5.587-15.494-4.826-32.766-22.604-37.338-5.333-1.524-12.444-1.524-17.27-.254zm21.334 6.096c12.444 4.826 17.778 13.97 15.238 26.924-1.778 9.906-11.937 17.78-30.984 23.876-6.857 2.286-13.461 5.08-14.73 6.35-1.27 1.016 4.571 3.81 12.698 6.35 18.794 5.334 18.54 5.08 17.016 11.176-1.016 3.302-2.794 4.826-5.587 4.064-2.286-.762-7.111-1.778-10.667-2.54-6.349-1.016-35.556-9.398-37.587-10.668-2.286-1.778 13.714-18.796 17.523-18.796 2.54 0 5.08-1.016 5.588-2.286.508-1.524 3.555-3.048 7.111-3.556 15.492-3.048 20.571-5.334 23.365-10.414 3.809-6.604 4.063-11.43 1.27-17.526-3.302-7.112-20.572-5.08-21.588 2.286-.507 4.318-2.031 5.334-6.349 4.064-3.047-.762-6.349-2.54-7.365-3.81-2.032-3.302 5.588-14.224 10.159-14.478 1.524 0 3.048-1.27 3.048-2.54 0-3.81 9.904-3.048 21.841 1.524zm81.27 12.446c-2.54 5.334-3.556 11.176-2.794 14.478 1.27 3.302.762 4.572-.762 3.556-1.524-.762-3.555-.254-4.571 1.27-.762 1.524-.254 3.81 1.27 4.826 2.285 1.27 2.031 2.54-1.016 5.08-2.032 1.778-3.81 4.318-3.81 5.842 0 1.27 3.048-.762 6.857-4.826 3.81-4.064 7.619-7.112 8.889-6.858 1.016.508 1.016-1.27.254-3.556-1.016-2.286-.508-3.556.762-2.794s2.54-4.572 2.794-12.192c.762-16.002-2.032-17.526-7.873-4.826zm4.063 4.318c-1.778 1.778-3.047 2.032-3.047.508 0-3.556 3.047-6.604 4.825-4.826.508.762-.254 2.794-1.778 4.318zm7.111 3.556c0 4.318-1.777 12.954-4.063 19.05-2.286 6.096-4.318 12.954-4.572 14.986-1.016 8.636-7.873 22.86-11.428 24.13-2.286.762-6.095 4.064-8.381 7.366l-4.318 6.096 25.143 1.778c15.492 1.016 25.397 2.794 25.397 4.572 0 2.032 1.016 1.778 3.048-.254 2.285-2.286 1.27-6.858-3.556-20.066-3.809-9.398-7.365-24.384-8.381-33.274-.762-8.636-3.047-19.558-5.079-24.13l-3.556-8.128-.254 7.874zm5.842 30.226c.761 6.858 3.301 17.78 5.333 23.876 2.794 7.366 3.301 11.938 1.524 12.954-2.794 1.778-30.476.762-32.254-1.016-.762-.508 1.27-3.556 4.063-6.35 2.794-2.794 7.111-11.684 9.397-19.812 3.81-12.954 8.889-24.384 10.159-22.86.254.254 1.016 6.096 1.778 13.208zm-290.032-19.05c-.254 6.858.508 12.7 1.778 12.7 1.269 0 2.285-5.842 2.793-12.7.254-7.112-.508-12.7-1.778-12.7-1.269 0-2.285 5.588-2.793 12.7zm440.127-3.048c-4.826 3.302-8.127 11.684-6.095 17.018 1.269 3.81 2.539 2.54 5.841-7.112 2.286-6.604 3.809-11.938 3.555-11.938s-1.777 1.016-3.301 2.032zm59.428 27.686c-25.142 18.542-37.587 32.766-33.777 38.862.761 1.27 7.873 4.064 16 6.35 20.571 5.842 22.857 6.604 19.047 8.128-3.555 1.27-4.571 12.446-1.27 14.224 1.016.762 5.588 2.032 10.159 3.048 7.619 1.524 8.381 1.016 10.921-6.096 2.031-5.588 4.063-7.62 8.127-7.112 7.365.762 12.444-15.24 6.095-19.812-3.81-2.794-3.81-4.064.508-18.288 2.54-8.382 5.333-19.304 6.349-24.384 1.524-8.636 1.016-9.652-4.825-11.938-3.81-1.524-7.619-2.54-8.635-2.54s-13.968 8.89-28.699 19.558zm41.143-13.716c0 .254-3.301 11.43-7.619 24.638-4.063 13.208-7.619 24.892-7.619 25.908 0 1.27 2.286 2.032 5.079 2.032 5.842 0 5.842 0 2.54 8.89-1.778 5.08-3.809 6.35-7.365 5.08-3.302-1.016-5.333.254-6.603 4.318-1.016 3.302-1.524 6.858-1.524 8.128.508 2.032-14.476.254-17.016-2.032-.508-.508.254-3.302 1.778-6.096 4.571-8.89 3.302-10.16-14.984-14.732-15.746-4.064-17.524-5.334-16.254-9.906 2.032-6.604 2.286-6.858 29.46-28.194 18.032-13.97 25.651-18.542 32-18.542 4.318-.254 8.127 0 8.127.508zm-32 26.67c-4.317 3.81-10.159 8.636-13.206 10.668-6.349 4.318-4.826 6.35 6.095 8.636 7.365 1.778 7.873 1.27 11.175-9.144 2.031-6.096 4.571-12.446 5.841-14.224 4.317-5.588-1.778-3.048-9.905 4.064zm-.254 10.668c-.762 2.794-3.047 5.08-5.079 5.08-2.794 0-2.794-1.016-.762-5.08 1.524-2.794 3.809-5.08 4.825-5.08 1.27 0 1.778 2.286 1.016 5.08zm-236.952-33.02c0 1.27-2.794 3.048-6.349 4.064-3.81 1.016-6.35 3.302-6.35 6.096 0 2.286-2.285 6.35-5.079 8.89-5.333 4.826-6.603 12.954-2.54 19.05 1.778 2.794 2.794 2.286 4.826-3.302 1.524-3.81 4.063-6.858 5.841-6.858 4.064 0 10.667-13.97 11.175-23.622.254-3.81 0-6.858-.508-6.858s-1.016 1.016-1.016 2.54zm-2.54 12.7c-6.095 4.064-7.873 2.794-4.825-2.794 2.032-4.064 3.555-4.572 5.587-2.54 2.286 2.286 2.032 3.556-.762 5.334zm-12.19 13.208c-3.048 3.302-5.588 4.318-5.588 2.794 0-3.81 7.873-11.684 9.651-9.652.762.762-1.016 3.81-4.063 6.858zm-170.413-14.224c0 2.794.762 3.556 1.524 1.524.762-1.778.508-4.064-.254-4.826-.762-1.016-1.524.508-1.27 3.302zm215.619 12.954c0 1.27 1.27 3.81 2.54 5.842 2.031 3.048 2.539 2.794 2.539-2.032 0-3.048-1.015-5.588-2.539-5.588-1.27 0-2.54.762-2.54 1.778zm-44.952 25.4c3.809.508 9.904.508 13.968 0 3.809-.508.508-1.016-7.111-1.016s-10.921.508-6.857 1.016zm34.285 2.54c1.778.762 4.064.508 4.826-.254 1.016-.762-.508-1.524-3.302-1.27-2.793 0-3.555.762-1.524 1.524zm-53.333 3.556c-5.841 3.302-5.841 6.604.508 9.906 4.063 2.286 5.079 2.032 5.079-1.27 0-2.286-1.016-3.556-2.285-2.54-1.27.762-3.048.254-4.064-1.27-.762-1.27 1.778-3.048 5.587-4.064 11.429-2.286 12.699-3.048 5.842-3.302-3.556 0-8.381 1.016-10.667 2.54zm44.445.762c14.222 3.81 18.285 7.112 16.253 12.7-1.015 2.794-4.825 4.064-11.936 4.064-5.841 0-10.159 1.27-10.159 2.794 0 2.032 3.048 2.286 9.397 1.016 12.445-2.286 18.54-5.588 18.54-10.414 0-4.572-18.794-13.716-27.937-13.462-4.063 0-1.778 1.27 5.842 3.302zm-111.493 5.08c2.794 2.286 7.366 4.064 10.159 4.064 4.318-.254 4.572-.508 1.524-2.286-2.032-1.27-6.603-3.048-10.159-3.81-6.095-1.778-6.095-1.524-1.524 2.032zm80.254-1.524c0 2.032 2.286 4.064 4.826 4.826 2.793.762 5.587 2.794 6.349 4.826.762 2.032 2.794 3.556 4.571 3.556 2.286 0 2.032-.762-.507-2.54-2.794-1.778-1.524-2.54 5.333-2.54 5.841 0 9.905-1.524 10.92-3.81.762-2.032.254-3.81-1.015-3.81-1.524 0-2.54 1.27-2.54 2.794 0 4.064-22.857 1.27-25.651-3.048-1.778-3.048-2.286-3.048-2.286-.254zm-58.412 6.858c0 1.27 14.222 8.89 16.762 8.89 1.015 0-.762-2.286-4.064-5.08-5.333-4.572-12.698-6.858-12.698-3.81zm54.603 6.35c.762 1.27 4.571 2.54 8.127 2.54 8.127 0 7.111-1.27-2.54-3.556-4.825-1.016-6.603-.762-5.587 1.016zm158.73 28.194c0 1.27-1.016 2.032-2.032 1.27-1.016-.508-3.555-.254-5.587 1.27-3.302 1.778-3.302 2.286 0 2.286 2.286 0 .762 2.032-3.556 4.826-4.063 2.794-9.142 4.318-11.428 3.556-3.556-1.016-3.556-.762-.254 1.524 3.048 2.286 3.301 2.794.254 2.794-2.032 0-3.048.762-2.286 1.524 1.524 1.524 22.857-11.43 24.381-14.986.508-1.016 2.54-1.778 4.572-1.778 2.285 0 3.047-1.27 2.285-2.54-2.031-3.302-6.349-3.302-6.349.254zm-27.682 6.35c0 2.794.761 3.556 1.523 1.524.762-1.778.508-4.064-.254-4.826-.762-1.016-1.523.508-1.269 3.302zm9.904 1.016c-2.285 1.524-2.539 2.54-.762 2.54 1.524 0 3.81-1.27 4.572-2.54 2.032-3.048 1.016-3.048-3.81 0zm-278.349.508c-10.667 8.128-13.206 10.668-6.857 7.366 3.048-1.524 6.349-4.064 7.111-5.334 2.54-3.81 10.667-3.048 20.571 2.286l8.889 4.826-14.222 8.128c-7.619 4.318-13.968 8.382-13.968 9.144 0 1.524 33.016-15.24 33.016-16.764 0-1.778-22.349-15.24-25.143-15.24-1.27 0-5.333 2.54-9.397 5.588zm48 7.112c-6.095 2.794-10.921 6.096-10.921 7.62s-1.015 2.032-2.539 1.27c-1.27-.762-2.54-.254-2.54 1.27s-1.016 2.286-2.286 1.524-9.65 2.54-18.793 7.366c-11.683 6.096-17.016 7.874-17.778 5.588-1.016-1.778-1.524-1.524-1.524 1.016-.254 5.842-22.349 16.51-36.317 17.272-9.905.508-12.191-.254-14.731-4.826-1.523-2.794-3.555-4.572-4.825-4.064-1.016.762-4.571-3.81-7.873-10.16-6.095-10.922-10.159-14.224-10.159-8.382 0 2.794 13.461 20.828 22.096 29.718 1.777 2.032 2.539 4.572 1.777 6.096-1.016 1.524.254 4.318 2.794 6.35 2.794 1.778 4.063 3.302 3.048 3.302-1.016 0 0 2.794 2.285 6.35 5.842 8.89 2.794 10.668-3.809 2.286-2.794-3.81-5.334-5.588-5.334-4.064 0 4.064 12.953 17.272 15.747 16.256 1.523-.508 2.031 1.016 1.269 3.302-1.016 2.032-.254 3.81 1.27 3.81s2.286.762 1.27 1.524c-.762 1.016 1.778 8.382 6.095 16.764 4.064 8.128 6.857 16.002 6.096 17.272-.762 1.016.253 2.54 1.777 3.302 2.54 1.016 2.54 1.778.254 4.572-3.809 3.81-3.047 4.318-13.46-11.684-4.571-7.112-7.365-10.414-6.349-7.62 1.778 4.572 2.793 10.414 3.555 17.78.254 1.27 1.524.762 2.794-1.27 1.524-2.286 2.54-2.54 2.54-.762 0 3.556 7.111 10.922 10.412 10.922 1.27 0 2.286-2.032 2.286-4.318 0-6.858 3.556-.762 8.635 14.478 5.333 15.748 10.667 23.114 16.508 22.606 3.555-.254 3.555-.508-.254-1.524-2.286-.508-5.333-4.572-7.111-9.144-1.778-4.572-8.127-19.558-14.222-33.782-6.096-13.97-11.175-26.162-11.175-27.178 0-1.016-3.556-9.144-7.619-18.034-4.318-9.144-8.381-19.05-8.889-22.098-.762-3.048-2.286-6.858-3.809-8.382-4.318-4.318-2.794-5.334 9.904-5.588 8.889-.254 17.27-2.794 30.476-9.652 9.905-5.08 18.032-8.636 18.032-7.874 0 .762 5.334-1.524 11.937-5.08 6.857-3.556 13.714-6.35 15.238-6.35 1.778 0 3.301-1.016 3.301-2.032 0-1.27 2.54-3.556 5.842-5.334 9.904-5.334 22.857-15.494 19.301-15.24-2.031 0-8.381 2.286-14.222 4.826zm-87.111 1.27c-1.778 2.032-2.286 5.588-1.524 7.874 1.27 3.302 4.318 3.81 15.492 2.794 7.873-.762 17.016-3.048 20.572-5.588 3.555-2.286 8.127-3.556 10.158-2.794 2.032.762 3.556.254 3.556-.762 0-3.81-7.111-5.08-9.905-1.778-4.063 4.826-30.73 10.16-34.032 6.858-1.777-1.778-1.523-3.81.762-6.604 1.778-2.032 2.032-3.81.508-3.81-1.27 0-3.809 1.778-5.587 3.81zm17.778 22.86c1.777 2.032 5.079 3.81 7.111 3.81 3.301 0 3.047-.762-1.016-3.81-6.349-4.826-10.159-4.826-6.095 0zm40.635 14.224c-11.937 5.08-21.334 10.668-21.08 11.938.254 1.27 1.27 7.366 2.032 13.716 2.032 14.732 7.365 32.766 9.651 32.766 1.016-.254 3.809-.254 6.603-.254 2.54 0 8.127-3.556 12.444-7.62 4.572-4.318 9.143-7.62 10.667-7.62 4.318 0 10.667 12.192 9.651 19.558-.762 6.096-1.778 7.112-8.889 7.112-4.317 0-7.365.762-6.603 1.778 1.524 2.54 11.428 2.54 15.492-.254 7.365-4.572 1.778-26.67-7.619-29.464-4.826-1.778-17.27 4.572-17.27 8.636 0 1.27-3.302 3.556-7.619 5.08-7.111 2.286-7.619 2.286-7.619-4.318 0-3.81-1.778-13.208-3.81-20.828-2.031-7.62-3.809-14.732-3.809-16.002 0-1.016 6.603-5.08 14.73-8.89 23.111-11.176 23.111-11.176 26.413-4.318 3.809 8.636 7.619 8.128 4.063-.762-1.778-3.81-3.555-7.62-4.317-8.382-.762-.762-11.175 2.794-23.111 8.128zm12.698 15.494c0 1.016 1.016 2.032 2.286 2.032 1.524 0 3.047-1.016 3.809-2.032.762-1.27-.254-2.286-2.285-2.286-2.032 0-3.81 1.016-3.81 2.286zm177.778.762c-1.778 2.286-2.032 3.81-.508 3.81s2.286 6.35 1.524 16.51c-.508 9.652.254 16.51 1.524 16.51 1.523 0 2.539-8.89 2.539-20.32 0-11.176-.508-20.32-1.016-20.32s-2.285 1.778-4.063 3.81zm-187.175 1.778c-4.571 2.286-5.333 4.064-4.063 9.398 2.031 8.89 2.539 9.144 7.619 5.08 11.428-9.652 32.762-3.556 39.873 11.43 6.603 13.97 5.333 23.622-4.318 33.274-13.46 13.462-28.952 14.732-39.873 3.81-6.095-6.096-7.873-6.35-5.841-1.27 3.81 10.414 27.683 14.732 41.397 7.62 22.603-11.684 19.809-49.53-4.318-61.214-8.888-4.064-10.412-4.064-20.317-.508-9.143 3.302-10.921 3.302-12.191.254-.761-2.286.762-4.318 3.81-5.08 2.794-.762 5.079-2.286 5.079-3.556 0-2.794.254-2.794-6.857.762zm-83.809 19.812c2.793 6.858 5.841 12.192 6.349 11.43 1.524-1.524-7.873-24.13-10.159-24.13-.762 0 .762 5.588 3.81 12.7zm-8.381-2.794c0 1.524 1.016 3.302 2.539 4.064 1.524.762 1.778-.254 1.016-2.286-1.777-4.572-3.555-5.334-3.555-1.778zm19.555 16.51c-.762 2.032.254 4.318 2.286 5.08 2.032.762 3.556 3.048 3.556 5.08 0 2.286 2.285 7.62 5.333 12.192s4.571 6.096 3.555 3.302c-1.015-2.794-3.047-8.636-4.571-12.7-1.27-4.318-4.063-9.652-5.587-12.192-2.54-3.81-3.302-3.81-4.572-.762zm120.127 34.544c-2.031 1.27-3.047 3.048-2.031 3.81 2.285 2.286 19.809-1.27 19.809-4.064 0-3.048-12.952-2.794-17.778.254zm-14.984 14.224c-5.079 9.144-9.143 12.954-19.047 17.526-12.699 5.842-12.953 5.842-3.302 4.572 5.079-.762 9.397-.508 9.397.762s-4.572 8.382-10.159 15.748c-5.587 7.366-10.159 14.224-10.159 15.494 0 1.27-.762 2.794-2.031 3.302-2.54 1.016-18.286 25.146-18.286 27.94 0 1.27 4.063-.762 8.889-4.572 4.825-3.556 8.889-8.382 8.889-10.414 0-1.778 3.047-6.604 6.603-10.414 5.587-6.096 16.508-23.876 17.778-29.21.254-1.016.508-2.032 1.015-2.54.254-.254.762-2.54 1.27-5.08.508-2.286 4.826-10.668 9.905-18.034 9.397-14.224 10.413-16.764 7.111-16.764-1.016 0-4.571 5.334-7.873 11.684zm71.365 1.524c.508 3.302-.762 7.112-2.793 8.636-2.794 2.286-3.048 3.048-.254 4.826 2.285 1.27 2.793 1.016 1.523-.762-1.269-2.286.762-2.794 6.858-2.54 4.825.508 8.635 1.27 8.127 2.032-1.524 2.286 5.079 8.89 8.634 8.89 2.032 0 4.064 1.524 4.826 3.556.762 2.54-1.016 3.048-7.873 2.286-9.143-1.016-10.667 1.524-2.286 3.556 7.111 2.032 16-2.286 14.222-6.858-1.777-4.572 1.778-5.08 6.096-.762 2.285 2.286 3.301 1.778 4.571-1.524 1.016-2.794 0-6.096-3.048-8.636-4.317-4.064-4.317-4.064-1.269.254 4.825 6.096 1.269 8.89-3.81 2.794-2.032-2.54-3.302-3.302-2.286-1.778 1.016 2.032 0 3.302-2.285 3.302-2.286 0-4.064-1.27-4.064-2.794s-1.778-2.032-4.063-1.27c-2.032.762-3.302.508-2.54-.762 1.524-2.286-5.587-6.604-9.651-5.588-2.54.508-6.603-4.572-6.603-8.128 0-1.27 2.54-1.27 5.333-.508 3.81 1.27 4.826 1.016 3.81-1.016-1.016-1.524-4.064-2.794-6.857-2.794-3.81 0-5.08 1.524-4.318 5.588zm-17.27 3.302c-1.777 4.826 1.27 8.636 11.429 14.732 5.587 3.302 8.127 3.556 9.397 1.524 1.016-1.778.762-2.286-.762-1.524-3.302 2.032-16-7.62-16-12.192 0-2.286 1.778-2.794 5.587-1.778 3.556.762 4.826.508 3.556-1.524-2.54-4.318-11.683-3.81-13.207.762zm23.365 18.796c-1.015 1.27.762 1.778 3.556 1.016 5.841-1.524 6.603-3.302 1.524-3.302-2.032 0-4.318 1.016-5.08 2.286zm-51.555 2.794c-8.635 3.556-16.508 17.526-14.73 26.67.762 4.064 2.539 8.636 4.063 10.16 2.032 1.778 2.286.762.762-3.81-7.365-22.86 12.445-38.1 34.54-26.67 20.571 10.668 20.063 34.29-1.016 43.434-6.603 2.794-6.857 3.302-2.286 3.556 3.048 0 8.889-3.048 13.207-6.604 6.349-5.334 7.873-8.382 7.873-16.764 0-13.462-3.048-18.542-16.254-26.162-11.429-6.604-17.016-7.366-26.159-3.81zm104.635 10.16c-6.857 4.064-14.984 8.636-17.778 9.906-4.317 2.032-4.317 2.54-.762 2.54 5.334.254 37.587-15.24 37.587-18.034 0-3.556-6.095-1.778-19.047 5.588zm107.936 1.778c-14.73 5.588-27.682 24.13-27.936 39.624 0 10.16 8.381 25.146 17.27 30.226 9.65 5.842 21.587 5.842 26.158.508 3.048-3.81 2.794-4.064-2.793-2.286-21.588 7.112-38.349-9.906-34.54-34.798 2.286-13.97 5.333-19.304 14.984-24.892 22.603-13.97 50.032 3.048 50.032 30.734 0 24.13-14.476 57.404-27.937 64.516-19.809 10.414-44.19 0-47.492-20.066l-1.523-9.906 9.142 1.524c5.588.762 9.397.508 9.397-1.016s-4.317-2.286-9.397-1.778c-9.142.762-9.65 1.27-10.412 9.906-1.524 17.018 16.762 31.75 36.571 29.464 21.334-2.286 33.524-16.51 41.651-49.022 5.841-22.098 5.079-33.528-2.794-46.482-7.365-12.192-28.444-20.574-40.381-16.256zm-208.254 7.112c-2.031 2.286-2.031 3.81-.508 3.81 3.048 0 6.604-4.826 4.826-6.604-.508-.508-2.54.508-4.318 2.794zm105.905 5.08c-2.54 5.334-4.063 10.16-3.301 10.668 1.777 1.778 9.65-14.224 8.634-17.272-.507-1.524-2.793 1.524-5.333 6.604zm-90.92-3.048c1.777 1.778 3.555 2.032 5.333.254 1.524-1.524.508-2.54-3.048-2.794-4.063-.508-4.571.254-2.285 2.54zm235.936-1.524c1.778.762 4.064.508 4.825-.254 1.016-.762-.508-1.524-3.301-1.27-2.794 0-3.556.762-1.524 1.524zm-164.063 8.636c-2.286 3.048-6.096 7.366-8.635 9.398-2.286 2.032-3.556 5.334-2.794 7.112.762 2.032-1.778 7.112-5.333 11.43-3.556 4.318-6.604 9.144-6.35 10.668 0 1.778 1.524.762 3.048-1.778 1.778-2.794 5.079-7.112 7.619-9.652 2.286-2.54 4.318-5.842 4.318-7.366 0-5.334 10.666-20.574 16.254-22.606 4.317-1.778 4.571-2.286.761-2.286-2.285-.254-6.349 2.286-8.888 5.08zm-91.937-1.016c.254 7.112 11.937 13.716 19.048 10.668 4.825-2.286 4.825-2.286-.254-1.524-6.857 1.27-13.715-2.286-13.715-7.112 0-2.032-1.015-3.81-2.539-3.81-1.27 0-2.54.762-2.54 1.778zm22.857 1.778c0 2.032 1.016 4.318 2.286 5.08 1.27 1.016 1.778-.762 1.016-3.556-1.524-5.842-3.302-6.604-3.302-1.524zm196.318-1.778c2.285.508 6.349.508 8.889 0 2.285-.762.253-1.27-4.572-1.27s-6.857.508-4.317 1.27zm-244.064 10.922c-10.159 6.096-16.762 20.32-14.476 30.734 2.286 9.906 14.73 21.844 26.413 25.4 20.317 6.096 39.365-8.636 37.841-29.21-.254-5.08-1.524-9.144-2.54-9.144-1.27 0-1.524 2.794-.508 6.096 2.032 8.89-5.587 23.368-14.476 26.924-11.936 5.08-25.143 1.524-35.048-9.144-7.365-8.128-8.38-10.414-7.111-19.304 1.27-10.414 10.159-22.352 16.254-22.352 1.778 0 3.302-1.27 3.302-2.54 0-3.302 0-3.302-9.651 2.54zm116.572.254c-1.778 3.048-2.54 5.842-2.032 6.604.762.762 2.793-1.27 4.317-4.318 3.81-7.112 2.032-8.89-2.285-2.286zm120.127 3.556c-1.778 4.826-3.556 10.922-3.556 13.462 0 9.398 14.984 17.272 19.302 10.16 1.015-1.778.761-2.032-1.27-1.016-4.318 2.794-12.445-.508-13.969-5.588-1.777-5.588 2.54-21.082 6.604-23.876 2.539-1.524 2.539-2.032 0-2.032-1.778 0-5.08 4.064-7.111 8.89zm12.698-5.842c-1.27 1.778-.762 2.032 1.524.762 4.063-2.54 7.619 3.048 7.619 12.7 0 5.842-.762 6.858-2.54 3.81-2.794-4.572-3.047-.762-.254 6.35 1.778 4.318 2.286 4.064 3.81-3.302 3.555-15.494-4.064-30.48-10.159-20.32zm14.984 12.192c0 14.732.254 15.494 2.54 8.128 1.524-5.08 1.524-11.176 0-16.51-2.032-7.112-2.286-6.35-2.54 8.382zm-35.555-3.81c-.762 2.286-.762 4.572-.254 5.334.761.762 2.031-1.016 2.793-4.064 1.524-5.842-.254-6.858-2.539-1.27zm-194.286.508c1.524.508 4.571.508 6.349 0 1.524-.762.254-1.27-3.302-1.27-3.555 0-4.825.508-3.047 1.27zm208.762.762c0 1.27 1.27 2.54 2.793 2.54 1.27 0 1.778-1.27 1.016-2.54-.762-1.524-2.031-2.54-2.793-2.54-.508 0-1.016 1.016-1.016 2.54zm-232.127 6.604c-2.286 2.032-5.334 3.048-7.111 2.032-2.286-1.27-2.032-.508.254 2.286 3.301 4.064 3.809 4.064 7.111-.762 4.825-6.604 12.19-6.35 17.016.508 2.793 4.064 4.063 4.572 4.063 1.778 0-9.398-13.968-13.462-21.333-5.842zm214.349 2.286c0 4.318 10.413 19.812 12.19 18.034.762-1.016.508-2.54-1.015-3.556-1.524-1.016-4.572-5.334-6.858-9.398-2.285-4.318-4.063-6.604-4.317-5.08zm17.778 2.794c0 2.032 1.27 3.048 2.539 2.286 1.524-1.016 2.032-2.794 1.27-4.064-2.285-3.556-3.809-2.794-3.809 1.778zm-142.222 8.636c-7.62 14.986-6.096 18.034 2.539 4.572 8.381-13.208 8.889-14.732 5.08-14.732-1.27 0-4.826 4.572-7.619 10.16zm-73.397 3.302c-3.302 5.334-3.048 5.334 1.27 1.27 2.539-2.54 4.063-5.08 3.301-5.588-.762-.762-2.794 1.27-4.571 4.318zm-53.588 12.954c0 1.524 24.889 19.304 26.921 19.304 1.016 0 8.635 5.588 17.27 12.192 21.333 16.764 24.889 18.288 12.952 5.842-5.333-5.588-11.174-10.414-12.698-10.414-1.524 0-7.365-4.064-12.953-9.144-11.682-10.668-31.492-21.844-31.492-17.78zm251.683 10.922c-.508 8.382 8.635 12.446 16.508 7.112 3.301-2.032 6.095-5.08 6.095-6.35 0-1.524-2.286-.254-5.079 2.54-7.365 7.366-13.461 5.842-16-3.81-1.016-4.572-1.27-4.572-1.524.508zm-6.349 2.032c1.016 2.032 2.031 3.81 2.539 3.81s1.016-1.778 1.016-3.81-1.016-3.81-2.539-3.81c-1.27 0-1.778 1.778-1.016 3.81zm13.714-1.27c0 1.27 1.27 2.54 2.54 2.54 1.523 0 2.539-1.27 2.539-2.54 0-1.524-1.016-2.54-2.539-2.54-1.27 0-2.54 1.016-2.54 2.54zm-5.841 13.208c1.524 2.794 18.031 2.54 19.555-.254.762-1.27-3.555-2.032-9.651-1.778-6.095 0-10.666 1.016-9.904 2.032zm-109.969 8.382c-4.063 10.16 13.715 23.368 34.032 25.908 14.984 1.778 20.064-2.54 15.492-12.954-4.063-8.89-14.984-16.002-17.777-11.43-1.016 1.778-.762 5.334.507 8.128 4.572 8.128.762 12.7-8.381 10.922-11.174-2.286-20.571-11.43-19.047-18.542 1.27-6.604-2.54-7.874-4.826-2.032zm43.175 8.636c6.603 7.112 4.318 13.97-4.825 14.986-4.318.254-6.35-.254-4.826-1.27 5.08-3.81 5.842-13.208 1.524-16.002-3.809-2.032-3.809-2.286-.254-2.54 2.286 0 6.095 2.286 8.381 4.826zm15.492-2.032c-1.016 1.524-.762 3.556.254 4.572 1.27.762 4.572 6.604 7.365 12.7 4.826 10.922 4.826 10.922 14.984 9.144 5.842-.762 12.445-1.524 14.984-1.524 2.286 0 4.318-1.016 4.318-2.286 0-3.302-5.333-6.096-7.365-3.556-.762 1.27-3.302 2.54-5.334 2.54-2.031.254-6.095.762-8.888 1.27-3.556.762-6.096-1.524-9.651-9.144-2.794-5.588-6.095-10.922-7.873-11.938-1.778-1.27-.762-2.032 2.286-2.032 3.555 0 6.603 3.302 9.904 10.922 2.54 5.842 5.08 9.144 5.842 7.366 3.555-9.144-16-26.162-20.826-18.034zm-45.206 3.302c-.762 2.032-.508 4.572 1.016 5.588 4.063 2.286 5.587-.508 2.793-5.334-2.031-3.81-2.539-4.064-3.809-.254zm170.666-288.036c6.096 17.018 13.207 29.972 19.556 36.83 4.063 4.064 7.365 8.636 7.365 10.414 0 1.524 4.064 6.604 8.889 11.176 8.381 7.874 8.635 8.382 3.809 10.414-5.079 2.286-5.079 2.286 0 1.524 7.112-1.016 5.588-7.62-5.333-23.622-4.825-7.112-8.635-14.224-8.635-15.748 0-1.524-2.793-4.826-6.095-6.858-3.556-2.286-7.365-7.112-8.889-10.922-1.27-3.81-4.825-9.652-7.873-13.208l-5.079-6.35 2.285 6.35zm-55.365 10.16c-11.682 6.858-22.349 13.462-23.619 14.732-2.793 2.794 4.064 18.288 8.127 18.288 4.064 0 16.254-6.096 21.588-10.922 5.079-4.572 5.079-4.572 6.603 16.51 2.032 24.384 5.333 36.83 12.444 45.974 5.08 6.35 5.334 6.35 12.699 2.286 4.317-2.286 7.619-5.08 7.619-6.096s-2.54-7.874-5.588-15.24c-4.571-10.922-5.587-19.05-5.841-42.926-.254-16.256-1.27-30.734-2.286-32.512-3.301-5.08-9.904-3.048-31.746 9.906zm29.207-3.556c1.016 3.556 1.016 11.43.254 17.272-2.032 13.716 2.031 39.878 8.127 53.848l4.571 10.16-7.111 4.318c-4.063 2.032-7.619 3.302-8.381 2.286-4.571-8.382-10.159-35.814-10.159-52.832l-.254-20.574-15.746 9.652-16 9.906-3.555-6.858-3.556-7.112 23.365-12.954c12.699-7.366 23.873-13.208 24.889-13.462 1.016-.254 2.794 2.794 3.556 6.35zm13.968 60.96c0 2.794.762 3.556 1.524 1.524.762-1.778.508-4.064-.254-4.826-.762-1.016-1.524.508-1.27 3.302zm-32.762 8.636c0 3.556.508 4.826 1.27 3.048.508-1.524.508-4.572 0-6.35-.762-1.524-1.27-.254-1.27 3.302zm-37.079 52.324c-2.286 2.032-4.064 4.572-4.064 5.08 0 4.318 6.095 11.684 12.191 14.478 9.65 4.826 34.031 10.16 40.127 8.89 2.793-.762-1.016-2.286-9.397-4.318-11.429-2.286-14.73-4.318-16-8.636-1.016-4.572-2.032-4.826-4.572-2.286-2.539 2.54-2.539 3.81.508 5.588 3.302 2.032 3.302 2.54-.254 2.54-5.587 0-17.523-9.652-17.523-13.97 0-2.032 2.539-5.334 5.587-7.366 4.571-3.302 4.825-4.064 1.524-4.064-2.286 0-6.096 1.778-8.127 4.064zm22.349 8.128c.762 1.27 6.349 3.302 12.698 4.064 6.857 1.016 13.207 4.064 16.762 7.874 4.064 4.318 7.873 5.842 11.937 5.334 3.047-.762 5.841 0 5.841 1.27s-3.048 2.286-6.857 2.286c-8.381 0-7.111 1.27 3.301 3.302 6.858 1.27 7.873.762 7.62-3.81-.254-2.794-3.048-7.112-6.604-9.398-3.301-2.286-5.333-2.794-4.317-1.016 1.016 1.524.762 3.556-.762 4.572-1.27.762-2.54.254-2.54-1.016 0-1.524-2.031-2.794-4.317-3.048-3.81 0-3.81-.508.508-2.032 5.079-2.032 5.079-2.032 0-3.556-2.794-1.016-9.651-2.286-15.238-3.048-5.588-1.016-12.191-2.286-14.984-3.048-2.794-.762-4.064-.254-3.048 1.27zm78.984 30.988c-.762 1.27-.254 2.54 1.016 2.54 1.524 0 2.794-1.27 2.794-2.54 0-1.524-.508-2.54-1.016-2.54-.762 0-2.032 1.016-2.794 2.54zm-222.222-142.494c-3.556 6.858-3.048 18.288 1.016 23.622 7.619 10.16 21.841 1.27 21.841-13.462 0-12.7-17.27-20.32-22.857-10.16zm17.27 8.636c.762 7.112-3.048 14.478-7.365 14.478-4.826 0-8.127-11.684-4.826-17.526 4.064-7.62 11.175-5.842 12.191 3.048zm54.349 139.954c-3.302 8.382-5.587 17.526-5.079 20.32.761 5.334 1.015 5.08 4.063-.508 1.778-3.302 3.556-8.382 4.063-11.43.254-3.048 1.524-7.62 2.54-9.906 1.016-2.286 1.524-6.35 1.016-8.89-.762-2.794-3.048 1.016-6.603 10.414zm-87.873 166.878c-5.08 12.7-9.143 24.892-8.635 27.178.508 2.032 5.079-7.874 10.413-22.352 5.333-14.224 9.142-26.416 8.635-27.178-.762-.508-5.334 9.398-10.413 22.352zm25.397-624.84c5.333 6.096 7.873 6.096 10.92.254 2.032-4.064 1.27-4.572-6.349-4.826-8.635-.254-8.889 0-4.571 4.572zm23.365 612.902c-2.286 3.302-9.651 8.128-16 10.668-7.111 3.048-11.429 6.35-11.429 9.144 0 2.286-.762 6.096-1.778 8.636-1.015 3.048-.508 3.81 2.032 3.048 1.778-.508 4.064-3.81 4.826-7.366.761-3.556 4.825-7.62 8.888-9.652 4.318-1.778 10.667-6.35 14.477-9.652 4.571-4.572 8.127-5.842 11.936-4.572 3.048 1.016 5.333.508 5.333-1.016s-1.523-2.794-3.555-2.794-5.079-.508-7.111-1.27c-1.778-.508-5.334 1.524-7.619 4.826zm20.063 3.302c-1.778 2.794-22.095 85.09-21.841 88.392.254 5.588 5.841-11.938 15.238-49.276 8.635-35.306 10.413-45.466 6.603-39.116zm24.635 6.858c-10.666 4.572-22.349 29.21-26.413 54.356-5.079 31.75 5.08 48.26 28.445 46.482 9.397-.508 19.809-13.97 26.159-33.02 12.952-38.1 10.412-60.198-7.365-67.564-10.667-4.572-10.921-4.572-20.826-.254zm26.159 8.128c6.095 6.096 6.349 7.62 5.333 25.908-1.524 22.606-9.905 46.99-19.301 55.626-7.619 7.112-20.572 7.62-28.445 1.27-13.968-11.43-6.095-63.754 12.699-83.82 7.619-7.874 21.079-7.62 29.714 1.016zm-21.587 9.398c-6.858 9.144-15.492 45.72-13.207 55.118 2.032 8.89 10.159 8.128 15.492-1.27 5.842-9.906 8.381-21.844 8.635-40.386 0-12.192-.762-14.986-4.317-15.748-2.286-.254-5.334.762-6.603 2.286zm2.539 42.418c-3.047 8.89-6.349 14.224-9.397 14.732-4.063 1.016-4.317-.254-2.793-11.43 2.032-14.732 8.635-36.068 12.698-41.148 5.08-6.604 4.826 22.352-.508 37.846zm-58.666-42.926c-3.048 6.858-15.492 59.182-15.492 64.516 0 4.064 12.952 6.858 16.254 3.556 1.523-1.524 1.269-2.286-1.27-2.286-10.159-.254-10.159-3.302-2.286-36.83 7.365-30.734 8.381-42.418 2.794-28.956zm-11.683 4.826c-.762 1.27-.508 2.54 1.016 2.54 1.27 0 3.302-1.27 4.063-2.54.762-1.524.508-2.54-1.015-2.54-1.27 0-3.302 1.016-4.064 2.54zm86.349 104.14c-.762 1.27-.254 2.54 1.016 2.54 1.524 0 2.794-1.27 2.794-2.54 0-1.524-.508-2.54-1.016-2.54-.762 0-2.032 1.016-2.794 2.54z" fill="#2E8B57"/></svg>