<svg version="1" xmlns="http://www.w3.org/2000/svg" viewBox="0 0 900 780"><path fill="#f08080" d="M896 3.7c-1.9 1.1-4.9 1.3-12 .9-5.2-.3-12.4-.1-16 .4-3.6.5-12.1 1.4-19 2-6.9.5-14.3 1.4-16.5 2-2.2.5-6.9 1-10.5 1-3.6.1-8.5.5-11 1-2.5.6-11.9 1.4-21 2-9.1.5-18.9 1.4-21.9 2-2.9.5-9.5 1-14.5 1s-14 .7-20.1 1.5c-6 .8-15.1 1.5-20 1.5-5 0-14.5.7-21 1.5-6.6.8-16.3 1.5-21.5 1.5-5.2 0-15.3.7-22.5 1.5-7.1.8-17.9 1.5-24 1.5-6 0-18.2.7-27 1.5s-22.1 1.5-29.5 1.5c-7.4 0-23.6.7-36 1.5-29.1 1.9-85.4 1.9-118.5 0-14.3-.8-31.8-1.5-39-1.5-7.1 0-20.2-.7-29-1.5s-20.9-1.5-27-1.5c-6 0-17.3-.7-25-1.5-7.7-.8-18.5-1.5-24-1.5s-15.4-.7-22-1.5-16.3-1.5-21.5-1.5c-5.2 0-14.9-.7-21.5-1.5-6.5-.8-15.8-1.5-20.5-1.5-4.7 0-13.2-.7-19-1.5-5.8-.8-14.5-1.5-19.5-1.5-4.9 0-13.5-.7-19-1.5s-13.8-1.5-18.5-1.5c-4.7 0-13-.7-18.5-1.5s-13.8-1.5-18.5-1.5c-4.7 0-11-.4-14.2-.9-3.1-.5-9.9-1.3-15.2-1.7l-9.6-.7v9.9c0 5.5-.7 14.8-1.5 20.9-.8 6-1.5 15-1.5 20 0 4.9-.5 11.7-1.1 15-.5 3.3-1.2 10.9-1.5 17-.3 6-.9 12.7-1.5 15-.5 2.2-1.2 11.2-1.5 20-.3 8.8-.9 17.8-1.5 20-.5 2.2-1.4 12.5-2 23-.5 10.4-1.4 22.1-1.9 26-.5 3.8-.9 11.5-1 17 0 5.5-.5 12-1.1 14.4-.5 2.4-1.4 12-1.9 21.5-.6 9.4-1.4 20.5-1.9 24.6-.5 4.1-1 14.5-1.2 23-.4 13.9-.2 15.5 1.3 15.8 3.4.7 8.1-13.5 8-24.3 0-1.7.6-8 1.3-14 .7-6.1 1.4-14.2 1.5-18 0-3.9.2-7.7.5-8.5.2-.8.9-8.5 1.5-17s1.7-23.2 2.5-32.5c.8-9.4 1.9-23.8 2.5-32 .6-8.3 1.6-20.4 2.2-27 .6-6.6 1.2-19 1.2-27.7.1-14.9 0-15.8-2.2-18.8-1.3-1.7-2.1-3.4-1.8-3.7 1.2-1.3 11-1.5 16.5-.4 3.3.6 11.5 1.6 18.3 2.2 6.7.5 14.8 1.4 17.8 1.9 3 .4 8.7.9 12.5.9 3.9.1 8.6.5 10.5 1.1 1.9.5 9.8 1.4 17.5 2 7.7.6 17.2 1.5 21 2 3.9.5 10 .9 13.6.9 3.6.1 11 .8 16.5 1.6 5.4.8 14.6 1.5 20.4 1.5 5.8 0 13.5.5 17.2 1 3.7.5 17.2 1.4 30 2 12.8.6 28.5 1.5 34.8 2 6.3.5 19.6.9 29.5 1 9.9 0 22.7.5 28.5 1 5.8.6 27.2 1.2 47.5 1.5l37 .5.4 2.2c.1 1.3-.2 4.5-.8 7.3-.6 2.7-1.6 14.7-2.1 26.5-.6 11.8-1.4 25.5-1.9 30.5-.5 4.9-1 13.4-1 18.8-.1 8.3-.4 10.1-2.1 11.9-1.1 1.2-3.2 4-4.7 6.2-1.6 2.3-3.3 4.5-3.9 5.1-.7.5-2.3 2.8-3.7 5.1-1.4 2.2-3.2 4.7-3.9 5.5-.8.8-3.2 3.9-5.3 6.9-2.1 3-4.2 5.9-4.7 6.5-.5.5-9.9 13.1-20.9 28-10.9 14.8-20.5 27.7-21.3 28.5-.7.8-2.5 3.3-3.8 5.5-1.4 2.2-3.6 5.1-4.8 6.5-1.2 1.4-3 3.6-3.8 5-.9 1.4-10.9 14.9-22.2 30-11.4 15.1-21.5 29-22.5 30.7-1.1 1.8-2.2 3.3-2.6 3.3-.4 0-2.1 2.2-3.7 4.8-1.6 2.6-3.6 5.4-4.4 6.2-2.5 2.6-10.5 14.4-11.2 16.7-.4 1.3-1.3 2.3-2 2.3s-4.3-3.1-8.2-6.8c-3.8-3.8-8.1-7.7-9.5-8.8-1.4-1-8.1-6.1-14.7-11.2-6.7-5-12.5-9.2-13.1-9.2-.5 0-1.1-.3-1.3-.8-.5-1.1-6.6-5.2-7.8-5.2-.5 0-1-.3-1-.8 0-.4-2.3-2.1-5.1-3.7-2.8-1.7-6.6-3.8-8.3-4.9-7.7-4.6-25.3-14-28.3-14.9-1-.4-2.5-1.1-3.3-1.6-1.4-.8-4.6-2.3-12.2-5.6-1.8-.7-4.9-2.1-7-2.9-2-.9-4-1.6-4.6-1.6-.5 0-2.3-.7-3.8-1.5-1.6-.8-3.6-1.5-4.5-1.5-.9 0-3-.7-4.5-1.5-1.6-.8-4-1.5-5.5-1.5-1.4 0-2.9-.4-3.5-.9-.5-.5-3.1-1.4-5.9-2-2.7-.5-7.2-1.5-10-2.1-23.2-5.2-40.4-6.7-61.2-5.2-20.8 1.6-27.3 1.5-29.7-.3-1.8-1.3-2.2-1.3-4.3.7-1.5 1.4-2.3 3.3-2.3 5.5 0 1.9-.5 4.3-1.1 5.4-.8 1.6-.7 2.5.7 4 1.6 1.8 1.9 1.8 3.5.3 1-.9 4-2.7 6.7-3.9 4.8-2.2 5.9-2.3 36.3-2.4 26.6-.2 31.7 0 33.4 1.3 1.3 1 4.3 1.5 8.3 1.6 4.4 0 6.1.4 6 1.2-.2.9 1.7 1.5 6.2 1.8 3.6.3 7.9 1.3 9.7 2.3 1.8.9 4.5 1.7 6.2 1.7 1.6 0 3.3.4 3.6 1 .3.6 1.7 1 3.1 1 1.4 0 4.3.9 6.5 2l7.8 4c2.2 1.1 4.9 2 5.9 2 1.1 0 5 1.6 8.8 3.5 3.7 1.9 7.6 3.5 8.6 3.5.9 0 2.1.6 2.5 1.3.4.8 3.1 2.5 5.8 3.8 2.8 1.3 5.2 2.7 5.5 3 .3.4 3 1.8 6 3.3 3 1.5 6.3 3.2 7.4 3.9 1 .7 6.2 4 11.5 7.4 5.3 3.4 11 7.3 12.7 8.7 1.8 1.4 3.7 2.6 4.4 2.6.7 0 3.4 1.9 6 4.2 5.1 4.6 15 12.4 19 15 1.4.9 3.9 2.8 5.5 4.3 4 3.5 6.7 4.5 12.5 4.5 4.7 0 5.3-.3 10.8-5.8 6.6-6.6 12.2-13.5 12.2-15.1 0-.7 1.6-2.8 3.5-4.9 2-2 5.9-6.9 8.8-11 2.9-4.1 6.7-9.1 8.5-11.2 1.7-2.1 3.2-4.1 3.2-4.5 0-.4 2.2-3.6 4.9-7 2.8-3.5 7.1-9.4 9.7-13.1 2.5-3.8 5.8-8.3 7.1-9.9 6.4-7.8 16.3-21.1 16.3-21.8 0-.5 2.1-3.5 4.8-6.7 2.6-3.2 7.2-9.3 10.2-13.6 3-4.2 7.1-9.5 9.1-11.8 2-2.2 4-5.1 4.3-6.4.4-1.2 1.1-2.2 1.5-2.2.4 0 1.7-1.8 3-4 1.2-2.2 2.8-4.3 3.5-4.7 1.7-1.1 11.6-14.8 11.6-16.2 0-.6.4-1.1 1-1.1.5 0 2.1-1.7 3.5-3.8 1.3-2 3.8-5.5 5.4-7.7 1.7-2.2 4.1-5.6 5.5-7.6 1.3-2 3-4.2 3.8-5 .7-.8 1.9-2.5 2.6-3.9l2.7-5.1c.8-1.5 2-7.3 2.5-13 .6-5.7 1.5-12.7 2-15.4.6-2.8 1-13.1.9-23 0-9.9.4-22.1 1.1-27.1.8-6.7.8-10.8 0-16-1.3-8-3.3-10.7-9.3-12.4-5.7-1.5-23.8-2.9-25.9-1.8-1.7.8-7.6.1-9.3-1.2-.5-.5-12.7-1.1-27-1.4-14.3-.4-32.3-.9-40-1.1-54.3-1.9-72.6-2.6-76.5-3-7.8-.9-37.6-2.5-63.4-3.5-19.4-.7-25.2-1.2-26.5-2.4-1.1-1-5.3-1.6-14.1-2.1-6.9-.3-13.8-1-15.5-1.4-1.6-.5-6.4-.7-10.5-.6-10.3.4-19-.5-18.7-1.9.1-.7-4.3-1.3-13.7-1.8-7.6-.4-15.2-1.2-16.9-1.7-1.6-.6-5.2-1.1-7.8-1.1-3.4 0-4.9-.4-4.9-1.3 0-.8-1-1.9-2.3-2.6-2.1-1.1-2.2-1.8-2-9.9.1-4.8.6-13.2 1.1-18.7.5-5.5.8-10.3.6-10.7-.8-1.3 2-10.8 3.5-12.2 1.3-1.1 4-1.1 16.6-.1 8.3.7 21.1 1.8 28.5 2.4 7.4.6 18 1.6 23.5 2.1 5.5.6 16.8 1.5 25 2 8.3.5 16.8 1.2 19 1.5 2.2.3 10.8 1 19 1.5 39.5 2.7 57 4 62.3 4.5 3.1.3 13.4 1 22.7 1.6 9.4.5 27.6 1.6 40.5 2.4 12.9.8 33.4 1.9 45.5 2.5 12.1.6 30.3 1.6 40.5 2.2 20.2 1.3 126.8 1.7 149 .6 7.4-.4 24.5-1.1 38-1.7 13.5-.6 31-1.5 39-2 14.3-1.1 34.3-2.3 63.5-4.1 8.3-.5 20.9-1.4 28-2 7.2-.5 21.8-1.7 32.5-2.5s25.4-2 32.5-2.5c7.2-.6 18.9-1.5 26-2.1 7.2-.5 18.3-1.6 24.8-2.4 6.4-.8 17.2-2.2 24-3 30.5-3.8 44.8-6.8 48.8-10.2.8-.7 2.3-1.3 3.2-1.3 1.1 0 1.7-.8 1.7-2.4 0-3.2-.9-3.6-4-1.9zM893 46.5c-.4 19.4-.8 21.8-4.3 24.5-1.7 1.4-4.7 2.8-6.7 3.2-1.9.4-5.7 1.1-8.5 1.7-2.7.5-9 1-13.9 1-7.4.1-8.7.3-8.2 1.6.6 1.6-.3 1.7-18.9 2.1-4.9.1-14.2.7-20.5 1.2-6.3.6-13.6 1.1-16.2 1.1-3.4.1-4.8.5-4.8 1.5 0 1.8-6.4 2.6-20.4 2.6-13.9 0-54.7 1.7-72.6 3-7.4.5-25.6 1.4-40.5 2-14.8.5-32.8 1.2-40 1.5-7.1.2-22.2.7-33.5 1.1-11.3.3-20.9 1-21.5 1.4-.5.5-6.6.9-13.5.9-32.8.3-66.1 1.3-68.7 2-1.6.5-4.4 2.2-6.3 3.9-2.7 2.5-3.5 4.2-4.1 8.4-.6 4.8.2 28.9 1.6 45.8.7 8.2 1.3 16.8 2 29.5 1.3 21.1 2.6 23.6 26.8 48.9 8.5 8.9 18.7 19.7 22.8 24.1 4 4.4 11.4 12.1 16.4 17.1 4.9 5.1 15.5 16 23.5 24.4 16.4 17.3 16 16.8 33 35 26 27.8 38.9 41 40 41 .3 0 1.4 1.6 2.3 3.5.9 1.9 2.3 3.5 3.1 3.5.9 0 2 .9 2.6 2 .6 1.1 1.7 2 2.5 2 .7 0 2.2 1.2 3.3 2.7 1.8 2.4 2.7 2.8 9.1 3.1l7 .4 9.8-10.2c26.6-27.6 38.7-39.3 44.3-42.7 1.9-1.2 4.8-3.5 6.4-5.2 1.7-1.7 3.8-3.1 4.7-3.1 1 0 2.1-.5 2.4-1.1 1.1-1.7 18.7-9.7 23.2-10.4 2.2-.3 4.9-1.3 6-2 1-.8 3.3-1.5 5.1-1.5 1.8 0 4.3-.5 5.4-1.1 1.1-.6 9.1-1.4 17.7-1.8 12.8-.6 15.1-.9 13.1-1.8-1.9-.9 3.9-1.2 25.5-1.2 18.7-.1 28.5.3 29.2 1 .6.6 5.9 1.5 11.9 2s11.5 1.2 12.2 1.4c1.4.5 1.6 6 .3 10.1-.5 1.6-1.2 4.1-1.5 5.7-.7 3-3 3.5-5.5 1.3-.9-.8-3.9-2.6-6.7-4-5-2.5-5.9-2.6-22.5-2.6-9.6 0-21.7.5-26.9 1.1-5.2.6-20.5 1.2-34 1.4-22.6.2-24.9.4-29.3 2.4-2.7 1.1-5.7 2.1-6.7 2.1-3.2 0-12.1 7.9-31.7 28.1-5.1 5.3-9.3 10.3-9.3 11.2 0 1-.8 1.7-1.8 1.7s-4.7 3.2-8.2 7.2c-3.6 3.9-8.1 8.8-10 10.8-11.3 11.9-21.6 23.4-23.8 26.5-1.4 1.9-2.9 3.5-3.3 3.5-.5 0-1.7 1.7-2.8 3.7-1 2.1-2.8 4.7-4 5.7-1.2 1.1-2.1 2.5-2.1 3.3 0 .8-1.1 2.9-2.5 4.7-1.4 1.8-2.5 4-2.5 4.8 0 .9-.7 2.1-1.5 2.8-.8.7-1.5 2-1.5 3s-.7 2.3-1.5 3c-.8.7-1.5 2.4-1.5 3.9 0 1.4-.7 3.5-1.5 4.5-.8 1.1-1.5 2.7-1.5 3.7 0 .9-.7 2.2-1.5 2.9-.8.7-1.5 2.9-1.5 5s-.7 5.4-1.5 7.3c-.8 2-1.5 5.1-1.5 7 0 1.8-.6 3.9-1.2 4.6-1.8 1.7-1.7 103.6.1 105.4 1.4 1.4 1.5 31.9.1 33.3-1.6 1.6-2 46-.5 50.4.7 1.9 1.5 6.6 1.9 10.3.4 3.8 1.4 8 2.3 9.3 1 1.6 1.4 3.6 1 6-.4 2.5-.2 3.7.9 4.1.7.3 1.4 1.5 1.4 2.8 0 1.2.7 2.8 1.5 3.5.8.7 1.5 2 1.5 3 0 2.2 7.2 8.8 10.2 9.4 11.4 2.3 18.4 1.1 24-4.2 2-1.9 4.2-4.8 4.9-6.3.6-1.6 1.7-2.9 2.3-2.9 1.1 0 2.3-1.5 5.8-7.9 1.1-2 2.9-4.5 3.9-5.7 1-1.1 1.9-2.6 1.9-3.2 0-.7.5-1.2 1-1.2.6 0 1-.6 1-1.3 0-.8.9-2.2 2-3.2s2-2.4 2-3.2c0-.7.5-1.3 1-1.3.6 0 1-.9 1-1.9 0-1.1.4-2.2.9-2.5 1.4-.9 9.7-16.7 10.5-20.1.4-1.7 1.4-3.8 2.3-4.7 3.7-4.1 12.3-21.2 12.3-24.4 0-1.6.6-2.8 1.8-3.1 1.8-.5 5.2-6.3 5.2-8.8 0-.8.6-1.5 1.4-1.5.8 0 2.2-2.2 3.2-5 1-2.7 2.1-5 2.5-5 .4 0 2.6-3.8 4.8-8.4 2.2-4.7 4.5-8.7 5.1-9.1.5-.3 1-1.7 1-3 0-1.2 1.8-4.7 4-7.6 2.2-3 4-6.1 4-7 0-.9.8-2.7 1.8-4 2.7-3.5 13.2-23.8 13.2-25.5 0-.7.9-2.3 1.9-3.3 2.6-2.6 5.1-7.5 5.1-10.1 0-1.1.6-2 1.4-2 1.4 0 4.6-7.2 4.6-10.3 0-.9.6-1.7 1.3-1.7.8 0 2.2-2.6 3.3-6 1-3.3 2.5-6 3.1-6 .7 0 1.3-.7 1.3-1.5s1.4-3.9 3-6.8c1.7-3 3-6.3 3-7.5 0-1.2.4-2.2 1-2.2 1.1 0 5-7.2 5-9.3 0-.8.9-2.2 2-3.2s2-2.5 2-3.4c0-.9 1-2.6 2.3-3.7 1.2-1.2 3.7-5.2 5.6-8.8 1.9-3.7 4.2-7.1 5.3-7.7 1-.5 1.8-1.5 1.8-2.1 0-.7 2.7-4.7 6-9 3.3-4.2 6-7.9 6-8.2 0-.7 7.8-8.6 8.4-8.6.3 0 .3 1.9.1 4.2-.4 4.1-2.3 10.6-5.2 17.5-.7 1.7-1.3 3.6-1.3 4.2 0 1.9-7.9 19.9-16.8 38.1-4.6 9.6-10 20.6-11.9 24.5-1.8 3.8-4 8.1-4.7 9.5-.8 1.4-3.3 6.3-5.7 11-2.3 4.7-6.1 11.6-8.5 15.5-2.3 3.8-6.5 11.5-9.3 17-2.9 5.5-6.3 11.8-7.5 14-4.4 7.6-14.6 26.6-14.6 27.2 0 .3-1.1 2.1-2.5 3.9-1.4 1.8-2.5 3.6-2.5 3.9 0 .4-3.9 7.3-8.7 15.3-4.8 8.1-9.3 15.8-10 17.2-.7 1.4-1.8 3.4-2.5 4.5-4.4 6.8-10 15.9-13.4 21.9-2.1 3.7-4.4 7.6-4.9 8.5-.6.9-2.3 3.8-4 6.6-1.6 2.7-5.1 8.3-7.7 12.3-2.6 4.1-4.8 7.6-4.8 7.9 0 .3-2 3.5-4.3 7.2-2.4 3.6-5.2 8-6.3 9.8-1 1.8-4.6 7.6-7.9 13-3.2 5.4-6.7 11.4-7.6 13.3-.9 1.9-2.9 4.8-4.4 6.4-2.4 2.6-3.1 2.8-7.3 2.3-5-.6-11.2-3.2-11.2-4.8 0-.5-.7-.9-1.5-.9s-1.5-.5-1.5-1c0-.6-1.1-1.5-2.4-2-2.6-.9-10-10.2-11.6-14.5-.5-1.4-1.7-2.8-2.5-3.1-.8-.4-1.5-1.7-1.5-3s-1.5-5.6-3.4-9.6c-1.8-4-3.7-9.3-4.1-11.8-.4-2.5-1.4-5.7-2.1-7.2-.8-1.5-1.4-3.5-1.4-4.5s-.9-3.5-2-5.6c-1.1-2-2-5.2-2-7.1 0-1.8-.6-3.9-1.4-4.5-.7-.6-1.6-4.1-1.9-8.3-.3-3.9-1.1-7.6-1.7-8.2-.5-.5-1-3.5-1-6.6 0-3.4-.6-6.4-1.5-7.6-1-1.3-1.5-4.6-1.5-10.9 0-5-.5-11.9-1-15.5-1-6.3-1.3-55-.4-62 .3-1.9.8-13.2 1.1-25 .4-15.4.9-22.3 1.9-24.2.9-1.6 1.4-5.8 1.4-10.8 0-4.9.6-9.5 1.5-11.7.8-1.9 1.5-5.2 1.5-7.3 0-2.4.5-4 1.5-4.4 1-.3 1.5-1.9 1.5-4.8 0-2.6.8-5.5 2-7.3 1.1-1.7 2-3.9 2-4.9 0-1.1.6-2.7 1.3-3.5.8-.9 1.9-3.2 2.6-5.1 1.2-3.2 6.2-13.6 10.3-21.2 3.4-6.3 1.8-16.6-3.5-22.6-2.3-2.6-145.7-146-164.4-164.4-1.3-1.3-2.3-1.8-2.3-1.3s-1.2-.3-2.7-1.7c-3-2.8-10.1-4.2-13.7-2.8-1.1.4-3.4 2-4.9 3.4-1.5 1.4-3.1 2.6-3.5 2.6-.4.1-2.5 2.4-4.7 5.2-2.2 2.8-6.4 7.6-9.2 10.6-2.9 3-5.3 5.9-5.3 6.3 0 .9-6.7 9.2-10.5 12.9-1.4 1.4-2.5 3-2.5 3.4 0 .5-1.6 2.7-3.6 5-1.9 2.2-4.5 5.3-5.7 6.9-1.2 1.5-2.9 3.5-3.7 4.5-.8 1-3.8 4.7-6.7 8.2-2.9 3.6-6.1 7.4-7.1 8.5-1.1 1.1-5.5 6.5-9.9 12s-8.7 10.6-9.6 11.4c-1 .7-1.7 1.8-1.7 2.3 0 .5-2.8 4.3-6.2 8.3-3.5 4-8.8 10.6-11.8 14.6s-7.1 8.8-9 10.8c-1.9 2-7.3 8.5-12 14.5-4.7 5.9-11.8 14.7-15.8 19.5-4.1 4.7-9.5 11.5-12 15-2.6 3.5-5.9 7.8-7.4 9.6-4.9 5.8-7 12-6.2 18.9.4 3.4 1.3 7.6 2 9.5.8 1.8 1.4 4.4 1.4 5.7 0 1.2.5 2.6 1 2.9.6.3 1 1.7 1 2.9 0 1.3 1.2 4.9 2.6 8 1.5 3.2 2.3 6.4 1.9 7.5-.3 1.1.1 3.6 1 5.6.8 2.1 1.5 5.7 1.5 8 0 2.4.6 5.5 1.4 6.9.8 1.6 1.4 6.3 1.5 11.9.1 6.9.5 9.5 1.6 10.3 1.1.8 1.5 3.1 1.5 8.8 0 4.3.5 8.6 1 9.6.6 1.1 1.3 5.3 1.7 9.5.4 5 1.1 7.9 2 8.2.9.4 1.3 2.7 1.3 8.2 0 4.6.5 8.2 1.2 8.9.6.6 1.4 5 1.6 9.7.3 6 .8 8.5 1.7 8.5.9 0 1.5 3.4 2 12.2.8 13.9 1 67.4.3 78.8-.3 4.1-.6 9.6-.6 12.2-.2 3.3-.6 4.8-1.6 4.8-.9 0-1.5 1.9-1.9 6.1-.3 3.4-1 6.6-1.6 7.2-.6.6-1.1 2.5-1.1 4.3 0 1.7-.7 3.7-1.5 4.4-.9.7-1.5 2.9-1.5 5.3 0 2.2-.6 4.8-1.4 5.6-.7.9-2.4 4.7-3.7 8.6-2.5 7.5-6.7 14.6-10.2 17-1.9 1.3-2.4 1.3-5.6-.7-2-1.2-7-4.1-11.2-6.4-13-7.4-25.8-22.9-55.1-66.6-1.5-2.3-3.7-5.1-4.8-6.3-1.1-1.2-2-2.5-2-2.9 0-.5-1.8-3.1-4-5.8-2.2-2.8-4-5.6-4-6.2 0-.7-2-3.6-4.5-6.5s-4.5-5.8-4.5-6.4c0-.7-1.9-3.7-4.2-6.7-5.9-7.8-38.8-58-41.7-63.8-.7-1.5-3.3-5.6-5.6-9.2-6.3-9.8-15.7-25.5-22.8-38-5.5-9.8-7.2-12.7-8.9-14.9-1-1.4-2.8-4.3-3.9-6.5-2.2-4.4-5-9.5-14.1-25.2-20.5-35.9-23.8-41.7-23.8-42.4 0-.4-.7-1.3-1.5-2s-1.5-2-1.5-3c0-.9-1.1-2.9-2.5-4.4-2.7-2.9-3.1-4.1-1.5-5.1s6.3 2.1 10.5 6.9c2.2 2.6 6.4 7.1 9.2 10.2 2.9 3.1 5.3 6.2 5.3 6.9 0 .7.8 2.3 1.9 3.6 1 1.3 3.5 5.5 5.6 9.4 2 3.8 4.3 7.4 5.1 7.8.8.4 1.4 1.6 1.4 2.6 0 2.8 3 9.4 5.1 11.4 1 1 1.9 2.7 1.9 3.7 0 1.1.5 2 1 2 .6 0 1 1.1 1 2.4 0 1.4.4 2.7.9 3 .5.3 1.2 1.7 1.5 3.2.4 1.4 1.7 4.2 3 6.2s2.7 4.8 3.1 6.2c.4 1.4 2.3 4.2 4.1 6.3 1.9 2 3.4 4.4 3.4 5.2 0 .8.5 1.5 1 1.5.6 0 1.8 1.6 2.7 3.5.9 1.9 2 3.5 2.5 3.5.4 0 1.8 1.5 3 3.4 7.4 11 10.3 14.8 11.4 15.3.7.2 1.6 1.8 1.9 3.4.4 1.7 1.6 3.5 2.7 4.2 1.1.7 2.9 3 4 5.2 2.3 4.5 5.3 8.8 8.4 12.5 1.2 1.4 2.8 3.7 3.5 5.1 3.5 6.4 12.4 18.9 13.6 18.9.7 0 1.3.6 1.3 1.3 0 2.2 8.1 15 11.7 18.4 1.8 1.8 3.3 4.1 3.3 5.2 0 1 .7 2.4 1.6 3.2 1.4 1.1 7.5 9.6 9.9 13.8.6.9 2.6 4.1 4.5 7.1 1.9 3.1 4.1 6.4 4.8 7.5.7 1.1 1.7 3.2 2.3 4.7.6 1.6 1.7 2.8 2.4 2.8s2 2 2.9 4.4c.9 2.4 2.3 4.7 3.1 5 .8.3 2.1 2 2.8 3.9 1.5 3.4 13.2 14.7 15.4 14.7.6 0 1.9.8 2.9 1.7 1 1 5.4 2.6 9.8 3.5 15.9 3.3 25.5-.6 31.8-13.1l3.3-6.5-.4-46.6c-.4-55.3-1.9-81.2-4.9-86.7-.7-1.2-1.2-4.7-1.2-7.8 0-3.6-.7-7-2-9.5-1.1-2.2-2-5.9-2-8.3 0-2.3-.5-4.8-1.1-5.4-.6-.6-1.2-3.4-1.4-6.3-.1-2.8-.8-5.7-1.4-6.3-.6-.6-1.1-2.9-1.1-5.2 0-2.3-.6-4.7-1.2-5.3-1.5-1.5-3.8-9.8-4.5-16.2-.2-2.5-1.2-5.1-2.1-5.7-.8-.7-1.9-3.4-2.3-6-1.1-7.5-2.7-12.7-3.8-13.1-.6-.2-1.1-1.6-1.1-3.2 0-1.5-.7-3.3-1.5-4-.8-.7-1.5-2.1-1.5-3.1 0-1.1-.7-1.9-1.5-1.9s-1.5-.9-1.5-2c0-2.2-8.5-15.1-13.8-20.9-1.8-1.9-4.2-5-5.5-6.8-1.2-1.8-2.6-3.3-3.2-3.3-.5-.1-2.6-2.1-4.5-4.5-1.9-2.5-3.9-4.5-4.3-4.5-.4 0-2.7-1.8-5-3.9-5.8-5.5-15.4-13.1-16.4-13.1-.5 0-2.4-1.6-4.3-3.5s-4-3.5-4.6-3.5c-.7 0-3.4-1.8-5.9-4-2.6-2.2-5.9-4.7-7.3-5.4-1.5-.8-3.6-2.3-4.6-3.5-1.1-1.2-2.5-2.1-3.3-2.1-1.4 0-2.6-.8-6.4-4.3-1-.9-2.3-1.7-2.8-1.7s-1.4-.7-2.1-1.5c-.7-.8-3.3-2.4-5.8-3.6-2.6-1.1-4.9-2.3-5.2-2.7-1-1.3-7.1-4.2-9-4.2-.9 0-2.3-.7-3-1.5-.7-.8-2.5-1.5-4-1.5s-3.3-.6-3.9-1.4c-.6-.7-2.8-1.6-4.9-2-2-.3-6.4-1.7-9.7-3.1-3.3-1.4-7.4-2.5-9.2-2.5-1.7 0-3.5-.5-3.8-1-.3-.6-2.3-1-4.4-1-2.1 0-6.4-.9-9.7-2-4.5-1.5-8.8-2-17.9-2-6.6-.1-14.5-.6-17.5-1.1-12.6-2.2-16-2.2-21.7-.3-7.9 2.7-12.9 8.5-13.9 16.1-.4 3.3-1.4 6.3-2.5 7.4-2.1 2.1-3.9 2.5-3.9.9 0-1.3-7.7-9-9-9-.6 0-1 3.2-1 7.1 0 6.6.5 8.5 4.1 14.9.5.8 1.5 2.8 2.3 4.5.8 1.6 2.9 5.2 4.5 8 1.6 2.7 4.2 7.2 5.6 10 1.4 2.7 4.1 7.7 6 11 1.8 3.3 4.6 8.2 6 11 1.4 2.7 3.5 6.3 4.5 8 1 1.6 3.1 5.2 4.5 8 1.4 2.7 4.2 7.7 6 11 1.9 3.3 3.9 6.9 4.5 8 .6 1.1 2.6 4.7 4.5 8s3.9 6.9 4.5 8c.6 1.1 1.9 3.3 3 5 1 1.6 3.1 5.2 4.5 8 1.4 2.7 3.4 6.3 4.5 8 1.1 1.6 2.4 3.9 3 5 .6 1.1 2.6 4.7 4.5 8s3.9 6.9 4.5 8c.6 1.1 1.9 3.3 3 5 1 1.6 3.1 5.2 4.5 8 1.4 2.7 3.4 6.3 4.5 8 1.1 1.6 2.4 3.9 3 5 .6 1.1 1.9 3.3 3 5 1.1 1.6 2.4 3.9 3 5 1.3 2.6 6.1 11 8.9 15.5 1.1 1.9 2.5 4.4 3.1 5.5.6 1.1 1.9 3.3 3 5 1.1 1.6 2.4 3.9 3 5 .6 1.1 1.8 3.2 2.8 4.7.9 1.5 3.7 6 6.1 10 2.4 4 4.7 7.5 5.1 7.8.4.3 1 1.2 1.3 2 .4.8 1.6 2.8 2.7 4.5 1.1 1.6 2.3 3.7 2.7 4.5.3.8 1.8 3.1 3.3 5 1.5 1.9 3 4.2 3.3 5 .4.8 1.6 2.8 2.7 4.5 1.1 1.6 2.5 4 3.1 5.2.7 1.3 1.5 2.3 1.9 2.3.4 0 1 .8 1.4 1.7.7 2.2 2.2 4.6 5.9 9.4 1.5 2 2.7 4 2.7 4.4 0 .4 1.3 2.4 2.8 4.4 1.6 2 3.2 4.4 3.5 5.3.4 1 1.1 1.8 1.7 1.8.5 0 1 .5 1 1 0 1.2 4.1 7.3 5.3 7.8.4.2.7.8.7 1.4 0 .5 1.9 3.5 4.3 6.6 2.3 3.2 4.7 6.5 5.2 7.4.6.9 3.7 5.6 7 10.3 3.3 4.7 6.6 9.7 7.3 11.1.7 1.3 1.7 2.4 2.3 2.4.5 0 .9.5.9 1.1 0 .6 1.9 3.6 4.3 6.7 4.2 5.7 11.3 15.8 13.2 19 4.1 6.8 17.4 23.2 24.5 30.2 9.6 9.6 14.8 12 25.8 12 3.9 0 6.2.4 6.2 1.1 0 1.1 2.5.9 13.4-.8 4.8-.8 5-.9 6.7-5.8 1-2.8 1.8-6 1.8-7.1.1-1.2.8-3.5 1.6-5 .8-1.6 1.5-3.6 1.5-4.5 0-.9.7-3 1.5-4.5.8-1.6 1.5-3.9 1.5-5.1 0-1.2.4-2.4.9-2.7.5-.4 1.2-2.5 1.6-4.9.4-2.3 1.2-5.1 1.8-6.2 1.1-1.9 1.4-3.6 3.7-17.5.6-3.6 1.7-9.7 2.3-13.5 1.7-9.8 1.6-70.1-.1-82-1.6-11.6-4.1-26.6-5.3-33-.6-2.8-1.4-7.7-1.8-11-.4-3.3-1.3-8.3-1.9-11-1.6-7.6-3.3-18.1-4.2-26.7-.4-4.3-1.3-9.9-1.8-12.5-1.1-5-2.6-13.7-4.1-23.4-.5-3-1.3-7.1-1.9-9-1-3.2-2-7.2-4.3-17.9-.5-2.4-1.4-4.9-1.9-5.4-.6-.6-1-2.1-1-3.4 0-1.3-.6-3.6-1.3-5-.8-1.5-2-4.1-2.9-5.8-1.6-3.2-1.1-5.6 1.6-7.9.6-.6 2.9-3.2 5.1-6 2.2-2.7 4.6-5.6 5.2-6.3.7-.7 3.4-4.1 6-7.5 2.7-3.4 5.5-6.9 6.3-7.7.9-.9 4.2-4.9 7.5-9s6.2-7.7 6.5-8c.3-.3 3-3.7 6-7.5 3-3.9 6-7.5 6.6-8 .6-.6 2.6-3 4.5-5.5 2.9-3.8 7.3-9.2 20.9-25.6 1-1.2 4.2-5.2 7.1-9 3-3.8 5.9-7.4 6.5-7.9.6-.6 2.6-3 4.5-5.5 3.3-4.4 16.9-21 21.3-26 1.2-1.4 3.7-4.5 5.6-7 1.9-2.5 4.8-6.1 6.5-8 1.6-2 4.6-5.6 6.5-8 1.9-2.4 5.8-7.1 8.5-10.5 2.8-3.3 6.6-8 8.5-10.5 1.9-2.4 4.6-5.6 5.9-7 1.2-1.4 3.4-4.4 4.8-6.8 2.7-4.5 6.7-5.8 7.7-2.5.3 1 39.7 40.9 87.6 88.8 87 86.9 90.2 90.3 85.7 92.1-.7.2-2.4 2.6-3.7 5.2-1.4 2.6-2.8 4.9-3.1 5.2-.6.5-3.5 6.5-8.8 18.2-1.1 2.6-2.1 5.1-2.1 5.7 0 .6-.6 2.5-1.4 4.3-2.6 6.2-4.8 14.9-8.6 35.3-.6 3.3-1.5 12.1-2.1 19.5-.5 7.4-1.3 19.8-1.8 27.5-1.3 18.5-1.3 75.1 0 84 .5 3.8 1.4 10.4 1.9 14.5.4 4.1 1.3 9.5 1.9 12 1.1 4.9 2.8 13.6 4.1 21.3.5 2.6 1.3 6.2 1.9 8 .9 3.2 2.4 9 4.1 15.7.8 3.3 1.5 5.6 4.6 14.2 3.3 9.2 4.8 12.7 7.5 18.3 1.6 3.3 2.9 6.3 2.9 6.7 0 .4 2.1 3.8 4.7 7.5 2.5 3.8 5.9 8.7 7.5 10.9 1.5 2.3 4.2 4.7 6 5.5 1.8.7 4.9 2.4 6.8 3.9 4.1 3.1 12.7 6 17.7 6s9.9-3.3 12.2-8.3c6.2-13.3 6.7-14.2 12.6-23.2 4.5-6.8 6-9.1 7.5-12 .6-1.1 1.9-3.4 3-5 1.1-1.7 2.4-3.9 3-5 .6-1.1 1.9-3.4 3-5 1.1-1.7 2.4-3.9 3-5 .6-1.1 1.9-3.4 3-5 1.1-1.7 2.4-3.9 3-5 .6-1.1 1.8-3.2 2.8-4.7.9-1.4 5.1-8.1 9.2-14.8 4.1-6.6 8.3-13.3 9.2-14.8 1-1.5 2.2-3.6 2.8-4.7.6-1.1 1.9-3.4 3-5 1.1-1.7 2.4-3.9 3-5 .6-1.1 2.4-4.3 4.1-7 1.6-2.8 3.7-6.4 4.5-8 .8-1.7 2.3-4.4 3.4-6 1.1-1.7 3.1-5.3 4.5-8 1.4-2.8 3.5-6.4 4.5-8 1.1-1.7 3.1-5.3 4.5-8 1.4-2.8 3.5-6.4 4.5-8 1.1-1.7 3.1-5.3 4.6-8 1.4-2.8 4.1-7.7 5.9-11 1.9-3.3 4.6-8.3 6-11 1.5-2.8 4.2-7.7 6-11 1.9-3.3 4.5-8.3 6-11 1.4-2.8 3-5.8 3.5-6.7 2.2-3.9 3.3-6.1 14-27.8 6.2-12.4 11.6-23.2 12.1-24 .5-.8 1.2-2.2 1.5-3 .3-.8 2-4.4 3.6-8 1.6-3.6 3.6-8.1 4.5-10 .8-1.9 2.1-4.8 2.9-6.3.8-1.6 1.4-3.6 1.4-4.6 0-.9.7-2.6 1.5-3.7.8-1 1.5-3 1.5-4.4 0-1.5.5-3.1 1.1-3.7.6-.6 1.4-2.6 1.9-4.4 1-4.3 3-9.8 4.3-12.4.6-1.1 1.4-3.3 1.8-5 1.3-5.2 4.4-13.5 7.5-19.8.8-1.6 1.4-3.6 1.4-4.5 0-.9.7-2.6 1.5-3.6.8-1.1 1.5-2.7 1.5-3.7 0-.9.7-2.2 1.5-2.9.8-.7 1.5-2 1.5-3s.7-2.3 1.5-3c.8-.7 1.5-1.9 1.5-2.7 0-1.5 4-6.9 9.3-12.7 1.5-1.7 2.7-3.8 2.7-4.7 0-2.8 1.1-4.9 2.6-4.9.8 0 1.4-.9 1.4-2s-.6-2-1.4-2c-1.7 0-2.6-2.2-2.6-6.6 0-1.9-.7-5.1-1.6-7.2-2-4.7-2.1-13.7-.1-18.2 2.3-5.4 3-16.1 1.3-18.3-1.3-1.6-2.1-1.8-5.8-1-2.7.6-7.3.6-12.3 0-12.3-1.5-81.2-1.5-92 .1-21.1 3-32.6 5.7-39.2 9.1-1 .5-4.3 2-7.3 3.4-3.1 1.4-8 4.2-10.9 6.1-2.9 2-5.5 3.6-5.8 3.6-.7 0-12.7 9.4-17.8 14-12 10.6-35.9 36.5-40.9 44.2-2.5 3.9-5.7 3.6-8.7-.6-2.9-4.1-9.4-11-35-37.6-10.8-11.3-21.4-22.3-23.4-24.5-8.9-9.5-34.6-36.5-41.5-43.6-4.1-4.2-13.6-14.1-21-22-21.1-22.5-31.8-33.7-41.1-43.1l-8.6-8.7-1.1-10.8c-.6-5.9-1.4-16.7-1.7-23.9-.3-7.2-1-15.8-1.5-19-.6-3.2-1-10.9-1.1-16.9 0-6.1-.5-13.5-1-16.5-.6-3-1.3-7.2-1.6-9.3l-.5-3.7h44.3c24.4-.1 52.1-.5 61.4-1 9.4-.5 30.2-1.4 46.3-2 16.1-.5 33.2-1.4 38-2 4.8-.5 13.9-1 20.2-1 6.3-.1 16.5-.5 22.5-1.1 6.1-.5 20.2-1.3 31.5-1.9 11.3-.5 22.9-1.4 25.9-2 2.9-.5 9.2-1 14-1.1 4.7 0 11.8-.4 15.6-.9 3.9-.5 13.9-1.4 22.4-2 8.5-.6 15.9-1.4 16.4-1.7.5-.3 6-.9 12.1-1.3 6.1-.5 13.8-1.3 17.1-1.9 3.3-.5 10.1-1.5 15-2.1 15.4-1.9 17-2.2 17.8-2.9.4-.4.3-3.1-.3-5.9-.5-2.9-1-11.2-1.2-18.5-.2-15.2-1.5-22.7-1.8-10.2zm-27.4 289.6c2.5 1.1 5.6 3.6 6.9 5.3 2.1 2.8 2.5 4.4 2.5 10.5 0 8.4-1.5 12.1-7.1 16.9-3.8 3.3-7.9 10.7-7.9 14.4 0 6.1-8.3 24.7-15.1 33.8-1.4 1.9-2.8 4-3 4.6-.2.6-1.4 2.4-2.7 4-12.3 15.9-27.2 37.2-27.2 39.1 0 .6-.4 1.3-.8 1.5-.9.3-1.3.9-7.7 13.5-2.2 4.3-4.6 8.4-5.2 9.1-.7.7-1.3 1.9-1.3 2.5 0 1.2-17.3 35.8-24.9 49.7-2.2 4.1-4.3 8.2-4.7 9-.3.8-1 2.4-1.6 3.4-.5 1-2.8 5.3-5.1 9.5-2.2 4.2-6 11.2-8.4 15.6-2.4 4.4-5.7 10.7-7.4 14-1.7 3.3-4.6 8.7-6.4 12-1.9 3.3-4.7 8.5-6.3 11.5-7 13.3-10.5 19.6-11.8 21.1-.8.8-1.4 2.3-1.4 3.2 0 .9-.4 1.8-.9 2.2-.5.3-2.3 3.1-3.9 6.3-5.2 10.1-14.9 28.6-17.4 33.2-2.4 4.5-6.2 10.3-15.1 23.3-2.6 3.7-4.7 7-4.7 7.4 0 1.6-9.5 11.9-12.1 13.2-4.2 2-9.6 0-13.9-5.1-5-5.8-7.8-14.8-10-31.8-.5-4.1-1.4-8.6-2-10.1-1.4-3.3-.8-31.3.9-47.4 1.1-9.5 1.1-15.4.2-28.5-4.7-69.1-2.9-113.7 5.5-132.7.8-1.7 1.4-3.6 1.4-4.1 0-.6.6-2.3 1.4-3.9.8-1.5 3-6 4.8-9.8 1.8-3.9 3.9-7.6 4.6-8.3.6-.7 1.2-1.7 1.2-2.2 0-1.1 8.3-13.2 10.7-15.8 2.4-2.5 19.8-21.4 25.9-28.1 2.7-3 11.5-12.2 19.5-20.5s17.8-18.6 21.9-22.8c4-4.3 9.6-9.3 12.4-11.1 9.2-6.1 12.5-6.6 39.1-6.6 19.9.1 40.9-1.2 42.3-2.5.1-.2 7-.4 15.3-.5 13.6-.2 15.5 0 19.5 2zm-817.9 8c1.5.7 10.5 1.6 19.8 2 16.4.8 28.5 2.4 37 4.9 35.7 10.5 47.1 16.6 86.5 46.1 20.8 15.5 25.7 19.6 35.8 29.9 5.6 5.6 18.3 21.6 21.9 27.5 2.7 4.4 8.3 16.7 8.3 18.1 0 .9.6 3 1.4 4.7 1.4 3.4 3.1 9.5 4.6 16.4.5 2.3 1.3 5 1.8 6 .9 1.8 1.8 4.9 4.8 16.8l2.9 12c2.4 9.3 4.5 19.4 5.5 26.3.5 3.5 1.4 8 2 10 .5 2 1 5.7 1 8.2 0 2.5.6 8.8 1.4 14 1.1 7 1.5 22.8 1.7 59.5.3 55.3.5 52.7-6.2 59.5-3.8 3.7-6.4 4.4-14.3 3.8-6.2-.5-13.6-4-19.5-9.2-3.7-3.3-15.1-18.7-17-23.1-2.5-5.7-15.3-25.6-24-37.5-3.1-4.2-6-8.3-6.6-9.2-1.8-3-18.9-28.3-19.5-28.8-.3-.3-3.6-5.2-7.5-11-3.8-5.8-7.3-10.7-7.7-10.8-.5-.2-.8-.8-.8-1.4 0-.5-2-3.6-4.5-6.8-2.5-3.2-4.5-6.1-4.5-6.5 0-.4-2-3.3-4.5-6.5s-4.5-6.3-4.5-6.9c0-.5-.6-1.4-1.3-1.8-2-1.2-13.3-16.5-15.8-21.4-1.3-2.4-2.5-4.6-2.8-4.9-1.1-1-12.5-25.2-13.6-28.8-.3-1.2-1.1-2.2-1.6-2.2s-.9-.7-.9-1.5c0-1.7-4.1-9.9-5.2-10.3-.4-.2-.8-.8-.8-1.4 0-1.1-6.9-12.9-8-13.8-.3-.3-2-2.5-3.7-5-1.7-2.5-4.3-5.9-5.8-7.5-1.5-1.7-5-5.9-7.9-9.5-3-3.6-7.1-8.4-9.2-10.6-2.2-2.2-5.7-6.3-7.9-9-2.1-2.7-4.2-5.1-4.5-5.4-1.2-1-12.7-16.6-14.7-20-4-6.5-10.3-19.4-10.3-21 0-.8-.6-2.7-1.4-4.2-.8-1.5-2-6-2.6-10-2.3-14.1 2.1-20.8 13.7-20.8 3.4 0 7.4.5 9 1.1zm838.8 10.9c.7 1.2-.5 6-1.5 6s-2.2-4.8-1.5-6c.4-.6 1-1 1.5-1s1.1.4 1.5 1zm-825.5 86c0 .5-.7 1-1.5 1s-1.5-.5-1.5-1c0-.6.7-1 1.5-1s1.5.4 1.5 1zM891.2 105.7c-2.7 8.1-5 37.1-6.8 84.3-.3 7.4-1 20.2-1.5 28.5-.5 8.2-1.4 27.9-2 43.7-1 27.8-1 28.8 1 33.2 2.1 4.9 4.4 5.8 6.1 2.6.6-1.1 1.5-14 2.1-29.8.5-15.2 1.4-33.8 1.8-41.2.5-7.4.9-20.6 1-29.2.1-8.6.6-19.4 1.1-24 1.1-9.6 1.2-70.4.1-73.1-.5-1.4-1.3-.1-2.9 5zM615 766.1c-11.4 1.7-39.5 3-67.5 2.9-15.9 0-49.2.7-74 1.6-46.7 1.7-62.9 1.5-119-1.8-31.9-1.9-39.8-1.7-43.1.8-4.9 3.6-4.1 4.2 6.3 4.8 5.4.4 13.6 1.1 18.3 1.7 10.7 1.3 260.8.5 276.5-.8 6.1-.6 12.1-1.5 13.5-2.1 1.4-.6 4.1-1.3 6.1-1.7 2.1-.3 4.2-1.2 4.9-2 .7-.8 1.9-1.5 2.6-1.5 2.7 0 1.4-1.8-1.7-2.4-4.2-.8-16-.6-22.9.5z"/></svg>