<svg xmlns="http://www.w3.org/2000/svg" viewBox="0, 0, 640, 361"><path d="M0 93.775c0 51.551.142 93.56.427 93.347.213-.214.497-40.372.64-89.218.142-48.845.569-89.146.853-89.431.356-.356 16.569-.641 36.124-.641l35.556-.142.853 13.457c.427 7.334.996 26.061 1.209 41.512.285 15.451.782 35.815 1.209 45.214.356 9.399.996 29.122 1.351 43.79 1.636 65.649 2.134 82.809 2.845 91.496.355 5.055.782 14.525.853 21.005l.213 11.748-11.733.783c-6.471.499-17.778 1.068-25.244 1.282-7.396.285-14.436.783-15.645 1.139-3.2.855-27.307 1.424-27.804.57-.925-1.424.995-1.923 8.249-1.923 14.435-.071 15.857-.142 18.346-1.139 1.351-.569 3.84-1.068 5.547-1.068 1.707 0 3.911-.356 4.907-.854 1.351-.641 2.204-.57 3.484.071 1.067.641 2.702.783 4.622.427 2.56-.427 3.058-.783 3.414-2.563.497-2.706 1.493-3.275 2.702-1.638.924 1.282.995 1.282 1.422-.071.284-.783.782-1.994 1.209-2.777.924-1.78-1.636-4.699-3.129-3.418-.569.428-1.636.641-2.489.428-1.067-.285-1.564 0-1.92 1.281l-.427 1.638-1.351-1.78c-1.066-1.282-1.209-1.994-.64-2.706.569-.641.427-1.139-.569-1.922-2.417-1.852-4.408-1.923-8.817-.428-5.263 1.852-5.547 1.852-7.538 0-1.28-1.139-1.493-1.993-1.209-3.916.284-1.78.071-2.492-.711-2.848-.711-.214-1.28-1.78-1.565-4.059-.284-2.064-.853-4.058-1.208-4.557-.356-.498-.498-1.21-.285-1.566.285-.427-.213-1.068-.995-1.495-.783-.427-1.423-1.282-1.423-1.852 0-.925.569-1.068 3.129-.712 3.058.499 3.058.428 3.556-1.851.355-1.78.142-2.634-.996-3.774-1.422-1.352-1.564-1.352-3.555-.213-2.276 1.281-4.267 1.068-4.267-.57 0-.569-.64-.997-1.422-.997-.782 0-1.422.285-1.422.712 0 .356.284.712.568.712.356 0 1.138.428 1.849.926 1.138.854 1.209 1.21.427 2.706-.498.925-1.422 2.065-1.991 2.492-.853.641-.925 1.21-.285 2.99.712 1.994.64 2.279-.568 2.279-.854 0-1.849 1.139-2.845 3.204-2.062 4.272-1.28 5.34 3.413 4.842 3.058-.285 3.2-.214 1.92.712-1.422 1.068-1.422 1.139.072 3.133.995 1.281 2.204 1.993 3.413 1.993.995 0 1.849.214 1.849.499.071 2.35-.142 2.706-1.422 2.706-.854 0-2.205.498-3.2 1.139-1.209.783-3.698 1.139-8.534 1.21-5.191.143-6.969.428-7.466 1.211-.569.854-.712.641-.712-.783 0-2.208 1.992-4.201 4.125-4.201.853 0 1.564-.214 1.635-.57.072-.285.143-3.275.214-6.693l.142-6.195-2.204.427c-1.138.214-2.276.499-2.418.641-.142.071-.285 2.279-.427 4.913-.071 2.564-.355 4.842-.569 5.056-.498.498-1.066-16.092-1.635-44.217-.214-12.532-.711-23.284-1.067-23.854-.356-.64-.64 35.887-.64 84.519v85.657h640v-361h-640v93.775zm250.738-86.156c1.209.854-.214 18.726-1.92 24.565-1.138 3.774-1.707 4.77-2.916 4.984-1.849.285-4.835 4.343-4.835 6.693 0 .926-.356 3.204-.783 5.056-.64 2.919-1.208 3.702-3.768 5.34-1.707 1.139-3.343 1.993-3.627 1.993-.285 0-1.849 1.211-3.485 2.635-10.311 9.185-10.524 9.47-12.586 14.525-2.205 5.483-3.911 16.306-3.2 20.649.355 2.421.213 2.777-1.494 3.632-1.777.854-1.991 1.353-1.92 4.13.214 9.754 2.134 17.729 5.049 20.791 1.423 1.495 1.92 2.99 2.489 7.619l.64 5.767-2.418 3.418c-1.422 1.851-3.128 3.916-3.911 4.628-.782.712-1.777 2.706-2.275 4.415-.64 2.349-1.707 3.845-4.196 5.838-1.778 1.495-3.769 3.347-4.338 4.13-.568.783-2.062 2.421-3.342 3.631-1.28 1.211-2.346 2.492-2.346 2.848-.072 1.425-3.343 4.415-5.334 4.842-1.138.285-3.555 1.852-5.404 3.489-1.778 1.638-5.618 5.056-8.462 7.619-2.845 2.492-6.116 5.91-7.254 7.476-1.138 1.567-3.698 3.988-5.76 5.341-5.333 3.631-9.173 8.758-11.022 14.667-.853 2.706-1.636 5.554-1.707 6.338-.213 1.21-.995 1.495-4.835 1.922-6.756.712-45.867 1.566-47.289.997-1.067-.356-.996-.641.64-1.923 1.564-1.281 1.849-1.922 1.564-4.129-.569-4.771-1.351-7.263-2.489-8.118-1.991-1.352-2.275-2.42-1.422-4.343.64-1.353.64-2.278.071-3.56-.497-1.139-.497-1.923 0-2.421 1.138-1.139.143-2.991-1.635-2.991-1.351 0-1.494-.284-.996-3.061.925-6.195.64-10.894-.853-12.674-.711-.855-1.067-3.703-1.138-10.183-.071-4.913.071-8.971.427-8.971.284 0 .498.641.498 1.495 0 .783.355 1.211.711.997.426-.214.711-1.851.711-3.631 0-2.706-.214-3.276-1.778-3.845-1.707-.641-1.778-.926-1.636-5.839.214-7.619-.711-33.252-1.28-36.385-.284-1.78-.142-3.346.427-4.414.64-1.211.782-3.276.498-7.05-.356-4.343-.285-5.34.64-5.696 1.493-.569.711-6.693-1.28-10.609-1.138-2.279-1.351-3.347-.782-4.771.355-.997.782-3.845.853-6.408.071-2.492.356-4.913.64-5.269.284-.427.569-4.13.711-8.26.285-11.036.427-13.101 1.067-14.098.355-.498.426-1.495.142-2.207-.213-.783-.142-1.994.213-2.706 1.494-2.919 2.205-4.984 2.631-8.046.214-1.78.498-3.702.569-4.272.071-.57 1.067-2.421 2.205-4.059 1.635-2.492 1.849-3.346 1.351-4.984-.569-1.566-1.209-2.065-3.058-2.207-3.129-.356-6.827-2.848-5.76-3.916 1.138-1.139 158.151-2.492 159.787-1.424zm226.702 2.278c.284.356-1.92.855-4.836 1.139l-5.262.499-.355 2.492c-.711 4.13-.143 4.628 4.764 4.343 2.489-.142 4.409.072 4.48.499.142.427-1.564.641-4.338.498-2.489-.142-4.693 0-4.906.356-.214.356-.783 2.706-1.138 5.198-.569 3.631-.569 4.7.284 5.981 1.636 2.279 1.28 3.276-1.066 3.276h-2.134v-22.643l2.703-1.068c2.844-1.211 11.164-1.638 11.804-.57zm38.116 3.133c0 1.994-.356 4.842-.783 6.195-.355 1.353-.711 4.699-.64 7.334 0 4.272-.142 4.842-1.209 4.628-1.137-.214-1.28-1.068-1.208-6.266 0-3.346.284-6.835.64-7.761.497-1.495.426-1.638-.996-1.139-1.991.641-1.92-.428.498-3.845 2.702-3.988 3.698-3.774 3.698.854zm-16.072-1.922c.64.213 1.138.854 1.138 1.353 0 .569.64 2.136 1.494 3.489 1.493 2.563 4.266 3.488 5.262 1.851.711-1.211 1.92-.783 1.635.498-.142.997-1.066 1.282-3.911 1.424-3.484.143-3.769.071-5.12-2.207-1.493-2.35-2.773-6.836-1.991-6.836.213 0 .853.214 1.493.428zm-2.915 4.699c-.569 7.405-2.347 14.81-3.556 14.81-1.635 0-1.066-14.596.711-17.302 2.205-3.418 3.272-2.492 2.845 2.492zm-15.858 15.451c0 .712-9.884 1.638-10.951.926-.427-.214.213-.712 1.351-.926 3.2-.712 9.6-.712 9.6 0zm40.036 9.114c-2.063.143-5.476.143-7.467 0-2.062-.142-.427-.213 3.698-.213 4.124 0 5.76.071 3.769.213zm-31.147 1.638c.924.427-.356.569-3.911.569-4.693-.071-4.978-.142-2.133-.569 4.408-.712 4.48-.712 6.044 0zm-10.453.498c-.711.143-1.849.143-2.489 0-.711-.213-.142-.356 1.209-.356s1.92.143 1.28.356zm11.875 4.486c.214.356.996.712 1.707.712 1.493 0 4.551 2.635 5.262 4.486.213.641.142 1.21-.213 1.21-.427 0-.711-.284-.711-.64 0-.356-1.209-1.425-2.631-2.279-1.494-.926-2.916-1.922-3.2-2.35-.996-1.495-6.472-1.068-9.956.855-1.849.997-3.413 2.065-3.413 2.349 0 .356-.783 1.425-1.778 2.493-.996 1.068-1.778 2.207-1.778 2.492 0 .356-.284.641-.64.641-.355 0-.142-1.567.427-3.489 1.635-4.985 5.191-7.192 11.662-7.192 2.631 0 5.049.285 5.262.712zm9.174 8.26c.64 1.566-.214 2.278-.996.996-.853-1.352-.853-2.136-.071-2.136.355 0 .853.499 1.067 1.14zm-15.858 7.618c-.569.57-.782.072-.782-1.708 0-3.276.995-4.273 1.28-1.353.142 1.281-.072 2.634-.498 3.061zm-12.374-1.139c-.213.712-.355.143-.355-1.21s.142-1.923.355-1.282c.143.712.143 1.851 0 2.492zm30.507-.783c.569 2.207-.213 8.188-1.138 9.114-.426.427-.711 1.424-.711 2.278 0 1.852-2.844 6.622-3.982 6.693-.427 0-1.351.641-2.062 1.425-1.351 1.495-3.911 1.922-3.911.712 0-.356.853-.926 1.991-1.14 1.066-.284 2.489-1.21 3.129-1.993.711-.855 1.564-1.852 1.991-2.35.355-.498.711-1.424.711-2.207 0-.712.498-1.923 1.067-2.706.64-.855.995-3.133 1.066-6.551 0-5.126.996-6.835 1.849-3.275zm-237.582 3.702c4.338 2.208 9.315 6.907 11.022 10.467.853 1.78 1.778 3.347 2.133 3.56.712.428.356 32.184-.355 36.528l-.569 3.061 2.631-2.349c1.422-1.211 2.56-2.635 2.56-3.204 0-.926 3.342-3.489 3.911-2.991.427.498-3.058 10.752-4.764 13.813-1.494 2.777-3.2 4.557-4.267 4.629-.355 0-.569-1.424-.569-3.204 0-3.205-.853-4.13-1.991-2.137-.284.641-1.707 1.638-3.058 2.35-2.773 1.424-3.413 3.56-1.777 5.981.64.855 1.137 1.994 1.137 2.492 0 1.282-3.982 6.836-5.546 7.833-.783.498-1.636 1.922-1.92 3.204-.854 3.631-3.343 6.835-6.258 8.046-3.911 1.566-14.222 1.424-17.991-.285-3.627-1.638-6.4-5.127-7.254-9.185-.426-1.638-1.564-4.13-2.56-5.483-2.346-2.99-2.275-4.058.214-8.971 2.418-4.771 2.062-6.195-2.276-9.257-2.631-1.851-3.271-2.777-4.053-5.839-1.28-5.482-.782-7.903 1.635-8.188 1.494-.214 2.205.214 3.129 1.923 1.423 2.42 3.627 3.631 6.471 3.631h1.92l-1.777-1.424c-1.423-1.068-1.494-1.424-.569-1.424.64 0 2.062-.855 3.058-1.994l1.848-1.922-1.564-1.282c-.853-.641-2.062-1.21-2.844-1.21-1.707 0-2.276-1.069-.996-2.137.569-.498 1.707-.64 2.631-.356 2.418.784 5.618 3.205 5.191 3.917-.498.783 3.342 2.848 5.262 2.848 1.849 0 2.56-2.564 1.494-5.341-1.138-3.061-4.267-6.052-6.187-6.052-.924 0-2.844-.498-4.195-1.068-1.636-.641-3.556-.925-5.263-.641-2.986.499-3.84-.213-3.982-3.631-.071-1.211-.355-4.628-.64-7.69-.498-4.984-.427-5.91 1.067-8.758 1.849-3.703 6.969-7.405 10.382-7.405 1.138 0 2.418-.285 2.844-.641 1.352-1.353 5.832-1.994 12.729-1.851 5.547.142 7.751.498 9.956 1.637zm218.667 2.279c0 1.139-.285 2.136-.712 2.136-.355 0-.711-.997-.711-2.136 0-1.21.356-2.136.711-2.136.427 0 .712.926.712 2.136zm-11.592 6.907c-.213.712-.355.142-.355-1.211s.142-1.922.355-1.281c.143.712.143 1.851 0 2.492zm3.414 3.773c1.92 2.137.853 2.421-1.067.356-.924-.996-1.351-1.78-.924-1.78.355 0 1.28.641 1.991 1.424zm5.333 3.561c0 .854-.569.854-2.489 0-1.28-.57-1.209-.641.569-.641 1.067-.071 1.92.213 1.92.641zm6.827 1.637c.284.285-.782.499-2.418.499-1.636 0-2.987-.214-2.987-.57 0-.641 4.694-.641 5.405.071zm-12.516 2.421c0 .855-2.346 3.062-3.342 3.062-1.422 0-1.067-1.495.498-1.923.782-.213 1.422-.64 1.422-.996s.356-.641.711-.641c.427 0 .711.213.711.498zm-6.186 3.489c.568.57-4.196 3.845-5.547 3.845-.569 0-1.138.285-1.351.641-.569.854-5.974 3.631-7.111 3.631-.498 0-1.351.499-1.849 1.068-.498.57-1.351 1.068-1.92 1.068s-2.489.926-4.267 2.136c-1.707 1.14-3.342 2.137-3.627 2.208-.284 0-1.92 1.139-3.697 2.492-5.405 4.058-14.934 8.829-14.934 7.476 0-.641 5.903-4.984 9.245-6.764 1.351-.712 2.986-1.709 3.555-2.207.569-.428 2.56-1.567 4.409-2.421 1.92-.926 3.556-1.923 3.84-2.279.214-.356.996-.641 1.778-.641.711 0 1.351-.356 1.351-.712 0-.427.569-.996 1.28-1.21.64-.285 2.702-1.353 4.48-2.492 1.778-1.068 3.769-1.994 4.338-1.994.64 0 1.493-.498 1.991-1.068.498-.57 1.564-1.068 2.418-1.068.782 0 2.133-.498 2.844-1.068 1.565-1.139 2.134-1.282 2.774-.641zm67.413 24.921c1.138 1.495 4.693 5.269 7.822 8.402 5.049 5.198 6.4 7.263 5.191 8.402-.569.641-4.622-3.489-8.889-8.971-2.062-2.706-5.191-6.409-7.04-8.26-4.622-4.913-10.951-12.176-11.306-13.03-.143-.427-1.209-1.638-2.347-2.635-1.067-.997-1.849-2.065-1.564-2.349.426-.428 14.364 13.671 18.133 18.441zm-249.458-9.968c.782.783-1.778 3.845-3.129 3.845-1.493 0-1.706-.855-.64-2.92.711-1.281 2.845-1.851 3.769-.925zm137.031 10.894c0 .783-3.2 2.919-4.338 2.919-.497 0-.142-.783.783-1.78 1.635-1.78 3.555-2.35 3.555-1.139zm-7.538 9.256c1.423 1.567 1.352 8.687-.071 9.185-.711.214-.924-.925-.924-4.058 0-4.201-.071-4.343-1.849-4.343-1.564 0-1.778-.143-.996-1.069 1.209-1.424 2.347-1.352 3.84.285zm-4.053 12.247c.925 6.978 1.707 7.975 3.058 3.916.853-2.563 2.631-3.773 3.769-2.634.711.712-.925 5.483-2.56 7.69-.996 1.424-2.702 1.068-3.129-.499-.213-.783-.64-1.424-.996-1.424-.284 0-.782-1.068-.995-2.421-.498-2.278-2.489-3.987-4.907-3.987-1.849 0-1.991-2.35-.284-3.631 1.564-1.211 1.706-1.211 3.769.356 1.137.925 2.204 2.136 2.275 2.634zm132.693-2.492c.498.499-2.062 3.133-3.057 3.133-1.209 0-.783-1.994.569-2.777 1.422-.854 1.92-.926 2.488-.356zm11.734 1.709c.782 1.282.64 1.922-.925 4.557-1.564 2.706-1.706 3.204-.711 3.987 1.209.997 1.494 4.273.356 4.273-.356 0-.925-.997-1.28-2.279-.356-1.566-1.351-2.634-3.271-3.631-2.774-1.496-2.489-2.635.782-2.635 1.849 0 3.342-2.35 2.702-4.272-.64-1.922 1.138-1.851 2.347 0zm-154.525 4.913c.285.57-3.697 4.272-7.111 6.622-.355.285-2.702 2.207-5.049 4.272-5.333 4.628-12.444 10.253-16.284 12.817-1.565 1.068-4.267 3.204-6.045 4.841-5.475 4.985-10.595 8.687-11.52 8.331-.853-.285 3.912-5.482 9.032-9.755 2.417-2.064 19.484-14.81 22.968-17.231 1.352-.925 4.694-3.631 7.467-6.123 5.12-4.486 5.831-4.913 6.542-3.774zm19.556 8.687c0 .569 7.324 10.823 9.955 13.956.925 1.068.925 2.349.072 2.349-.783 0-4.694-4.77-6.827-8.188-.711-1.211-1.707-2.421-2.276-2.706-.497-.285-.924-1.068-.924-1.566 0-.57-.285-1.068-.64-1.068-.925 0-1.707-2.635-1.138-3.56.498-.855 1.778-.285 1.778.783zm134.755 3.418c-.568 3.275-3.342 6.906-4.622 6.123-.711-.427-.64-.783.285-1.495 1.422-.997 3.982-5.768 3.982-7.334 0-.57.213-.855.427-.57.213.214.213 1.709-.072 3.276zm-24.533.712c0 .712-7.751 7.476-17.351 15.023-2.56 2.065-4.907 4.059-5.262 4.557-.996 1.638-12.445 11.108-13.369 11.108-2.062 0-.853-2.136 3.342-5.767 2.347-2.136 5.049-4.486 5.973-5.269.854-.784 3.129-2.706 4.978-4.273 1.849-1.566 5.262-4.557 7.538-6.621 2.276-1.994 4.409-3.703 4.693-3.703.356 0 1.991-1.282 3.769-2.848 2.987-2.635 5.689-3.703 5.689-2.207zm-253.227 3.702c2.489 2.991 2.489 3.916.285 3.204-1.138-.356-3.769-4.486-3.769-5.767 0-1.068 1.493 0 3.484 2.563zm268.729.285c.427.997 1.351 1.78 1.92 1.78.64 0 .925.285.711.712-1.28 1.994-6.044-.356-6.044-2.99 0-1.923 2.489-1.567 3.413.498zm12.8 6.978c.143 1.424.498 2.634.854 2.634.355 0 .853.712 1.066 1.567.285.925.925 2.706 1.494 3.916 2.702 6.052 3.484 7.69 3.84 8.046 1.28 1.139 5.689 8.616 5.689 9.541 0 .641.284 1.139.64 1.139.995 0 3.626 4.913 3.626 6.836 0 3.631-2.062 1.424-6.258-6.836-2.417-4.699-4.408-8.971-4.408-9.541 0-.569-.285-1.139-.569-1.281-1.28-.499-5.831-9.114-5.831-10.966 0-1.139-.498-2.705-1.067-3.417-1.28-1.709-1.422-4.913-.142-4.557.426.213.924 1.495 1.066 2.919zm-339.271 4.486c2.987 2.99 3.698 4.129 2.987 4.557-1.92 1.281-8.462-4.273-8.462-7.192 0-2.207 1.351-1.566 5.475 2.635zm51.129-1.78c.64 2.207 2.062 2.919 2.062 1.068 0-1.78 1.138-2.279 2.134-.855.782 1.068 1.564 1.211 3.484.926 2.845-.427 2.987-.356 3.627 3.275.498 2.563.426 2.635-1.565 2.635-1.706 0-2.844.854-5.76 4.201-1.991 2.278-4.337 5.34-5.191 6.764-1.066 1.851-1.849 2.492-2.773 2.207-1.422-.427-2.133 1.282-2.133 5.483 0 2.919-1.067 4.201-1.778 2.065-.214-.712-2.062-2.065-4.125-2.92-2.062-.854-4.551-2.207-5.617-2.99-2.347-1.638-3.698-1.068-3.2 1.282.568 3.061-2.489 4.485-9.316 4.485-3.2 0-5.831-.284-5.831-.64 0-1.353-3.485-1.567-5.973-.356-1.352.64-2.774.996-3.2.783-.356-.214-1.138-1.923-1.778-3.845-1.138-3.204-1.138-3.418.284-4.557.782-.641 1.422-1.923 1.422-2.92 0-2.42 1.209-2.705 7.823-1.78 6.471.997 6.969 1.496 6.115 7.263-.569 3.774.427 4.842 2.489 2.635.782-.855 1.636-1.496 1.92-1.496.285 0 1.067-.854 1.778-1.78 1.28-1.78 1.28-1.851-.142-3.702-1.991-2.492-1.92-2.777 1.209-4.486 2.773-1.495 3.413-1.923 8.604-5.127 3.627-2.278 5.618-2.492 6.258-.783.213.712 1.138 2.919 2.062 4.984.924 1.994 1.707 4.059 1.707 4.557 0 .499.213.641.497.428.214-.285.356-2.35.285-4.629-.071-2.421.355-5.269.995-6.764.569-1.424 1.067-3.703 1.067-5.127 0-3.133 1.707-3.346 2.56-.284zm-66.987 1.068c1.209 1.139 1.494 2.848.64 3.346-.355.143-1.564-.427-2.844-1.281-1.707-1.211-2.062-1.781-1.422-2.421 1.066-1.068 2.346-.997 3.626.356zm233.174 3.916c1.493 1.566 2.631 3.133 2.631 3.346.071.285.995 1.282 2.133 2.279 1.209.925 2.134 2.065 2.134 2.492 0 .356 1.137 1.994 2.56 3.56 1.351 1.567 3.982 4.842 5.831 7.263 3.129 4.13 3.555 4.414 6.471 4.628 1.92.142 3.271.57 3.484 1.21.285.855-.426.926-4.053.57-5.262-.57-8.107-2.207-7.467-4.201.285-1.068-.355-2.207-2.346-4.414-1.565-1.567-3.698-4.201-4.836-5.768-1.138-1.566-2.987-3.987-4.196-5.34-3.982-4.628-6.115-7.405-6.115-7.975 0-1.21 1.28-.427 3.769 2.35zm-241.28.997c.498.64.711 1.281.426 1.566-.568.641-3.982-.997-3.982-1.922 0-1.068 2.56-.855 3.556.356zm15.502.569c1.138.926 1.067 1.852-.142 2.35-1.351.498-4.978-2.635-3.84-3.347.853-.569 2.489-.142 3.982.997zm-20.907 7.761l3.2 4.771-1.635 2.35c-.854 1.281-1.778 2.919-2.062 3.56-.214.712-.712 1.282-1.138 1.282-1.067 0-1.494-3.062-.569-4.13.64-.783.498-1.211-.569-1.994-.711-.57-1.707-.997-2.062-.997-.427 0-1.209-.997-1.778-2.136-.711-1.78-.711-2.421 0-3.275.64-.783.64-1.282.071-1.851-1.209-1.211-1.067-2.564.427-2.92 1.92-.427 2.702.285 6.115 5.34zm12.374-.284c.142.498-.214.854-.854.854s-1.137-.498-1.137-1.139c0-1.211 1.564-.997 1.991.285zm82.56 1.281c1.92.997 3.626 2.92 3.626 4.13 0 .926-2.702.356-3.129-.641-.213-.569-1.066-1.068-1.848-1.068-1.067 0-1.423-.498-1.423-1.78 0-2.136-.071-2.065 2.774-.641zm215.964 6.266c-.213.926-1.138 1.994-1.991 2.279-.853.213-3.556 2.492-6.044 4.984-3.485 3.489-4.48 4.984-4.48 6.622 0 1.78.355 2.207 2.56 2.919 2.417.855 2.702.783 4.266-1.068 1.991-2.35 2.347-6.408.569-7.049-.569-.214-.853-.783-.64-1.211.356-.498 1.138-.142 2.276.855 1.422 1.353 1.635 2.207 1.493 4.913-.213 2.706-.498 3.346-2.133 4.13-2.205 1.068-2.703 3.631-.925 5.126.569.499 1.067 1.424 1.138 2.065 0 .641 1.28 3.347 2.773 6.124 1.494 2.705 3.627 6.55 4.623 8.544.995 1.923 2.417 4.486 3.2 5.696 2.986 4.913 6.4 11.962 5.973 12.532-.213.356-1.067.641-1.991.641-1.351 0-2.134-1.139-4.836-6.978-5.262-10.965-8.391-17.516-9.031-18.655-1.138-2.065-2.773-6.052-3.698-9.114-.497-1.709-1.422-3.347-2.062-3.703-2.915-1.566-5.689-4.913-5.689-6.906 0-2.92 1.351-4.486 7.111-8.331 2.774-1.923 5.191-3.916 5.405-4.415.995-3.275 1.066-3.346 1.849-2.563.426.427.569 1.566.284 2.563zm-141.227 2.777c0 4.771-1.564 8.544-2.488 6.052-.285-.641-.072-1.851.355-2.705 1.138-2.208 0-3.133-3.555-2.991-3.2.142-5.689-.854-5.689-2.207 0-.57 1.351-.783 4.622-.641 3.698.214 4.693.071 5.049-.854.924-2.421 1.706-.926 1.706 3.346zm-185.6-2.99c0 .498.854.64 2.205.498 1.778-.285 2.347-.071 2.631.997.213.783.924 1.281 1.991 1.281.996 0 1.92.499 2.133 1.069.285.569 1.209 1.068 2.134 1.068 2.062 0 2.062.996.213 3.916-.782 1.139-1.564 2.705-1.778 3.417-.64 1.852-3.484 1.282-3.413-.569 0-1.211-.356-1.424-1.991-1.211-1.92.285-2.062.143-1.565-1.566.427-1.851-.568-2.635-1.493-1.139-.64 1.068-2.631.854-5.404-.499-1.351-.641-2.56-1.21-2.703-1.353-.142-.142.356-.925 1.067-1.851.996-1.139 1.92-1.566 3.413-1.424 1.849.214 1.992.071 1.565-1.566-.285-1.068-.142-1.852.284-1.852.356 0 .711.356.711.784zm34.134.284c0 .57.426 1.068.995 1.068.498 0 1.351.428 1.849.997.64.855 1.209.855 2.489.285 2.205-.997 3.2-.214 6.471 4.913 1.351 2.065 2.774 3.774 3.271 3.845.498 0 2.845.214 5.191.356 2.347.214 5.76.356 7.68.356 2.134 0 3.343.356 3.343.926 0 1.78-1.849 2.563-5.974 2.634-2.417 0-5.902.285-7.893.57-2.56.427-4.053.356-5.404-.285-1.707-.926-9.245-1.424-13.796-.926-1.778.214-2.276-.142-3.2-2.064-.569-1.282-1.636-2.35-2.276-2.35-.64 0-1.493-.427-1.777-.997-.285-.57-1.351-1.139-2.276-1.282-.995-.071-1.92-.641-2.062-1.21-.285-.783 0-.855.995-.427 2.845 1.21 5.334 1.21 7.04.071 2.134-1.424 2.418-3.988.427-3.988-2.133 0-2.418-1.21-.64-2.42 2.062-1.496 5.547-1.496 5.547-.072zm70.684 2.279c.569 1.353-.711 2.421-2.204 1.851-.498-.213-.925-.783-.925-1.21 0-2.065 2.418-2.564 3.129-.641zm12.516 3.631c0 .712-.356 1.638-.782 2.065-1.138 1.139.426 4.984 3.057 7.476 1.138.997 2.631 3.205 3.343 4.842.711 1.709 2.204 3.774 3.271 4.7 1.351 1.21 1.777 1.993 1.422 3.061-.64 1.994-3.84 2.777-4.978 1.211-1.28-1.709-3.129-1.424-4.053.641-.996 2.207-1.778 2.278-2.418.213-.284-.854-1.209-2.207-2.204-2.919-1.778-1.424-3.769-4.771-3.769-6.408 0-.57 1.137-1.567 2.56-2.35 2.346-1.21 4.409-4.201 3.484-5.127-.213-.213-1.564 0-2.987.428-1.493.427-2.915.569-3.342.213-.426-.356-1.564-.783-2.56-.925-.995-.072-1.849-.784-1.991-1.496-.355-1.851 3.413-1.709 3.911.214.214.783.64 1.424.996 1.424.355 0 .64-.641.64-1.424 0-1.353 4.693-6.907 5.902-7.049.284-.071.498.498.498 1.21zm156.16 2.706c-.214.641-.427 1.495-.427 1.922 0 .499-.355.285-.782-.427-.782-1.281-.356-2.634.924-2.634.356 0 .498.498.285 1.139zm-254.294 2.207c1.778.641 3.343 1.282 3.414 1.353.142.142-.071 1.282-.498 2.635-.64 1.922-1.493 2.777-3.698 3.631-1.564.641-3.271 1.139-3.84 1.139-1.28 0-1.351 1.567-.213 4.771.782 2.136.711 2.492-.782 3.489-.854.641-1.849 1.922-2.205 2.848-.426 1.139-1.209 1.709-2.346 1.709-1.778 0-7.609-4.059-7.609-5.34 0-.356.64-1.709 1.422-2.849.782-1.21 1.422-2.634 1.422-3.275s1.28-1.994 2.845-3.062c1.564-.997 2.844-2.136 2.844-2.492 0-.925 4.409-5.767 5.262-5.767.427 0 2.205.569 3.982 1.21zm258.703 5.412c.284 1.495-3.2 3.845-4.267 2.777-.498-.499-.284-.997.782-1.496.854-.498 1.494-1.353 1.494-1.922 0-1.424 1.706-.855 1.991.641zm-287.574.142c.569.57 1.636 1.068 2.347 1.068.711 0 2.631.57 4.267 1.211 2.346.996 3.057 1.637 3.057 2.848 0 1.424-.355 1.637-2.488 1.637-1.992 0-2.489.285-2.489 1.424 0 .926-.711 1.709-1.92 2.208-1.067.427-2.205 1.139-2.489 1.566-.427.641-.854.641-1.991-.071-.783-.427-1.991-.854-2.774-.854-1.706 0-2.631-1.211-3.129-4.059-.995-5.055 4.48-10.111 7.609-6.978zm412.16 0c.569.712.711 2.35.356 5.269l-.498 4.272 2.56.428c1.422.284 2.56.854 2.56 1.21 0 .427-.995.57-2.418.285-3.129-.57-4.48 0-5.831 2.563-1.351 2.635-.995 4.13 2.56 11.606 4.622 9.684 7.68 16.448 9.671 21.148.996 2.492 2.134 4.77 2.489 5.126.925.997.782 3.988-.142 3.988s-3.413-2.849-3.484-3.917c0-.427-.783-1.922-1.707-3.275-.996-1.424-2.916-5.625-4.338-9.256-3.911-10.254-6.755-17.16-7.893-19.296-.569-.997-.996-2.493-.996-3.276 0-.783-.498-1.922-1.066-2.563-.783-.712-.925-1.709-.64-3.062.64-2.777 1.635-3.774 3.555-3.774 2.133 0 2.702-1.068 2.631-5.126-.071-3.56.925-4.415 2.631-2.35zm-8.96 1.567c-1.92 2.064-2.844 1.851-2.062-.428.285-.997 1.067-1.495 2.133-1.495h1.707l-1.778 1.923zm-209.28.356c1.423 3.204 2.703 5.055 6.329 9.114 5.405 6.194 6.187 7.333 8.534 12.033 2.488 4.984 2.631 5.767.782 5.767-.996 0-2.062-1.281-3.627-4.485-1.28-2.421-4.409-7.263-6.969-10.752-5.475-7.405-7.466-10.894-6.969-12.247.569-1.424 1.067-1.211 1.92.57zm-119.964 1.281c.355.356.427 1.424.142 2.421-.355 1.353-.924 1.851-2.204 1.851-3.2 0-12.516 6.124-15.36 10.04-2.205 3.133-4.054 2.706-7.183-1.638-3.271-4.485-3.555-7.405-.924-8.402 1.067-.427 1.778-1.21 1.778-2.136 0-1.495 1.706-1.993 2.489-.712.64 1.068 9.031.071 13.084-1.495 3.129-1.21 6.827-1.139 8.178.071zm37.76-.142c1.493 1.21 1.564 1.424.569 3.275l-1.067 2.065-1.707-2.065c-3.057-3.774-1.493-6.123 2.205-3.275zm171.449 4.201c.64 2.065 2.489 6.835 3.484 9.114 6.471 14.525 8.107 22.215 4.409 20.791-1.067-.427-3.342-6.907-3.342-9.541 0-.712-1.422-4.771-3.2-9.114-1.778-4.272-3.2-8.544-3.2-9.399 0-2.065-1.209-2.706-2.062-1.139-.356.712-2.703 2.35-5.263 3.631-2.56 1.353-6.186 3.703-8.177 5.34-1.92 1.638-4.551 3.845-5.903 4.913-1.351.997-3.342 2.706-4.551 3.703-1.137.997-2.56 1.851-2.986 1.851-1.565 0-.996-2.136 1.066-3.987 4.125-3.703 17.707-13.671 21.12-15.38 4.338-2.207 8.036-2.563 8.605-.783zm41.529.641c0 1.21-1.209 2.492-10.311 10.609-3.485 3.133-7.325 6.622-8.463 7.69-1.991 1.994-3.982 2.136-3.982.356.071-1.851 6.187-7.619 16-15.095 1.991-1.495 3.84-3.133 4.125-3.703.782-1.353 2.631-1.281 2.631.143zm-203.52 4.699c1.137 1.139 1.066 2.706-.143 2.706-.924 0-1.848-1.424-1.848-2.92 0-.925.995-.783 1.991.214zm-111.147 2.065c0 1.282-.427 1.78-1.778 1.922-1.422.214-1.564.143-.853-.783.498-.569.853-1.353.782-1.638-.213-1.281.071-1.851.996-1.566.426.214.853 1.139.853 2.065zm82.489-.57c.782 0 2.133-.285 2.987-.569 1.28-.428 1.564-.143 1.991 1.922.284 1.282.782 2.706 1.137 3.133.356.427.854 2.207 1.067 3.916.356 2.706.142 3.418-1.422 5.056-.996 1.068-2.987 2.136-4.409 2.421-1.707.284-2.773.996-3.271 2.136-.64 1.424-1.351 1.709-3.84 1.709-2.845 0-7.609 1.708-10.382 3.702-.996.712-1.565.641-3.343-.712-1.208-.854-2.631-1.566-3.2-1.566-.568 0-1.92-.499-3.057-1.068-1.067-.57-3.556-1.211-5.405-1.424-3.342-.428-3.413-.499-2.204-1.852.64-.712 2.275-1.709 3.555-2.207 2.134-.783 2.418-1.139 2.418-3.418 0-3.489 2.205-5.411 6.827-5.981 2.773-.356 3.84-.213 4.48.57.924 1.139 4.693 1.353 6.542.356 1.351-.712 2.773.498 2.773 2.349 0 .712-1.066 2.208-2.275 3.347-2.489 2.207-2.276 3.631.355 2.35.854-.428 2.347-.926 3.343-1.14 1.991-.427 5.191-5.411 4.551-7.049-.143-.498.142-1.424.782-1.922 1.635-1.353.071-2.991-2.205-2.136-1.066.427-2.417.427-3.626-.071-1.92-.712-1.991-.784-.569-1.781.924-.712 2.062-.854 3.2-.569.995.285 2.418.498 3.2.498zm308.267 1.852c0 .712-1.778 2.848-4.054 4.77-2.275 1.923-6.115 5.34-8.533 7.548-2.418 2.278-4.765 4.13-5.12 4.13-.356 0-.853-.57-1.138-1.211-.498-1.353 1.636-3.489 9.813-9.897 2.276-1.851 4.978-4.059 5.974-4.984 2.204-2.065 3.058-2.137 3.058-.356zm-320.072 0c.925.569.925.854.072 1.851-.925 1.139-1.067 1.139-1.92-.071-1.423-1.923-.214-3.062 1.848-1.78zm-8.462.64c0 .997-.782 1.496-1.849 1.068-.569-.213-.782-.64-.569-.996.498-.784 2.418-.855 2.418-.072zm-25.742 1.709c.64.641.569 1.14-.356 2.136-1.564 1.78-3.057 1.638-3.057-.356 0-2.634 1.706-3.489 3.413-1.78zm68.267 2.065c.071 1.353.497 3.062.853 3.845 2.844 6.337 3.556 8.473 2.844 9.185-1.28 1.282-3.555-1.637-3.555-4.557 0-1.424-.498-3.204-1.067-3.987-1.28-1.709-1.493-7.619-.142-7.263.427.214.924 1.424 1.067 2.777zm-50.347-1.21c0 .569-.284 1.281-.711 1.495-.356.214-.711 1.566-.711 2.919 0 2.136-.214 2.421-1.778 2.421-2.062 0-2.204-.569-.711-2.563 1.28-1.709 1.351-2.421.071-2.421-1.493 0-2.204-1.495-1.067-2.207 1.636-.997 4.907-.784 4.907.356zm-32.711 3.987c0 .427-1.138 1.282-2.56 1.923-2.062.996-2.631 1.068-3.129.284-1.067-1.78.071-2.919 2.916-2.919 1.493 0 2.773.356 2.773.712zm13.155 7.476c2.56 2.564 3.2 5.056 1.636 6.622-1.067 1.068.498 2.991 2.347 2.991 1.066 0 1.351.498 1.351 2.492 0 1.424.569 3.418 1.209 4.486 1.209 1.851 1.209 1.922-.143.854-2.488-1.993-5.973-6.052-6.044-7.049 0-.57-.498-1.353-1.138-1.851-.64-.427-1.209-1.78-1.28-2.991-.071-1.353-.924-2.919-2.418-4.414-1.28-1.282-2.133-2.635-1.848-2.991.853-1.424 3.911-.569 6.328 1.851zm-8.391 2.635c.783.926 1.991 3.133 2.703 4.984.711 1.923 1.564 3.418 1.848 3.418.356 0 .64.641.64 1.424 0 1.282-.426 1.068-3.626-1.424-1.991-1.567-3.84-2.848-4.196-2.848-.284 0-1.066-.783-1.706-1.78-1.138-1.709-1.138-1.923.071-3.56 1.564-2.137 2.417-2.208 4.266-.214zm-42.169 3.133c1.352.498 1.565 2.421.285 2.421-1.565 0-2.916-1.211-2.418-2.065.569-.926.64-.926 2.133-.356zm82.489 5.839c.498.854-.355 3.702-1.066 3.702-.925 0-1.565-1.922-1.067-3.204.427-1.139 1.564-1.424 2.133-.498zm18.205.142c0 .356-.498.712-1.067.712s-1.067-.356-1.067-.712c0-.427.498-.712 1.067-.712s1.067.285 1.067.712zm24.533.712c.498 1.495-1.707 6.052-2.844 6.052-.356 0-.996-.854-1.351-1.851-.498-1.424-.356-2.279.711-3.703 1.635-2.278 2.844-2.421 3.484-.498zm19.413 2.848c.925.712 1.494 1.709 1.209 2.136-.284.427-.142 1.211.285 1.709.569.641.498 1.424-.142 2.777-1.067 2.421-2.632 2.492-2.632.142 0-1.352-.568-1.993-2.488-2.777-2.063-.854-2.489-1.424-2.489-3.204 0-3.845 2.417-4.129 6.257-.783zm5.547.57c1.138.783 1.707 2.919.996 3.346-.427.285-.711-.071-.711-.712s-.64-1.353-1.423-1.566c-.782-.214-1.209-.641-.995-.997.426-.783 1.066-.783 2.133-.071zm-302.649 3.702c0 1.923-.284 3.56-.64 3.56-.426 0-.711-1.637-.64-3.56 0-1.993.285-3.56.64-3.56.356 0 .64 1.567.64 3.56zm160.711-1.353c2.916 2.137 2.987 2.279 2.56 5.341-.355 2.919-.284 3.275 1.423 3.987 2.275 1.068 4.266 4.913 4.906 9.47l.427 3.56-1.636-3.275c-1.849-3.631-2.844-4.771-5.689-6.622-1.137-.712-1.991-1.851-1.991-2.492 0-.712-1.209-3.703-2.702-6.693-3.2-6.337-2.56-7.049 2.702-3.276zm104.036.072c-.569 3.133-.711 3.204-2.489 1.424-1.28-1.211-1.351-1.638-.569-2.564.498-.64 1.493-1.139 2.205-1.139 1.066 0 1.208.356.853 2.279zm-116.125 3.204c0 .925-.213.925-1.066.213-.569-.498-1.067-1.352-1.067-1.922 0-.926.213-.926 1.067-.214.569.499 1.066 1.353 1.066 1.923zm44.516.142c1.707 1.353 1.778 1.424.356 2.136-2.134 1.14-2.703.997-3.058-.997-.569-2.848.142-3.133 2.702-1.139zm-18.773.997c1.137.997 2.062 2.706 2.346 4.415.285 1.566.783 3.204 1.138 3.56.285.427.64 1.637.782 2.777.214 2.349-1.351 3.417-1.991 1.353-.213-.712-.711-1.852-1.066-2.493-.356-.712-.64-1.922-.64-2.776 0-.855-1.138-2.564-2.489-3.917-1.565-1.495-2.347-2.705-2.063-3.417.569-1.567 1.707-1.424 3.983.498zm40.746 1.851c.569.997-.711 1.567-2.133 1.068-.924-.356-.996-.569-.213-1.068 1.209-.783 1.849-.783 2.346 0zm27.236 2.421c.213.855-.213 1.211-1.493 1.211-2.205 0-2.845-.712-1.778-1.923 1.066-1.281 2.986-.854 3.271.712zm-36.836 3.204c1.707 1.638 2.845 3.418 2.845 4.415 0 1.566 0 1.566-1.92.285-4.551-2.92-5.12-3.56-5.191-5.483 0-2.563.853-2.421 4.266.783zm-77.511 12.817c0 2.35.356 4.486.854 4.984.711.712.711 1.068.071 1.424-1.138.712-1.423 8.189-.356 8.545 1.565.498.853 1.566-.995 1.566-1.423 0-1.778-.285-1.423-1.139.214-.641.427-5.269.427-10.325 0-5.625.284-9.185.711-9.185s.711 1.851.711 4.13zm134.4-3.489c0 .854-1.422 1.78-1.92 1.282-.498-.499.427-1.923 1.28-1.923.356 0 .64.285.64.641zm49.067 3.56c0 2.35.355 4.486.711 4.7.498.284.498.854 0 1.78-.996 1.851-.853 7.405.142 8.402.711.712.711 1.068-.142 1.566-.569.356-1.351.57-1.707.498-.426-.142-.782-17.088-.426-21.004 0-.072.355-.143.711-.143.426 0 .711 1.851.711 4.201zm-195.413 6.052c-.285 7.904-.214 8.189 1.351 9.043l1.635.855-1.706.64c-.925.356-2.632.428-3.769.143-1.849-.356-1.92-.499-.925-1.638.925-.997 1.138-2.99 1.138-9.185 0-7.12.142-7.975 1.28-7.975 1.138 0 1.209.783.996 8.117zm25.386-5.909c.854 1.21 1.422 2.634 1.209 3.204-.498 1.281-2.844 1.281-3.982-.072-.498-.569-1.991-1.068-3.271-1.068-2.418 0-2.916-.712-1.991-3.133.284-.783 1.351-1.139 3.413-1.139 2.56 0 3.271.356 4.622 2.208zm60.871-.784c1.28 1.424 1.28 1.496-.071 2.492-1.778 1.353-1.991 1.353-3.484-.356-1.067-1.139-1.067-1.566-.356-2.492 1.209-1.424 2.347-1.353 3.911.356zm281.245-.712c0 .356-.64.712-1.494.712-.782 0-1.208-.356-.995-.712.213-.427.924-.712 1.493-.712.569 0 .996.285.996.712zm-180.622 3.632c0 1.637.355 2.278 1.564 2.634l1.564.356-1.564.57c-1.351.498-1.564 1.139-1.564 4.842 0 3.702.142 4.201 1.564 4.628 1.28.285 1.422.569.782 1.21-.711.712-1.28.712-2.702.071-1.636-.783-1.778-1.21-1.849-5.981-.071-6.052.071-9.256.569-10.039.711-1.211 1.636-.356 1.636 1.709zm159.857.356c.214 2.492.214 2.492-.284 7.334-.427 3.489-.285 3.987 1.209 5.126 1.493 1.139 1.564 1.282.426 1.709-2.631 1.068-3.342-.071-3.342-5.34 0-2.848-.284-4.984-.711-4.984-.355 0-.711-.499-.711-1.068 0-.57.356-1.068.711-1.068.427 0 .711-.997.711-2.208 0-2.848 1.707-2.421 1.991.499zm-204.515.071c.142 1.353.711 2.065 1.991 2.421l1.778.427-1.778.285c-1.636.285-1.778.641-1.991 4.486-.142 2.919.071 4.414.711 4.841.711.428.711.712-.142 1.282-.569.356-1.351.57-1.707.498-.569-.213-.782-6.479-.498-14.383.071-2.42 1.351-2.278 1.636.143zm-86.187 2.35c0 1.495-1.067 1.922-1.778.712-.497-.855.143-2.137 1.138-2.137.356 0 .64.641.64 1.425zm117.333 0c0 1.495-1.066 1.922-1.777.712-.498-.855.142-2.137 1.137-2.137.356 0 .64.641.64 1.425zm-151.893.996c.711 1.14 1.067 3.205.996 5.91-.071 4.771-.214 5.269-1.636 4.7-.853-.285-.995-1.424-.782-4.985.213-3.417 0-4.699-.711-4.984-1.28-.498-1.28-2.349 0-2.349.498 0 1.493.783 2.133 1.708zm6.969.641c-.071.997.142 1.994.569 2.279.569.356.498.783-.071 1.495-1.565 1.922.284 4.486 3.769 5.055l3.057.499-2.702.569c-3.271.712-5.262-.213-6.258-2.848-.924-2.421-.142-9.612.996-9.185.498.143.782 1.139.64 2.136zm22.613-1.637c.854.498.854.996.143 3.061-.498 1.282-.854 2.92-.854 3.632 0 .712-.355.996-.782.712-.427-.285-.64-1.424-.427-2.777.214-1.211.071-2.706-.213-3.204-1.138-1.78.213-2.706 2.133-1.424zm30.934.142c.142.498.355 3.275.497 6.052.214 4.486.072 5.198-.924 5.198s-1.209-.854-1.209-4.842c-.071-2.705-.142-5.198-.213-5.554-.285-1.78 1.28-2.492 1.849-.854zm6.897 1.566c.143.926 1.067 1.638 2.56 1.994 2.347.641 5.12 2.848 5.12 4.13 0 1.068-1.066.854-3.057-.712-.996-.783-2.56-1.424-3.485-1.424-2.204 0-3.413-1.282-3.413-3.56 0-3.276 1.707-3.561 2.275-.428zm21.832-.712c1.208 1.282 1.564 2.35 1.351 4.415-.285 3.703-1.991 4.13-1.991.498 0-1.566-.498-3.417-1.067-4.201-2.133-2.777-.782-3.346 1.707-.712zm8.035 4.344c.213 5.767-.142 6.906-1.92 6.337-.427-.214-.64-2.777-.569-6.124.142-7.049 0-6.265 1.209-6.265.782 0 1.067 1.424 1.28 6.052zm8.462 0c.356 5.625-.142 7.761-1.422 6.337-.355-.356-.782-3.275-.924-6.551-.214-4.913-.071-5.838.853-5.696.782.142 1.138 1.638 1.493 5.91zm33.778-3.632c.64 2.564 0 7.762-.924 8.118-.711.213-.925-.926-.925-4.059 0-2.35-.355-4.486-.711-4.699-1.067-.641-.142-1.78 1.067-1.282.64.214 1.28 1.068 1.493 1.922zm8.249-1.708c.427 0 .213.64-.569 1.495-1.209 1.353-1.351 1.353-2.204.213-1.067-1.424-.498-2.705.995-2.136.569.214 1.351.428 1.778.428zm35.698.854c1.209 1.709 1.635 10.182.569 10.823-1.423.854-2.134-.926-2.134-5.269.071-2.777-.284-4.7-.782-4.842-1.138-.356-.995-2.278.213-2.278.569 0 1.565.712 2.134 1.566zm63.289-1.139c.782.285.924.712.497 1.281-.355.428-.782 1.496-.924 2.421-.356 2.777-1.636 2.065-1.849-1.139-.213-2.99.142-3.418 2.276-2.563zm15.929 3.417c-.143 1.069-.854 1.567-2.347 1.709l-2.133.214 1.635-1.139c1.493-1.14 1.565-1.282.569-2.421-1.564-1.709-.498-2.492 1.138-.997.711.641 1.28 1.851 1.138 2.634zm14.72-2.705c.853.854 1.066 2.207.924 4.984-.284 5.055-1.564 4.984-1.849-.071-.142-2.136-.498-3.916-.853-3.916-.427 0-.711-.499-.711-1.068 0-1.425.995-1.353 2.489.071zm8.604-.356c.213.427.071 1.139-.356 1.566-.995.997-.995 8.117 0 8.758.569.356.427.712-.355 1.139-.64.356-1.493.428-1.849.214-.782-.498-.996-11.25-.213-11.962.711-.783 2.204-.57 2.773.285zm7.467 4.058c-.143 2.92.071 4.842.711 5.554.711.926.711 1.211-.142 1.78-1.849 1.14-2.276.214-2.347-4.77-.071-2.706-.356-5.483-.711-6.195-.498-1.139-.356-1.282 1.066-1.068 1.636.214 1.707.427 1.423 4.699zm8.32.214c.142 2.492.497 4.842.924 5.198 1.067 1.139.782 1.851-.782 1.851-1.28 0-1.422-.498-1.422-4.486 0-2.421-.285-4.913-.64-5.482-.783-1.211-.285-2.35.853-1.923.498.143.924 2.136 1.067 4.842zm16.497-.997c0 1.282-.355 1.638-1.92 1.638-1.777 0-1.777-.071-.64-1.353 1.067-1.139 1.067-1.424.072-2.207-.569-.499-.854-1.211-.64-1.567.711-1.068 3.128 1.638 3.128 3.489zm21.334-3.346c0 .356-.925.712-2.062.712-2.632 0-3.414 1.068-3.698 4.77-.142 2.136.142 3.418 1.066 4.415 1.352 1.495 1.352 1.495-.711 1.495h-2.062v-11.321l2.845-.285c1.564-.142 3.271-.285 3.768-.356.427-.071.854.142.854.57zm6.471-.214c.355 2.99.213 11.82-.213 12.033-.285.214-1.067.071-1.707-.285-.782-.427-.925-.783-.356-1.139.996-.641.996-7.761 0-8.758-.426-.427-.569-1.139-.355-1.566.569-.855 2.489-1.068 2.631-.285zm14.933.427c-.071.855-1.066.641-1.351-.285-.213-.427.071-.712.569-.569.427.213.782.569.782.854zm-345.458 1.353c.854 1.353.214 3.418-1.137 3.418-.569 0-.925-.926-.925-2.492 0-2.564.854-2.92 2.062-.926zm23.68 1.78c-.284 5.198.427 6.408 3.983 7.192l3.057.64-2.773.57c-2.631.498-2.987.356-4.907-1.78-1.848-2.065-2.062-2.706-1.635-5.483.427-3.417.853-4.485 1.778-4.485.355 0 .569 1.495.497 3.346zm8.463-.783c0 1.78-.285 2.065-2.134 2.278-1.777.143-1.92.072-.853-.569.64-.427 1.209-1.567 1.209-2.564 0-1.139.355-1.708.924-1.566.427.214.854 1.282.854 2.421zm142.862-.855c-.213.926-.071 1.923.427 2.208.568.356.568.783-.072 1.495-1.564 1.922.285 4.486 3.769 5.055l3.058.499-2.773.569c-3.485.712-5.76-.569-6.471-3.702-.64-3.062.213-7.832 1.493-7.832.711 0 .924.498.569 1.708zm8.462-.142c.853 1.353.213 3.418-1.138 3.418-.569 0-.924-.926-.924-2.492 0-2.564.853-2.92 2.062-.926zm4.765.214c.426 1.139 1.208 1.78 2.204 1.78 1.707 0 6.329 2.634 6.329 3.56 0 .356-.213 1.068-.427 1.709-.355.925-.782.712-2.418-.997-1.137-1.282-2.702-2.136-3.697-2.136-2.347 0-4.409-2.279-3.769-4.201.569-1.923.924-1.851 1.778.285zm21.191.498c-.143 1.424-.64 2.421-1.351 2.563-.854.143-.996-.356-.783-2.349.427-3.347 2.489-3.561 2.134-.214zm43.733-1.78c-1.493.57-1.138 6.835.498 8.972 1.92 2.42.498 3.275-1.778 1.068-1.351-1.282-1.778-2.35-1.778-4.771 0-3.133 1.494-5.839 3.129-5.696.427 0 .427.213-.071.427zm99.342 3.275c3.129.784 4.267 1.709 4.267 3.418 0 1.78-1.209 1.709-2.133-.071-.498-.926-1.494-1.424-2.703-1.424-2.346 0-3.697-1.139-3.697-3.204 0-2.208.995-2.92 1.422-.997.284 1.139 1.138 1.851 2.844 2.278zm-288.213.926c-.071 3.062.213 4.201 1.138 4.913 1.209.854 1.635 2.492.711 2.492-.285 0-1.209-.712-2.134-1.566-1.28-1.211-1.635-2.279-1.635-5.198 0-1.994.213-3.916.498-4.13 1.137-1.21 1.493-.214 1.422 3.489zm136.818-2.065c.071 1.139 0 2.706-.071 3.631-.143 2.35 1.066 3.489 4.48 4.13 2.702.499 2.844.57 1.208 1.068-2.986.855-3.982.712-5.902-.997-1.635-1.352-1.92-2.207-1.92-5.197 0-1.994.214-3.845.498-4.059.996-.997 1.636-.427 1.707 1.424zm21.262.855c0 1.495.427 2.136 1.564 2.42 1.28.356 1.351.57.569 1.567-.853 1.068-.995 1.068-1.706-.143-.356-.712-1.138-1.637-1.707-2.064-.711-.499-.925-1.353-.569-2.706.569-2.421 1.849-1.78 1.849.926zm116.124 5.553c.285.499 1.707 1.068 3.2 1.353 2.489.499 2.489.57.854 1.068-2.845.783-3.2.712-5.191-.997-1.636-1.352-1.92-2.207-1.92-5.269 0-5.055 1.635-5.553 2.133-.64.213 1.993.64 3.987.924 4.485zm-224.924-4.272c0 1.353.64 3.418 1.422 4.486 1.351 1.922 1.138 3.275-.427 2.278-2.488-1.708-3.84-6.052-2.702-8.971.711-1.851 1.707-.57 1.707 2.207zm124.658-1.353c.924.997.995 1.496.355 2.136-1.564 1.567.64 4.273 3.982 4.842l2.916.499-2.702.712c-1.991.498-2.987.427-3.84-.285-2.134-1.851-3.556-4.842-3.2-7.049.355-2.492.853-2.635 2.489-.855zm55.466 0c.925.997.996 1.496.356 2.136-1.565 1.567.64 4.273 3.982 4.842l2.916.499-2.774.712c-2.631.64-2.915.569-4.835-1.567-1.494-1.637-1.991-2.99-1.991-5.055 0-3.133.569-3.489 2.346-1.567zm-174.435 1.638c0 1.282-.142 1.353-1.067.641-1.067-.855-.853-2.136.427-2.136.355 0 .64.712.64 1.495zm-49.209.071c-.213.499-.782.926-1.28.926s-1.067-.427-1.209-.926c-.213-.498.284-.854 1.209-.854.924 0 1.422.356 1.28.854zm68.409-.142c.995.498 1.28 1.495 1.28 3.916 0 1.78-.285 3.346-.64 3.631-1.138.712-4.125-3.489-4.196-5.981 0-2.421 1.067-2.919 3.556-1.566zm6.4 1.068c0 .569-.498 1.068-1.138 1.068-.996 0-.996-.214-.284-1.068.497-.57.995-1.068 1.137-1.068.143 0 .285.498.285 1.068zm-107.876 2.492c.214.854.996 1.424 1.849 1.424 1.707 0 1.991 1.282.427 1.922-1.422.499-3.911-1.708-3.911-3.488 0-1.709 1.137-1.638 1.635.142zm-22.258 1.78c.783.926.569 1.068-1.351 1.068-2.133 0-2.773-.641-1.706-1.638.782-.783 2.133-.569 3.057.57zm117.334 0c.782.926.569 1.068-1.351 1.068-2.134 0-2.774-.641-1.707-1.638.782-.783 2.133-.569 3.058.57zm56.178.783c0 1.139-1.138 1.353-1.778.285-.569-.926.284-2.278 1.138-1.78.355.285.64.926.64 1.495zm43.591-.285c1.209.641 1.564 2.991.782 5.127-.782 1.994-1.707 1.211-1.707-1.353v-2.492h-4.266c-3.698 0-4.267-.214-4.267-1.282 0-1.139.498-1.281 4.124-.996 2.205.142 4.623.64 5.334.996zm-180.267-.071c-.142.427-.569.712-.924.712-.356 0-.783-.285-.925-.712-.142-.427.285-.783.925-.783.64 0 1.066.356.924.783zm94.791 2.136c.996.997 1.351 1.994 1.067 2.991-.214.854-.427 2.421-.427 3.56 0 1.424-.498 2.136-1.778 2.635-1.991.783-2.204 1.424-.924 2.705.995.997.64 1.496-1.565 1.709-2.346.285-2.631-1.709-.711-4.414 1.138-1.638 1.494-3.062 1.423-5.554-.285-5.768.142-6.409 2.915-3.632zm75.947 4.344c.071.712-.285 1.281-.64 1.281-1.138 0-1.636-1.922-1.067-4.129l.569-1.923.498 1.78c.355.997.569 2.35.64 2.991zm-135.538-1.496c2.916.784 5.191 3.489 4.48 5.341-.64 1.709-6.613.997-9.458-1.14-1.422-.996-2.773-1.495-3.769-1.21-2.844.712-6.115-1.638-4.48-3.275.711-.784 10.24-.57 13.227.284zm20.409 1.781c0 .64-.498.996-1.209.854-1.778-.356-1.991-1.994-.284-1.994.853 0 1.493.428 1.493 1.14zm-133.689 4.2c0 .214-1.067.784-2.418 1.353-1.849.784-2.915.784-4.978.143-3.911-1.211-3.057-1.851 2.418-1.851 2.774 0 4.978.142 4.978.355zm191.573 3.917c.711 2.421 1.067 4.557.783 4.841-.285.285-.712.072-.854-.427-.213-.569-1.778-.854-4.48-.854-5.191 0-6.4-.427-6.4-2.492 0-2.208 1.351-3.133 5.049-3.489 1.707-.214 3.2-.641 3.342-1.068.569-1.638 1.28-.641 2.56 3.489zm-179.911-2.92c.214.356.498 5.198.569 10.823.071 9.185 0 10.253-1.067 10.253-.64 0-1.208-.213-1.208-.569v-10.823c0-9.328.426-11.749 1.706-9.684zm89.316 3.204c0 1.353-.285 2.706-.711 2.92-.427.213-.711-.356-.711-1.353 0-.926-.214-2.207-.427-2.848-.285-.783-.071-1.139.711-1.139.853 0 1.138.64 1.138 2.42zm256.782-1.495c-.071.285-.071 1.211-.071 2.065 0 1.353-.142 1.424-.711.57-.925-1.424-.925-3.774.071-3.418.427.142.711.498.711.783zm-333.156 1.353c-.213.926-.426 1.923-.426 2.207 0 .285-1.209.356-2.631.072-5.334-.926-6.827-2.849-1.991-2.564 1.28.071 2.56-.142 2.844-.569.213-.356.924-.712 1.564-.712.783 0 .996.427.64 1.566zm174.72.641c-1.208 1.21-2.631.071-1.564-1.211.569-.712 1.067-.854 1.636-.284.497.498.497.925-.072 1.495zm-196.124 2.777c-.213.712.071 1.709.569 2.278.853.784.853 1.14 0 1.852-.498.498-.925 2.349-.925 4.343 0 2.777.285 3.703 1.636 4.557 1.422.997 1.422 1.139.284 1.566-2.275.926-3.342-.925-3.342-5.767 0-2.563-.284-4.557-.711-4.557-.355 0-.711-.498-.711-1.068 0-.57.356-1.068.711-1.068.427 0 .711-.783.711-1.638 0-.925.214-1.922.427-2.136.853-.854 1.778.285 1.351 1.638zm40.462-1.567c.569.926.64 5.056.071 9.186-.355 3.204-.284 3.845 1.138 5.126 1.422 1.282 1.422 1.495.427 1.923-2.631.997-3.342-.143-3.342-5.269 0-2.92-.356-5.198-.854-5.768-.711-.783-.711-.997 0-1.281.427-.214.854-1.282.854-2.421 0-1.994.924-2.777 1.706-1.496zm192.427 1.923c0 1.282.498 1.851 1.991 2.278l1.92.499-1.778.427c-1.635.356-1.778.783-1.991 4.486-.213 3.845-.142 4.13 1.778 4.842l1.991.783-1.636.783c-2.631 1.211-3.982-.783-4.124-6.052-.142-5.412.356-9.826 1.209-9.826.355 0 .64.783.64 1.78zm-134.969 4.201c-.142 1.424-.498 3.346-.853 4.201-.427 1.139-.64.427-.64-2.919-.071-3.347.142-4.486.853-4.201.498.142.782 1.281.64 2.919zm44.942-.855c-.213.285-1.138.356-2.062.143-1.564-.356-1.707-.143-2.204 2.99-.285 1.994-.214 4.273.213 5.341.853 2.136-.142 3.133-2.276 2.349-.782-.356-.853-.712-.284-1.851.427-.783.64-3.418.498-5.839l-.214-4.343h2.276c1.28-.071 2.489-.285 2.773-.57.64-.641 1.778.997 1.28 1.78zm212.622 1.353c-2.062 4.059-.284 8.402 3.485 8.545 1.493.071 1.422.071-.285.712-2.488.925-5.973-.356-5.333-1.923.213-.641.427-3.346.427-6.052 0-4.699.071-4.913 1.351-4.059 1.28.784 1.28.997.355 2.777zm-383.573-2.421c.427 12.817.427 13.031-1.849 11.749-.782-.427-.924-.783-.355-1.139 1.066-.712 1.066-8.758-.071-9.114-.427-.143-.569-.712-.285-1.14.569-.925 2.56-1.21 2.56-.356zm7.111 1.923c0 1.282.498 1.78 2.276 2.136 2.275.427 4.835 2.278 4.835 3.418 0 .997-2.702.641-3.129-.499-.213-.569-1.137-1.068-2.133-1.068-3.058 0-3.982-.712-3.982-3.133 0-1.281.213-2.563.427-2.777.853-.783 1.706.214 1.706 1.923zm38.756 1.638c.213 2.278.569 5.055.711 6.123.284 1.78.142 1.994-1.209 1.78-1.422-.214-1.564-.57-1.351-4.557.071-2.563-.142-4.628-.569-4.913-1.28-.783-.853-2.492.569-2.492 1.138 0 1.493.641 1.849 4.059zm14.649 2.064c.213 3.062.071 5.91-.214 6.266-1.209 1.424-1.92-.783-1.991-5.981-.142-6.764-.142-6.55.925-6.266.497.214.995 2.35 1.28 5.981zm44.586-.783c.143 2.706.569 5.34.996 5.839.569.712.355.925-1.138.925h-1.849v-6.123c0-4.557.214-6.052.925-5.839.497.214.924 2.136 1.066 5.198zm14.436-4.414c-.071.854-1.067.64-1.351-.285-.214-.427.071-.712.569-.57.426.214.782.57.782.855zm14.72-.072c.355.499.853 3.347.924 6.266.214 4.344.071 5.34-.782 5.34s-1.138-1.068-1.28-4.77c-.142-3.062-.569-5.056-1.209-5.554-.569-.498-1.066-1.139-1.066-1.495 0-.997 2.56-.783 3.413.213zm25.102 2.849c.711 2.278.782 2.99.071 3.275-.498.142-.853.854-.853 1.495 0 1.495-.711 2.279-1.493 1.78-.356-.142-.214-1.139.213-2.065.569-1.281.498-2.349-.356-4.485-.64-1.567-.924-2.991-.711-3.205.854-.925 2.205.499 3.129 3.205zm25.956-2.92c.213.427.142.997-.285 1.282-.355.213-.853 1.139-.924 2.065-.498 2.777-1.707 2.065-1.92-1.14-.214-2.563 0-2.99 1.209-2.99.782 0 1.635.356 1.92.783zm13.653 4.557c.142 2.706.569 5.34 1.067 5.91.64.783.426.926-.925.712-1.564-.214-1.778-.57-1.564-2.634.071-1.282-.142-2.777-.569-3.276-.498-.641-.569-1.068-.071-1.353.426-.284.569-1.495.284-2.705-.355-1.709-.213-2.136.569-1.852.711.214 1.067 1.78 1.209 5.198zm8.533.855c-.142 4.984-.426 6.265-1.28 6.265-.853 0-.995-.925-.853-5.055.213-3.418 0-5.269-.569-5.625-.64-.427-.64-.712.071-1.139 2.489-1.567 2.845-.783 2.631 5.554zm8.676-1.282c0 2.706.213 5.483.427 6.123.355.784 0 1.282-1.067 1.567-.782.214-1.493.783-1.493 1.282 0 .64 1.635 1.068 4.977 1.424 5.476.569 5.049.071 5.405 6.764.142 4.272 2.133 11.464 3.271 12.176.498.356 1.635.64 2.418.64.853 0 1.92.428 2.346.997.498.57 1.636 1.211 2.56 1.424 2.703.712 2.063 1.852-.995 1.852-1.636 0-3.414-.57-4.551-1.424-2.276-1.852-2.774-1.78-4.765.356-2.346 2.563-4.338 2.349-4.124-.285.284-2.706-.925-2.991-2.134-.57-1.066 2.207-4.977 3.632-7.964 2.991-2.489-.57-2.418-.356-1.067-2.92.569-1.139 1.067-2.919 1.067-3.987 0-2.706-3.2-5.554-6.329-5.554-2.133 0-2.347-.142-1.849-1.638.285-.854.64-3.417.854-5.696.426-4.486 1.493-5.482 5.831-5.482 3.342 0 4.337-1.852 4.551-8.758.142-5.341.284-6.195 1.422-6.195.996 0 1.209.712 1.209 4.913zm8.178 1.495c0 4.913-.214 6.052-1.067 6.052s-1.067-.996-1.067-4.984c0-2.777-.213-5.34-.497-5.767-.712-.997.142-1.851 1.564-1.567.853.214 1.067 1.353 1.067 6.266zm15.289-5.981c0 .712-4.409 6.195-5.903 7.476-.853.713-1.28 1.638-.995 2.35.569 1.424-2.134 3.062-3.271 1.923-.498-.499.071-1.567 1.849-3.56 1.422-1.567 3.413-4.13 4.48-5.768 1.635-2.421 3.84-3.845 3.84-2.421zm13.368 1.495c1.209 3.062 1.494 10.182.498 10.182-1.778 0-2.631-1.922-1.635-3.56.782-1.281.782-1.637-.427-2.278-1.351-.783-1.351-.783 0-1.78 1.28-.926 1.28-1.068.142-1.923-1.493-1.139-1.706-2.563-.284-2.563.498 0 1.28.854 1.706 1.922zm18.489 4.059c.214 5.981-.355 7.405-2.346 6.266-.854-.427-.996-.783-.427-1.139.996-.641.996-7.762 0-8.758-1.067-1.068-.142-2.492 1.351-2.208.996.214 1.28 1.282 1.422 5.839zm16.071-4.628c.854.997 1.138 2.278.996 4.77-.284 4.7-1.991 5.127-1.991.428 0-2.279-.356-3.845-1.067-4.415-.995-.854-.853-2.136.285-2.136.284 0 1.137.641 1.777 1.353zm7.752 5.055c0 5.34-.143 6.052-1.28 6.052-1.138 0-1.28-.64-1.209-6.052.071-3.346.071-6.123.142-6.266 0-.142.498-.142 1.138 0 .995.143 1.209 1.211 1.209 6.266zm8.177-1.424c.143 2.563.569 4.984.996 5.554.64.712.569 1.139-.142 1.566-1.707 1.069-2.134.072-2.134-4.485 0-2.421-.284-4.913-.64-5.483-.782-1.21-.284-2.35.854-1.922.497.142.924 2.136 1.066 4.77zm16.925-4.201c.213.427-.071 1.282-.711 1.923-1.067 1.068-1.209 1.068-2.276 0-1.351-1.353-.782-2.706 1.138-2.706.711 0 1.564.356 1.849.783zm7.182 0c.711.712.498 3.489-.284 3.489-.712 0-2.916-3.204-2.56-3.702.426-.784 1.92-.712 2.844.213zm8.249.855c1.067 1.708 1.991 10.466 1.067 10.466h-1.209c-.356 0-.498-1.922-.285-4.343.356-3.845.285-4.415-1.138-5.34-.782-.57-1.493-1.353-1.493-1.78 0-1.282 1.991-.641 3.058.997zm23.893-.997c.711.427.711.712.071 1.139-.569.356-.782 2.207-.569 5.625.214 4.557.072 5.055-1.137 5.055s-1.351-.569-1.28-5.909c0-3.205.071-5.981.071-6.195.071-.57 1.778-.427 2.844.285zm7.894 0c1.28.356 1.493.641.853 1.068-.711.427-.925 1.994-.711 5.696.213 4.984.071 5.269-2.062 4.842-.356-.071-.427-2.279-.356-4.842.213-3.702 0-4.984-.996-6.052-1.137-1.282-1.137-1.353.143-1.282.711.071 2.133.285 3.129.57zm8.604 5.411c.213 3.133.142 5.981-.142 6.337-1.209 1.424-2.062-.712-2.062-5.269 0-2.705-.285-5.126-.712-5.34-1.28-.783-.711-1.851.925-1.638 1.422.214 1.564.712 1.991 5.91zm15.858-4.913c1.138 1.068 1.493 4.913.711 6.978-.782 1.994-1.707.427-1.707-2.777 0-2.065-.355-3.204-1.066-3.489-.569-.213-1.067-.712-1.067-1.139 0-1.068 1.92-.854 3.129.427zm15.644 3.347c-.213.641-1.066 1.21-1.778 1.21-1.137 0-1.28-.213-.64-1.353.498-.925.498-1.566 0-1.851-.355-.214-.711-.997-.711-1.638 0-.925.356-.783 1.778.641 1.209 1.139 1.707 2.208 1.351 2.991zm7.04 1.922c0 5.34-.142 6.052-1.28 6.052-1.138 0-1.28-.712-1.209-5.909 0-3.205.071-6.053.071-6.266.072-.214.569-.285 1.209-.143.996.143 1.209 1.211 1.209 6.266zm4.054-5.696c0 .356-.498.712-1.067.712s-1.067-.356-1.067-.712c0-.427.498-.712 1.067-.712s1.067.285 1.067.712zm-334.863 2.278c.214 7.762-.071 7.263 3.84 8.118l3.556.712-3.129.569c-2.631.428-3.342.214-4.764-1.068-1.423-1.353-1.707-2.349-1.707-5.625 0-2.207.213-4.272.498-4.486.995-1.068 1.635-.356 1.706 1.78zm8.32.428c.214 1.922 0 2.278-1.28 2.278-1.137 0-1.422-.285-1.137-1.139.213-.641.426-1.78.426-2.563 0-2.279 1.778-1.068 1.991 1.424zm57.316-1.638c-.285.57-.711 1.068-1.067 1.068-.355 0-.64-.498-.64-1.068 0-.57.498-1.068 1.067-1.068.64 0 .853.427.64 1.068zm194.204 2.635c-.284 4.984.498 6.123 4.125 6.764l2.986.498-2.702.57c-1.635.356-3.271.285-4.124-.143-2.56-1.424-4.551-7.12-2.774-8.188.427-.213.712-1.068.712-1.851 0-.712.426-1.353.995-1.353.711 0 .925.926.782 3.703zm8.391-2.208c.996 1.638.143 3.489-1.635 3.489-1.28 0-1.351-.213-.711-1.495.64-1.068.569-1.709-.071-2.563-.783-.926-.783-1.068.355-.855.711.143 1.636.783 2.062 1.424zm47.005-.427c-.285.57-.711 1.068-1.067 1.068-.355 0-.64-.498-.64-1.068 0-.57.498-1.068 1.067-1.068.64 0 .853.427.64 1.068zm-121.173 3.489c0 2.492.355 4.13 1.066 4.699 1.067.926 1.494 2.849.569 2.849-.284 0-1.209-.713-2.133-1.567-2.276-2.136-2.418-9.826-.071-9.826.284 0 .569 1.709.569 3.845zm-166.4-.641c0 3.703 1.706 5.839 5.048 6.408 3.343.57 3.343.712-.284 1.353-2.347.428-2.916.214-4.764-1.637-1.636-1.638-2.134-2.777-2.134-4.913 0-1.496.214-2.991.498-3.205 1.067-1.068 1.636-.356 1.636 1.994zm64-.213c0 2.136-.072 2.207-1.138 1.139-.64-.641-.996-1.709-.782-2.279.782-1.922 1.92-1.21 1.92 1.14zm-27.734.783c0 .854.782 2.777 1.778 4.272 1.778 2.563 1.778 2.634.356 2.634-1.707 0-4.338-4.984-3.769-7.191.497-1.851 1.635-1.709 1.635.285zm250.596-1.211c1.28.499 1.493 2.208.355 2.564-.497.142-.497.854.143 2.136.64 1.424 1.564 1.993 3.768 2.421l2.916.498-2.133.57c-1.138.356-2.703.427-3.343.213-1.92-.569-4.124-4.201-4.124-6.622 0-2.207.427-2.563 2.418-1.78zm-186.169 1.994c.569 2.421.071 4.343-1.138 4.343-1.138 0-1.849-3.204-1.138-5.055.569-1.566 1.778-1.21 2.276.712zm7.182 2.706c-.142.925-.284.213-.284-1.567s.142-2.492.284-1.637c.142.925.142 2.349 0 3.204zm-41.884-.356c-.214 1.922-.071 1.993 3.342 2.349 4.338.428 5.333 1.068 5.333 3.062 0 2.421-.782 4.771-1.564 4.771-.427 0-.498-.499-.285-1.139.214-.57.214-1.852 0-2.849-.426-1.566-.782-1.708-4.693-1.708h-4.267l.427-2.208c.213-1.21.427-2.706.427-3.204 0-.57.355-.997.711-.997.426 0 .64.855.569 1.923zm68.409-.071c0 1.068.568 2.349 1.28 2.848 1.137.854 1.137.925-.072 1.352-.64.285-1.706.143-2.275-.356-1.067-.925-1.493-4.343-.569-5.197.924-.997 1.636-.428 1.636 1.353zm-193.92.284c-.285 1.068.142 1.567 1.635 2.136 1.493.57 1.778.926 1.067 1.638-1.565 1.567-4.978-1.78-4.125-4.058.64-1.638 1.849-1.425 1.423.284zm48.426 2.92c.854.783-1.351 1.637-2.773 1.068-.569-.214-1.067-.926-1.067-1.496 0-.854.427-1.068 1.636-.712.853.285 1.849.784 2.204 1.14zm25.814-.356c.355 1.068-1.423 1.709-2.632.996-.497-.284-.64-.925-.355-1.352.569-.997 2.631-.784 2.987.356zm68.053.356c.853.783-1.351 1.637-2.773 1.068-.569-.214-1.067-.926-1.067-1.496 0-.854.427-1.068 1.635-.712.854.285 1.849.784 2.205 1.14zm125.369-.356c.355 1.068-1.422 1.709-2.631.996-.498-.284-.64-.925-.356-1.352.569-.997 2.631-.784 2.987.356zm8.604.071c.142.569-.355.925-1.209.925-.853 0-1.493-.427-1.493-1.139 0-1.281 2.204-1.068 2.702.214zm-89.244.997c-.427.427-1.28.427-1.991.213-1.28-.498-1.28-.569.071-.997 1.635-.64 2.773-.071 1.92.784zm-169.387 3.489c2.276 0 3.698.64 6.898 3.133 4.835 3.631 8.035 5.411 10.098 5.411.782 0 2.986.783 4.835 1.709 4.338 2.136 7.609 3.204 11.236 3.56 1.564.142 4.48 1.068 6.4 2.065 1.991.997 6.115 2.492 9.102 3.275 3.058.712 6.044 1.852 6.684 2.421.64.57 1.849 1.211 2.632 1.495 1.137.428 1.208.641.355 1.14-1.28.783-29.653.854-43.733.071-9.529-.499-10.169-.641-14.222-2.919-2.347-1.353-4.694-2.849-5.192-3.347-.497-.498-1.422-.926-1.991-.926-.569 0-2.204-1.139-3.769-2.492-1.493-1.353-3.057-2.492-3.413-2.492-.427 0-1.991-1.353-3.555-3.062-1.494-1.637-3.414-3.346-4.125-3.773-1.209-.641-1.138-.855.782-2.991 1.991-2.278 2.276-2.35 8.747-2.563 3.627-.214 6.969-.641 7.396-1.068.568-.57.924-.499 1.422.285.355.64 1.635 1.068 3.413 1.068zm105.885 1.993c0 1.068-.356 1.567-.854 1.424-1.138-.427-1.564-2.349-.924-3.987.355-.997.498-.997 1.066-.142.427.569.712 1.78.712 2.705zm17.635-1.139c.498.499.853 1.495.853 2.279 0 1.281-.071 1.352-1.422.071-1.422-1.282-1.92-3.204-.853-3.204.284 0 .924.356 1.422.854zm-190.862.997c.64 1.638.498 5.483-.213 6.622-.925 1.495-1.494-.071-1.28-4.13.142-3.631.711-4.557 1.493-2.492zm243.484 5.055c-.711.143-1.991.143-2.844 0-.925-.142-.356-.284 1.209-.284 1.564-.072 2.275.071 1.635.284zm32.64 4.273c-1.422.142-3.697.142-4.977 0-1.209-.143 0-.285 2.702-.285 2.773 0 3.769.142 2.275.285zm18.205 2.492c-1.067.498-2.845.498-5.689.071l-4.125-.712 5.689-.071c4.48-.072 5.334.142 4.125.712zm15.075 1.21l2.845.499-2.987.569c-3.555.641-10.098-.142-8.675-1.068 1.208-.783 4.977-.783 8.817 0zm21.263 2.919c.64.712-.854.784-6.614.499-4.338-.214-7.68-.712-8.178-1.211-.64-.712.854-.783 6.614-.498 4.338.214 7.68.712 8.178 1.21zm11.377 1.14c2.205.356 3.058.712 2.418 1.068-1.778 1.21-11.947.427-11.947-.855 0-.783 4.836-.854 9.529-.213zm-100.337 5.055c-.925.143-2.347.143-3.2 0-.925-.142-.214-.285 1.564-.285s2.489.143 1.636.285zm-89.032-258.254c-4.835.712-6.4 1.567-8.462 4.628-2.346 3.347-1.849 4.842 1.849 5.554 1.707.356 3.271 1.068 3.485 1.709.711 1.78 3.2 2.279 5.902 1.139 1.635-.64 2.56-.712 2.702-.213.853 2.563 6.187-2.207 6.756-6.124.426-2.421.213-3.133-1.138-4.272-1.778-1.638-5.12-3.204-6.4-3.062-.498.072-2.56.356-4.694.641zm4.978 6.195c2.276 1.353 2.774 3.774.854 3.774-.712 0-2.845-.428-4.765-.926l-3.484-.926 1.991-1.566c2.346-1.851 2.773-1.923 5.404-.356zm-28.444 18.299c-1.209 1.424 0 3.988 3.413 7.049 3.342 2.991 4.978 3.276 6.898 1.14.711-.855 2.418-1.994 3.698-2.564 1.849-.783 2.346-1.353 2.133-2.563-.213-1.424-.569-1.567-4.053-1.353-3.058.142-4.338-.142-5.831-1.282-2.276-1.637-5.049-1.851-6.258-.427zm-6.827 11.179c-1.138.356-2.56.498-3.058.285-.711-.285-.569.285.356 1.851.782 1.424 2.275 2.635 3.84 3.204 3.627 1.211 15.787 1.994 22.329 1.353 4.978-.427 5.404-.569 5.191-1.994-.213-1.424-.925-1.637-11.591-2.705-6.258-.641-12.16-1.496-13.156-1.852-1.066-.427-2.631-.498-3.911-.142zm5.333 10.609c0 .428 1.067 1.353 2.347 2.136 3.485 2.136 12.587 1.709 12.587-.64 0-.285-2.845-.926-6.329-1.353-7.68-1.068-8.605-1.068-8.605-.143zm-61.44 50.911c.996.996 2.205 1.566 2.845 1.281.569-.213 1.493.214 2.133.926.996 1.282 1.067 1.282.854-.071-.143-.855-.854-1.496-1.778-1.638-.854-.142-1.92-.712-2.347-1.282-.498-.569-1.493-.997-2.204-.997-1.138 0-1.067.214.497 1.781zm-17.137 15.664c-1.351 1.068-1.351 1.068.711.926 1.209-.143 2.062-.499 1.991-.926-.213-1.139-1.28-1.139-2.702 0zm-125.369 31.828c.498 1.353 2.702 1.567 2.702.285 0-.712-.64-1.139-1.493-1.139-.854 0-1.351.356-1.209.854zm12.089.356c.142.712.924 1.353 1.849 1.495 1.208.214 1.564-.142 1.564-1.21 0-1.139-.427-1.495-1.849-1.495-1.351 0-1.778.356-1.564 1.21zm-15.645 8.9c-1.209 1.211-1.066 2.706.214 2.706.568 0 1.066-.285 1.066-.641 0-.356.214-1.139.427-1.78.498-1.353-.498-1.495-1.707-.285zm17.494 2.493c-1.352.356-1.707 1.993-.569 2.705.924.57 3.697-.997 3.342-1.993-.285-.926-1.138-1.14-2.773-.712z" fill="#C12319"/></svg>