<svg version="1" xmlns="http://www.w3.org/2000/svg" viewBox="0 0 300 472"><g fill="#FF7F50"><path d="M50 1.25c0 .9 1.1 1.4 3.05 1.4 3.7 0 3.4-2-.4-2.45-1.75-.25-2.65.15-2.65 1.05zM89.25 1.55c-1.65 1.8-1.6 2.15.75 2.75 2.05.5 2.6-.8 1.25-2.95-.55-.8-1.1-.75-2 .2zM211.45 4.65c.4 2.5 1 5.3 1.3 6.15.5 1.35.25 1.35-1.8-.1-2.55-1.8-8.45-2.3-9.35-.8-.3.45.8 1.15 2.45 1.45 3.35.7 7.95 5.05 7.95 7.55 0 1.4-2 1.6-16 1.6-15.05 0-18.65-.5-14-2 2.05-.65 2.8-2.5 1.05-2.5-.55 0-3.3.95-6.2 2.05-4.85 1.95-7.65 2.1-42.3 2.4-20.35.15-43.5.35-51.35.45-8.25.05-14.1.5-13.75 1 .3.55 20.45.7 48.7.35l48.2-.55-2.65 3.5c-3 3.9-4.25 8.5-3.3 12.25.8 3.2 9.95 12.55 12.3 12.55 1 0 3.05.65 4.55 1.45 1.7.85 4.1 1.2 6.25.85 3.45-.55 3.5-.55 3.5 3.15s4.3 12.55 6.1 12.55l1.6.05c.35.05 1.9-3.2 3.35-7.25 3.25-8.85 6.1-11.25 10.35-8.45 3.1 2 3.15 2.9.65 12.6-1.1 4.1-1.8 7.65-1.6 7.85 1 1 9.05-2.3 12.05-4.95l3.5-3.05 2.75 1.85c1.5 1 4 2.3 5.5 2.85 1.55.6 3.5 2.5 4.5 4.5 2.35 4.6 7.55 8 12.4 8h3.85l-2 2c-2.05 2.05-2.6 6.5-1.1 8.85.8 1.25 1.9-.95 4.45-8.85.25-.85.55-.3.55 1.2.1 2.4 2.4 4.8 4.6 4.8 1.1 0-.7-4.45-2.15-5.3-2.15-1.25-1.6-3.15 1.65-5.55 1.65-1.2 3-3.1 3-4.2 0-1.05.6-1.95 1.35-1.95 1.25 0 7.65 2 7.65 2.35 0 .1.4 1.55.9 3.25 1 3.55-1.2 9.4-3.5 9.4-1.8 0-9.4 6.85-9.4 8.5 0 2.55-4.5 4.55-6.7 3-1.1-.75-4.3-1.7-7.1-2.05-5.4-.75-8.3-2.65-6.1-4 .75-.5.95-.35.5.4-.45.75.05 1.15 1.4 1.15 2.95 0 2.25-3.45-.75-3.6-4.05-.2-4.65 2.05-1.7 6.5 3 4.55 8.85 7 12.3 5.2 3.45-1.9 5.8-1 5.35 2-.6 4 1.5 9.45 4.85 12.65 2.25 2.05 2.95 3.65 2.95 6.45 0 2 .45 3.95 1 4.3.65.4.45 1.4-.5 2.8-2.2 3.15-1.85 4.5 1.75 6.7 5.45 3.35 6.7 2.8 5.55-2.55-1.2-5.6.1-7.7 4.6-7.25 2.7.25 3.2.8 3.95 4.3.5 2.2 2.1 6.7 3.6 10l2.75 6 .15 45c.2 75 1.4 212.95 1.8 213.45.2.2.25-53.2.1-118.75s.1-119.2.5-119.2.75 53.55.75 119c0 78.65.35 119 1 119s1-39.8 1-117.4v-117.45l3.5 1c4.45 1.2 5.55.5 5.35-3.45-.1-2.2-.25-2.55-.55-1.05-.85 4.3-6.8 3.6-7.75-.95-2.45-11.2 1.05-21.5 5.7-16.85 1.95 1.95 2.3 1.35 2.55-4 .2-5.3-1.55-8.85-4.45-8.85-2.15 0-1.55 2.25 1.2 4.45 3.5 2.8 2.45 5.55-2.05 5.55h-3.35l-.3-12.25-.35-12.25 4.75-4.55c3.9-3.75 4.75-5.15 4.7-8l-.05-3.45-1.7 2.45c-6 8.65-8.75 10.15-7.7 4.15.4-2.4.25-4.15-.45-4.55-.7-.45-1.05 1.2-1.05 4.9 0 9-1.7 6.35-2.4-3.7-1.2-17.15-1.2-16.95.5-18.05 3.25-2.05 6.45 0 9.1 5.75 3.1 6.9 3.8 6.25 3.8-3.6 0-8.5-.85-9.8-7.3-11.4l-2.8-.7.65-8.75c.7-8.95.15-13-1.75-13-.75 0-.9 3.4-.5 11 .35 6.7.2 10.8-.35 10.45-.55-.3-1.05-5.15-1.15-10.75l-.2-10.2-.55 9.4c-.5 8.55-.7 9.25-2.05 7.6-2.1-2.55-6.65-4.25-14.6-5.45-10.75-1.65-15.25-3.25-19.1-6.8-4.35-3.95-4.05-4.6 1.35-2.75 10.6 3.65 21.5 2.7 29.35-2.5 2.5-1.65 5.5-3 6.75-3 1.8 0 2.25-.55 2.25-2.95 0-1.6.5-3.25 1.1-3.6 2.65-1.65 4.85-9.05 4.85-16.45.05-28.3-34.7-41.15-55.4-20.5-2.65 2.65-4.1 3.4-5.8 3-1.25-.35-5.1.35-8.65 1.45-7.55 2.45-7.1 2.4-7.1.7 0-.75-.9-2.5-2-3.9s-2-3.5-2-4.7c0-1.15.9-3.9 2-6.05 2.6-5.1 2.65-5-2.1-5h-4.15l.7 4.65zm1.55 19.75c0 1.3-.65 2.9-1.5 3.6-.8.7-1.55 1.75-1.55 2.35-.1 1.4-7.35 6.8-12.85 9.6-2.2 1.1-4.25 2.5-4.6 3.05-1.15 1.85-2.5 1.05-2.5-1.55 0-2.45 2.45-5.5 6.55-8.25 1.75-1.15 1.6-1.2-1.4-.75-7.85 1.25-12.25 7.7-8.2 12 3.8 4.05 1.05 7.65-3.9 5.1-10.2-5.3-13.65-18-6.9-25.2 2.15-2.3 2.65-2.35 19.5-2.35h17.35v2.4zm9-.35c0 1.15.45 2.95 1.05 4.05 1.25 2.35.25 4.6-1.35 3-.6-.6-3.15-1.15-5.65-1.2-2.5 0-4-.3-3.35-.55.7-.25 2.2-2.05 3.35-3.9 2.4-3.9 5.95-4.7 5.95-1.4zm13-1.05c0 .55-.45 1-1 1-.6 0-2.85 1.15-5 2.5l-4 2.55v-2.85c0-1.6.3-3.15.65-3.55 1.1-1.05 9.35-.75 9.35.35zm39.85 4.15c12.1 10.45 9.45 24.75-5.2 28.25-12.3 2.95-23.45-17.9-14.8-27.8 4.8-5.45 13.95-5.7 20-.45zm-57.15 6.95c1 1 .55 3.35-1.25 6.65-.1.15-1.75-.4-3.75-1.25-2-.8-4.85-1.5-6.35-1.5-3.1 0-2.45-1.05 2.15-3.45 3.55-1.8 7.65-2 9.2-.45zm12.1 4.05c.2 1.85-.65 3.75-2.85 6.25l-3.15 3.6-1.8-2.25c-1.95-2.4-1.7-3.8 1.4-8.05 2.6-3.55 5.95-3.3 6.4.45zm3.2 2.95c0 3.95 2.5 9.8 5.6 13l2.5 2.65-3.05 3.05c-1.7 1.7-3.35 4.45-3.7 6.15-.7 3.45-.7 3.45-3.65 1.95-7.4-3.85-8.5-13.05-2.55-21.3 1.6-2.15 2.85-5.2 2.85-6.8 0-1.7.4-2.65 1-2.3.55.35 1 1.95 1 3.6zm10.8 19.5c.15 1.05.85 2.95 1.45 4.25 1.45 2.9-.95 5.15-5.55 5.15-2.85 0-2.9-.1-2.25-3.75 1.3-6.95 5.55-10.75 6.35-5.65zm12.4 11.4c5.9 0-.35 7.8-7 8.7-3.75.5-4.5.2-7.65-2.95-5-5-4.7-6.75 1-6.75 3 0 4.7-.5 5.05-1.45.45-1.2 1.1-1.1 3.75.5 1.7 1.05 3.9 1.95 4.85 1.95zm25.7 8.45l3.35 3.35-2.35 1.25c-4.55 2.45-10.8 1.85-9.8-.85 1-2.55.25-6.9-1.45-9.05-2.15-2.75 6.8 1.9 10.25 5.3zm-4.8 9.55c-1.9 7.2-.5 12.2 4.15 14.65l2.95 1.5-2.2 2.4c-3.05 3.2-7.45 4.05-10.55 2-3.2-2.1-3.1-5.25.25-8.75 2.3-2.45 2.45-2.8.8-2.8-5.25 0-7.45 7.9-3.25 11.7 4.5 4.1 12.9 3.35 15.6-1.35.85-1.45 1.1-.4 1.1 4.9.05 6.45-.9 8.35-2.65 5.4-2.2-3.75-10.15-4.8-15.45-2.05-2.9 1.5-3.15 1.45-5.55-.75-7.55-7.1-7.15-16.5.95-21.25 2.4-1.4 5.45-3.7 6.8-5.15 2.65-2.85 7.75-3.15 7.05-.45zm3.45 30.05c4.8 1.8.4 2.7-7.55 1.55-1.35-.2-2.95-.4-3.5-.5-.55-.05-.3-.55.5-1.1 1.95-1.25 7.2-1.25 10.55.05zm-11.7 2.85c1.05.65.9 1.25-.9 2.95-3.2 3-5.85.45-2.75-2.65 1.4-1.4 1.85-1.45 3.65-.3zm20.15 12.2c0 8.7-.3 11.8-1.15 11.3-.75-.45-.95-3.25-.55-8.6.45-7.05.3-8.1-1.5-9.8-2.4-2.25-1.9-4.5 1.1-4.7 2.05-.15 2.1.2 2.1 11.8zm-3.05 5.15l-.05 4.25-1.45-3.45c-1.35-3.1-.9-4.9 1.3-5.05.15 0 .25 1.9.2 4.25zM183.5 24.1c-2.2.35 2.5.7 10.4.75 7.95.1 14.15-.15 13.8-.45-.8-.85-19.25-1.05-24.2-.3zM54.45 14.5c-.25.8-.65 2.15-.9 3-.7 2.15-7.8 1.95-12.35-.4-11.05-5.6-20.25.7-20.6 14.15-.05 2.05-.45 3.75-.85 3.75h-1.35c-.35 0-.1-.7.6-1.5 1-1.25.95-1.5-.45-1.5-1.15 0-1.6.7-1.45 2.25.1 1.25-.15 3-.55 3.95-1.15 2.65-.25 5.2 2.2 6.3 1.9.85 2.25 1.75 2.25 6.15 0 6.5.7 8.35 3.15 8.35 2.3 0 3.55-2.7 2-4.25-3-3 .95-8.45 5.75-7.9 4.15.4 5.6-1.95 3.1-5.15-1.15-1.4-1.6-2.8-1.1-3.15 1.65-1 1.15-11.25-.65-12.75-1.3-1.1 1.25-1.4 15.75-1.8 19.85-.55 20.45-.9 12.9-6.9-5.65-4.5-6.7-4.85-7.45-2.6zm3.15 1.65c1.05 1.7-3.3 4.85-6.45 4.75-2.35-.1-2.3-.2.7-.9 3.45-.8 6.65-3 4.35-3-.65 0-1.2-.45-1.2-1 0-1.35 1.7-1.25 2.6.15zm-17.6 1.85c1.05.7.55.8-1.8.35-3.5-.65-8.2 2.45-8.2 5.4 0 2.25-2.4.85-3.1-1.8-.55-1.95-.7-1.6-.8 1.7-.1 4.6 2.1 7.55 4.15 5.5 1.95-1.95 3.9-1.35 3.55 1.1-.35 2.6-4.1 3.6-6.35 1.7-4.25-3.5-3.85-14.3.45-12 1.4.75 2.3.5 3.65-1 1.9-2.1 6-2.55 8.45-.95zm21.65 1c.8 0 1.2.45.85 1s-1.7 1-3.05 1c-2.2 0-2.35-.2-1.2-2 .7-1.1 1.4-1.55 1.6-1 .15.55 1 1 1.8 1zm-20.4 3.7c-1.8.25-4.7.25-6.5 0-1.8-.2-.3-.4 3.25-.4 3.6 0 5.05.2 3.25.4zm-10.45 12.65c1.8-.1 3.15.3 3 .8-.2.55-.6.85-.9.65-.35-.15-1.35.35-2.3 1.1-1.45 1.2-2 1.1-4.4-1l-2.7-2.4 2.4 2.75c1.35 1.5 3.4 2.75 4.6 2.75 1.4 0 2.65 1 3.4 2.75 1.25 2.7 1.25 2.7-.8.85-1.2-1.1-2.85-1.65-4.05-1.3-1.4.35-2.55-.2-3.55-1.6-1.05-1.5-1.55-1.7-1.6-.65-.05.8-.5.1-1-1.55-.5-1.65-.6-5-.25-7.4l.6-4.4 2.15 4.4c1.9 3.95 2.45 4.4 5.4 4.25zm-8.8 7.05c-.8.8-1.3.7-1.95-.3-.45-.75-1.35-1.05-1.95-.65-.6.35-1.1.2-1.1-.3 0-1.45 3.25-1.95 4.8-.8.9.7 1 1.25.2 2.05zM92.25 24.75c12.5.15 33 .15 45.5 0s2.3-.3-22.75-.3c-25 0-35.25.15-22.75.3zM155.6 42.25c.3 2.9.15 7.15-.4 9.5-.7 3.05-.65 5.25.3 7.9l1.25 3.65.35-3.4c.7-5.95-.2-22.9-1.2-22.9-.5 0-.65 2.2-.3 5.25zM148.45 49.75c-1.1.95-2.65 2.95-3.35 4.4-.75 1.45-2.3 3.1-3.45 3.7-2.15 1-2.15 1 .15 1.1 3 .05 1.8 2.05-1.25 2.05-2.6 0-5.05 2.4-4.05 3.95.9 1.55 2.75.15 2.1-1.6-.5-1.2.45-1.4 5.15-1.05 8.35.55 14.1-2.6 8.6-4.75-2.35-.85-4.3 1.25-2.35 2.5 1.1.7.7.9-1.75.95-3.15 0-4.55-2.1-2.3-3.45.55-.35.75-1.2.45-1.95-.25-.7 1.1-2.7 3.1-4.45 3.65-3.2 2.65-4.5-1.05-1.4zM166.65 56.45c-.3.8-.05 1.6.6 1.8.6.2.75.9.35 1.55-.85 1.4-6.2 1.6-7.05.3-.3-.5.4-.65 1.6-.35 1.45.4 2 .15 1.7-.75-.75-2.25-4.85-2.3-4.85-.05 0 2.45 2.95 4.15 5.85 3.4 1.3-.35 2.15-.1 2.15.55 0 .85.35.85 1.3 0 1.6-1.55 1.65-5 .1-6.6-.95-1-1.3-.95-1.75.15zM130.4 59.45c.4 1.5.25 3.25-.25 3.9-.7.8-.15 1.2 1.85 1.25 2.15.1 2.9-.4 3.25-2.1.35-1.75.05-2.15-1.4-1.75-1.2.3-1.85-.05-1.85-1.05 0-.9-.5-1.9-1.15-2.3-.8-.5-.95.1-.45 2.05zM172.2 61.7c1 .25 1.45 1.05 1.15 1.85-.4 1 .1 1.45 1.55 1.45 1.15 0 2.1-.2 2.1-.45 0-1.15-3.35-3.55-4.8-3.45-1.6.1-1.55.15 0 .6zM178 62.9c0 1.4.5 1.8 1.95 1.4 1.15-.3 1.7-1.05 1.35-1.9-.75-2.1-3.3-1.7-3.3.5zM22 180.9v118.9l-3.7-.85c-2.1-.45-4.4-.45-5.4.1s-2.7.95-3.85.95c-2.65 0-2.65 1.6-.05 2.3 2.4.6 2.6 2.95.45 5.15-.9.85-1.15 1.55-.6 1.55 1.85 0 4.15 3.1 4.15 5.65 0 1.5.4 2.2 1.1 1.8.6-.35.85-1.5.6-2.5-.35-1.3.25-2 2.15-2.5l2.65-.7-2.75-.95c-4.85-1.7-4.85-8.9 0-9.6 3.55-.55 5.25 3.35 5.25 12.05 0 9.6-2.3 11.8-7.9 7.7-3.65-2.75-5.7-1.65-2.2 1.2 1.85 1.45 2.15 2.2 1.25 3.1-2.6 2.6 2 11.05 4.95 9.2.7-.45.15-1.55-1.5-3.1-4.05-3.75-2.55-7.9 2.6-7.2 2.25.35 2.3.6 2.6 13.55l.25 13.15-3 1.8c-3.75 2.2-9.4 9.95-8.7 11.85.85 2.15 3 .9 5.05-2.95 1.05-1.9 2.9-4.45 4.25-5.65l2.35-2.25v4.6c0 2.55.45 4.9 1 5.25.6.4 1-1.5 1-4.95 0-6.85 2.95-9.15 6.25-4.95 2.6 3.3 7.65 4 13.7 1.8 7.2-2.55 12.05 2.45 12.05 12.55 0 4.8-3 7.9-15.5 15.95-3.5 2.3-5.65.85-4.35-2.9 1.75-4.95.25-9.8-3.65-12.15-4.95-2.9-1.25-7.85 5.9-7.85 5.1 0 7.7 6.65 3.6 9.25-1.95 1.2-2.8 3.75-1.2 3.75 4.7 0 6.95-8.25 3.25-11.95-4.15-4.15-13.85-3.1-15.85 1.75-.45 1.1-.9-.3-1.3-3.8l-.55-5.5-.2 5.95c-.1 3.25.4 8.5 1.05 11.65 2.2 10.65-5.5 13-10.2 3.2-2.85-5.9-3.8-6.1-6.25-1.2-3.25 6.6.5 13.2 8.55 14.85l3.2.65-.35 9.05c-.25 5.95 0 9.35.75 9.8.75.45 1.1-2.2 1.1-8.95v-9.65l4.3 3.5c5.25 4.35 7.85 5.35 17 6.7 9.95 1.5 13.35 2.7 17.3 6.15 4.4 3.9 4.3 5.1-.25 3.2-9.3-3.9-23.1-2.75-30.9 2.6-4.1 2.85-4.25 2.9-4.75.9-1.1-4.15-4.2-1.85-4.3 3.2-.1 3.15-1 5.8-2.95 8.8-2.5 3.8-2.85 5.2-2.9 12.45-.15 28.3 34.45 41.5 55.85 21.3 3.25-3.05 4.6-3.65 8.2-3.65 5.2 0 9.15-1.65 9.95-4.15 1.15-3.65 5.4-2.35 4.8 1.45-.4 2.3-.05 3.7 1.05 4.6 2.3 1.95 1.95 6.95-.85 11.85l-2.45 4.25h4.95c5.6 0 5.8-.4 3.45-7.05-1.8-5.05-1.5-5.65 1.8-3.5 2.35 1.55 6.85 1.7 8.25.35.3-.35-.8-.9-2.5-1.3-3.45-.75-7.7-5.65-8.2-9.5l-.35-2.5 17.75-.25c19-.3 20.15.05 14.15 4.1-4.7 3.2-2.65 4.45 2.95 1.75 2.35-1.15 4.95-2.1 5.7-2.1.8 0 2.8-.9 4.45-2 2.9-1.9 4.8-2 50.75-2 32.55 0 47.75-.35 47.75-1.05 0-.7-14.75-.95-47-.75-31.05.2-46.85-.05-46.55-.7 1.8-4.15 2.7-8.75 2.15-10.9-.9-3.7-9.5-12.35-13.1-13.15-1.65-.4-3.55-1.15-4.2-1.7-.7-.5-3.05-.65-5.25-.25l-4.05.7v-4.45c0-4.35-4.55-12.75-6.9-12.75-.5 0-2.15 3.25-3.65 7.25-3.45 9.15-3.95 9.75-8.05 9.75-5.3 0-6-2.55-3.4-12.2 1.2-4.4 1.9-8.25 1.6-8.55-1.1-1.1-8.75 1.9-11.8 4.65l-3.15 2.8-5.85-3.05c-4.15-2.15-6.35-4-7.45-6.3-2.05-4.35-7.05-7.35-12.15-7.35h-4.1l2.45-2.45c2.7-2.7 3.05-5.15 1.1-7.75-1.15-1.55-1.5-1.3-3.1 2.3-1.7 3.95-1.8 4-3.2 1.95-2.05-2.9-4.2-2.65-3.6.45.25 1.4 1.1 2.5 1.85 2.5.8 0 1.4.55 1.4 1.25.05.85.35.75 1-.25.55-.85 1-1 1-.35s-1.8 2.6-4 4.35c-2.2 1.75-4 4.05-4 5.1 0 3.7-8.45.5-10.1-3.8-1.15-3.05 1.25-9.3 3.6-9.3 1.7 0 9.5-6.95 9.5-8.45 0-2.35 4.9-4.9 6.65-3.45.8.7 4.3 1.75 7.65 2.4 5.45.95 9.95 4.5 5.75 4.5-.55 0-1-.35-.95-.75.35-1.95-.25-2.4-1.6-1.25-2.15 1.75-.2 3.85 3 3.25 3.3-.65 3.15-2.55-.6-7.2-3.4-4.25-8.4-5.95-11.95-4-3.1 1.65-3.4.55-1.15-3.75 2.25-4.2 3.4-8.3 2.3-8.3s-4.1 5.65-4.1 7.7c0 1.05-.65 2.8-1.4 3.85-1.3 1.8-1.4 1.75-.9-.8.9-4.7-.65-9.55-4.3-13.4-2.75-2.95-3.35-4.25-2.9-6.35.4-1.75.05-3.1-.9-3.9-1.25-1.05-1.25-1.6.25-4.2 1.6-2.95 1.6-3.05-1.15-5.45-4.85-4.25-7.1-3.4-6.3 2.4 1.1 8.35-7 10.8-8.75 2.65-.5-2.2-2.15-6.8-3.75-10.25-1.6-3.4-2.95-7-2.95-8-.1-1.55-.2-1.55-.85.2-.55 1.4-.95 1.6-1.55.65-.4-.7.05-2.1 1.1-3.25 1.3-1.5 1.85-3.5 1.75-7.2 0-2.85-.2-47.25-.35-98.65-.15-51.45-.6-106.55-1-122.5-.4-17.2-.65 20.15-.65 91.75.05 66.4-.25 120.75-.65 120.75s-.75-54.25-.75-120.5c0-79.65-.35-120.5-1-120.5s-1 40.3-1 118.9zm4 147.4c.05 1.6.25 1.85.9.85.6-1 1.15-.5 1.95 1.8 1 2.9.85 3.4-1.55 5.45-3 2.6-2.7 6.65.65 8.2 2.35 1.05 1.55 2.8-1.7 3.85-2.25.7-2.25.7-2.25-11.45 0-7.8.35-11.9 1-11.5.55.35 1 1.6 1 2.8zm23 18.15c0 2-2.3 3.4-4.4 2.6-1.8-.65-1.8-.8.4-2.85 2.35-2.2 4-2.1 4 .25zm-5.7 4.55c.5.4-.8 1.05-2.8 1.45-4 .75-10.85-1.05-9.9-2.6.65-1.05 11.35-.1 12.7 1.15zm-3.55 37.2c-.65 2-.5 3.55.6 5.75 1.65 3.4 1.05 3.7-3.65 1.65-3-1.25-9.6-7.25-8.65-7.85 6.3-3.8 13.1-3.55 11.7.45zm31.05 4.35c3 2.1 6.95 9.65 4.15 7.9-2-1.2-9.95.55-9.95 2.2 0 1.2-.5 1.1-2.55-.5-1.4-1.1-3.85-2.3-5.5-2.65-3.8-.85-3.7-1.6.6-5.4 4-3.55 9.5-4.15 13.25-1.55zm4.9 13.65c-1 7.4-5.05 8.7-7.25 2.3-1.7-4.85-.6-6.5 4.3-6.5h3.5l-.55 4.2zm10.1-.25c3.95 2.85 4.05 3.05 3.05 6.55-.55 2-.85 4.6-.7 5.85.15 1.2-.9 3.75-2.4 5.75-1.5 1.95-3.1 5.3-3.65 7.45-.5 2.2-.95 3-1 1.8-.2-4.05-3.4-12.25-6-15.4l-2.65-3.2 3.25-3.25c2.05-2.05 3.3-4.3 3.3-5.9 0-3.4 1.75-3.3 6.8.35zm-34.4 11.6c6.4 2.65 11.55 14.15 9.65 21.35-3.6 13.2-20.75 12.5-29.05-1.15-7.05-11.55 6.45-25.65 19.4-20.2zm79.45 5.35c7.45 3.8 11.7 13.35 8.95 20.1l-1.4 3.4-18.7.05c-16.25.05-18.65-.15-18.1-1.45.35-.85.85-2.3 1.15-3.25.25-.95.9-1.75 1.35-1.75.5 0 2.6-1.5 4.65-3.3 2.05-1.85 5.2-3.9 6.95-4.65 1.8-.7 3.75-1.9 4.4-2.65 1.75-2.15 2.9-1.7 2.9 1.15 0 2.5-3.3 6.7-6.05 7.65-.8.3-1.1.9-.65 1.4 1.4 1.5 10.1-3.85 11.15-6.85.75-2.25.55-3.15-1.35-5.15-4.3-4.55-1.15-7.7 4.75-4.7zm-39.5 8.85c-2.75 4.8-4.7 6.05-6.75 4.3-2.35-1.95-1.95-4.15 1.55-8.4l3.15-3.8 2.1 2.1 2.1 2.1-2.15 3.7zm13.65 1.85l4.5 1.2-4.7 2.15c-4.8 2.15-9.8 2-9.8-.3.05-3.85 1.3-5.7 3.35-5 1.2.4 4.2 1.25 6.65 1.95zm-21.1 3.8c.9 1.05.8 1.5-.45 2-2.35.85-2.45.8-2.45-1.4 0-2.3 1.25-2.6 2.9-.6zm8.1 3.7c0 .7 1.7.95 4.5.75 2.5-.2 4.5-.25 4.5-.15 0 3.95-9.4 6.75-10.35 3.05-.9-3.3-.8-4.75.35-4.75.55 0 1 .5 1 1.1zm-3.6 5.1c-.3.45-1.75.8-3.2.8l-2.7-.05 2.5-1.9c2.35-1.8 4.7-1 3.4 1.15zm-.4 2.8c0 .5-1 1.6-2.25 2.4-3.75 2.45-9.9.05-7.1-2.75 1.05-1.05 9.35-.75 9.35.35zM111.3 444.75c4.85.2 12.5.2 17 0s.55-.35-8.8-.35c-9.35 0-13.05.15-8.2.35zM298.75 64.25c-.3 1.25-.15 4.7.25 7.75l.7 5.5.15-7.75c.15-7.8-.2-9.65-1.1-5.5zM144.9 66.6c-.7.9-3.6 3.1-6.35 4.9-7.35 4.75-12.15 10.25-14.9 16.9-2.1 5.2-2.5 5.65-3.5 4-1.05-1.85-1.1-1.85-1.05.1.05 2.75 1.75 6.7 1.85 4.3.05-1.15.6-1.55 1.55-1.15 1.1.4 1.35.1.9-1.05-1.05-2.75 4.7-12.45 10.55-17.85 4.25-3.85 5.65-4.65 5.85-3.4.2.9.75 1.65 1.25 1.65 1.5 0 1.1 3.7-.55 5.35-.8.85-1.5 2-1.5 2.55 0 .6-1.25 2.3-2.75 3.85-1.5 1.5-2.9 3.85-3.1 5.25-.3 2.45-.25 2.45 1.25.5.85-1.1 1.55-2.5 1.55-3.15.1-3.5 3-3.45 6.1.05 1.75 2 3.85 3.6 4.7 3.6.9 0 2.35.7 3.3 1.55 1.55 1.4 1.6 1.25.55-2-.65-2.2-1.75-3.55-2.75-3.55-2.1 0-3.25-4.4-1.85-7 1.35-2.55 1.85-2.5 2.9.25.9 2.25.9 2.25 1.6-.4.45-1.75 1.5-2.8 3.15-3.15 2.1-.35 2.45-.1 2.05 1.4-.3 1.05-.1 2.15.4 2.45.5.3.9-.3.9-1.3 0-2.6.65-3.05 3.4-2.5l2.35.45-1.8 3.7c-1.25 2.55-1.65 5-1.25 7.75l.5 4 2.35-2.05c1.7-1.55 2.05-2.4 1.25-3.35-1.95-2.35 4.5-7.45 7.25-5.75.7.45.65 1.2-.25 2.25-1.15 1.4-.95 1.5 1.45 1.05 1.5-.3 2.75-.25 2.75.1 0 .3 1.15 1.95 2.5 3.6 1.4 1.65 2.25 2.25 1.9 1.3-.4-1.15.35-2.15 2.25-3.2 1.65-.85 2.2-1.55 1.3-1.55-.85-.05-2.1.5-2.75 1.15-.95.95-1.55.9-2.7-.3-1.5-1.5.6-9.9 2.5-9.9 2.5 0 8.55 10.5 10.65 18.5l1.35 5-.6-5c-.75-6.3-2.55-10.6-6.45-15.6-1.7-2.15-2.65-3.9-2.05-3.9 2.45 0 .85-1.9-2.1-2.55-1.8-.4-4.8-1.75-6.75-3-6.15-4-18.75-5.95-25.2-3.9-1.7.55-2.05.35-1.55-.95.8-2.05-.65-2.05-2.4 0zm20.5 2.9c6.15 1.6 11.55 4.5 8.35 4.5-1.05 0-1.5.55-1.15 1.45.85 2.2-2.2 2.6-13.35 1.7-1.8-.1-2.3-.8-2.4-3.4l-.15-3.25-.4 3.2c-.75 5.7-9.3 2.3-9.3-3.65 0-2.4 10.15-2.7 18.4-.55zm-15.4 9.2c0 .75-.65 1-1.65.6-3.15-1.2-6.25 7.4-3.35 9.2.55.35 1 1.35 1 2.25 0 2.2-2.2.1-4.4-4.2-1.4-2.7-1.35-3.15.05-4.75 1.15-1.25 1.45-2.9 1.1-5.6-.9-6.75.9-8 4.3-3 1.6 2.35 2.9 4.85 2.95 5.5zm29.35-1.45c-1.1 1.25-2.5 3.5-3.15 5-1.3 3.05-2.7 3.55-3.55 1.25-1.65-4.25-11.5 1.2-10.3 5.7.4 1.5.25 1.8-.55 1-2.45-2.45 2.2-12.55 5-10.8 1.4.85 6.95-1.3 7.6-2.95.3-.85 1.9-1.45 3.75-1.45h3.2l-2 2.25zM128.85 67.75c-1.2 1.6-1.2 1.6.4.4 1.15-.9 1.75-1 1.75-.25 0 .6.7 1.1 1.5 1.1.85 0 1.5-.7 1.5-1.5 0-2.05-3.45-1.9-5.15.25zM178.5 67c-.65 1.1-.4 1.15 3.7 1.4 2.1.15 2.45-.1 1.65-1.1-1.3-1.55-4.45-1.7-5.35-.3zM98 69.2c0 .75 3.1 2.9 6.95 4.7 3.8 1.85 7.7 4.15 8.65 5.2.95 1.05 2.5 1.9 3.5 1.9s2.05.45 2.4 1c.35.55 1.1 1 1.65 1 .55 0-.35-1.35-2-3s-3.5-3-4.1-3c-1.2 0-8.5-3.75-13.8-7.15-2.45-1.55-3.25-1.7-3.25-.65zM119.5 69.1c-2.75.3-5.8.9-6.75 1.35-1.95.85-2.45 3-.5 2.2 10-4.15 17.8-1.1 11.2 4.35-1 .9-1.15.65-.75-1.05.45-1.7.2-2.1-1.3-1.8-2.75.55-2.5 4.25.35 4.65 1.6.25 2.55-.4 3.4-2.25.65-1.4 1.8-2.55 2.55-2.55 1.05 0 1.15-.45.3-2.05-.6-1.1-1.5-1.75-1.95-1.45-.5.3-1.05-.05-1.2-.75-.25-.9-1.75-1.1-5.35-.65zM184.7 72.05c-.3 1.2-.3 1.9.05 1.55.3-.3 1.4.75 2.4 2.4 1.65 2.75 4.6 3.9 6.1 2.4.75-.7-1.35-4.4-2.5-4.4s-.9 2.75.3 3.35c.55.25.45.4-.25.25-.75-.1-2.05-1.7-2.95-3.5-2.25-4.35-2.5-4.55-3.15-2.05zM106 80.05c0 1.65.9 4.8 2 6.95 1.1 2.15 2.05 5.2 2.1 6.7l.1 2.8.8-2.5c1.2-3.75 1.15-6.05-.15-5.75-1.35.3-2.6-3.35-2.75-8-.15-4.1-2.1-4.3-2.1-.2zM194.65 79.45c-.3.85-1.3 1.55-2.1 1.55-.85 0-1.55.4-1.55.85 0 .45 1.6.35 3.5-.25 1.95-.6 3.35-1.5 3.2-2.05-.55-1.65-2.45-1.7-3.05-.1zM204.6 81.5c-1.1 5.1-2.45 7.7-3.65 6.95-.5-.3-.95.15-.95 1 0 2.2-2.75 1.95-3.95-.4-1.55-2.8-1.3-4.75.3-2.6.95 1.3 1.55 1.5 2.05.7.9-1.45-2-4.5-3.4-3.65-1.5.95-1.2 5.1.5 6.5.85.7 1.3 1.5 1.05 1.8-.3.3.35 1.15 1.45 1.9 2.1 1.45 2.75 4.3 1 4.3-.55 0-1 .65-1 1.5 0 .8.75 1.5 1.65 1.5 1.35 0 1.5-.75 1-4.65-.35-2.6-.35-4.4 0-4.05 1.25 1.25 5.5-8.35 5.1-11.6l-.35-3.2-.8 4zM114.6 84.6c-.75 1.9.15 3.65 1.45 2.85 1.4-.85 1.1.8-.6 3-.8 1.05-1.5 1.5-1.5 1-.2-2.2-1.8 3.35-1.9 6.3-.05 2.2.4 3.25 1.4 3.25 2.1 0 2.95-1.9 1.1-2.6-2.2-.85-2-1.75 1.55-6.75 2.2-3.1 2.9-5 2.45-6.55-.8-2.45-3.05-2.8-3.95-.5zM202.5 97.2c.45 2.85.15 3.9-1.2 4.65-1.7.95-1.7 1.05-.05 1.7.95.35 1.8 1.4 1.8 2.3.05 1.1.4.9 1-.65.7-1.7 1.45-2.15 2.85-1.75 1.05.35 2.2.15 2.55-.4.4-.65-.55-1.05-2.4-1.05-2.5 0-3.05-.4-3.1-2.25-.05-1.25-.5-3.15-1.05-4.25-.7-1.5-.8-1.1-.4 1.7zM109.15 99.25c-.15 2.35-.55 2.75-3.2 2.75-1.95 0-2.8.4-2.4 1.1.35.6 1.55.85 2.55.6 1.05-.3 2.25.05 2.65.75.55.95 1.2.85 2.65-.6 1.65-1.55 1.7-1.85.35-1.85-1 0-1.8-1.05-2.05-2.75l-.4-2.75-.15 2.75zM158 102.65c0 5.3.05 5.35 3 5.35 1.65 0 3-.45 3-1s-.9-1-2-1-2-.45-2-1 .9-1 2-1 2-.45 2-1-.9-1-2-1-2-.45-2-1 .9-1 2-1c3.1 0 2.35-1.7-1-2.2l-3-.45v5.3zM175 98.6c0 .8.45 1.4 1 1.4s1 1.8 1 4c0 3.05.4 4 1.65 4 1.3 0 1.5-.75 1.1-4-.45-3.1-.25-4 .95-4 2.9 0 .65-2.25-2.5-2.5-2.2-.2-3.2.15-3.2 1.1zM124.25 99.15c-1.7 1.7-1.55 6.35.2 7.8 2.05 1.7 4.95.9 5.4-1.45.3-1.6.1-1.75-.95-.75-1.7 1.65-2.55 1.6-3.25-.25-1-2.55.4-4.65 2.6-3.9 1.4.4 1.85.2 1.55-.75-.6-1.8-4-2.25-5.55-.7zM132.65 98.65c-1.4 1.45-.65 8.4 1 9.05 3.75 1.45 7.1-4.9 4.3-8.25-1.25-1.5-4.15-1.95-5.3-.8zm3.85 4.35c0 1.3-.55 2.5-1.25 2.75-.8.25-1.25-.65-1.25-2.75s.45-3 1.25-2.75c.7.25 1.25 1.45 1.25 2.75zM140.35 103c-.1 3.7.2 5 1.25 5 .75 0 1.4-1 1.45-2.25l.05-2.25 1.55 2.25c2.45 3.45 3.35 2.7 3.35-2.75 0-2.75-.45-5-1-5s-1 1.25-1.05 2.75v2.75l-1.7-2.75c-2.55-4.05-3.75-3.35-3.9 2.25zM149 99c0 .55.7 1 1.5 1 2.55 0 2.1 11.6-.5 13-1.5.8-1.85 1.7-1.45 3.45.45 1.7 0 2.75-1.7 3.95-3.95 2.75-7.6 1.8-4.6-1.25 1-1.05.7-1.2-1.6-.95-2.05.2-3.2-.3-4-1.65-1.9-3.2-4.2-5.5-3.35-3.25.5 1.25 0 2.05-1.8 2.9-1.4.6-2.5 1.5-2.5 1.95 0 1.25 1.25 1 3.4-.65 3.2-2.4 4.75.75 2.8 5.65-2.25 5.7-4.7 4.05-10.15-6.65-1.65-3.3-3-5.35-3-4.5 0 2.4 3.4 9.2 6.3 12.65 3.25 3.8 3.25 4.3.4 4.45-1.25.05.35.9 3.55 1.9 3.15 1 6.3 2.25 7 2.75 4.6 3.55 18.65 5.65 24.75 3.75 1.9-.6 2.05-.4 1.45 1.65-.65 2.1-.25 1.95 3.15-1.25 2.1-1.95 5.45-4.55 7.35-5.7 4.75-2.8 9.35-7.8 12.05-13 3.25-6.35 1.95-5.9-1.9.6-3.75 6.4-12.45 14.25-12.95 11.7-.2-.8-.75-1.5-1.25-1.5-.55 0-.95-1.15-.95-2.5 0-1.55.55-2.5 1.5-2.5.85 0 1.5-.8 1.55-1.75.05-4 4.65-7.85 6.9-5.8 1.15 1 2.05 1.35 2.05.75 0-.65-.9-1.6-1.95-2.2-1.25-.65-1.75-1.65-1.35-2.6.5-1.4.3-1.4-1.45-.3-1.15.7-1.85 1.75-1.6 2.4 1.3 3.45-3.15 4.35-5.6 1.1-3.55-4.7-9.05-6.3-9.05-2.6 0 2.1.45 2.65 2.25 2.6 2.85-.1 4 7 1.3 8-.85.35-1.3 1-1 1.5 1.65 2.6 4.8-3.8 3.85-7.7-.35-1.35-1.8-3.15-3.25-3.95l-2.65-1.5 2.5.6c5.6 1.4 7.85 6.2 5.5 11.85-1.2 2.75-1.3 4.15-.45 5.7.8 1.5.8 2.4-.1 3.45-1.4 1.7-2.95 1.9-2.95.4 0-.55-.95-2.35-2.15-3.9-1.5-2.05-1.9-3.65-1.45-5.45.75-3.05-.95-3.55-1.9-.6-.9 2.75-4.25 2.6-4.8-.25l-.45-2.25-.1 2.25c-.1 1.65-.75 2.25-2.5 2.25-3.45 0-3.65-.75-1.65-5.3 1.4-3.05 1.6-4.5.8-5.45-.8-.95-.8-2.4.05-5.15.65-2.1 1.15-5.3 1.15-7.1 0-1.95.7-3.8 1.75-4.6 1.55-1.2 1.25-1.35-2.5-1.35-2.35-.05-4.25.4-4.25.95zm1.6 22.45c-1.7 4-3.25 5.05-6.8 4.7-1.65-.2-3.45.5-4.75 1.8-1.1 1.1-3.3 2.05-4.8 2-2.5 0-2.6-.15-1-1.35.95-.75 2.25-2.7 2.8-4.4 1.15-3.25 3.95-5.15 3.95-2.65 0 .95 1.05 1.45 3.05 1.45 4 0 8-3.9 7.35-7.15l-.45-2.35 1 2.3c.75 1.7.65 3.25-.35 5.65zm-5.6 6.6c0 .65.6.7 1.8.05 3.35-1.8 8.6.15 9.35 3.45l.6 2.95.15-3.25c.15-4.45 3.15-4.35 6.7.3 3.3 4.35 2.9 4.75-4.9 5.2-13.7.85-26.55-7.75-14.45-9.65.4-.05.75.35.75.95zM166 103c0 5.3 1.6 6.9 2.25 2.25l.35-2.75 1.35 2.75c2.25 4.5 4.05 3.45 4.05-2.25 0-3.95-.35-5-1.6-5-.95 0-1.4.55-1.1 1.4.9 2.3-.5 2.75-2 .6-2.3-3.25-3.3-2.3-3.3 3zM183.65 98.65c-1.35 1.4-.6 4.25 1.35 4.85 1.1.35 2 1.1 2 1.65 0 .55-.9.7-2.1.3-1.55-.45-2-.3-1.7.7 1.05 3.05 6.8 1.55 6.8-1.8 0-.75-1.25-1.9-2.75-2.55-2.65-1.1-2.65-1.15-.5-1.55 1.25-.2 2.25-.8 2.25-1.3 0-1.1-4.3-1.3-5.35-.3zM251.2 106.7c-1.3 2.05-2.15 4.7-2 6.2.4 3.25 3.9-2.35 4.45-7.15.4-3.45.35-3.45-2.45.95zM112.65 104.7c-1.05 1-.75 6.1.35 6.8.6.35.75 1.15.35 1.7-.4.7-1.2.45-2.15-.8-1.4-1.85-1.45-1.85-.95.25.3 1.2-.3 3.4-1.35 5-1.15 1.7-1.85 4.45-1.8 6.85l.1 4 1.25-5.1c1.2-4.85 4.35-9.4 6.55-9.4 1.4 0 1.25-.9-.5-2.65-1.65-1.65-2.1-4.8-.5-3.85.55.35 1-.05 1-.9 0-1.7-1.4-2.85-2.35-1.9zM198 105c0 2.05.2 2.5 1.1 2.25 1.05-.3 1.15.9.3 3.15-.35.9-1.3 1.6-2.15 1.6-.9 0-1.3.3-.95.65.35.35-.1 1.85-1 3.4-.85 1.5-1.3 3.5-.95 4.4.75 2.05 4.15 1.65 4.15-.45 0-.85-.55-1.4-1.25-1.25-1.7.35-1.6-1.7.2-3.65 2.95-3.3 4.5-7.35 3.45-9.25-1.05-2-2.9-2.5-2.9-.85zM192 109.3c0 1-.45 1.55-1 1.2-.55-.35-1 .15-1 1.1 0 .95.3 1.45.65 1.1.35-.4 1.25-.2 2 .45 1.65 1.35 1.9-1.75.35-4.15-.8-1.25-.95-1.2-1 .3zM201.45 112.3c-1.15 2.5-.8 5.05.6 4.2.95-.6 2.9 5.65 2.95 9.5.05 2.25.15 2.3 1.1.7 1.25-2.15.45-6.15-1.9-9.7-.9-1.4-1.5-3.5-1.35-4.75.35-2.85-.05-2.85-1.4.05zM117.05 117.1c.6 1.15.85 2.35.55 2.65-.35.3-.6.05-.6-.6s-.65-1.15-1.5-1.15c-.8 0-1.5.7-1.5 1.55 0 .85.4 1.3.9 1 .5-.3 1.15 0 1.4.7.35.95.75 1 1.7.05 1.4-1.3.6-6.3-1.05-6.3-.65 0-.6.75.1 2.1zM193.6 124.75c1.6 1.45 3.2 2.6 3.55 2.5.35-.1 4.35 2.05 8.9 4.8 4.55 2.7 8.7 4.95 9.25 4.95 2.2 0-2.2-3.5-7.95-6.2-3.4-1.65-7-3.85-7.95-4.9-.95-1.05-2.5-1.9-3.5-1.9s-2.05-.45-2.4-1c-.35-.55-1.1-1-1.7-1-.6 0 .2 1.25 1.8 2.75zM113.7 125.8c-.9.95-4.45 3.3-7.9 5.1-7.1 3.75-8.45 4.8-7.55 5.7.35.35 3.9-1.45 7.9-4 3.95-2.5 7.95-4.6 8.85-4.6 1.7 0 4-1.85 4-3.2 0-1.5-3.7-.8-5.3 1zM120 127c-1.15.75-1.25 1.35-.4 2.7 1.2 1.9 3 1.6 2.75-.45-.2-1.95 1.45-1.45 2.7.85 1.65 3.05.5 5.25-2 3.9-1.6-.85-1.9-.75-1.45.4.6 1.55-3.15 1-8.9-1.3-3.7-1.45-2.55.4 1.5 2.5 1.7.85 4.35 1.4 6 1.15 1.6-.2 3.1-.05 3.4.4.95 1.55 2.35.85 1.7-.8-.5-1.3-.25-1.55 1.05-1.05 2.5.95 2.05-2.05-.9-5.95-2.75-3.6-3.2-3.8-5.45-2.35zM189.55 128.15c.9 3.1 1.1 3.2 3 2.5 2.3-.9 1.35-4.1-1.4-4.5-2.05-.25-2.25 0-1.6 2zM186.65 130.45c-2.1 3.15-2.1 4.55-.05 4.55 1.05 0 1.4.55 1 1.55-.35 1-.15 1.3.55.85.65-.4 3.05-.8 5.35-.95 4.45-.2 8.5-1.9 8.5-3.5 0-.55-1.4-.25-3.15.6-2.2 1.2-4.35 1.45-7.5 1-4.8-.75-4.85-.8-3.25-3.7 1.6-3 .45-3.3-1.45-.4zM.85 132.95c-.65 4.05.45 9.95 1.25 6.55.25-1.1.2-3.8-.1-6l-.55-4-.6 3.45zM131 136.9c0 .55-.8.75-1.75.45-1.65-.6-1.65-.5-.1 1.15 1.8 1.9 5.3 1.35 4.6-.7-.5-1.55-2.75-2.3-2.75-.9zM179 137.45c0 2.15 1.9 2.9 3.6 1.45 1.25-1.05 1.75-1 2.55.15.85 1.15.9 1.05.45-.4-.35-1-.6-2.05-.6-2.35 0-.3-.65 0-1.5.7-1.05.85-1.5.9-1.5.1 0-.6-.65-1.1-1.5-1.1-.8 0-1.5.65-1.5 1.45zM173.9 140.3c-.1.65-.1 1.5-.05 1.9.15 1.1-3.75 2-5.1 1.15-1.25-.8-3.15-.75-7.5.2-2.2.45-3.35 4.45-1.35 4.45 2.7 0 4.15-1.25 3-2.6-.9-1.15-.65-1.4 1.4-1.4 2.95 0 4.45 1.65 2.9 3.2-.6.6-.85 1.6-.55 2.3.25.7-1.45 2.9-3.75 4.85-2.5 2.15-3.6 3.65-2.7 3.65 2.35 0 6.4-3.6 7.75-6.9.7-1.65 2-3.2 2.9-3.45 1.45-.35 1.45-.45-.1-.55-2.65-.15-2.1-2.1.6-2.1 2.05 0 5.65-2.7 5.65-4.2 0-1.2-3-1.7-3.1-.5zM178 141.5c0 1-.75 2.3-1.65 3-1.4 1-1.15 1.15 1.5.75 2.4-.35 3.15-.1 3.15 1.15 0 .85.45 1.6 1 1.6 1.3 0 1.3-1.7-.05-2.55-.55-.35-.75-1.6-.35-2.8.35-1.2.3-1.8-.15-1.4-.4.4-1.35.25-2.1-.4-1.05-.85-1.35-.7-1.35.65zM131.15 142.65c.9 1.1.9 1.7 0 2.6-.65.65-1.15 1.85-1.15 2.7.05 1.1.6.85 1.9-.85 1.2-1.55 2.45-2.2 3.45-1.8.9.35 1.65.2 1.65-.35 0-.5-.45-.95-1-.95s-1-.6-1-1.4c0-.8-1.05-1.35-2.5-1.35-2.1 0-2.3.25-1.35 1.4zM1 149.1c.3 3.9.25 7.25-.1 7.45-.8.5-.55 20.15.25 20.95 1.9 1.85 2-12.15.2-18.75-.35-1.2-.05-1.55 1-1.2.8.35 1.75.1 2.1-.5.4-.6-.05-1.35-.9-1.65-1.2-.45-1.55-2.15-1.55-7 0-3.5-.35-6.4-.75-6.4-.45 0-.55 3.2-.25 7.1zM155.9 144.6c-.7 17.15-.3 27.65 1.05 25.5.8-1.3.5-27-.35-27.85-.35-.3-.65.75-.7 2.35zM138.35 144.55c0 .6 1.25.85 2.8.65 1.7-.25 2.85.05 2.85.7 0 .6-.55 1.1-1.25 1.1-.85.05-.9.25-.15.75.6.4 1.85 2.15 2.7 3.85 1.5 2.9 6.4 7.05 7.25 6.15.2-.2-1.15-1.85-3.1-3.65-3.55-3.35-4.35-5.1-2.25-5.1.65 0 .35-.6-.65-1.35-2.35-1.7-1.2-3.65 2.2-3.65 2.05 0 2.4.25 1.45 1.2-1.7 1.7-1.5 2.85.45 2.1 1.25-.45 1.45-.25.85.8-.5.85-.1.75 1-.3 1.55-1.4 1.6-1.95.55-3.25-1.55-1.85-14.7-1.8-14.7 0zM298 157.9c0 1.05-.95 2.15-2.25 2.55-2.2.7-2.2.7.45 1.7 1.45.55 2.9 1.75 3.1 2.65.25.95.5-.65.6-3.55.05-2.9-.35-5.25-.9-5.25s-1 .85-1 1.9zM71 184c0 2.2.45 4 1 4s1-.75 1-1.65c0-.9.75-2.15 1.65-2.85 2-1.45 1-3.5-1.7-3.5-1.6 0-1.95.7-1.95 4zM84 182.05c0 1.15-.45 1.8-1 1.45-.55-.35-1 .25-1 1.25 0 1.45.75 1.9 3 1.9 3 0 3.9-1 2-2.15-.55-.35-1-1.5-1-2.55 0-1.1-.45-1.95-1-1.95s-1 .95-1 2.05zM109 180.35c0 2.8 2.4 6.55 3.6 5.55 1-.85 1.4-.85 1.4 0 0 .6.45 1.1 1 1.1s1-.9 1-2-.45-2-1-2-1-.7-1-1.5c0-.85-.5-1.5-1.1-1.5-.6 0-.85.65-.55 1.45.3.85.15 1.75-.4 2.1-.5.3-.95-.35-.95-1.5 0-1.1-.45-2.05-1-2.05s-1 .15-1 .35zM116.65 182.5c.15 1.1.35 2.55.35 3.25 0 2 4 1.5 4.05-.5.1-1.5.2-1.45.95.25.8 1.9.85 1.9.95-.25.05-1.85-.5-2.25-2.9-2.25-1.6 0-3.1-.55-3.35-1.25-.2-.7-.25-.35-.05.75zM141.65 180.65c-1.05 1.05-.75 6.35.35 6.35.55 0 1-1.4 1-3.05 0-1.8.4-2.8 1-2.45.55.35 1 .15 1-.45 0-1.15-2.3-1.45-3.35-.4zM157.1 183.2c-.1 3.65-.05 3.65 3.9 3.6 3.2 0 4-.4 4-1.85 0-2.1-1.6-3.45-2.45-2.05-.85 1.4-4.4.1-4.9-1.75-.2-.9-.45 0-.55 2.05zM168.4 183.55c.45 4.85 1.6 5.6 1.6 1.05 0-2.05.4-3.45.9-3.15.5.3.8 1.6.65 2.9-.2 2 .2 2.35 3.1 2.45 2.7.1 3.35-.25 3.35-1.85 0-1.3-.7-1.95-2.05-1.95-1.35 0-1.85.4-1.35 1.25.4.75.35.9-.2.4-.5-.45-.9-1.1-.9-1.5-.05-1.6-1.75-3.15-3.5-3.15-1.55 0-1.85.6-1.6 3.55zM196.85 184c.2 2.2.75 3.75 1.2 3.45.5-.3.6-1.25.25-2.15-.45-1.1-.25-1.4.55-.9.6.4 1.15.3 1.15-.25s-.55-1.2-1.25-1.45-1-.7-.65-1.1c1.25-1.3 3.8.65 4.2 3.25.3 2.15.45 2 .55-.9.15-3.3-.05-3.55-3.15-3.75-3.25-.25-3.25-.2-2.85 3.8zM233.85 181.5c-.8.8.3 6.5 1.25 6.5.5 0 .9-1.6.9-3.5 0-3.15-.85-4.35-2.15-3zM238.85 181.5c-.8.8.3 6.5 1.25 6.5.5 0 .9-1.6.9-3.5 0-3.15-.85-4.35-2.15-3zM87.4 183.15c-.45.7-.3.9.45.45s1.15.05 1.15 1.4c0 1.15.45 1.85 1 1.5.55-.35 1 .1 1 .95s.85 1.55 1.95 1.55c1.5 0 1.9-.65 1.85-3.05-.1-2.5-.5-3-2.2-2.8-1.15.15-2.65-.05-3.3-.45-.65-.4-1.5-.2-1.9.45zM97.95 184.45c-.1 2.05-.1 2.05-.95.05-.8-1.9-.85-1.9-.95.25-.05 2 .45 2.25 4 2.25 3.65 0 4.05-.25 3.75-2.15-.45-3.05-5.75-3.4-5.85-.4zM124 184.5c0 2.8 1.95 3.5 2.05.75.1-1.5.2-1.45.95.25.85 1.95.85 1.95.95-.15 0-1.15-.65-2.4-1.55-2.75-2.3-.9-2.4-.8-2.4 1.9zM134.6 182.75c-1.55 1.55-.55 6.25 1.35 6.25 1.5 0 1.9-.65 1.85-2.95-.1-2.8-1.9-4.65-3.2-3.3zM206.75 182.8c-3.35.4-4.05 4.2-.75 4.2 1.25 0 2-.65 2-1.75.05-1.45.2-1.5.95-.3.95 1.55 5.05 2.55 5.05 1.25 0-1.65-2.95-4.8-3-3.2 0 .9-.35 1.1-.75.5-.4-.55-2-.85-3.5-.7zM214.5 183.8c.25.75.5 1.75.5 2.15 0 .45 1.35 1 3 1.25 2.4.35 3 .1 3-1.35 0-1.05.55-1.85 1.15-1.85 3.2 0-.7-1.35-4.15-1.45-3-.05-3.9.25-3.5 1.25zM76 185c0 2.45 1.7 2.65 2.3.25.45-1.65.45-1.65.6 0 .05.95.5 1.75 1.05 1.75.5 0 .85-.9.8-2-.15-1.35-.9-2-2.45-2-1.65 0-2.3.6-2.3 2zM129 185c0 2.45 1.95 2.7 2.05.25.1-1.5.2-1.45.95.25.8 1.9.85 1.9.95-.25.05-1.6-.5-2.25-1.95-2.25-1.35 0-2 .65-2 2zM144.1 184.65c-.05 1.65.6 2.2 2.9 2.55 2.35.35 3 .1 3-1.3 0-.95.55-1.95 1.25-2.25.7-.25-.2-.55-1.95-.55-2.5-.1-3.1.25-2.65 1.4.3.8.1 1.5-.45 1.5-.6 0-1.25-.8-1.5-1.75-.35-1.4-.5-1.3-.6.4zM179.1 185.25c.1 1.7.25 1.8.6.5.55-2.15 2.3-2.35 2.3-.25 0 .8.45 1.5.95 1.5.55 0 .75-.7.4-1.5-.3-.85-.05-1.5.55-1.5.6 0 1.1.65 1.1 1.5 0 2.3 5.95 2.05 6.1-.25.05-1.15.35-.9.9.75l.8 2.5.1-2.75c.1-2.75.1-2.75-6.9-2.75-6.65 0-7 .1-6.9 2.25zM299.4 195.5c0 6.6.15 9.15.35 5.7.2-3.45.2-8.85 0-12-.2-3.15-.35-.3-.35 6.3zM70 194.05c0 .95 171.8.3 172.9-.7.25-.2-38.55-.35-86.25-.35-59.65 0-86.65.35-86.65 1.05zM71 203.5c-2.25 2.75 1.7 7.2 4.15 4.75.75-.75.5-1-.8-.9-1.25.1-1.85-.5-1.85-1.85 0-1.3.6-1.95 1.75-1.85.95.05 1.75-.25 1.75-.75 0-1.45-3.65-1-5 .6zM77 205.5c0 2.85.4 3.5 2 3.5 2.4 0 2.75-3.4.55-5.55-2.1-2.15-2.55-1.8-2.55 2.05zM103.45 203.05c-2.2 3.55 2.45 7.65 5.35 4.75.95-.95 1.2-.95 1.2 0 0 1.9 2 1.4 2.05-.55.1-1.5.2-1.45.95.25.75 1.75.85 1.7.95-.75.05-2.25-.4-2.75-2.4-2.75-1.35 0-2.7-.45-3.05-1-.8-1.3-4.2-1.3-5.05.05zm4.55 2.45c0 1.55-.55 2.5-1.5 2.5s-1.5-.95-1.5-2.5.55-2.5 1.5-2.5 1.5.95 1.5 2.5zM124 203.15c0 .65.8 2.1 1.75 3.2 1.65 1.9 1.65 1.95 0 1.35-.95-.35-1.75-.2-1.75.35 0 .5.9.95 2 .95 2.5 0 2.65-2.75.25-4.7-1.65-1.4-1.65-1.45 0-.9.95.3 1.75.1 1.75-.45 0-.5-.9-.95-2-.95s-2 .55-2 1.15zM160 204c-.95 1.3-1.75 1.65-2.4 1-1.7-1.7-3.45-1.1-3.9 1.25l-.45 2.25-.1-2.25c-.15-2.1-3.15-3.4-3.15-1.35 0 .5-.25 1.65-.6 2.5-.55 1.35.4 1.6 6.5 1.5l7.1-.1v-3.4c0-3.85-.9-4.3-3-1.4zM166 203.15c0 .65.8 2.1 1.75 3.2 1.65 1.9 1.65 1.95 0 1.35-.95-.35-1.75-.2-1.75.35 0 .5.9.95 2 .95 2.5 0 2.65-2.75.25-4.7-1.65-1.4-1.65-1.45 0-.9.95.3 1.75.1 1.75-.45 0-.5-.9-.95-2-.95s-2 .55-2 1.15zM188.9 203.25c-.1.7-.1 2.15-.1 3.25.05 1.6-.05 1.65-.45.3-1.1-3.75-17.35-3.9-17.35-.15 0 3.25 9.95 3.2 10.05-.1.1-2 .1-2 .95.1 1.65 4.1 9 3.1 9-1.2 0-3.15-1.85-5.1-2.1-2.2zM193.4 202.85c.3.5 1.05 2.15 1.65 3.7.85 2.3 1.25 2.6 2 1.4.8-1.2 1.1-1.2 1.85-.1.7 1.15.95 1.15 1.4 0 .4-.95.8-1.05 1.35-.2 1.55 2.1 6.35 1.35 6.4-1.05.1-2.05.1-2.05 1 .15 1.45 3.6 8.95 3.3 8.95-.35 0-2.15-.4-2.55-2-2.1-1.3.35-2 0-2-.9 0-1.55-1.65-1.9-2.15-.45-.2.55-2.15 1.05-4.35 1.2-2.2.1-4.65.65-5.4 1.25-1.1.9-1.25.65-.7-1.15.45-1.3.3-2.25-.25-2.25s-1.2 1-1.45 2.25l-.45 2.25-.1-2.25c-.1-1.25-.55-2.25-1.1-2.25-.5 0-1.1 1-1.35 2.25l-.45 2.25-.1-2.25c-.1-1.3-.8-2.25-1.7-2.25-.85 0-1.35.4-1.05.85zM91 203.85c0 .5-1.1.65-2.4.4-1.95-.35-2.55.05-2.9 1.9-.4 2.35-.45 2.35-.55.1-.2-3.15-3.15-2.95-3.15.25 0 1.8.55 2.5 1.9 2.5 1.05 0 2.15.55 2.4 1.25.3.85 1.15.45 2.55-1.15 1.2-1.3 2.15-1.95 2.15-1.4s1.35 1.05 3 1.1c1.65.05 3-.4 3-.95 0-.5-.45-.7-1-.35s-1-.1-1-1 .45-1.35 1-1c.55.35 1 .1 1-.55 0-.7-.85-.95-2-.65-1.1.3-2 .1-2-.4s-.45-.9-1-.9-1 .4-1 .85zM140.8 203.55c-1.7 1.7.6 5.45 3.4 5.45 2.7 0 3.35-2.5 1.25-4.85-.95-1.05-2.45 1.15-1.5 2.25.75.9.6 1.25-.55 1.25-1 0-1.4-.6-1.05-1.8.45-1.8-.55-3.3-1.55-2.3zM233.7 203.75c-.8 1.3.5 7.25 1.4 6.7 1.2-.75 1.15-7.45-.05-7.45-.5 0-1.15.35-1.35.75zM237.5 204c-.35.55-.1 1 .5 1 .75 0 .95 1.05.5 3-.35 1.65-.4 3-.05 3 .6 0 3.55-6.25 3.55-7.45 0-1-3.85-.55-4.5.45zM115.55 204.8c-1.85 1.85-.35 4.05 2.7 3.95l3.25-.15-2.75-1c-1.5-.55-2.75-1.4-2.75-1.85 0-.5.45-.6 1-.25s1.75.2 2.65-.3c1.35-.8 1.2-.95-.95-.95-1.45 0-2.85.25-3.15.55zM129 206.55c0 2.05.5 2.45 3 2.45s3-.4 3-2.35c0-1.9-.55-2.35-3-2.45-2.55-.05-3 .3-3 2.35zM136 206.45c0 1.9.5 2.55 2.05 2.55 1.6 0 2-.55 1.75-2.25-.45-3.3-3.8-3.6-3.8-.3zM70.5 216c-.4.65 28.5 1 85.95 1 57.05 0 86.55-.35 86.55-1s-29.3-1-85.95-1c-56.2 0-86.15.35-86.55 1zM70.4 226.45c-1.45 3.75 2.2 7.35 4.8 4.75.7-.7.4-.95-.85-.85-1.25.1-1.85-.5-1.85-1.85 0-1.3.6-1.95 1.75-1.85.95.05 1.75-.25 1.75-.75 0-1.5-5-1-5.6.55zM77.05 228.6c.1 3.1.25 3.5.95 1.9.65-1.5.9-1.6.95-.4.1 2.9 6.05 2.25 6.05-.65 0-1.5-.6-2.45-1.5-2.45-.8 0-1.5.7-1.5 1.55 0 1.1-.75.75-2.5-1.15l-2.5-2.7.05 3.9zM103.35 225.7c1.4.35 1.75 1.2 1.4 3.4-.25 1.75.05 2.9.75 2.9s1-1.25.75-3.25c-.35-3.1-.3-3.15 1.2-1.3.85 1.05 1.55 2.6 1.55 3.35 0 1.15.3 1.2 1.5.2s1.5-1 1.5.15c.05 1.05.25 1.05 1-.15.7-1.05 1.2-1.15 1.75-.35.4.6 2.1 1.1 3.75 1.1 1.65-.05 2.45-.25 1.75-.5-1.6-.55-1.6-2.95 0-3.5.65-.2-.55-.45-2.7-.55-2.2-.1-4.3.4-4.75 1.05-.6 1-.75 1-.8 0 0-.7-.9-1.25-2-1.25s-2-.45-2-1-1.45-.95-3.25-.9c-1.9.1-2.45.35-1.4.6zM124.2 228.5c.1 3.3 4.8 5.75 4.8 2.55 0-.55-.75-.7-1.65-.35-1.35.5-1.55.05-1.15-2.55.3-2.15.05-3.15-.85-3.15-.85 0-1.25 1.25-1.15 3.5zM233.2 229.25c.45 4.85 3.8 5.15 3.8.3 0-2.9-.35-3.55-2.05-3.55-1.75 0-2.05.55-1.75 3.25zM86 230.5c0 1.9.5 3.5 1.05 3.5.6 0 .8-.4.5-.9-.3-.5.15-1.15.95-1.45 2.3-.9 1.9-4.65-.5-4.65-1.6 0-2 .65-2 3.5zM93.4 228.45c-.85 2.15.25 3.3 3.1 3.3 1.75 0 2.5-.55 2.5-1.8 0-1 .55-2 1.25-2.3.7-.25-.45-.55-2.55-.55-2.4-.05-3.95.4-4.3 1.35zM130.15 229.05c-.15 2.4.15 2.55 4.85 2.7 4.65.1 5-.05 5-2.25 0-3.2-6.9-3.15-8.05.05-.65 1.75-.75 1.7-1.2-.55l-.5-2.5-.1 2.55zM84.5 238.05c-8.25.3 24.05.65 71.75.75 63.9.15 86.75-.1 86.75-.95 0-1.15-125.45-1-158.5.2zM70.05 247.95c-1.75 3.25-.3 5.05 4.05 4.85 2.8-.1 3.9-.6 3.95-1.7.05-1.2.3-1.1.95.4.8 1.9.85 1.9.95-.25 0-1.25-.4-2.25-.95-2.25-.55 0-1-.7-1-1.5 0-.85-.45-1.5-1-1.5s-1 1.1-1 2.4c0 2.5-2.7 4.3-4.2 2.8-1.3-1.3.25-4.4 1.85-3.8.75.3 1.35.1 1.35-.45 0-1.75-3.9-1-4.95 1zM102 247.05c0 .6.45.8 1 .45.6-.35 1 .65 1 2.45 0 1.65.45 3.05 1 3.05s1-1.15 1-2.5c0-1.4.45-2.5 1-2.5s1 1.1 1 2.5c0 1.85.55 2.5 2 2.5 2.55 0 2.65-3.1.15-5.35-2-1.8-8.15-2.25-8.15-.6zM129 249.45c0 3.45 1.35 4.8 2.35 2.3.4-1 .5-1 .55 0 .05.85 1.9 1.25 5.45 1.25h5.35l-1.1-3.5c-1.1-3.55-2.6-4.7-2.6-2 0 .8-.35 1.45-.75 1.4-2.1-.35-3.25.25-3.25 1.75 0 .95-.3 1.35-.7.95-.4-.4-.75-1.7-.75-2.9-.05-1.5-.75-2.3-2.3-2.5-1.95-.3-2.25.1-2.25 3.25zM154.05 249c-.15 1.9-.5 2.7-.75 1.75-.25-.95-.85-1.75-1.3-1.75-.45 0-1.05.8-1.3 1.75-.4 1.4-.5 1.35-.6-.35-.15-2.85-6.1-2.2-6.1.7 0 2.4 1.7 2.5 2.3.15.4-1.5.5-1.45.65.25.2 2 .2 2 1.05 0 .7-1.7.85-1.7.95-.25.05 1.5 1.15 1.7 9.05 1.6l9-.15v-3.35c0-1.85-.45-3.35-1-3.35-1 0-1.25.95-1.2 4.5.05 1.75 0 1.8-.45.15-.5-1.7-.6-1.7-2.45-.05-1.1 1-1.9 1.25-1.9.55 0-.65.5-1.15 1.05-1.15.6 0 .8-.45.4-1.05-.4-.7-1.05-.7-2.05.1-1.15.95-1.4.8-1.4-.95 0-1.15-.45-2.1-.95-2.1-.55 0-.75 1.3-.4 3 .35 1.85.2 3-.45 3-.6 0-1.25-1.45-1.5-3.25l-.4-3.25-.25 3.5zM170.45 247.05c-.35.6.2 2 1.2 3.2 1.7 1.9 1.7 2.05.1 1.45-.95-.35-1.75-.25-1.75.25s2.05.9 4.5.9c4.25 0 4.5-.15 4.4-2.7l-.1-2.65-.7 2.5-.7 2.5-.8-2.5c-.7-2.1-.9-2.2-1.3-.7-.35 1.45-.75 1.55-1.9.65-1.6-1.35-1.95-3.4-.4-2.45.55.35 1 .15 1-.45 0-1.35-2.7-1.35-3.55 0zM90.6 247.8c-.4.65-1.8 1.2-3.15 1.2-1.35 0-2.45.55-2.5 1.25 0 .7-.45.45-1.05-.5-.55-1-1.45-1.5-2-1.2-.65.4-.5 1.25.3 2.25.95 1.2 1 1.4.05.85-.7-.45-1.25-.3-1.25.3 0 .55.9 1.05 2 1.05s2 .45 2 1c0 2.4 2 .7 2.05-1.75.05-1.8.3-2.25.75-1.25.9 2 3.3 2.45 4.35.8.65-1 .8-1 .85-.05 0 .7.7 1.25 1.5 1.25.85 0 1.5-.85 1.5-1.95 0-2.35-1.6-3.5-2.6-1.9-.5.85-.95.65-1.4-.65-.45-1.3-.9-1.5-1.4-.7zM114.25 248.75c-1.45.5-1.7 4.25-.3 4.25.55 0 .75-.7.4-1.5-.3-.85-.05-1.5.55-1.5.6 0 1.1.65 1.1 1.4 0 1 1.35 1.4 5.05 1.35 2.8-.05 4.5-.4 3.8-.85-.7-.4-1.6-.55-2-.3-.4.25-1-.05-1.35-.6-.35-.6-.3-1 .2-.9 1.9.35 4.6-.15 4-.7-.75-.75-9.7-1.25-11.45-.65zM180.85 248.2c-.75 1.9-.3 4.8.8 4.8 1.55 0 1.85-3.6.35-4.5-.55-.35-1.05-.5-1.15-.3zM185.25 248.7c-1.5.55-1.7 6.3-.2 6.3.6 0 .8-.45.45-1-.35-.55.1-1 .95-1s1.55-.85 1.55-1.95c0-2.2-.95-3-2.75-2.35zM191.65 248.65c-.35.4-.65 1.45-.65 2.4 0 2.4 12.95 2.45 13.05.05.05-1.2.3-1.1 1 .4.85 1.85.9 1.8.7-.4-.25-2.4-6.15-3.9-7.4-1.9-.2.4-1.55.3-2.95-.25-3-1.15-2.9-1.1-3.75-.3zM207.85 248.25c-.7 1.45-.3 4.75.6 4.75 1.85 0 2.4-.9 1.8-3.05-.4-1.6-1.9-2.65-2.4-1.7zM233.5 249c-.3.45.05 1.05.75 1.3 1 .35 1 .7 0 1.75-1.8 1.9-1.55 2.95.65 2.95 1.05 0 1.8-.55 1.75-1.25-.1-.7.3-1.25.85-1.25s.95.55.85 1.25c-.2 1.95 1.45 1.45 2.7-.85 2-3.7-5.35-7.5-7.55-3.9zM143 260l-73.5.5 86.75.25c47.7.15 86.75-.1 86.75-.5 0-.9-4.75-.9-100-.25zM71.15 269.9c-.7.45-1.15 1.9-1 3.2.45 3 7.4 3.9 8.2 1.05.35-1.45.45-1.45.55.1.15 2.65 6.1 2.45 6.1-.2 0-2.2-1.5-3.45-3.05-2.5-.7.45-.75 1 0 1.85.75.9.6 1.25-.45 1.25-.85 0-1.5-.6-1.5-1.4 0-3.4-5.5-5.5-8.85-3.35zm3.35 1.1c.35.6 1.05.75 1.55.45.55-.3.95.25.95 1.25 0 1.25-.8 1.95-2.5 2.05-2.05.2-2.5-.2-2.5-2.25 0-2.55 1.35-3.35 2.5-1.5zM103 272.5c0 1.9.45 3.5 1 3.5s1-.65 1-1.4c0-.8.55-1.65 1.25-1.95 1-.4 1-.5 0-.55-.7-.05-1.25-.6-1.25-1.2s.7-.85 1.5-.55c.85.35 1.5.15 1.5-.4 0-.5-1.1-.95-2.5-.95-2.2 0-2.5.45-2.5 3.5zM125.4 270.15c-.4.65.3 2 1.7 3.15 2.35 1.95 2.35 1.95.15 1.25-1.35-.4-2.25-.25-2.25.4 0 .55 1.15 1.05 2.5 1.05 2.9 0 3.2-1.55.8-4.2-1.6-1.75-1.6-1.85 0-1.25.95.4 1.7.2 1.7-.45 0-1.45-3.7-1.4-4.6.05zM90.9 270.45c-2.15 2.15.45 5.5 4.2 5.35 2.15-.05 3.9-.45 3.9-.9 0-.4.25-1.4.55-2.2.45-1.15-.2-1.45-2.65-1.3-2.2.1-3.45.8-3.95 2.15-.6 1.7-.75 1.55-1.1-.9-.2-1.55-.6-2.55-.95-2.2zM233.7 270.65c-2.75 2.75-.6 6.35 3.75 6.35 4.4 0 4.4 0 4.25-3.5-.15-2.55-.65-3.5-1.9-3.5-1.05 0-1.6.75-1.55 2 .1 1.1.55 2 .95 2 .45 0 .8.45.8 1 0 2.3-2.9.8-3.2-1.65-.3-2.7-1.8-4-3.1-2.7zM85.8 274.5c-.45 4.05-.4 4.15 2.35 1.55 2.25-2.05 1.95-5.05-.5-5.05-.9 0-1.6 1.35-1.85 3.5zM108.7 271.65c-1.55 1.55-.65 4.35 1.35 4.35 1.6 0 2-.55 1.75-2.15-.3-2.3-1.9-3.4-3.1-2.2zM113.1 273.25c-.1 2.4.25 2.75 2.9 2.75 2 0 3-.5 3-1.5 0-.85.7-1.5 1.5-1.5.85 0 1.5-.45 1.5-1 0-2.1-7-.6-7.1 1.5-.1 1.65-.25 1.55-.9-.5l-.8-2.5-.1 2.75zM133.55 271.8c-1.55 1.5-.45 4.4 1.45 3.9 1.3-.35 2 0 2 .9 0 .75.95 1.4 2.1 1.4 1.7 0 2-.45 1.55-2.15-.4-1.6-.25-1.85.6-1 1.95 1.95 3.75 1.3 3.75-1.35 0-2.55-1.35-3.35-2.5-1.5-.35.6-1.15.7-1.8.3-1.45-.95-6.4-1.25-7.15-.5zM70 283c0 .55.9 1 2 1s2 .55 2 1.25c.05.85.25.9.75.15.55-.8 25.2-1.3 84.2-1.8 45.95-.4 83.7-.9 83.95-1.15.25-.25-38.55-.45-86.25-.45-57.1 0-86.65.35-86.65 1zM69.5 294.05c-1.05 3.25 3.25 6.8 4.95 4.05.3-.45-.25-.8-1.2-.75-1.15.1-1.75-.55-1.75-1.85s.6-1.95 1.75-1.85c.95.05 1.75-.25 1.75-.75 0-1.9-4.85-.9-5.5 1.15zM76 295.45c0 3.35.1 3.4 4 3.35 3.55-.05 4-.3 4-2.4 0-1.45-.6-2.4-1.5-2.4-.8 0-1.5.8-1.55 1.75 0 1.3-.45 1.05-1.7-1-2.3-3.65-3.25-3.45-3.25.7zM102.5 295.5c0 2.2.5 3.5 1.3 3.5.75 0 1.05-.45.7-1-.35-.55.1-1.7.95-2.6 2.2-2.15 1.95-3.4-.7-3.4-1.9 0-2.25.55-2.25 3.5zM123.35 292.7c1.45.4 1.75 1.1 1.3 3.4-.35 1.6-.15 2.9.4 2.9.5 0 .95-1.35.95-3 0-2.1.5-3 1.6-3 1.25 0 1.5.7 1.2 3-.5 3.45.85 4.15 1.5.75.45-2.25.45-2.25.55-.05.1 1.75.65 2.1 2.9 1.85 3.9-.45 3.9-.45 2.25-1.55-1-.65-1.1-.95-.25-1 .7 0 1.25-.5 1.25-1.1 0-.7-.95-.9-2.45-.5-1.5.4-2.95.05-3.9-.9-.85-.85-3.1-1.45-5.35-1.4-2.1.1-2.95.35-1.95.6zM139 293.05c0 .6.45.8 1 .45.6-.35 1 .65 1 2.45 0 1.65.45 3.05 1 3.05s1-1.4 1-3.05c0-1.8.4-2.8 1-2.45.55.35 1 1.7 1 3.05 0 1.8.55 2.45 2 2.45 1.5 0 2-.65 2-2.6 0-1.95-.4-2.45-1.55-2-.85.3-1.75-.05-2.1-.9-.65-1.7-6.35-2.1-6.35-.45zM172.5 295.5c0 1.9.35 3.5.75 3.5s.75-.7.75-1.5c0-1.9 2.6-1.95 3.35-.05.95 2.55 6.65 1.65 6.65-1.05 0-2.05-.45-2.3-3.5-2.05-2.35.2-3.5-.15-3.5-1.05 0-.7-1-1.3-2.25-1.3-1.9 0-2.25.55-2.25 3.5zM229.65 292.65c-1.05 1.05-.75 2.55.35 1.85.55-.35 1-.15 1 .4s-.45 1.25-1 1.6c-2.5 1.55-.9 3.35 3 3.3 4.75-.05 5.2-.55 4.35-4.7-.65-3.4-3.3-4.35-3.1-1.1.1 1.1.55 2 .95 2 .45 0 .8.45.8 1s-1.2 1-2.6 1c-2.25 0-2.45-.25-1.4-1.5 1.95-2.35-.2-5.95-2.35-3.85zM89.9 294.75c-.05 1.05-.25 1.25-.55.5-1.2-2.95-4.35-1.35-4.35 2.25 0 4.05.55 4.3 3.15 1.35 1-1.2 1.85-1.7 1.85-1.15s1.35 1.05 3 1.1c3 .05 4.05-1.2 1.75-2.15-1-.4-1-.5 0-.55.7-.05 1.25-.6 1.25-1.2 0-.65-.9-.9-2-.6-1.1.3-2 .1-2-.4 0-1.7-2-.9-2.1.85zM113 294.8c0 1.95 2.4 3.95 4.7 3.95l2.8-.05-2.75-1.15-2.75-1.15 2.75-1.05c2.7-1 2.7-1-1-.95-2.05 0-3.75.2-3.75.4zM150 296.5c0 1.35.45 2.5.95 2.5.55 0 .75-.65.45-1.4-.3-.75-.05-1.7.55-2.05.6-.4 1.05.2 1.05 1.4 0 1.4.65 2.05 2 2.05 1.45 0 2-.65 2-2.5 0-2.2-.45-2.5-3.5-2.5s-3.5.3-3.5 2.5zM158 296.7c0 3.2 3.95 3.25 4.1.05.1-2.15.15-2.15.9.25l.8 2.5.1-2.75c.1-2.5-.2-2.75-2.9-2.55-2.4.2-3 .7-3 2.5zM165.65 294.65c-.35.4-.65 2-.65 3.6 0 4.25 3.35 3.35 3.7-1 .25-3.1-1.25-4.35-3.05-2.6zM185.1 296.7l.1 2.8.8-2.5c.75-2.4.8-2.4.9-.25.05 1.25.6 2.25 1.15 2.25 1.8 0 .6-4.45-1.3-4.8-1.35-.25-1.75.3-1.65 2.5zM70.5 305c-.4.65 28.5 1 85.95 1 57.05 0 86.55-.35 86.55-1s-29.3-1-85.95-1c-56.2 0-86.15.35-86.55 1zM70.05 315.95c-1.85 3.4 1 6.9 4.05 4.95 1.15-.7 1.1-.85-.3-.9-.9 0-1.95-.4-2.25-.9-.95-1.5.6-4.25 2.1-3.7.75.3 1.35.1 1.35-.45 0-1.75-3.9-1-4.95 1zM76 317.5c0 3.45 1.95 5.1 2.05 1.75.1-1.5.2-1.45.95.25.8 1.9.85 1.9.95-.25 0-1.25-.4-2.25-.95-2.25-.55 0-1-.7-1-1.5 0-.85-.45-1.5-1-1.5s-1 1.55-1 3.5zM100.35 315.55c-.35.9.2 2.2 1.25 3.1 1.7 1.35 1.7 1.45.15.95-.95-.3-1.75-.1-1.75.45 0 .5.9.95 2 .95 2.05 0 2.75-2.4 1-3.5-.55-.35-1-1.15-1-1.8 0-.7.4-.6 1 .3.85 1.3.95 1.25 1-.25 0-2.15-2.85-2.3-3.65-.2zM116 315c0 .55.45 1 1 1s1 1.35 1 3 .45 3 1 3 1-1.6 1-3.55c0-2.15.4-3.3 1-2.95.55.35 1 .15 1-.45 0-.55-1.35-1.05-3-1.05s-3 .45-3 1zM129 317.45c0 1.95.45 3.55 1 3.55s1-.7 1-1.5c0-.85.5-1.5 1.1-1.5.6 0 .9.6.6 1.35-.35.95.4 1.35 2.65 1.4 1.75 0 2.6-.2 1.9-.45-.7-.25-1.25-1.2-1.25-2.15-.05-1.35-.2-1.4-.9-.25-.7 1.1-1 .85-1.25-1-.6-4.3-4.85-3.85-4.85.55zM139 315.5c0 .8-.45 1.5-1 1.5s-1 .5-1 1.05c0 .6.45.8 1 .45.55-.35 1 .1 1 .95 0 .9.85 1.55 2 1.55 1.35 0 2-.65 2-2 0-1.1-.45-2-1-2s-1-.7-1-1.5c0-.85-.45-1.5-1-1.5s-1 .65-1 1.5zM229 316.05c0 .6.45.8 1 .45.55-.35 1 .05 1 .9 0 .8-.45 1.75-1 2.1-1.6 1-1.15 2.5.75 2.5 1.3 0 1.8-.9 1.95-3.5.1-2.85-.2-3.5-1.75-3.5-1.1 0-1.95.5-1.95 1.05zM233.8 317.4c-.65 3.2.55 5.05 2.65 4.25 1.15-.45 1.6-1.55 1.35-3.4-.4-3.6-3.4-4.25-4-.85zM81.65 316.65c-1.5 1.5-.6 4.35 1.35 4.35 1.1 0 2 .45 2 1 0 2.4 2 .7 2.05-1.75.05-1.85.3-2.25.75-1.25.8 1.75 8.2 2.75 8.2 1.15 0-.55.25-1.6.5-2.3.4-1.05-.8-1.3-5.5-1-4.75.25-6 .65-6.05 2-.05 1.15-.35 1-1-.6-.95-2.4-1.25-2.6-2.3-1.6zM106.25 316.65c-3.55 1.45-1.2 4.2 3.5 4.15 3.8 0 4.3-.2 2.5-.9-1.25-.45-2.55-1.55-2.9-2.4-.6-1.55-1-1.7-3.1-.85zM121.95 317.55c-.95 1.15-.95 1.75 0 2.9 1.5 1.8 4.05.9 4.05-1.45s-2.55-3.25-4.05-1.45zM144.5 316.85c-1.25 1.25-.35 4.15 1.25 4.05 1.05-.05 1.25-.25.5-.55-.7-.3-1.25-1.25-1.25-2.2.05-1.4.15-1.45 1-.15.55.8 1 1.05 1 .5.05-.55.7-.15 1.5.95 1.75 2.25 3.4 1.2 1.9-1.15-.95-1.55-4.85-2.5-5.9-1.45zM151.45 317.7c.3.8.55 1.9.55 2.4s.95.9 2.05.9c3.1 0 2.25-4.45-.85-4.6-1.65-.1-2.15.3-1.75 1.3zM162.25 316.7c-.7.25-1.3 1.2-1.3 2.15-.1 1.3-.25 1.25-.95-.35-.8-1.9-.85-1.9-.95.25-.05 1.6.5 2.25 1.95 2.25 1.2 0 2.05-.7 2.05-1.75.1-1.5.2-1.45.95.25.85 1.95.85 1.9.95-.2.05-2.4-.8-3.25-2.7-2.6zM173.5 318.6c-1.5 2.35-1.5 2.4 1.5 2.4 2.15 0 3-.5 3-1.7 0-1.45.2-1.45 1.45.25 1.4 1.9 1.4 1.9 2.15.05.7-1.8.8-1.8 1.6.35.65 1.8 1.1 2.05 2.2 1.1 1.7-1.35 1.45-4.25-.4-4.9-.85-.25-1 .05-.5.95.65 1.1.55 1.15-.55.15-.95-.85-1.65-.9-2.65-.1-.7.6-1.3.7-1.3.2 0-2-4.95-1.05-6.5 1.25zM109.5 327c-29.95.4-18.2.6 46.75.75 61.3.2 86.75-.05 86.75-.8 0-1.1-44.4-1.1-133.5.05zM298.85 331.75c-.25.95-.15 5.1.2 9.25l.65 7.5.15-9.25c.15-8.9-.15-11.2-1-7.5zM69.8 339.5c.4 3.3 5.2 5.65 5.2 2.55 0-.55-.65-.75-1.5-.4-.8.3-1.5.1-1.5-.45s.55-1.25 1.25-1.55c1-.4 1-.5 0-.55-.7-.05-1.25-.6-1.25-1.15 0-.6.45-.8 1-.45.55.35 1 .15 1-.45 0-.55-1.05-1.05-2.3-1.05-2.05 0-2.25.4-1.9 3.5zM107 337.05c0 .6.45.8 1 .45.6-.35 1 .65 1 2.45 0 1.65.45 3.05 1 3.05s1-1.4 1-3.1c0-2.6.25-2.95 1.4-2 .75.65 1.15 2.05.9 3.15-.3 1.05-.05 1.95.5 1.95.6 0 1.25-1 1.5-2.25l.45-2.25.1 2.25c.1 1.8.75 2.25 3.2 2.25 2.6 0 3.05-.35 2.75-2.15-.45-3.1-2.6-3.45-3.75-.7-.75 1.85-.95 1.95-1 .55-.1-3.75-10.05-7.3-10.05-3.65zM125 339.45c0 3.45 1.35 4.8 2.35 2.3.4-1 .5-1 .55 0 .2 2.8 1.6 1 1.6-2 0-2.6-.45-3.3-2.25-3.55-1.95-.3-2.25.1-2.25 3.25zM228.85 338.35c.65.75.85 1.65.45 2-.35.35-.1.65.55.65s1.15.45 1.15.95c0 .55-.65.75-1.5.4-.8-.3-1.5-.1-1.5.45s2 1.05 4.45 1.05c4.45 0 4.5-.05 4.35-3.45-.1-2.55-.55-3.4-1.95-3.4-1.9 0-1.55 2.8.55 4.2.55.4.7 1 .35 1.4-1.1 1.1-4.7-2.6-4.1-4.2.4-.95-.15-1.4-1.65-1.4-1.75 0-2 .3-1.15 1.35zM238 339c0 1.1.45 2 1 2s1 .5 1 1.05c0 .6-.45.8-1 .45-.55-.35-1-.15-1 .45 0 .55.9 1.05 2 1.05 1.35 0 2-.65 2-2 0-1.1-.5-2-1.1-2-.8 0-.75-.45.1-1.5 1.05-1.25.9-1.5-.9-1.5-1.45 0-2.1.65-2.1 2zM75.9 338.25c-.25.9-.35 6.75-.1 6.75.2 0 1-.65 1.8-1.45.8-.8 2.1-1.2 2.95-.9.95.4 1.45-.1 1.45-1.45 0-1.85-5.55-4.6-6.1-2.95zM85.7 338.65c-1.3 1.3-.7 4.35.8 4.35.85 0 2.4.55 3.5 1.2 2.6 1.65 4 .1 3.3-3.5-.65-3.3-2.5-3.1-3.35.35l-.65 2.45-.4-2.4c-.4-2.5-2-3.7-3.2-2.45zM94.2 340.25c.5 3.5 3.8 3.6 3.7.05l-.1-2.8-.8 2.5c-.75 2.4-.8 2.4-.9.25-.05-1.25-.6-2.25-1.15-2.25-.6 0-.95 1-.75 2.25zM99.55 338.8c-1.8 1.8-.35 4.05 2.5 4 1.9-.05 2.6-.4 1.8-.9-.7-.4-1.6-.55-2-.3-.4.25-1-.05-1.35-.6-.35-.6-.3-1 .2-.9 2 .35 4.3-.15 4.3-1 0-.9-4.55-1.2-5.45-.3zM131 340.7c0 1.65.6 2.3 2 2.3 1.45 0 2-.65 2-2.45 0-1.8-.5-2.4-2-2.3-1.35.15-2 .9-2 2.45zM136.05 340.85c.1 2.35.2 2.45.95.65.75-1.7.85-1.75.95-.25.05 1.25.9 1.75 3.1 1.75 2.6 0 3.05-.35 2.75-2.15-.4-2.7-2.8-3.7-2.8-1.2-.05 1.5-.2 1.6-.95.4-1.65-2.6-4.05-2.1-4 .8zM145 339.45c.05 1.9 1.65 3.65 3.1 3.35 1.75-.4 2.85-1.85 2.85-3.8 0-1.35-.1-1.35-.95 0-.6.9-1 1-1 .3 0-.65-.9-1.1-2-1.05-1.1.1-2 .65-2 1.2zM152 338.9c0 .5-.25 1.65-.6 2.5-.45 1.2 0 1.6 1.85 1.6 2.1 0 2.4-.4 2-2.5-.45-2.3-3.25-3.65-3.25-1.6zM156.4 341.5c.1 2.85 1.6 5.45 1.6 2.7 0-.45.7-1.7 1.6-2.75 1.35-1.65 1.5-1.7 1-.2-.4 1.25 0 1.75 1.45 1.75s1.95-.7 1.95-2.55c0-2.65-3.5-3.3-5.25-.95-.45.6-.75.5-.75-.25 0-.7-.35-1.25-.85-1.25-.45 0-.75 1.55-.75 3.5zM133.5 349l-64 .5 86.75.25c47.7.15 86.75-.1 86.75-.5 0-.9-22.65-.95-109.5-.25zM26.35 400c0 4.1.15 5.8.4 3.75.2-2.05.2-5.45 0-7.5-.25-2.05-.4-.4-.4 3.75zM286.35 411.5c-.35.9-.1 2.15.5 2.75 2.75 2.75-.95 7.75-5.75 7.75-4.3 0-5.55 2.15-3.1 5.3 1.25 1.55 1.65 2.8 1 3.2-1.65 1.05-1.25 11.45.5 12.15 4.35 1.65-.2 2.35-15.45 2.35-18.85 0-19.7.3-14.4 5.45 5.35 5.2 9.15 5.95 9.8 1.9.2-1.65 1.3-1.85 10-1.85 10.05 0 12.05-.85 13.85-5.75.35-.95.75-.95 1.65-.1.9.85.95 1.65.2 3.1-.6 1.1-.85 2.2-.55 2.5.25.25-.2.75-1 1.1-1.1.4-1.35.1-.9-1.15.55-1.5.35-1.45-1.5.2-1.65 1.4-3.05 1.7-5.85 1.25-2.45-.35-3.35-.25-2.7.4 1.8 1.8 8.7 1.7 13.05-.15 4.3-1.85 4.4-2 6.85-12.15.35-1.5 1.35-2.75 2.15-2.75.9 0 1.35-.85 1.2-2.25-.1-1.25.15-3 .55-3.95 1.15-2.65.25-5.2-2.15-6.25-1.9-.85-2.25-1.9-2.5-7.5-.3-6.75-3.65-10.15-5.45-5.55zm1.85 14c.85 1.95 1.4 2.25 2.45 1.35.75-.6 1.35-.8 1.35-.45 0 1.65-.3 2.1-1.15 1.85-.6-.2-.75 1.6-.35 4.5.5 3.6.35 4.4-.45 3.25-.85-1.15-1-.55-.55 2.5l.6 4-2.3-4.5c-2-3.95-2.7-4.5-5.6-4.5-3.35 0-4.25-2.3-1.3-3.3.95-.3 1.15 0 .6.9-.65 1.15-.55 1.15.55.15 1.7-1.55 3.3-1.65 2.35-.1-.45.75-.25.9.5.4.7-.45 1.85 0 2.7 1.1 1.4 1.75 1.45 1.7.45-.4-.6-1.2-2.5-2.55-4.25-3-1.7-.45-3.75-1.95-4.55-3.3-1.3-2.15-1.3-2.25 0-.7.8.95 2.85 1.75 4.55 1.75 1.9 0 3.5.7 4.1 1.75.6.95 1.05 1.25 1.05.65.05-.65-.9-2.3-2-3.75-1.15-1.45-1.6-2.65-1-2.65.6 0 1.6 1.1 2.25 2.5zm-1.5 13.15c1.95 2.95 2.25 8.8.6 10.45-.85.85-.95.2-.3-2.5 1.05-4.85-1.45-8.5-4.75-6.75-2.4 1.3-3.8.05-2.85-2.4.9-2.45 5.35-1.75 7.3 1.2zm-28.95 8.1c-2.1.2-5.25.2-7-.05-1.8-.2-.1-.4 3.75-.35 3.85 0 5.3.15 3.25.4zm20 0c-2.1.2-5.25.2-7-.05-1.8-.2-.1-.4 3.75-.35 3.85 0 5.3.15 3.25.4zm-23 2.65c-.95.7-1.4 1.7-1 2.15.4.5-.05.3-1-.45-2.55-1.95-2.15-3.1 1-3.05 2.5 0 2.6.15 1 1.35zm4.95-.25c-2.1.8-2.65 1.5-2.15 2.95.65 2.05-1 2.65-2.15.75-.85-1.4 3.15-4.9 5.45-4.75.9 0 .4.5-1.15 1.05zM175.8 444.75c12.85.15 33.55.15 46 0 12.5-.15 2-.3-23.3-.3s-35.5.15-22.7.3zM4.95 458c-.1 1.35-.3 5.1-.45 8.25l-.3 5.75h3.4c3.75 0 4.55-1.5 1.4-2.5-1.6-.5-2-1.55-2.05-5.3-.1-5.55-1.65-10.45-2-6.2zM283.9 461.75c-.55 9.95-.5 10.25 1.3 10.25 1 0 1.8-.7 1.8-1.55 0-.85-.35-1.35-.75-1.1s-.6-1.75-.4-4.45c.2-3.1-.05-4.9-.75-4.9-.6 0-1.15.8-1.2 1.75z"/></g></svg>