<svg xmlns="http://www.w3.org/2000/svg" viewBox="0, 0, 640, 757"><path d="M381.212 1.763c.887 1.267-.254 3.04-2.281 3.8-10.899 4.179-3.295 22.671 10.392 25.584 11.026 2.279 16.602-18.872 7.097-26.724-4.816-3.927-17.363-6.206-15.208-2.66zm10.519 40.783c-.887 1.266-3.295 1.773-5.323 1.013-5.323-2.027-12.04 4.053-8.745 7.979 1.775 2.153.761 4.939-3.675 9.752-7.35 7.853-8.998 8.233-9.125 2.28-.253-3.8-.507-3.673-2.281.633-1.14 2.787-1.647 7.093-1.267 9.499.507 2.407-.254 4.433-1.521 4.433-1.394 0-2.535-2.026-2.535-4.433-.126-3.799-.507-3.673-2.281.634-4.182 10.385-.38 21.531 6.464 18.871 4.689-1.773 6.083-1.393 6.083 1.52 0 7.346-17.236 3.8-20.024-4.18-1.267-3.799-1.648-7.599-.887-8.359.76-.886-.38-1.52-2.788-1.52-5.323 0-5.323.634.887 10.766 5.956 9.752 6.463 14.565 1.394 14.565-2.028 0-4.309 1.14-5.196 2.66-1.141 1.646.634 2.026 5.069.886 5.45-1.266 6.97-.633 8.111 3.8 1.267 5.193 9.632 7.473 11.279 3.04.507-1.267 2.155-.887 3.802.886 2.408 2.533-5.323 3.8-38.02 6.333-42.455 3.293-47.904 3.8-68.055 6.586-7.477 1.013-12.166.633-12.166-.887 0-1.393-2.788-3.166-6.337-4.052-6.337-1.647-8.871-6.586-3.422-6.586 1.648 0 2.281-.76 1.268-1.647-.888-1.013 0-4.306 2.154-7.473 4.182-6.586 1.014-10.638-3.802-4.812-1.647 2.026-3.802 3.293-4.689 2.786-5.83-3.673-10.899 5.953-7.731 14.692 1.775 4.939 2.662 9.499 2.028 10.259-2.535 2.533-31.43 5.826-32.317 3.673-1.267-3.673-10.519-2.66-10.519 1.14 0 2.153-3.802 4.053-9.505 4.939-30.415 4.686-62.225 10.639-96.95 18.112-21.671 4.686-48.665 10.512-60.198 12.918l-20.911 4.433v579.315l185.663-.633 185.664-.634 8.491-15.958c26.233-49.648 4.816-101.83-44.737-108.289-12.166-1.646-12.927-2.153-13.687-9.626-1.267-13.678-38.02-12.158-39.541 1.52-1.013 8.613-6.843 10.386-26.613 8.233-25.6-2.787-33.711-5.7-42.456-15.705-14.194-16.212-9.505-31.917 27.755-91.951 10.899-17.478 28.514-45.975 39.287-63.327 57.536-92.964 128.38-184.535 181.101-234.183l16.095-15.072 11.152 11.779c8.618 9.119 11.153 13.679 11.153 20.265 0 8.232 9.758 21.657 13.18 18.364.76-.76 2.154 5.447 3.042 13.806 2.027 18.111 5.196 20.138 5.702 3.926.254-6.333-.506-10.892-1.647-10.132-1.141.633-1.521-1.014-.76-3.8 2.027-7.599 2.661-7.093 28.768 19.631 30.542 31.284 36.372 39.516 32.95 46.102-3.295 6.206-3.421 8.486-.126 6.46 1.394-.887 2.534.38 2.534 2.659 0 2.66-1.394 3.673-3.802 2.787-2.534-1.013-3.802.126-3.802 3.546 0 8.486-10.392 11.399-26.867 7.473-11.026-2.66-15.208-2.787-19.01-.507-2.535 1.647-10.012 3.04-16.348 3.04-19.517 0-12.167 5.953 11.786 9.625 30.035 4.56 45.37 3.04 56.649-5.572 7.351-5.573 10.012-6.333 12.8-4.053 1.901 1.646 5.957 2.153 8.745 1.266 4.562-1.393 5.196-.506 5.196 7.22 0 4.939 1.14 9.625 2.408 10.512 1.647.886 1.521 3.799 0 7.979-1.774 4.56-1.648 7.599.38 10.006 1.901 2.279 3.042 26.597 3.548 74.599.381 39.009 1.394 71.813 2.282 72.573 1.52 1.646 1.774-3.42 2.281-58.768.127-16.718 1.267-31.03 2.408-31.917 1.14-.76.507-9.372-1.394-18.998-2.408-11.525-3.295-29.89-2.788-53.574.38-19.885-.127-35.717-1.141-35.083-1.014.633-1.901-.76-2.154-3.04-.127-2.407-1.014-6.713-2.028-9.626-1.268-4.306-.38-5.826 4.182-6.966 3.295-.886 10.012-5.319 14.828-9.752l8.871-8.233-.253-29.13c-.634-50.155-10.012-58.514-12.42-11.019-1.901 36.856-3.042 39.516-17.236 42.176-19.643 3.546-23.445 1.266-58.044-34.197l-32.316-33.056-1.648-18.492-1.647-18.618 7.223-.76c6.971-.886 9.252-8.232 3.929-12.285-6.463-4.813-2.915-18.745 7.477-29.384l10.773-11.019-9.252-3.8c-21.037-8.865-24.966-4.939-15.208 15.072l3.802 7.6-6.97-7.22c-5.83-6.079-6.97-9.499-6.97-21.278-.127-18.744-10.773-22.797-61.086-23.304-6.843-.127-11.912-.76-11.152-1.52.76-.76-.76-7.092-3.295-13.932-5.957-15.578-6.083-18.618-.507-16.465 3.802 1.394 3.675 1.014-.38-3.546-2.662-2.913-5.323-4.686-5.957-4.053-5.703 5.826-30.669-16.085-30.796-26.977-.126-7.219-3.802-11.399-6.336-7.219zm18.629 47.621c-.253 9.373-.38 9.373-2.914 2.787-1.521-3.8-5.07-7.979-7.985-9.373-4.815-2.279-4.435-2.533 2.915-2.786 7.858-.127 8.238.253 7.984 9.372zm11.913-4.306c1.268-.253 2.662 1.647 3.042 4.18.634 3.799.38 3.926-1.901.76-2.155-3.167-2.535-3.04-2.662 1.266-.126 4.18-.506 4.433-2.534 1.267-1.394-2.153-2.408-6.08-2.408-8.866 0-3.8.507-4.18 2.154-1.647 1.141 1.774 3.042 3.167 4.309 3.04zm-30.162 20.771c-.507 4.56-1.014.76-1.014-8.232 0-9.119.507-12.792 1.014-8.233.634 4.56.634 11.906 0 16.465zm106.202 53.195c1.014 1.773.887 2.28-.254 1.267-1.14-1.014-3.548-.634-5.322.886-3.549 2.913-8.618 1.14-8.618-2.913 0-3.546 12.039-2.913 14.194.76zm1.014 52.181v6.333l-6.21-5.826c-5.196-4.813-5.703-6.586-3.168-10.639 3.801-6.079 9.378 0 9.378 10.132zm-259.676-152.744c-5.702 5.826-4.942 9.626 4.436 20.898l8.491 10.005 3.042-6.966c8.237-18.744-3.422-36.349-15.969-23.937zm56.397 2.786c-6.337 2.533-8.872 5.066-7.858 7.473.761 2.026-.76 6.206-3.422 9.119-2.534 3.04-3.421 4.686-1.774 3.673 1.648-.887 6.463 1.266 10.646 4.686 8.617 7.346 11.659 5.32 12.039-7.599 0-4.18 1.014-10.766 2.155-14.565 2.281-7.98 1.14-8.233-11.786-2.787zm18.249 27.104c0 2.027-2.028 4.56-4.436 5.573-4.182 1.773-5.956 2.406-12.039 3.673-4.943 1.14-8.491 0-12.547-3.926-4.562-4.687-5.196-3.547-7.477 12.792-1.014 7.219-.634 8.992 1.141 6.332 2.154-3.293 2.788-3.293 4.942.38 2.535 4.18 10.772 3.927 16.602-.633 3.042-2.406 7.477 0 9.378 5.32.888 2.406 2.155.633 3.295-4.687l1.901-8.485 5.577 7.092c3.675 4.686 6.083 5.953 7.35 3.926 1.014-1.646.634-2.913-.887-2.913-1.394 0-2.661-2.153-2.661-4.939 0-2.66-1.141-5.573-2.535-6.459-1.394-.887-2.535-4.307-2.535-7.6 0-3.293-1.14-6.712-2.534-7.599-1.394-.887-2.535.127-2.535 2.153zm-7.477 14.185c-2.028 1.267-4.563 1.774-5.703 1.014-1.141-.634-2.028.633-2.028 2.786 0 4.433-.38 4.56-6.337 2.28-3.421-1.267-3.168-2.027 1.775-4.813 6.97-3.8 18.249-5.066 12.293-1.267zm140.546 4.433c2.788.76 6.59 2.533 8.491 4.053 2.282 1.9 3.802 1.9 5.07 0 .887-1.52 3.928-3.293 6.717-3.926 2.788-.76-1.775-1.267-10.139-1.267-8.364 0-12.927.507-10.139 1.14z" fill="#0048BA"/></svg>