<svg xmlns="http://www.w3.org/2000/svg" viewBox="0, 0, 640, 425"><path d="M446.507 11.426c.853 2.349.213 4.164-1.707 4.912-1.707.641-2.667 2.029-2.027 3.097.747 1.068 2.134 1.495 3.094.854 1.066-.641 2.88.534 4.053 2.67 1.28 2.028 2.24 2.562 2.24 1.174.107-1.388-.747-3.097-1.813-3.737-1.067-.641-1.494-2.99-.854-5.233.534-2.242-.213-4.698-1.706-5.659-1.814-1.175-2.24-.641-1.28 1.922zm-66.774 1.495c-6.613 1.815-2.773 3.63 9.814 4.592 6.186.533 8.64-.107 8.64-2.243 0-1.922-1.92-2.563-5.974-1.922-3.306.427-6.186.214-6.613-.534-.32-.747-2.88-.641-5.867.107zm-223.786 7.902c.106 2.456.533 2.776 1.28.961.853-2.243 2.026-2.029 5.12.854 2.24 2.029 4.8 2.99 5.653 2.136 1.813-1.922-5.333-7.689-9.493-7.689-1.494 0-2.667 1.709-2.56 3.738zm245.653 1.068c.533 1.495 2.88 2.563 5.333 2.563 2.774-.107 3.947.854 3.307 2.669-.64 1.602.427 2.776 2.453 2.776 1.92 0 2.987.962 2.24 2.136-.746 1.175.107 2.136 1.92 2.136 5.44 0 8.214 7.688 4.267 11.639-3.413 3.417-8.32 2.563-6.08-1.068 1.493-2.456-.747-2.349-6.507.107-3.52 1.495-3.626 1.816-.64 2.029 1.92 0 4.267 1.175 5.12 2.563.96 1.602-.533 2.136-4.8 1.495-4.906-.748-6.186-.107-6.186 2.883 0 2.136.746 3.844 1.706 3.844 1.067 0 1.28.961.427 2.243-.853 1.388-2.24 1.495-3.84.32-4.053-3.203-10.24-2.242-8.853 1.282.96 2.776.64 2.776-2.454.213-3.2-2.563-3.52-2.563-2.453.427.747 1.816.533 4.699-.427 6.3-1.173 1.709-.746 3.738 1.067 5.126 2.453 1.922 2.453 2.67-.107 5.019-2.56 2.242-3.093 2.136-3.093-.854s-.533-3.097-3.627-.534c-3.093 2.563-3.413 2.456-2.133-.855.747-2.028.427-3.737-.747-3.737-1.066 0-2.026 1.175-2.026 2.67-.107 1.922-.534 1.815-1.92-.321-1.067-1.601-2.88-2.242-4.054-1.601-1.28.854-1.706-.321-1.066-2.884.64-2.349 2.026-4.271 3.2-4.271 1.066 0 1.493.748.96 1.709-.64.854 1.173 1.815 3.946 2.028 2.88.321 5.76-.533 6.614-1.815.96-1.602-.214-1.922-3.414-.854-2.986.961-4.266.747-3.52-.641.747-1.174-.533-2.563-2.773-3.203-2.347-.534-4.587.213-5.227 1.922-.853 2.349-2.24 2.456-6.506.534-2.88-1.389-4.907-3.204-4.374-4.058.534-.854-1.386-2.029-4.266-2.563-2.88-.534-4.8-.214-4.267.641.64.854-.427 2.135-2.347 2.883-4.693 1.815-5.546 1.602-4.053-.854.747-1.175.32-2.136-.96-2.136-2.453 0-2.027 5.873.747 10.358 1.813 2.883-.854 2.563-10.987-1.281-1.493-.534-2.667.106-2.667 1.495 0 1.388.96 1.922 2.134 1.174 1.173-.747 2.133-.32 2.133.961 0 1.175-1.387 2.243-3.093 2.243-1.814 0-2.667 1.174-2.134 2.669.64 1.709-1.066 2.777-4.48 2.99-4.586.214-5.013-.107-2.666-2.99 2.453-2.99 2.24-3.096-2.347-.64-3.84 2.029-4.373 3.096-2.133 4.485 1.6.961 2.133 2.562 1.28 3.417-2.454 2.349-7.894 2.776-7.894.534 0-1.068-1.066-1.923-2.24-1.923-1.28 0-1.6 1.068-.746 2.456.96 1.495.533 1.923-.854.962-1.386-.855-4.373-.428-6.826.854-5.227 2.776-5.547.64-.534-5.019 3.734-4.165 3.627-4.165-2.026-.427-3.2 2.029-6.827 3.097-8 2.349-1.28-.854-2.24-.427-2.24.641 0 1.174 1.706 2.669 3.733 3.31s-.747.748-6.293.214c-5.76-.534-10.667 0-11.414 1.281-.746 1.175-2.88 1.602-4.586.961-2.454-.961-2.987-.107-2.134 3.204.96 3.63-.426 5.125-7.573 8.222l-8.747 3.631 4.48 4.164c2.56 2.349 5.547 7.048 6.827 10.572l2.347 6.407-4.054-5.019c-3.52-4.592-4.053-4.698-5.333-1.388-1.6 4.164 2.24 10.251 5.227 8.436 1.066-.641 1.92-.214 1.92 1.068 0 1.174-1.174 2.242-2.667 2.242-2.027.107-2.027.427-.107 1.709 1.707 1.067 1.92 2.669.534 4.805-1.067 1.708-2.027 2.029-2.027.747 0-1.388-2.24-1.922-5.333-1.388-7.574 1.495-6.614 4.378 2.133 5.98 4.053.748 7.04 2.136 6.507 2.99-1.707 2.67-14.614-.32-18.987-4.378-2.24-2.136-4.8-3.524-5.547-3.097-.746.534-2.453-.854-3.84-2.99-2.026-3.31-1.706-3.844 2.774-3.844 2.986 0 4.586.961 3.84 2.242-.854 1.175-.32 1.495 1.066.641 1.494-.961 2.454 0 2.56 2.349 0 3.631.214 3.631 2.88.107 1.494-2.029 4.054-3.737 5.547-3.737 1.92 0 1.6-1.388-1.067-4.272-4.586-5.018-7.893-5.659-6.08-1.067 1.6 4.164-2.346 4.057-6.613-.107-4.373-4.485-4.16-9.397.427-9.824 2.026-.214 5.226-.534 6.933-.641 1.813-.214 4.373.534 5.867 1.602 1.6 1.174 2.666 1.281 2.666 0 0-1.068-1.173-3.204-2.666-4.699-2.134-2.349-1.707-2.563 2.666-1.388 4.054 1.068 4.587.961 2.134-.747-5.334-3.738-10.774-2.884-9.174 1.388 1.174 2.99.854 3.31-1.6 1.495-7.146-5.34-12.693-3.311-12.693 4.591 0 4.699-.853 6.941-2.24 6.087-1.173-.747-1.6-3.203-.853-5.446.64-2.242.213-4.058-.96-4.058-1.387 0-1.707-2.563-.96-6.407.853-4.058.426-6.407-1.067-6.407-1.28 0-3.733-3.203-5.44-7.261-3.307-7.902-6.933-11.426-6.933-6.621 0 1.709.96 2.456 2.026 1.709 1.28-.748 1.707.534.96 3.31-.64 2.563-.213 4.592.96 4.592 1.387 0 1.174 1.281-.426 3.203-3.84 4.592-7.147 3.951-5.76-1.067 1.493-5.66-2.88-19.542-5.867-18.474-1.173.427-2.133 2.349-1.92 4.271.107 1.922-.64 2.99-1.6 2.35-1.067-.641-1.92-.214-1.92 1.067 0 1.175 1.067 2.243 2.347 2.243 1.706 0 1.6.961-.214 3.203-1.493 1.709-4.693 3.204-7.146 3.204-3.627-.107-3.947-.427-1.494-2.029 2.774-1.709 2.667-2.242-.426-3.417-1.92-.748-4.374-.854-5.334-.214-.96.641-3.2.214-4.906-.854-2.56-1.602-2.454-1.922.533-2.029 1.92 0 4.16-.854 4.8-1.922.64-1.068-.533-1.602-2.56-1.281-2.027.427-4.267.854-5.013.854-5.547.747-.534 13.028 5.333 13.028 4.267.106 5.653.64 3.84 1.815-1.493.961-6.613 1.708-11.2 1.495-9.707-.214-10.027.107-3.84 5.446l4.587 4.058-7.254 3.096c-3.946 1.709-5.76 3.311-4.053 3.524 1.813.214 4.16.641 5.333.961 1.174.214 4.267.534 6.934.748 5.226.213 6.826 6.62 1.706 6.62-1.92 0-2.666 1.282-1.92 3.204.64 1.708 1.814 2.776 2.56 2.349.747-.427 3.307 0 5.654.854 4.053 1.602 4.053 1.816-1.067 4.058l-5.333 2.456 5.76-1.174c4.48-.855 5.546-.428 4.693 2.028-.64 1.709-.213 4.806 1.067 6.941 1.173 2.136 2.24 2.777 2.24 1.389.106-2.029 2.346-2.35 8.213-.961.427.106-.747 1.708-2.667 3.63-3.733 3.738-2.666 7.262 2.347 7.262 2.453 0 2.987 1.388 2.133 4.912-1.386 5.446 5.974 14.202 7.894 9.397.533-1.389 1.173-.428 1.173 2.242.213 3.737 1.493 4.805 6.08 5.019 3.2 0 4.693.641 3.307 1.175-1.707.64-1.067 2.456 1.813 5.339 3.627 3.63 5.227 3.951 8.96 2.029l4.587-2.35-4.587 1.175c-2.56.641-5.227.214-5.867-.854-.746-1.175 3.627-2.777 9.707-3.524 7.253-1.068 9.92-2.136 8-3.31-2.453-1.602-2.453-2.243 0-4.592 1.6-1.495 2.347-1.709 1.6-.321-.747 1.389.853 2.99 3.947 3.738 2.986.747 5.333 2.349 5.333 3.524 0 1.174 1.707.961 4.16-.534 3.733-2.349 3.84-2.777.533-5.233-3.84-2.776 7.787-2.562 12.267.214 1.067.748 2.667.107 3.52-1.281.96-1.495.64-1.922-.96-.961-1.387.854-2.453.64-2.453-.428 0-1.174 3.84-2.669 8.533-3.417 5.227-.747 8.533-2.456 8.533-4.271 0-2.242 2.347-2.776 9.6-2.029 5.974.641 9.6.214 9.6-1.281 0-1.175.96-2.243 2.134-2.243 1.173 0 2.133 1.495 2.133 3.311 0 1.815.96 2.776 2.133 2.028 1.174-.747 2.134-3.737 2.134-6.62 0-3.097.96-4.805 2.133-4.058 2.88 1.815 2.773 13.882-.107 13.882-1.28 0-1.706.961-.96 2.136 1.92 2.99 7.147-2.563 5.76-6.087-.746-2.243.214-2.563 4.054-1.388l5.12 1.601-5.12-4.591c-2.774-2.456-3.947-4.485-2.56-4.485 1.386 0 2.026-.961 1.28-2.136-1.387-2.242 1.386-2.883 8.213-2.242 2.347.32 3.413-.427 2.56-1.816-.747-1.281-.427-2.456.853-2.669 1.174-.107 3.2-.427 4.374-.748 1.173-.32 3.093-.64 4.373-.854 1.493-.107 1.493-1.495 0-4.378-3.093-5.66-2.773-7.902.96-7.902 1.813 0 3.2.641 3.2 1.388 0 .748 1.387 1.388 3.2 1.388 2.347 0 2.56-.64.747-2.776-2.774-3.417.64-3.844 3.946-.534 1.6 1.602 2.667 1.602 3.734 0 .746-1.281 0-2.349-1.92-2.349-1.814 0-3.307-1.495-3.307-3.311 0-1.815-.853-2.776-2.027-2.135-2.133 1.388-5.546-6.941-3.626-8.863 1.706-1.709 22.933-1.922 24-.321 1.28 2.029-4.8 3.845-9.707 2.883-6.08-1.174-5.44 1.923.96 5.34 3.947 2.135 4.693 3.417 2.667 4.591-2.134 1.389-2.134 1.709 0 1.816 1.493 0 2.666 1.388 2.666 3.203 0 3.844 3.52 4.272 4.907.534.533-1.495 1.92.641 3.2 4.805 1.173 4.058 2.24 5.874 2.347 3.951.106-2.456 1.493-3.203 4.373-2.456 2.773.748 3.627 2.243 2.773 4.592-1.173 3.097-.853 3.097 2.24.641 1.92-1.602 3.094-3.738 2.454-4.805-1.387-2.243 6.613-10.465 10.24-10.465 4.586.107 9.813 4.164 5.333 4.271-2.027 0-3.733.748-3.733 1.602 0 .854 2.346 1.602 5.12 1.602 3.626 0 5.12-1.175 4.906-3.738-.213-3.417-2.133-4.592-6.293-3.951-.853.107-1.6-.854-1.6-2.029 0-1.281-1.067-1.601-2.453-.747-1.387.854-2.027.32-1.387-1.495.533-1.602 3.093-2.883 5.653-2.777 5.44.321 6.187-4.805.854-6.3-3.094-.961-2.987-1.068.533-.961 11.413.214 13.12-.427 13.013-5.232-.213-5.233-2.773-8.757-7.68-10.679-1.813-.747.427-1.388 4.8-1.388 4.374-.107 7.894.534 7.787 1.388-.853 5.126.64 9.077 3.413 9.077 1.814 0 3.2 1.281 3.2 2.99 0 1.602 1.494 4.058 3.2 5.553 3.84 3.203 4.267 6.62.64 5.873-1.386-.321-2.773 1.388-3.093 3.737-.427 2.349-.107 3.097.533 1.602.64-1.495 2.88-2.67 4.907-2.67s4.693-1.067 6.08-2.456c1.92-1.922 3.627-1.281 7.04 2.67 3.413 3.844 4.16 4.165 3.307 1.281-.747-2.242-.32-3.31.853-2.562 1.173.747 4.053 1.708 6.4 2.135 4.48.854 5.867-1.922 2.133-4.271-1.173-.748-2.133-.107-2.133 1.388 0 2.136-.533 2.136-2.667 0-2.133-2.136-2.026-3.097.534-4.698 4.586-2.777 6.4-2.456 6.4 1.174 0 1.709 1.066 3.204 2.24 3.204 1.28 0 1.706.961.96 2.135-.747 1.175.106 1.495 2.026.855 1.814-.748 3.307-2.67 3.307-4.272 0-1.601.96-2.99 2.133-2.99 1.174 0 2.134-1.388 2.134-2.99 0-1.708 1.173-3.523 2.666-4.164 2.027-.748 2.027-1.068.107-1.175-1.493-.107-3.627 1.709-4.907 4.058-1.28 2.349-3.733 4.271-5.44 4.271-4.373 0-3.84-3.737.64-4.912 3.414-.961 3.414-1.068-.106-1.281-2.134-.107-3.307-1.175-2.56-2.243 1.493-2.562-4.8-15.27-9.174-18.473-2.666-2.029-2.56-2.456 1.387-3.524 2.56-.641 5.12-.32 5.76.747.64 1.068 2.133 1.923 3.2 1.923 2.347 0 .107-6.408-3.52-10.145-1.387-1.388-2.987-3.631-3.413-4.912-1.067-3.204-8.107-.107-8.107 3.524 0 2.242-.96 2.136-4.267-.748-2.453-2.029-3.413-4.057-2.133-4.485 3.093-.961 2.667-6.727-.533-6.727-1.814-.107-1.707-.641.426-2.029 2.667-1.708 2.56-2.669-.96-6.514-4.373-4.912-6.08-10.678-3.093-10.678 1.067 0 1.387-1.495.64-3.204-1.707-4.484-10.773-6.407-14.613-3.203-2.667 2.242-3.2 1.922-3.2-2.029 0-2.563.96-4.058 2.133-3.31 1.173.747 2.133.32 2.133-.855 0-1.388-2.666-1.708-6.72-.854-5.653 1.068-6.613.748-5.44-2.136.854-2.242-.213-3.844-2.986-4.805-2.454-.747-3.84-2.563-3.307-4.164.96-2.35-2.88-4.806-9.6-6.087-.853-.214-2.133-1.068-3.093-1.922-2.56-2.563-5.547-1.815-4.587 1.068zm41.92 33.423c3.413 2.243.107 4.378-13.12 8.65l-8.107 2.562 10.56 12.174c5.76 6.62 15.467 17.085 21.334 23.279 10.24 10.571 13.653 17.619 8.746 17.619-3.2 0-15.36-13.134-33.813-36.734l-11.093-14.202-10.134 3.31c-5.546 1.922-11.413 4.485-13.013 5.767-2.347 1.815-2.773 1.601-2.027-.855 1.067-3.096 21.12-14.629 31.68-18.046 2.987-.961 7.254-2.563 9.6-3.417 5.867-2.243 5.974-2.243 9.387-.107zm-84.267 21.143c-3.626 3.204-10.133 8.436-14.4 11.746-15.253 11.747-5.333 15.698 23.147 9.184 26.027-5.873 39.467-3.631 39.467 6.727 0 4.378-12.054 21.891-15.147 21.891-1.067 0-1.92 1.388-1.92 3.097 0 3.417-7.147 8.222-9.173 6.193-2.134-2.029 1.28-8.009 9.6-16.658 13.333-13.882 12.693-21.784-1.494-19.435-3.52.534-13.12 2.136-21.333 3.417-41.813 6.941-49.387-1.174-21.12-22.531 13.867-10.465 23.36-13.241 12.373-3.631zm-71.253 18.687c0 .641-2.027 5.126-4.48 9.931-10.027 19.542 4.267 46.665 22.613 43.248 31.04-5.873 30.827-42.607-.213-42.607-9.173 0-11.52-.641-10.987-3.203 1.6-7.582 35.734-.321 35.734 7.688 0 1.709 1.28 3.631 2.88 4.271 5.973 2.243 3.2 20.93-3.947 26.91-29.227 24.453-62.933 11.426-57.6-22.211 1.92-12.174 16-33.317 16-24.027zm-80 23.92c5.227 7.902 9.6 15.484 9.6 16.765 0 1.388 1.387 3.631 3.093 5.019 1.707 1.388 3.627 5.232 4.374 8.543.746 3.31 3.626 8.115 6.4 10.785l5.12 4.805 15.146-3.737c15.894-3.845 24.854-4.699 27.094-2.35 2.133 2.029-.534 3.631-8.214 4.806-13.546 2.135-34.88 6.62-38.293 8.115-3.84 1.602-10.453-3.737-10.453-8.329 0-1.495-1.6-4.058-3.52-5.766-1.92-1.602-4.907-6.087-6.507-10.145-1.707-3.951-6.827-13.348-11.413-21.036-10.24-16.765-10.454-19.008-2.56-21.677.213-.107 4.8 6.3 10.133 14.202zm174.933-89.165c.64 1.068.107 2.457-1.066 3.204-2.667 1.709-.747 5.339 2.773 5.339 1.493 0 1.28-.854-.64-2.135-2.453-1.602-1.813-2.029 2.773-2.136 6.614 0 6.187-3.097-.64-4.912-2.346-.641-3.733-.321-3.2.64zm-276.693 3.418c2.88 2.028 6.4 2.776 8.533 1.815 3.094-1.282 2.774-1.815-1.706-3.204-9.28-2.776-11.947-2.242-6.827 1.389zm247.893 9.397c1.28 2.349 1.494 4.271.64 4.271-2.026.107 4.054 4.164 6.08 4.271 2.347 0-3.306-10.571-6.186-11.639-2.134-.854-2.24-.107-.534 3.097zm-325.866-.641c2.133.534 3.2 1.815 2.56 2.99-.64 1.068-.214 1.922 1.066 1.922 1.174 0 2.24-1.068 2.24-2.243 0-1.388 1.814-1.708 4.587-.854 2.987.961 4.053.641 2.987-.961-.747-1.281-5.014-2.242-9.28-2.136-4.374.214-6.187.748-4.16 1.282zm22.933 2.776l-5.333 1.282 5.333 1.601 5.333 1.495-5.333 3.097c-2.88 1.709-4.267 3.097-3.093 3.097 1.28.107 5.333-2.136 9.173-5.019 7.573-5.553 4.587-8.222-6.08-5.553zm469.227 4.378c-1.494.855-.96 1.816 1.493 2.563 2.133.641 5.76 1.816 7.893 2.777 3.52 1.388 3.627 1.067 1.28-2.67-2.666-4.378-6.506-5.339-10.666-2.67zm58.133 6.514c.427 1.282 1.493 2.136 2.347 2.029.853-.107 4.373 1.281 7.786 3.097 3.414 1.708 6.827 2.349 7.467 1.281.64-1.068-3.2-3.417-8.533-5.232-5.76-2.029-9.494-2.456-9.067-1.175zm-41.067 13.455c2.347 6.514 9.174 7.368 8.32 1.068-.533-3.097-2.346-4.912-5.333-5.126-3.84-.213-4.267.427-2.987 4.058zm-281.493.32c0 1.816-.96 2.777-2.133 2.029-1.174-.747-2.134-.32-2.134.961 0 1.282 1.494 2.99 3.307 3.631 1.813.747 2.773 2.67 2.24 4.271-.96 2.35-.32 2.563 2.987.748 4.906-2.67 5.76-6.834 1.066-5.019-2.24.854-3.2-.214-3.2-3.524 0-3.417.96-4.378 3.307-3.417 1.92.641 2.773.32 2.027-.854-2.027-3.311-7.467-2.456-7.467 1.174zm31.147 1.816c.746 2.029-.107 3.951-2.134 4.698-4.266 1.709-4.48 5.126-.213 5.126 1.813 0 3.2-1.068 3.2-2.243 0-1.281.747-1.815 1.813-1.174.96.64 1.6-.961 1.387-3.524-.213-2.456-1.493-4.912-2.88-5.446-1.493-.427-1.92.534-1.173 2.563zm-188.267 6.513c.747 1.923-1.067 4.058-5.013 5.767-3.307 1.495-5.654 3.417-5.12 4.378.64.961-.534 1.068-2.56.213-2.56-.961-3.2-.533-2.134 1.175 2.134 3.417 5.76 2.99 11.414-1.388 5.12-3.951 8.213-13.241 4.48-13.241-1.28 0-1.707 1.388-1.067 3.096zm43.2.321c-1.067 2.669-2.027 2.883-4.373.961-2.347-1.922-3.2-1.495-4.374 2.136-.96 2.989-.426 5.339 1.387 6.513 2.027 1.282 1.173 1.816-2.88 1.922-6.72 0-9.813-3.523-4.373-4.912 2.986-.854 2.88-1.067-.747-1.281-2.453-.107-6.827 1.815-9.6 4.378l-5.12 4.592 6.4-1.175c5.12-.854 17.813 1.495 13.867 2.67-5.227 1.495-8.534 1.388-8.534-.321 0-1.174-1.066-1.388-2.24-.64-1.28.747-1.706 2.883-1.066 4.698.746 1.922-.534 4.485-3.2 6.407-2.454 1.709-3.947 4.378-3.307 5.98.64 1.602.213 3.524-.96 4.272-1.067.64-2.027-.748-2.027-3.097s-1.066-4.912-2.453-5.767c-1.707-1.067-2.133-.106-1.387 2.777.96 3.524.214 4.058-3.946 3.203-3.627-.64-5.014 0-5.014 2.67 0 2.136.96 2.99 2.454 2.029 1.493-.854 1.92-.534 1.066.747-.746 1.282 0 3.738 1.707 5.446 2.773 2.884 2.773 3.524 0 5.873-2.56 2.136-2.987 2.029-2.027-.427s-.426-2.883-6.293-2.242c-5.333.641-7.573 0-7.573-1.922 0-1.602-1.494-.748-3.307 1.922-1.813 2.563-4.587 4.698-6.187 4.698-1.493 0-3.306 1.922-3.946 4.272-1.067 4.271-10.027 6.3-10.027 2.242 0-1.174 1.387-1.602 2.987-.961 1.6.641 3.626.107 4.48-1.281 2.666-4.272-.214-4.485-9.28-.427-4.907 2.242-8.214 4.591-7.574 5.232.747.747-.853.747-3.52 0-3.733-.961-4.48-.534-3.093 1.815.96 1.602 1.067 2.35.213 1.602-3.093-2.776-14.4 2.67-11.946 5.66 2.346 2.883-2.88 6.407-6.4 4.271-3.094-1.922.32 7.261 3.733 10.038 2.987 2.456 3.093 2.242.96-1.709-1.813-3.524-1.707-4.378.853-4.378 1.814 0 2.667 1.175 2.027 2.883-.533 1.602.747 4.699 2.987 6.941 2.24 2.243 3.413 4.592 2.773 5.233-.64.747.64 1.388 2.88 1.494 2.24 0 2.88.641 1.387 1.175-1.494.641-2.027 2.136-1.28 3.417.96 1.495.106 1.816-2.24.854-2.134-.747-4.694-1.388-5.76-1.388-1.067 0-1.92-2.456-1.92-5.339 0-2.99-.854-5.339-2.027-5.339s-1.173 2.669 0 6.941c1.173 3.844 2.027 7.154 2.027 7.475 0 .32 2.773.534 6.293.534 3.413 0 6.827.961 7.573 2.135.747 1.175 3.947 1.602 7.04.961 5.014-1.067 5.334-.854 2.454 1.602-1.92 1.495-4.48 4.699-5.867 7.048-2.133 3.737-2.453 3.844-2.453.534-.107-2.349-1.814-3.738-4.694-3.738-4.48 0-4.48.107-.746 4.272 2.133 2.349 5.653 4.271 7.893 4.271s3.52.961 2.88 2.029c-.747 1.175-2.667 1.495-4.48.854-1.707-.64-3.093-.107-3.093 1.175 0 1.281 1.493 2.349 3.2 2.349 1.813 0 3.2 1.175 3.2 2.67 0 2.883 10.346 8.436 12.8 6.941.853-.534 2.88 1.708 4.48 4.912 1.6 3.203 4.586 7.581 6.613 9.717 1.92 2.243 2.987 5.339 2.347 6.941-.747 2.136 0 2.67 2.346 1.709 1.814-.748 2.88-2.029 2.347-2.99-.533-.961.64-2.35 2.667-3.097 2.026-.748 3.946-.427 4.373.854.427 1.175 2.027 2.243 3.627 2.243 1.493 0 3.306 1.601 4.16 3.523.96 2.563 2.026 2.884 3.626 1.282 1.494-1.495 1.494-3.524-.213-6.728-2.88-5.445.853-6.193 3.947-.747 2.773 4.805 2.986 2.349.32-4.592-1.92-4.912-1.6-5.446 2.666-5.019 5.014.534 10.347 5.767 8.64 8.543-1.173 1.922 2.24 2.136 4.16.214.854-.748.427-2.67-.853-4.165-1.28-1.602-1.707-3.844-.96-5.019 2.027-3.31 5.013-2.776 4.693.855-.533 5.018 3.84 4.805 4.587-.321.427-2.776 1.813-4.271 3.52-3.63 1.493.64 4.16-.321 5.973-2.136 1.814-1.815 3.84-2.67 4.48-1.922.747.747-.32 2.456-2.346 3.951-3.2 2.349-2.987 2.563 1.92 1.602 4.16-.748 5.333-2.029 4.586-5.019-1.28-4.806 7.36-3.417 11.627 1.815 1.493 1.922 4.053 3.631 5.76 3.844 3.733.534 2.027-4.805-2.24-6.407-3.84-1.495-3.947-5.553 0-5.553 1.6 0 3.52 1.709 4.267 3.738 1.813 4.912 7.573 14.843 7.68 12.921 0-.748 2.773-.641 6.293.427 4.587 1.281 6.507.961 7.36-1.282.96-2.349-.107-2.669-4.693-1.601-5.227 1.281-5.44 1.068-2.88-2.136 1.706-1.922 5.653-3.524 8.96-3.524 3.306 0 6.613-.961 7.36-2.136.853-1.388-1.387-1.922-5.76-1.601-9.174.747-9.494-4.592-.64-9.077 6.186-3.097 8-10.144 5.333-20.289-.213-1.174-.427-2.883-.213-3.844 1.706-10.678 1.813-16.445.106-16.445-1.066 0-2.026.854-2.026 2.029 0 1.068-1.494 3.417-3.307 5.339-3.093 2.99-3.093 3.417-.107 4.592 1.92.748 2.88 2.136 2.24 3.097-1.706 2.776-11.626-2.456-11.626-5.98 0-1.922-1.28-2.67-3.307-1.815-2.027.747-2.773.32-1.92-.962.747-1.174.107-3.844-1.493-5.873-2.56-3.31-2.347-3.203 1.6.107 4.906 4.165 9.386 4.912 9.386 1.495 0-1.281-.96-1.708-2.133-.961-3.413 2.136-2.453-6.727 1.067-9.61 4.373-3.631 2.453-5.126-6.934-5.446-4.266-.214-8.106-1.389-8.64-2.777-.426-1.388-2.026-2.456-3.52-2.456-1.493 0-4.053-1.708-5.76-3.737-2.56-3.311-2.453-3.417.64-.961 2.88 2.242 3.627 2.135 4.694-.534.64-1.816 2.773-3.311 4.693-3.311 3.947 0 3.2-4.591-1.067-5.979-1.92-.641-2.24 0-1.066 1.922.96 1.708-.427 1.174-2.987-1.068-2.453-2.243-4.587-5.98-4.587-8.329 0-2.456-.533-3.738-1.28-3.097-2.24 2.349-6.613-3.524-5.653-7.368.64-2.349-.107-3.844-1.92-3.844-2.24 0-2.773-2.243-2.133-8.543.64-6.728 0-8.543-2.667-8.543-4.053 0-4.373 2.349-.747 6.194 2.24 2.349 1.707 2.349-2.666.106-5.014-2.562-5.12-2.562-2.134 1.175 2.88 3.631 2.88 3.844-.64 2.563-4.266-1.602-7.253 4.058-10.133 18.794-.96 4.698-2.347 10.892-3.2 13.668-1.6 5.126-1.6 5.126 3.413 1.602 9.387-6.514 25.92-2.67 18.88 4.378-1.92 1.922 2.987 17.192 6.294 19.862 3.52 2.776 10.986 19.648 10.986 24.881 0 5.445.214 5.552 2.88 1.922 3.307-4.485 8.214-2.67 7.574 2.776-.854 6.941 4.053 15.27 8.106 13.775 3.414-1.281 3.52-.961.96 2.136-3.626 4.485-6.72 4.698-6.72.427 0-1.815-1.28-3.204-2.88-3.204-1.6 0-4.586-1.815-6.613-4.164-2.987-3.204-4.8-3.738-8.96-2.136-2.88 1.175-7.467 2.029-10.24 2.029-2.773 0-7.68 1.388-11.093 3.204-3.307 1.708-7.787 3.203-9.814 3.203-6.826 0-30.293 9.077-35.52 13.668-3.413 2.99-5.333 3.631-5.973 1.923-.533-1.389-2.133-2.029-3.733-1.495-3.094 1.174-5.547-5.767-4.374-12.174.534-2.349.107-3.737-.853-3.097-.96.534-3.84-3.951-6.613-10.144-7.467-16.979-17.494-31.715-20.694-30.433-3.733 1.388-3.52-4.058.214-7.155 1.6-1.388 4.8-2.883 7.04-3.31 2.24-.427 7.893-2.349 12.48-4.378 4.586-1.922 12.373-3.631 17.28-3.845 4.906-.213 8.533-1.067 8-1.815-1.387-2.242 6.08-4.271 8.213-2.136 4.8 4.806 13.76-3.63 15.04-14.095 1.173-10.465 9.28-28.298 12.8-28.298 1.067 0 1.387-1.281.853-2.99-.853-2.029 0-2.563 2.88-1.815 5.014 1.281 5.44-2.136.854-6.834-3.094-2.99-3.094-3.311 0-3.311 1.813 0 3.306.855 3.306 1.923 0 1.067 1.387 2.456 3.094 3.096 2.026.748 2.666.107 1.92-1.922-.747-1.922.106-3.097 2.24-3.097 1.92 0 3.413 1.389 3.413 2.99 0 2.029 1.493 2.67 4.587 1.816 3.84-.961 4.373-.534 3.2 2.669-.96 2.35-.427 4.592 1.173 5.66 5.013 3.203 6.507 1.922 5.333-4.271-.96-4.485-.106-6.941 3.414-9.931 3.413-2.99 3.84-4.165 1.6-4.912-1.6-.534-4.694 1.067-6.72 3.523-4.374 5.446-5.867 5.553-13.974 1.389-3.306-1.709-4.586-3.204-2.88-3.204 2.88-.107 2.88-.32 0-2.136-4.48-2.883-5.76-2.669-7.253 1.282zm52.053 117.249c0 2.883-.853 5.339-1.92 5.339-2.24 0-4.586-7.795-2.773-9.504 2.667-2.67 4.693-.854 4.693 4.165zm-11.413 21.25c0 3.737-5.013 6.086-6.827 3.203-.64-1.068-.64-2.99.107-4.165 2.027-3.203 6.72-2.562 6.72.962zm335.787-138.286c-.107 3.311-1.067 4.379-3.307 3.524-1.707-.64-3.2-.107-3.2 1.175 0 1.281 2.453 2.349 5.333 2.349 5.654 0 6.08-.854 3.2-7.475-1.706-4.058-1.813-4.058-2.026.427zm-445.44 10.786c-3.734 1.281-3.307 4.805.533 4.805 1.813 0 3.2.961 3.2 2.136 0 1.174-.96 2.135-2.133 2.135-1.174 0-2.134.854-2.134 1.922s1.707 1.709 3.734 1.388c2.346-.427 3.413-2.028 2.986-4.591-1.173-6.194-3.2-8.863-6.186-7.795zm30.186 1.815c.747 1.815 1.28 4.271 1.28 5.339 0 1.068 1.494 1.922 3.2 1.922 4.054 0 4.16-3.63.107-7.581-3.947-4.058-6.187-3.951-4.587.32zm131.947 12.921c-5.013 2.029-2.667 3.951 4.8 4.058 5.013 0 7.467-.962 7.467-2.99 0-2.456-.64-2.456-3.2-.321-2.24 1.816-3.2 1.922-3.2.214 0-2.456-1.494-2.67-5.867-.961zm346.133.747c-1.92 3.204-.96 3.951 7.04 5.553 4.587.961 6.827.534 6.827-1.175 0-1.388-1.067-1.815-2.24-1.067-1.28.747-4.053-.214-6.187-2.136-2.773-2.563-4.373-2.883-5.44-1.175zm-537.066 1.602c-3.094.747-5.547 4.805-2.88 4.805.533 0 2.346.534 4.053 1.175 1.707.641 3.627-.214 4.373-2.029 1.387-3.844-.32-5.126-5.546-3.951zm21.866.32l-5.333 1.495 5.227 1.388c3.2.855 5.973.428 6.933-1.174 1.28-1.922 1.6-1.922 1.707.213 0 1.602.96 2.243 2.133 1.495 1.173-.747 2.133-.106 2.133 1.495.107 2.029.64 1.923 2.134-.427 3.2-5.125-4.48-7.368-14.934-4.485zm440.747 10.358c-.747.641-1.28 2.777-1.28 4.592.107 2.99.32 2.99 2.133.214 1.814-2.67 2.347-2.456 3.414 1.495.746 2.776 2.453 4.164 4.266 3.523 2.027-.854 2.347-2.242.854-5.018-2.24-4.165-7.36-6.835-9.387-4.806zm-436.267 3.204c-2.88 1.495-5.44 3.844-5.76 5.339-.32 1.602-.106 1.815.534.748.533-1.175 2.133-1.709 3.52-1.175 1.386.534 3.733-.961 5.226-3.31 3.2-5.019 3.2-5.019-3.52-1.602zm493.014 1.281c-2.24 1.388-2.134 2.35.533 4.485 2.56 2.136 3.307 2.136 3.307.107 0-1.495 1.386-2.029 3.52-1.281 2.88 1.174 3.093.854.746-1.923-2.986-3.63-4.16-3.844-8.106-1.388zm-73.494 1.816c-5.76 1.495-4.373 4.485 1.6 3.31 6.08-1.175 6.934 1.068 1.814 4.805-4.374 3.204-2.027 7.475 4.16 7.475 3.84-.107 4.053-.427 1.493-2.136-3.627-2.456.213-6.3 6.293-6.407 2.454 0 2.56-.534.427-2.669-2.133-2.136-3.093-2.029-4.693.534-1.92 3.203-3.094.64-2.24-4.806.213-1.708-2.667-1.708-8.854-.106zm41.494 7.581c5.12 4.699 12.16 8.009 13.226 6.194.64-.961-2.24-3.311-6.4-5.339-8.853-4.165-10.666-4.485-6.826-.855zm65.066 2.563c-2.026 1.602-3.52 4.165-3.2 5.66.32 1.601-1.493 3.203-4.16 3.63-3.413.534-4.8-.32-4.8-2.883 0-2.242-1.173-3.097-3.2-2.349-1.706.747-3.2.32-3.2-.854 0-2.563-2.24-2.563-6.293 0-2.56 1.601-2.56 2.456-.213 5.232 3.52 4.378.32 4.485-9.387.427-3.947-1.708-7.787-2.456-8.427-1.815-2.133 2.136-11.946 2.456-11.946.427 0-1.175-2.027-2.029-4.374-2.029-3.52 0-4.16.961-3.093 4.271.96 3.204.533 3.951-1.813 2.99-1.92-.64-3.627.321-4.374 2.777-.64 2.135-.853 1.174-.426-2.029.426-3.951-.32-5.873-2.347-5.873-1.707 0-2.453.854-1.813 1.922 1.386 2.242-4.8 5.019-7.574 3.31-1.066-.641-1.92 1.388-1.92 4.485 0 5.019-.426 5.339-3.413 2.99-2.773-2.349-3.627-2.349-5.227.214-3.52 5.659-1.92 7.474 5.867 6.513 1.387-.213 5.333 3.738 8.747 8.757 3.52 5.019 12.16 15.056 19.413 22.318 13.013 13.027 16.427 19.434 9.28 17.192-2.027-.748-9.92-2.883-17.6-4.806-17.387-4.591-38.187-10.678-43.52-12.814-2.773-1.174-3.627-.961-2.667.641.747 1.282.64 2.67-.213 3.204-.853.534-.427.64.853.32 1.387-.32 4.054 1.709 5.974 4.592 1.813 2.776 6.72 8.436 10.773 12.6 8.107 8.116 9.173 12.067 4.373 16.018-3.413 2.776-8.426 1.068-6.4-2.243.64-1.068-.213-2.456-1.92-3.203-1.706-.641-3.733-3.524-4.48-6.3-.64-2.884-2.56-5.233-4.16-5.233-3.84 0-26.026-34.811-22.826-35.879 1.6-.534 1.706-2.029.106-4.912-2.56-4.912-6.933-5.233-10.56-.855-2.986 3.524-7.466 4.485-5.333 1.068.747-1.174.427-2.135-.747-2.135-1.173 0-1.493-2.136-.853-4.592.96-3.844.533-4.378-2.56-3.204-2.133.855-5.12.321-6.827-.961-4.373-3.63-3.52-.213 1.28 4.912 2.347 2.456 3.627 5.446 2.88 6.621-.746 1.281-2.453.534-4.16-1.815-2.346-3.204-2.88-3.311-2.88-.534 0 1.815-1.493 3.951-3.306 4.698-1.814.641-2.774 2.243-2.027 3.417.747 1.175-.64 1.922-3.307 1.602-3.2-.32-4.906.748-5.333 3.524-.747 4.485-4.587 7.582-9.493 7.582-2.88 0-2.88-.214 0-2.029 2.24-1.495.96-1.709-4.267-.748-6.827 1.388-7.253 1.175-4.48-2.135 2.773-3.311 2.453-3.524-2.773-1.495-7.254 2.776-8.32 2.776-6.614.106.747-1.174.32-2.135-.96-2.135-1.173 0-2.24.961-2.24 2.135 0 1.175-1.066 2.136-2.346 2.136s-1.814-1.388-1.174-3.204c.747-1.815-.533-4.057-3.2-5.552-3.306-1.709-4.053-1.709-2.986.107 1.066 1.708-.107 2.028-3.947 1.067-4.16-1.067-5.547-.64-5.547 1.709 0 1.815-1.386 4.378-3.2 5.873-2.56 2.136-3.2 2.136-3.2-.107 0-1.495-.746-2.029-1.6-1.174-.853.961.214 2.883 2.347 4.485 2.133 1.601 3.307 3.951 2.56 5.232-.747 1.175-.427 2.242.853 2.242 3.307 0 5.44-6.513 2.774-8.222-3.52-2.136 1.706-7.795 7.36-7.902 3.093-.107 5.013 1.388 5.866 4.805.747 2.67 2.027 4.912 2.987 4.912 2.56 0 1.493 8.223-1.387 11.106-2.56 2.563-2.88 2.242-3.306-3.097-.214-1.495-2.667-2.99-5.547-3.417-4.48-.641-4.8-.214-2.56 2.456 1.813 2.243 1.92 3.738.427 4.592-1.28.854-2.24 0-2.24-1.816 0-1.922-1.28-2.776-2.987-2.135-1.6.64-3.627.107-4.373-1.175-1.814-2.883-9.707-2.883-9.707 0 0 1.282-.96 1.709-2.133.961-1.174-.747-2.134-.32-2.134.961 0 1.175-.96 2.243-2.133 2.243s-2.027-.748-1.92-1.602c.747-4.699-.427-7.048-2.88-5.553-1.493.961-4.373 1.388-6.4 1.068-2.88-.427-3.733.961-3.733 5.98 0 3.524-1.067 6.514-2.347 6.514-1.493 0-2.027-2.563-1.493-6.3.853-5.767.533-6.087-3.52-3.845-3.947 2.029-4.054 1.922-1.387-1.281 2.56-3.204 2.56-3.417-.427-2.349-2.453.961-3.84-.214-4.8-4.058-1.066-4.271-1.92-4.912-4.053-2.883-2.24 2.029-2.027 3.096 1.173 5.232 2.134 1.602 3.307 4.165 2.667 5.98-1.067 2.67-1.813 2.67-4.587.534-2.026-1.709-2.773-1.815-1.92-.32.854 1.388-.106 2.99-2.026 3.737-1.92.748-2.987 1.922-2.24 2.563.64.747 2.453.534 3.946-.427 1.494-.855 5.654-1.922 9.174-2.35 4.266-.427 5.546 0 3.626 1.282-2.026 1.281-2.24 2.242-.533 3.31 3.947 2.456 2.667 5.446-2.453 5.553-4.587 0-4.48.213 1.066 3.631 7.36 4.591 7.467 6.941.427 6.941-3.093 0-4.907-.962-4.16-2.136 1.707-2.883-1.707-2.777-4.587.107-1.6 1.601-2.24.534-2.026-3.738.213-4.698-.854-6.086-4.8-6.727-3.2-.427-4.587.213-3.627 1.602 2.667 4.378-.747 2.349-6.187-3.524-2.986-3.204-5.44-4.912-5.44-3.845 0 2.35-6.186-5.552-6.293-8.008-.107-.961 1.067-1.068 2.56-.107 1.493.854 1.28-.107-.533-2.349-2.88-3.631-3.307-3.631-3.947-.427-.32 1.922-1.707 2.883-2.987 2.135-1.386-.854-1.6-.427-.64 1.175.854 1.388.214 4.164-1.28 6.087-2.24 2.669-2.24 3.096-.106 1.815 1.493-.854 3.946-.748 5.333.427s4.48 2.563 6.827 3.203c3.306.748 2.986 1.068-1.387 1.282-3.2.107-6.08-.854-6.507-2.243-.533-1.601-1.813-1.495-3.946.534-7.254 6.835-10.667 3.738-5.974-5.125 2.24-4.272 2.134-4.378-1.066-1.816-2.987 2.563-4.374 2.456-9.174-.747-5.546-3.631-5.653-3.631-4.48.854.747 2.67.214 4.485-1.28 4.485-1.386 0-1.173.854.64 2.029 2.134 1.281 3.84.854 5.654-1.602 2.453-3.417 2.773-3.31 4.16.214 2.24 5.659-1.814 8.863-7.36 5.873-2.56-1.388-5.547-1.815-6.614-1.175-1.173.748-2.133.321-2.133-.961 0-1.174-1.813-2.242-4.053-2.242-2.987 0-3.84 1.174-2.987 4.058.64 2.456-.853 5.766-3.84 8.542-2.667 2.456-3.733 4.485-2.347 4.485 1.387 0 2.56 1.068 2.56 2.243 0 1.281-.746 1.815-1.706 1.281-.96-.641-3.094-.213-4.8.854-2.134 1.389-2.24 1.922-.427 2.029 1.493 0 2.667 1.068 2.667 2.349 0 1.282-1.387 1.816-3.094 1.175-2.133-.747-2.666-.107-1.813 2.136.64 1.708 2.88 2.776 4.8 2.242 2.88-.747 3.413.214 2.667 4.165-.64 3.31.533 6.514 3.093 8.863 6.293 5.873 18.347 23.92 15.787 23.92-1.174 0-2.24-.962-2.24-2.136 0-1.175-1.067-2.136-2.347-2.136-1.707 0-1.6.961.213 3.204 1.494 1.815 3.52 3.203 4.694 3.203 1.813 0 8.106 5.233 8.106 6.834 0 .321-3.413.855-7.68 1.175-4.16.32-9.386 1.495-11.733 2.776-2.773 1.495-4.053 1.495-4.053 0 0-1.281 1.066-2.242 2.24-2.242 1.28 0 1.706-.961.853-2.243-.747-1.174 0-3.844 1.493-5.766 2.027-2.456 2.134-2.99.214-1.922-1.494.961-2.667.641-2.667-.747 0-3.631-6.08-8.97-8.533-7.475-1.174.747-1.6 0-.96-1.709.746-1.922 3.306-2.67 6.933-2.136l5.76.961-6.08-5.659c-3.413-2.99-5.547-6.194-4.8-6.834.64-.748.213-2.563-1.067-4.165-1.92-2.242-2.986-2.136-5.76.641-3.626 3.631-3.413 4.058 7.36 10.571 3.734 2.243 3.627 2.457-.533 2.136-2.453-.107-7.253-3.631-10.667-7.688-3.413-4.165-6.826-7.796-7.68-8.116-.853-.427-.96-1.922-.426-3.31 1.6-4.272-9.28-13.455-12.374-10.358-3.733 3.737-8.853 3.203-7.36-.641 1.387-3.524-3.946-4.592-5.973-1.175-1.28 2.136-9.707 2.243-9.707.107 0-2.135-8.426-2.029-9.706.107-.64 1.175.32 2.029 2.133 2.029s3.307.961 3.307 2.029c0 1.174-1.6 1.495-3.52.747-2.667-.961-3.094-.64-1.814 1.495 1.28 2.029.854 2.456-1.706 1.495-1.92-.747-4.907.107-6.614 1.816-2.133 2.028-3.626 2.349-4.586.854-1.814-3.097-6.294-1.388-6.294 2.456 0 4.058-5.973 3.951-7.893-.214-1.173-2.563-1.387-2.456-1.6.641-.107 3.524-.427 3.631-3.307.747-6.186-6.193-3.946-10.037 5.44-9.29 8.96.748 13.014-1.388 7.04-3.63-1.813-.748-4.693-.214-6.4 1.067-2.666 2.243-3.733 1.175-3.093-2.883.107-.854-.96-1.601-2.453-1.601-3.627 0-8.534 8.115-6.72 10.998.853 1.388.213 1.922-1.494 1.282-1.6-.534-2.773-2.136-2.453-3.311.213-1.281-1.493-2.135-3.84-1.922-2.347.107-3.84 1.282-3.413 2.456.533 1.282 2.026 1.922 3.52 1.602 1.493-.32 2.133.641 1.493 2.456-.853 2.136 0 2.776 2.667 2.029 2.133-.534 4.586 0 5.333 1.281.853 1.389-.32 2.35-2.773 2.35-2.347 0-4.694 1.174-5.227 2.669-.747 1.816-2.027 1.388-4.373-1.601-1.814-2.35-3.414-3.311-3.52-2.136 0 1.174-.854.854-1.92-.854-1.067-1.602-2.987-2.243-4.267-1.389-2.88 1.816-3.093 8.009-.213 11.426 1.493 1.816 1.386 2.029-.32.534-1.6-1.281-3.734-.427-6.294 2.67-3.52 4.164-3.946 4.271-3.946.854-.107-2.136-1.067-3.31-2.24-2.563-1.28.748-1.6 2.243-.96 3.311.64 1.174-.32 2.028-2.24 2.028-2.24 0-2.88.961-1.814 2.67 2.774 4.378 2.774 8.863.107 10.572-1.813 1.174-1.493 1.601.96 1.708 1.92 0 4.053 1.495 4.693 3.204.854 2.135-.106 3.203-2.773 3.203-2.24 0-4.693.961-5.44 2.136-.747 1.174.107 1.495 2.027.854 3.733-1.495 9.706 2.563 9.706 6.3-.106 1.816-.533 1.816-1.6.107-2.453-3.63-10.88-2.135-14.293 2.456-4.267 5.66-4.053 9.504.427 9.504 2.346-.107 2.88-.641 1.28-1.602-1.6-1.068-.747-2.776 2.56-5.339 5.653-4.271 8.746-1.708 5.333 4.592-1.92 3.63-1.493 4.058 3.093 3.524 2.987-.321 5.334.213 5.334 1.281 0 1.709-3.2 2.67-6.934 2.029-2.346-.32-1.92 3.631.534 5.126 1.173.747 2.133.106 2.133-1.282 0-1.495.64-2.029 1.387-1.281.746.854 2.88.213 4.693-1.175 2.133-1.708 2.773-1.815 1.813-.213-.853 1.388.107 3.096 2.027 3.737 3.2 1.281 2.987 1.922-1.067 5.66-5.973 5.659-5.76 6.727.747 3.737 2.987-1.281 5.973-1.815 6.72-.961 2.133 2.029-5.867 10.038-8.64 8.649-1.28-.64-.533.321 1.813 2.243 3.094 2.456 3.307 3.31.96 3.31-1.813 0-4.266-1.068-5.546-2.349-1.6-1.602-2.774-1.495-3.947.534-.853 1.602-.853 2.136.107 1.281.96-.854 2.986.214 4.586 2.456 2.027 2.99 4.907 3.844 11.307 3.417 6.293-.427 8.64.214 8.64 2.35 0 1.601-1.387 2.99-3.2 2.99-1.707 0-3.2 1.067-3.2 2.242 0 1.281-.96 1.709-2.133.961-1.28-.854-1.387.427-.32 3.524.96 2.67 2.986 5.232 4.586 5.766 1.707.534 2.134-.107 1.067-1.815-.96-1.495-.32-3.417 1.28-4.485 4.48-2.776 6.187-2.349 4.8 1.281-.64 1.709-.107 3.204 1.173 3.204s2.347-.961 2.347-2.136c0-3.63 3.093-2.242 7.147 3.417 2.986 4.165 3.413 6.087 1.493 8.009-1.813 1.815-2.88 1.709-4.373-.747-2.454-3.951-4.8-1.709-2.987 2.99 1.387 3.63 9.067 2.883 11.733-1.282.747-1.174 2.134-1.922 3.094-1.708 1.066.213 2.56-1.389 3.413-3.631.96-2.563 1.6-2.776 1.707-.747.106 2.669.426 2.669 2.773 0 1.493-1.709 2.453-2.777 2.133-2.243-.64 1.068 6.4 6.514 8.64 6.514.96.107.214-2.029-1.6-4.592-4.586-6.62-4.16-7.581 2.56-7.048 9.6.641 9.92.855 5.76 5.446-3.946 4.272-3.84 4.272 2.347 1.068 3.52-1.815 7.787-3.31 9.493-3.31 2.774-.107 2.774-.32.107-2.029-2.133-1.281-3.733-1.175-4.587.32-.96 1.495-2.453.748-4.266-2.028-1.494-2.457-4.16-3.952-6.08-3.311-2.667.854-2.774.641-.427-1.068 2.027-1.388 4.693-1.174 8.427.748 5.546 2.883 13.226.961 13.226-3.31 0-2.67 13.44 0 15.467 2.989 1.067 1.602 1.493 1.495 1.6-.32 0-1.495 2.453-2.669 5.44-2.669 2.987 0 4.907-.855 4.267-1.923-1.92-3.096 1.28-9.076 4.16-8.008 1.493.64 3.733 0 5.12-1.389 1.706-1.708 2.346-1.708 2.346.321s1.067 2.029 4.8 0c4.374-2.243 4.48-2.136 1.92 1.068-1.706 1.922-4.266 3.524-5.866 3.524-3.627 0-3.947 3.417-.534 5.552 1.494.961 1.92.534.96-.961-1.6-2.669 3.414-3.524 5.867-.961 4.267 4.165 7.467 2.243 5.44-3.31-1.493-3.844-1.493-5.766.107-6.3 1.28-.428 3.626-2.136 5.333-3.845 2.56-2.562 3.413-2.562 6.187.214 4.266 4.271 5.653 4.058 5.653-1.068 0-2.349-1.067-4.271-2.347-4.271s-.106-1.922 2.667-4.165c2.773-2.349 3.84-4.271 2.347-4.271-1.494-.107-2.667-2.883-2.667-6.514 0-3.524.747-6.193 1.6-5.98.853.32 3.84-.747 6.613-2.242 2.667-1.602 5.547-2.243 6.187-1.602.64.747.107 1.281-1.387 1.281-1.386 0-1.92 1.068-1.066 2.456.96 1.602.533 1.922-1.28.748-1.814-1.068-2.347-.641-1.707 1.281.64 1.602 2.773 2.67 4.8 2.349 2.56-.533 3.2.107 2.027 2.136-1.28 2.136-.96 2.243 1.386.321 3.094-2.457 16.747 4.484 16.107 8.115-.107.854.64 2.243 1.707 3.204 1.173 1.067 1.386.747.64-.534-.747-1.389.533-4.165 2.773-6.194 3.093-2.776 3.627-4.591 2.027-6.514-1.707-2.029-.427-3.31 5.226-5.125 6.08-2.029 7.787-3.844 8.854-9.718 1.173-6.3 2.026-7.047 7.04-6.086 5.226.854 5.333.64 2.24-2.456-2.88-2.883-4.267-2.99-9.387-.641-4.8 2.136-6.293 2.136-6.933.107-.534-1.495-2.454-2.67-4.48-2.777-3.094 0-3.094-.32.32-2.242 2.773-1.602 4.693-1.495 6.933.32 3.947 3.204 3.947.107 0-5.125-1.707-2.136-2.453-5.34-1.813-6.941.533-1.602 0-2.99-1.28-2.99s-2.347-1.175-2.347-2.456c0-1.388 2.347-.321 5.227 2.349 3.306 3.204 6.826 4.485 9.6 3.737 2.88-.747 4.373-.106 4.373 1.923 0 1.601.96 2.99 2.133 2.99 1.174 0 2.134-.962 2.134-2.136 0-1.175 1.28-2.136 2.986-2.136 4.8 0 5.547 7.902 1.067 11.96-3.52 3.097-4.053 3.203-4.053.32 0-1.708-2.134-3.737-4.694-4.485-4.48-1.174-4.373-.961.747 4.165 4.373 4.378 6.293 4.912 10.453 3.31 3.84-1.388 5.974-1.068 8.107 1.068 1.707 1.922 3.84 2.349 5.333 1.281 3.52-2.669 8.32-2.028 9.387 1.068.533 1.495-.853 2.67-3.2 2.67-5.76 0-7.147 2.029-4.693 6.621 2.88 5.446 9.493 1.388 10.133-6.194.533-7.154 5.013-9.931 8.427-5.339 2.133 2.883 2.666 2.99 2.666.427 0-4.058 8-10.892 9.6-8.222.747 1.067.32 2.029-.96 2.029-1.173 0-2.24 1.067-2.24 2.242 0 1.281.96 1.709 2.24.854 1.174-.747 3.52-.213 5.12 1.068 2.027 1.709 3.307 1.709 4.267.214.853-1.282.427-2.243-.853-2.243-1.174 0-2.24-1.495-2.24-3.417 0-2.136 1.173-2.99 3.093-2.242 2.24.854 2.667.106 1.707-2.456-1.174-3.311-.96-3.311 2.666-.427 3.627 2.883 3.84 2.883 2.56-.748-1.066-2.776-.746-3.631 1.28-2.883 3.2 1.174 4.374-6.3 1.28-8.223-1.386-.854-1.173-2.456.32-4.378 4.16-4.912 6.294-3.417 4.907 3.417-.747 3.951-.427 6.407.96 6.407 3.413 0 5.12-3.737 2.133-4.805-1.6-.534-.96-2.349 1.814-5.125 4.16-4.165 5.013-4.272 13.44-1.389 5.013 1.709 12.266 2.67 16.213 2.136 3.947-.534 8.853.214 10.88 1.709 1.92 1.388 5.547 2.135 7.893 1.495 2.774-.748 3.734-.321 2.667 1.388-.853 1.388-.64 2.456.427 2.456 1.813 0 4.693-6.194 5.44-11.746.213-1.175 2.133-2.456 4.266-2.884 2.56-.427 3.52.107 2.56 1.602-.853 1.495.427 2.349 3.414 2.349h4.906l-4.8-3.31c-7.68-5.446.427-12.173 8.534-7.048 1.493.961 1.813 1.816.64 1.816-1.174 0-.747.961.96 2.029 2.133 1.281 4.586.213 8.533-3.845 2.987-3.203 7.147-5.446 9.173-5.019 3.52.748 4.694-1.494 3.84-7.581-.106-1.495 1.28-2.67 3.2-2.67 2.134 0 3.094 1.175 2.454 2.99-1.494 3.738 2.453 7.689 6.186 6.194 3.52-1.282 4.054-9.184.747-9.184-1.28 0-1.6 1.175-.64 2.67 1.067 1.815.427 1.708-2.027-.214-4.693-3.844-4.693-8.863.107-9.076 2.027-.107 6.507-.321 9.92-.534 4.053-.321 8.213 1.281 11.52 4.378 2.987 2.669 6.827 4.912 8.747 4.805 2.346 0 1.706-.961-1.707-2.883-5.547-3.097-8.533-10.999-3.413-9.077 1.6.641 4.053-.213 5.44-1.922 1.92-2.349 1.92-3.097 0-3.097-1.387 0-1.814-1.067-.96-2.456 1.066-1.815 2.133-1.601 3.84.641 1.28 1.709 4.053 3.738 6.08 4.592 2.026.747 3.733 2.883 3.733 4.592 0 1.815 1.6 3.31 3.627 3.31 2.773 0 3.093-.534 1.066-2.563-5.76-5.766-2.026-7.795 4.907-2.67 3.413 2.67 3.627 3.631 1.28 5.126-3.627 2.243-1.173 6.514 3.627 6.514 2.88-.107 2.986-.427.746-1.922-1.813-1.068-2.026-2.349-.746-3.097 2.133-1.388 5.546 1.815 7.04 6.514.533 1.708 1.92 1.922 3.733.854 2.347-1.495 1.493-3.203-3.733-7.795-9.707-8.756-7.36-10.892 6.186-5.766 1.814.64 5.12.961 7.467.64 4.267-.427 4.267-.427 0 2.883-3.947 3.097-3.84 3.097 2.24.962 4.267-1.602 6.613-3.951 6.827-6.941.213-3.951 0-4.058-1.814-.855-2.346 4.272-8.32 2.777-8.32-2.029 0-2.776.534-2.776 3.627-.213 2.24 1.708 2.987 1.922 2.027.32-.96-1.602.96-3.844 5.013-5.98 5.12-2.669 6.293-4.378 5.333-7.688-.96-2.777-.533-3.951 1.387-3.631 1.707.427 2.667-.854 2.24-3.097-.32-2.242.747-3.737 2.773-3.737 2.027 0 2.88-.961 1.92-2.456s-.533-1.922.854-.961c5.76 3.524 11.413-2.67 7.573-8.436-1.92-2.99-3.947-4.912-4.587-4.271-.533.534.107 2.456 1.494 4.057 1.92 2.35 1.706 3.311-.96 4.272-1.92.747-2.774.427-2.027-.748.747-1.174-.427-2.135-2.56-2.135-2.987-.107-3.2-.427-.96-1.922 1.6-.962 3.307-5.126 3.733-9.077.534-4.699.214-6.087-1.066-4.165-1.494 2.35-2.347 2.029-4.374-1.708-1.386-2.563-3.413-4.058-4.48-3.311-3.733 2.243-2.133-.961 2.667-5.339 3.947-3.737 4.053-4.378 1.067-4.378-2.027 0-3.627-.961-3.627-2.136 0-1.174-1.6-2.135-3.413-2.135-2.88 0-2.987.534-.854 3.203 1.494 1.816 2.24 3.845 1.494 4.485-.64.641-2.24-.854-3.627-3.31-1.493-2.99-4.053-4.378-7.04-3.951-3.52.534-4.48-.32-4.053-3.31.426-2.456-.96-4.272-3.734-5.019-3.52-.961-3.946-1.816-2.026-4.165 2.133-2.456 2.88-2.349 5.226.854 1.494 2.029 3.307 3.204 3.947 2.457 3.2-3.204-6.187-8.009-10.027-5.233zm-55.146 18.794c1.813 1.815 10.026 2.67 24.426 2.776 23.68.107 28.374.962 38.507 6.835 7.787 4.591 14.4 15.804 10.027 17.192-2.134.747-2.134 1.281-.107 2.563 1.813 1.174.96 4.057-3.2 10.571-3.093 5.019-6.08 8.543-6.72 8.009-1.28-1.281-13.547 11.212-13.547 13.775 0 .961-2.026 1.815-4.48 1.815-3.626 0-4.053-.64-2.24-2.883 1.387-1.601 1.92-3.31 1.387-3.844-.64-.641 2.88-4.271 7.68-8.115 26.027-20.93 15.467-38.016-24.96-40.151-26.133-1.495-26.24-.214-3.307 23.385 16.854 17.406 18.667 20.076 15.574 22.318-2.88 2.243-3.947 2.029-6.08-.64-1.387-1.816-6.187-7.369-10.667-12.174-12.8-13.882-25.387-31.821-26.987-38.228-1.6-6.301.32-7.582 4.694-3.204zm-89.28 40.044c2.773 5.873 5.546 10.678 6.293 10.678.747 0 3.093 3.097 5.333 6.941 2.134 3.845 5.547 8.863 7.467 11.213 5.333 6.514 5.333 15.056 0 20.395-5.653 5.66-24.427 11.106-29.44 8.543-1.92-.961-6.187-2.776-9.387-4.058-3.2-1.281-5.866-3.63-5.866-5.125s-2.88-4.272-6.4-6.301c-3.52-2.028-6.4-5.125-6.4-6.94 0-1.816-.96-3.311-2.134-3.311-1.173 0-2.133-1.174-2.24-2.669 0-1.495-2.88-5.98-6.4-10.038-6.72-7.902-7.786-11.746-3.84-14.202 1.494-.961 1.92-.534.96.961-.853 1.388-.213 2.456 1.6 2.456 1.707 0 6.294 4.058 10.24 9.076 3.84 5.019 8.214 9.824 9.707 10.786 1.6.961 2.773 3.523 2.773 5.766 0 2.136 1.92 4.592 4.374 5.339 2.346.748 5.76 3.738 7.68 6.621 2.773 4.164 5.12 5.125 12.906 5.125 22.294 0 23.894-10.465 5.334-35.559-15.574-21.036-15.894-21.677-14.294-24.24 2.88-4.591 6.934-1.601 11.734 8.543zm-40.534 4.058c.64.427-1.813.107-5.333-.748-6.72-1.601-10.133-5.019-8.213-8.222.64-.961 3.733.427 6.826 3.097 3.094 2.776 6.187 5.446 6.72 5.873zm20.907-3.417c5.333 4.164-4.267 11.746-10.24 7.902-2.773-1.709-2.56-2.456 1.067-5.233 3.413-2.669 3.52-3.096.533-2.029-2.027.748-3.733.321-3.733-.854 0-4.805 6.08-4.592 12.373.214zm-59.84 19.648c10.987 3.31 21.547 12.173 26.88 22.531 2.56 5.126 2.133 8.116-4.16 26.056-.747 1.922-4.587 4.805-8.533 6.3-3.947 1.388-7.254 3.417-7.254 4.485 0 1.068-1.386 1.388-3.093.747-1.707-.64-5.973-.32-9.6.748-7.147 2.029-21.44-8.436-21.44-15.697 0-1.923-1.28-3.524-2.987-3.524-7.68 0-6.506-31.502 1.494-42.18 2.773-3.631 15.466-3.31 28.693.534zm-63.893 8.009c-.32 2.776-2.347 5.019-4.907 5.446-4.587.64-12.907 3.951-18.133 7.154-1.707.961-5.867 2.883-9.067 4.165-6.933 2.776-7.467 6.193-1.6 11.533 2.347 2.135 4.267 5.018 4.267 6.513 0 7.262 5.76 7.155 16.853-.32 11.307-7.688 21.44-10.251 23.04-5.98.427 1.281-4.8 4.805-11.52 7.795-23.787 10.465-23.467 8.223-4.8 35.986 4.8 7.048 2.347 11.533-5.227 9.611-3.093-.747-5.546-2.776-5.546-4.592 0-1.815-1.92-5.339-4.267-7.902-2.347-2.456-4.267-6.193-4.267-8.115 0-2.029-1.386-4.806-3.2-6.3-1.706-1.389-2.666-3.418-2.133-4.272.533-.961-.213-2.136-1.813-2.776-1.494-.641-5.547-6.3-8.96-12.814-3.307-6.407-7.04-11.319-8.32-10.892-2.667 1.068-3.094-13.882-.534-17.833.96-1.495 3.414-2.563 5.334-2.456 2.026 0 2.56.534 1.173 1.174-2.773 1.068-1.28 9.291 1.6 9.291 1.067 0 3.84-1.923 6.187-4.272 2.346-2.349 6.08-4.271 8.426-4.271 2.24 0 4.8-1.068 5.547-2.349 4.693-7.582 22.933-10.465 21.867-3.524zm9.813 8.329c-.64.961.853 1.815 3.307 1.815 2.346 0 4.373 1.068 4.373 2.243 0 1.281-1.067 1.601-2.453.747-1.707-1.068-2.134 0-1.174 3.631 1.28 4.912 1.174 5.019-1.706.854-1.707-2.349-4.054-5.446-5.227-6.834-2.987-3.417-2.773-4.165.853-4.165 1.707 0 2.667.748 2.027 1.709zm-107.947 21.997c5.014 4.806 6.4 7.582 5.44 11.32-.96 3.63-.426 4.591 1.92 3.63 3.947-1.495 10.56 8.223 8.747 12.814-.747 2.136.853 5.446 4.373 8.65 2.987 2.776 5.547 6.62 5.547 8.329 0 4.805 10.24 14.095 13.867 12.707 3.306-1.281 12.16 7.582 10.453 10.358-.747 1.175-11.093 3.417-22.187 4.805-.533.107-2.026.748-3.2 1.495-1.173.748-6.4 1.389-11.52 1.495-5.226 0-10.133 1.175-10.986 2.563-.854 1.388-2.56 2.029-3.734 1.282-1.173-.748-2.666.213-3.413 2.029-.747 2.028-2.667 2.883-4.693 2.135-1.814-.747-4.48-.64-5.867.214-2.667 1.708-5.227 2.349-16.107 3.951-4.053.64-11.733 3.63-17.28 6.727-11.413 6.407-18.986 5.766-14.506-1.281 2.133-3.524 1.92-4.912-1.067-8.329-2.027-2.136-2.88-4.806-2.027-5.767.854-.961-.106-1.174-2.133-.427-3.627 1.282-4.8-2.776-4.267-15.056 0-1.495-1.28-2.67-2.88-2.67-1.6 0-3.093-1.709-3.306-3.737-.214-2.029-.427-4.806-.534-6.194-.213-1.388-2.133-4.592-4.48-7.154-2.346-2.563-3.946-4.912-3.626-5.019 1.386-.641-2.88-11.746-6.4-16.765-3.414-4.806-2.027-5.98 8.64-6.514 4.8-.321 8.853-1.175 8.853-2.029 0-.748 5.547-2.563 12.267-4.058 6.72-1.388 13.226-3.31 14.4-4.164 1.173-.855 6.933-2.563 12.8-3.738 5.973-1.281 13.333-3.63 16.64-5.339 8.213-4.271 12.586-3.524 20.266 3.737zm59.52 42.394c1.387 0 2.134.854 1.494 1.815-.64.961-.107 1.815 1.173 1.815 1.173 0 2.24 1.388 2.24 3.204 0 4.698-4.48 3.844-5.76-1.068-.747-2.776-2.88-4.271-6.4-4.271-3.093 0-4.587-.855-3.733-2.243.746-1.281 2.986-1.708 4.906-.854 1.92.854 4.694 1.495 6.08 1.602zm-143.253 39.189c-.747 2.029-.213 4.272 1.067 5.126 1.493.854.746 1.815-1.92 2.563-3.734.961-5.227-5.019-2.667-10.679 1.173-2.562 4.587.321 3.52 2.99zm221.867-116.928c-6.4 10.358 1.173 41.752 11.52 47.839 21.333 12.601 45.013-14.095 29.76-33.53-8.214-10.465-37.44-20.503-41.28-14.309zm31.36 25.521c.853 3.204-.107 3.951-5.654 3.738-4.48-.107-6.4-1.175-5.973-3.204.533-2.456 0-2.563-2.453-.427-3.094 2.456-6.934 0-4.16-2.67 3.306-3.31 17.173-1.388 18.24 2.563zm-177.494 14.63c-.106 1.815-2.133 2.242-6.293 1.388-3.307-.641-6.72-.214-7.467.961-.64 1.175-3.2 1.708-5.44 1.068-2.346-.641-8.32.854-13.333 3.203-5.013 2.35-12.053 4.912-15.573 5.66-30.614 6.62-28.907 5.553-22.827 13.882 2.56 3.524 4.693 7.261 4.693 8.436 0 1.174 2.027 5.552 4.48 9.717 2.454 4.165 3.84 7.582 3.2 7.582-.746 0 .534 3.844 2.987 8.436 2.347 4.698 4.267 10.358 4.267 12.707 0 5.446 8 10.144 11.306 6.834 1.28-1.281 5.227-2.349 8.854-2.456 3.626 0 8.426-1.495 10.666-3.204 5.227-3.95 19.734-8.115 26.56-7.688 2.88.214 7.574-1.175 10.454-3.097 4.906-3.203 5.44-3.203 7.253 0 1.067 1.816 2.987 3.417 4.373 3.417 1.814 0 1.814-.64-.106-2.562-4.054-4.058-2.987-5.98 2.88-5.98 4.16 0 5.333-.961 4.8-3.738-.427-2.029-1.92-3.737-3.414-3.737-2.986 0-4.906-2.99-17.173-27.764-9.173-18.26-15.04-27.23-15.147-23.065zm-21.76 22.318c-1.28 2.456 7.254 10.251 9.494 8.863 1.28-.748.106-2.136-2.56-3.097-2.56-.961-4.16-2.777-3.414-3.951.747-1.282 2.88-1.388 4.907-.427 2.027.961 5.12 1.708 6.827 1.495 5.333-.427 8.96 3.31 6.293 6.62-3.307 3.845-.853 10.145 4.907 12.601 4.906 2.135 4.906 6.941 0 5.766-1.494-.32-2.667.641-2.667 2.136-.107 2.029-.64 1.815-2.133-.427-1.174-1.816-2.134-2.136-2.134-.748 0 1.388-1.813 2.029-4.266 1.388-2.347-.64-4.267-.213-4.267 1.068 0 3.951-6.933 4.805-10.88 1.282-4.373-3.951-10.453-2.67-10.453 2.242 0 4.378-2.027 4.165-5.547-.427-3.627-4.805-3.733-7.688-.32-5.553 1.6.854 1.28-.107-.533-2.456-1.707-2.242-2.134-3.417-.747-2.563 3.947 2.456 5.12-4.485 1.387-8.329-3.307-3.203-3.734-3.203-6.4.427-2.667 3.631-2.88 3.631-5.867-.32-2.773-3.844-2.56-4.165 2.667-4.805 3.2-.321 7.68-1.389 10.026-2.456 2.347-1.068 5.974-2.35 8-3.097 2.027-.641 3.734-2.67 3.734-4.592 0-1.922 1.066-3.096 2.346-2.669 1.174.427 1.92 1.388 1.6 2.029zm-9.92 12.173c.64 3.097 2.774 3.737 10.134 2.669 4.373-.533-.214-5.552-5.334-5.873-4.053-.213-5.226.641-4.8 3.204zm23.04 7.368c0 1.709-1.6 3.737-3.52 4.485-1.92.747-2.986 1.922-2.346 2.456 1.706 1.815 12.48-3.844 11.626-6.194-1.173-3.523-5.76-4.164-5.76-.747zm256.427-163.059c.32 1.708-.747 3.203-2.56 3.417-7.68.748-8.533 1.068-8.533 3.31 0 1.389 1.92 1.922 4.16 1.282 4.266-1.068 10.346 3.844 7.893 6.407-2.773 2.776 3.413 6.941 8.427 5.766 3.52-.961 5.12-.427 5.12 1.602.106 2.242.533 2.136 2.133-.32 3.093-4.806 2.56-6.087-2.133-4.913-2.56.641-4.267.107-4.267-1.495 0-1.495-1.387-2.028-3.413-1.281-2.454.961-3.094.427-2.24-1.708.64-1.709-.427-3.631-2.454-4.379-2.986-1.174-3.093-1.708-.426-3.31 2.666-1.602 2.666-2.456.32-4.698-2.24-2.243-2.667-2.243-2.027.32zm-324.693 13.455c-.107 2.669-.64 11.426-1.387 19.434-1.067 11.213-.64 15.164 1.6 16.765 2.027 1.389-1.28 1.709-10.133.855-17.707-1.602-32.747-5.873-32.747-9.29 0-2.777 7.573-1.923 14.933 1.601 10.667 5.233 18.134 4.378 17.92-1.922-.106-3.31.427-10.999 1.28-17.085 1.707-13.135 1.174-13.348-22.72-5.553-9.066 2.99-19.626 5.66-23.466 5.873-8.32.641-9.494 5.233-2.88 11.212 2.346 2.136 4.266 4.699 4.266 5.767 0 2.456 13.44 22.851 19.307 29.259 4.16 4.484 5.12 4.805 7.147 2.028 1.28-1.815 3.52-2.883 5.013-2.349 1.493.534 2.667-.107 2.667-1.174 0-1.175 1.706-1.709 3.733-1.175 2.133.534 6.72-.534 10.133-2.349 3.52-1.816 8.107-3.311 10.134-3.311 2.026 0 3.733-1.174 3.733-2.456 0-1.388.533-2.029 1.173-1.281.747.641 6.187-.534 12.267-2.67 6.08-2.135 11.733-3.417 12.693-2.883 3.307 2.029 1.387-3.737-5.12-15.804-3.733-6.727-8.533-15.911-10.773-20.289-4.907-9.931-18.773-12.28-18.773-3.203zm285.973-.214c-.107 3.951 4.907 8.863 7.04 6.728.747-.748 1.387-.214 1.387 1.174 0 1.282 2.026.427 4.48-2.029 2.453-2.456 3.733-5.019 2.88-5.873-.854-.747-1.92-.213-2.454 1.282-1.493 3.951-8.64 3.203-11.093-1.068-1.92-3.311-2.24-3.311-2.24-.214zm19.093 3.204c0 3.524 1.174 4.485 5.334 4.271 2.88-.214 5.013-1.281 4.48-2.456-.427-1.175-2.027-1.815-3.52-1.495-1.494.32-3.52-.641-4.48-2.136-1.28-1.922-1.707-1.388-1.814 1.816zm56.534-1.389c-.747 1.175-.214 2.136 1.066 2.136s1.92.748 1.387 1.602c-.533.854 2.347 1.708 6.293 1.815 8.107.107 8.534-.32 4.374-4.485-2.24-2.242-3.52-2.349-5.334-.534-1.813 1.816-2.453 1.816-2.453-.106 0-3.097-3.52-3.417-5.333-.428zm-8 6.408c1.6 2.349.96 4.378-2.134 7.474l-4.266 4.272 2.56-5.019c2.453-4.699 2.24-4.912-2.347-3.417-10.56 3.203-11.2 4.378-4.267 9.29 4.267 3.097 6.08 5.766 5.227 8.009-1.067 2.669-.32 3.097 3.413 1.922 3.84-1.281 4.587-.748 4.054 2.242-.747 4.379 3.84 5.767 32.32 10.465 21.653 3.524 20.8 4.058 11.52-6.407-4.16-4.698-9.92-11.639-12.907-15.484-2.987-3.737-6.4-6.3-7.573-5.552-1.174.747-3.947-.961-6.187-3.738-2.24-2.776-3.84-4.164-3.52-2.99.427 1.175-.213 2.243-1.28 2.456-1.067.214-2.56 1.602-3.52 3.097-1.173 1.922-3.2.854-7.467-3.631-3.2-3.417-4.8-4.805-3.626-2.989zm16.106 11.639c-8.32 5.659-12.586 5.766-6.186.214 3.306-2.884 7.04-4.806 8.106-4.058 1.067.64.32 2.349-1.92 3.844zm-489.6-8.009c-2.24.534-3.093 2.136-2.24 4.378.854 2.243.427 2.883-1.28 1.816-1.386-.855-2.453-.214-2.453 1.601 0 1.709 1.493 3.631 3.413 4.379 5.014 1.922 6.614 1.494 2.987-.962-2.88-1.922-2.88-2.456 0-4.698 2.56-2.136 5.76-8.65 3.733-7.795-.32.213-2.133.747-4.16 1.281zm420.054 1.175c-1.387 3.844 2.346 10.144 6.08 10.144 4.586 0 3.733-4.485-1.067-5.766-2.453-.641-3.627-2.243-2.88-4.058.533-1.602.64-2.99 0-2.99s-1.6 1.175-2.133 2.67zm-408.96 3.63c0 2.456 8.533 7.369 8.533 5.019 0-.961.96-.32 2.133 1.495 1.814 2.777 2.027 2.67 2.134-.427 0-1.922-.96-4.164-2.134-4.912-1.173-.747-2.133-.214-2.133 1.068 0 1.388-1.387 1.068-3.307-.961-3.946-3.844-5.226-4.165-5.226-1.282zm342.933 5.767c3.627 1.495 3.413 5.019-.427 5.019-1.706 0-3.626.854-4.266 1.922-.64 1.068 1.28 1.708 4.16 1.601 4.053-.213 5.333-1.494 5.333-5.125 0-3.204-1.28-4.699-3.733-4.592-2.24.107-2.667.534-1.067 1.175zm-59.413 1.815c-.214.534-.427 2.243-.64 3.738-.214 1.495-1.814 2.562-3.627 2.456-1.92-.214-4.587 1.601-5.973 3.844-2.347 3.737-2.134 3.844 1.813 1.708 2.453-1.281 4.373-1.495 4.373-.534 0 .961 3.84 1.709 8.534 1.602 8.32 0 10.666-1.602 6.4-4.271-1.067-.641-3.947-.214-6.4 1.068-4.907 2.669-5.014 2.242-2.134-5.233 1.28-3.524 1.28-5.446 0-5.446-1.173 0-2.24.427-2.346 1.068zm28.8.641c.746 1.281-.32 2.563-2.454 2.99-3.413.747-3.306 1.068.534 3.203 3.2 1.709 4.906 1.602 6.933-.534 2.133-2.349 1.813-3.417-1.813-5.339-2.774-1.495-4.054-1.602-3.2-.32zm-22.08 19.862c-6.934 5.766-8 12.6-2.027 12.6 3.733 0 4.267-.961 3.2-5.339-.96-3.951-.533-5.339 1.92-5.339 1.707 0 3.2-1.495 3.2-3.204 0-3.951 0-3.951-6.293 1.282zm-67.307-.214c.747 1.175.32 2.136-.96 2.136-1.173 0-2.133 1.708-2.027 3.737.107 2.243.534 2.67 1.174 1.068.853-2.029 1.92-1.815 4.266.534 2.88 2.883 3.947 2.883 9.387-.427 7.573-4.485 7.04-5.446-1.707-2.883-5.12 1.388-6.4 1.281-5.653-.855.64-1.495-.427-3.31-2.347-4.057-2.026-.748-2.88-.428-2.133.747zm-228.48 8.863c-1.067 1.709-.427 2.136 1.813 1.282 2.134-.855 3.734-.107 4.16 1.922.534 2.776 1.387 2.562 4.694-1.175 4.053-4.485 4.053-4.485-2.56-4.485-3.627 0-7.254 1.175-8.107 2.456zm202.56 1.068c-.853 2.136-2.56 4.805-3.84 5.766-1.28 1.068-.427 1.175 2.027.321 10.666-3.845 13.226-3.845 8.64-.214-6.08 5.019-3.307 5.66 5.013 1.175l7.147-3.951-6.08-1.495c-3.414-.748-7.36-2.35-8.854-3.524-1.813-1.495-3.093-.854-4.053 1.922zm-8.747 14.202c2.667 4.912 5.014 9.397 5.334 9.824.32.534 1.066.427 1.6-.213 1.92-1.816-5.014-16.125-8.534-17.406-2.56-.961-2.24.747 1.6 7.795zm20.8.321c0 1.922 1.814 3.31 4.48 3.31 5.12 0 4.48-5.019-.96-5.98-2.026-.427-3.52.641-3.52 2.67zm-185.386 2.562c2.346 2.67-8.214 9.291-14.934 9.291-1.066 0-1.813 1.388-1.493 3.096.747 5.446 2.987 5.98 4.48 1.282.96-3.204 2.56-4.165 5.227-3.311 2.453.748 4.373-.106 5.12-2.242.746-1.815 2.453-2.67 3.733-1.922 1.28.854 3.2.213 4.267-1.388 2.88-4.592 2.346-5.66-3.414-6.728-4.373-.854-4.906-.427-2.986 1.922zm24.746 19.221c.854 2.243.534 3.097-.96 2.136-1.173-.747-2.666-.107-3.306 1.388-.64 1.816 1.173 2.883 5.653 3.204 4.587.32 5.76-.214 3.84-1.388-2.453-1.602-2.453-2.136 0-2.884 2.027-.747 1.387-1.815-1.92-3.523-4.053-2.243-4.48-2.136-3.307 1.067zm160.64 2.67c0 6.514 2.667 8.863 5.547 5.126 3.947-5.34 3.627-7.048-1.28-7.048-2.347 0-4.267.854-4.267 1.922zm361.707 2.563c.533.854.107 2.242-1.173 2.99-2.774 1.708-2.774 5.339 0 5.339 1.173 0 2.133-1.602 2.133-3.417 0-2.563 1.387-3.204 5.333-2.456 2.987.534 5.334.32 5.334-.641 0-.854-2.88-1.922-6.294-2.456-3.413-.534-5.866-.213-5.333.641zm-481.173 4.058c0 1.174-1.92 2.135-4.16 2.135-3.094 0-3.84.961-2.88 3.524 1.066 2.67.64 3.097-1.707 1.709s-2.347-.961.213 2.135c2.88 3.524 3.307 3.631 3.84.428.427-1.923 1.92-3.631 3.2-3.845 1.387-.213 3.52-.534 4.694-.854 1.173-.213 2.986-.534 3.946-.747 2.347-.321-2.666-6.621-5.226-6.621-1.067 0-1.92.961-1.92 2.136zm407.36.106c-2.454 1.495-2.56 2.35-.32 4.592 2.24 2.243 3.093 2.243 4.586-.213.96-1.602 2.88-2.243 4.16-1.389 1.28.748 2.347.961 2.347.321 0-2.67-7.893-5.126-10.773-3.311zm-446.294 4.592c1.174 4.378.854 4.592-2.346 2.029-2.24-1.922-3.52-2.136-3.52-.534 0 1.282 1.066 2.349 2.346 2.349 1.387 0 1.814 1.602 1.067 3.738-1.173 3.524-1.173 3.524 1.6 0 1.6-2.029 3.52-3.097 4.267-2.243.746.748 1.386-.106 1.386-1.922 0-1.815-1.386-4.485-2.986-5.873-2.56-2.029-2.88-1.602-1.814 2.456zm502.827-2.669c-1.067 1.067-3.413 2.242-5.12 2.669-4.373.961-8.427 4.592-7.253 6.514.533.854 2.453.214 4.266-1.602 1.814-1.815 3.84-2.883 4.694-2.456.746.321 3.093-1.068 5.12-3.203 3.733-3.951 2.133-5.767-1.707-1.922zm-513.173 4.378c-.214 1.174-.534 3.31-.64 4.805-.214 1.495-1.6 2.456-3.094 2.136-1.493-.321-4.16.854-5.866 2.669-2.987 2.883-2.774 3.204 1.706 3.097 5.974 0 13.547-5.339 10.454-7.261-1.174-.748-1.6-2.67-.96-4.485.64-1.709.64-3.097-.107-3.097s-1.387.961-1.493 2.136zm24.213 5.659c.96 6.087 3.627 9.29 7.573 9.077 3.2-.214 3.094-.427-.213-1.282-2.453-.64-3.627-2.562-3.2-5.445.32-2.457-.533-4.806-2.027-5.34-1.6-.534-2.453.641-2.133 2.99zm355.733 4.806c0 1.067 1.494 2.456 3.307 3.203 1.813.641 2.88 2.029 2.24 3.097-.64.961 1.28 1.388 4.16.854 7.147-1.388 8.427-4.058 3.2-6.834-3.52-1.922-4.053-1.709-2.987.961.64 1.708.107 3.203-1.173 3.203-1.387 0-2.987-1.495-3.733-3.203-1.28-3.417-5.014-4.378-5.014-1.281zm77.334 5.979c-1.494.534-2.667 1.923-2.667 3.097 0 1.175 1.067 1.388 2.347.641 1.28-.854 3.2-.214 4.16 1.388 1.386 2.243 2.453 2.349 4.266.534 2.88-2.883-3.52-7.261-8.106-5.66zm-35.52 5.66c1.386 3.737-6.827 12.814-9.92 10.999-1.067-.748-2.027-.214-2.027 1.174 0 1.602 1.813 2.029 4.8 1.282 2.667-.748 5.547-1.388 6.4-1.388.853 0 1.6-1.389 1.6-3.097 0-1.922 1.28-2.67 3.2-1.922 3.627 1.388 9.6-2.67 9.493-6.407 0-1.388-1.28-.748-2.88 1.281-3.413 4.485-7.68 4.912-7.68.641 0-1.709-.96-3.631-2.133-4.378-1.173-.748-1.6.106-.853 1.815zm-396.8.961c-3.2.641-3.414 1.281-1.067 2.776 2.347 1.389 2.027 1.923-1.28 1.923-3.52.106-3.733.427-1.067 2.135 1.814 1.175 5.12 2.029 7.467 1.922 2.347-.106 3.093-.64 1.6-1.174-3.413-1.388-1.28-5.019 2.88-5.019 1.813 0 2.667.961 1.92 2.136-.747 1.174.107 1.495 2.027.854 3.413-1.388 4.586-4.912 1.706-5.446-5.12-.854-10.666-.854-14.186-.107zm-64.214 4.699c-.853 2.562-.853 5.125-.213 5.873.64.64.213 2.456-.96 3.844-1.6 1.922-1.6 3.097 0 4.058 1.28.854 2.24-.107 2.24-1.922 0-2.029 1.92-3.311 4.8-3.311 3.413-.107 3.947-.534 1.92-1.815-1.493-1.068-2.453-3.524-2.133-5.66 1.066-5.552-3.947-6.407-5.654-1.067zm420.587 3.417c.747 1.922 0 4.271-1.6 5.446-2.24 1.495-1.6 1.815 2.133 1.388 6.72-.854 8.107-5.019 2.56-8.009-3.733-1.922-4.16-1.815-3.093 1.175zm-393.707 8.969c-1.28.428-2.346 2.136-2.346 3.845 0 4.271 8 3.737 10.453-.855 2.027-3.737-1.6-5.125-8.107-2.99zm-36.16 12.387c-3.093 3.524-1.92 9.397 1.92 9.397 1.387 0 1.707-1.815.854-4.591-.96-2.99-.64-4.058.96-2.99 1.386.854 1.813.106 1.066-1.922-1.6-3.951-1.173-3.951-4.8.106zm378.134-.64c-1.28 1.495-1.707 4.378-.96 6.514 1.173 3.523 1.706 3.417 5.546-.962 2.24-2.669 2.774-3.951 1.174-2.99-2.347 1.282-2.774.855-1.707-1.815 1.6-4.164-.64-4.485-4.053-.747zm73.92 4.912c3.306 8.863 7.68 14.309 8.96 11.105 1.28-3.63-.427-8.436-2.667-7.047-.853.533-2.24-1.389-2.987-4.272-.746-2.99-2.24-5.339-3.413-5.339-1.28 0-1.28 2.029.107 5.553zm114.133-3.631c-.853 1.495 0 1.815 2.24.854 2.453-.854 3.2-.534 2.24.961-2.347 3.845 2.987 5.66 6.4 2.243 2.347-2.456 2.453-3.204.32-3.204-1.493-.106-4.373-.747-6.293-1.601-1.92-.855-4.16-.428-4.907.747zm-261.333 12.387c-2.774 3.097-2.56 3.417 1.6 2.242 2.56-.64 5.226-.32 5.866.748 2.027 3.31 7.36 2.136 5.974-1.281-.64-1.709-2.027-2.67-2.987-2.136-.96.641-2.347.213-3.093-1.068-1.814-2.99-3.734-2.563-7.36 1.495zm-212.48 3.31c-.747 2.136.106 5.019 2.026 7.048 3.094 3.097 3.414 3.097 3.414-.534-.107-6.514-3.734-10.892-5.44-6.514zm403.093 3.097c-2.987 2.776-6.507 4.378-7.893 3.524-1.92-1.068-1.92-.748-.107 1.281 1.92 2.136 3.84 1.709 8.853-2.029 3.52-2.669 7.36-4.271 8.427-3.523 1.067.64 1.92 0 1.92-1.602 0-4.272-5.227-3.204-11.2 2.349zm80.533-2.029c-3.2 5.873.534 6.514 7.147 1.282 3.2-2.67 3.413-3.204.64-2.243-1.92.748-3.947.107-4.373-1.281-.534-1.495-2.027-.534-3.414 2.242zm-28.8 2.029c2.027 1.602 2.88 2.776 1.92 2.776s-.426 1.495 1.067 3.311c2.453 2.99 2.987 2.99 4.587.213 2.773-5.125-.32-9.931-6.08-9.397-4.8.427-4.907.641-1.494 3.097zm-530.346 2.136c-.107 2.776 1.6 5.125 4.16 5.98 3.413 1.067 3.84 2.135 2.026 5.446-1.6 3.096-1.493 4.164.534 4.164 1.493 0 2.88 2.456 3.093 5.339.427 7.368 2.347 11.747 5.013 11.747 1.6 0 1.6-1.282.107-4.165-2.987-5.446-2.773-6.514.96-6.514 1.92 0 3.2-1.922 3.2-4.805-.107-3.524-.533-4.058-1.92-1.815-2.453 3.737-6.613 1.174-6.613-4.058 0-2.243-1.28-4.805-2.88-5.766-1.494-.962-3.947-3.631-5.227-5.98-2.347-4.165-2.453-4.165-2.453.427zm39.36 2.349c.426 2.029.853 4.271.853 5.019.107.747 1.92 2.029 3.947 2.776 2.986 1.175 3.2.854 1.066-1.281-4.266-4.272-3.093-6.194 2.56-3.951 3.094 1.174 5.76 1.174 6.507.107 1.28-2.136-2.88-5.446-4.587-3.631-.64.641-3.413.32-6.08-.748-4.053-1.495-4.8-1.174-4.266 1.709zm264.64 2.883c-3.2 3.097-3.52 4.592-1.6 6.514 2.026 2.029 2.56 1.709 2.56-.961 0-2.349 1.173-3.204 3.2-2.349 3.413 1.281 4.16-.961 1.6-4.806-1.067-1.601-2.88-1.067-5.76 1.602zm267.093-.961c-2.027.534-3.733 2.349-3.733 3.951 0 3.524 3.413 4.165 5.333.961 2.133-3.524 4.48-2.456 7.573 3.417 2.56 4.806 3.094 5.019 4.267 1.602 1.173-3.31-5.973-12.173-8.96-11.212-.427.213-2.453.747-4.48 1.281zm-190.72 3.844c0 1.709.747 3.204 1.707 3.204 3.84 0 5.12.427 7.786 2.669 2.134 1.709 2.667 1.602 2.134-.747-.32-1.602.533-2.776 2.026-2.456 1.494.32 2.667-.961 2.667-2.67 0-4.271-3.52-4.057-5.12.321-1.28 3.203-1.707 3.203-5.227 0-4.8-4.378-5.973-4.378-5.973-.321zm-315.733 4.165c.64 1.815-.427 4.164-2.454 5.339-2.986 1.709-2.56 2.136 2.454 2.136 4.693.107 5.76-.641 4.8-3.311-.747-1.815-1.28-4.271-1.28-5.339 0-1.068-1.067-1.922-2.347-1.922s-1.813 1.388-1.173 3.097zm269.76-.641c-.534 1.602.533 4.165 2.346 5.767 3.094 2.562 3.094 2.669-.213 1.708-2.027-.641-4.373-.107-5.12 1.175-.96 1.388-.533 1.815.96.854 3.2-2.029 3.2 1.388 0 4.592-1.813 1.815-1.387 2.135 1.92 1.281 2.453-.641 4.8-2.776 5.227-4.698 1.173-4.485-3.84-14.737-5.12-10.679zm-296.107 11.533c0 5.019.32 5.232 3.307 2.136 4.16-4.058 4.16-4.058 8.106-.107 1.814 1.815 3.84 2.349 4.48 1.281.64-1.174-.746-2.669-3.093-3.417-2.347-.747-4.267-2.456-4.267-3.844 0-1.495-.96-1.282-2.133.641-1.387 2.135-2.027 2.349-2.133.533 0-1.494-.96-2.669-2.134-2.669-1.173 0-2.133 2.456-2.133 5.446zm44.8-1.175c0 1.175 1.92 4.058 4.373 6.514 2.347 2.349 3.84 5.126 3.2 6.087-.533.961 1.28 2.776 4.267 4.164 3.2 1.388 5.227 1.602 5.227.321 0-1.175-1.387-2.136-3.094-2.136-1.92 0-2.773-1.602-2.24-4.378.427-2.349 0-3.738-.96-3.204-.96.641-2.986-.32-4.48-2.135-2.24-2.67-2.026-2.99 1.387-1.709 3.627 1.388 3.733 1.175 1.173-2.029-3.2-3.951-8.853-4.912-8.853-1.495zm322.453 11.533c-4.373 2.349-4.48 2.99-1.493 5.446 1.92 1.602 4.053 2.136 4.907 1.388.853-.854.106-2.456-1.707-3.524-2.667-1.708-2.56-1.922.427-2.029 2.026 0 4.053 1.175 4.693 2.67.64 1.602 1.067 1.281 1.173-.961.32-5.126-2.24-5.98-8-2.99zm-226.346-.427c-.214 3.524 4.266 12.387 6.293 12.387 1.173 0 2.133-.855 2.133-1.922 0-2.243-8.32-12.601-8.426-10.465zm44.693 6.086c0 1.282-1.173 1.602-2.667.748-1.493-.748-.533.747 2.027 3.524 5.12 5.339 12.267 2.776 9.92-3.417-1.387-3.524-9.28-4.272-9.28-.855zm-201.6 4.912c-1.173 2.67-2.133 3.097-3.2 1.389-1.173-1.922-2.027-1.922-3.093-.214-.747 1.282-.214 2.349 1.386 2.456 1.707 0 1.174 1.282-1.386 3.204-2.24 1.708-2.987 3.096-1.6 3.096 3.84 0 11.52-8.436 10.453-11.319-.64-1.601-1.6-1.068-2.56 1.388zm321.067.214c0 4.378 4.373 6.514 6.506 3.204.96-1.602 1.28-3.631.747-4.592-1.813-2.883-7.253-1.922-7.253 1.388zm-241.067 3.31c-3.2 5.98-.96 8.223 3.733 3.631 2.56-2.67 2.88-4.271 1.174-5.98-1.707-1.708-3.094-1.175-4.907 2.349zm96.533-1.388c-4.693 2.563-4.693 2.67-.746 6.087 3.84 3.31 4.16 3.203 5.44-1.922 1.706-6.834 1.173-7.262-4.694-4.165zm-130.666.854c0 1.282 1.173 2.884 2.666 3.524 1.494.748-.853.961-5.12.641-4.906-.32-7.36.32-6.826 1.709.533 1.281 4.16 1.922 8.533 1.388 6.187-.641 7.36-.214 5.973 2.029-1.493 2.456-1.173 2.456 1.92 0 2.027-1.602 3.307-3.097 2.987-3.204-.32-.107-2.667-2.029-5.333-4.271-2.667-2.243-4.8-3.097-4.8-1.816zm151.466 17.62c-2.026 1.281-1.706 2.242 1.6 3.951 4.054 2.242 6.934 1.388 6.934-1.922 0-2.563-5.547-3.845-8.534-2.029zm-68.266 2.776c0 4.378 8.746 7.261 10.666 3.524 2.027-3.737 1.6-4.165-4.16-4.165-3.626 0-6.506.214-6.506.641z" fill="#BDB76B"/></svg>