<svg xmlns="http://www.w3.org/2000/svg" viewBox="0, 0, 200.8, 177.356"><path fill="#8d7127" d="M101 .715c0 .5 19.7 4.8 43.8 9.6 24 4.8 45.8 9.2 48.5 9.8l4.7 1v5.4c0 3-.2 5.4-.4 5.4s-8.4-1.4-18.2-3.1c-9.9-1.7-20.1-3.4-22.9-3.8-2.7-.4-16.6-2.7-30.7-5.2l-25.8-4.3v-7.4c0-4-.4-7.1-.9-6.8-.5.3-15.9 3.5-34.2 7.1-18.4 3.7-40.5 8-49.2 9.7l-15.7 3.1.1 5.4c.2 4.2.6 5.3 1.9 5.3 1.2 0 79.8-12.7 95.1-15.4 1.4-.3 3.1 0 3.7.6.5.5 4.5 1.6 8.8 2.3 4.4.8 9.3 1.6 10.9 1.9 1.7.2 5.7.9 9 1.5s10.5 1.7 16 2.6c5.5.8 13.3 2.1 17.3 2.8 3.9.8 7.2 1.2 7.2.9 0-.2.6 0 1.3.5.6.5 3 1.1 5.2 1.2 2.2.1 5.6.6 7.5 1 8.6 2.2 12.8 2.3 14.7.4 2.2-2.2 2.2-8.3.1-11.5-1.3-1.9-8.5-3.9-26.6-7.2-1.2-.3-7.3-1.4-13.5-2.6-6.1-1.1-13.3-2.5-15.8-3.1-2.6-.6-5.3-1.2-6-1.3-.8-.2-2.1-.6-2.9-.9-.8-.3-2.2-.5-3-.5-.8 0-7-1.2-13.7-2.6-12.9-2.7-16.3-3.1-16.3-1.8zm-4 8.7c0 3-.3 5.5-.6 5.5s-8.5 1.3-18.2 3c-9.8 1.6-22.4 3.7-28.2 4.6-5.8.9-11.6 1.8-13 2.1-1.4.2-4.1.6-6 .8-1.9.3-4.6.7-6 1.1-3.7.9-19.2 3.4-21.3 3.4-1.5 0-1.8-.7-1.5-3.7.3-3.6.4-3.7 6.3-5 3.2-.7 6.5-1.1 7.2-.9.7.3 1.5.1 1.8-.3.2-.5 2.2-1.2 4.2-1.5 4.3-.8 68.8-13.3 71.8-13.9 1.1-.3 2.3-.5 2.8-.6.4 0 .7 2.4.7 5.4zm10.6 24.3c-1.4 1.7-1.6 7.1-1.6 55.4 0 29.5.3 54.3.6 55.2.3.9 1 1.3 1.5 1 .5-.3.9 0 .9.6s.8.9 1.8.6c.9-.3 4.2-.8 7.2-1.1 10.6-.9 14.5-1.6 16.2-2.9 1.6-1.2 1.8-3.8 1.9-26.5.1-13.9.5-24.9.9-24.4.4.4 3.1 5.3 6 10.8 2.9 5.5 6.2 11.6 7.3 13.6 2.5 4.6 5.1 6.3 7.5 4.7.9-.6 4.3-6.4 7.6-12.9 9-18.3 8.5-18.7 8.6 6.7 0 21.9 0 22.1 2.3 23 3.2 1.4 20.2-.7 22.6-2.7 1.7-1.6 1.8-3.8 1.9-42 0-22.2-.3-42-.7-43.9-.9-4.4-3.3-5.6-13.1-6.4-4.1-.4-8.2-.9-9-1.1-.8-.2-2.4.4-3.5 1.3-1.9 1.6-15.7 23.8-17.1 27.6-.3.9-.9 1.6-1.3 1.6-.3 0-4.2-7-8.6-15.6-10.9-21.2-10.1-20.3-21.5-22-5.2-.7-11.1-1.6-13.1-1.8-2.7-.4-4-.1-5.3 1.2zm17.4 2.7c5.7.9 10.5 1.7 10.6 1.8.1.3 11.3 21.5 16.3 30.9l4 7.7 5.4-9.2c3-5.1 7.4-12.7 9.8-16.9 3-5.3 4.9-7.6 5.9-7.3.8.2 5.9.9 11.3 1.6l9.7 1.1v43.4c0 23.9.1 43.7.3 44.1.1.5-2.5 1.1-5.8 1.4-3.3.3-8.2.9-11 1.3l-5 .7.3-27.7c.1-15.3 0-27.6-.3-27.3-.7.8-13.1 24.4-16.8 32.1-1.8 3.7-3.4 6.7-3.7 6.7-.5.1-8.5-14.2-18.3-32.3-2-3.8-3.8-7.1-4-7.2-.1-.1-.1 13.4.1 30l.3 30.3-7.3.7c-4 .4-9.9.9-13 1.3l-5.8.6v-110.4l3.3.5c1.7.3 7.9 1.3 13.7 2.1zm-44.5-.9c-4.9.7-10.8 1.5-13 1.9l-4 .6-10 19.9c-9.1 18-11.5 22-11.5 19 0-.9-17.4-32.6-18.5-33.8-.2-.2-5.3.4-11.4 1.3l-11.1 1.7.2 43.6.3 43.6 7.9 1.2c4.3.7 9 1.5 10.2 1.8l2.4.6v-27c0-17.3-.4-27-1-27s-1 9.3-1 25.9v25.8l-8.2-1.5c-4.6-.8-8.4-1.6-8.6-1.7-.1-.1-.2-18.8-.2-41.5 0-30.8.3-41.5 1.1-42.1.7-.4 3.2-1 5.6-1.3 2.3-.3 6.2-.9 8.6-1.2l4.2-.6 4.2 7.4c2.3 4 5.6 10 7.4 13.3 5.4 10 7.9 13.6 9.2 13.3.7-.2 5.8-9.2 11.4-19.9l10.2-19.4 4.8-.7c2.6-.4 7.7-1.1 11.3-1.6 4.6-.6 6.7-.6 7.2.2.6.8.4 78-.2 103.5 0 1.4 0 1.4-15.2-.5-3.1-.4-4.9-1.2-5.2-2.3-.3-.9-.5-8.4-.5-16.6.1-27.9-.3-40.1-1.1-37.5-1.2 3.8-1.2 57 0 57 1.7 0 21.4 3 23.1 3.6 1.5.4 1.6-4.3 1.5-55.1 0-30.5-.3-55.4-.6-55.4-.3.1-4.5.7-9.5 1.5zm-19 49.4c-1.4 2.2-2.5 4.4-2.5 5 0 .5-.4 1-1 1-.5 0-1 .5-1 1.1 0 1.8-13.3 24.8-14.1 24.4-.4-.3-2.2-3.3-3.9-6.7-11.6-22.3-15-28.2-15.7-27.4-.5.5 18 36.1 19.6 37.8.5.6 19.4-32.5 21.3-37.3 1.2-3.1 0-2.2-2.7 2.1zm125.5 59.7c-3.6.6-8.3 1.4-10.5 1.8-8 1.1-22.7 3.5-24.5 4-3.6.9-7.5 1.6-12 2-3 .3-9.3 1.2-14 2-4.7.8-10.5 1.7-13 2-7 .8-12.2 2.2-13 3.5-.6.9-13.6-.9-49.6-6.9-26.9-4.5-49.2-8.1-49.6-8.1-.5 0-.8 2.4-.8 5.4 0 5.8 0 5.8 6.5 7 31.5 5.7 91.6 18.1 93.2 19.2 2.3 1.5 4.6 1.2 20.8-2.6 2.2-.5 5.7-1.2 7.9-1.5 2.1-.3 4.2-.8 4.7-1 .4-.3 7.2-1.7 15.1-3.1 19.1-3.5 21.1-3.9 29.8-5.8 4.1-1 8.8-1.8 10.3-1.8 1.5-.1 3-.5 3.3-1 .3-.4 1.7-.8 3.2-.8 3.5 0 5.6-3.2 5.4-8.4-.2-4.3-2.4-7.5-5-7.3-1 .1-4.6.7-8.2 1.4zm10.8 6l-.3 5.7-46.5 9.3c-25.6 5.1-47.5 9.5-48.7 9.8-2.2.5-2.3.3-2.3-6.9v-7.4l6.3-1.1c3.4-.6 15-2.5 25.7-4.2 10.7-1.7 29.6-4.8 42-6.9 12.4-2.1 22.9-3.8 23.3-3.9.4-.1.7 2.5.5 5.6zm-176.3-.6c5.5 1 11.8 2.1 14 2.3 2.2.3 6.3 1 9.2 1.5 2.9.6 7.4 1.3 10 1.6 2.6.3 5.9.8 7.3 1.1 4.7 1 25.5 4.5 30.3 5.1l4.7.6v5.3c0 5.9-.2 6-6 4.4-1.9-.5-6.2-1.4-9.5-1.9s-9.6-1.7-14-2.6c-8.4-1.7-41.2-8.2-48-9.5-2.2-.5-5.8-1.1-8-1.5-7.6-1.2-8.3-1.5-8.8-3.5-.3-1.1-.3-2.9 0-4 .6-2.3 1.2-2.2 18.8 1.1z"/></svg>