<svg version="1" xmlns="http://www.w3.org/2000/svg" viewBox="0 0 300 199"><g fill="#BDB76B"><path d="M209.3 5.35c.4 1.1.1 1.95-.8 2.3-.8.3-1.25.95-.95 1.45.35.5 1 .7 1.45.4.5-.3 1.35.25 1.9 1.25.6.95 1.05 1.2 1.05.55.05-.65-.35-1.45-.85-1.75-.5-.3-.7-1.4-.4-2.45.25-1.05-.1-2.2-.8-2.65-.85-.55-1.05-.3-.6.9zM178 6.05c-3.1.85-1.3 1.7 4.6 2.15 2.9.25 4.05-.05 4.05-1.05 0-.9-.9-1.2-2.8-.9-1.55.2-2.9.1-3.1-.25-.15-.35-1.35-.3-2.75.05zM73.1 9.75c.05 1.15.25 1.3.6.45.4-1.05.95-.95 2.4.4 1.05.95 2.25 1.4 2.65 1 .85-.9-2.5-3.6-4.45-3.6-.7 0-1.25.8-1.2 1.75zM188.25 10.25c.25.7 1.35 1.2 2.5 1.2 1.3-.05 1.85.4 1.55 1.25-.3.75.2 1.3 1.15 1.3.9 0 1.4.45 1.05 1-.35.55.05 1 .9 1 2.55 0 3.85 3.6 2 5.45-1.6 1.6-3.9 1.2-2.85-.5.7-1.15-.35-1.1-3.05.05-1.65.7-1.7.85-.3.95.9 0 2 .55 2.4 1.2.45.75-.25 1-2.25.7-2.3-.35-2.9-.05-2.9 1.35 0 1 .35 1.8.8 1.8.5 0 .6.45.2 1.05-.4.65-1.05.7-1.8.15-1.9-1.5-4.8-1.05-4.15.6.45 1.3.3 1.3-1.15.1-1.5-1.2-1.65-1.2-1.15.2.35.85.25 2.2-.2 2.95-.55.8-.35 1.75.5 2.4 1.15.9 1.15 1.25-.05 2.35-1.2 1.05-1.45 1-1.45-.4s-.25-1.45-1.7-.25-1.6 1.15-1-.4c.35-.95.2-1.75-.35-1.75-.5 0-.95.55-.95 1.25-.05.9-.25.85-.9-.15-.5-.75-1.35-1.05-1.9-.75-.6.4-.8-.15-.5-1.35.3-1.1.95-2 1.5-2 .5 0 .7.35.45.8-.3.4.55.85 1.85.95 1.35.15 2.7-.25 3.1-.85.45-.75-.1-.9-1.6-.4-1.4.45-2 .35-1.65-.3.35-.55-.25-1.2-1.3-1.5-1.1-.25-2.15.1-2.45.9-.4 1.1-1.05 1.15-3.05.25-1.35-.65-2.3-1.5-2.05-1.9.25-.4-.65-.95-2-1.2s-2.25-.1-2 .3c.3.4-.2 1-1.1 1.35-2.2.85-2.6.75-1.9-.4.35-.55.15-1-.45-1-1.15 0-.95 2.75.35 4.85.85 1.35-.4 1.2-5.15-.6-.7-.25-1.25.05-1.25.7 0 .65.45.9 1 .55s1-.15 1 .45c0 .55-.65 1.05-1.45 1.05-.85 0-1.25.55-1 1.25.3.8-.5 1.3-2.1 1.4-2.15.1-2.35-.05-1.25-1.4 1.15-1.4 1.05-1.45-1.1-.3-1.8.95-2.05 1.45-1 2.1.75.45 1 1.2.6 1.6-1.15 1.1-3.7 1.3-3.7.25 0-.5-.5-.9-1.05-.9-.6 0-.75.5-.35 1.15.45.7.25.9-.4.45-.65-.4-2.05-.2-3.2.4-2.45 1.3-2.6.3-.25-2.35 1.75-1.95 1.7-1.95-.95-.2-1.5.95-3.2 1.45-3.75 1.1-.6-.4-1.05-.2-1.05.3 0 .55.8 1.25 1.75 1.55.95.3-.35.35-2.95.1-2.7-.25-5 0-5.35.6-.35.55-1.35.75-2.15.45-1.15-.45-1.4-.05-1 1.5.45 1.7-.2 2.4-3.55 3.85l-4.1 1.7 2.1 1.95c1.2 1.1 2.6 3.3 3.2 4.95l1.1 3-1.9-2.35c-1.65-2.15-1.9-2.2-2.5-.65-.75 1.95 1.05 4.8 2.45 3.95.5-.3.9-.1.9.5 0 .55-.55 1.05-1.25 1.05-.95.05-.95.2-.05.8.8.5.9 1.25.25 2.25-.5.8-.95.95-.95.35 0-.65-1.05-.9-2.5-.65-3.55.7-3.1 2.05 1 2.8 1.9.35 3.3 1 3.05 1.4-.8 1.25-6.85-.15-8.9-2.05-1.05-1-2.25-1.65-2.6-1.45-.35.25-1.15-.4-1.8-1.4-.95-1.55-.8-1.8 1.3-1.8 1.4 0 2.15.45 1.8 1.05-.4.55-.15.7.5.3.7-.45 1.15 0 1.2 1.1 0 1.7.1 1.7 1.35.05.7-.95 1.9-1.75 2.6-1.75.9 0 .75-.65-.5-2-2.15-2.35-3.7-2.65-2.85-.5.75 1.95-1.1 1.9-3.1-.05-2.05-2.1-1.95-4.4.2-4.6.95-.1 2.45-.25 3.25-.3.85-.1 2.05.25 2.75.75.75.55 1.25.6 1.25 0 0-.5-.55-1.5-1.25-2.2-1-1.1-.8-1.2 1.25-.65 1.9.5 2.15.45 1-.35-2.5-1.75-5.05-1.35-4.3.65.55 1.4.4 1.55-.75.7-3.35-2.5-5.95-1.55-5.95 2.15 0 2.2-.4 3.25-1.05 2.85-.55-.35-.75-1.5-.4-2.55.3-1.05.1-1.9-.45-1.9-.65 0-.8-1.2-.45-3 .4-1.9.2-3-.5-3-.6 0-1.75-1.5-2.55-3.4-1.55-3.7-3.25-5.35-3.25-3.1 0 .8.45 1.15.95.8.6-.35.8.25.45 1.55-.3 1.2-.1 2.15.45 2.15.65 0 .55.6-.2 1.5-1.8 2.15-3.35 1.85-2.7-.5.7-2.65-1.35-9.15-2.75-8.65-.55.2-1 1.1-.9 2 .05.9-.3 1.4-.75 1.1-.5-.3-.9-.1-.9.5 0 .55.5 1.05 1.1 1.05.8 0 .75.45-.1 1.5-.7.8-2.2 1.5-3.35 1.5-1.7-.05-1.85-.2-.7-.95 1.3-.8 1.25-1.05-.2-1.6-.9-.35-2.05-.4-2.5-.1-.45.3-1.5.1-2.3-.4-1.2-.75-1.15-.9.25-.95.9 0 1.95-.4 2.25-.9.3-.5-.25-.75-1.2-.6-.95.2-2 .4-2.35.4-2.6.35-.25 6.1 2.5 6.1 2 .05 2.65.3 1.8.85-.7.45-3.1.8-5.25.7-4.55-.1-4.7.05-1.8 2.55l2.15 1.9-3.4 1.45c-1.85.8-2.7 1.55-1.9 1.65.85.1 1.95.3 2.5.45.55.1 2 .25 3.25.35 2.45.1 3.2 3.1.8 3.1-.9 0-1.25.6-.9 1.5.3.8.85 1.3 1.2 1.1.35-.2 1.55 0 2.65.4 1.9.75 1.9.85-.5 1.9l-2.5 1.15 2.7-.55c2.1-.4 2.6-.2 2.2.95-.3.8-.1 2.25.5 3.25.55 1 1.05 1.3 1.05.65.05-.95 1.1-1.1 3.85-.45.2.05-.35.8-1.25 1.7-1.75 1.75-1.25 3.4 1.1 3.4 1.15 0 1.4.65 1 2.3-.65 2.55 2.8 6.65 3.7 4.4.25-.65.55-.2.55 1.05.1 1.75.7 2.25 2.85 2.35 1.5 0 2.2.3 1.55.55-.8.3-.5 1.15.85 2.5 1.7 1.7 2.45 1.85 4.2.95l2.15-1.1-2.15.55c-1.2.3-2.45.1-2.75-.4-.35-.55 1.7-1.3 4.55-1.65 3.4-.5 4.65-1 3.75-1.55-1.15-.75-1.15-1.05 0-2.15.75-.7 1.1-.8.75-.15-.35.65.4 1.4 1.85 1.75 1.4.35 2.5 1.1 2.5 1.65 0 .55.8.45 1.95-.25 1.75-1.1 1.8-1.3.25-2.45-1.8-1.3 3.65-1.2 5.75.1.5.35 1.25.05 1.65-.6.45-.7.3-.9-.45-.45-.65.4-1.15.3-1.15-.2 0-.55 1.8-1.25 4-1.6 2.45-.35 4-1.15 4-2 0-1.05 1.1-1.3 4.5-.95 2.8.3 4.5.1 4.5-.6 0-.55.45-1.05 1-1.05s1 .7 1 1.55c0 .85.45 1.3 1 .95.55-.35 1-1.75 1-3.1 0-1.45.45-2.25 1-1.9 1.35.85 1.3 6.5-.05 6.5-.6 0-.8.45-.45 1 .9 1.4 3.35-1.2 2.7-2.85-.35-1.05.1-1.2 1.9-.65l2.4.75-2.4-2.15c-1.3-1.15-1.85-2.1-1.2-2.1.65 0 .95-.45.6-1-.65-1.05.65-1.35 3.85-1.05 1.1.15 1.6-.2 1.2-.85-.35-.6-.2-1.15.4-1.25.55-.05 1.5-.2 2.05-.35.55-.15 1.45-.3 2.05-.4.7-.05.7-.7 0-2.05-1.45-2.65-1.3-3.7.45-3.7.85 0 1.5.3 1.5.65 0 .35.65.65 1.5.65 1.1 0 1.2-.3.35-1.3-1.3-1.6.3-1.8 1.85-.25.75.75 1.25.75 1.75 0 .35-.6 0-1.1-.9-1.1-.85 0-1.55-.7-1.55-1.55 0-.85-.4-1.3-.95-1-1 .65-2.6-3.25-1.7-4.15.8-.8 10.75-.9 11.25-.15.6.95-2.25 1.8-4.55 1.35-2.85-.55-2.55.9.45 2.5 1.85 1 2.2 1.6 1.25 2.15-1 .65-1 .8 0 .85.7 0 1.25.65 1.25 1.5 0 1.8 1.65 2 2.3.25.25-.7.9.3 1.5 2.25.55 1.9 1.05 2.75 1.1 1.85.05-1.15.7-1.5 2.05-1.15 1.3.35 1.7 1.05 1.3 2.15-.55 1.45-.4 1.45 1.05.3.9-.75 1.45-1.75 1.15-2.25-.65-1.05 3.1-4.9 4.8-4.9 2.15.05 4.6 1.95 2.5 2-.95 0-1.75.35-1.75.75s1.1.75 2.4.75c1.7 0 2.4-.55 2.3-1.75-.1-1.6-1-2.15-2.95-1.85-.4.05-.75-.4-.75-.95 0-.6-.5-.75-1.15-.35-.65.4-.95.15-.65-.7.25-.75 1.45-1.35 2.65-1.3 2.55.15 2.9-2.25.4-2.95-1.45-.45-1.4-.5.25-.45 5.35.1 6.15-.2 6.1-2.45-.1-2.45-1.3-4.1-3.6-5-.85-.35.2-.65 2.25-.65 2.05-.05 3.7.25 3.65.65-.4 2.4.3 4.25 1.6 4.25.85 0 1.5.6 1.5 1.4 0 .75.7 1.9 1.5 2.6 1.8 1.5 2 3.1.3 2.75-.65-.15-1.3.65-1.45 1.75-.2 1.1-.05 1.45.25.75s1.35-1.25 2.3-1.25c.95 0 2.2-.5 2.85-1.15.9-.9 1.7-.6 3.3 1.25 1.6 1.8 1.95 1.95 1.55.6-.35-1.05-.15-1.55.4-1.2.55.35 1.9.8 3 1 2.1.4 2.75-.9 1-2-.55-.35-1-.05-1 .65 0 1-.25 1-1.25 0s-.95-1.45.25-2.2c2.15-1.3 3-1.15 3 .55 0 .8.5 1.5 1.05 1.5.6 0 .8.45.45 1-.35.55.05.7.95.4.85-.35 1.55-1.25 1.55-2s.45-1.4 1-1.4 1-.65 1-1.4c0-.8.55-1.65 1.25-1.95.95-.35.95-.5.05-.55-.7-.05-1.7.8-2.3 1.9-.6 1.1-1.75 2-2.55 2-2.05 0-1.8-1.75.3-2.3 1.6-.45 1.6-.5-.05-.6-1-.05-1.55-.55-1.2-1.05.7-1.2-2.25-7.15-4.3-8.65-1.25-.95-1.2-1.15.65-1.65 1.2-.3 2.4-.15 2.7.35.3.5 1 .9 1.5.9 1.1 0 .05-3-1.65-4.75-.65-.65-1.4-1.7-1.6-2.3-.5-1.5-3.8-.05-3.8 1.65 0 1.05-.45 1-2-.35-1.15-.95-1.6-1.9-1-2.1 1.45-.45 1.25-3.15-.25-3.15-.85-.05-.8-.3.2-.95 1.25-.8 1.2-1.25-.45-3.05-2.05-2.3-2.85-5-1.45-5 .5 0 .65-.7.3-1.5-.8-2.1-5.05-3-6.85-1.5-1.25 1.05-1.5.9-1.5-.95 0-1.2.45-1.9 1-1.55.55.35 1 .15 1-.4 0-.65-1.25-.8-3.15-.4-2.65.5-3.1.35-2.55-1 .4-1.05-.1-1.8-1.4-2.25-1.15-.35-1.8-1.2-1.55-1.95.45-1.1-1.35-2.25-4.5-2.85-.4-.1-1-.5-1.45-.9-1.2-1.2-2.6-.85-2.15.5zm19.65 15.65c1.6 1.05.05 2.05-6.15 4.05l-3.8 1.2 4.95 5.7c2.7 3.1 7.25 8 10 10.9 4.8 4.95 6.4 8.25 4.1 8.25-1.5 0-7.2-6.15-15.85-17.2l-5.2-6.65-4.75 1.55c-2.6.9-5.35 2.1-6.1 2.7-1.1.85-1.3.75-.95-.4.5-1.45 9.9-6.85 14.85-8.45 1.4-.45 3.4-1.2 4.5-1.6 2.75-1.05 2.8-1.05 4.4-.05zm-39.5 9.9c-1.7 1.5-4.75 3.95-6.75 5.5-7.15 5.5-2.5 7.35 10.85 4.3 12.2-2.75 18.5-1.7 18.5 3.15 0 2.05-5.65 10.25-7.1 10.25-.5 0-.9.65-.9 1.45 0 1.6-3.35 3.85-4.3 2.9-1-.95.6-3.75 4.5-7.8 6.25-6.5 5.95-10.2-.7-9.1-1.65.25-6.15 1-10 1.6-19.6 3.25-23.15-.55-9.9-10.55 6.5-4.9 10.95-6.2 5.8-1.7zm-33.4 8.75c0 .3-.95 2.4-2.1 4.65-4.7 9.15 2 21.85 10.6 20.25 14.55-2.75 14.45-19.95-.1-19.95-4.3 0-5.4-.3-5.15-1.5.75-3.55 16.75-.15 16.75 3.6 0 .8.6 1.7 1.35 2 2.8 1.05 1.5 9.8-1.85 12.6-13.7 11.45-29.5 5.35-27-10.4.9-5.7 7.5-15.6 7.5-11.25zm-37.5 11.2c2.45 3.7 4.5 7.25 4.5 7.85 0 .65.65 1.7 1.45 2.35.8.65 1.7 2.45 2.05 4 .35 1.55 1.7 3.8 3 5.05l2.4 2.25 7.1-1.75c7.45-1.8 11.65-2.2 12.7-1.1 1 .95-.25 1.7-3.85 2.25-6.35 1-16.35 3.1-17.95 3.8-1.8.75-4.9-1.75-4.9-3.9 0-.7-.75-1.9-1.65-2.7-.9-.75-2.3-2.85-3.05-4.75-.8-1.85-3.2-6.25-5.35-9.85-4.8-7.85-4.9-8.9-1.2-10.15.1-.05 2.25 2.95 4.75 6.65zM179.5 14c.3.5.05 1.15-.5 1.5-1.25.8-.35 2.5 1.3 2.5.7 0 .6-.4-.3-1-1.15-.75-.85-.95 1.3-1 3.1 0 2.9-1.45-.3-2.3-1.1-.3-1.75-.15-1.5.3zM49.8 15.6c1.35.95 3 1.3 4 .85 1.45-.6 1.3-.85-.8-1.5-4.35-1.3-5.6-1.05-3.2.65zM166 20c.6 1.1.7 2 .3 2-.95.05 1.9 1.95 2.85 2 1.1 0-1.55-4.95-2.9-5.45-1-.4-1.05-.05-.25 1.45zM13.25 19.7c1 .25 1.5.85 1.2 1.4-.3.5-.1.9.5.9.55 0 1.05-.5 1.05-1.05 0-.65.85-.8 2.15-.4 1.4.45 1.9.3 1.4-.45-.35-.6-2.35-1.05-4.35-1-2.05.1-2.9.35-1.95.6zM24 21l-2.5.6 2.5.75 2.5.7-2.5 1.45c-1.35.8-2 1.45-1.45 1.45.6.05 2.5-1 4.3-2.35 3.55-2.6 2.15-3.85-2.85-2.6zM243.95 23.05c-.7.4-.45.85.7 1.2 1 .3 2.7.85 3.7 1.3 1.65.65 1.7.5.6-1.25-1.25-2.05-3.05-2.5-5-1.25zM271.2 26.1c.2.6.7 1 1.1.95.4-.05 2.05.6 3.65 1.45 1.6.8 3.2 1.1 3.5.6.3-.5-1.5-1.6-4-2.45-2.7-.95-4.45-1.15-4.25-.55zM251.95 32.4c1.1 3.05 4.3 3.45 3.9.5-.25-1.45-1.1-2.3-2.5-2.4-1.8-.1-2 .2-1.4 1.9zM120 32.55c0 .85-.45 1.3-1 .95-.55-.35-1-.15-1 .45s.7 1.4 1.55 1.7c.85.35 1.3 1.25 1.05 2-.45 1.1-.15 1.2 1.4.35 2.3-1.25 2.7-3.2.5-2.35-1.05.4-1.5-.1-1.5-1.65 0-1.6.45-2.05 1.55-1.6.9.3 1.3.15.95-.4-.95-1.55-3.5-1.15-3.5.55zM134.6 33.4c.35.95-.05 1.85-1 2.2-2 .8-2.1 2.4-.1 2.4.85 0 1.5-.5 1.5-1.05 0-.6.35-.85.85-.55.45.3.75-.45.65-1.65-.1-1.15-.7-2.3-1.35-2.55-.7-.2-.9.25-.55 1.2zM46.35 36.45c.35.9-.5 1.9-2.35 2.7-1.55.7-2.65 1.6-2.4 2.05.3.45-.25.5-1.2.1-1.2-.45-1.5-.25-1 .55 1 1.6 2.7 1.4 5.35-.65 2.4-1.85 3.85-6.2 2.1-6.2-.6 0-.8.65-.5 1.45zM66.6 36.6c-.5 1.25-.95 1.35-2.05.45-1.1-.9-1.5-.7-2.05 1-.45 1.4-.2 2.5.65 3.05.95.6.55.85-1.35.9-3.15 0-4.6-1.65-2.05-2.3 1.4-.4 1.35-.5-.35-.6-1.15-.05-3.2.85-4.5 2.05l-2.4 2.15 3-.55c2.4-.4 8.35.7 6.5 1.25-2.45.7-4 .65-4-.15 0-.55-.5-.65-1.05-.3-.6.35-.8 1.35-.5 2.2.35.9-.25 2.1-1.5 3-1.15.8-1.85 2.05-1.55 2.8.3.75.1 1.65-.45 2-.5.3-.95-.35-.95-1.45s-.5-2.3-1.15-2.7c-.8-.5-1-.05-.65 1.3.45 1.65.1 1.9-1.85 1.5-1.7-.3-2.35 0-2.35 1.25 0 1 .45 1.4 1.15.95.7-.4.9-.25.5.35-.35.6 0 1.75.8 2.55 1.3 1.35 1.3 1.65 0 2.75-1.2 1-1.4.95-.95-.2.45-1.15-.2-1.35-2.95-1.05-2.5.3-3.55 0-3.55-.9 0-.75-.7-.35-1.55.9-.85 1.2-2.15 2.2-2.9 2.2-.7 0-1.55.9-1.85 2-.5 2-4.7 2.95-4.7 1.05 0-.55.65-.75 1.4-.45.75.3 1.7.05 2.1-.6 1.25-2-.1-2.1-4.35-.2-2.3 1.05-3.85 2.15-3.55 2.45.35.35-.4.35-1.65 0-1.75-.45-2.1-.25-1.45.85.45.75.5 1.1.1.75-1.45-1.3-6.75 1.25-5.6 2.65 1.1 1.35-1.35 3-3 2-1.45-.9.15 3.4 1.75 4.7 1.4 1.15 1.45 1.05.45-.8-.85-1.65-.8-2.05.4-2.05.85 0 1.25.55.95 1.35-.25.75.35 2.2 1.4 3.25 1.05 1.05 1.6 2.15 1.3 2.45-.3.35.3.65 1.35.7 1.05 0 1.35.3.65.55-.7.3-.95 1-.6 1.6.45.7.05.85-1.05.4-1-.35-2.2-.65-2.7-.65s-.9-1.15-.9-2.5c0-1.4-.4-2.5-.95-2.5-.55 0-.55 1.25 0 3.25.55 1.8.95 3.35.95 3.5 0 .15 1.3.25 2.95.25 1.6 0 3.2.45 3.55 1 .35.55 1.85.75 3.3.45 2.35-.5 2.5-.4 1.15.75-.9.7-2.1 2.2-2.75 3.3-1 1.75-1.15 1.8-1.15.25-.05-1.1-.85-1.75-2.2-1.75-2.1 0-2.1.05-.35 2 1 1.1 2.65 2 3.7 2 1.05 0 1.65.45 1.35.95-.35.55-1.25.7-2.1.4-.8-.3-1.45-.05-1.45.55 0 .6.7 1.1 1.5 1.1.85 0 1.5.55 1.5 1.25 0 1.35 4.85 3.95 6 3.25.4-.25 1.35.8 2.1 2.3.75 1.5 2.15 3.55 3.1 4.55.9 1.05 1.4 2.5 1.1 3.25-.35 1 0 1.25 1.1.8.85-.35 1.35-.95 1.1-1.4-.25-.45.3-1.1 1.25-1.45.95-.35 1.85-.2 2.05.4.2.55.95 1.05 1.7 1.05.7 0 1.55.75 1.95 1.65.45 1.2.95 1.35 1.7.6.7-.7.7-1.65-.1-3.15-1.35-2.55.4-2.9 1.85-.35 1.3 2.25 1.4 1.1.15-2.15-.9-2.3-.75-2.55 1.25-2.35 2.35.25 4.85 2.7 4.05 4-.55.9 1.05 1 1.95.1.4-.35.2-1.25-.4-1.95-.6-.75-.8-1.8-.45-2.35.95-1.55 2.35-1.3 2.2.4-.25 2.35 1.8 2.25 2.15-.15.2-1.3.85-2 1.65-1.7.7.3 1.95-.15 2.8-1 .85-.85 1.8-1.25 2.1-.9.35.35-.15 1.15-1.1 1.85-1.5 1.1-1.4 1.2.9.75 1.95-.35 2.5-.95 2.15-2.35-.6-2.25 3.45-1.6 5.45.85.7.9 1.9 1.7 2.7 1.8 1.75.25.95-2.25-1.05-3-1.8-.7-1.85-2.6 0-2.6.75 0 1.65.8 2 1.75.85 2.3 3.55 6.95 3.6 6.05 0-.35 1.3-.3 2.95.2 2.15.6 3.05.45 3.45-.6.45-1.1-.05-1.25-2.2-.75-2.45.6-2.55.5-1.35-1 .8-.9 2.65-1.65 4.2-1.65 1.55 0 3.1-.45 3.45-1 .4-.65-.65-.9-2.7-.75-4.3.35-4.45-2.15-.3-4.25 2.9-1.45 3.75-4.75 2.5-9.5-.1-.55-.2-1.35-.1-1.8.8-5 .85-7.7.05-7.7-.5 0-.95.4-.95.95 0 .5-.7 1.6-1.55 2.5-1.45 1.4-1.45 1.6-.05 2.15.9.35 1.35 1 1.05 1.45-.8 1.3-5.45-1.15-5.45-2.8 0-.9-.6-1.25-1.55-.85-.95.35-1.3.15-.9-.45.35-.55.05-1.8-.7-2.75-1.2-1.55-1.1-1.5.75.05 2.3 1.95 4.4 2.3 4.4.7 0-.6-.45-.8-1-.45-1.6 1-1.15-3.15.5-4.5 2.05-1.7 1.15-2.4-3.25-2.55-2-.1-3.8-.65-4.05-1.3-.2-.65-.95-1.15-1.65-1.15s-1.9-.8-2.7-1.75c-1.2-1.55-1.15-1.6.3-.45 1.35 1.05 1.7 1 2.2-.25.3-.85 1.3-1.55 2.2-1.55 1.85 0 1.5-2.15-.5-2.8-.9-.3-1.05 0-.5.9.45.8-.2.55-1.4-.5-1.15-1.05-2.15-2.8-2.15-3.9 0-1.15-.25-1.75-.6-1.45-1.05 1.1-3.1-1.65-2.65-3.45.3-1.1-.05-1.8-.9-1.8-1.05 0-1.3-1.05-1-4 .3-3.15 0-4-1.25-4-1.9 0-2.05 1.1-.35 2.9 1.05 1.1.8 1.1-1.25.05-2.35-1.2-2.4-1.2-1 .55 1.35 1.7 1.35 1.8-.3 1.2-2-.75-3.4 1.9-4.75 8.8-.45 2.2-1.1 5.1-1.5 6.4-.75 2.4-.75 2.4 1.6.75 4.4-3.05 12.15-1.25 8.85 2.05-.9.9 1.4 8.05 2.95 9.3 1.65 1.3 5.15 9.2 5.15 11.65 0 2.55.1 2.6 1.35.9 1.55-2.1 3.85-1.25 3.55 1.3-.4 3.25 1.9 7.15 3.8 6.45 1.6-.6 1.65-.45.45 1-1.7 2.1-3.15 2.2-3.15.2 0-.85-.6-1.5-1.35-1.5-.75 0-2.15-.85-3.1-1.95-1.4-1.5-2.25-1.75-4.2-1-1.35.55-3.5.95-4.8.95-1.3 0-3.6.65-5.2 1.5-1.55.8-3.65 1.5-4.6 1.5-3.2 0-14.2 4.25-16.65 6.4-1.6 1.4-2.5 1.7-2.8.9-.25-.65-1-.95-1.75-.7-1.45.55-2.6-2.7-2.05-5.7.25-1.1.05-1.75-.4-1.45-.45.25-1.8-1.85-3.1-4.75-3.5-7.95-8.2-14.85-9.7-14.25-1.75.65-1.65-1.9.1-3.35.75-.65 2.25-1.35 3.3-1.55 1.05-.2 3.7-1.1 5.85-2.05 2.15-.9 5.8-1.7 8.1-1.8 2.3-.1 4-.5 3.75-.85-.65-1.05 2.85-2 3.85-1 2.25 2.25 6.45-1.7 7.05-6.6.55-4.9 4.35-13.25 6-13.25.5 0 .65-.6.4-1.4-.4-.95 0-1.2 1.35-.85 2.35.6 2.55-1 .4-3.2-1.45-1.4-1.45-1.55 0-1.55.85 0 1.55.4 1.55.9s.65 1.15 1.45 1.45c.95.35 1.25.05.9-.9-.35-.9.05-1.45 1.05-1.45.9 0 1.6.65 1.6 1.4 0 .95.7 1.25 2.15.85 1.8-.45 2.05-.25 1.5 1.25-.45 1.1-.2 2.15.55 2.65 2.35 1.5 3.05.9 2.5-2-.45-2.1-.05-3.25 1.6-4.65 1.6-1.4 1.8-1.95.75-2.3-.75-.25-2.2.5-3.15 1.65-2.05 2.55-2.75 2.6-6.55.65-1.55-.8-2.15-1.5-1.35-1.5 1.35-.05 1.35-.15 0-1-2.1-1.35-2.7-1.25-3.4.6zm24.4 54.9c0 1.35-.4 2.5-.9 2.5-1.05 0-2.15-3.65-1.3-4.45 1.25-1.25 2.2-.4 2.2 1.95zm-5.35 9.95c0 1.75-2.35 2.85-3.2 1.5-.3-.5-.3-1.4.05-1.95.95-1.5 3.15-1.2 3.15.45zM243.05 36.7c-.05 1.55-.5 2.05-1.55 1.65-.8-.3-1.5-.05-1.5.55 0 .6 1.15 1.1 2.5 1.1 2.65 0 2.85-.4 1.5-3.5-.8-1.9-.85-1.9-.95.2zM34.25 41.75c-1.75.6-1.55 2.25.25 2.25.85 0 1.5.45 1.5 1s-.45 1-1 1-1 .4-1 .9.8.8 1.75.65c1.1-.2 1.6-.95 1.4-2.15-.55-2.9-1.5-4.15-2.9-3.65zM48.4 42.6c.35.85.6 2 .6 2.5s.7.9 1.5.9c1.9 0 1.95-1.7.05-3.55-1.85-1.9-2.9-1.85-2.15.15zM110.25 48.65c-2.35.95-1.25 1.85 2.25 1.9 2.35 0 3.5-.45 3.5-1.4 0-1.15-.3-1.15-1.5-.15-1.05.85-1.5.9-1.5.1 0-1.15-.7-1.25-2.75-.45zM272.5 49c-.9 1.5-.45 1.85 3.3 2.6 2.15.45 3.2.25 3.2-.55 0-.65-.5-.85-1.05-.5-.6.35-1.9-.1-2.9-1-1.3-1.2-2.05-1.35-2.55-.55zM20.75 49.75c-1.45.35-2.6 2.25-1.35 2.25.25 0 1.1.25 1.9.55.8.3 1.7-.1 2.05-.95.65-1.8-.15-2.4-2.6-1.85zM31 49.9l-2.5.7 2.45.65c1.5.4 2.8.2 3.25-.55.6-.9.75-.9.8.1 0 .75.45 1.05 1 .7.55-.35 1-.05 1 .7.05.95.3.9 1-.2 1.5-2.4-2.1-3.45-7-2.1zM237.6 54.75c-.35.3-.6 1.3-.6 2.15.05 1.4.15 1.4 1 .1.85-1.25 1.1-1.15 1.6.7.35 1.3 1.15 1.95 2 1.65.95-.4 1.1-1.05.4-2.35-1.05-1.95-3.45-3.2-4.4-2.25zM33.1 56.25c-1.35.7-2.55 1.8-2.7 2.5-.15.75-.05.85.25.35.25-.55 1-.8 1.65-.55.65.25 1.75-.45 2.45-1.55 1.5-2.35 1.5-2.35-1.65-.75zM264.2 56.85c-1.05.65-1 1.1.25 2.1 1.2 1 1.55 1 1.55.05 0-.7.65-.95 1.65-.6 1.35.55 1.45.4.35-.9-1.4-1.7-1.95-1.8-3.8-.65zM229.75 57.7c-2.7.7-2.05 2.1.75 1.55 2.85-.55 3.25.5.85 2.25-2.05 1.5-.95 3.5 1.95 3.5 1.8-.05 1.9-.2.7-1-1.7-1.15.1-2.95 2.95-3 1.15 0 1.2-.25.2-1.25s-1.45-.95-2.2.25c-.9 1.5-1.45.3-1.05-2.25.1-.8-1.25-.8-4.15-.05zM249.2 61.25c2.4 2.2 5.7 3.75 6.2 2.9.3-.45-1.05-1.55-3-2.5-4.15-1.95-5-2.1-3.2-.4zM279.7 62.45c-.95.75-1.65 1.95-1.5 2.65.15.75-.7 1.5-1.95 1.7-1.6.25-2.25-.15-2.25-1.35 0-1.05-.55-1.45-1.5-1.1-.8.35-1.5.15-1.5-.4 0-1.2-1.05-1.2-2.95 0-1.2.75-1.2 1.15-.1 2.45 1.65 2.05.15 2.1-4.4.2-1.85-.8-3.65-1.15-3.95-.85-1 1-5.6 1.15-5.6.2 0-.55-.95-.95-2.05-.95-1.65 0-1.95.45-1.45 2 .45 1.5.25 1.85-.85 1.4-.9-.3-1.7.15-2.05 1.3-.3 1-.4.55-.2-.95.2-1.85-.15-2.75-1.1-2.75-.8 0-1.15.4-.85.9.65 1.05-2.25 2.35-3.55 1.55-.5-.3-.9.65-.9 2.1 0 2.35-.2 2.5-1.6 1.4-1.3-1.1-1.7-1.1-2.45.1-1.65 2.65-.9 3.5 2.75 3.05.65-.1 2.5 1.75 4.1 4.1 1.65 2.35 5.7 7.05 9.1 10.45 6.1 6.1 7.7 9.1 4.35 8.05-.95-.35-4.65-1.35-8.25-2.25-8.15-2.15-17.9-5-20.4-6-1.3-.55-1.7-.45-1.25.3.35.6.3 1.25-.1 1.5s-.2.3.4.15c.65-.15 1.9.8 2.8 2.15.85 1.3 3.15 3.95 5.05 5.9 3.8 3.8 4.3 5.65 2.05 7.5-1.6 1.3-3.95.5-3-1.05.3-.5-.1-1.15-.9-1.5-.8-.3-1.75-1.65-2.1-2.95-.3-1.35-1.2-2.45-1.95-2.45-1.8 0-12.2-16.3-10.7-16.8.75-.25.8-.95.05-2.3-1.2-2.3-3.25-2.45-4.95-.4-1.4 1.65-3.5 2.1-2.5.5.35-.55.2-1-.35-1s-.7-1-.4-2.15c.45-1.8.25-2.05-1.2-1.5-1 .4-2.4.15-3.2-.45-2.05-1.7-1.65-.1.6 2.3 1.1 1.15 1.7 2.55 1.35 3.1-.35.6-1.15.25-1.95-.85-1.1-1.5-1.35-1.55-1.35-.25 0 .85-.7 1.85-1.55 2.2-.85.3-1.3 1.05-.95 1.6.35.55-.3.9-1.55.75-1.5-.15-2.3.35-2.5 1.65-.35 2.1-2.15 3.55-4.45 3.55-1.35 0-1.35-.1 0-.95 1.05-.7.45-.8-2-.35-3.2.65-3.4.55-2.1-1 1.3-1.55 1.15-1.65-1.3-.7-3.4 1.3-3.9 1.3-3.1.05.35-.55.15-1-.45-1-.55 0-1.05.45-1.05 1s-.5 1-1.1 1c-.6 0-.85-.65-.55-1.5.35-.85-.25-1.9-1.5-2.6-1.55-.8-1.9-.8-1.4.05.5.8-.05.95-1.85.5-1.95-.5-2.6-.3-2.6.8 0 .85-.65 2.05-1.5 2.75-1.2 1-1.5 1-1.5-.05 0-.7-.35-.95-.75-.55-.4.45.1 1.35 1.1 2.1s1.55 1.85 1.2 2.45c-.35.55-.2 1.05.4 1.05 1.55 0 2.55-3.05 1.3-3.85-1.65-1 .8-3.65 3.45-3.7 1.45-.05 2.35.65 2.75 2.25.35 1.25.95 2.3 1.4 2.3 1.2 0 .7 3.85-.65 5.2-1.2 1.2-1.35 1.05-1.55-1.45-.1-.7-1.25-1.4-2.6-1.6-2.1-.3-2.25-.1-1.2 1.15.85 1.05.9 1.75.2 2.15-.6.4-1.05 0-1.05-.85 0-.9-.6-1.3-1.4-1-.75.3-1.7.05-2.05-.55-.85-1.35-4.55-1.35-4.55 0 0 .6-.45.8-1 .45-.55-.35-1-.15-1 .45 0 .55-.45 1.05-1 1.05s-.95-.35-.9-.75c.35-2.2-.2-3.3-1.35-2.6-.7.45-2.05.65-3 .5-1.35-.2-1.75.45-1.75 2.8 0 1.65-.5 3.05-1.1 3.05-.7 0-.95-1.2-.7-2.95.4-2.7.25-2.85-1.65-1.8-1.85.95-1.9.9-.65-.6 1.2-1.5 1.2-1.6-.2-1.1-1.15.45-1.8-.1-2.25-1.9-.5-2-.9-2.3-1.9-1.35-1.05.95-.95 1.45.55 2.45 1 .75 1.55 1.95 1.25 2.8-.5 1.25-.85 1.25-2.15.25-.95-.8-1.3-.85-.9-.15.4.65-.05 1.4-.95 1.75-.9.35-1.4.9-1.05 1.2.3.35 1.15.25 1.85-.2.7-.4 2.65-.9 4.3-1.1 2-.2 2.6 0 1.7.6-.95.6-1.05 1.05-.25 1.55 1.85 1.15 1.25 2.55-1.15 2.6-2.15 0-2.1.1.5 1.7 3.45 2.15 3.5 3.25.2 3.25-1.45 0-2.3-.45-1.95-1 .8-1.35-.8-1.3-2.15.05-.75.75-1.05.25-.95-1.75.1-2.2-.4-2.85-2.25-3.15-1.5-.2-2.15.1-1.7.75 1.25 2.05-.35 1.1-2.9-1.65-1.4-1.5-2.55-2.3-2.55-1.8 0 1.1-2.9-2.6-2.95-3.75-.05-.45.5-.5 1.2-.05.7.4.6-.05-.25-1.1-1.35-1.7-1.55-1.7-1.85-.2-.15.9-.8 1.35-1.4 1-.65-.4-.75-.2-.3.55.4.65.1 1.95-.6 2.85-1.05 1.25-1.05 1.45-.05.85.7-.4 1.85-.35 2.5.2.65.55 2.1 1.2 3.2 1.5 1.55.35 1.4.5-.65.6-1.5.05-2.85-.4-3.05-1.05-.25-.75-.85-.7-1.85.25-3.4 3.2-5 1.75-2.8-2.4 1.05-2 1-2.05-.5-.85-1.4 1.2-2.05 1.15-4.3-.35-2.6-1.7-2.65-1.7-2.1.4.35 1.25.1 2.1-.6 2.1-.65 0-.55.4.3.95 1 .6 1.8.4 2.65-.75 1.15-1.6 1.3-1.55 1.95.1 1.05 2.65-.85 4.15-3.45 2.75-1.2-.65-2.6-.85-3.1-.55-.55.35-1 .15-1-.45 0-.55-.85-1.05-1.9-1.05-1.4 0-1.8.55-1.4 1.9.3 1.15-.4 2.7-1.8 4-1.25 1.15-1.75 2.1-1.1 2.1.65 0 1.2.5 1.2 1.05 0 .6-.35.85-.8.6-.45-.3-1.45-.1-2.25.4-1 .65-1.05.9-.2.95.7 0 1.25.5 1.25 1.1 0 .6-.65.85-1.45.55-1-.35-1.25-.05-.85 1 .3.8 1.35 1.3 2.25 1.05 1.35-.35 1.6.1 1.25 1.95-.3 1.55.25 3.05 1.45 4.15 2.95 2.75 8.6 11.2 7.4 11.2-.55 0-1.05-.45-1.05-1s-.5-1-1.1-1c-.8 0-.75.45.1 1.5.7.85 1.65 1.5 2.2 1.5.85 0 3.8 2.45 3.8 3.2 0 .15-1.6.4-3.6.55-1.95.15-4.4.7-5.5 1.3-1.3.7-1.9.7-1.9 0 0-.6.5-1.05 1.05-1.05.6 0 .8-.45.4-1.05-.35-.55 0-1.8.7-2.7.95-1.15 1-1.4.1-.9-.7.45-1.25.3-1.25-.35 0-1.7-2.85-4.2-4-3.5-.55.35-.75 0-.45-.8.35-.9 1.55-1.25 3.25-1l2.7.45-2.85-2.65c-1.6-1.4-2.6-2.9-2.25-3.2.3-.35.1-1.2-.5-1.95-.9-1.05-1.4-1-2.7.3-1.7 1.7-1.6 1.9 3.45 4.95 1.75 1.05 1.7 1.15-.25 1-1.15-.05-3.4-1.7-5-3.6-1.6-1.95-3.2-3.65-3.6-3.8-.4-.2-.45-.9-.2-1.55.75-2-4.35-6.3-5.8-4.85-1.75 1.75-4.15 1.5-3.45-.3.65-1.65-1.85-2.15-2.8-.55-.6 1-4.55 1.05-4.55.05s-3.95-.95-4.55.05c-.3.55.15.95 1 .95s1.55.45 1.55.95c0 .55-.75.7-1.65.35-1.25-.45-1.45-.3-.85.7.6.95.4 1.15-.8.7-.9-.35-2.3.05-3.1.85-1 .95-1.7 1.1-2.15.4-.85-1.45-2.95-.65-2.95 1.15 0 1.9-2.8 1.85-3.7-.1-.55-1.2-.65-1.15-.75.3-.05 1.65-.2 1.7-1.55.35-2.9-2.9-1.85-4.7 2.55-4.35 4.2.35 6.1-.65 3.3-1.7-.85-.35-2.2-.1-3 .5-1.25 1.05-1.75.55-1.45-1.35.05-.4-.45-.75-1.15-.75-1.7 0-4 3.8-3.15 5.15.4.65.1.9-.7.6-.75-.25-1.3-1-1.15-1.55.1-.6-.7-1-1.8-.9-1.1.05-1.8.6-1.6 1.15.25.6.95.9 1.65.75.7-.15 1 .3.7 1.15-.4 1 0 1.3 1.25.95 1-.25 2.15 0 2.5.6.4.65-.15 1.1-1.3 1.1-1.1 0-2.2.55-2.45 1.25-.35.85-.95.65-2.05-.75-.85-1.1-1.6-1.55-1.65-1 0 .55-.4.4-.9-.4-.5-.75-1.4-1.05-2-.65-1.35.85-1.45 3.75-.1 5.35.7.85.65.95-.15.25-.75-.6-1.75-.2-2.95 1.25-1.65 1.95-1.85 2-1.85.4-.05-1-.5-1.55-1.05-1.2-.6.35-.75 1.05-.45 1.55.3.55-.15.95-1.05.95-1.05 0-1.35.45-.85 1.25 1.3 2.05 1.3 4.15.05 4.95-.85.55-.7.75.45.8.9 0 1.9.7 2.2 1.5.4 1-.05 1.5-1.3 1.5-1.05 0-2.2.45-2.55 1-.35.55.05.7.95.4 1.75-.7 4.55 1.2 4.55 2.95-.05.85-.25.85-.75.05-1.15-1.7-5.1-1-6.7 1.15-2 2.65-1.9 4.45.2 4.45 1.1-.05 1.35-.3.6-.75-.75-.5-.35-1.3 1.2-2.5 2.65-2 4.1-.8 2.5 2.15-.9 1.7-.7 1.9 1.45 1.65 1.4-.15 2.5.1 2.5.6 0 .8-1.5 1.25-3.25.95-1.1-.15-.9 1.7.25 2.4.55.35 1 .05 1-.6 0-.7.3-.95.65-.6.35.4 1.35.1 2.2-.55 1-.8 1.3-.85.85-.1-.4.65.05 1.45.95 1.75 1.5.6 1.4.9-.5 2.65-2.8 2.65-2.7 3.15.35 1.75 1.4-.6 2.8-.85 3.15-.45 1 .95-2.75 4.7-4.05 4.05-.6-.3-.25.15.85 1.05 1.45 1.15 1.55 1.55.45 1.55-.85 0-2-.5-2.6-1.1-.75-.75-1.3-.7-1.85.25-.4.75-.4 1 .05.6s1.4.1 2.15 1.15c.95 1.4 2.3 1.8 5.3 1.6 2.95-.2 4.05.1 4.05 1.1 0 .75-.65 1.4-1.5 1.4-.8 0-1.5.5-1.5 1.05 0 .6-.45.8-1 .45-.6-.4-.65.2-.15 1.65.45 1.25 1.4 2.45 2.15 2.7.8.25 1-.05.5-.85-.45-.7-.15-1.6.6-2.1 2.1-1.3 2.9-1.1 2.25.6-.3.8-.05 1.5.55 1.5.6 0 1.1-.45 1.1-1 0-1.7 1.45-1.05 3.35 1.6 1.4 1.95 1.6 2.85.7 3.75-.85.85-1.35.8-2.05-.35-1.15-1.85-2.25-.8-1.4 1.4.65 1.7 4.25 1.35 5.5-.6.35-.55 1-.9 1.45-.8.5.1 1.2-.65 1.6-1.7.45-1.2.75-1.3.8-.35.05 1.25.2 1.25 1.3 0 .7-.8 1.15-1.3 1-1.05-.3.5 3 3.05 4.05 3.05.45.05.1-.95-.75-2.15-2.15-3.1-1.95-3.55 1.2-3.3 4.5.3 4.65.4 2.7 2.55-1.85 2-1.8 2 1.1.5 1.65-.85 3.65-1.55 4.45-1.55 1.3-.05 1.3-.15.05-.95-1-.6-1.75-.55-2.15.15-.45.7-1.15.35-2-.95-.7-1.15-1.95-1.85-2.85-1.55-1.25.4-1.3.3-.2-.5.95-.65 2.2-.55 3.95.35 2.6 1.35 6.2.45 6.2-1.55 0-1.25 6.3 0 7.25 1.4.5.75.7.7.75-.15 0-.7 1.15-1.25 2.55-1.25s2.3-.4 2-.9c-.9-1.45.6-4.25 1.95-3.75.7.3 1.75 0 2.4-.65.8-.8 1.1-.8 1.1.15 0 .95.5.95 2.25 0 2.05-1.05 2.1-1 .9.5-.8.9-2 1.65-2.75 1.65-1.7 0-1.85 1.6-.25 2.6.7.45.9.25.45-.45-.75-1.25 1.6-1.65 2.75-.45 2 1.95 3.5 1.05 2.55-1.55-.7-1.8-.7-2.7.05-2.95.6-.2 1.7-1 2.5-1.8 1.2-1.2 1.6-1.2 2.9.1 2 2 2.65 1.9 2.65-.5 0-1.1-.5-2-1.1-2-.6 0-.05-.9 1.25-1.95 1.3-1.1 1.8-2 1.1-2-.7-.05-1.25-1.35-1.25-3.05 0-1.65.35-2.9.75-2.8.4.15 1.8-.35 3.1-1.05 1.25-.75 2.6-1.05 2.9-.75.3.35.05.6-.65.6-.65 0-.9.5-.5 1.15.45.75.25.9-.6.35-.85-.5-1.1-.3-.8.6.3.75 1.3 1.25 2.25 1.1 1.2-.25 1.5.05.95 1-.6 1-.45 1.05.65.15 1.45-1.15 7.85 2.1 7.55 3.8-.05.4.3 1.05.8 1.5.55.5.65.35.3-.25-.35-.65.25-1.95 1.3-2.9 1.45-1.3 1.7-2.15.95-3.05-.8-.95-.2-1.55 2.45-2.4 2.85-.95 3.65-1.8 4.15-4.55.55-2.95.95-3.3 3.3-2.85 2.45.4 2.5.3 1.05-1.15-1.35-1.35-2-1.4-4.4-.3-2.25 1-2.95 1-3.25.05-.25-.7-1.15-1.25-2.1-1.3-1.45 0-1.45-.15.15-1.05 1.3-.75 2.2-.7 3.25.15 1.85 1.5 1.85.05 0-2.4-.8-1-1.15-2.5-.85-3.25.25-.75 0-1.4-.6-1.4s-1.1-.55-1.1-1.15c0-.65 1.1-.15 2.45 1.1 1.55 1.5 3.2 2.1 4.5 1.75 1.35-.35 2.05-.05 2.05.9 0 .75.45 1.4 1 1.4s1-.45 1-1 .6-1 1.4-1c2.25 0 2.6 3.7.5 5.6-1.65 1.45-1.9 1.5-1.9.15 0-.8-1-1.75-2.2-2.1-2.1-.55-2.05-.45.35 1.95 2.05 2.05 2.95 2.3 4.9 1.55 1.8-.65 2.8-.5 3.8.5.8.9 1.8 1.1 2.5.6 1.65-1.25 3.9-.95 4.4.5.25.7-.4 1.25-1.5 1.25-2.7 0-3.35.95-2.2 3.1 1.35 2.55 4.45.65 4.75-2.9.25-3.35 2.35-4.65 3.95-2.5 1 1.35 1.25 1.4 1.25.2 0-1.9 3.75-5.1 4.5-3.85.35.5.15.95-.45.95-.55 0-1.05.5-1.05 1.05 0 .6.45.8 1.05.4.55-.35 1.65-.1 2.4.5.95.8 1.55.8 2 .1.4-.6.2-1.05-.4-1.05-.55 0-1.05-.7-1.05-1.6 0-1 .55-1.4 1.45-1.05 1.05.4 1.25.05.8-1.15-.55-1.55-.45-1.55 1.25-.2s1.8 1.35 1.2-.35c-.5-1.3-.35-1.7.6-1.35 1.5.55 2.05-2.95.6-3.85-.65-.4-.55-1.15.15-2.05 1.95-2.3 2.95-1.6 2.3 1.6-.35 1.85-.2 3 .45 3 1.6 0 2.4-1.75 1-2.25-.75-.25-.45-1.1.85-2.4 1.95-1.95 2.35-2 6.3-.65 2.35.8 5.75 1.25 7.6 1 1.85-.25 4.15.1 5.1.8.9.65 2.6 1 3.7.7 1.3-.35 1.75-.15 1.25.65-.4.65-.3 1.15.2 1.15.85 0 2.2-2.9 2.55-5.5.1-.55 1-1.15 2-1.35 1.2-.2 1.65.05 1.2.75-.4.7.2 1.1 1.6 1.1h2.3l-2.25-1.55c-3.6-2.55.2-5.7 4-3.3.7.45.85.85.3.85s-.35.45.45.95c1 .6 2.15.1 4-1.8 1.4-1.5 3.35-2.55 4.3-2.35 1.65.35 2.2-.7 1.8-3.55-.05-.7.6-1.25 1.5-1.25 1 0 1.45.55 1.15 1.4-.7 1.75 1.15 3.6 2.9 2.9 1.65-.6 1.9-4.3.35-4.3-.6 0-.75.55-.3 1.25.5.85.2.8-.95-.1-2.2-1.8-2.2-4.15.05-4.25.95-.05 3.05-.15 4.65-.25 1.9-.15 3.85.6 5.4 2.05 1.4 1.25 3.2 2.3 4.1 2.25 1.1 0 .8-.45-.8-1.35-2.6-1.45-4-5.15-1.6-4.25.75.3 1.9-.1 2.55-.9.9-1.1.9-1.45 0-1.45-.65 0-.85-.5-.45-1.15.5-.85 1-.75 1.8.3.6.8 1.9 1.75 2.85 2.15.95.35 1.75 1.35 1.75 2.15 0 .85.75 1.55 1.7 1.55 1.3 0 1.45-.25.5-1.2-2.7-2.7-.95-3.65 2.3-1.25 1.6 1.25 1.7 1.7.6 2.4-1.7 1.05-.55 3.05 1.7 3.05 1.35-.05 1.4-.2.35-.9-.85-.5-.95-1.1-.35-1.45 1-.65 2.6.85 3.3 3.05.25.8.9.9 1.75.4 1.1-.7.7-1.5-1.75-3.65-4.55-4.1-3.45-5.1 2.9-2.7.85.3 2.4.45 3.5.3 2-.2 2-.2 0 1.35-1.85 1.45-1.8 1.45 1.05.45 2-.75 3.1-1.85 3.2-3.25.1-1.85 0-1.9-.85-.4-1.1 2-3.9 1.3-3.9-.95 0-1.3.25-1.3 1.7-.1 1.05.8 1.4.9.95.15-.45-.75.45-1.8 2.35-2.8 2.4-1.25 2.95-2.05 2.5-3.6-.45-1.3-.25-1.85.65-1.7.8.2 1.25-.4 1.05-1.45-.15-1.05.35-1.75 1.3-1.75.95 0 1.35-.45.9-1.15-.45-.7-.25-.9.4-.45 2.7 1.65 5.35-1.25 3.55-3.95-.9-1.4-1.85-2.3-2.15-2-.25.25.05 1.15.7 1.9.9 1.1.8 1.55-.45 2-.9.35-1.3.2-.95-.35.35-.55-.2-1-1.2-1-1.4-.05-1.5-.2-.45-.9.75-.45 1.55-2.4 1.75-4.25.25-2.2.1-2.85-.5-1.95-.7 1.1-1.1.95-2.05-.8-.65-1.2-1.6-1.9-2.1-1.55-1.75 1.05-1-.45 1.25-2.5 1.85-1.75 1.9-2.05.5-2.05-.95 0-1.7-.45-1.7-1s-.75-1-1.6-1c-1.35 0-1.4.25-.4 1.5.7.85 1.05 1.8.7 2.1-.3.3-1.05-.4-1.7-1.55-.7-1.4-1.9-2.05-3.3-1.85-1.65.25-2.1-.15-1.9-1.55.2-1.15-.45-2-1.75-2.35-1.65-.45-1.85-.85-.95-1.95 1-1.15 1.35-1.1 2.45.4.7.95 1.55 1.5 1.85 1.15 1.5-1.5-2.9-3.75-4.7-2.45zm-25.85 8.8c.85.85 4.7 1.25 11.45 1.3 11.1.05 13.3.45 18.05 3.2 3.65 2.15 6.75 7.4 4.7 8.05-1 .35-1 .6-.05 1.2.85.55.45 1.9-1.5 4.95-1.45 2.35-2.85 4-3.15 3.75-.6-.6-6.35 5.25-6.35 6.45 0 .45-.95.85-2.1.85-1.7 0-1.9-.3-1.05-1.35.65-.75.9-1.55.65-1.8-.3-.3 1.35-2 3.6-3.8 12.2-9.8 7.25-17.8-11.7-18.8-12.25-.7-12.3-.1-1.55 10.95 7.9 8.15 8.75 9.4 7.3 10.45-1.35 1.05-1.85.95-2.85-.3-.65-.85-2.9-3.45-5-5.7-6-6.5-11.9-14.9-12.65-17.9-.75-2.95.15-3.55 2.2-1.5zm-41.85 18.75c1.3 2.75 2.6 5 2.95 5 .35 0 1.45 1.45 2.5 3.25 1 1.8 2.6 4.15 3.5 5.25 2.5 3.05 2.5 7.05 0 9.55-2.65 2.65-11.45 5.2-13.8 4-.9-.45-2.9-1.3-4.4-1.9-1.5-.6-2.75-1.7-2.75-2.4s-1.35-2-3-2.95c-1.65-.95-3-2.4-3-3.25 0-.85-.45-1.55-1-1.55s-1-.55-1.05-1.25c0-.7-1.35-2.8-3-4.7-3.15-3.7-3.65-5.5-1.8-6.65.7-.45.9-.25.45.45-.4.65-.1 1.15.75 1.15.8 0 2.95 1.9 4.8 4.25 1.8 2.35 3.85 4.6 4.55 5.05.75.45 1.3 1.65 1.3 2.7 0 1 .9 2.15 2.05 2.5 1.1.35 2.7 1.75 3.6 3.1 1.3 1.95 2.4 2.4 6.05 2.4 10.45 0 11.2-4.9 2.5-16.65-7.3-9.85-7.45-10.15-6.7-11.35 1.35-2.15 3.25-.75 5.5 4zm-19 1.9c.3.2-.85.05-2.5-.35-3.15-.75-4.75-2.35-3.85-3.85.3-.45 1.75.2 3.2 1.45 1.45 1.3 2.9 2.55 3.15 2.75zm9.8-1.6c2.5 1.95-2 5.5-4.8 3.7-1.3-.8-1.2-1.15.5-2.45 1.6-1.25 1.65-1.45.25-.95-.95.35-1.75.15-1.75-.4 0-2.25 2.85-2.15 5.8.1zm-28.05 9.2c5.15 1.55 10.1 5.7 12.6 10.55 1.2 2.4 1 3.8-1.95 12.2-.35.9-2.15 2.25-4 2.95-1.85.65-3.4 1.6-3.4 2.1s-.65.65-1.45.35c-.8-.3-2.8-.15-4.5.35-3.35.95-10.05-3.95-10.05-7.35 0-.9-.6-1.65-1.4-1.65-3.6 0-3.05-14.75.7-19.75 1.3-1.7 7.25-1.55 13.45.25zm-29.95 3.75c-.15 1.3-1.1 2.35-2.3 2.55-2.15.3-6.05 1.85-8.5 3.35-.8.45-2.75 1.35-4.25 1.95-3.25 1.3-3.5 2.9-.75 5.4 1.1 1 2 2.35 2 3.05 0 3.4 2.7 3.35 7.9-.15 5.3-3.6 10.05-4.8 10.8-2.8.2.6-2.25 2.25-5.4 3.65-11.15 4.9-11 3.85-2.25 16.85 2.25 3.3 1.1 5.4-2.45 4.5-1.45-.35-2.6-1.3-2.6-2.15 0-.85-.9-2.5-2-3.7-1.1-1.15-2-2.9-2-3.8 0-.95-.65-2.25-1.5-2.95-.8-.65-1.25-1.6-1-2 .25-.45-.1-1-.85-1.3-.7-.3-2.6-2.95-4.2-6-1.55-3-3.3-5.3-3.9-5.1-1.25.5-1.45-6.5-.25-8.35.45-.7 1.6-1.2 2.5-1.15.95 0 1.2.25.55.55-1.3.5-.6 4.35.75 4.35.5 0 1.8-.9 2.9-2 1.1-1.1 2.85-2 3.95-2 1.05 0 2.25-.5 2.6-1.1 2.2-3.55 10.75-4.9 10.25-1.65zm4.6 3.9c-.3.45.4.85 1.55.85 1.1 0 2.05.5 2.05 1.05 0 .6-.5.75-1.15.35-.8-.5-1 0-.55 1.7.6 2.3.55 2.35-.8.4-.8-1.1-1.9-2.55-2.45-3.2-1.4-1.6-1.3-1.95.4-1.95.8 0 1.25.35.95.8zm-50.6 10.3c2.35 2.25 3 3.55 2.55 5.3-.45 1.7-.2 2.15.9 1.7 1.85-.7 4.95 3.85 4.1 6-.35 1 .4 2.55 2.05 4.05 1.4 1.3 2.6 3.1 2.6 3.9 0 2.25 4.8 6.6 6.5 5.95 1.55-.6 5.7 3.55 4.9 4.85-.35.55-5.2 1.6-10.4 2.25-.25.05-.95.35-1.5.7s-3 .65-5.4.7c-2.45 0-4.75.55-5.15 1.2-.4.65-1.2.95-1.75.6s-1.25.1-1.6.95c-.35.95-1.25 1.35-2.2 1-.85-.35-2.1-.3-2.75.1-1.25.8-2.45 1.1-7.55 1.85-1.9.3-5.5 1.7-8.1 3.15-5.35 3-8.9 2.7-6.8-.6 1-1.65.9-2.3-.5-3.9-.95-1-1.35-2.25-.95-2.7.4-.45-.05-.55-1-.2-1.7.6-2.25-1.3-2-7.05 0-.7-.6-1.25-1.35-1.25-.75 0-1.45-.8-1.55-1.75-.1-.95-.2-2.25-.25-2.9-.1-.65-1-2.15-2.1-3.35-1.1-1.2-1.85-2.3-1.7-2.35.65-.3-1.35-5.5-3-7.85-1.6-2.25-.95-2.8 4.05-3.05 2.25-.15 4.15-.55 4.15-.95 0-.35 2.6-1.2 5.75-1.9 3.15-.65 6.2-1.55 6.75-1.95.55-.4 3.25-1.2 6-1.75 2.8-.6 6.25-1.7 7.8-2.5 3.85-2 5.9-1.65 9.5 1.75zm27.9 19.85c.65 0 1 .4.7.85-.3.45-.05.85.55.85.55 0 1.05.65 1.05 1.5 0 2.2-2.1 1.8-2.7-.5-.35-1.3-1.35-2-3-2-1.45 0-2.15-.4-1.75-1.05.35-.6 1.4-.8 2.3-.4.9.4 2.2.7 2.85.75zm-67.15 18.35c-.35.95-.1 2 .5 2.4.7.4.35.85-.9 1.2-1.75.45-2.45-2.35-1.25-5 .55-1.2 2.15.15 1.65 1.4zM163.55 100.9c-3 4.85.55 19.55 5.4 22.4 10 5.9 21.1-6.6 13.95-15.7-3.85-4.9-17.55-9.6-19.35-6.7zm14.7 11.95c.4 1.5-.05 1.85-2.65 1.75-2.1-.05-3-.55-2.8-1.5.25-1.15 0-1.2-1.15-.2-1.45 1.15-3.25 0-1.95-1.25 1.55-1.55 8.05-.65 8.55 1.2zM95.05 119.7c-.05.85-1 1.05-2.95.65-1.55-.3-3.15-.1-3.5.45-.3.55-1.5.8-2.55.5-1.1-.3-3.9.4-6.25 1.5s-5.65 2.3-7.3 2.65c-14.35 3.1-13.55 2.6-10.7 6.5 1.2 1.65 2.2 3.4 2.2 3.95 0 .55.95 2.6 2.1 4.55 1.15 1.95 1.8 3.55 1.5 3.55-.35 0 .25 1.8 1.4 3.95 1.1 2.2 2 4.85 2 5.95 0 2.55 3.75 4.75 5.3 3.2.6-.6 2.45-1.1 4.15-1.15 1.7 0 3.95-.7 5-1.5 2.45-1.85 9.25-3.8 12.45-3.6 1.35.1 3.55-.55 4.9-1.45 2.3-1.5 2.55-1.5 3.4 0 .5.85 1.4 1.6 2.05 1.6.85 0 .85-.3-.05-1.2-1.9-1.9-1.4-2.8 1.35-2.8 1.95 0 2.5-.45 2.25-1.75-.2-.95-.9-1.75-1.6-1.75-1.4 0-2.3-1.4-8.05-13-4.3-8.55-7.05-12.75-7.1-10.8zm-10.2 10.45c-.6 1.15 3.4 4.8 4.45 4.15.6-.35.05-1-1.2-1.45-1.2-.45-1.95-1.3-1.6-1.85.35-.6 1.35-.65 2.3-.2.95.45 2.4.8 3.2.7 2.5-.2 4.2 1.55 2.95 3.1-1.55 1.8-.4 4.75 2.3 5.9 2.3 1 2.3 3.25 0 2.7-.7-.15-1.25.3-1.25 1-.05.95-.3.85-1-.2-.55-.85-1-1-1-.35s-.85.95-2 .65c-1.1-.3-2-.1-2 .5 0 1.85-3.25 2.25-5.1.6-2.05-1.85-4.9-1.25-4.9 1.05 0 2.05-.95 1.95-2.6-.2-1.7-2.25-1.75-3.6-.15-2.6.75.4.6-.05-.25-1.15-.8-1.05-1-1.6-.35-1.2 1.85 1.15 2.4-2.1.65-3.9-1.55-1.5-1.75-1.5-3 .2s-1.35 1.7-2.75-.15c-1.3-1.8-1.2-1.95 1.25-2.25 1.5-.15 3.6-.65 4.7-1.15 1.1-.5 2.8-1.1 3.75-1.45.95-.3 1.75-1.25 1.75-2.15 0-.9.5-1.45 1.1-1.25.55.2.9.65.75.95zM80.2 135.85c.3 1.45 1.3 1.75 4.75 1.25 2.05-.25-.1-2.6-2.5-2.75-1.9-.1-2.45.3-2.25 1.5zM91 139.3c0 .8-.75 1.75-1.65 2.1-.9.35-1.4.9-1.1 1.15.8.85 5.85-1.8 5.45-2.9-.55-1.65-2.7-1.95-2.7-.35zM211.2 62.95c.15.8-.35 1.5-1.2 1.6-3.6.35-4 .5-4 1.55 0 .65.9.9 1.95.6 2-.5 4.85 1.8 3.7 3-1.3 1.3 1.6 3.25 3.95 2.7 1.65-.45 2.4-.2 2.4.75.05 1.05.25 1 1-.15 1.45-2.25 1.2-2.85-1-2.3-1.2.3-2 .05-2-.7 0-.7-.65-.95-1.6-.6-1.15.45-1.45.2-1.05-.8.3-.8-.2-1.7-1.15-2.05-1.4-.55-1.45-.8-.2-1.55s1.25-1.15.15-2.2c-1.05-1.05-1.25-1.05-.95.15zM59 69.25c-.05 1.25-.3 5.35-.65 9.1-.5 5.25-.3 7.1.75 7.85.95.65-.6.8-4.75.4-8.3-.75-15.35-2.75-15.35-4.35 0-1.3 3.55-.9 7 .75 5 2.45 8.5 2.05 8.4-.9-.05-1.55.2-5.15.6-8 .8-6.15.55-6.25-10.65-2.6-4.25 1.4-9.2 2.65-11 2.75-3.9.3-4.45 2.45-1.35 5.25 1.1 1 2 2.2 2 2.7 0 1.15 6.3 10.7 9.05 13.7 1.95 2.1 2.4 2.25 3.35.95.6-.85 1.65-1.35 2.35-1.1.7.25 1.25-.05 1.25-.55 0-.55.8-.8 1.75-.55 1 .25 3.15-.25 4.75-1.1 1.65-.85 3.8-1.55 4.75-1.55.95 0 1.75-.55 1.75-1.15 0-.65.25-.95.55-.6.35.3 2.9-.25 5.75-1.25s5.5-1.6 5.95-1.35c1.55.95.65-1.75-2.4-7.4-1.75-3.15-4-7.45-5.05-9.5-2.3-4.65-8.8-5.75-8.8-1.5zM193.05 69.15c-.05 1.85 2.3 4.15 3.3 3.15.35-.35.65-.1.65.55 0 .6.95.2 2.1-.95 1.15-1.15 1.75-2.35 1.35-2.75-.4-.35-.9-.1-1.15.6-.7 1.85-4.05 1.5-5.2-.5-.9-1.55-1.05-1.55-1.05-.1zM202 70.65c0 1.65.55 2.1 2.5 2 1.35-.1 2.35-.6 2.1-1.15-.2-.55-.95-.85-1.65-.7-.7.15-1.65-.3-2.1-1-.6-.9-.8-.65-.85.85zM228.5 70c-.35.55-.1 1 .5 1s.9.35.65.75 1.1.8 2.95.85c3.8.05 4-.15 2.05-2.1-1.05-1.05-1.65-1.1-2.5-.25-.85.85-1.15.85-1.15-.05 0-1.45-1.65-1.6-2.5-.2zM224.75 73c.75 1.1.45 2.05-1 3.5l-2 2 1.2-2.35c1.15-2.2 1.05-2.3-1.1-1.6-4.95 1.5-5.25 2.05-2 4.35 2 1.45 2.85 2.7 2.45 3.75-.5 1.25-.15 1.45 1.6.9 1.8-.6 2.15-.35 1.9 1.05-.35 2.05 1.8 2.7 15.15 4.9 10.15 1.65 9.75 1.9 5.4-3-1.95-2.2-4.65-5.45-6.05-7.25-1.4-1.75-3-2.95-3.55-2.6-.55.35-1.85-.45-2.9-1.75-1.05-1.3-1.8-1.95-1.65-1.4.2.55-.1 1.05-.6 1.15-.5.1-1.2.75-1.65 1.45-.55.9-1.5.4-3.5-1.7-1.5-1.6-2.25-2.25-1.7-1.4zm7.55 5.45c-3.9 2.65-5.9 2.7-2.9.1 1.55-1.35 3.3-2.25 3.8-1.9.5.3.15 1.1-.9 1.8zM2.8 74.7c-1.05.25-1.45 1-1.05 2.05.4 1.05.2 1.35-.6.85-.65-.4-1.15-.1-1.15.75 0 .8.7 1.7 1.6 2.05 2.35.9 3.1.7 1.4-.45-1.35-.9-1.35-1.15 0-2.2 1.2-1 2.7-4.05 1.75-3.65-.15.1-1 .35-1.95.6zM199.7 75.25c-.65 1.8 1.1 4.75 2.85 4.75 2.15 0 1.75-2.1-.5-2.7-1.15-.3-1.7-1.05-1.35-1.9.25-.75.3-1.4 0-1.4s-.75.55-1 1.25zM8 76.95c0 1.15 4 3.45 4 2.35 0-.45.45-.15 1 .7.85 1.3.95 1.25 1-.2 0-.9-.45-1.95-1-2.3-.55-.35-1-.1-1 .5 0 .65-.65.5-1.55-.45-1.85-1.8-2.45-1.95-2.45-.6zM168.75 79.65c1.7.7 1.6 2.35-.2 2.35-.8 0-1.7.4-2 .9-.3.5.6.8 1.95.75 1.9-.1 2.5-.7 2.5-2.4 0-1.5-.6-2.2-1.75-2.15-1.05.05-1.25.25-.5.55zM140.9 80.5c-.1.25-.2 1.05-.3 1.75-.1.7-.85 1.2-1.7 1.15-.9-.1-2.15.75-2.8 1.8-1.1 1.75-1 1.8.85.8 1.15-.6 2.05-.7 2.05-.25 0 .45 1.8.8 4 .75 3.9 0 5-.75 3-2-.5-.3-1.85-.1-3 .5-2.3 1.25-2.35 1.05-1-2.45.6-1.65.6-2.55 0-2.55-.55 0-1.05.2-1.1.5zM154.4 80.8c.35.6-.15 1.2-1.15 1.4-1.6.35-1.55.5.25 1.5 1.5.8 2.3.75 3.25-.25 1-1.1.85-1.6-.85-2.5-1.3-.7-1.9-.75-1.5-.15zM144.05 90.1c-3.25 2.7-3.75 5.9-.95 5.9 1.75 0 2-.45 1.5-2.5-.45-1.85-.25-2.5.9-2.5.8 0 1.5-.7 1.5-1.5 0-1.85 0-1.85-2.95.6zM112.5 90c.35.55.15 1-.45 1-.55 0-1 .8-.95 1.75.05 1.05.25 1.25.55.5.4-.95.9-.85 2 .25 1.35 1.35 1.85 1.35 4.4-.2 3.55-2.1 3.3-2.55-.8-1.35-2.4.65-3 .6-2.65-.4.3-.7-.2-1.55-1.1-1.9-.95-.35-1.35-.2-1 .35zM5.4 94.15c-.5.8-.2 1 .85.6 1-.4 1.75-.05 1.95.9.25 1.3.65 1.2 2.2-.55 1.9-2.1 1.9-2.1-1.2-2.1-1.7 0-3.4.55-3.8 1.15zM100.35 94.65c-.4 1-1.2 2.25-1.8 2.7-.6.5-.2.55.95.15 5-1.8 6.2-1.8 4.05-.1-2.85 2.35-1.55 2.65 2.35.55l3.35-1.85-2.85-.7c-1.6-.35-3.45-1.1-4.15-1.65-.85-.7-1.45-.4-1.9.9zM96.25 101.3c1.25 2.3 2.35 4.4 2.5 4.6.15.25.5.2.75-.1.9-.85-2.35-7.55-4-8.15-1.2-.45-1.05.35.75 3.65zM106 101.45c0 .9.85 1.55 2.1 1.55 2.4 0 2.1-2.35-.45-2.8-.95-.2-1.65.3-1.65 1.25zM19.1 102.65c1.1 1.25-3.85 4.35-7 4.35-.5 0-.85.65-.7 1.45.35 2.55 1.4 2.8 2.1.6.45-1.5 1.2-1.95 2.45-1.55 1.15.35 2.05-.05 2.4-1.05.35-.85 1.15-1.25 1.75-.9.6.4 1.5.1 2-.65 1.35-2.15 1.1-2.65-1.6-3.15-2.05-.4-2.3-.2-1.4.9zM30.7 111.65c.4 1.05.25 1.45-.45 1-.55-.35-1.25-.05-1.55.65-.3.85.55 1.35 2.65 1.5 2.15.15 2.7-.1 1.8-.65-1.15-.75-1.15-1 0-1.35.95-.35.65-.85-.9-1.65-1.9-1.05-2.1-1-1.55.5zM106 112.9c0 3.05 1.25 4.15 2.6 2.4 1.85-2.5 1.7-3.3-.6-3.3-1.1 0-2 .4-2 .9zM275.55 114.1c.25.4.05 1.05-.55 1.4-1.3.8-1.3 2.5 0 2.5.55 0 1-.75 1-1.6 0-1.2.65-1.5 2.5-1.15 1.4.25 2.5.15 2.5-.3 0-.4-1.35-.9-2.95-1.15-1.6-.25-2.75-.1-2.5.3zM50 116c0 .55-.9 1-1.95 1-1.45 0-1.8.45-1.35 1.65.5 1.25.3 1.45-.8.8-1.1-.65-1.1-.45.1 1 1.35 1.65 1.55 1.7 1.8.2.2-.9.9-1.7 1.5-1.8.65-.1 1.65-.25 2.2-.4.55-.1 1.4-.25 1.85-.35 1.1-.15-1.25-3.1-2.45-3.1-.5 0-.9.45-.9 1zM240.95 116.05c-1.15.7-1.2 1.1-.15 2.15 1.05 1.05 1.45 1.05 2.15-.1.45-.75 1.35-1.05 1.95-.65.6.35 1.1.45 1.1.15 0-1.25-3.7-2.4-5.05-1.55zM31.75 118.2c.55 2.05.4 2.15-1.1.95-1.05-.9-1.65-1-1.65-.25 0 .6.5 1.1 1.1 1.1.65 0 .85.75.5 1.75-.55 1.65-.55 1.65.75 0 .75-.95 1.65-1.45 2-1.05.35.35.65-.05.65-.9s-.65-2.1-1.4-2.75c-1.2-.95-1.35-.75-.85 1.15zM267.45 116.95c-.5.5-1.6 1.05-2.4 1.25-2.05.45-3.95 2.15-3.4 3.05.25.4 1.15.1 2-.75.85-.85 1.8-1.35 2.2-1.15.35.15 1.45-.5 2.4-1.5 1.75-1.85 1-2.7-.8-.9zM26.9 119c-.1.55-.25 1.55-.3 2.25-.1.7-.75 1.15-1.45 1-.7-.15-1.95.4-2.75 1.25-1.4 1.35-1.3 1.5.8 1.45 2.8 0 6.35-2.5 4.9-3.4-.55-.35-.75-1.25-.45-2.1.3-.8.3-1.45-.05-1.45s-.65.45-.7 1zM38.25 121.65c.45 2.85 1.7 4.35 3.55 4.25 1.5-.1 1.45-.2-.1-.6-1.15-.3-1.7-1.2-1.5-2.55.15-1.15-.25-2.25-.95-2.5-.75-.25-1.15.3-1 1.4zM205 123.9c0 .5.7 1.15 1.55 1.5.85.3 1.35.95 1.05 1.45-.3.45.6.65 1.95.4 3.35-.65 3.95-1.9 1.5-3.2-1.65-.9-1.9-.8-1.4.45.3.8.05 1.5-.55 1.5-.65 0-1.4-.7-1.75-1.5-.6-1.6-2.35-2.05-2.35-.6zM241.25 126.7c-.7.25-1.25.9-1.25 1.45 0 .55.5.65 1.1.3.6-.4 1.5-.1 1.95.65.65 1.05 1.15 1.1 2 .25 1.35-1.35-1.65-3.4-3.8-2.65zM224.6 129.35c.65 1.75-3.2 6-4.65 5.15-.5-.35-.95-.1-.95.55 0 .75.85.95 2.25.6 1.25-.35 2.6-.65 3-.65.4 0 .75-.65.75-1.45 0-.9.6-1.25 1.5-.9 1.7.65 4.5-1.25 4.45-3 0-.65-.6-.35-1.35.6-1.6 2.1-3.6 2.3-3.6.3 0-.8-.45-1.7-1-2.05-.55-.35-.75.05-.4.85zM38.6 129.8c-1.5.3-1.6.6-.5 1.3 1.1.65.95.9-.6.9-1.65.05-1.75.2-.5 1 .85.55 2.4.95 3.5.9 1.1-.05 1.45-.3.75-.55-1.6-.65-.6-2.35 1.35-2.35.85 0 1.25.45.9 1s.05.7.95.4c1.6-.65 2.15-2.3.8-2.55-2.4-.4-5-.4-6.65-.05zM8.5 132c-.4 1.2-.4 2.4-.1 2.75.3.3.1 1.15-.45 1.8-.75.9-.75 1.45 0 1.9.6.4 1.05-.05 1.05-.9 0-.95.9-1.55 2.25-1.55 1.6-.05 1.85-.25.9-.85-.7-.5-1.15-1.65-1-2.65.5-2.6-1.85-3-2.65-.5zM205.65 133.6c.35.9 0 2-.75 2.55-1.05.7-.75.85 1 .65 3.15-.4 3.8-2.35 1.2-3.75-1.75-.9-1.95-.85-1.45.55zM21.1 137.8c-.6.2-1.1 1-1.1 1.8 0 2 3.75 1.75 4.9-.4.95-1.75-.75-2.4-3.8-1.4zM4.15 143.6c-1.45 1.65-.9 4.4.9 4.4.65 0 .8-.85.4-2.15-.45-1.4-.3-1.9.45-1.4.65.4.85.05.5-.9-.75-1.85-.55-1.85-2.25.05zM181.4 143.3c-.6.7-.8 2.05-.45 3.05.55 1.65.8 1.6 2.6-.45 1.05-1.25 1.3-1.85.55-1.4-1.1.6-1.3.4-.8-.85.75-1.95-.3-2.1-1.9-.35zM216.05 145.6c1.55 4.15 3.6 6.7 4.2 5.2.6-1.7-.2-3.95-1.25-3.3-.4.25-1.05-.65-1.4-2-.35-1.4-1.05-2.5-1.6-2.5-.6 0-.6.95.05 2.6zM269.55 143.9c-.4.7 0 .85 1.05.4 1.15-.4 1.5-.25 1.05.45-1.1 1.8 1.4 2.65 3 1.05 1.1-1.15 1.15-1.5.15-1.5-.7-.05-2.05-.35-2.95-.75-.9-.4-1.95-.2-2.3.35zM147.05 149.7c-1.3 1.45-1.2 1.6.75 1.05 1.2-.3 2.45-.15 2.75.35.95 1.55 3.45 1 2.8-.6-.3-.8-.95-1.25-1.4-1-.45.3-1.1.1-1.45-.5-.85-1.4-1.75-1.2-3.45.7zM47.45 151.25c-.35 1 .05 2.35.95 3.3 1.45 1.45 1.6 1.45 1.6-.25-.05-3.05-1.75-5.1-2.55-3.05zM236.4 152.7c-1.4 1.3-3.05 2.05-3.7 1.65-.9-.5-.9-.35-.05.6.9 1 1.8.8 4.15-.95 1.65-1.25 3.45-2 3.95-1.65.5.3.9 0 .9-.75 0-2-2.45-1.5-5.25 1.1zM274.15 151.75c-1.5 2.75.25 3.05 3.35.6 1.5-1.25 1.6-1.5.3-1.05-.9.35-1.85.05-2.05-.6-.25-.7-.95-.25-1.6 1.05zM260.65 152.7c.95.75 1.35 1.3.9 1.3-.45 0-.2.7.5 1.55 1.15 1.4 1.4 1.4 2.15.1 1.3-2.4-.15-4.65-2.85-4.4-2.25.2-2.3.3-.7 1.45zM12.05 153.7c-.05 1.3.75 2.4 1.95 2.8 1.6.5 1.8 1 .95 2.55-.75 1.45-.7 1.95.25 1.95.7 0 1.35 1.15 1.45 2.5.2 3.45 1.1 5.5 2.35 5.5.75 0 .75-.6.05-1.95-1.4-2.55-1.3-3.05.45-3.05.9 0 1.5-.9 1.5-2.25-.05-1.65-.25-1.9-.9-.85-1.15 1.75-3.1.55-3.1-1.9 0-1.05-.6-2.25-1.35-2.7-.7-.45-1.85-1.7-2.45-2.8-1.1-1.95-1.15-1.95-1.15.2zM30.5 154.8c.2.95.4 2 .4 2.35.05.35.9.95 1.85 1.3 1.4.55 1.5.4.5-.6-2-2-1.45-2.9 1.2-1.85 1.45.55 2.7.55 3.05.05.6-1-1.35-2.55-2.15-1.7-.3.3-1.6.15-2.85-.35-1.9-.7-2.25-.55-2 .8zM154.55 156.15c-1.5 1.45-1.65 2.15-.75 3.05.95.95 1.2.8 1.2-.45 0-1.1.55-1.5 1.5-1.1 1.6.6 1.95-.45.75-2.25-.5-.75-1.35-.5-2.7.75zM279.75 155.7c-.95.25-1.75 1.1-1.75 1.85 0 1.65 1.6 1.95 2.5.45 1-1.65 2.1-1.15 3.55 1.6 1.2 2.25 1.45 2.35 2 .75.55-1.55-2.8-5.7-4.2-5.25-.2.1-1.15.35-2.1.6zM190.35 157.5c0 .8.35 1.5.8 1.5 1.8 0 2.4.2 3.65 1.25 1 .8 1.25.75 1-.35-.15-.75.25-1.3.95-1.15.7.15 1.25-.45 1.25-1.25 0-2-1.65-1.9-2.4.15-.6 1.5-.8 1.5-2.45 0-2.25-2.05-2.8-2.05-2.8-.15zM42.35 159.45c.3.85-.2 1.95-1.15 2.5-1.4.8-1.2 1 1.15 1 2.2.05 2.7-.3 2.25-1.55-.35-.85-.6-2-.6-2.5s-.5-.9-1.1-.9c-.6 0-.85.65-.55 1.45zM168.8 159.15c-.25.75.25 1.95 1.1 2.7 1.45 1.2 1.45 1.25-.1.8-.95-.3-2.05-.05-2.4.55-.45.65-.25.85.45.4 1.5-.95 1.5.65 0 2.15-.85.85-.65 1 .9.6 1.15-.3 2.25-1.3 2.45-2.2.55-2.1-1.8-6.9-2.4-5zM30 164.55c0 2.35.15 2.45 1.55 1 1.95-1.9 1.95-1.9 3.8-.05.85.85 1.8 1.1 2.1.6.3-.55-.35-1.25-1.45-1.6-1.1-.35-2-1.15-2-1.8 0-.7-.45-.6-1 .3-.65 1-.95 1.1-1 .25 0-.7-.45-1.25-1-1.25s-1 1.15-1 2.55zM51 164c0 .55.9 1.9 2.05 3.05 1.1 1.1 1.8 2.4 1.5 2.85-.25.45.6 1.3 2 1.95 1.5.65 2.45.75 2.45.15 0-.55-.65-1-1.45-1-.9 0-1.3-.75-1.05-2.05.2-1.1 0-1.75-.45-1.5-.45.3-1.4-.15-2.1-1-1.05-1.25-.95-1.4.65-.8 1.7.65 1.75.55.55-.95-1.5-1.85-4.15-2.3-4.15-.7zM202.15 169.4c-2.05 1.1-2.1 1.4-.7 2.55.9.75 1.9 1 2.3.65.4-.4.05-1.15-.8-1.65-1.25-.8-1.2-.9.2-.95.95 0 1.9.55 2.2 1.25.3.75.5.6.55-.45.15-2.4-1.05-2.8-3.75-1.4zM96.05 169.2c-.1 1.65 2 5.8 2.95 5.8.55 0 1-.4 1-.9 0-1.05-3.9-5.9-3.95-4.9zM117 172.05c0 .6-.55.75-1.25.35-.7-.35-.25.35.95 1.65 2.4 2.5 5.75 1.3 4.65-1.6-.65-1.65-4.35-2-4.35-.4zM22.5 174.35c-.55 1.25-1 1.45-1.5.65-.55-.9-.95-.9-1.45-.1-.35.6-.1 1.1.65 1.15.8 0 .55.6-.65 1.5-1.05.8-1.4 1.45-.75 1.45 1.8 0 5.4-3.95 4.9-5.3-.3-.75-.75-.5-1.2.65zM173 174.45c0 2.05 2.05 3.05 3.05 1.5.45-.75.6-1.7.35-2.15-.85-1.35-3.4-.9-3.4.65zM60 176c-1.5 2.8-.45 3.85 1.75 1.7 1.2-1.25 1.35-2 .55-2.8-.8-.8-1.45-.55-2.3 1.1zM105.25 175.35c-2.2 1.2-2.2 1.25-.35 2.85 1.8 1.55 1.95 1.5 2.55-.9.8-3.2.55-3.4-2.2-1.95zM44 175.75c0 .6.55 1.35 1.25 1.65.7.35-.4.45-2.4.3-2.3-.15-3.45.15-3.2.8.25.6 1.95.9 4 .65 2.9-.3 3.45-.1 2.8.95-.7 1.15-.55 1.15.9 0 .95-.75 1.55-1.45 1.4-1.5-.15-.05-1.25-.95-2.5-2s-2.25-1.45-2.25-.85zM115 184c-.95.6-.8 1.05.75 1.85 1.9 1.05 3.25.65 3.25-.9 0-1.2-2.6-1.8-4-.95zM83 185.3c0 2.05 4.1 3.4 5 1.65.95-1.75.75-1.95-1.95-1.95-1.7 0-3.05.1-3.05.3z"/></g></svg>