<svg version="1" xmlns="http://www.w3.org/2000/svg" viewBox="0 0 900 594"><g fill="#5F9EA0"><path d="M32.3 4c-4.3 1.7-2.9 3.3 6.1 7 5.6 2.2 16.8 9 21.2 12.7 1.1 1 3.5 2.9 5.3 4.3 14.9 11.3 22.6 21.4 24.6 32.4.4 2 1.1 3.9 1.6 4.2.5.3.9 1.9.9 3.5 0 1.7.7 4.4 1.6 6.2 1.1 2 2 7.3 2.5 14.7.8 12.2.1 17.2-4 29.5-5.3 15.6-8.1 37.6-8.2 62.4 0 6.9-.6 15.5-1.4 19.1-1.1 5.6-2 16.2-3 36.2-.2 5.3-1.6 7.5-4.8 8-2.7.4-3.4 3.4-1.3 5.7.9 1 1.4 2.5 1 3.5-.3.9-.3 2.4.1 3.3.6 1.6.8 1.5 1.6-.5.7-1.9 1.6-2.2 6-2.2 5.1 0 5.1 0 4.6 2.9-.9 4.2.3 10.1 2 10.1 3.8 0 4.6-13.3 1.1-18.1-2.2-3-2.2-3.1-.4-4.4 2.7-2 5.6-9 5.6-13.5 0-2.1.6-4.3 1.4-4.9 1-.8 1.6-4.5 2-11.9.9-16 1.2-18.3 2-22.7.9-4.3 4-11 5.5-11.9.5-.4 1.2-1.9 1.6-3.4.8-3.2 4.9-9.5 12.8-19.1 3.1-3.8 5.7-7.4 5.7-7.9s1.1-1.9 2.5-3.2c1.4-1.3 2.5-3 2.5-3.8 0-.7 1.3-2.6 2.9-4.2 4.3-4.3 9.1-12 9.1-14.6 0-1.3.6-3.8 1.4-5.6 2.1-4.9 4.9-30.1 4.3-39.3-.5-9.4-2.4-18.4-4.3-20.6-.8-.8-1.4-2.3-1.4-3.1 0-.9-.9-3.7-1.9-6.1-2.4-5.6-5.6-7-8.2-3.6-2.4 3.1-2.4 5.6 0 6.9 2.4 1.2 6.1 10.6 7.4 18.5 1.5 9.9.8 30.1-1.4 37-1 3.3-1.9 7.6-1.9 9.5 0 2-.5 4.1-1.1 4.7-1.2 1.2-3.2 4.6-4.8 7.8-.5 1.2-1.6 2.7-2.5 3.4-.9.7-1.6 1.9-1.6 2.6 0 .7-.7 1.8-1.6 2.6-.8.7-2.4 2.9-3.4 4.9-1 2-3.4 5.2-5.2 7.1-9.8 9.9-21.1 30.6-20.6 37.9.1 1.9-.4 4.6-1.1 5.9-.7 1.3-1.6 7.1-2.1 13-.4 5.8-1.2 11.7-1.7 13.1-.6 1.4-1.3 5.2-1.7 8.5-.4 3.3-1 7.6-1.4 9.5-.6 3.2-.7 2.9-1.3-3-1.2-11.6-.9-24.5.5-29.6.8-2.7 1.7-10.1 2.1-16.4.3-6.3 1-12.9 1.5-14.5.5-1.7 1.1-8 1.4-14.2.2-6.1.8-11.8 1.3-12.5.4-.7 1.1-5.1 1.4-9.8.4-5.3 1.4-10.5 2.8-14 1.3-3 2.7-7.9 3.2-10.9.5-2.9 1.4-6.2 1.9-7.2.6-1 1-7.1 1-13.7 0-9.4-.3-12.2-1.5-13.2-.8-.7-1.5-2.1-1.5-3.2 0-3.6-3.1-14-4.6-15.5-.8-.8-1.4-3-1.4-4.8 0-4.7-6.1-14.7-13.6-22.3-3.4-3.4-6.6-6.2-7-6.2-.5 0-3.6-2.5-6.9-5.5-3.3-3-6.3-5.5-6.7-5.5-.4 0-1.3-.6-2-1.3-2.6-2.4-10.4-7.2-15.3-9.4-5.4-2.4-7.8-2.7-11.2-1.3zM278.5 3.7c-3.7.9-4.1 2.3-1.5 4.3 1.4 1.1 3 2 3.6 2 1.2 0 8.4 3.2 11.9 5.3 8.7 5.2 31 23 32.6 25.9.6 1.3 2.2 3.4 3.4 4.8 1.2 1.4 3.5 6.1 5 10.5 1.6 4.4 3.2 8.4 3.7 8.9.4.6.8 2.2.8 3.8 0 1.5.9 4.9 1.9 7.6 1.7 4.2 1.9 6.9 1.6 18.3-.2 9.4-.8 14.6-1.9 17.2-.9 2-2.3 5.3-3.1 7.2-.8 2-1.5 4.9-1.5 6.5 0 1.6-.4 3.1-.9 3.4-.5.3-1.2 4.8-1.6 9.8-.4 5.1-1.1 10-1.5 10.8-.4.8-1 11.5-1.4 23.6-.4 14.2-1.1 24.5-2.1 28.5-.9 3.8-1.5 11.3-1.5 18.1 0 7.7-.4 11.8-1.1 11.8-.6 0-.9 2-.7 5.2.3 5.2.3 5.3-3.2 6.4-4.1 1.4-4.7 2.7-2.6 5.9.9 1.3 1.6 3.8 1.6 5.4 0 3.8 1.7 4.9 2.6 1.6.5-2.2 1.2-2.5 4.8-2.5 2.4 0 4.5.2 4.7.4.2.3.2 3.3-.1 6.8-.5 6-.6 6.3-3.2 6.6-3.3.4-3.3.5-.8 5.7 1.1 2.2 1.9 5.3 2 6.8 0 4.9 1.8 1.9 2.5-4.3.4-3.3 1-6 1.4-6 .7 0 4.1 9.2 4.1 11.1 0 .4-1.1 1.9-2.3 3.3-1.7 1.8-2.7 2.2-3.4 1.5-1.6-1.6-3.3-.2-3.3 2.5 0 1.2-.5 2.7-1.1 3.3-.6.6-.8 1.6-.5 2.2 1.3 2 3.7 1.1 5.4-1.9 2.1-3.7 3.1-3.7 6.6-.1 2.6 2.7 2.8 3.4 2.2 7.5-.9 5.8-6.1 10.6-11.6 10.6-2.9-.1-4-.7-6.7-4.4-3.6-4.7-4.3-9.5-1.8-11.6 1.3-1.1 1.5-3.1 1.1-11.1-.5-10.6-.8-11.9-3.5-11.9-2.8 0-12.7 9.6-15.3 14.8-3.1 6.4-3.3 18.9-.3 24.8 2.9 5.6 7.4 11.4 9 11.4.8 0 2 .6 2.7 1.4 3.3 3.3 7.8 4.6 15.6 4.6 9.5 0 15.1-2.1 20.9-7.9 4.4-4.4 6.4-8.1 8.6-15.9 1.4-4.7 1.4-5.9 0-11.4-2.7-10.4-10.5-19.6-18.8-22-2.2-.6-4.3-1.4-4.8-1.8-.4-.3-.2-4.4.4-9 1-7.1.9-8.5-.3-9.4-2.7-1.9-3-5.1-.8-7.1 1.1-1 2-2.5 2-3.4 0-.9.6-3.6 1.4-6.1 3.7-11.4 4.6-15.7 4.6-21.4.1-5.4.7-11 2.7-23.5.3-1.8 1.8-5.3 3.4-7.6 1.6-2.4 2.9-4.8 2.9-5.4 0-1.8 4-8.8 6.6-11.6 2.3-2.4 5.8-7 15.1-19.8 1.6-2 4-5.2 5.5-7 1.5-1.7 2.8-3.5 2.8-3.8 0-.3.9-1.6 2-2.9 1.1-1.3 2-3.1 2-4.1 0-1 .5-2.1 1-2.4.6-.3 1-2 1-3.6s.6-4.5 1.4-6.3c.7-1.8 1.7-7.1 2-11.7.4-4.6 1.1-11.3 1.7-14.9.8-5.2.7-8.2-.5-14-.9-4.1-1.6-8.7-1.6-10.2s-.4-2.9-.9-3.3c-.5-.3-1.2-1.9-1.6-3.6-.4-1.7-1.3-4.2-2.1-5.7s-1.4-3.4-1.4-4.3c0-.9-1.1-2.2-2.5-2.9-2.2-1.2-2.7-1.1-4.5.5-2.7 2.5-2.5 4.6 1 9.8 1.6 2.5 3 5 3 5.6 0 .7.7 2.6 1.7 4.4 2.3 4.5 2.2 38.6-.2 41.9-.9 1.4-1.5 4.4-1.5 8 0 3.1-.5 6-1.1 6.3-.5.4-1.4 1.7-2 2.8-1.1 2.6-2.3 4.6-6.7 10.7-1.7 2.5-4.9 7-6.9 10s-6.3 8.6-9.5 12.5c-3.2 3.8-7.2 9.7-8.7 13-1.6 3.3-3.8 7.1-5 8.4-1.4 1.6-2.1 3.8-2.1 6.6 0 2.3-.5 6.7-1.1 9.9-.6 3.2-1.5 9.7-1.9 14.5-1.2 11.1-3.3 23.8-4.2 24.6-2.4 2.4-2.6-23.9-.3-31.9.9-2.9 1.5-9.1 1.5-15 0-7 .5-11 1.5-13 1.1-2 1.5-6.1 1.5-14 .1-7.7.5-11.9 1.5-13.6.9-1.5 1.4-5.4 1.5-9.8 0-4.5.6-8.4 1.4-10 2-3.6 4.3-11.6 5.1-17.4.3-2.6 1-5 1.6-5.3.5-.4.9-5.1.9-10.5 0-8.5-.3-10.5-2.5-14.8-1.6-3.1-2.5-6.7-2.5-9.5 0-2.9-.7-5.3-2-7-1.1-1.4-2-3.7-2-5.1 0-1.5-.4-3.4-.9-4.4-.6-.9-2-3.8-3.2-6.4-3-6.5-15-18-31.4-30.1-2.7-2-5.5-4.1-6.1-4.6-.6-.5-2-1.2-3.2-1.5-1.2-.4-2.2-1.1-2.2-1.5 0-2-11.7-5.3-15.5-4.4zm73.5 283.5c0 1.6-6.4 7.1-6.8 5.9-.5-1.6 3.7-7.1 5.4-7.1.8 0 1.4.5 1.4 1.2zm-26.2 27.6c.2.7-.3 1.2-1.1 1.2s-1.7.7-2.1 1.5c-.6 1.8-2.6 2-2.6.3 0-1.6 3.2-4.9 4.4-4.5.5.2 1.2.9 1.4 1.5zM524 3.9c-4.3 1.2-2.8 3.3 4.5 6.5 3.9 1.7 7.5 3.4 8 3.8.6.4 4.2 2.9 8 5.4 3.9 2.5 8.6 6.1 10.5 8 2 1.9 3.9 3.4 4.4 3.4 1.5 0 9.1 6.9 12.3 11.2 4.6 6.1 8.9 15.4 10.1 21.8.6 3.1 2 8 3.2 11 1.9 4.7 2.3 7.4 2.3 18.5 0 11.8-.3 13.6-2.8 20-2.9 7.4-3.8 11-5.5 21.5-.6 3.6-1.5 9.2-2.1 12.5-.6 3.3-1.5 15.9-1.9 28-.5 12.1-1.3 23.8-1.9 26-.5 2.2-1.2 9.6-1.5 16.5-1.2 24.5-1.4 25.5-5.9 26.2-2.4.3-2.5 1.6-.7 8.7 1.5 6 2.3 7.1 3 4.1.5-2.2 1.2-2.5 5.4-2.8l4.9-.3-.6 4.9c-.4 3.3-.1 5.6.7 6.7 1.7 2.4 2.9.5 4.5-6.8 1.2-5.5 1.2-6-.8-8.1-2.7-2.8-2.7-6.2-.1-7.6 1.3-.7 2-2.1 2-4.1 0-1.7.5-4 1.2-5.2 1.9-3.6 3.9-14.4 4.9-27.7.5-6.8 1.4-12.9 1.9-13.4.6-.6 1-2.1 1-3.4 0-3.1 8.7-20.7 12.1-24.7 2.8-3.2 11.2-13.8 15.4-19.5 11.4-15.4 13.1-18.6 15-28 .4-1.9 1.1-4.1 1.5-5 .5-.8 1.3-8.7 2-17.4 1.1-16.5.3-27.4-2.5-34.1-.7-1.7-2-4.7-2.9-6.8-.9-2.1-1.6-4.6-1.6-5.6s-.9-2.6-2-3.6c-1.7-1.5-2.4-1.6-4.5-.7-2 .9-2.5 1.9-2.5 4.7 0 1.9.4 3.5.9 3.5 1.1 0 4 6.1 6.6 14 2.5 7.1 2.4 33.8 0 39.6-.8 2-1.5 5.7-1.5 8.3 0 3.4-.8 5.7-3 9.1-1.6 2.5-3 4.9-3 5.3 0 .5-2.6 4.3-5.8 8.5-3.1 4.2-6.2 8.4-6.7 9.3-.6.9-4 5.4-7.7 10-3.7 4.5-7.9 10.8-9.4 13.8-1.5 3.1-3.5 6.7-4.5 8-1.2 1.4-1.9 4-1.9 6.6 0 2.3-.4 5.5-1 7.1-.5 1.6-1.4 7.8-1.9 13.9-.5 6-1.2 12.3-1.6 14-.3 1.6-1.1 5.7-1.7 8.9-1 5.2-1.3 5.6-2 3.5-1.4-3.5-1.1-25.9.3-29.4.6-1.7 1.4-8.4 1.6-15 .3-6.6 1.1-12.9 1.7-14 .6-1.1 1.4-7.6 1.8-14.5.8-15.1 3-31.8 4.6-34.5 1-1.9 2.7-7.5 5.2-18 .7-2.8 1.5-8.8 1.7-13.4.4-7.5.2-9-2-13.5-1.4-2.8-2.8-7.4-3.1-10.1-.3-2.8-1.2-6.4-2-8-.8-1.7-2-5-2.7-7.5-2.5-8.9-8.6-17.3-18.7-25.5-3.7-2.9-8-6.6-9.7-8-4.2-3.8-18.5-13.2-23.7-15.5-4.6-2.1-5.8-2.2-9.8-1.1zM751.3 3.7c-5.8.7-3.9 4.1 3.6 6.8 13.7 4.8 44.7 29.9 48.1 38.9.7 1.7 1.9 4.5 2.6 6.3.8 1.7 1.4 3.9 1.4 5 0 1 .7 2.7 1.5 3.7.8 1.1 1.5 3.3 1.5 4.8 0 1.6.8 4.3 1.7 6.1 1.5 2.9 1.9 6.2 2.4 24.2.2 3.6-1.6 11.1-4.1 18-3.4 9.5-4.1 12.6-4.6 19.8-.2 3.9-1.1 9-1.8 11.1-1 2.8-1.1 4.9-.4 7.3.5 1.9.7 4.2.3 5.1-1.3 3.6-2.5 16.5-1.5 17.7.6.7.6 2.3.1 4.2-.5 1.7-.6 3.6-.1 4.2.8 1.5.1 5.9-1.1 6.7-.5.3-.9 3.4-.9 6.9 0 3.5-.5 7.6-1.1 9.1-.5 1.6-1.2 7.6-1.3 13.4-.2 5.8-.4 12.4-.5 14.8-.1 4.1-.3 4.5-4.1 5.9-4.1 1.7-5 3.3-2.7 5.2.8.6 1.9 2.9 2.6 5.1 1.2 4.2 3.1 5.4 3.1 2 0-1.7.7-2 4-2h4v4.2c0 5.6.9 8.8 2.5 8.8s2.5-2.3 2.5-6.4c0-1.8.5-3.7 1.1-4.3 1.2-1.2-.4-5.2-2.7-6.6-1.5-.9-1.9-4.7-.6-4.7 1.4 0 5.2-8.9 5.2-12.3 0-1.8.6-4.1 1.4-5.2 1.3-1.9 3.6-19.6 4-31 .3-6.4 2.1-12.6 4.6-15.8 1.1-1.4 2-3.2 2-4 0-.9.4-1.8.9-2.2.6-.3 2.3-2.9 4-5.8 1.7-2.8 4.9-7.2 7.2-9.7 2.3-2.5 5.3-6.3 6.7-8.5 1.4-2.2 3.8-5.3 5.4-6.9 1.5-1.7 2.8-3.4 2.8-3.9s1.9-3.4 4.3-6.5c4.5-5.9 5.7-9.4 8.3-23.7 3.9-21.6 3.1-41.5-2.2-53.2-.8-1.7-1.4-3.5-1.4-4s-.9-2.8-2-5.1c-2.3-4.8-5-5.5-7.4-2-2.2 3.1-2 4.7.8 7.3 2.6 2.4 5.8 11.8 6 17.5.1 1.9.8 5.2 1.5 7.3.8 2.4 1 5.2.6 7.5-.4 2-.9 6.6-1 10.2-.1 3.6-1.2 10.1-2.4 14.4-1.1 4.4-2.1 9-2.1 10.2 0 1.3-.5 2.6-1 2.9-.6.4-1.6 2.1-2.4 3.8-.7 1.8-3.5 6-6.2 9.4-2.7 3.4-5.7 7.4-6.7 9-3.7 6-8.4 12.1-11.8 15.5-2 2-3.9 4.9-4.2 6.4-.3 1.6-1.7 4.5-3.1 6.4-4.4 6-5.4 9.2-6.5 21-1.6 17.5-3 27-4.7 32.3-1 3.4-1.2 5.3-.5 6.1.7.9.7 1.6-.1 2.4-.6.6-1.4 2.8-1.9 4.9-.7 3.4-.8 3.1-.9-2.7 0-3.6-.2-11.5-.3-17.5-.2-7.5.1-12.1 1.1-14.5.7-1.9 1.5-8.5 1.7-14.5.3-6.6 1.1-12.8 2-15.5 1.1-3 1.4-5.9 1-8.7-.3-2.3-.2-5.9.4-8 .5-2.1 1.5-9.4 2.1-16.3.6-6.9 1.6-12.9 2.1-13.5.5-.5.9-1.5.9-2.3 0-.8.6-2.8 1.4-4.5 4.6-10.8 7-39 3.7-43.1-.8-1-1.8-4.1-2.2-6.9-.4-2.9-1.9-7.8-3.3-10.9-1.4-3.1-2.6-7-2.6-8.7 0-1.6-.3-3.1-.7-3.3-.5-.2-1.6-1.9-2.6-3.9-5.4-10.5-41.4-39.1-51.8-41.1-1.3-.2-3.9-.3-5.6-.1zM26.7 261.2c-4.5 4.6-11.7 11.6-16 15.6-7.1 6.8-7.7 7.6-7.2 10.5.8 4.6.9 14.8.3 33.7-.5 20.4-.1 26.3 1.8 25.6 1.5-.6 1.9.6.7 1.8-2.8 2.8-3.1 12.4-3.3 122.1-.2 61.6-.3 114-.4 116.5-.1 4.2.1 4.5 2.4 4.3 6.9-.5 152.4-.2 159.6.3l8.4.7v-308.1l-15.8-15.7-15.7-15.7-21.7.4c-11.9.2-22 .7-22.5 1.1-1 1.1 4.9 5.7 6.5 5.2.8-.3 4.2-.1 7.6.5 3.4.5 11.4 1.2 17.8 1.4 11 .5 11.7.6 14.6 3.3 1.6 1.5 3.7 4.1 4.7 5.6 1.3 2 2.1 2.5 2.8 1.8 1.4-1.4 2.7-1.4 2.7 0 0 .6 1.9 3.6 4.3 6.7s5 7.1 5.9 8.8c1.6 3.2 1.3 8.9-.5 11.2-.7.9-.2 1.8 1.7 3.3 2.2 1.7 2.6 2.7 2.1 4.8-1.8 6.9-2.3 14.4-1.2 16.8 1 2.2.8 2.8-.9 4.2-2.4 2-2.5 6.7-.2 10 1.4 1.9 1.5 2.8.6 4.5-.7 1.2-1.1 5.4-1 9.6.2 5.3-.2 8.4-1.3 10.5-1.5 2.6-1.5 3.1-.1 4.1 1.6 1.1 4.6 7.4 4.6 9.4 0 .5-.7 1-1.5 1-2 0-3 2.6-1.7 4.3 1.1 1.4 1.8 25.5 1 37.2-.2 2.2 0 5.2.4 6.7.4 1.6.1 3.4-.8 4.7-1 1.4-1.2 2.6-.5 3.8 1 2 .9 37.8-.1 38.9-.4.3-.1 1.9.7 3.5 1.8 3.3 1.9 8.9.4 12.3-.8 1.7-.8 5.4 0 13.9.7 7.5.8 12.4.2 14-.7 1.7-.7 3.8 0 5.9.6 2.3.6 4.8-.3 8-1.1 4.4-1 5 1 7.8 2.6 3.4 2.8 6 .7 6-1.1 0-1.5 1.3-1.7 4.7v6.3c.1.8-.3 3.1-.9 5.1-.9 3-.8 4.1.5 6.1 1.5 2.3 1.5 3 0 8.9-.9 3.5-2.1 7-2.6 7.6-1.4 1.8-4.7 1.6-5.4-.2-.8-2.1-2.6-1.9-4.8.6-1.4 1.7-2.5 2-5.1 1.6-1.8-.3-3.6-.3-3.9.1-1 .9-51.3 1.3-53.7.3-1.2-.4-4.4-.4-7.1 0-2.8.5-6 .4-7.4-.1-1.6-.6-3.3-.6-4.9.2-1.9.9-3.3.8-6.3-.4-3.5-1.4-4.1-1.3-7.2.4-4.1 2.1-6 2.3-6 .5 0-1.3-3-4.7-4.2-4.7-.3 0-.3 1.1 0 2.5.6 3.1-1.3 3.3-6.8.5-2.2-1.1-4-1.6-4-1.1s-1.2 1.2-2.7 1.6c-1.9.4-3.4 0-5.4-1.4-3.3-2.5-4.5-2.6-5.2-.7-.3.7-2 1.6-3.7 1.8-2.6.4-3.3.1-4-1.8-.5-1.2-1.9-2.4-3.2-2.6-1.9-.2-2.4-1-2.6-4.3-.9-11.8-1-18.6-.2-23.9.7-4.6.6-6.4-.4-7.5-1.3-1.6-1.3-14.7 0-18.1 1.1-2.7.8-13.9-.4-15.3-.7-.8-.8-1.7-.4-2.1.4-.4.8-6.7.8-13.9.1-7.3.5-13.9.8-14.8.4-1 .3-2-.3-2.4-1.7-1-1.3-5.3.7-6.4 1.3-.8 1.4-1.2.5-2.2-1-.9-1.5-1-2.7 0-2.1 1.7-3.2-.6-1.3-2.7 2.1-2.4 3.7-33.1 2.1-39.8-.3-1.2-.1-2.5.5-2.8.7-.5.7-1.4-.1-3.1-.8-1.7-.8-3.2-.1-4.8.6-1.4.6-6.5.1-14.2-.5-6.6-.7-19.1-.4-27.8.5-12.9 1-16.5 2.6-19.6l1.9-3.9-2.4-2.6c-2.5-2.7-2.5-2.8-1.9-17.9.3-8.4 1.1-16.2 1.7-17.5.8-1.8.8-2.8-.1-4.3-.9-1.4-.9-2.5-.2-3.9s.6-2.2-.5-3.4c-3.3-3.3-.4-9.4 8.9-18.6 4.4-4.2 6.3-6.7 5.6-7.4-1.7-1.7-1.1-2.9 1.2-2.3 2.1.6 2.8.1 10.1-6.8 4.6-4.3 10.4-7.2 11.7-5.9.8.8.7 1.6-.6 2.8-2 2-1.3 3 1.5 2.1 1.4-.4 2.1-1.5 2.1-3.1 0-1.9.5-2.4 2.4-2.4 1.3 0 2.9.6 3.5 1.4 1.1 1.3 1.9 1.2 5.9-.5 10.5-4.5 8.3-5.7-11.1-6.4l-15.7-.6-8.3 8.3zM268.9 263.9c-5.9 5.8-12.9 12.7-15.6 15.4l-5.1 4.7-.2 138.8c-.2 76.3-.4 145.4-.4 153.7l-.1 15 3-.1c1.7-.1 31.1-.3 65.5-.4 34.4-.2 63.8-.7 65.4-1.1 1.6-.5 3.4-.5 4 0 .6.5 8.2 1 17 1.2l15.9.4v-307.5l-14.7-14.6c-8-8-14.6-15-14.6-15.4 0-1.4-43.8-.6-45.2.8-2.5 2.5 2.7 4.3 17.5 5.9 3.5.4 4.7.9 4.3 1.9-1 2.6 1.2 2.4 7-.7 4.5-2.4 6.1-2.9 7.4-2 .8.6 2.9 1.7 4.6 2.5 1.7.8 4.6 3.2 6.4 5.5 2.1 2.6 4.2 4.1 5.6 4.1 1.4 0 2.4.8 2.7 2.3.4 1.2 2.9 4.8 5.7 7.9 4.6 5.2 5.1 6.2 5.9 12.5.5 4 .5 9.3 0 12.6-.6 3.7-.6 6.4.1 7.7.5 1 1 4.3 1 7.4 0 4.6-.3 5.6-2 6.1-2.3.7-2.7 3.7-.7 5.4 1.6 1.2 2.1 19.1.6 19.1-1.4 0-1.1 6.7.4 7.3.9.3 1.1 3.6 1 12.3-.1 6.6-.3 12.6-.3 13.4-.1.8.4 3 1.1 4.8 1 2.4 1.1 3.7.2 5-.6 1.1-.9 4.6-.5 9.1.3 4.9.1 8-.8 9.7-1 1.8-1.1 3-.3 4.6 1.2 2.4 1.3 10.2.2 11.2-.7.8-.2 46.5.6 52.3.4 2.5.2 4.4-.5 4.8-.6.3-.7 1.2-.3 1.8.4.6.8 11.2.8 23.5.2 20.2 0 22.6-1.6 24.7-1.7 2-1.7 2.4-.4 3.5 1.5 1.3 1.6 2.2 1.7 28 0 5.7-1.3 10-3.8 12.7-2.2 2.3-2.4 2.4-4.6.9-2.8-2-6.4-2.1-7.2-.1-.3.8-2.6 2.5-5 3.7l-4.5 2.1-2-2.4-2.1-2.4-1.7 2.2-1.8 2.2-5.6-1.9c-4.6-1.6-6.2-1.7-8.6-.8-2.2.8-4.8.8-9.4.1-3.5-.6-7.1-.7-7.9-.3-1.5.8-46.5.3-48.8-.5-.7-.3-1-.9-.7-1.5.3-.5.1-1-.4-1-.6 0-1.1.4-1.1 1 0 1.8-8.2 3.3-11.6 2.1-1.8-.6-5-.9-7.2-.5-2.3.4-4.2.2-4.6-.4-.4-.6-2.7-.8-5.9-.5-4.7.5-5.6.2-8.5-2.2-3.6-3-4.2-6.4-1.2-7.2 2.5-.7 2.6-2.3.1-2.3-3.1 0-4.2-2.2-2.9-5.8 1-2.6.9-3.7-.5-6.6-1.5-3.2-1.5-3.9-.1-8.7 1.5-5 1.5-7.4-.1-11.2-.5-1.3-.3-1.6.8-1.1 1.2.4 1.8-.2 2.3-2.1.8-3.3-.2-4.4-2-2-.9 1.3-1.5 1.5-2 .6-.5-.7-.1-2 .8-3 1.1-1.3 1.4-2.7 1-5-.4-1.8-.1-5.7.6-8.6 1.1-4.5 1.1-5.7 0-7-1.1-1.3-1.1-1.9.2-3.1 1.1-1.2 1.3-2.4.8-4.7-2.5-10.2-2.8-12.5-1.9-17.1.5-2.7 1.4-5.5 2.1-6.3.9-1.1.7-1.7-1-2.9-2.6-1.8-3-6.4-.6-6.4 1.2 0 1.4-.3.6-1.3-1.3-1.5-1.4-26.5-.1-27.3.5-.3.6-2.2.3-4.2s-.1-5 .5-6.5c.6-1.6.8-3.4.4-4-.5-.7-.9-2.6-.9-4.2-.7-14-.6-19.7.6-22.4 1.1-2.7 1-3.4-.4-5-.9-.9-1.6-2.9-1.6-4.3s-.6-3.1-1.4-3.7c-1-.8-1.1-2.2-.5-5.4 2.5-13.7 3.1-18 3.6-28.6.6-11.5.5-11.8-1.6-12.4-1.6-.4-2.1-1.3-2.1-3.7 0-2.7.3-3 2-2.5 1.6.5 2 .2 2-1.9 0-1.4-.6-2.6-1.6-2.8-1.8-.3-2.9-9.4-1.4-11.8.5-.8.5-2.1 0-3-.6-1.1-.3-2.6.9-4.4 1-1.5 1.7-3.6 1.4-4.6-.3-1 0-2.7.6-3.8.8-1.4.7-2.4-.4-3.8-2-2.7-1.8-5.7.4-7.1 1.4-.9 2.1-2.6 2.3-5.5.3-3.7.6-4.3 2.8-4.6 3.4-.5 8.2-5.2 7.6-7.5-.3-1.2.3-2.1 1.8-2.6 1.2-.5 2.8-2 3.5-3.5.8-1.4 2.2-2.8 3.3-3.2 1-.3 2.3-1.4 2.9-2.6.9-1.6 1.7-1.9 4.3-1.4 1.8.3 4.7.1 6.5-.5 2.6-.9 3.5-.8 5 .5 1.6 1.4 1.9 1.4 3.4-.1.9-.9 3.8-2 6.4-2.3 3.9-.4 4.9-.9 5.1-2.6.3-2-.3-2.1-11.9-2.7-20.3-1.1-17.9-2-30 10.2zM519.4 259.2c-3.4 3.5-10.5 10.5-15.8 15.6l-9.6 9.4.4 46.1c.3 25.4.8 94.3 1.2 153.2.3 58.8.8 107.2 1 107.4.6.6 52.7 0 53.8-.6.5-.3.1-1.2-.9-1.9-1-.8-1.6-1.7-1.2-2 .3-.4 2 .5 3.7 2l3.2 2.6 50.4.2c27.7.1 53 .2 56.1.3h5.8l-.3-26.5c-.3-25.3-.8-56.4-1.8-108-.2-12.9-.4-57.4-.5-98.8-.1-74.2-.1-75.4-2.1-77-1.1-.9-7.9-7.6-15.1-14.9l-13.2-13.2-22.1.3c-12.2.2-22.7.7-23.4 1.1-2.1 1.3 1.9 4.2 6.8 4.9 25.2 3.3 25.7 3.4 27.3 2 2.8-2.5 6.9-1.6 8.1 1.7.4.9 1.9 1.9 3.6 2.2 1.7.3 3.6 1.8 4.7 3.4 2.6 4.1 6.7 8.3 7.6 7.7 1-.6 3.9 3.6 3.9 5.8 0 1.1.7 1.8 1.8 1.8 2.5 0 4.4 7.1 4.1 15.6-.1 3.8 0 7.3.1 7.9.2.5 0 2-.4 3.3-.6 1.7-.3 2.7 1 3.7 1.5 1.1 1.6 1.7.6 3.9-.6 1.4-.9 3.3-.6 4.1.4.8-.1 2.6-.9 3.9-1.4 2.1-1.4 2.8 0 6.7 1.1 3.4 1.2 4.8.3 6.2-.8 1.4-.8 2.7.2 5.3 1 2.8 1 3.9-.1 5.5-.8 1.4-1 3.5-.6 6 .5 3.1.3 4-.9 4.5-2 .8-2.1 4.4-.2 4.4 2.1 0 2.8 1.7 1.7 3.8-.7 1.3-.7 3.7-.1 7.3.6 3 1 13.3.9 22.9v35c-.1 9.7-.1 14.4 0 17 .1 1.4.1 3.4 0 4.5 0 1.1.2 6.7.6 12.5.3 5.8.5 12.5.4 15-.3 4.6-.3 8.1 0 31.5.1 7.1 0 17.3-.1 22.5-.2 5.2 0 10.5.4 11.7.4 1.2.3 5-.2 8.5-2 13-2 13-.6 12.5 2.1-.8.8 9.3-1.5 11.9-1.5 1.6-3.3 2.1-7.9 2.2-3.4.1-6.9.6-7.9 1.1-1.4.8-48.9.7-56.1-.1-.8 0-3.1 0-5 .2s-5.4-.3-7.7-1c-3.4-1-4.5-1-5.7-.1-.8.7-2 1-2.6.6-.5-.3-2.6-.1-4.5.6-3.1 1.2-3.6 1.1-4.8-.5-1.1-1.4-2.1-1.7-4.3-1.2-5.8 1.3-22.8 1.3-25.6-.1-2.4-1.2-3.2-1.1-5.8.2-4 2-5.4 1.9-8.7-.9-1.5-1.3-3.6-2.5-4.7-2.7-1.6-.3-1.9-1.5-2.2-7.9-.2-4.1-.6-8.5-.9-9.6-.3-1.3.2-2.7 1-3.4 1-.8 1.3-2 .9-3.4-.4-1.2-.6-3.6-.6-5.4.1-1.8-.3-4.4-.9-5.8-.6-1.7-.6-3.1 0-3.8.5-.6 1-8.1 1-16.6.1-12.9-.2-15.7-1.6-17.2-1.5-1.7-1.5-1.9.2-3.8 1.4-1.6 1.6-2.3.7-3.2-1.5-1.5-1.6-4.8-.2-4.8.6 0 1-.9 1-1.9 0-1.1-.4-2.3-1-2.6-1.3-.8-1.3-4.8.1-6.2.9-.9.9-2 0-4.4-1.4-4-1.4-13.4-.1-16 .6-1 1.8-1.9 2.8-2 1.3 0 1.2-.3-.6-1.1-2.6-1.3-3.9-5.2-2.3-7.1.8-1 .7-2.2-.1-4.5-1-2.5-1-3.9-.1-6.3 1-2.5.9-3.7-.2-6-1.2-2.2-1.3-3.3-.4-5.3.9-1.9.9-2.9 0-4s-.9-2-.2-3.4c.6-1.2.8-6.2.4-13.3-.3-6.3-.6-16.8-.7-23.4-.1-8.8-.5-12.6-1.6-14.3-1.4-2.1-1.3-2.4.2-3.6 1.4-1 1.7-2.5 1.3-8-.3-4.6 0-7.9 1-10.4 1.6-3.7.9-5.1-2.2-5.2-1.5 0-1.7-1.6-.5-2.4.5-.3.8-4.3.6-8.8-.1-4.6.2-12.6.6-17.8.5-5.2.5-9.9.1-10.3-1-1 .8-8.9 2.3-10 .8-.5.6-1-.4-1.6-1.2-.8-1.1-1.6.9-5.5 1.2-2.5 2.9-4.6 3.7-4.6.8 0 1.4-.8 1.4-1.8 0-2.5 1.9-4.2 4.7-4.2 1.6 0 2.3-.6 2.3-1.9 0-1.1-.4-2.3-1-2.6-1.9-1.2-1-2.5 1.9-2.5 2 0 3-.6 3.4-2 .3-1.1 1.3-2.2 2.4-2.6 1-.3 2.5-1 3.3-1.5.8-.5 2.2-1.2 3-1.5.8-.3 2.8-1.2 4.3-2.1 1.7-.9 5.7-1.6 9.8-1.7 5.8-.1 6.9-.4 6.9-1.9 0-2 1.3-2.2 4.2-.6 1.6.9 2.4.8 3.6-.5 1-1 1.3-1.9.7-2.5-.6-.5-8.2-1.2-17-1.5l-16-.7-6.1 6.3zm-12.4 22.7c0 1.2-2 2.5-2.7 1.8-.7-.7.6-2.7 1.8-2.7.5 0 .9.4.9.9zM736.7 268.1l-14.7 14.7v114.9c.1 63.1.2 132.5.3 154.1l.2 39.2 85.3.1 85.3.1-.1-78.9c-.1-43.3-.3-87.1-.5-97.3-.1-10.2-.6-44.3-1-75.8l-.8-57.3-7.3-7.2c-4-4-10.2-10.1-13.8-13.6-3.6-3.5-6.6-6.8-6.6-7.2 0-1.3-42.3-1.1-45.5.1l-2.7 1 2.6 2.1c3.2 2.5 8.1 3.1 26.4 3.1 7.2 0 13.5.4 13.8.9.3.5 1.3.9 2.3.9 1 0 2.4 1.1 3.1 2.5.7 1.4 1.7 2.5 2.2 2.5.4 0 .8.9.8 2.1 0 1.8.4 2 3.1 1.4 2.5-.6 3.1-.4 3.6 1.4.3 1.2 1.3 2.1 2.4 2.1 2.1 0 2.6 2.6.7 3.2-.6.2-.8 1-.4 1.6.4.7 1.6 1 2.7.7 1.3-.5 1.9-.2 1.9 1 0 .8.7 1.8 1.6 2.2.8.3 1.4 1.5 1.3 2.7-.1 1.1.3 4 1 6.4.9 3.1.9 4.7.2 5.6-.7.9-.8 2.9-.2 6.2 1.2 6.5 1.1 45.3-.1 46-.5.4-.5 1 0 1.7s1.3 3.4 1.6 6c.7 4.7.7 4.8-1.7 4.2-1.4-.4-2.8-.2-3.1.4-.5.7.2 1.1 1.7 1.1 1.8 0 2.7.7 3.1 2.6.7 2.8-.2 9.3-1.6 11-.5.8-.3 1.4.7 1.8 1.8.7 2 5.7.3 7.5-1 1.1-1 1.4 0 1.8 1.6.6 1.5 3.2-.2 3.9-1.2.5-1.2 1 0 4 1.8 4.2 1 15.3-1.2 17-1.9 1.6-.8 4.1 2.2 4.8 2.1.6 2.4 1.2 2.4 5 0 4-.2 4.4-3 4.9-3.6.8-4.4 4.7-1 4.7 2.4 0 3.8 2.6 2.2 4.2-.5.5-.8 2.7-.5 4.7.3 2.1 0 4.8-.6 6-1 1.7-.8 2.7.6 5.1 1.4 2.4 1.5 3.4.6 4.9-.8 1.2-.9 3.1-.3 5.7.5 2.2.5 5.6.1 7.6-.5 2-.7 3.9-.5 4.1.9.9 1.4 15.5.6 17.8-.6 1.6-.5 3 .4 4.4 1 1.5 1.1 4.4.4 12.4-.7 8.5-.5 10.9.7 12.7 1.8 2.7.9 8.7-1.9 12.6-1.8 2.7-1.8 2.7.2 3.8 2.5 1.3 2.5 2.9.3 7-1.7 2.9-1.7 3.2-.1 4.4 1.5 1.1 1.6 2 .6 8-1 5.9-.9 7.2.5 9.6 1.8 2.9 1.1 7-1.2 8.5-.6.3-1.1 1.7-1.1 3 0 3.4-4.8 8.1-7 6.7-1-.6-3.5-.6-7-.1-8.4 1.4-40.8 1.3-124.5-.4l-11-.2-.3-2.8c-.3-2.1-.9-2.7-2.7-2.7-2.4 0-2.4-.1-2-7.2.2-4-.1-9.4-.7-12-.9-3.5-.9-5.3 0-7 2.3-4.7 2.3-6.6.1-10.3-2.1-3.6-2.2-4.2-1-11.4 1.8-11.5 2.2-18.2 1.3-19.5-1.3-1.6-1.4-29.3-.2-30.1 1.5-.9 1.2-5.1-.5-6.5-1.1-.9-1.2-1.6-.5-2.5.6-.7.7-2.6.4-4.2-.3-1.7-.1-4 .6-5.2.9-1.8.8-2.7-.6-4.8-1.5-2.4-1.5-2.7 0-3.8 2-1.5 2.1-3.9.1-5.5-2.1-1.7-1.9-4.6.5-6.3 2.3-1.6 1.9-3.5-1.2-7.6-2.4-3.1-2.3-4.7.3-5.4 1.7-.5 2-1.1 1.5-2.9-.3-1.3-.6-3.7-.6-5.4 0-2.3-.5-3.3-2-3.7-1.9-.5-1.9-.7-.3-5.3 1.2-3.5 1.3-5.2.5-6.4-.8-1.3-.7-2.5.4-4.5 1.3-2.5 1.3-3-.1-4.5-1.2-1.3-1.6-3.6-1.4-8.6.1-3.8.1-9.4-.1-12.5-.1-3 .3-6.6 1-7.8.9-1.8.9-2.9 0-5.2-1.2-2.9-.6-7.9 1-8.9 1.5-.9 1.6-7.2.3-7.7-.8-.3-1.3.4-1.3 1.7 0 1.2-.4 1.9-.9 1.5-1.2-.7-.6-41.1.7-44.4.6-1.6.5-3.5-.2-5.3-.8-2.1-.7-3.4.2-4.9.7-1.1 1-2.4.6-3-.3-.5 0-1.6.6-2.4.6-.8.9-2.3.5-3.4-1-3.1 2.7-4.6 6.5-2.6 2.6 1.4 3.1 1.4 3.6.1.3-.8-.4-2.8-1.6-4.4-2.2-3-2-5.2.5-5.2.7 0 1.5.7 1.9 1.5 1.3 3.6 5.3-.6 6-6.4.4-3.2 1.9-5.1 4.2-5.1.7 0 1.4-.6 1.7-1.4.3-.8 3-1.6 6.8-2 5.8-.7 6.4-.6 8.1 1.6l1.8 2.3 2.1-2.8c1.6-2.1 2.9-2.7 6-2.7 4.6 0 7.9-1.4 7.9-3.4 0-1.5-12.9-2.7-25.9-2.5l-7.6.2-14.8 14.8zM77.7 261.4c-.7 1.9.1 4.6 1.4 4.6 1.1 0 1.1-3.1 0-4.8-.7-1.1-.9-1.1-1.4.2zM323 262.7c0 1 .5 2.5 1 3.3.7 1.1 1 .7 1-1.8 0-1.7-.4-3.2-1-3.2-.5 0-1 .8-1 1.7zM569 263c0 2.6 7.6 17.5 8.3 16.3.5-.7 1-8.1.8-11.1-.1-.8-.9-1-2.7-.6-2.9.7-4.4-.7-4.4-4.4 0-1.2-.4-2.2-1-2.2-.5 0-1 .9-1 2zM81 268.5c0 2.3 3.1 9.5 4.1 9.5.5 0 .9.9.9 1.9 0 1.1.5 2.3 1.1 2.6.7.5.8-1.5.3-6.6-.3-4.1-.9-7.7-1.1-8.2-.8-1.4-5.3-.7-5.3.8zM799 269.2c.1 1.3.9 4.1 2 6.3 2 4.2 2.5 7.7 1.3 8.9-1.4 1.4-3.2 9.1-2.4 9.9 1.7 1.7 5.2-.4 5.8-3.5.5-2.6.9-2.9 3.1-2.3 5.2 1.3 8.2 9.2 5 13.1-5 6.2-5.8 6.7-10.8 6.2-3.6-.4-5.5-1.1-6.9-2.9-2.4-3-3.4-7.9-2.2-11 .8-2.3.6-20.1-.4-22.7-.7-2-3.4-1.4-7.5 1.9-11.9 9.5-15.7 26.4-8.7 38 4.9 8.1 9.1 11.6 18.1 14.9 11.1 4.2 21 1 31.2-9.9 1.8-2 3.4-4 3.4-4.5s.8-1.8 1.7-2.9c2.7-2.9 2.4-18.8-.5-24.2-3.2-6.1-7.7-10.4-13.9-13.6-9-4.6-9.3-4.4-8.6 5.5.4 5.9.2 8.5-.6 9.1-1.9 1.1-2.2.3-2.6-7.6-.4-9.1-1.1-10.9-4.1-10.9-1.8 0-2.4.5-2.4 2.2zM581.3 269.6c-.3.9-.1 3.6.5 5.9.8 2.9.8 5.3.2 7.6-1.3 4.4-1.3 4.9.3 4.9.7 0 2.4 1.4 3.6 3.1 6.1 8.2-2.6 20.1-12.3 16.9-5.9-1.9-9.7-11-6.1-14.6 2-2.1 1.5-15.7-.9-20.2-2-3.8-2.6-3.6-9.8 2.8-6.8 6-9 11.4-9.2 22.5-.1 8.2.1 9.4 2.6 13.1 9.5 14.7 24.3 20 38.4 13.8 6-2.7 13.8-9.7 14.9-13.7.4-1.2 1.3-3.7 2.1-5.4 4-8.9-.1-23.5-8.6-30.7-3.4-2.8-8.9-5.8-12.8-7-1.6-.5-2.4-.3-2.9 1zm15.9 30.1c2 2.4 3 5.3 1.8 5.3-1.5 0-5-3.8-5-5.5 0-2 1.3-1.9 3.2.2zM91.1 270.4c-.9 1.1-1 2-.1 3.6.6 1.1 1 4 .8 6.3-.3 4-.5 4.2-3.8 4.5-3.8.4-5 1.5-5 4.9 0 1.3-.4 2.3-1 2.3-1.7 0-1.1 1.7.7 2.5 1.3.4 2.6-.3 4.6-2.5 1.6-1.8 3.4-2.9 4.2-2.6 2.6 1 5 5.9 4.9 10-.1 3.4-.8 4.5-4 7.3-5 4.2-9 4.4-12.6.5-3.8-3.9-5.1-7.8-3.9-11.6 1-3.2 1.4-19.8.5-22.9-1-3.2-4.8-1.9-10.3 3.6-7.6 7.6-10.1 13.3-10.1 23 0 8.2.8 10.4 6.5 18.4 2.1 2.9 5 5.2 9.5 7.4 5.6 2.8 7.5 3.2 14.2 3.2 10.6 0 15.3-2.4 23.8-11.8 6.8-7.6 8.1-20.3 3.1-30.3-3.4-6.8-9.4-12.5-15.8-15.3-5.3-2.3-4.8-2.2-6.2-.5zm13.8 39.8c.9 1.5 1.2 3 .8 3.4-1 1-6.1-2.9-6.5-5-.6-2.8 4-1.5 5.7 1.6zM574.5 286.2c-1.3 6-1 8.3 1 8.3 2.7 0 4.2-4.6 2.7-8-1.4-3.1-3-3.2-3.7-.3zM160 484c0 1.1.7 2 1.5 2s1.5-.6 1.5-1.4c0-.8-.7-1.6-1.5-2-1-.4-1.5.1-1.5 1.4zM159.2 526.9c.4 1.3 1.8 1.6 1.9.4 0-.4-.5-.9-1.1-1.2-.7-.2-1.1.2-.8.8z"/></g></svg>