<svg xmlns="http://www.w3.org/2000/svg" viewBox="0, 0, 640, 542"><path d="M307.911.204c-34.064 2.824-59.488 9.552-114.656 29.984-32.736 12.209-54.255 19.352-70.788 23.504-16.617 4.236-18.113 4.236-19.691.416-.831-1.994-1.745-2.907-2.991-2.907-.914 0-5.235 3.073-9.555 6.727-4.321 3.738-17.697 14.452-29.744 23.92-27.252 21.263-39.05 31.313-51.097 43.522l-9.389 9.551 3.739 4.901c12.13 15.697 16.118 35.132 14.54 70.846-2.244 52.409-.083 68.106 16.284 117.525 8.142 24.668 12.546 41.943 14.374 55.98 1.329 10.714 1.495 11.378 3.822 13.372 3.905 3.322 5.234 4.817 12.545 14.618 11.051 14.617 17.282 18.023 32.819 18.106 10.468.083 14.623-.748 32.07-6.063 16.7-5.067 17.116-5.15 36.059-6.313 9.804-.664 19.359-1.661 21.187-2.242 1.828-.581 4.902-2.658 6.896-4.568l3.489-3.489v-6.478c-.083-22.591-5.899-57.558-16.201-97.009-13.377-51.329-16.368-63.206-19.027-76.827-3.157-15.864-5.151-30.399-5.982-44.269l-.581-8.887h2.243c1.246 0 3.656.747 5.484 1.661 1.827.914 4.403 1.661 5.816 1.661h2.492v6.395c0 22.01 4.487 48.339 17.863 105.315 12.629 53.572 16.119 72.342 17.946 96.761.499 7.06.748 16.279.499 20.349l-.499 7.558 5.733 1.495c3.158.747 11.798 4.568 19.276 8.305 13.543 6.811 19.525 8.804 26.836 8.804 2.493 0 3.905-.498 5.068-1.744 4.985-5.482 15.205-7.807 39.382-8.97 25.757-1.329 33.483-3.073 39.382-9.136 2.992-3.073 3.241-3.655 4.487-12.292.997-6.894 1.329-16.113 1.329-40.532.083-46.677-2.243-80.481-8.308-122.923-2.576-18.438-3.573-43.77-1.994-53.322 1.412-8.804 3.988-16.86 5.317-16.86 1.496 0 5.816 4.983 8.143 9.385 2.991 5.648 3.074 17.691.249 33.804-3.573 20.681-3.24 42.608 1.662 98.837 4.237 48.671 4.735 77.076 1.578 94.684-2.077 12.043-2.742 10.797 6.564 13.953 10.302 3.488 23.18 6.478 35.892 8.14 17.531 2.408 49.519 1.411 52.51-1.579 1.578-1.661 6.563-14.534 8.89-23.006 4.819-17.774 6.065-36.462 4.569-66.445-1.412-27.492-1.495-50.581-.083-59.8.582-3.904 3.158-17.359 5.567-29.901 4.653-23.255 6.481-34.883 7.478-47.175.415-4.319.914-6.811 1.578-6.811 2.576 0 9.887 6.644 12.38 11.213 1.495 2.74 1.828 4.651 1.745 11.212 0 8.472.664 6.063-10.22 36.545-5.899 16.777-7.311 31.229-8.391 88.205-.914 47.508-2.161 64.037-6.232 79.568-.664 2.492-1.08 4.568-.997 4.651.083.083 4.155.831 8.973 1.495 20.273 2.99 35.062.499 47.857-7.973 7.976-5.399 14.208-12.957 19.359-23.505 8.557-17.442 12.13-35.963 16.617-85.548 2.575-28.322 4.902-42.857 8.89-55.647 2.575-8.223 8.059-19.02 10.551-20.598l1.828-1.246-.831 4.734c-.664 4.236-.498 5.482 1.994 12.957 3.324 9.884 3.905 16.777 2.576 29.485-2.077 20.099-6.979 37.79-20.771 75.581-13.044 35.465-18.694 53.571-19.359 61.794-.249 3.239-.166 3.322 3.324 4.318 28.747 8.472 56.829-6.727 73.862-40.033 7.311-14.202 11.299-28.488 12.712-45.182.831-9.801 0-23.256-1.163-18.522-.499 2.077-1.081 2.741-2.493 2.741-1.662 0-1.994-.581-2.492-3.82-.914-6.894-.499-22.093.747-30.233.748-4.319 2.991-15.033 4.985-23.671 4.653-20.016 5.484-25.498 5.567-35.299 0-9.468-1.579-16.196-5.982-25.332-6.481-13.538-15.288-23.006-41.127-44.435-9.555-7.973-19.774-16.777-22.682-19.518-2.825-2.824-4.985-4.485-4.819-3.737 5.068 17.026 5.899 22.009 4.653 26.495-1.08 3.986-3.324 4.734-3.324 1.079 0-4.07-2.409-12.043-5.815-18.937-5.733-11.71-15.703-20.93-36.641-33.803-5.4-3.24-9.887-6.479-9.887-7.06 0-1.578 6.813-1.246 11.632.664 3.24 1.246 4.653 1.495 5.899.831.831-.498 1.579-.997 1.579-1.163 0-.249-3.573-2.242-7.976-4.651-12.048-6.395-24.012-14.203-50.183-32.807-13.045-9.219-28-19.601-33.234-23.007-33.982-22.176-61.4-33.222-92.224-37.209-7.561-.997-35.062-1.744-41.958-1.163zm112.497 38.372c16.783 6.312 30.159 19.934 33.317 33.887.498 2.16.747 4.07.498 4.236-.415.415-14.872-10.216-22.017-16.279-5.484-4.651-11.383-12.375-12.712-16.86l-.997-3.406-8.309.499c-4.652.249-13.376 1.661-19.442 3.073-18.278 4.153-23.762 2.99-12.711-2.824 8.806-4.651 13.044-5.482 25.008-5.15 9.222.249 11.133.499 17.365 2.824zm-186.027 7.891c-.664.664-4.071 2.159-7.477 3.488-34.065 12.874-51.263 29.9-54.504 54.319l-.498 4.152 21.934 21.844c22.682 22.508 29.412 30.482 36.64 43.355 4.404 7.808 4.902 9.635 2.078 7.808-1.081-.665-4.155-2.077-6.896-3.073-7.81-2.907-21.852-10.465-28.249-15.283-26.753-19.933-37.721-47.591-30.326-76.577.914-3.655 2.825-9.552 4.237-13.04 2.493-6.146 2.742-6.479 5.65-6.977 6.065-.997 10.302-2.824 18.445-8.222 15.453-10.133 22.35-12.708 33.566-12.791 5.483-.083 6.397.083 5.4.997zm120.058 11.794c2.741 2.657 2.575 5.066-.499 13.704-1.412 3.903-2.742 7.724-2.991 8.472-.249.996 1.163 3.405 4.154 7.142 6.73 8.223 12.878 19.02 19.691 34.801 13.626 31.478 18.694 40.365 29.495 51.661 6.232 6.561 6.481 6.81 3.49 5.648-4.902-2.077-16.866-10.632-25.507-18.19-18.279-16.113-31.24-35.216-36.724-54.235-1.661-5.648-1.91-8.555-1.91-19.519 0-10.797.332-13.87 1.827-19.102 3.739-12.791 5.069-14.369 8.974-10.382zm-67.631 43.77c1.828 3.405 1.163 14.203-1.745 26.412-1.579 6.395-3.074 11.628-3.49 11.628-2.991 0-3.406-14.95-.747-26.163 3.572-14.95 3.988-15.697 5.982-11.877zm219.841 27.824c6.73 4.568 10.968 12.043 14.789 25.996 2.327 8.223 5.982 20.432 6.73 22.176.249.665-.166 1.08-.997 1.08-2.326 0-12.047-10.797-16.035-17.774-4.902-8.638-8.392-19.269-8.973-27.325-.333-3.987-.166-6.396.332-6.396.499 0 2.327.997 4.154 2.243zm-478.899 11.296c2.16 11.046 7.644 26.91 11.881 34.219 4.404 7.807 9.97 14.451 15.786 18.853 2.493 1.828 4.487 3.738 4.487 4.153 0 1.412-6.398 0-11.05-2.408-16.7-8.389-29.661-27.658-29.661-43.937 0-6.562 4.237-18.605 6.48-18.605.332 0 1.246 3.489 2.077 7.725zm425.808 3.737c2.327 2.99-.581 13.123-4.486 15.698-4.736 3.073-5.816-1.246-2.41-9.635 1.33-3.156 1.911-5.897 1.579-6.894-.499-1.578-.249-1.661 1.828-1.162 1.329.332 2.908 1.246 3.489 1.993zm-342.059 8.306c1.994 1.744 2.659 3.156 2.908 5.98.665 6.81-2.658 9.717-6.646 5.814-1.164-1.163-1.662-3.157-1.994-7.808-.333-5.98-.333-6.312 1.412-6.312.914 0 2.908 1.08 4.32 2.326zm184.033 64.534c.83.665 2.243 1.246 3.074 1.246 1.08 0 1.412.665 1.412 2.741 0 5.066 2.493 23.671 6.148 46.844 5.069 31.561 6.315 43.106 6.315 59.634 0 15.448-.332 17.857-2.41 17.857-2.741 0-11.382-4.817-14.041-7.807-5.4-6.147-7.644-12.127-11.798-31.645-1.329-6.395-3.074-13.621-3.905-16.03-1.329-4.318-1.412-4.485-3.905-3.903-4.902.996-15.952 2.076-21.436 2.076h-5.649v2.741c0 1.578 1.163 9.718 2.658 18.106 2.991 17.193 3.49 31.479 1.33 38.123l-1.164 3.738-4.569-.084c-9.223-.166-15.537-4.235-19.857-12.79-3.241-6.479-4.487-11.545-8.724-36.711-4.404-26.578-5.816-36.462-7.478-52.325-1.828-17.94-1.994-16.944 2.41-16.612 1.994.167 7.477-.498 12.13-1.411 4.736-.997 9.804-1.745 11.299-1.745h2.825v6.562c0 3.571.748 10.216 1.662 14.618.914 4.402 1.662 9.883 1.662 12.126v4.153l4.403-.582c2.327-.249 6.896-1.079 9.97-1.661 3.158-.664 8.475-1.163 11.881-1.163h6.149v-5.315c0-2.99-.748-9.386-1.745-14.286-.914-4.9-1.413-9.136-.997-9.468.332-.249 3.157-2.326 6.231-4.485 6.065-4.153 9.306-7.891 10.22-11.545.664-2.575 3.24-2.99 5.899-.997zm309.489 7.891c2.742 1.495 4.072 5.315 4.072 11.877 0 6.063 0 6.146-1.994 5.814-3.241-.665-4.653-2.907-5.484-8.638l-1.246-7.641c-.333-1.828-.083-2.243 1.329-2.243.914 0 2.409.415 3.323.831zm-199.901 17.109c17.448 1.744 50.432 6.977 51.762 8.223.166.166-.333 1.495-1.163 2.99-.748 1.495-2.41 5.897-3.739 9.634-2.742 8.306-4.736 11.213-8.724 13.123-5.484 2.575-7.81-.664-5.234-7.475 2.991-7.973 1.578-10.548-7.146-12.874-3.157-.83-5.899-1.412-5.982-1.329-.581.582-2.825 20.349-3.739 32.641-1.911 26.994 1.828 45.1 11.217 54.984l3.489 3.654-5.4-.498c-2.991-.249-9.472-1.495-14.54-2.741-5.982-1.412-11.632-2.243-16.368-2.326-4.071 0-7.311-.166-7.311-.249 0-.166 1.246-1.91 2.825-3.987 6.231-8.139 8.391-17.691 8.308-37.79 0-15.365-.498-20.515-3.822-38.04l-1.827-9.385-3.656.249c-4.653.332-6.398 2.492-7.644 8.97-1.163 6.312-2.409 9.136-4.154 9.136-2.41 0-6.979-3.654-8.89-7.059-1.496-2.741-5.235-18.107-5.235-21.429 0-.997 18.694-.249 36.973 1.578zm-266.95 13.455c1.329 1.329-1.911 4.817-10.885 11.877-9.222 7.309-12.047 10.548-13.875 15.864l-1.246 3.904 2.659 3.986c8.059 11.711 16.451 17.276 28.913 19.103 6.979 1.08 7.644.415 6.979-6.81-.498-5.731-.332-5.98 3.324-4.652 3.406 1.329 5.566 4.236 5.566 7.475-.083 4.901-2.991 9.884-9.887 16.778l-6.563 6.561h-4.487c-9.305 0-18.528-3.571-32.652-12.707l-8.309-5.399-1.827 1.744c-.997.914-2.327 2.99-2.825 4.568-.914 2.741-.748 3.406 2.908 10.299 2.077 3.987 3.822 7.641 3.822 7.974 0 .332-2.327.498-5.152.332-4.154-.249-6.896.249-13.21 2.242-4.487 1.412-9.804 2.575-12.047 2.575-4.155 0-7.81-1.661-7.81-3.571 0-.582 2.326-2.907 5.151-5.15 14.373-11.794 16.201-13.704 19.442-20.764 2.741-5.897 2.243-7.973-2.908-12.957-6.813-6.561-19.442-10.382-24.926-7.475-.997.582-1.994 2.077-2.326 3.489-.499 2.824-1.163 2.99-2.991.913-2.41-2.657-4.071-7.724-3.49-10.714 1.662-8.97 17.448-15.531 32.403-13.538 7.81 1.08 15.703 5.149 19.11 9.718 3.655 5.066 5.816 4.568 7.145-1.495.499-1.994 1.412-4.236 2.16-5.067 1.911-2.076.831-3.737-2.991-4.734-1.911-.498-4.902-1.329-6.73-1.744-1.828-.499-3.323-1.246-3.323-1.661 0-2.326 14.374-9.053 23.679-11.13 6.148-1.329 15.786-1.246 17.199.166zm369.975 3.987l5.899 1.412-.332 5.565c-.167 2.99.332 9.8 1.163 15.033.747 5.232 1.661 13.206 1.911 17.774l.498 8.305 2.16-3.322c1.164-1.827 3.905-7.724 6.066-13.123 4.237-10.797 5.4-13.04 9.139-17.026 2.409-2.575 2.742-2.658 8.89-2.658h6.397l.499 2.658c1.246 6.063 1.495 18.189.581 25.996-1.08 8.97-3.157 18.522-10.302 46.096-2.576 9.801-4.902 20.266-5.234 23.173l-.582 5.316-4.736-.499c-9.638-.83-13.958-4.9-12.961-12.043.249-2.076 2.576-8.638 5.068-14.535 6.315-14.534 8.392-22.923 6.148-24.252-.498-.332-1.412.083-1.994.914-2.492 3.322-3.905 7.392-6.231 18.355-1.329 6.229-3.24 12.957-4.237 14.95-2.16 4.402-5.816 7.392-10.552 8.389l-3.489.83v-11.378c0-9.967.747-18.522 2.16-23.754.332-1.412.166-1.329-1.247.415-1.994 2.575-3.905 9.053-5.068 18.023-1.911 14.369-4.403 18.522-11.216 18.522-1.911 0-4.736-.416-6.148-.914-2.161-.747-2.576-1.329-2.244-2.741.25-.913 1.579-7.89 2.908-15.531 4.238-23.422 7.312-46.844 11.383-86.545l.498-4.734h4.653c2.659 0 7.395.581 10.552 1.329zm88.568 39.368c1.994.914 4.985 1.662 6.73 1.662h2.991l-1.496 6.81c-.831 3.821-3.074 12.209-4.902 18.771-3.738 13.289-6.065 24.501-5.4 26.163.665 1.744 3.572 2.823 9.139 3.488 2.659.332 5.733.914 6.813 1.329 2.908 1.08 2.326 4.402-1.495 8.555-2.41 2.574-3.324 4.318-3.324 6.229 0 2.575 0 2.575-4.569 2.575-2.41 0-6.481-.416-8.89-.914-4.321-.831-24.012-6.561-24.677-7.06-.166-.166.665-2.242 1.828-4.734 2.991-6.395 5.151-13.704 8.475-29.485 3.656-16.86 5.816-24.917 8.391-30.648 1.662-3.903 2.161-4.402 4.321-4.402 1.412 0 4.071.748 6.065 1.661zm-583.586 22.592c-1.412 11.295 0 23.505 3.905 35.382 2.161 6.561 11.965 27.242 15.371 32.558l1.911 2.907-.499-7.475c-.664-8.971-3.655-22.924-7.477-34.137-3.822-11.461-11.466-32.142-12.131-32.973-.332-.332-.83 1.329-1.08 3.738zm178.715 106.228c-6.896 6.977-13.21 8.306-45.53 9.801-17.946.831-23.098 1.744-29.661 5.565l-3.407 1.993 5.401 5.15c2.991 2.907 10.219 11.046 16.035 18.106 5.816 7.06 12.213 14.369 14.207 16.279 4.155 3.821 9.057 7.392 9.057 6.478 0-.332-1.911-3.571-4.238-7.226-2.326-3.571-4.985-8.222-5.899-10.215-1.911-4.319-1.744-8.887.333-9.303 2.16-.415 9.388 10.548 18.611 28.073 10.634 20.266 14.29 25.748 21.934 33.306 12.463 12.375 27.667 17.026 50.1 15.282l8.059-.581 5.567-4.485c13.709-10.964 28.581-15.366 70.04-21.097 18.279-2.491 37.388-5.731 37.388-6.312 0-.166-1.828-1.993-4.071-4.07-7.062-6.644-11.632-18.023-11.715-29.235 0-3.738.332-4.485 2.659-6.479 4.237-3.571 13.709-7.89 22.183-10.133 10.884-2.907 35.477-3.654 49.934-1.578 26.255 3.821 49.269 13.04 59.322 23.671 1.33 1.329 2.742 2.326 3.074 2.077 1.164-.665 2.576-7.06 2.576-11.379-.083-6.063-3.822-13.206-11.05-21.013-3.407-3.572-7.727-8.389-9.638-10.548l-3.489-4.07-12.297 1.495c-16.949 2.076-52.094 2.076-66.717.083-12.961-1.827-22.266-3.987-30.409-7.143l-6.231-2.408-7.228 2.408c-25.923 8.804-60.652 13.954-86.159 12.874-24.012-.997-40.545-6.146-51.097-15.864l-3.739-3.488-3.905 3.986zm187.522 41.778c-10.136 1.661-24.51 6.229-24.51 7.89 0 .332.997 1.495 2.16 2.658 1.163 1.08 3.822 4.817 5.982 8.222 8.641 14.12 11.134 17.525 12.546 17.11 2.908-.914 16.201-2.16 31.655-2.99 36.724-1.993 49.519-4.402 59.738-11.379l4.487-3.073-2.825-2.408c-5.567-4.652-19.608-10.299-33.4-13.372-16.036-3.655-41.543-4.818-55.833-2.658z" fill="#DB351E"/></svg>