<svg xmlns="http://www.w3.org/2000/svg" viewBox="0, 0, 640, 422"><path d="M22.969 2.842c-3.058 1.207-2.062 2.344 4.338 4.973 3.982 1.563 11.946 6.394 15.075 9.022.782.711 2.489 2.061 3.769 3.055 10.596 8.028 16.071 15.204 17.493 23.018.285 1.421.783 2.771 1.138 2.984.356.213.64 1.35.64 2.487 0 1.208.498 3.126 1.138 4.405.782 1.42 1.422 5.186 1.778 10.443.569 8.667.071 12.219-2.845 20.958-3.769 11.083-5.76 26.712-5.831 44.331 0 4.902-.426 11.012-.995 13.57-.783 3.978-1.423 11.509-2.134 25.717-.142 3.766-1.137 5.329-3.413 5.684-1.92.284-2.418 2.415-.924 4.049.64.711.995 1.776.711 2.487-.214.639-.214 1.705.071 2.344.426 1.137.569 1.066 1.138-.355.497-1.35 1.137-1.563 4.266-1.563 3.627 0 3.627 0 3.271 2.06-.64 2.984.214 7.176 1.423 7.176 2.702 0 3.271-9.449.782-12.859-1.565-2.131-1.565-2.202-.285-3.126 1.92-1.421 3.983-6.394 3.983-9.591 0-1.492.426-3.055.995-3.481.711-.568 1.138-3.197 1.422-8.454.64-11.367.854-13.001 1.423-16.127.64-3.055 2.844-7.815 3.911-8.454.355-.285.853-1.35 1.137-2.416.569-2.273 3.485-6.749 9.103-13.569 2.204-2.7 4.053-5.257 4.053-5.613 0-.355.782-1.35 1.778-2.273.995-.924 1.778-2.131 1.778-2.7 0-.497.924-1.847 2.062-2.984 3.058-3.054 6.471-8.525 6.471-10.372 0-.924.427-2.7.995-3.978 1.494-3.482 3.485-21.385 3.058-27.921-.355-6.678-1.706-13.072-3.058-14.635-.568-.568-.995-1.634-.995-2.202 0-.639-.64-2.629-1.351-4.334-1.707-3.978-3.982-4.973-5.831-2.557-1.707 2.202-1.707 3.978 0 4.902 1.706.852 4.337 7.53 5.262 13.143 1.067 7.033.569 21.384-.996 26.286-.711 2.344-1.351 5.399-1.351 6.749 0 1.421-.355 2.913-.782 3.339-.853.853-2.276 3.268-3.413 5.542-.356.852-1.138 1.918-1.778 2.415-.64.497-1.138 1.35-1.138 1.847 0 .498-.498 1.279-1.138 1.847-.569.498-1.706 2.061-2.417 3.482-.712 1.42-2.418 3.694-3.698 5.044-6.969 7.033-15.005 21.739-14.649 26.925.071 1.35-.285 3.268-.782 4.192-.498.923-1.138 5.044-1.494 9.236-.284 4.12-.853 8.312-1.209 9.306-.426.995-.924 3.695-1.208 6.039-.285 2.344-.712 5.399-.996 6.749-.427 2.274-.498 2.06-.924-2.131-.854-8.241-.64-17.406.355-21.029.569-1.918 1.209-7.176 1.493-11.651.214-4.476.712-9.165 1.067-10.302.356-1.207.782-5.683.996-10.088.142-4.334.569-8.383.924-8.88.285-.498.782-3.624.996-6.963.284-3.765.995-7.459 1.991-9.946.924-2.131 1.92-5.612 2.275-7.743.356-2.061.996-4.405 1.351-5.116.427-.71.712-5.044.712-9.733 0-6.678-.214-8.667-1.067-9.377-.569-.498-1.067-1.492-1.067-2.274 0-2.557-2.204-9.946-3.271-11.012-.569-.568-.995-2.131-.995-3.41 0-3.339-4.338-10.443-9.672-15.842-2.417-2.416-4.693-4.405-4.977-4.405-.356 0-2.56-1.776-4.907-3.908-2.347-2.131-4.48-3.907-4.764-3.907-.285 0-.925-.426-1.423-.924-1.849-1.705-7.395-5.115-10.88-6.678-3.84-1.705-5.546-1.918-7.964-.923zm175.075-.213c-2.631.639-2.915 1.634-1.066 3.054.995.782 2.133 1.421 2.56 1.421.853 0 5.973 2.274 8.462 3.766 6.187 3.694 22.044 16.34 23.182 18.4.427.924 1.565 2.416 2.418 3.41.853.995 2.489 4.334 3.556 7.46 1.137 3.126 2.275 5.967 2.631 6.323.284.426.569 1.563.569 2.699 0 1.066.64 3.481 1.351 5.4 1.209 2.983 1.351 4.902 1.137 13.001-.142 6.678-.568 10.372-1.351 12.219-.64 1.421-1.635 3.765-2.204 5.115-.569 1.421-1.067 3.481-1.067 4.618 0 1.137-.284 2.203-.64 2.416-.355.213-.853 3.41-1.138 6.962-.284 3.623-.782 7.104-1.066 7.673-.285.568-.711 8.17-.996 16.766-.284 10.088-.782 17.406-1.493 20.247-.64 2.7-1.067 8.028-1.067 12.859 0 5.471-.284 8.384-.782 8.384-.427 0-.64 1.42-.498 3.694.214 3.694.214 3.765-2.275 4.547-2.916.994-3.343 1.918-1.849 4.191.64.924 1.138 2.7 1.138 3.837 0 2.699 1.208 3.481 1.848 1.136.356-1.563.854-1.776 3.414-1.776 1.706 0 3.2.142 3.342.284.142.213.142 2.345-.071 4.831-.356 4.263-.427 4.476-2.276 4.689-2.346.284-2.346.355-.569 4.05.783 1.563 1.352 3.765 1.423 4.831 0 3.481 1.28 1.35 1.777-3.055.285-2.345.712-4.263.996-4.263.498 0 2.916 6.536 2.916 7.886 0 .284-.783 1.35-1.636 2.344-1.209 1.279-1.92 1.563-2.418 1.066-1.138-1.137-2.346-.142-2.346 1.776 0 .853-.356 1.918-.783 2.345-.426.426-.569 1.136-.355 1.563.924 1.421 2.631.781 3.84-1.35 1.493-2.629 2.204-2.629 4.693-.071 1.849 1.918 1.991 2.415 1.565 5.328-.64 4.121-4.338 7.531-8.249 7.531-2.063-.071-2.845-.498-4.765-3.126-2.56-3.339-3.058-6.749-1.28-8.241.925-.782 1.067-2.203.782-7.886-.355-7.531-.568-8.454-2.488-8.454-1.992 0-9.032 6.82-10.88 10.514-2.205 4.547-2.347 13.427-.214 17.619 2.062 3.978 5.262 8.099 6.4 8.099.569 0 1.422.426 1.92.995 2.347 2.344 5.547 3.268 11.094 3.268 6.755 0 10.737-1.492 14.862-5.613 3.129-3.126 4.551-5.754 6.115-11.296.996-3.339.996-4.191 0-8.099-1.92-7.388-7.466-13.924-13.369-15.629-1.564-.427-3.057-.995-3.413-1.279-.284-.213-.142-3.126.285-6.394.711-5.044.64-6.039-.214-6.678-1.92-1.35-2.133-3.624-.569-5.044.783-.711 1.423-1.777 1.423-2.416s.426-2.557.995-4.334c2.631-8.099 3.271-11.153 3.271-15.203.071-3.836.498-7.815 1.92-16.695.214-1.279 1.28-3.766 2.418-5.4 1.138-1.705 2.062-3.41 2.062-3.836 0-1.279 2.845-6.252 4.694-8.241 1.635-1.705 4.124-4.973 10.737-14.067 1.138-1.421 2.845-3.694 3.911-4.973 1.067-1.207 1.992-2.486 1.992-2.699 0-.214.64-1.137 1.422-2.061.782-.923 1.422-2.202 1.422-2.912 0-.711.356-1.492.711-1.706.427-.213.711-1.42.711-2.557s.427-3.197.996-4.476c.498-1.279 1.209-5.044 1.422-8.312.284-3.268.782-8.028 1.209-10.585.569-3.695.498-5.826-.356-9.947-.64-2.912-1.137-6.18-1.137-7.246 0-1.066-.285-2.06-.64-2.345-.356-.213-.854-1.349-1.138-2.557-.285-1.208-.925-2.984-1.494-4.05-.568-1.065-.995-2.415-.995-3.054 0-.64-.782-1.563-1.778-2.061-1.564-.852-1.92-.781-3.2.355-1.92 1.777-1.778 3.268.711 6.963 1.138 1.776 2.134 3.552 2.134 3.978 0 .498.497 1.847 1.208 3.126 1.636 3.197 1.565 27.423-.142 29.767-.64.995-1.066 3.126-1.066 5.684 0 2.202-.356 4.263-.783 4.476-.355.284-.995 1.207-1.422 1.989-.782 1.847-1.635 3.268-4.764 7.602-1.209 1.776-3.485 4.973-4.907 7.104-1.422 2.131-4.48 6.11-6.756 8.88-2.275 2.7-5.12 6.892-6.186 9.236-1.138 2.345-2.702 5.044-3.556 5.968-.995 1.137-1.493 2.7-1.493 4.689 0 1.634-.356 4.76-.782 7.033-.427 2.273-1.067 6.891-1.351 10.301-.854 7.886-2.347 16.909-2.987 17.477-1.707 1.705-1.849-16.979-.213-22.663.64-2.06 1.066-6.465 1.066-10.656 0-4.973.356-7.815 1.067-9.236.782-1.421 1.067-4.334 1.067-9.946.071-5.471.355-8.454 1.066-9.662.64-1.066.996-3.836 1.067-6.962 0-3.197.427-5.968.995-7.105 1.423-2.557 3.058-8.241 3.627-12.361.213-1.848.711-3.553 1.138-3.766.355-.284.64-3.623.64-7.459 0-6.039-.213-7.46-1.778-10.515-1.138-2.202-1.778-4.76-1.778-6.749 0-2.06-.497-3.765-1.422-4.973-.782-.995-1.422-2.629-1.422-3.623 0-1.066-.285-2.416-.64-3.126-.427-.64-1.422-2.7-2.276-4.547-2.133-4.618-10.666-12.788-22.329-21.384-1.92-1.421-3.911-2.913-4.337-3.268-.427-.355-1.423-.853-2.276-1.066-.853-.284-1.564-.781-1.564-1.065 0-1.421-8.32-3.766-11.023-3.126zm52.267 201.409c0 1.136-4.551 5.044-4.835 4.191-.356-1.136 2.631-5.044 3.84-5.044.568 0 .995.355.995.853zm-18.631 19.608c.142.497-.213.852-.782.852-.569 0-1.209.498-1.494 1.066-.426 1.279-1.848 1.421-1.848.213 0-1.137 2.275-3.481 3.128-3.197.356.142.854.64.996 1.066zm140.942-220.875c-3.058.852-1.991 2.344 3.2 4.618 2.774 1.207 5.334 2.415 5.689 2.699.427.284 2.987 2.06 5.689 3.837 2.773 1.776 6.116 4.333 7.467 5.683 1.422 1.35 2.773 2.416 3.129 2.416 1.066 0 6.471 4.902 8.746 7.956 3.271 4.334 6.329 10.941 7.182 15.488.427 2.202 1.423 5.684 2.276 7.815 1.351 3.339 1.636 5.257 1.636 13.143 0 8.383-.214 9.662-1.992 14.209-2.062 5.257-2.702 7.814-3.911 15.274-.426 2.558-1.066 6.536-1.493 8.881-.427 2.344-1.067 11.296-1.351 19.892-.356 8.596-.925 16.908-1.351 18.471-.356 1.563-.854 6.82-1.067 11.722-.853 17.406-.995 18.117-4.195 18.614-1.707.213-1.778 1.137-.498 6.181 1.066 4.262 1.635 5.044 2.133 2.912.356-1.562.853-1.776 3.84-1.989l3.485-.213-.427 3.481c-.285 2.345-.071 3.979.498 4.76 1.209 1.705 2.062.355 3.2-4.831.853-3.907.853-4.262-.569-5.754-1.92-1.99-1.92-4.405-.071-5.4.924-.497 1.422-1.492 1.422-2.912 0-1.208.355-2.842.853-3.695 1.351-2.557 2.774-10.23 3.485-19.679.355-4.831.995-9.164 1.351-9.52.426-.426.711-1.492.711-2.415 0-2.203 6.187-14.706 8.604-17.548 1.991-2.273 7.965-9.804 10.951-13.854 8.107-10.94 9.316-13.214 10.667-19.892.285-1.35.782-2.913 1.067-3.552.355-.568.924-6.181 1.422-12.362.782-11.722.213-19.466-1.778-24.226-.498-1.207-1.422-3.339-2.062-4.83-.64-1.492-1.138-3.269-1.138-3.979s-.64-1.847-1.422-2.558c-1.209-1.065-1.707-1.136-3.2-.497-1.422.64-1.778 1.35-1.778 3.339 0 1.35.285 2.487.64 2.487.782 0 2.845 4.333 4.694 9.946 1.777 5.044 1.706 24.013 0 28.133-.569 1.421-1.067 4.05-1.067 5.897 0 2.415-.569 4.049-2.133 6.465-1.138 1.776-2.134 3.481-2.134 3.765 0 .355-1.849 3.055-4.124 6.039-2.205 2.984-4.409 5.968-4.765 6.607-.426.639-2.844 3.836-5.475 7.104-2.631 3.197-5.618 7.673-6.685 9.804-1.066 2.203-2.489 4.76-3.2 5.684-.853.994-1.351 2.842-1.351 4.689 0 1.634-.284 3.907-.711 5.044-.355 1.137-.995 5.541-1.351 9.875-.356 4.263-.853 8.738-1.138 9.946-.213 1.137-.782 4.05-1.209 6.323-.711 3.694-.924 3.978-1.422 2.487-.995-2.487-.782-18.401.213-20.887.427-1.208.996-5.968 1.138-10.657.214-4.689.782-9.165 1.209-9.946.427-.782.996-5.399 1.28-10.301.569-10.728 2.133-22.592 3.271-24.511.711-1.349 1.92-5.328 3.698-12.787.498-1.99 1.067-6.252 1.209-9.52.284-5.329.142-6.394-1.422-9.591-.996-1.989-1.991-5.257-2.205-7.176-.213-1.989-.853-4.546-1.422-5.683-.569-1.208-1.422-3.552-1.92-5.328-1.778-6.323-6.116-12.291-13.298-18.117-2.631-2.06-5.689-4.688-6.898-5.683-2.986-2.7-13.155-9.378-16.853-11.012-3.271-1.492-4.124-1.563-6.969-.781zm161.636-.142c-4.125.497-2.774 2.912 2.56 4.831 9.742 3.41 31.786 21.242 34.204 27.636.498 1.207 1.351 3.197 1.849 4.475.569 1.208.996 2.771.996 3.553 0 .71.497 1.918 1.066 2.628.569.782 1.067 2.345 1.067 3.41 0 1.137.569 3.055 1.209 4.334 1.067 2.06 1.351 4.405 1.707 17.193.142 2.557-1.138 7.885-2.916 12.787-2.418 6.75-2.916 8.952-3.271 14.067-.142 2.771-.782 6.394-1.28 7.886-.711 1.989-.782 3.481-.285 5.186.356 1.35.498 2.984.214 3.623-.925 2.558-1.778 11.723-1.067 12.575.427.497.427 1.634.071 2.984-.355 1.208-.426 2.558-.071 2.984.569 1.065.071 4.191-.782 4.76-.356.213-.64 2.415-.64 4.902 0 2.486-.356 5.399-.782 6.465-.356 1.136-.854 5.399-.925 9.52-.142 4.12-.284 8.809-.355 10.514-.071 2.913-.214 3.197-2.916 4.192-2.915 1.207-3.555 2.344-1.92 3.694.569.426 1.351 2.06 1.849 3.623.853 2.984 2.204 3.837 2.204 1.421 0-1.208.498-1.421 2.845-1.421h2.844v2.984c0 3.978.64 6.252 1.778 6.252s1.778-1.634 1.778-4.547c0-1.279.355-2.629.782-3.055.853-.852-.284-3.694-1.92-4.689-1.067-.639-1.351-3.339-.427-3.339.996 0 3.698-6.323 3.698-8.738 0-1.279.427-2.913.996-3.694.924-1.35 2.56-13.925 2.844-22.024.214-4.547 1.494-8.952 3.271-11.225.783-.995 1.423-2.273 1.423-2.842 0-.639.284-1.278.64-1.563.426-.213 1.635-2.06 2.844-4.12 1.209-1.989 3.484-5.115 5.12-6.891 1.636-1.777 3.769-4.476 4.764-6.039.996-1.563 2.703-3.765 3.84-4.902 1.067-1.208 1.992-2.416 1.992-2.771s1.351-2.415 3.057-4.618c3.2-4.191 4.054-6.678 5.903-16.837 2.773-15.346 2.204-29.483-1.565-37.795-.569-1.208-.995-2.487-.995-2.842s-.64-1.989-1.423-3.623c-1.635-3.41-3.555-3.908-5.262-1.421-1.564 2.202-1.422 3.339.569 5.186 1.849 1.705 4.124 8.383 4.267 12.433.071 1.349.569 3.694 1.066 5.186.569 1.705.711 3.694.427 5.328-.284 1.421-.64 4.689-.711 7.247-.071 2.557-.853 7.175-1.707 10.23-.782 3.126-1.493 6.394-1.493 7.246 0 .924-.356 1.847-.711 2.061-.427.284-1.138 1.492-1.707 2.699-.498 1.279-2.489 4.263-4.409 6.678-1.92 2.416-4.053 5.258-4.764 6.394-2.631 4.263-5.974 8.597-8.391 11.012-1.423 1.421-2.774 3.481-2.987 4.547-.213 1.137-1.209 3.197-2.204 4.547-3.129 4.262-3.84 6.536-4.623 14.919-1.137 12.433-2.133 19.182-3.342 22.947-.711 2.416-.853 3.765-.355 4.334.497.639.497 1.136-.072 1.705-.426.426-.995 1.989-1.351 3.481-.497 2.415-.569 2.202-.64-1.918 0-2.558-.142-8.17-.213-12.433-.142-5.328.071-8.596.782-10.301.498-1.35 1.067-6.039 1.209-10.302.213-4.689.782-9.093 1.422-11.011.783-2.132.996-4.192.711-6.181-.213-1.634-.142-4.192.285-5.684.355-1.492 1.067-6.678 1.493-11.58.427-4.902 1.138-9.164 1.494-9.591.355-.355.64-1.065.64-1.634 0-.568.426-1.989.995-3.197 3.271-7.672 4.978-27.707 2.631-30.62-.569-.71-1.28-2.912-1.564-4.902-.285-2.06-1.351-5.541-2.347-7.743-.995-2.203-1.849-4.973-1.849-6.181 0-1.137-.213-2.203-.498-2.345-.355-.142-1.137-1.349-1.848-2.77-3.84-7.46-29.44-27.778-36.836-29.199-.924-.142-2.773-.213-3.982-.071zm-515.271 182.937c-3.2 3.268-8.32 8.241-11.378 11.083-5.049 4.831-5.476 5.399-5.12 7.46.569 3.268.64 10.514.213 23.942-.355 14.492-.071 18.684 1.28 18.187 1.067-.427 1.351.426.498 1.278-1.991 1.99-2.204 8.81-2.347 86.745-.142 43.763-.213 80.99-.284 82.766-.071 2.984.071 3.197 1.707 3.055 4.906-.355 108.373-.142 113.493.213l5.973.497v-218.886l-11.235-11.153-11.165-11.154-15.431.284c-8.462.142-15.644.497-16 .781-.711.782 3.485 4.05 4.622 3.695.569-.214 2.987-.071 5.405.355 2.418.355 8.106.852 12.658.994 7.822.356 8.32.427 10.382 2.345 1.138 1.066 2.631 2.913 3.342 3.978.924 1.421 1.493 1.776 1.991 1.279.996-.995 1.92-.995 1.92 0 0 .426 1.351 2.558 3.058 4.76 1.707 2.202 3.555 5.044 4.195 6.252 1.138 2.273.925 6.323-.355 7.957-.498.639-.142 1.279 1.209 2.344 1.564 1.208 1.849 1.918 1.493 3.41-1.28 4.902-1.635 10.231-.853 11.936.711 1.563.569 1.989-.64 2.984-1.707 1.42-1.778 4.759-.142 7.104.995 1.35 1.066 1.989.426 3.197-.498.852-.782 3.836-.711 6.82.142 3.765-.142 5.968-.924 7.46-1.067 1.847-1.067 2.202-.071 2.912 1.137.782 3.271 5.258 3.271 6.679 0 .355-.498.71-1.067.71-1.422 0-2.133 1.847-1.209 3.055.782.995 1.28 18.116.711 26.428-.142 1.563 0 3.694.285 4.76.284 1.137.071 2.416-.569 3.339-.711.995-.854 1.847-.356 2.7.711 1.421.64 26.854-.071 27.636-.284.213-.071 1.35.498 2.486 1.28 2.345 1.351 6.323.284 8.739-.569 1.208-.569 3.836 0 9.875.498 5.328.569 8.809.143 9.946-.498 1.208-.498 2.7 0 4.192.426 1.634.426 3.41-.214 5.683-.782 3.126-.711 3.552.711 5.541 1.849 2.416 1.991 4.263.498 4.263-.782 0-1.067.924-1.209 3.339v4.476c.071.568-.213 2.202-.64 3.623-.64 2.131-.569 2.913.356 4.334 1.066 1.634 1.066 2.131 0 6.323-.64 2.486-1.494 4.973-1.849 5.399-.996 1.279-3.342 1.137-3.84-.142-.569-1.492-1.849-1.35-3.413.426-.996 1.208-1.778 1.421-3.627 1.137-1.28-.213-2.56-.213-2.773.071-.712.639-36.48.924-38.187.213-.853-.284-3.129-.284-5.049 0-1.991.355-4.267.284-5.262-.071-1.138-.426-2.347-.426-3.485.142-1.351.64-2.346.568-4.48-.284-2.489-.995-2.915-.924-5.12.284-2.915 1.492-4.266 1.634-4.266.355 0-.923-2.134-3.339-2.987-3.339-.213 0-.213.782 0 1.776.427 2.203-.924 2.345-4.836.356-1.564-.782-2.844-1.137-2.844-.782s-.853.853-1.92 1.137c-1.351.284-2.418 0-3.84-.995-2.347-1.776-3.2-1.847-3.698-.497-.213.497-1.422 1.137-2.631 1.279-1.849.284-2.347.071-2.844-1.279-.356-.853-1.351-1.705-2.276-1.847-1.351-.142-1.707-.711-1.849-3.055-.64-8.383-.711-13.214-.142-16.98.498-3.268.427-4.546-.284-5.328-.925-1.137-.925-10.443 0-12.859.782-1.918.568-9.875-.285-10.869-.498-.569-.569-1.208-.284-1.492.284-.285.569-4.76.569-9.875.071-5.187.355-9.876.568-10.515.285-.71.214-1.421-.213-1.705-1.209-.71-.924-3.765.498-4.547.924-.568.995-.852.355-1.563-.711-.639-1.066-.71-1.92 0-1.493 1.208-2.275-.426-.924-1.918 1.493-1.705 2.631-23.515 1.493-28.275-.213-.853-.071-1.776.356-1.99.498-.355.498-.994-.071-2.202s-.569-2.273-.071-3.41c.426-.995.426-4.618.071-10.088-.356-4.689-.498-13.57-.285-19.75.356-9.165.711-11.723 1.849-13.925l1.351-2.771-1.706-1.847c-1.778-1.918-1.778-1.989-1.351-12.717.213-5.967.782-11.509 1.208-12.432.569-1.279.569-1.99-.071-3.055-.64-.995-.64-1.776-.142-2.771.498-.995.427-1.563-.355-2.415-2.347-2.345-.285-6.679 6.328-13.215 3.129-2.983 4.48-4.76 3.983-5.257-1.209-1.208-.783-2.06.853-1.634 1.493.426 1.991.071 7.182-4.831 3.271-3.055 7.396-5.115 8.32-4.191.569.568.498 1.136-.426 1.989-1.423 1.421-.925 2.131 1.066 1.492.996-.284 1.494-1.066 1.494-2.203 0-1.349.355-1.705 1.706-1.705.925 0 2.062.427 2.489.995.782.924 1.351.852 4.196-.355 7.466-3.197 5.902-4.05-7.894-4.547l-11.164-.426-5.902 5.896zm172.231 1.919c-4.196 4.12-9.174 9.022-11.094 10.94l-3.626 3.339-.142 98.609c-.143 54.206-.285 103.298-.285 109.194l-.071 10.657 2.133-.071c1.209-.071 22.116-.213 46.578-.284 24.462-.142 45.369-.498 46.507-.782 1.138-.355 2.418-.355 2.844 0 .427.355 5.831.711 12.089.853l11.307.284v-218.46l-10.454-10.372c-5.688-5.684-10.382-10.657-10.382-10.941 0-.994-31.146-.426-32.142.569-1.778 1.776 1.92 3.054 12.444 4.191 2.489.284 3.343.639 3.058 1.35-.711 1.847.854 1.705 4.978-.497 3.2-1.705 4.338-2.061 5.262-1.421.569.426 2.062 1.207 3.271 1.776 1.209.568 3.271 2.273 4.551 3.907 1.494 1.847 2.987 2.913 3.983 2.913.995 0 1.706.568 1.92 1.634.284.853 2.062 3.41 4.053 5.613 3.271 3.694 3.627 4.404 4.196 8.88.355 2.842.355 6.607 0 8.952-.427 2.628-.427 4.546.071 5.47.355.71.711 3.055.711 5.257 0 3.268-.214 3.979-1.422 4.334-1.636.497-1.92 2.628-.498 3.836 1.138.853 1.493 13.57.426 13.57-.995 0-.782 4.759.285 5.186.64.213.782 2.557.711 8.738-.071 4.689-.213 8.952-.213 9.52-.071.568.284 2.131.782 3.41.711 1.705.782 2.629.142 3.552-.427.782-.64 3.268-.355 6.465.213 3.481.071 5.684-.569 6.891-.711 1.279-.783 2.132-.214 3.268.854 1.706.925 7.247.143 7.957-.498.569-.143 33.036.426 37.156.285 1.776.142 3.126-.355 3.41-.427.214-.498.853-.214 1.279.285.426.569 7.957.569 16.695.142 14.351 0 16.056-1.138 17.548-1.208 1.421-1.208 1.705-.284 2.487 1.067.923 1.138 1.563 1.209 19.892 0 4.05-.925 7.104-2.702 9.023-1.565 1.634-1.707 1.705-3.271.639-1.992-1.421-4.552-1.492-5.12-.071-.214.568-1.849 1.776-3.556 2.629l-3.2 1.492-1.422-1.706-1.494-1.705-1.208 1.563-1.28 1.563-3.983-1.35c-3.271-1.136-4.409-1.207-6.115-.568-1.565.568-3.414.568-6.685.071-2.489-.426-5.049-.497-5.617-.213-1.067.568-33.067.213-34.703-.355-.497-.213-.711-.64-.497-1.066.213-.355.071-.71-.285-.71-.427 0-.782.284-.782.71 0 1.279-5.831 2.345-8.249 1.492-1.28-.426-3.556-.639-5.12-.355-1.636.284-2.987.142-3.271-.284-.285-.427-1.92-.569-4.196-.356-3.342.356-3.982.143-6.044-1.562-2.56-2.132-2.987-4.547-.853-5.116 1.777-.497 1.848-1.634.071-1.634-2.205 0-2.987-1.563-2.063-4.12.712-1.847.64-2.629-.355-4.689-1.067-2.273-1.067-2.771-.071-6.181 1.066-3.552 1.066-5.257-.071-7.957-.356-.923-.214-1.136.569-.781.853.284 1.28-.142 1.635-1.492.569-2.345-.142-3.126-1.422-1.421-.64.924-1.067 1.066-1.422.426-.356-.497-.071-1.421.569-2.131.782-.924.995-1.918.711-3.552-.285-1.279-.071-4.05.426-6.11.783-3.197.783-4.05 0-4.973-.782-.924-.782-1.35.143-2.202.782-.853.924-1.706.568-3.34-1.777-7.246-1.991-8.88-1.351-12.148.356-1.918.996-3.907 1.494-4.476.64-.781.497-1.208-.711-2.06-1.849-1.279-2.134-4.547-.427-4.547.853 0 .995-.213.427-.923-.925-1.066-.996-18.827-.072-19.395.356-.213.427-1.563.214-2.984-.214-1.421-.071-3.552.355-4.618.427-1.137.569-2.416.285-2.842-.356-.497-.64-1.847-.64-2.984-.498-9.946-.427-13.995.426-15.913.783-1.919.712-2.416-.284-3.553-.64-.639-1.138-2.06-1.138-3.055 0-.994-.426-2.202-.995-2.628-.711-.568-.783-1.563-.356-3.836 1.778-9.733 2.205-12.788 2.56-20.319.427-8.17.356-8.383-1.138-8.809-1.137-.285-1.493-.924-1.493-2.629 0-1.918.213-2.131 1.422-1.776 1.138.355 1.422.142 1.422-1.35 0-.995-.426-1.847-1.137-1.989-1.28-.213-2.063-6.678-.996-8.383.356-.569.356-1.492 0-2.132-.427-.781-.213-1.847.64-3.126.711-1.065 1.209-2.557.996-3.268-.214-.71 0-1.918.426-2.699.569-.995.498-1.705-.284-2.7-1.422-1.918-1.28-4.049.284-5.044.996-.639 1.494-1.847 1.636-3.907.213-2.629.427-3.055 1.991-3.268 2.418-.356 5.831-3.695 5.404-5.329-.213-.852.214-1.492 1.28-1.847.854-.355 1.992-1.421 2.489-2.486.569-.995 1.565-1.99 2.347-2.274.711-.213 1.636-.994 2.062-1.847.64-1.137 1.209-1.35 3.058-.995 1.28.214 3.342.071 4.622-.355 1.849-.639 2.489-.568 3.556.355 1.138.995 1.351.995 2.418-.071.64-.639 2.702-1.421 4.551-1.634 2.773-.284 3.484-.639 3.626-1.847.214-1.421-.213-1.492-8.462-1.918-14.435-.781-12.729-1.421-21.333 7.247zm178.133-3.34c-2.418 2.487-7.467 7.46-11.235 11.083l-6.827 6.678.284 32.752c.214 18.045.569 66.994.854 108.839.213 41.773.569 76.159.711 76.301.426.426 37.475 0 38.258-.427.355-.213.071-.852-.64-1.349-.712-.569-1.138-1.208-.854-1.421.214-.285 1.422.355 2.631 1.421l2.276 1.847 35.84.142c19.698.071 37.689.142 39.893.213h4.125l-.214-18.827c-.213-17.974-.569-40.068-1.28-76.727-.142-9.165-.284-40.779-.355-70.191-.071-52.715-.071-53.567-1.494-54.704-.782-.639-5.617-5.399-10.737-10.585l-9.387-9.378-15.716.213c-8.675.142-16.142.497-16.64.781-1.493.924 1.352 2.984 4.836 3.482 17.92 2.344 18.276 2.415 19.413 1.42 1.991-1.776 4.907-1.136 5.76 1.208.285.64 1.351 1.35 2.56 1.563 1.209.213 2.56 1.279 3.343 2.416 1.848 2.912 4.764 5.896 5.404 5.47.711-.426 2.773 2.558 2.773 4.121 0 .781.498 1.278 1.28 1.278 1.778 0 3.129 5.044 2.916 11.083-.071 2.7 0 5.186.071 5.613.142.355 0 1.42-.284 2.344-.427 1.208-.214 1.918.711 2.629 1.066.781 1.137 1.207.426 2.77-.426.995-.64 2.345-.426 2.913.284.569-.071 1.847-.64 2.771-.996 1.492-.996 1.989 0 4.76.782 2.415.853 3.41.213 4.405-.569.994-.569 1.918.142 3.765.711 1.989.711 2.771-.071 3.907-.569.995-.711 2.487-.427 4.263.356 2.202.214 2.842-.64 3.197-1.422.568-1.493 3.126-.142 3.126 1.494 0 1.991 1.208 1.209 2.699-.498.924-.498 2.629-.071 5.187.427 2.131.711 9.448.64 16.269v24.865c-.071 6.891-.071 10.23 0 12.077.071.995.071 2.416 0 3.197 0 .782.142 4.76.427 8.881.213 4.12.355 8.88.284 10.656-.213 3.268-.213 5.755 0 22.379.071 5.044 0 12.291-.071 15.985-.142 3.694 0 7.46.284 8.312.285.853.214 3.552-.142 6.039-1.422 9.236-1.422 9.236-.426 8.88 1.493-.568.568 6.607-1.067 8.455-1.067 1.136-2.347 1.491-5.618 1.563-2.418.071-4.907.426-5.618.781-.995.568-34.773.497-39.893-.071-.569 0-2.204 0-3.556.142-1.351.142-3.84-.213-5.475-.71-2.418-.711-3.2-.711-4.053-.071-.569.497-1.423.71-1.849.426-.356-.213-1.849-.071-3.2.426-2.205.853-2.56.782-3.414-.355-.782-.995-1.493-1.208-3.057-.853-4.125.924-16.214.924-18.205-.071-1.707-.852-2.275-.781-4.124.142-2.845 1.421-3.84 1.35-6.187-.639-1.067-.924-2.56-1.776-3.342-1.918-1.138-.213-1.351-1.066-1.565-5.613-.142-2.912-.426-6.038-.64-6.82-.213-.923.143-1.918.711-2.415.712-.569.925-1.421.64-2.416-.284-.852-.426-2.557-.426-3.836.071-1.279-.214-3.126-.64-4.121-.427-1.207-.427-2.202 0-2.699.355-.427.711-5.755.711-11.794.071-9.164-.142-11.154-1.138-12.219-1.067-1.208-1.067-1.35.142-2.7.996-1.137 1.138-1.634.498-2.273-1.067-1.066-1.138-3.41-.142-3.41.427 0 .711-.64.711-1.35 0-.782-.284-1.634-.711-1.847-.925-.569-.925-3.41.071-4.405.64-.639.64-1.421 0-3.126-.996-2.842-.996-9.52-.071-11.367.427-.71 1.28-1.35 1.991-1.421.924 0 .853-.213-.427-.781-1.849-.924-2.773-3.695-1.635-5.044.569-.711.498-1.563-.071-3.197-.711-1.776-.711-2.771-.071-4.476.711-1.776.64-2.629-.143-4.263-.853-1.563-.924-2.344-.284-3.765.64-1.35.64-2.06 0-2.842-.64-.781-.64-1.421-.142-2.415.426-.853.569-4.405.284-9.449-.213-4.476-.427-11.936-.498-16.624-.071-6.252-.355-8.952-1.137-10.16-.996-1.492-.925-1.705.142-2.557.995-.711 1.209-1.776.924-5.684-.213-3.268 0-5.612.711-7.388 1.138-2.629.64-3.624-1.564-3.695-1.067 0-1.209-1.136-.356-1.705.356-.213.569-3.054.427-6.251-.071-3.268.142-8.952.427-12.646.355-3.695.355-7.034.071-7.318-.711-.71.569-6.323 1.635-7.104.569-.355.427-.711-.284-1.137-.853-.568-.782-1.137.64-3.907.853-1.776 2.062-3.268 2.631-3.268s.996-.569.996-1.279c0-1.776 1.351-2.984 3.342-2.984 1.138 0 1.635-.426 1.635-1.35 0-.781-.284-1.634-.711-1.847-1.351-.852-.711-1.776 1.351-1.776 1.423 0 2.134-.426 2.418-1.421.213-.781.925-1.563 1.707-1.847.711-.213 1.778-.71 2.346-1.066.569-.355 1.565-.852 2.134-1.065.569-.213 1.991-.853 3.058-1.492 1.208-.64 4.053-1.137 6.968-1.208 4.125-.071 4.907-.284 4.907-1.35 0-1.421.925-1.563 2.987-.426 1.138.639 1.706.568 2.56-.355.711-.711.924-1.35.498-1.776-.427-.356-5.832-.853-12.089-1.066l-11.378-.497-4.338 4.475zm-8.818 16.127c0 .853-1.422 1.776-1.92 1.279-.497-.497.427-1.918 1.28-1.918.356 0 .64.284.64.639zm163.343-9.804l-10.454 10.444v81.629c.071 44.829.142 94.133.214 109.479l.142 27.849 60.658.071 60.657.071-.071-56.054c-.071-30.762-.213-61.879-.355-69.125-.071-7.247-.427-31.473-.711-53.852l-.569-40.708-5.191-5.115c-2.845-2.842-7.254-7.175-9.814-9.662-2.56-2.486-4.693-4.831-4.693-5.115 0-.923-30.08-.781-32.356.071l-1.92.711 1.849 1.492c2.276 1.776 5.76 2.202 18.774 2.202 5.12 0 9.6.284 9.813.639.213.355.924.64 1.635.64.712 0 1.707.781 2.205 1.776.498.994 1.209 1.776 1.564 1.776.285 0 .569.639.569 1.492 0 1.279.285 1.421 2.205.994 1.777-.426 2.204-.284 2.56.995.213.853.924 1.492 1.706 1.492 1.494 0 1.849 1.847.498 2.273-.427.142-.569.711-.284 1.137.284.497 1.137.71 1.92.497.924-.355 1.351-.142 1.351.711 0 .568.498 1.279 1.138 1.563.568.213.995 1.065.924 1.918-.071.781.213 2.842.711 4.547.64 2.202.64 3.339.142 3.978-.497.64-.569 2.06-.142 4.405.853 4.618.782 32.183-.071 32.68-.356.284-.356.71 0 1.208.356.497.924 2.415 1.138 4.262.498 3.339.498 3.41-1.209 2.984-.996-.284-1.991-.142-2.205.284-.355.498.143.782 1.209.782 1.28 0 1.92.497 2.205 1.847.498 1.989-.142 6.607-1.138 7.815-.356.568-.213.994.498 1.279 1.28.497 1.422 4.049.213 5.328-.711.781-.711.995 0 1.279 1.138.426 1.067 2.273-.142 2.77-.853.356-.853.711 0 2.842 1.28 2.984.711 10.87-.853 12.078-1.352 1.136-.569 2.912 1.564 3.41 1.493.426 1.707.852 1.707 3.552 0 2.842-.143 3.126-2.134 3.481-2.56.568-3.129 3.339-.711 3.339 1.707 0 2.702 1.847 1.565 2.984-.356.355-.569 1.918-.356 3.339.213 1.492 0 3.41-.427 4.263-.711 1.207-.568 1.918.427 3.623.996 1.705 1.067 2.415.427 3.481-.569.853-.64 2.202-.214 4.049.356 1.563.356 3.979.072 5.4-.356 1.421-.498 2.771-.356 2.913.64.639.996 11.011.427 12.645-.427 1.137-.356 2.132.284 3.126.711 1.066.782 3.126.285 8.81-.498 6.038-.356 7.744.497 9.022 1.28 1.918.64 6.181-1.351 8.952-1.28 1.918-1.28 1.918.142 2.699 1.778.924 1.778 2.061.214 4.974-1.209 2.06-1.209 2.273-.071 3.125 1.066.782 1.137 1.421.426 5.684-.711 4.192-.64 5.115.356 6.82 1.28 2.06.782 4.973-.853 6.039-.427.213-.783 1.208-.783 2.131 0 2.416-3.413 5.755-4.977 4.76-.712-.426-2.489-.426-4.978-.071-5.974.995-29.014.924-88.534-.284l-7.822-.142-.213-1.989c-.213-1.492-.64-1.919-1.92-1.919-1.707 0-1.707-.071-1.422-5.115.142-2.841-.071-6.678-.498-8.525-.64-2.487-.64-3.765 0-4.973 1.635-3.339 1.635-4.689.071-7.318-1.493-2.557-1.564-2.983-.711-8.099 1.28-8.17 1.564-12.93.924-13.853-.924-1.137-.995-20.816-.142-21.384 1.067-.64.853-3.623-.355-4.618-.783-.639-.854-1.137-.356-1.776.427-.497.498-1.847.284-2.984-.213-1.208-.071-2.842.427-3.694.64-1.279.569-1.918-.427-3.41-1.066-1.705-1.066-1.919 0-2.7 1.423-1.066 1.494-2.771.072-3.907-1.494-1.208-1.352-3.268.355-4.476 1.636-1.137 1.351-2.487-.853-5.4-1.707-2.202-1.636-3.339.213-3.836 1.209-.355 1.422-.781 1.067-2.06-.214-.924-.427-2.629-.427-3.837 0-1.634-.355-2.344-1.422-2.628-1.351-.355-1.351-.497-.213-3.766.853-2.486.924-3.694.355-4.546-.569-.924-.498-1.776.285-3.197.924-1.776.924-2.132-.072-3.197-.853-.924-1.137-2.558-.995-6.11.071-2.7.071-6.678-.071-8.88-.071-2.132.213-4.689.711-5.542.64-1.279.64-2.06 0-3.694-.853-2.06-.427-5.613.711-6.323 1.067-.639 1.138-5.115.213-5.47-.569-.214-.924.284-.924 1.207 0 .853-.285 1.35-.64 1.066-.853-.497-.427-29.199.498-31.543.426-1.137.355-2.487-.143-3.766-.568-1.492-.497-2.415.143-3.481.497-.781.711-1.705.426-2.131-.213-.355 0-1.137.427-1.705.427-.569.64-1.634.356-2.416-.712-2.202 1.92-3.268 4.622-1.847 1.849.995 2.204.995 2.56.071.213-.568-.285-1.989-1.138-3.126-1.564-2.131-1.422-3.694.356-3.694.497 0 1.066.497 1.351 1.066.924 2.557 3.769-.427 4.266-4.547.285-2.274 1.351-3.623 2.987-3.623.498 0 .996-.427 1.209-.995.213-.568 2.133-1.137 4.835-1.421 4.125-.497 4.552-.426 5.76 1.137l1.28 1.634 1.494-1.989c1.138-1.492 2.062-1.919 4.266-1.919 3.272 0 5.618-.994 5.618-2.415 0-1.066-9.173-1.918-18.418-1.776l-5.404.142-10.524 10.514zm-468.623-4.76c-.497 1.35.071 3.268.996 3.268.782 0 .782-2.202 0-3.41-.498-.781-.64-.781-.996.142zm174.436.924c0 .71.355 1.776.711 2.344.498.782.711.498.711-1.278 0-1.208-.284-2.274-.711-2.274-.356 0-.711.569-.711 1.208zm174.933.213c0 1.847 5.405 12.433 5.902 11.58.356-.497.712-5.754.569-7.886-.071-.568-.64-.71-1.92-.426-2.062.497-3.129-.497-3.129-3.126 0-.852-.284-1.563-.711-1.563-.355 0-.711.64-.711 1.421zm-347.022 3.908c0 1.634 2.204 6.749 2.916 6.749.355 0 .64.639.64 1.35 0 .781.355 1.634.782 1.847.498.355.569-1.066.213-4.689-.213-2.913-.64-5.471-.782-5.826-.569-.994-3.769-.497-3.769.569zm510.578.497c.071.923.64 2.913 1.422 4.476 1.422 2.983 1.778 5.47.924 6.322-.995.995-2.275 6.465-1.706 7.034 1.209 1.208 3.698-.284 4.124-2.487.356-1.847.64-2.06 2.205-1.634 3.697.924 5.831 6.536 3.555 9.307-3.555 4.405-4.124 4.76-7.68 4.405-2.56-.284-3.911-.782-4.906-2.061-1.707-2.131-2.418-5.612-1.565-7.814.569-1.634.427-14.28-.284-16.127-.498-1.421-2.418-.995-5.334 1.35-8.462 6.749-11.164 18.755-6.186 26.996 3.484 5.755 6.471 8.241 12.871 10.586 7.893 2.984 14.933.71 22.186-7.034 1.28-1.421 2.418-2.841 2.418-3.197 0-.355.569-1.278 1.209-2.06 1.92-2.06 1.707-13.356-.355-17.192-2.276-4.334-5.476-7.389-9.885-9.662-6.4-3.268-6.613-3.126-6.115 3.907.284 4.192.142 6.039-.427 6.465-1.351.781-1.565.213-1.849-5.399-.284-6.465-.782-7.744-2.916-7.744-1.28 0-1.706.355-1.706 1.563zm-154.809.284c-.213.639-.071 2.558.355 4.192.569 2.06.569 3.765.143 5.399-.925 3.126-.925 3.481.213 3.481.498 0 1.707.995 2.56 2.202 4.338 5.826-1.849 14.28-8.747 12.007-4.195-1.35-6.897-7.815-4.337-10.373 1.422-1.491 1.066-11.153-.64-14.35-1.423-2.7-1.849-2.558-6.969 1.989-4.836 4.262-6.4 8.099-6.543 15.985-.071 5.825.072 6.678 1.849 9.306 6.756 10.444 17.28 14.209 27.307 9.804 4.267-1.918 9.813-6.891 10.596-9.733.284-.852.924-2.628 1.493-3.836 2.844-6.323-.071-16.695-6.116-21.81-2.417-1.99-6.329-4.121-9.102-4.973-1.138-.356-1.707-.214-2.062.71zm11.307 21.384c1.422 1.705 2.133 3.766 1.28 3.766-1.067 0-3.556-2.7-3.556-3.908 0-1.421.924-1.35 2.276.142zm-359.894-20.816c-.64.782-.711 1.421-.071 2.558.427.781.711 2.842.569 4.476-.213 2.841-.356 2.984-2.702 3.197-2.702.284-3.556 1.065-3.556 3.481 0 .923-.284 1.634-.711 1.634-1.209 0-.782 1.208.498 1.776.924.284 1.849-.213 3.271-1.776 1.138-1.279 2.418-2.06 2.987-1.847 1.849.71 3.555 4.191 3.484 7.104-.071 2.416-.569 3.197-2.844 5.186-3.556 2.984-6.4 3.126-8.96.355-2.703-2.77-3.627-5.541-2.774-8.241.711-2.273.996-14.066.356-16.269-.711-2.273-3.413-1.349-7.325 2.558-5.404 5.399-7.182 9.449-7.182 16.34 0 5.826.569 7.389 4.622 13.072 1.494 2.06 3.556 3.694 6.756 5.257 3.982 1.99 5.333 2.274 10.098 2.274 7.538 0 10.88-1.705 16.924-8.383 4.836-5.4 5.76-14.422 2.205-21.527-2.418-4.831-6.685-8.88-11.236-10.869-3.769-1.634-3.413-1.563-4.409-.356zm9.814 28.276c.64 1.065.853 2.131.568 2.415-.711.711-4.337-2.06-4.622-3.552-.426-1.989 2.845-1.066 4.054 1.137zm333.937-17.051c-.924 4.263-.711 5.897.711 5.897 1.92 0 2.987-3.268 1.92-5.684-.995-2.202-2.133-2.273-2.631-.213zm-294.755 140.525c0 .781.498 1.421 1.066 1.421.569 0 1.067-.427 1.067-.995 0-.568-.498-1.137-1.067-1.421-.711-.284-1.066.071-1.066.995zm-.569 30.478c.284.923 1.28 1.136 1.351.284 0-.284-.356-.64-.782-.853-.498-.142-.782.142-.569.569z" fill="#5F9EA0"/></svg>